<svg xmlns="http://www.w3.org/2000/svg" width="48" height="49" viewBox="0 0 48 49">
    <g fill="none" fill-rule="evenodd">
        <path fill="#0DABA0" d="M11.31 37.348c-3.405-1.539-5.658-1.665-6.76-.38-1.102 1.287-2.217 4.567-3.346 9.842 5.166-.682 8.321-1.6 9.466-2.753 1.145-1.153 1.358-3.39.64-6.709z"/>
        <g fill="#353638" fill-rule="nonzero" stroke="#353638" stroke-width=".6">
            <path d="M34.183 18.012a3.879 3.879 0 0 1-3.916-3.917 3.879 3.879 0 0 1 3.916-3.916 3.879 3.879 0 0 1 3.917 3.916 3.879 3.879 0 0 1-3.917 3.917zm0-6.267c-1.253 0-2.35 1.097-2.35 2.35 0 1.254 1.097 2.35 2.35 2.35 1.254 0 2.35-1.096 2.35-2.35 0-1.253-1.096-2.35-2.35-2.35zM15.383 47.779a.862.862 0 0 1-.783-.47c-.157-.314 0-.627.157-.784 2.663-2.663 4.856-7.206 2.35-10.653-.314-.313-.157-.783.156-1.097.314-.313.784-.156 1.097.157 2.82 3.76 1.41 8.147-1.097 11.28 2.507-.627 4.074-2.193 5.17-3.603 2.35-3.29 2.977-7.834 1.724-11.594-.157-.47 0-.783.47-.94.47-.156.783 0 .94.47 1.41 4.23.783 9.4-1.88 13.004-2.037 2.663-5.014 4.23-8.304 4.23zM1.283 33.679H.97a.862.862 0 0 1-.47-.784c0-3.133 1.41-5.796 4.073-7.676 3.604-2.507 8.93-3.134 13.474-1.724.47.157.626.627.47.94-.157.47-.627.627-.94.47-3.917-1.41-8.93-.783-12.064 1.41-1.253.94-2.663 2.35-3.133 4.544 3.603-2.35 8.617-2.507 11.907-1.254.47.157.626.627.47.94-.157.47-.627.627-.94.47-3.447-1.253-8.617-.783-11.75 2.194-.314.313-.627.47-.784.47z"/>
            <path d="M9.117 39.945c-.157 0-.47-.156-.627-.156-.157-.314-.157-.784 0-.94.627-1.254 16.92-29.767 21.15-33.997C33.713.935 46.247.78 46.717.78c.313 0 .47.156.626.156.157 0 .157.47.157.627 0 .47-.157 13.003-4.073 16.92-4.23 4.23-32.744 20.68-33.997 21.307 0 .156-.157.156-.313.156zm36.816-37.6c-2.82.157-12.063.627-15.04 3.604-3.446 3.446-15.353 23.813-19.583 31.02 7.207-4.23 27.573-16.137 31.02-19.584 2.977-2.976 3.447-12.22 3.603-15.04z"/>
            <path d="M1.283 47.779c-.156 0-.47-.157-.626-.157C.5 47.31.5 47.152.5 46.84c.157-.784 1.253-8.147 3.133-10.027 2.037-2.037 5.64-2.037 7.677 0 1.097 1.097 1.567 2.35 1.567 3.917 0 1.566-.47 2.82-1.41 3.916-2.037 1.88-9.244 2.977-10.184 3.134zM7.55 36.812c-1.097 0-2.037.47-2.82 1.097-1.097 1.096-2.037 5.17-2.507 8.146 2.977-.47 7.05-1.566 8.147-2.506.627-.784 1.097-1.724 1.097-2.82 0-1.097-.47-2.037-1.097-2.82-.627-.784-1.723-1.097-2.82-1.097z"/>
        </g>
    </g>
</svg>
