<svg xmlns="http://www.w3.org/2000/svg" width="45" height="46" viewBox="0 0 45 46">
    <g fill="none" fill-rule="evenodd" transform="translate(.335 1)">
        <circle cx="13.2" cy="26.4" r="2.933" fill="#0DABA0"/>
        <circle cx="24.933" cy="14.833" r="2.933" fill="#0DABA0"/>
        <circle cx="38.072" cy="7.333" r="2.933" fill="#0DABA0"/>
        <path fill="#353638" fill-rule="nonzero" stroke="#353638" stroke-width=".6" d="M29.238 13.718c.062.304.095.621.095.949 0 2.493-1.906 4.4-4.4 4.4-.975 0-1.86-.292-2.577-.796l-5.552 5.552c.504.716.796 1.602.796 2.577 0 2.493-1.907 4.4-4.4 4.4-2.493 0-4.4-1.907-4.4-4.4 0-2.493 1.907-4.4 4.4-4.4.975 0 1.86.292 2.577.796l5.552-5.552a4.447 4.447 0 0 1-.796-2.577c0-2.494 1.907-4.4 4.4-4.4 1.609 0 2.973.793 3.74 2.026l5.349-3.343a4.578 4.578 0 0 1-.289-1.617c0-2.493 1.907-4.4 4.4-4.4 2.494 0 4.4 1.907 4.4 4.4 0 2.494-1.906 4.4-4.4 4.4-1.36 0-2.545-.567-3.342-1.488l-.031.022-5.522 3.451zM2.933 41.067h-2.2c-.44 0-.733-.294-.733-.734s.293-.733.733-.733h2.2V.733c0-.44.294-.733.734-.733S4.4.293 4.4.733V39.6h38.867c.44 0 .733.293.733.733s-.293.734-.733.734H4.4v2.2c0 .44-.293.733-.733.733s-.734-.293-.734-.733v-2.2zm11-4.4c-.44 0-.733-.294-.733-.734v-1.466c0-.44.293-.734.733-.734s.734.294.734.734v1.466c0 .44-.294.734-.734.734zm11.734 0c-.44 0-.734-.294-.734-.734v-13.2c0-.44.294-.733.734-.733s.733.293.733.733v13.2c0 .44-.293.734-.733.734zm13.2 0c-.44 0-.734-.294-.734-.734v-19.8c0-.44.294-.733.734-.733s.733.293.733.733v19.8c0 .44-.293.734-.733.734zM13.2 23.467a2.942 2.942 0 0 0-2.933 2.933 2.942 2.942 0 0 0 2.933 2.933 2.942 2.942 0 0 0 2.933-2.933 2.942 2.942 0 0 0-2.933-2.933zm11.733-11.734A2.942 2.942 0 0 0 22 14.667a2.942 2.942 0 0 0 2.933 2.933 2.942 2.942 0 0 0 2.934-2.933 2.942 2.942 0 0 0-2.934-2.934zm13.2-7.333A2.942 2.942 0 0 0 35.2 7.333a2.942 2.942 0 0 0 2.933 2.934 2.942 2.942 0 0 0 2.934-2.934A2.942 2.942 0 0 0 38.133 4.4z"/>
    </g>
</svg>
