<svg xmlns="http://www.w3.org/2000/svg" width="46" height="47" viewBox="0 0 46 47">
    <g fill="none" fill-rule="evenodd">
        <path fill="#0DABA0" d="M32.302 5.279v11.333h12.75z"/>
        <g fill="#353638" fill-rule="nonzero" stroke="#353638" stroke-width=".6">
            <path d="M44.602 41.279h-24.75c-.45 0-.75-.3-.75-.75s.3-.75.75-.75h24v-22.95l-11.55-11.55h-7.2c-.45 0-.75-.3-.75-.75s.3-.75.75-.75h7.5c.15 0 .45.15.6.15l12 12c.15.15.15.3.15.6v24c0 .45-.3.75-.75.75z"/>
            <path d="M44.302 17.279h-11.7c-.45 0-.75-.3-.75-.75v-12c0-.45.3-.75.75-.75s.75.3.75.75v11.25h10.95c.45 0 .75.3.75.75s-.45.75-.75.75zM38.602 24.779h-15c-.45 0-.75-.3-.75-.75s.3-.75.75-.75h15c.45 0 .75.3.75.75s-.3.75-.75.75zM38.602 29.279h-15c-.45 0-.75-.3-.75-.75s.3-.75.75-.75h15c.45 0 .75.3.75.75s-.3.75-.75.75zM38.602 33.779h-15c-.45 0-.75-.3-.75-.75s.3-.75.75-.75h15c.45 0 .75.3.75.75s-.3.75-.75.75z"/>
            <path d="M17.302 45.779c-1.35 0-2.7-.3-3.9-.75l-10.05-4.5c-1.8-.6-3-2.25-3-4.05V9.929c0-1.95 1.35-3.75 3.15-4.35l12.15-3.75c2.4-.75 4.95-1.05 7.5-1.05 1.5 0 2.7 1.2 2.7 2.7v10.2c0 1.2-.75 2.1-1.8 2.55l-3.45.9c-.45.15-.75.6-.75 1.05v25.2c0 1.2-1.2 2.4-2.55 2.4zm-1.2-42.45l-12.15 3.75c-1.2.3-2.1 1.5-2.1 2.85v26.55c0 1.2.75 2.4 1.95 2.85l10.05 4.5c1.05.45 2.1.6 3.3.6.6 0 1.2-.45 1.2-1.2v-25.2c0-1.2.75-2.1 1.8-2.55l3.45-.9c.45-.15.75-.6.75-1.05v-10.2c0-.6-.45-1.05-1.2-1.05-2.4 0-4.8.3-7.05 1.05z"/>
        </g>
    </g>
</svg>
