<svg width="32" height="26" viewBox="0 0 32 26" fill="none" xmlns="http://www.w3.org/2000/svg">
<path fill-rule="evenodd" clip-rule="evenodd" d="M0.875 24C0.875 23.6353 1.01987 23.2856 1.27773 23.0277C1.53559 22.7699 1.88533 22.625 2.25 22.625H29.75C30.1147 22.625 30.4644 22.7699 30.7223 23.0277C30.9801 23.2856 31.125 23.6353 31.125 24C31.125 24.3647 30.9801 24.7144 30.7223 24.9723C30.4644 25.2301 30.1147 25.375 29.75 25.375H2.25C1.88533 25.375 1.53559 25.2301 1.27773 24.9723C1.01987 24.7144 0.875 24.3647 0.875 24ZM0.875 13C0.875 12.6353 1.01987 12.2856 1.27773 12.0277C1.53559 11.7699 1.88533 11.625 2.25 11.625H29.75C30.1147 11.625 30.4644 11.7699 30.7223 12.0277C30.9801 12.2856 31.125 12.6353 31.125 13C31.125 13.3647 30.9801 13.7144 30.7223 13.9723C30.4644 14.2301 30.1147 14.375 29.75 14.375H2.25C1.88533 14.375 1.53559 14.2301 1.27773 13.9723C1.01987 13.7144 0.875 13.3647 0.875 13ZM0.875 2C0.875 1.63533 1.01987 1.28559 1.27773 1.02773C1.53559 0.769866 1.88533 0.625 2.25 0.625H29.75C30.1147 0.625 30.4644 0.769866 30.7223 1.02773C30.9801 1.28559 31.125 1.63533 31.125 2C31.125 2.36467 30.9801 2.71441 30.7223 2.97227C30.4644 3.23013 30.1147 3.375 29.75 3.375H2.25C1.88533 3.375 1.53559 3.23013 1.27773 2.97227C1.01987 2.71441 0.875 2.36467 0.875 2Z" fill="#3D3D3D"/>
</svg>
