<svg width="71" height="49" viewBox="0 0 71 49" fill="none" xmlns="http://www.w3.org/2000/svg">
<path d="M18.244 48.9827C12.5773 48.9827 8.248 46.8974 5.256 42.7267C2.264 38.5561 0.768 32.4814 0.768 24.5027C0.768 16.5241 2.264 10.4494 5.256 6.27873C8.248 2.10807 12.5773 0.0227318 18.244 0.0227318C23.9107 0.0227318 28.2173 2.10807 31.164 6.27873C34.156 10.4494 35.652 16.5241 35.652 24.5027C35.652 32.4814 34.156 38.5561 31.164 42.7267C28.2173 46.8974 23.9107 48.9827 18.244 48.9827ZM18.244 41.9107C20.7827 41.9107 22.6867 40.4827 23.956 37.6267C25.2253 34.7707 25.86 30.3961 25.86 24.5027C25.86 18.5641 25.2253 14.1894 23.956 11.3787C22.732 8.52273 20.828 7.09473 18.244 7.09473C15.66 7.09473 13.7333 8.52273 12.464 11.3787C11.1947 14.1894 10.56 18.5641 10.56 24.5027C10.56 30.3961 11.1947 34.7707 12.464 37.6267C13.7333 40.4827 15.66 41.9107 18.244 41.9107ZM45.4052 41.0267H53.0892V11.6507L44.2492 16.8867V8.18273L56.4892 0.702731H62.8812V41.0267H70.4972V48.3027H45.4052V41.0267Z" fill="#EE0033"/>
</svg>
