<svg width="74" height="49" viewBox="0 0 74 49" fill="none" xmlns="http://www.w3.org/2000/svg">
<path d="M18.244 48.9827C12.5773 48.9827 8.248 46.8974 5.256 42.7267C2.264 38.5561 0.768 32.4814 0.768 24.5027C0.768 16.5241 2.264 10.4494 5.256 6.27873C8.248 2.10807 12.5773 0.0227318 18.244 0.0227318C23.9107 0.0227318 28.2173 2.10807 31.164 6.27873C34.156 10.4494 35.652 16.5241 35.652 24.5027C35.652 32.4814 34.156 38.5561 31.164 42.7267C28.2173 46.8974 23.9107 48.9827 18.244 48.9827ZM18.244 41.9107C20.7827 41.9107 22.6867 40.4827 23.956 37.6267C25.2253 34.7707 25.86 30.3961 25.86 24.5027C25.86 18.5641 25.2253 14.1894 23.956 11.3787C22.732 8.52273 20.828 7.09473 18.244 7.09473C15.66 7.09473 13.7333 8.52273 12.464 11.3787C11.1947 14.1894 10.56 18.5641 10.56 24.5027C10.56 30.3961 11.1947 34.7707 12.464 37.6267C13.7333 40.4827 15.66 41.9107 18.244 41.9107ZM41.2572 41.2307C44.2946 39.1001 47.3772 36.5614 50.5052 33.6147C53.6332 30.6227 56.3079 27.4041 58.5292 23.9587C60.7506 20.5134 61.8612 17.2267 61.8612 14.0987C61.8612 12.1494 61.3172 10.6081 60.2292 9.47473C59.1412 8.3414 57.6452 7.77473 55.7412 7.77473C53.6559 7.77473 51.6612 8.3414 49.7572 9.47473C47.8986 10.5627 46.3799 12.0361 45.2012 13.8947L39.9652 8.45473C41.5519 5.78007 43.7279 3.7174 46.4932 2.26673C49.3039 0.770732 52.4092 0.0227318 55.8092 0.0227318C60.7506 0.0227318 64.6266 1.24673 67.4372 3.69473C70.2932 6.0974 71.7212 9.45207 71.7212 13.7587C71.7212 17.7481 70.1572 22.0321 67.0292 26.6107C63.9012 31.1894 59.6399 35.9947 54.2452 41.0267H73.3532V48.3027H41.2572V41.2307Z" fill="#EE0033"/>
</svg>
