<svg width="74" height="49" viewBox="0 0 74 49" fill="none" xmlns="http://www.w3.org/2000/svg">
<path d="M18.244 48.9827C12.5773 48.9827 8.248 46.8974 5.256 42.7267C2.264 38.5561 0.768 32.4814 0.768 24.5027C0.768 16.5241 2.264 10.4494 5.256 6.27873C8.248 2.10807 12.5773 0.0227318 18.244 0.0227318C23.9107 0.0227318 28.2173 2.10807 31.164 6.27873C34.156 10.4494 35.652 16.5241 35.652 24.5027C35.652 32.4814 34.156 38.5561 31.164 42.7267C28.2173 46.8974 23.9107 48.9827 18.244 48.9827ZM18.244 41.9107C20.7827 41.9107 22.6867 40.4827 23.956 37.6267C25.2253 34.7707 25.86 30.3961 25.86 24.5027C25.86 18.5641 25.2253 14.1894 23.956 11.3787C22.732 8.52273 20.828 7.09473 18.244 7.09473C15.66 7.09473 13.7333 8.52273 12.464 11.3787C11.1947 14.1894 10.56 18.5641 10.56 24.5027C10.56 30.3961 11.1947 34.7707 12.464 37.6267C13.7333 40.4827 15.66 41.9107 18.244 41.9107ZM56.2172 48.9147C52.6359 48.9147 49.4626 48.2801 46.6972 47.0107C43.9319 45.6961 41.8466 43.8601 40.4412 41.5027L45.2012 36.1987C46.4706 37.6947 48.0799 38.8961 50.0292 39.8027C51.9786 40.7094 53.9052 41.1627 55.8092 41.1627C58.0759 41.1627 59.8892 40.5281 61.2492 39.2587C62.6546 37.9441 63.3572 36.2214 63.3572 34.0907C63.3572 31.8241 62.5186 30.0561 60.8412 28.7867C59.1639 27.5174 56.8519 26.8827 53.9052 26.8827H49.8252V19.9467H53.8372C56.1946 19.9467 58.0986 19.3121 59.5492 18.0427C60.9999 16.7281 61.7252 15.0734 61.7252 13.0787C61.7252 11.4014 61.1812 10.1094 60.0932 9.20273C59.0052 8.29607 57.4186 7.84273 55.3332 7.84273C53.2932 7.84273 51.3892 8.2734 49.6212 9.13473C47.8532 9.99607 46.2892 11.2201 44.9292 12.8067L40.3732 7.43473C42.0052 5.16807 44.2719 3.3774 47.1732 2.06273C50.0746 0.748065 53.2026 0.0907309 56.5572 0.0907309C59.5039 0.0907309 62.1106 0.589398 64.3772 1.58673C66.6439 2.58407 68.3892 3.9894 69.6132 5.80273C70.8372 7.57073 71.4492 9.6334 71.4492 11.9907C71.4492 14.3934 70.8146 16.5467 69.5452 18.4507C68.2759 20.3547 66.4172 21.8734 63.9692 23.0067C67.0519 24.0947 69.3412 25.6134 70.8372 27.5627C72.3786 29.5121 73.1492 31.9147 73.1492 34.7707C73.1492 37.5814 72.4466 40.0521 71.0412 42.1827C69.6359 44.3134 67.6412 45.9681 65.0572 47.1467C62.5186 48.3254 59.5719 48.9147 56.2172 48.9147Z" fill="#EE0033"/>
</svg>
