<svg width="537" height="541" viewBox="0 0 537 541" fill="none" xmlns="http://www.w3.org/2000/svg">
<g opacity="0.8" clip-path="url(#clip0)">
<path d="M42.4482 409.021H170.214L224.051 463.009L319.018 463.009L393.494 537.66L392.897 538.258L318.669 463.832L223.703 463.832L169.866 409.869H42.4482V409.021Z" fill="#DEDEDE"/>
<path d="M42.622 412.61C40.8813 412.61 39.4639 411.19 39.4639 409.445C39.4639 407.7 40.8813 406.28 42.622 406.28C44.3626 406.28 45.7801 407.7 45.7801 409.445C45.7801 411.19 44.3626 412.61 42.622 412.61Z" fill="#DEDEDE"/>
<path d="M390.833 540.078C392.076 541.324 394.066 541.324 395.309 540.078C396.552 538.831 396.552 536.837 395.309 535.591C394.066 534.345 392.076 534.345 390.833 535.591C389.614 536.837 389.614 538.831 390.833 540.078Z" fill="#DEDEDE"/>
<path d="M437.16 2.7417L523.423 2.7417V3.58915L437.508 3.58915L389.988 51.2211L295.021 51.2211L241.159 105.209L110.608 105.209L62.5157 153.414L61.9189 152.816L110.26 104.361L240.811 104.361L294.673 50.3736L389.639 50.3736L437.16 2.7417Z" fill="#DEDEDE"/>
<path d="M64.5541 155.234C63.3107 156.48 61.3214 156.48 60.078 155.234C58.8347 153.987 58.8347 151.993 60.078 150.747C61.3214 149.501 63.3107 149.501 64.5541 150.747C65.7974 151.993 65.7974 153.987 64.5541 155.234Z" fill="#DEDEDE"/>
<path d="M523.249 6.33098C524.99 6.33098 526.407 4.91025 526.407 3.16549C526.407 1.42073 524.99 0 523.249 0C521.508 0 520.091 1.42073 520.091 3.16549C520.091 4.91025 521.508 6.33098 523.249 6.33098Z" fill="#DEDEDE"/>
<path d="M3.35755 345.811L46.8497 389.43H196.374L241.11 434.246L301.188 434.246L325.259 410.118H507.31V410.966H325.607L301.536 435.093L240.762 435.093L196.026 390.278H46.5016L2.76074 346.409L3.35755 345.811Z" fill="#DEDEDE"/>
<path d="M0.919812 348.478C-0.323531 347.232 -0.323531 345.238 0.919812 343.992C2.16316 342.746 4.15251 342.746 5.39585 343.992C6.63919 345.238 6.63919 347.232 5.39585 348.478C4.15251 349.7 2.16316 349.7 0.919812 348.478Z" fill="#DEDEDE"/>
<path d="M507.159 413.707C508.9 413.707 510.317 412.287 510.317 410.542C510.317 408.797 508.9 407.376 507.159 407.376C505.419 407.376 504.001 408.797 504.001 410.542C503.976 412.287 505.394 413.707 507.159 413.707Z" fill="#DEDEDE"/>
<path d="M122.345 116.027L172.874 116.027L210.274 153.514L283.507 153.514L319.937 190.029L429.177 190.029V190.877L319.589 190.877L283.159 154.337L209.926 154.337L172.526 116.874L122.693 116.874L71.3429 168.344L70.7461 167.746L122.345 116.027Z" fill="#DEDEDE"/>
<path d="M73.3812 170.189C72.1379 171.435 70.1485 171.435 68.9052 170.189C67.6618 168.943 67.6618 166.949 68.9052 165.703C70.1485 164.456 72.1379 164.456 73.3812 165.703C74.6245 166.949 74.6245 168.943 73.3812 170.189Z" fill="#DEDEDE"/>
<path d="M429.026 193.619C430.771 193.619 432.185 192.201 432.185 190.453C432.185 188.705 430.771 187.288 429.026 187.288C427.282 187.288 425.868 188.705 425.868 190.453C425.868 192.201 427.282 193.619 429.026 193.619Z" fill="#DEDEDE"/>
<path d="M8.80384 325.323L51.2765 367.895H193.664L241.284 415.626H284.801L319.714 380.657H456.781V381.479H320.062L285.149 416.474H240.936L193.316 368.742H50.9283L8.20703 325.921L8.80384 325.323Z" fill="#DEDEDE"/>
<path d="M456.63 377.89C458.37 377.89 459.788 379.311 459.788 381.056C459.788 382.8 458.37 384.221 456.63 384.221C454.889 384.221 453.472 382.8 453.472 381.056C453.472 379.311 454.864 377.89 456.63 377.89Z" fill="#DEDEDE"/>
<path d="M10.8666 323.503C9.62321 322.257 7.63386 322.257 6.39052 323.503C5.14717 324.75 5.14717 326.744 6.39052 327.99C7.63386 329.236 9.62321 329.236 10.8666 327.99C12.085 326.744 12.085 324.725 10.8666 323.503Z" fill="#DEDEDE"/>
<path d="M128.785 157.776L190.629 157.776L262.32 229.635L410.153 229.635L445.812 193.893L446.409 194.491L410.502 230.483L261.972 230.483L190.28 158.624L129.133 158.624L93.9711 193.868H30.5605V193.02H93.6229L128.785 157.776Z" fill="#DEDEDE"/>
<path d="M30.7099 196.61C28.9692 196.61 27.5518 195.189 27.5518 193.444C27.5518 191.699 28.9692 190.279 30.7099 190.279C32.4505 190.279 33.8679 191.699 33.8679 193.444C33.8679 195.189 32.4505 196.61 30.7099 196.61Z" fill="#DEDEDE"/>
<path d="M448.249 196.535C449.493 195.288 449.493 193.294 448.249 192.048C447.006 190.802 445.017 190.802 443.773 192.048C442.53 193.294 442.53 195.288 443.773 196.535C444.992 197.781 447.006 197.781 448.249 196.535Z" fill="#DEDEDE"/>
<path d="M115.134 143.07H149.177V143.918H115.482L76.7394 182.726L76.1426 182.128L115.134 143.07Z" fill="#DEDEDE"/>
<path d="M78.8021 184.546C77.5588 185.792 75.5694 185.792 74.3261 184.546C73.0827 183.299 73.0827 181.305 74.3261 180.059C75.5694 178.813 77.5588 178.813 78.8021 180.059C80.0206 181.305 80.0206 183.324 78.8021 184.546Z" fill="#DEDEDE"/>
<path d="M149.001 146.66C150.742 146.66 152.159 145.239 152.159 143.494C152.159 141.749 150.742 140.329 149.001 140.329C147.26 140.329 145.843 141.749 145.843 143.494C145.843 145.239 147.26 146.66 149.001 146.66Z" fill="#DEDEDE"/>
<path d="M8.80384 299.999L54.3599 345.662H182.723L225.742 388.782H297.085L334.311 351.469H488.635L534.266 397.207L533.669 397.805L488.287 352.317H334.659L297.434 389.63H225.394L182.375 346.509H54.0118L8.20703 300.597L8.80384 299.999Z" fill="#DEDEDE"/>
<path d="M6.39052 302.641C5.14717 301.395 5.14717 299.401 6.39052 298.154C7.63386 296.908 9.62321 296.908 10.8666 298.154C12.1099 299.401 12.1099 301.395 10.8666 302.641C9.62321 303.887 7.63386 303.887 6.39052 302.641Z" fill="#DEDEDE"/>
<path d="M531.628 399.625C532.871 400.871 534.86 400.871 536.104 399.625C537.347 398.379 537.347 396.385 536.104 395.138C534.86 393.892 532.871 393.892 531.628 395.138C530.384 396.385 530.384 398.403 531.628 399.625Z" fill="#DEDEDE"/>
<path d="M27.9259 291.101L64.9527 328.214H179.987L224.896 373.204H294.374L350.922 316.499L351.518 317.097L294.723 374.051H224.548L179.639 329.037H64.6045L27.3291 291.699L27.9259 291.101Z" fill="#DEDEDE"/>
<path d="M25.5126 293.743C24.2692 292.496 24.2692 290.502 25.5126 289.256C26.7559 288.01 28.7453 288.01 29.9886 289.256C31.232 290.502 31.232 292.496 29.9886 293.743C28.7453 294.989 26.7311 294.989 25.5126 293.743Z" fill="#DEDEDE"/>
<path d="M353.333 319.166C354.577 317.92 354.577 315.926 353.333 314.68C352.09 313.434 350.101 313.434 348.857 314.68C347.614 315.926 347.614 317.92 348.857 319.166C350.101 320.388 352.115 320.388 353.333 319.166Z" fill="#DEDEDE"/>
<path d="M153.031 179.336H196.101L278.186 261.614L496.095 261.614V262.462L277.838 262.462L195.753 180.184H153.379L122.644 210.991H39.3399L3.35755 247.058L2.76074 246.46L38.9918 210.144H122.296L153.031 179.336Z" fill="#DEDEDE"/>
<path d="M5.39585 248.877C4.15251 250.124 2.16316 250.124 0.919812 248.877C-0.323531 247.631 -0.323531 245.637 0.919812 244.391C2.16316 243.144 4.15251 243.144 5.39585 244.391C6.63919 245.637 6.63919 247.656 5.39585 248.877Z" fill="#DEDEDE"/>
<path d="M495.944 265.203C497.685 265.203 499.102 263.783 499.102 262.038C499.102 260.293 497.685 258.872 495.944 258.872C494.204 258.872 492.786 260.293 492.786 262.038C492.786 263.783 494.204 265.203 495.944 265.203Z" fill="#DEDEDE"/>
<path d="M193.985 277.89H223.254V278.738H194.334L167.701 305.432H68.1094V304.585H167.353L193.985 277.89Z" fill="#DEDEDE"/>
<path d="M68.2587 308.174C70.0028 308.174 71.4168 306.757 71.4168 305.009C71.4168 303.261 70.0028 301.843 68.2587 301.843C66.5145 301.843 65.1006 303.261 65.1006 305.009C65.1006 306.757 66.5145 308.174 68.2587 308.174Z" fill="#DEDEDE"/>
<path d="M223.103 281.479C224.848 281.479 226.261 280.062 226.261 278.314C226.261 276.566 224.848 275.148 223.103 275.148C221.359 275.148 219.945 276.566 219.945 278.314C219.945 280.062 221.359 281.479 223.103 281.479Z" fill="#DEDEDE"/>
<path d="M195.903 304.112L236.685 344.964H295.644V345.811H236.337L195.307 304.71L195.903 304.112Z" fill="#DEDEDE"/>
<path d="M193.49 306.754C192.247 305.507 192.247 303.513 193.49 302.267C194.733 301.021 196.723 301.021 197.966 302.267C199.21 303.513 199.21 305.507 197.966 306.754C196.723 308 194.709 308 193.49 306.754Z" fill="#DEDEDE"/>
<path d="M295.47 348.553C297.21 348.553 298.628 347.132 298.628 345.388C298.628 343.643 297.21 342.222 295.47 342.222C293.729 342.222 292.312 343.643 292.312 345.388C292.312 347.132 293.729 348.553 295.47 348.553Z" fill="#DEDEDE"/>
<path d="M223.203 299.999L251.701 328.538H303.822V329.386H251.353L222.606 300.597L223.203 299.999Z" fill="#DEDEDE"/>
<path d="M223.03 303.563C224.774 303.563 226.188 302.146 226.188 300.398C226.188 298.649 224.774 297.232 223.03 297.232C221.286 297.232 219.872 298.649 219.872 300.398C219.872 302.146 221.286 303.563 223.03 303.563Z" fill="#DEDEDE"/>
<path d="M303.673 332.127C305.413 332.127 306.831 330.707 306.831 328.962C306.831 327.217 305.413 325.796 303.673 325.796C301.932 325.796 300.515 327.217 300.515 328.962C300.515 330.707 301.932 332.127 303.673 332.127Z" fill="#DEDEDE"/>
<path d="M493.359 179.66H457.028V180.508H493.359V179.66Z" fill="#DEDEDE"/>
<path d="M457.202 183.249C455.461 183.249 454.044 181.829 454.044 180.084C454.044 178.339 455.461 176.918 457.202 176.918C458.943 176.918 460.36 178.339 460.36 180.084C460.36 181.829 458.943 183.249 457.202 183.249Z" fill="#DEDEDE"/>
<path d="M493.21 183.249C494.951 183.249 496.368 181.829 496.368 180.084C496.368 178.339 494.951 176.918 493.21 176.918C491.469 176.918 490.052 178.339 490.052 180.084C490.052 181.829 491.469 183.249 493.21 183.249Z" fill="#DEDEDE"/>
<path d="M243.422 175.049L280.101 211.814L397.771 211.814V212.661L279.752 212.661L242.825 175.647L243.422 175.049Z" fill="#DEDEDE"/>
<path d="M240.984 177.716C239.741 176.47 239.741 174.476 240.984 173.23C242.228 171.983 244.217 171.983 245.46 173.23C246.704 174.476 246.704 176.47 245.46 177.716C244.242 178.937 242.228 178.937 240.984 177.716Z" fill="#DEDEDE"/>
<path d="M397.62 215.403C399.364 215.403 400.778 213.986 400.778 212.238C400.778 210.489 399.364 209.072 397.62 209.072C395.876 209.072 394.462 210.489 394.462 212.238C394.462 213.986 395.876 215.403 397.62 215.403Z" fill="#DEDEDE"/>
<path d="M436.786 24.2771L516.583 24.2771V25.1246L437.134 25.1246L376.359 86.0416L306.732 86.0416L267.119 125.747L192.096 125.747V124.9L266.771 124.9L306.384 85.1941L376.011 85.1941L436.786 24.2771Z" fill="#DEDEDE"/>
<path d="M192.269 128.489C190.529 128.489 189.111 127.068 189.111 125.324C189.111 123.579 190.529 122.158 192.269 122.158C194.01 122.158 195.428 123.579 195.428 125.324C195.428 127.068 194.01 128.489 192.269 128.489Z" fill="#DEDEDE"/>
<path d="M516.434 27.8664C518.175 27.8664 519.593 26.4457 519.593 24.7009C519.593 22.9561 518.175 21.5354 516.434 21.5354C514.694 21.5354 513.276 22.9561 513.276 24.7009C513.276 26.4457 514.694 27.8664 516.434 27.8664Z" fill="#DEDEDE"/>
<path d="M519.891 117.572L520.488 118.17L473.316 165.428L332.32 165.428L305.017 138.06H219.425V137.213H305.365L332.669 164.606L472.967 164.606L519.891 117.572Z" fill="#DEDEDE"/>
<path d="M219.574 140.802C217.833 140.802 216.416 139.381 216.416 137.637C216.416 135.892 217.833 134.471 219.574 134.471C221.315 134.471 222.732 135.892 222.732 137.637C222.732 139.381 221.315 140.802 219.574 140.802Z" fill="#DEDEDE"/>
<path d="M522.328 120.214C523.571 118.968 523.571 116.974 522.328 115.727C521.084 114.481 519.095 114.481 517.851 115.727C516.608 116.974 516.608 118.968 517.851 120.214C519.07 121.46 521.084 121.46 522.328 120.214Z" fill="#DEDEDE"/>
<path d="M441.56 66.0266L507.482 66.0266L530.733 89.3565L530.136 89.9547L507.134 66.8741L441.908 66.8741L392.747 116.151H312.277V115.304H392.398L441.56 66.0266Z" fill="#DEDEDE"/>
<path d="M312.427 118.893C314.171 118.893 315.585 117.476 315.585 115.728C315.585 113.979 314.171 112.562 312.427 112.562C310.682 112.562 309.269 113.979 309.269 115.728C309.269 117.476 310.682 118.893 312.427 118.893Z" fill="#DEDEDE"/>
<path d="M528.097 91.7742C529.34 93.0205 531.329 93.0205 532.573 91.7742C533.816 90.528 533.816 88.534 532.573 87.2877C531.329 86.0415 529.34 86.0415 528.097 87.2877C526.853 88.534 526.853 90.5529 528.097 91.7742Z" fill="#DEDEDE"/>
<path d="M460.013 98.2051H493.36V99.0525H460.361L422.812 136.689H339.583V135.842H422.464L460.013 98.2051Z" fill="#DEDEDE"/>
<path d="M339.757 139.431C341.501 139.431 342.915 138.014 342.915 136.266C342.915 134.518 341.501 133.1 339.757 133.1C338.013 133.1 336.599 134.518 336.599 136.266C336.599 138.014 338.013 139.431 339.757 139.431Z" fill="#DEDEDE"/>
<path d="M493.21 101.794C494.954 101.794 496.368 100.377 496.368 98.6289C496.368 96.8806 494.954 95.4634 493.21 95.4634C491.466 95.4634 490.052 96.8806 490.052 98.6289C490.052 100.377 491.466 101.794 493.21 101.794Z" fill="#DEDEDE"/>
<path d="M528.098 179.162L528.695 179.76L467.871 240.727L308.176 240.727V239.879L467.523 239.879L528.098 179.162Z" fill="#DEDEDE"/>
<path d="M308.349 243.469C306.609 243.469 305.191 242.048 305.191 240.303C305.191 238.558 306.609 237.138 308.349 237.138C310.09 237.138 311.508 238.558 311.508 240.303C311.508 242.048 310.09 243.469 308.349 243.469Z" fill="#DEDEDE"/>
<path d="M530.509 181.804C531.753 180.558 531.753 178.564 530.509 177.318C529.266 176.071 527.276 176.071 526.033 177.318C524.79 178.564 524.79 180.558 526.033 181.804C527.276 183.05 529.266 183.05 530.509 181.804Z" fill="#DEDEDE"/>
<path d="M177.327 206.33H202.939L277.689 281.28L509.747 281.28V282.128L277.341 282.128L202.591 207.178H177.675L148.307 236.614H67.7383L44.0402 260.368L43.4434 259.77L67.3902 235.767H147.959L177.327 206.33Z" fill="#DEDEDE"/>
<path d="M46.0785 262.188C44.8351 263.434 42.8458 263.434 41.6024 262.188C40.3591 260.941 40.3591 258.947 41.6024 257.701C42.8458 256.455 44.8351 256.455 46.0785 257.701C47.3218 258.947 47.3218 260.966 46.0785 262.188Z" fill="#DEDEDE"/>
<path d="M509.597 284.869C511.337 284.869 512.755 283.449 512.755 281.704C512.755 279.959 511.337 278.538 509.597 278.538C507.856 278.538 506.438 279.959 506.438 281.704C506.438 283.449 507.856 284.869 509.597 284.869Z" fill="#DEDEDE"/>
<path d="M179.714 229.261H207.018L279.231 301.644L522.057 301.644V302.491L278.883 302.491L206.67 230.109H180.062L159.224 250.971H73.8808L52.2218 272.681L51.625 272.083L73.5327 250.148H158.876L179.714 229.261Z" fill="#DEDEDE"/>
<path d="M54.2845 274.525C53.0412 275.771 51.0518 275.771 49.8085 274.525C48.5651 273.279 48.5651 271.285 49.8085 270.039C51.0518 268.792 53.0412 268.792 54.2845 270.039C55.503 271.285 55.503 273.279 54.2845 274.525Z" fill="#DEDEDE"/>
<path d="M521.882 305.233C523.622 305.233 525.04 303.812 525.04 302.067C525.04 300.323 523.622 298.902 521.882 298.902C520.141 298.902 518.724 300.323 518.724 302.067C518.724 303.812 520.141 305.233 521.882 305.233Z" fill="#DEDEDE"/>
<path d="M181.23 258.548L181.802 259.147L153.777 287.262H66.4697V286.415H153.429L181.23 258.548Z" fill="#DEDEDE"/>
<path d="M66.619 290.004C68.3632 290.004 69.7771 288.587 69.7771 286.838C69.7771 285.09 68.3632 283.673 66.619 283.673C64.8749 283.673 63.4609 285.09 63.4609 286.838C63.4609 288.587 64.8749 290.004 66.619 290.004Z" fill="#DEDEDE"/>
<path d="M183.643 261.191C184.886 259.944 184.886 257.95 183.643 256.704C182.4 255.458 180.41 255.458 179.167 256.704C177.924 257.95 177.924 259.944 179.167 261.191C180.41 262.437 182.4 262.437 183.643 261.191Z" fill="#DEDEDE"/>
<path d="M253.566 445.213H339.506L405.105 510.965L404.508 511.563L339.158 446.035H253.566V445.213Z" fill="#DEDEDE"/>
<path d="M253.716 448.802C251.975 448.802 250.558 447.381 250.558 445.636C250.558 443.892 251.975 442.471 253.716 442.471C255.456 442.471 256.874 443.892 256.874 445.636C256.874 447.381 255.456 448.802 253.716 448.802Z" fill="#DEDEDE"/>
<path d="M402.445 513.383C403.688 514.629 405.678 514.629 406.921 513.383C408.165 512.137 408.165 510.143 406.921 508.896C405.678 507.65 403.688 507.65 402.445 508.896C401.227 510.143 401.227 512.137 402.445 513.383Z" fill="#DEDEDE"/>
<path d="M368.726 444.365L410.85 486.613H527.178V487.461H410.502L368.129 444.963L368.726 444.365Z" fill="#DEDEDE"/>
<path d="M366.288 447.032C365.045 445.786 365.045 443.792 366.288 442.546C367.531 441.3 369.521 441.3 370.764 442.546C372.007 443.792 372.007 445.786 370.764 447.032C369.521 448.254 367.531 448.254 366.288 447.032Z" fill="#DEDEDE"/>
<path d="M527.004 490.202C528.748 490.202 530.162 488.785 530.162 487.037C530.162 485.289 528.748 483.872 527.004 483.872C525.26 483.872 523.846 485.289 523.846 487.037C523.846 488.785 525.26 490.202 527.004 490.202Z" fill="#DEDEDE"/>
</g>
<defs>
<clipPath id="clip0">
<rect width="537" height="541" fill="white"/>
</clipPath>
</defs>
</svg>
