<svg width="395" height="451" viewBox="0 0 395 451" fill="none" xmlns="http://www.w3.org/2000/svg">
<g filter="url(#filter0_d)">
<path d="M339.687 287.669C338.766 287.669 337.833 287.421 337.018 286.925L320.981 277.319L321.95 275.702L337.986 285.309C339.025 285.934 340.324 285.934 341.363 285.332L367.461 270.073C367.874 269.825 368.122 269.4 368.11 268.917C368.099 268.433 367.839 268.02 367.425 267.784L332.637 249.173L333.522 247.509L368.311 266.12C369.35 266.674 369.976 267.701 370 268.881C370.023 270.061 369.421 271.112 368.417 271.702L342.32 286.961C341.505 287.433 340.596 287.669 339.687 287.669Z" fill="#B2D3EA"/>
<path d="M274.821 432C273.688 432 272.554 431.717 271.539 431.15L207.535 395.545C206.59 395.026 206.023 394.058 206.023 392.984C206.023 391.899 206.578 390.943 207.523 390.412L236.49 374.09C236.951 373.831 236.998 373.394 236.998 373.217C236.998 373.04 236.951 372.603 236.49 372.344L204.264 353.851C203.378 353.344 202.835 352.423 202.811 351.408C202.788 350.393 203.295 349.449 204.158 348.906L217.324 340.574L218.34 342.168L205.173 350.499C204.736 350.771 204.701 351.196 204.701 351.373C204.701 351.538 204.76 351.963 205.209 352.222L237.435 370.715C238.344 371.246 238.887 372.179 238.887 373.229C238.887 374.279 238.332 375.223 237.423 375.731L208.456 392.052C207.972 392.324 207.925 392.796 207.925 392.973C207.925 393.161 207.984 393.622 208.468 393.893L272.471 429.498C273.995 430.348 275.872 430.312 277.36 429.404L301.698 414.451C301.887 414.333 301.923 414.156 301.923 414.062C301.923 413.979 301.899 413.79 301.698 413.661L284.091 402.957L285.071 401.34L302.69 412.044C303.399 412.469 303.824 413.224 303.824 414.05C303.824 414.876 303.411 415.62 302.702 416.056L278.364 431.009C277.254 431.681 276.038 432 274.821 432Z" fill="#B2D3EA"/>
<path d="M302.465 288.648L271.609 270.84C269.719 269.743 269.955 267.843 272.14 266.58L301.934 249.385C304.118 248.122 307.425 247.981 309.326 249.078L340.182 266.887C342.072 267.984 341.836 269.884 339.651 271.147L309.857 288.342C307.673 289.604 304.354 289.734 302.465 288.648Z" fill="#B2D3EA"/>
<path d="M350.409 253.327V240.003L320.521 239.991L310.188 234.031C307.815 232.662 303.67 232.839 300.942 234.409L291.306 239.967L261.382 239.956V253.657C261.311 254.578 261.831 255.474 262.977 256.135L301.615 278.428C303.988 279.797 308.133 279.62 310.861 278.051L348.165 256.525C349.736 255.604 350.503 254.424 350.409 253.327Z" fill="#235EA6"/>
<path d="M305.89 233.111C304.154 233.158 302.359 233.595 300.93 234.409L291.294 239.967L261.371 239.956V253.657C261.3 254.578 261.819 255.474 262.965 256.135L301.603 278.428C302.737 279.089 304.296 279.384 305.902 279.349V233.111H305.89Z" fill="#235EA6"/>
<path d="M264.76 239.956H261.371V253.657C261.3 254.578 261.819 255.474 262.965 256.135L264.76 257.174V239.956Z" fill="#519FEC"/>
<path d="M302.193 278.712C304.236 279.585 307.2 279.538 309.586 278.629V263.075H302.193V278.712Z" fill="#519FEC"/>
<path d="M301.603 264.774L262.965 242.481C260.591 241.112 260.887 238.728 263.626 237.147L300.93 215.621C303.67 214.04 307.815 213.875 310.176 215.244L348.815 237.536C351.188 238.905 350.893 241.289 348.154 242.871L310.85 264.396C308.11 265.966 303.977 266.143 301.603 264.774Z" fill="#D4ECFF"/>
<path d="M302.3 260.761L269.921 242.08C267.937 240.935 268.185 238.929 270.476 237.607L301.734 219.563C304.025 218.241 307.496 218.099 309.492 219.244L341.872 237.926C343.856 239.07 343.608 241.077 341.317 242.398L310.059 260.443C307.756 261.765 304.284 261.906 302.3 260.761Z" fill="#519FEC"/>
<path d="M336.203 256.844C336.203 257.835 335.507 259.05 334.645 259.546C333.783 260.042 333.086 259.64 333.086 258.649C333.086 257.658 333.783 256.442 334.645 255.947C335.507 255.439 336.203 255.852 336.203 256.844Z" fill="#D4ECFF"/>
<path d="M341.222 253.94C341.222 254.932 340.525 256.147 339.663 256.643C338.801 257.139 338.104 256.737 338.104 255.746C338.104 254.755 338.801 253.539 339.663 253.043C340.525 252.548 341.222 252.949 341.222 253.94Z" fill="#D4ECFF"/>
<path d="M346.241 251.049C346.241 252.04 345.544 253.256 344.682 253.752C343.82 254.247 343.123 253.846 343.123 252.855C343.123 251.863 343.82 250.648 344.682 250.152C345.544 249.645 346.241 250.058 346.241 251.049Z" fill="#D4ECFF"/>
<path d="M350.409 232.037V218.713L320.521 218.701L310.188 212.742C307.815 211.373 303.67 211.55 300.942 213.119L291.306 218.678L261.382 218.666V232.367C261.311 233.288 261.831 234.185 262.977 234.846L301.615 257.139C303.988 258.508 308.133 258.331 310.861 256.761L348.165 235.235C349.736 234.315 350.503 233.135 350.409 232.037Z" fill="#235EA6"/>
<path d="M305.89 211.821C304.154 211.868 302.359 212.305 300.93 213.119L291.294 218.678L261.371 218.666V232.368C261.3 233.288 261.819 234.185 262.965 234.846L301.603 257.139C302.737 257.8 304.296 258.095 305.902 258.059V211.821H305.89Z" fill="#235EA6"/>
<path d="M264.76 218.666H261.371V232.367C261.3 233.288 261.819 234.185 262.965 234.846L264.76 235.884V218.666Z" fill="#519FEC"/>
<path d="M302.193 257.422C304.236 258.295 307.2 258.248 309.586 257.339V241.785H302.193V257.422Z" fill="#519FEC"/>
<path d="M301.603 243.484L262.965 221.192C260.591 219.823 260.887 217.439 263.626 215.857L300.93 194.332C303.67 192.75 307.815 192.585 310.176 193.954L348.815 216.247C351.188 217.616 350.893 220 348.154 221.581L310.85 243.107C308.11 244.676 303.977 244.853 301.603 243.484Z" fill="#D4ECFF"/>
<path d="M302.3 239.472L269.921 220.79C267.937 219.646 268.185 217.639 270.476 216.318L301.734 198.273C304.025 196.951 307.496 196.81 309.492 197.955L341.872 216.636C343.856 217.781 343.608 219.787 341.317 221.109L310.059 239.153C307.756 240.475 304.284 240.617 302.3 239.472Z" fill="#519FEC"/>
<path d="M336.203 235.554C336.203 236.545 335.507 237.761 334.645 238.256C333.783 238.752 333.086 238.351 333.086 237.36C333.086 236.368 333.783 235.153 334.645 234.657C335.507 234.15 336.203 234.563 336.203 235.554Z" fill="#D4ECFF"/>
<path d="M341.222 232.651C341.222 233.642 340.525 234.858 339.663 235.353C338.801 235.849 338.104 235.448 338.104 234.456C338.104 233.465 338.801 232.25 339.663 231.754C340.525 231.258 341.222 231.66 341.222 232.651Z" fill="#D4ECFF"/>
<path d="M346.241 229.76C346.241 230.751 345.544 231.966 344.682 232.462C343.82 232.958 343.123 232.556 343.123 231.565C343.123 230.574 343.82 229.358 344.682 228.863C345.544 228.355 346.241 228.768 346.241 229.76Z" fill="#D4ECFF"/>
<path d="M350.409 210.747V197.423L320.521 197.412L310.188 191.452C307.815 190.083 303.67 190.26 300.942 191.83L291.306 197.388L261.382 197.376V211.078C261.311 211.998 261.831 212.895 262.977 213.556L301.615 235.849C303.988 237.218 308.133 237.041 310.861 235.471L348.165 213.945C349.736 213.025 350.503 211.845 350.409 210.747Z" fill="#235EA6"/>
<path d="M305.89 190.531C304.154 190.579 302.359 191.015 300.93 191.83L291.294 197.388L261.371 197.376V211.078C261.3 211.998 261.819 212.895 262.965 213.556L301.603 235.849C302.737 236.51 304.296 236.805 305.902 236.769V190.531H305.89Z" fill="#235EA6"/>
<path d="M264.76 197.376H261.371V211.078C261.3 211.998 261.819 212.895 262.965 213.556L264.76 214.594V197.376Z" fill="#519FEC"/>
<path d="M302.193 236.132C304.236 237.006 307.2 236.958 309.586 236.05V220.495H302.193V236.132Z" fill="#519FEC"/>
<path d="M301.603 222.195L262.965 199.902C260.591 198.533 260.887 196.149 263.626 194.568L300.93 173.042C303.67 171.46 307.815 171.295 310.176 172.664L348.815 194.957C351.188 196.326 350.893 198.71 348.154 200.291L310.85 221.817C308.11 223.387 303.977 223.564 301.603 222.195Z" fill="#D4ECFF"/>
<path d="M348.166 197.66L310.862 219.185C308.122 220.767 303.977 220.932 301.616 219.563L262.965 197.282C262.434 196.975 262.044 196.621 261.785 196.232C260.97 197.542 261.336 198.958 262.965 199.902L301.604 222.195C303.977 223.564 308.122 223.387 310.85 221.817L348.154 200.291C350.28 199.064 350.929 197.353 349.996 196.007C349.642 196.586 349.016 197.164 348.166 197.66Z" fill="white"/>
<path d="M336.203 214.264C336.203 215.255 335.507 216.471 334.645 216.967C333.783 217.462 333.086 217.061 333.086 216.07C333.086 215.078 333.783 213.863 334.645 213.367C335.507 212.86 336.203 213.261 336.203 214.264Z" fill="#D4ECFF"/>
<path d="M341.222 211.361C341.222 212.352 340.525 213.568 339.663 214.064C338.801 214.559 338.104 214.158 338.104 213.167C338.104 212.175 338.801 210.96 339.663 210.464C340.525 209.968 341.222 210.37 341.222 211.361Z" fill="#D4ECFF"/>
<path d="M346.241 208.47C346.241 209.461 345.544 210.677 344.682 211.172C343.82 211.668 343.123 211.267 343.123 210.275C343.123 209.284 343.82 208.068 344.682 207.573C345.544 207.065 346.241 207.467 346.241 208.47Z" fill="#D4ECFF"/>
<path d="M303.882 208.375L285.803 197.942C284.693 197.305 284.834 196.184 286.11 195.441L303.563 185.362C304.85 184.619 306.787 184.548 307.897 185.185L325.976 195.618C327.086 196.255 326.944 197.376 325.669 198.119L308.216 208.198C306.929 208.93 304.992 209.012 303.882 208.375Z" fill="#519FEC"/>
<path d="M305.618 199.63L303.114 198.191C302.961 198.108 302.985 197.943 303.162 197.848L305.583 196.456C305.76 196.35 306.031 196.338 306.185 196.432L308.688 197.872C308.842 197.966 308.818 198.12 308.641 198.214L306.22 199.607C306.043 199.713 305.771 199.725 305.618 199.63Z" fill="#D4ECFF"/>
<path d="M285.803 197.943L285.85 197.966C285.933 197.907 286.015 197.848 286.11 197.789L303.563 187.711C304.85 186.967 306.787 186.897 307.897 187.534L325.929 197.931C326.956 197.199 327.004 196.208 325.976 195.606L307.897 185.174C306.787 184.536 304.85 184.619 303.563 185.351L286.11 195.429C284.834 196.184 284.693 197.294 285.803 197.943Z" fill="#235EA6"/>
<path d="M232.971 352.529L166.287 314.529C163.842 313.124 164.149 310.658 166.972 309.041L205.338 286.902C208.149 285.273 212.412 285.096 214.856 286.512L281.541 324.513C283.985 325.917 283.678 328.383 280.856 330L242.489 352.14C239.667 353.756 235.404 353.933 232.971 352.529Z" fill="#B2D3EA"/>
<path d="M287.48 311.708V156.13L225.59 139.939L214.195 133.365C211.573 131.855 207.003 132.044 203.992 133.79L193.352 139.927L160.347 139.903L170.124 290.1C170.054 291.126 170.62 292.106 171.872 292.838L233.632 339.406C236.254 340.916 240.824 340.728 243.835 338.981L285 315.237C286.736 314.222 287.575 312.924 287.48 311.708Z" fill="#235EA6"/>
<path d="M209.448 132.351C207.535 132.398 205.551 132.882 203.98 133.79L193.341 139.927L160.335 139.903V295.906C160.264 296.933 160.831 297.912 162.083 298.644L233.62 339.406C234.872 340.126 236.584 340.456 238.356 340.421L239.088 183.439L209.448 132.351Z" fill="#D4ECFF"/>
<path d="M234.282 339.725C236.538 340.692 239.809 340.633 242.442 339.63V181.586H234.282V339.725Z" fill="#519FEC"/>
<path d="M233.621 183.462L162.083 142.7C159.461 141.19 159.792 138.558 162.815 136.811L203.98 113.067C207.004 111.32 211.574 111.132 214.183 112.642L285.721 153.404C288.343 154.915 288.012 157.546 284.989 159.293L243.835 183.038C240.812 184.772 236.242 184.961 233.621 183.462Z" fill="#D4ECFF"/>
<path d="M284.989 156.39L243.835 180.146C240.812 181.893 236.242 182.082 233.632 180.571L162.095 139.809C161.516 139.467 161.079 139.077 160.784 138.652C159.887 140.092 160.288 141.662 162.095 142.7L233.632 183.462C236.254 184.973 240.824 184.784 243.835 183.037L285.001 159.293C287.351 157.936 288.059 156.048 287.044 154.561C286.619 155.21 285.945 155.847 284.989 156.39Z" fill="#FAFDFF"/>
<path d="M235.652 166.94L188.027 139.349C186.799 138.641 186.952 137.413 188.369 136.587L207.629 125.47C209.046 124.656 211.184 124.562 212.4 125.27L260.025 152.861C261.253 153.569 261.1 154.797 259.682 155.623L240.422 166.74C239.005 167.554 236.868 167.637 235.652 166.94Z" fill="#133060"/>
<path d="M209.932 140.588L207.169 138.995C207.004 138.9 207.016 138.723 207.216 138.617L209.885 137.083C210.086 136.965 210.381 136.953 210.547 137.059L213.31 138.652C213.475 138.747 213.463 138.924 213.263 139.03L210.594 140.564C210.405 140.67 210.11 140.682 209.932 140.588Z" fill="#D4ECFF"/>
<path d="M219.155 145.887L216.392 144.293C216.227 144.199 216.238 144.022 216.439 143.916L219.108 142.382C219.309 142.264 219.604 142.252 219.769 142.358L222.532 143.951C222.698 144.046 222.686 144.223 222.485 144.329L219.816 145.863C219.616 145.969 219.32 145.981 219.155 145.887Z" fill="#D4ECFF"/>
<path d="M228.378 151.174L225.615 149.581C225.449 149.486 225.461 149.309 225.662 149.203L228.331 147.669C228.531 147.551 228.827 147.539 228.992 147.645L231.755 149.238C231.92 149.333 231.909 149.51 231.708 149.616L229.039 151.15C228.838 151.268 228.543 151.28 228.378 151.174Z" fill="#D4ECFF"/>
<path d="M237.6 156.473L234.837 154.879C234.672 154.785 234.684 154.608 234.884 154.502L237.553 152.968C237.754 152.849 238.049 152.838 238.215 152.944L240.978 154.537C241.143 154.632 241.131 154.809 240.931 154.915L238.262 156.449C238.061 156.567 237.766 156.579 237.6 156.473Z" fill="#D4ECFF"/>
<path d="M188.015 139.349L188.074 139.384C188.168 139.313 188.251 139.254 188.357 139.183L207.617 128.067C209.035 127.252 211.172 127.158 212.388 127.866L259.966 155.422C261.1 154.62 261.159 153.51 260.025 152.861L212.4 125.27C211.172 124.562 209.035 124.656 207.629 125.47L188.369 136.587C186.952 137.401 186.799 138.641 188.015 139.349Z" fill="#519FEC"/>
<path d="M251.865 214.288L278.942 198.792C280.466 197.907 281.706 195.559 281.706 193.529V183.852C281.706 181.822 280.466 180.89 278.942 181.763L251.865 197.258C250.341 198.131 249.102 200.492 249.102 202.522V212.199C249.113 214.229 250.341 215.161 251.865 214.288Z" fill="#133060"/>
<path d="M280.288 181.468C280.713 181.869 280.985 182.553 280.985 183.486V193.163C280.985 195.193 279.745 197.553 278.222 198.426L251.144 213.922C250.66 214.205 250.199 214.276 249.798 214.217C250.306 214.689 251.038 214.76 251.864 214.287L278.942 198.792C280.465 197.919 281.705 195.559 281.705 193.529V183.852C281.705 182.459 281.127 181.609 280.288 181.468Z" fill="white"/>
<path d="M260.013 203.773L262.493 202.345C262.824 202.156 263.095 201.636 263.095 201.2V198.545C263.095 198.096 262.824 197.895 262.493 198.084L260.013 199.512C259.683 199.701 259.411 200.22 259.411 200.657V203.312C259.411 203.761 259.683 203.961 260.013 203.773Z" fill="#235EA6"/>
<path d="M268.315 198.981L270.795 197.553C271.126 197.364 271.397 196.845 271.397 196.408V193.741C271.397 193.293 271.126 193.092 270.795 193.281L268.315 194.709C267.984 194.898 267.713 195.417 267.713 195.854V198.509C267.725 198.969 267.984 199.17 268.315 198.981Z" fill="white"/>
<path d="M251.865 284.223L278.942 268.727C280.466 267.842 281.706 265.494 281.706 263.464V253.787C281.706 251.757 280.466 250.825 278.942 251.698L251.865 267.193C250.341 268.078 249.102 270.427 249.102 272.457V282.134C249.113 284.164 250.341 285.096 251.865 284.223Z" fill="#133060"/>
<path d="M280.288 251.403C280.713 251.804 280.985 252.489 280.985 253.421V263.098C280.985 265.128 279.745 267.488 278.222 268.361L251.144 283.857C250.66 284.14 250.199 284.211 249.798 284.152C250.306 284.624 251.038 284.695 251.864 284.223L278.942 268.727C280.465 267.854 281.705 265.494 281.705 263.464V253.787C281.705 252.394 281.127 251.544 280.288 251.403Z" fill="white"/>
<path d="M260.013 273.707L262.493 272.279C262.824 272.091 263.095 271.571 263.095 271.135V268.479C263.095 268.031 262.824 267.83 262.493 268.031L260.013 269.459C259.683 269.648 259.411 270.167 259.411 270.604V273.259C259.411 273.696 259.683 273.896 260.013 273.707Z" fill="#235EA6"/>
<path d="M268.315 268.916L270.795 267.488C271.126 267.299 271.397 266.78 271.397 266.343V263.688C271.397 263.24 271.126 263.039 270.795 263.24L268.315 264.668C267.984 264.856 267.713 265.376 267.713 265.812V268.468C267.725 268.904 267.984 269.105 268.315 268.916Z" fill="#235EA6"/>
<path d="M251.865 319.19L278.942 303.695C280.466 302.81 281.706 300.462 281.706 298.432V288.755C281.706 286.725 280.466 285.792 278.942 286.666L251.865 302.161C250.341 303.034 249.102 305.395 249.102 307.424V317.101C249.113 319.131 250.341 320.064 251.865 319.19Z" fill="#133060"/>
<path d="M280.288 286.371C280.713 286.772 280.985 287.456 280.985 288.389V298.066C280.985 300.096 279.745 302.456 278.222 303.329L251.144 318.824C250.66 319.108 250.199 319.178 249.798 319.119C250.306 319.592 251.038 319.662 251.864 319.19L278.942 303.695C280.465 302.822 281.705 300.461 281.705 298.432V288.754C281.705 287.362 281.127 286.512 280.288 286.371Z" fill="white"/>
<path d="M260.013 308.675L262.493 307.247C262.824 307.058 263.095 306.539 263.095 306.102V303.447C263.095 302.999 262.824 302.798 262.493 302.999L260.013 304.427C259.683 304.615 259.411 305.135 259.411 305.571V308.215C259.411 308.663 259.683 308.864 260.013 308.675Z" fill="white"/>
<path d="M268.315 303.884L270.795 302.456C271.126 302.267 271.397 301.748 271.397 301.311V298.656C271.397 298.207 271.126 298.007 270.795 298.207L268.315 299.635C267.984 299.824 267.713 300.344 267.713 300.78V303.435C267.725 303.872 267.984 304.073 268.315 303.884Z" fill="#235EA6"/>
<path d="M251.865 249.255L278.942 233.76C280.466 232.875 281.706 230.526 281.706 228.496V218.819C281.706 216.789 280.466 215.857 278.942 216.73L251.865 232.214C250.341 233.087 249.102 235.447 249.102 237.477V247.154C249.113 249.196 250.341 250.128 251.865 249.255Z" fill="#133060"/>
<path d="M280.288 216.435C280.713 216.837 280.985 217.521 280.985 218.453V228.13C280.985 230.16 279.745 232.521 278.222 233.394L251.144 248.889C250.66 249.172 250.199 249.243 249.798 249.184C250.306 249.656 251.038 249.727 251.864 249.255L278.942 233.76C280.465 232.886 281.705 230.526 281.705 228.496V218.819C281.705 217.427 281.127 216.577 280.288 216.435Z" fill="white"/>
<path d="M260.013 238.74L262.493 237.312C262.824 237.123 263.095 236.604 263.095 236.167V233.512C263.095 233.064 262.824 232.863 262.493 233.064L260.013 234.492C259.683 234.68 259.411 235.2 259.411 235.636V238.292C259.411 238.728 259.683 238.929 260.013 238.74Z" fill="white"/>
<path d="M268.315 233.949L270.795 232.521C271.126 232.332 271.397 231.813 271.397 231.376V228.721C271.397 228.272 271.126 228.072 270.795 228.261L268.315 229.688C267.984 229.877 267.713 230.397 267.713 230.833V233.489C267.725 233.937 267.984 234.138 268.315 233.949Z" fill="white"/>
<path d="M228.413 204.374L165.932 168.321C164.539 167.519 163.405 165.347 163.405 163.482V151.575C163.405 149.71 164.539 148.861 165.932 149.663L228.413 185.716C229.806 186.519 230.94 188.69 230.94 190.555V202.462C230.952 204.327 229.818 205.177 228.413 204.374Z" fill="#519FEC"/>
<path opacity="0.4" d="M226.618 200.197L167.728 166.22C167.019 165.807 166.44 164.71 166.44 163.766V154.82C166.44 153.876 167.019 153.439 167.728 153.852L226.618 187.829C227.327 188.242 227.905 189.339 227.905 190.283V199.229C227.905 200.173 227.327 200.61 226.618 200.197Z" fill="#D4ECFF"/>
<path d="M180.008 168.781L171.222 163.707C170.538 163.305 169.971 162.243 169.971 161.323C169.971 160.402 170.526 159.977 171.222 160.379L180.008 165.453C180.693 165.854 181.26 166.917 181.26 167.837C181.248 168.758 180.693 169.171 180.008 168.781Z" fill="#D4ECFF"/>
<path d="M187.496 171.437C187.496 172.357 186.846 172.723 186.055 172.263C185.264 171.802 184.614 170.693 184.614 169.773C184.614 168.852 185.264 168.486 186.055 168.946C186.846 169.407 187.496 170.516 187.496 171.437Z" fill="#133060"/>
<path d="M192.573 174.363C192.573 175.284 191.923 175.65 191.132 175.189C190.341 174.729 189.691 173.62 189.691 172.699C189.691 171.779 190.341 171.413 191.132 171.873C191.923 172.333 192.573 173.455 192.573 174.363Z" fill="#133060"/>
<path d="M197.651 177.302C197.651 178.223 197.001 178.588 196.21 178.128C195.419 177.668 194.77 176.559 194.77 175.638C194.77 174.717 195.419 174.352 196.21 174.812C197.013 175.272 197.651 176.382 197.651 177.302Z" fill="#D4ECFF"/>
<path d="M202.741 180.229C202.741 181.149 202.091 181.515 201.3 181.055C200.509 180.594 199.859 179.485 199.859 178.565C199.859 177.644 200.509 177.278 201.3 177.738C202.091 178.199 202.741 179.32 202.741 180.229Z" fill="#133060"/>
<path d="M224.138 195.216L221.174 193.505C220.737 193.246 220.371 192.561 220.371 191.971V188.844C220.371 188.254 220.725 187.982 221.174 188.242L224.138 189.953C224.575 190.213 224.941 190.897 224.941 191.487V194.615C224.941 195.205 224.587 195.476 224.138 195.216Z" fill="#133060"/>
<path d="M228.413 225.369L165.932 189.316C164.539 188.513 163.405 186.342 163.405 184.477V172.57C163.405 170.705 164.539 169.855 165.932 170.658L228.413 206.711C229.806 207.514 230.94 209.685 230.94 211.55V223.457C230.952 225.322 229.818 226.172 228.413 225.369Z" fill="#519FEC"/>
<path opacity="0.4" d="M226.618 221.191L167.728 187.215C167.019 186.802 166.44 185.705 166.44 184.76V175.815C166.44 174.871 167.019 174.434 167.728 174.847L226.618 208.824C227.327 209.237 227.905 210.334 227.905 211.278V220.224C227.905 221.168 227.327 221.604 226.618 221.191Z" fill="#D4ECFF"/>
<path d="M180.008 189.776L171.222 184.701C170.538 184.3 169.971 183.238 169.971 182.318C169.971 181.397 170.526 180.972 171.222 181.373L180.008 186.448C180.693 186.849 181.26 187.911 181.26 188.832C181.248 189.752 180.693 190.165 180.008 189.776Z" fill="#D4ECFF"/>
<path d="M187.496 192.431C187.496 193.352 186.846 193.718 186.055 193.257C185.264 192.797 184.614 191.688 184.614 190.767C184.614 189.847 185.264 189.481 186.055 189.941C186.846 190.402 187.496 191.511 187.496 192.431Z" fill="white"/>
<path d="M192.573 195.358C192.573 196.279 191.923 196.645 191.132 196.184C190.341 195.724 189.691 194.615 189.691 193.694C189.691 192.774 190.341 192.408 191.132 192.868C191.923 193.328 192.573 194.449 192.573 195.358Z" fill="#133060"/>
<path d="M197.651 198.297C197.651 199.217 197.001 199.583 196.21 199.123C195.419 198.663 194.77 197.553 194.77 196.633C194.77 195.712 195.419 195.347 196.21 195.807C197.013 196.267 197.651 197.376 197.651 198.297Z" fill="#D4ECFF"/>
<path d="M202.741 201.223C202.741 202.144 202.091 202.51 201.3 202.05C200.509 201.589 199.859 200.48 199.859 199.559C199.859 198.639 200.509 198.273 201.3 198.733C202.091 199.194 202.741 200.315 202.741 201.223Z" fill="#133060"/>
<path d="M224.138 216.211L221.174 214.5C220.737 214.241 220.371 213.556 220.371 212.966V209.839C220.371 209.249 220.725 208.977 221.174 209.237L224.138 210.948C224.575 211.208 224.941 211.892 224.941 212.482V215.609C224.941 216.2 224.587 216.471 224.138 216.211Z" fill="#133060"/>
<path d="M228.413 246.364L165.932 210.311C164.539 209.508 163.405 207.337 163.405 205.472V193.564C163.405 191.7 164.539 190.85 165.932 191.653L228.413 227.706C229.806 228.508 230.94 230.68 230.94 232.544V244.452C230.952 246.317 229.818 247.166 228.413 246.364Z" fill="#519FEC"/>
<path opacity="0.4" d="M226.618 242.186L167.728 208.21C167.019 207.797 166.44 206.699 166.44 205.755V196.81C166.44 195.866 167.019 195.429 167.728 195.842L226.618 229.818C227.327 230.231 227.905 231.329 227.905 232.273V241.218C227.905 242.162 227.327 242.599 226.618 242.186Z" fill="#D4ECFF"/>
<path d="M180.008 210.771L171.222 205.696C170.538 205.295 169.971 204.233 169.971 203.312C169.971 202.392 170.526 201.967 171.222 202.368L180.008 207.443C180.693 207.844 181.26 208.906 181.26 209.827C181.248 210.747 180.693 211.16 180.008 210.771Z" fill="#D4ECFF"/>
<path d="M187.496 213.426C187.496 214.347 186.846 214.712 186.055 214.252C185.264 213.792 184.614 212.683 184.614 211.762C184.614 210.842 185.264 210.476 186.055 210.936C186.846 211.396 187.496 212.506 187.496 213.426Z" fill="white"/>
<path d="M192.573 216.353C192.573 217.273 191.923 217.639 191.132 217.179C190.341 216.719 189.691 215.609 189.691 214.689C189.691 213.768 190.341 213.402 191.132 213.863C191.923 214.323 192.573 215.444 192.573 216.353Z" fill="#133060"/>
<path d="M197.651 219.292C197.651 220.212 197.001 220.578 196.21 220.118C195.419 219.657 194.77 218.548 194.77 217.628C194.77 216.707 195.419 216.341 196.21 216.801C197.013 217.262 197.651 218.371 197.651 219.292Z" fill="#D4ECFF"/>
<path d="M202.741 222.218C202.741 223.139 202.091 223.504 201.3 223.044C200.509 222.584 199.859 221.475 199.859 220.554C199.859 219.634 200.509 219.268 201.3 219.728C202.091 220.188 202.741 221.309 202.741 222.218Z" fill="#133060"/>
<path d="M224.138 237.206L221.174 235.495C220.737 235.235 220.371 234.551 220.371 233.961V230.833C220.371 230.243 220.725 229.972 221.174 230.231L224.138 231.943C224.575 232.202 224.941 232.887 224.941 233.477V236.604C224.941 237.194 224.587 237.466 224.138 237.206Z" fill="#133060"/>
<path d="M228.413 267.358L165.932 231.305C164.539 230.503 163.405 228.331 163.405 226.467V214.559C163.405 212.694 164.539 211.845 165.932 212.647L228.413 248.7C229.806 249.503 230.94 251.674 230.94 253.539V265.447C230.952 267.311 229.818 268.161 228.413 267.358Z" fill="#519FEC"/>
<path opacity="0.4" d="M226.618 263.181L167.728 229.204C167.019 228.791 166.44 227.694 166.44 226.75V217.804C166.44 216.86 167.019 216.424 167.728 216.837L226.618 250.813C227.327 251.226 227.905 252.323 227.905 253.267V262.213C227.905 263.157 227.327 263.594 226.618 263.181Z" fill="#D4ECFF"/>
<path d="M180.008 231.765L171.222 226.691C170.538 226.289 169.971 225.227 169.971 224.307C169.971 223.386 170.526 222.961 171.222 223.363L180.008 228.437C180.693 228.839 181.26 229.901 181.26 230.821C181.248 231.742 180.693 232.155 180.008 231.765Z" fill="#D4ECFF"/>
<path d="M187.496 234.421C187.496 235.341 186.846 235.707 186.055 235.247C185.264 234.787 184.614 233.677 184.614 232.757C184.614 231.836 185.264 231.47 186.055 231.931C186.846 232.391 187.496 233.5 187.496 234.421Z" fill="#133060"/>
<path d="M192.573 237.347C192.573 238.268 191.923 238.634 191.132 238.173C190.341 237.713 189.691 236.604 189.691 235.683C189.691 234.763 190.341 234.397 191.132 234.857C191.923 235.318 192.573 236.439 192.573 237.347Z" fill="#133060"/>
<path d="M197.651 240.286C197.651 241.207 197.001 241.572 196.21 241.112C195.419 240.652 194.77 239.543 194.77 238.622C194.77 237.702 195.419 237.336 196.21 237.796C197.013 238.256 197.651 239.366 197.651 240.286Z" fill="#D4ECFF"/>
<path d="M202.741 243.213C202.741 244.133 202.091 244.499 201.3 244.039C200.509 243.579 199.859 242.469 199.859 241.549C199.859 240.628 200.509 240.262 201.3 240.723C202.091 241.183 202.741 242.304 202.741 243.213Z" fill="#133060"/>
<path d="M224.138 258.201L221.174 256.489C220.737 256.23 220.371 255.545 220.371 254.955V251.828C220.371 251.238 220.725 250.966 221.174 251.226L224.138 252.937C224.575 253.197 224.941 253.881 224.941 254.471V257.599C224.941 258.189 224.587 258.46 224.138 258.201Z" fill="#D4ECFF"/>
<path d="M228.413 288.353L165.932 252.3C164.539 251.498 163.405 249.326 163.405 247.461V235.554C163.405 233.689 164.539 232.84 165.932 233.642L228.413 269.695C229.806 270.498 230.94 272.669 230.94 274.534V286.441C230.952 288.306 229.818 289.156 228.413 288.353Z" fill="#519FEC"/>
<path opacity="0.4" d="M226.618 284.176L167.728 250.199C167.019 249.786 166.44 248.689 166.44 247.745V238.799C166.44 237.855 167.019 237.418 167.728 237.831L226.618 271.808C227.327 272.221 227.905 273.318 227.905 274.262V283.208C227.905 284.152 227.327 284.589 226.618 284.176Z" fill="#D4ECFF"/>
<path d="M180.008 252.76L171.222 247.686C170.538 247.284 169.971 246.222 169.971 245.302C169.971 244.381 170.526 243.956 171.222 244.358L180.008 249.432C180.693 249.833 181.26 250.896 181.26 251.816C181.248 252.737 180.693 253.15 180.008 252.76Z" fill="#D4ECFF"/>
<path d="M187.496 255.416C187.496 256.336 186.846 256.702 186.055 256.242C185.264 255.781 184.614 254.672 184.614 253.752C184.614 252.831 185.264 252.465 186.055 252.925C186.846 253.386 187.496 254.495 187.496 255.416Z" fill="#133060"/>
<path d="M192.573 258.342C192.573 259.263 191.923 259.629 191.132 259.168C190.341 258.708 189.691 257.599 189.691 256.678C189.691 255.758 190.341 255.392 191.132 255.852C191.923 256.312 192.573 257.434 192.573 258.342Z" fill="white"/>
<path d="M197.651 261.281C197.651 262.202 197.001 262.567 196.21 262.107C195.419 261.647 194.77 260.538 194.77 259.617C194.77 258.697 195.419 258.331 196.21 258.791C197.013 259.251 197.651 260.36 197.651 261.281Z" fill="#D4ECFF"/>
<path d="M202.741 264.208C202.741 265.128 202.091 265.494 201.3 265.034C200.509 264.574 199.859 263.464 199.859 262.544C199.859 261.623 200.509 261.257 201.3 261.718C202.091 262.178 202.741 263.299 202.741 264.208Z" fill="white"/>
<path d="M224.138 279.195L221.174 277.484C220.737 277.225 220.371 276.54 220.371 275.95V272.823C220.371 272.233 220.725 271.961 221.174 272.221L224.138 273.932C224.575 274.192 224.941 274.876 224.941 275.466V278.594C224.941 279.184 224.587 279.455 224.138 279.195Z" fill="#D4ECFF"/>
<path d="M228.413 309.348L165.932 273.295C164.539 272.492 163.405 270.321 163.405 268.456V256.548C163.405 254.684 164.539 253.834 165.932 254.637L228.413 290.69C229.806 291.492 230.94 293.664 230.94 295.528V307.436C230.952 309.301 229.818 310.15 228.413 309.348Z" fill="#519FEC"/>
<path opacity="0.4" d="M226.618 305.17L167.728 271.194C167.019 270.781 166.44 269.683 166.44 268.739V259.794C166.44 258.85 167.019 258.413 167.728 258.826L226.618 292.802C227.327 293.215 227.905 294.313 227.905 295.257V304.202C227.905 305.147 227.327 305.583 226.618 305.17Z" fill="#D4ECFF"/>
<path d="M180.008 273.755L171.222 268.68C170.538 268.279 169.971 267.217 169.971 266.296C169.971 265.376 170.526 264.951 171.222 265.352L180.008 270.427C180.693 270.828 181.26 271.89 181.26 272.811C181.248 273.731 180.693 274.144 180.008 273.755Z" fill="#D4ECFF"/>
<path d="M187.496 276.41C187.496 277.331 186.846 277.696 186.055 277.236C185.264 276.776 184.614 275.667 184.614 274.746C184.614 273.826 185.264 273.46 186.055 273.92C186.846 274.38 187.496 275.49 187.496 276.41Z" fill="#133060"/>
<path d="M192.573 279.337C192.573 280.257 191.923 280.623 191.132 280.163C190.341 279.703 189.691 278.593 189.691 277.673C189.691 276.752 190.341 276.387 191.132 276.847C191.923 277.307 192.573 278.428 192.573 279.337Z" fill="#133060"/>
<path d="M197.651 282.275C197.651 283.196 197.001 283.562 196.21 283.102C195.419 282.641 194.77 281.532 194.77 280.611C194.77 279.691 195.419 279.325 196.21 279.785C197.013 280.246 197.651 281.355 197.651 282.275Z" fill="#D4ECFF"/>
<path d="M202.741 285.202C202.741 286.123 202.091 286.489 201.3 286.028C200.509 285.568 199.859 284.459 199.859 283.538C199.859 282.618 200.509 282.252 201.3 282.712C202.091 283.172 202.741 284.293 202.741 285.202Z" fill="#133060"/>
<path d="M224.138 300.19L221.174 298.479C220.737 298.219 220.371 297.535 220.371 296.945V293.817C220.371 293.227 220.725 292.956 221.174 293.215L224.138 294.927C224.575 295.186 224.941 295.871 224.941 296.461V299.588C224.941 300.178 224.587 300.45 224.138 300.19Z" fill="#133060"/>
<path d="M228.413 330.343L165.932 294.289C164.539 293.487 163.405 291.315 163.405 289.451V277.543C163.405 275.678 164.539 274.829 165.932 275.631L228.413 311.685C229.806 312.487 230.94 314.659 230.94 316.523V328.431C230.952 330.295 229.818 331.145 228.413 330.343Z" fill="#519FEC"/>
<path opacity="0.4" d="M226.618 326.165L167.728 292.189C167.019 291.776 166.44 290.678 166.44 289.734V280.788C166.44 279.844 167.019 279.408 167.728 279.821L226.618 313.797C227.327 314.21 227.905 315.308 227.905 316.252V325.197C227.905 326.141 227.327 326.578 226.618 326.165Z" fill="#D4ECFF"/>
<path d="M180.008 294.749L171.222 289.675C170.538 289.274 169.971 288.211 169.971 287.291C169.971 286.37 170.526 285.946 171.222 286.347L180.008 291.421C180.693 291.823 181.26 292.885 181.26 293.805C181.248 294.726 180.693 295.139 180.008 294.749Z" fill="#D4ECFF"/>
<path d="M187.496 297.405C187.496 298.325 186.846 298.691 186.055 298.231C185.264 297.771 184.614 296.661 184.614 295.741C184.614 294.82 185.264 294.454 186.055 294.915C186.846 295.375 187.496 296.484 187.496 297.405Z" fill="white"/>
<path d="M192.573 300.332C192.573 301.252 191.923 301.618 191.132 301.158C190.341 300.697 189.691 299.588 189.691 298.668C189.691 297.747 190.341 297.381 191.132 297.841C191.923 298.302 192.573 299.423 192.573 300.332Z" fill="#133060"/>
<path d="M197.651 303.27C197.651 304.191 197.001 304.556 196.21 304.096C195.419 303.636 194.77 302.527 194.77 301.606C194.77 300.686 195.419 300.32 196.21 300.78C197.013 301.228 197.651 302.35 197.651 303.27Z" fill="#D4ECFF"/>
<path d="M202.741 306.197C202.741 307.117 202.091 307.483 201.3 307.023C200.509 306.563 199.859 305.453 199.859 304.533C199.859 303.612 200.509 303.246 201.3 303.707C202.091 304.167 202.741 305.288 202.741 306.197Z" fill="#133060"/>
<path d="M224.138 321.185L221.174 319.474C220.737 319.214 220.371 318.529 220.371 317.939V314.812C220.371 314.222 220.725 313.95 221.174 314.21L224.138 315.921C224.575 316.181 224.941 316.865 224.941 317.456V320.583C224.941 321.173 224.587 321.444 224.138 321.185Z" fill="#D4ECFF"/>
<path d="M210.239 139.101C209.719 139.101 209.294 138.676 209.294 138.157V99.3538C209.294 98.8345 209.719 98.4097 210.239 98.4097C210.758 98.4097 211.183 98.8345 211.183 99.3538V138.169C211.183 138.688 210.758 139.101 210.239 139.101Z" fill="#519FEC"/>
<path d="M213.615 96.9109H206.872V111.462H213.615V96.9109Z" fill="#519FEC"/>
<path d="M212.624 112.831C211.301 113.586 209.176 113.586 207.853 112.831C206.531 112.076 206.531 110.836 207.853 110.081C209.176 109.326 211.301 109.326 212.624 110.081C213.947 110.848 213.947 112.076 212.624 112.831Z" fill="#519FEC"/>
<path d="M215.706 76.6243H204.771V99.4482H215.706V76.6243Z" fill="#519FEC"/>
<path d="M206.873 99.3065V104.228C208.857 105.136 211.644 105.136 213.616 104.228V99.3065C211.632 98.3978 208.845 98.3978 206.873 99.3065Z" fill="#235EA6"/>
<path d="M214.112 101.679C211.975 102.906 208.515 102.906 206.377 101.679C204.24 100.451 204.24 98.445 206.377 97.2176C208.515 95.9903 211.975 95.9903 214.112 97.2176C216.238 98.4568 216.238 100.451 214.112 101.679Z" fill="#519FEC"/>
<path d="M219.461 144.612C218.942 144.612 218.517 144.187 218.517 143.668V104.853C218.517 104.334 218.942 103.909 219.461 103.909C219.981 103.909 220.406 104.334 220.406 104.853V143.668C220.406 144.187 219.981 144.612 219.461 144.612Z" fill="#519FEC"/>
<path d="M222.827 102.41H216.084V116.962H222.827V102.41Z" fill="#519FEC"/>
<path d="M221.847 118.342C220.524 119.098 218.399 119.098 217.076 118.342C215.753 117.587 215.753 116.348 217.076 115.593C218.399 114.837 220.524 114.837 221.847 115.593C223.169 116.348 223.169 117.575 221.847 118.342Z" fill="#519FEC"/>
<path d="M224.929 82.1355H213.994V104.959H224.929V82.1355Z" fill="#519FEC"/>
<path d="M216.084 104.806V109.727C218.068 110.636 220.855 110.636 222.827 109.727V104.806C220.855 103.897 218.068 103.897 216.084 104.806Z" fill="#235EA6"/>
<path d="M223.323 107.178C221.186 108.405 217.726 108.405 215.588 107.178C213.451 105.951 213.451 103.944 215.588 102.717C217.726 101.49 221.186 101.49 223.323 102.717C225.461 103.956 225.461 105.951 223.323 107.178Z" fill="#519FEC"/>
<path d="M228.684 150.112C228.164 150.112 227.739 149.687 227.739 149.168V110.353C227.739 109.834 228.164 109.409 228.684 109.409C229.204 109.409 229.629 109.834 229.629 110.353V149.168C229.629 149.687 229.204 150.112 228.684 150.112Z" fill="#519FEC"/>
<path d="M232.049 107.91H225.307V122.461H232.049V107.91Z" fill="#519FEC"/>
<path d="M231.069 123.842C229.747 124.597 227.621 124.597 226.299 123.842C224.976 123.087 224.976 121.847 226.299 121.092C227.621 120.337 229.747 120.337 231.069 121.092C232.38 121.847 232.38 123.087 231.069 123.842Z" fill="#519FEC"/>
<path d="M234.152 87.635H223.217V110.459H234.152V87.635Z" fill="#519FEC"/>
<path d="M225.307 110.305V115.227C227.291 116.135 230.077 116.135 232.049 115.227V110.305C230.077 109.409 227.291 109.409 225.307 110.305Z" fill="#235EA6"/>
<path d="M232.546 112.689C230.408 113.917 226.948 113.917 224.811 112.689C222.674 111.462 222.674 109.456 224.811 108.228C226.948 107.001 230.408 107.001 232.546 108.228C234.683 109.456 234.683 111.45 232.546 112.689Z" fill="#519FEC"/>
<path d="M237.907 155.611C237.387 155.611 236.962 155.186 236.962 154.667V115.852C236.962 115.333 237.387 114.908 237.907 114.908C238.426 114.908 238.851 115.333 238.851 115.852V154.667C238.851 155.186 238.426 155.611 237.907 155.611Z" fill="#519FEC"/>
<path d="M241.272 113.421H234.529V127.972H241.272V113.421Z" fill="#519FEC"/>
<path d="M240.292 129.341C238.969 130.096 236.844 130.096 235.521 129.341C234.199 128.586 234.199 127.347 235.521 126.591C236.844 125.836 238.969 125.836 240.292 126.591C241.603 127.347 241.603 128.586 240.292 129.341Z" fill="#519FEC"/>
<path d="M243.374 93.1345H232.439V115.958H243.374V93.1345Z" fill="#519FEC"/>
<path d="M234.529 115.805V120.726C236.513 121.635 239.3 121.635 241.272 120.726V115.805C239.3 114.908 236.513 114.908 234.529 115.805Z" fill="#235EA6"/>
<path d="M241.768 118.189C239.631 119.416 236.171 119.416 234.034 118.189C231.896 116.961 231.896 114.955 234.034 113.728C236.171 112.501 239.631 112.501 241.768 113.728C243.906 114.955 243.906 116.961 241.768 118.189Z" fill="#519FEC"/>
<path d="M280.761 134.864L295.416 126.237L281.458 108.819L277.785 114.814L280.761 134.864Z" fill="#519FEC"/>
<path d="M174.316 39.2849L197.71 25.8313C197.71 25.8313 196.824 39.2613 196.824 39.2849C196.824 39.3085 183.386 43.4508 183.386 43.4508L174.316 39.2849Z" fill="#519FEC"/>
<path d="M284.835 91.0694C283.052 90.0427 281.352 89.4408 279.769 89.193C277.407 76.8015 268.787 63.6429 258.502 57.7068C255.408 55.9248 252.467 54.9689 249.798 54.7683C248.393 39.7569 237.942 22.6803 225.26 15.3634C218.635 11.5397 212.624 11.0913 208.184 13.428V13.4162L207.972 13.5342C207.854 13.5932 207.747 13.664 207.629 13.723L193.837 21.866L198.418 25.489C194.297 27.2828 191.699 31.8972 191.699 38.7184C191.699 51.2869 200.532 66.5815 211.432 72.8716L284.835 125.258C293.019 129.979 299.643 126.155 299.643 116.714C299.643 107.273 293.007 95.7899 284.835 91.0694Z" fill="#519FEC"/>
<path d="M192.372 33.1952L224.031 14.7024C217.879 11.5043 212.329 11.2328 208.16 13.4279V13.4161L207.948 13.5341C207.83 13.5931 207.724 13.6639 207.605 13.7229L193.813 21.8659L198.395 25.4889C195.537 26.7517 193.399 29.3952 192.372 33.1952Z" fill="#519FEC"/>
<path d="M250.849 87.5881L273.959 74.0401C269.991 67.1952 264.535 61.2119 258.501 57.7187C257.698 57.2585 256.907 56.8572 256.139 56.5032L226.747 73.6742L250.849 87.5881Z" fill="#519FEC"/>
<path d="M200.331 23.3883L210.628 29.3244L229.487 18.2311C228.105 17.1571 226.7 16.2012 225.248 15.3633C222.969 14.0416 220.76 13.1329 218.658 12.6018L200.331 23.3883Z" fill="#D4ECFF"/>
<path d="M271.408 70.051L252.963 80.9083L259.375 88.06L276.12 78.1822C274.797 75.3381 273.203 72.6001 271.408 70.051Z" fill="#D4ECFF"/>
<path d="M270.345 99.6018C268.562 98.575 266.862 97.9732 265.279 97.7253C262.918 85.3339 254.297 72.1753 244.012 66.2392C240.918 64.4572 237.977 63.5013 235.309 63.3007C233.903 48.2893 223.453 31.2127 210.77 23.8958C197.131 16.0243 186.066 22.4088 186.066 38.1519C186.066 38.6829 186.078 39.2258 186.101 39.7687C176.123 35.1425 168.329 40.3587 168.329 52.1719C168.329 64.7404 177.162 80.035 188.062 86.3252L270.345 133.802C278.529 138.523 285.165 134.699 285.165 125.258C285.165 115.805 278.529 104.322 270.345 99.6018Z" fill="#D4ECFF"/>
<path d="M186.101 39.7568C186.078 39.2139 186.066 38.6711 186.066 38.14C186.066 38.1164 186.066 38.0928 186.066 38.0692C180.551 35.9213 175.816 36.8537 172.84 40.2997C176.075 37.6562 180.764 37.2903 186.101 39.7568Z" fill="white"/>
<path d="M271.55 98.4216C269.766 97.3949 268.066 96.793 266.484 96.5452C264.122 84.1537 255.501 70.9952 245.216 65.0591C242.122 63.2771 239.182 62.3211 236.513 62.1205C235.108 47.1091 224.657 30.0325 211.974 22.7157C203.472 17.8063 195.973 18.4435 191.533 23.4237C196.056 19.5529 203 19.4113 210.77 23.8958C223.452 31.2127 233.903 48.2775 235.308 63.3007C237.977 63.5013 240.918 64.4572 244.011 66.2392C254.297 72.1753 262.929 85.3339 265.279 97.7253C266.862 97.9732 268.562 98.575 270.345 99.6018C278.529 104.322 285.165 115.805 285.165 125.246C285.165 128.657 284.291 131.312 282.803 133.118C285.023 131.407 286.37 128.315 286.37 124.066C286.37 114.625 279.733 103.142 271.55 98.4216Z" fill="white"/>
<path d="M184.365 43.5098L190.553 46.3775L190.234 39.5681C190.21 39.096 190.199 38.6122 190.199 38.1401C190.199 32.0624 192.029 27.6605 195.371 25.7368C198.701 23.8132 203.436 24.4269 208.703 27.4717C220.028 34.0096 229.9 49.9061 231.199 63.6783L231.529 67.1479L235.001 67.4194C237.139 67.5846 239.477 68.3871 241.957 69.8269C250.955 75.0195 259.056 87.0805 261.229 98.5043L261.772 101.36L264.653 101.809C265.799 101.986 267.027 102.446 268.29 103.178C275.198 107.166 281.032 117.268 281.032 125.234C281.032 128.22 280.205 130.403 278.765 131.241C277.324 132.067 275.009 131.702 272.423 130.203L190.14 82.7258C180.563 77.2027 172.474 63.2063 172.474 52.1602C172.474 47.8291 173.749 44.5247 175.981 43.0967C176.902 42.5066 178.012 42.2234 179.264 42.2234C180.775 42.2234 182.511 42.6483 184.365 43.5098Z" fill="#235EA6"/>
<path d="M225.437 95.0583L227.598 93.9608L225.46 92.344L225.437 95.0583Z" fill="#519FEC"/>
<path d="M218.906 65.7438L221.02 64.6816L221.055 65.791L218.906 65.7438Z" fill="#519FEC"/>
<path d="M231.624 88.2016L233.82 87.0923L229.593 83.0798L231.624 88.2016Z" fill="#519FEC"/>
<path d="M226.971 93.89L216.698 87.8359C216.178 87.529 215.753 86.7501 215.753 86.1129L215.788 74.217L227.951 81.3805L227.916 93.2763C227.916 93.9254 227.491 94.1968 226.971 93.89Z" fill="#519FEC"/>
<path d="M220.996 64.6933L209.896 71.8332C209.424 72.14 209.801 73.2612 210.522 73.686L221.858 80.3538L233.195 87.0216C233.915 87.4464 234.293 86.762 233.832 85.9123L222.815 65.7555C222.331 64.894 221.48 64.3865 220.996 64.6933Z" fill="#519FEC"/>
<path d="M224.763 94.9994L214.49 88.9452C213.97 88.6384 213.545 87.8595 213.545 87.2222L213.58 75.3264L225.743 82.4899L225.708 94.3857C225.708 95.0348 225.283 95.3062 224.763 94.9994Z" fill="#D4ECFF"/>
<path d="M218.788 65.8027L207.688 72.9426C207.215 73.2494 207.593 74.3705 208.314 74.7954L219.65 81.4632L230.987 88.131C231.707 88.5558 232.085 87.8713 231.624 87.0216L220.607 66.8648C220.123 66.0033 219.272 65.4959 218.788 65.8027Z" fill="#D4ECFF"/>
<path d="M261.89 305.831H260.627V235.53L268.929 230.739V196.137H270.192V231.459L261.89 236.25V305.831Z" fill="white"/>
<path d="M62.2037 321.02C61.4716 321.02 60.7394 320.831 60.0781 320.453L37.1218 307.46C36.4251 307.07 36 306.362 36 305.56C36 304.757 36.4133 304.037 37.0982 303.648L94.3473 270.557C97.6301 268.657 101.716 268.657 104.999 270.557L170.443 308.357L169.498 309.985L104.066 272.185C101.362 270.628 98.008 270.628 95.3038 272.185L38.0429 305.277C37.9012 305.359 37.8894 305.489 37.8894 305.548C37.8894 305.619 37.913 305.749 38.0547 305.819L61.011 318.813C61.8022 319.261 62.7587 319.238 63.5263 318.742L73.2213 312.475L74.2487 314.057L64.5537 320.323C63.8333 320.784 63.0185 321.02 62.2037 321.02Z" fill="#B2D3EA"/>
<path d="M92.091 326.035L61.2346 308.227C59.3452 307.129 59.5814 305.229 61.766 303.967L91.5596 286.772C93.7442 285.509 97.0507 285.368 98.9519 286.465L129.808 304.274C131.698 305.371 131.462 307.271 129.277 308.534L99.4833 325.728C97.2868 326.991 93.9804 327.121 92.091 326.035Z" fill="#B2D3EA"/>
<path d="M140.035 290.714V277.39L110.147 277.378L99.8141 271.418C97.4405 270.049 93.2956 270.226 90.5678 271.796L80.9318 277.354L51.0083 277.343V291.044C50.9375 291.965 51.4571 292.861 52.6025 293.522L91.2409 315.815C93.6145 317.184 97.7593 317.007 100.487 315.437L137.791 293.912C139.362 292.991 140.117 291.811 140.035 290.714Z" fill="#235EA6"/>
<path d="M95.5158 270.498C93.7799 270.545 91.9849 270.982 90.5561 271.796L80.9201 277.354L50.9966 277.343V291.044C50.9258 291.965 51.4453 292.861 52.5908 293.522L91.2292 315.815C92.3628 316.476 93.9216 316.771 95.5276 316.736V270.498H95.5158Z" fill="#235EA6"/>
<path d="M54.3857 277.343H50.9966V291.044C50.9258 291.964 51.4453 292.861 52.5908 293.522L54.3857 294.561V277.343Z" fill="#519FEC"/>
<path d="M91.8193 316.11C93.8623 316.984 96.8263 316.936 99.2116 316.028V300.473H91.8193V316.11Z" fill="#519FEC"/>
<path d="M91.2175 302.161L52.5791 279.868C50.2056 278.499 50.5008 276.115 53.2404 274.534L90.5444 253.008C93.2841 251.427 97.429 251.262 99.7907 252.631L138.429 274.923C140.803 276.292 140.507 278.676 137.768 280.258L100.476 301.783C97.736 303.353 93.5911 303.53 91.2175 302.161Z" fill="#D4ECFF"/>
<path d="M91.9147 298.148L59.535 279.467C57.5511 278.322 57.7991 276.316 60.09 274.994L91.3479 256.95C93.6388 255.628 97.1106 255.486 99.1063 256.631L131.486 275.313C133.47 276.457 133.222 278.464 130.931 279.785L99.6731 297.83C97.3704 299.152 93.9104 299.293 91.9147 298.148Z" fill="#519FEC"/>
<path d="M125.818 294.23C125.818 295.222 125.121 296.437 124.259 296.933C123.397 297.429 122.7 297.027 122.7 296.036C122.7 295.045 123.397 293.829 124.259 293.334C125.121 292.838 125.818 293.239 125.818 294.23Z" fill="#D4ECFF"/>
<path d="M130.848 291.339C130.848 292.33 130.151 293.546 129.289 294.042C128.427 294.537 127.73 294.136 127.73 293.145C127.73 292.153 128.427 290.938 129.289 290.442C130.139 289.935 130.848 290.336 130.848 291.339Z" fill="#D4ECFF"/>
<path d="M135.867 288.436C135.867 289.427 135.17 290.643 134.308 291.139C133.446 291.634 132.749 291.233 132.749 290.242C132.749 289.25 133.446 288.035 134.308 287.539C135.17 287.043 135.867 287.445 135.867 288.436Z" fill="#D4ECFF"/>
<path d="M140.035 269.424V256.1L110.147 256.088L99.8142 250.129C97.4406 248.76 93.2957 248.937 90.5679 250.506L80.9319 256.065L50.9966 256.053V269.754C50.9258 270.675 51.4453 271.572 52.5908 272.233L91.2292 294.526C93.6027 295.895 97.7476 295.718 100.475 294.148L137.779 272.622C139.362 271.702 140.118 270.522 140.035 269.424Z" fill="#235EA6"/>
<path d="M95.5158 249.208C93.7799 249.255 91.9849 249.692 90.5561 250.506L80.9201 256.065L50.9966 256.053V269.754C50.9258 270.675 51.4453 271.572 52.5908 272.233L91.2292 294.526C92.3628 295.186 93.9216 295.482 95.5276 295.446V249.208H95.5158Z" fill="#235EA6"/>
<path d="M54.3857 256.053H50.9966V269.755C50.9258 270.675 51.4453 271.572 52.5908 272.233L54.3857 273.271V256.053Z" fill="#519FEC"/>
<path d="M91.8193 294.821C93.8623 295.694 96.8263 295.647 99.2116 294.738V279.184H91.8193V294.821Z" fill="#519FEC"/>
<path d="M91.2175 280.871L52.5791 258.579C50.2056 257.21 50.5008 254.826 53.2404 253.244L90.5444 231.719C93.2841 230.137 97.429 229.972 99.7907 231.341L138.429 253.634C140.803 255.003 140.507 257.387 137.768 258.968L100.476 280.494C97.736 282.063 93.5911 282.24 91.2175 280.871Z" fill="#D4ECFF"/>
<path d="M91.9147 276.859L59.535 258.177C57.5511 257.032 57.7991 255.026 60.09 253.704L91.3479 235.66C93.6388 234.338 97.1106 234.197 99.1063 235.342L131.486 254.023C133.47 255.168 133.222 257.174 130.931 258.496L99.6731 276.54C97.3704 277.862 93.9104 278.004 91.9147 276.859Z" fill="#519FEC"/>
<path d="M125.818 272.941C125.818 273.932 125.121 275.148 124.259 275.643C123.397 276.139 122.7 275.738 122.7 274.746C122.7 273.755 123.397 272.54 124.259 272.044C125.121 271.548 125.818 271.95 125.818 272.941Z" fill="#D4ECFF"/>
<path d="M130.848 270.038C130.848 271.029 130.151 272.245 129.289 272.74C128.427 273.236 127.73 272.835 127.73 271.843C127.73 270.852 128.427 269.637 129.289 269.141C130.139 268.645 130.848 269.046 130.848 270.038Z" fill="#D4ECFF"/>
<path d="M135.867 267.146C135.867 268.138 135.17 269.353 134.308 269.849C133.446 270.345 132.749 269.943 132.749 268.952C132.749 267.961 133.446 266.745 134.308 266.25C135.17 265.754 135.867 266.155 135.867 267.146Z" fill="#D4ECFF"/>
<path d="M140.035 248.134V234.81L110.147 234.799L99.8141 228.839C97.4405 227.47 93.2956 227.647 90.5678 229.217L80.9318 234.775L51.0083 234.763V248.465C50.9375 249.385 51.4571 250.282 52.6025 250.943L91.2409 273.236C93.6145 274.605 97.7593 274.428 100.487 272.858L137.791 251.332C139.362 250.412 140.117 249.232 140.035 248.134Z" fill="#235EA6"/>
<path d="M95.5158 227.918C93.7799 227.966 91.9849 228.402 90.5561 229.217L80.9201 234.775L50.9966 234.763V248.465C50.9258 249.385 51.4453 250.282 52.5908 250.943L91.2292 273.236C92.3628 273.897 93.9216 274.192 95.5276 274.156V227.918H95.5158Z" fill="#235EA6"/>
<path d="M54.3857 234.763H50.9966V248.465C50.9258 249.385 51.4453 250.282 52.5908 250.943L54.3857 251.981V234.763Z" fill="#519FEC"/>
<path d="M91.8193 273.519C93.8623 274.392 96.8263 274.345 99.2116 273.437V257.882H91.8193V273.519Z" fill="#519FEC"/>
<path d="M91.2175 259.582L52.5791 237.289C50.2056 235.92 50.5008 233.536 53.2404 231.955L90.5444 210.429C93.2841 208.847 97.429 208.682 99.7907 210.051L138.429 232.344C140.803 233.713 140.507 236.097 137.768 237.678L100.476 259.192C97.736 260.774 93.5911 260.951 91.2175 259.582Z" fill="#D4ECFF"/>
<path d="M137.78 235.047L100.476 256.572C97.7364 258.154 93.5915 258.319 91.2298 256.95L52.5914 234.657C52.06 234.35 51.6703 233.996 51.4105 233.607C50.5957 234.917 50.9618 236.333 52.5914 237.277L91.2298 259.57C93.6034 260.939 97.7482 260.762 100.476 259.192L137.78 237.666C139.906 236.439 140.555 234.728 139.622 233.383C139.256 233.984 138.642 234.551 137.78 235.047Z" fill="white"/>
<path d="M125.818 251.651C125.818 252.642 125.121 253.858 124.259 254.354C123.397 254.849 122.7 254.448 122.7 253.457C122.7 252.465 123.397 251.25 124.259 250.754C125.121 250.247 125.818 250.66 125.818 251.651Z" fill="#D4ECFF"/>
<path d="M130.848 248.748C130.848 249.739 130.151 250.955 129.289 251.451C128.427 251.946 127.73 251.545 127.73 250.554C127.73 249.562 128.427 248.347 129.289 247.851C130.139 247.355 130.848 247.757 130.848 248.748Z" fill="#D4ECFF"/>
<path d="M135.867 245.857C135.867 246.848 135.17 248.064 134.308 248.559C133.446 249.055 132.749 248.654 132.749 247.662C132.749 246.671 133.446 245.455 134.308 244.96C135.17 244.452 135.867 244.865 135.867 245.857Z" fill="#D4ECFF"/>
<path d="M93.5088 245.762L75.4296 235.329C74.3195 234.692 74.4612 233.571 75.7366 232.828L93.19 222.749C94.4654 222.006 96.4138 221.935 97.5238 222.572L115.603 233.005C116.713 233.642 116.571 234.763 115.296 235.506L97.8427 245.585C96.5555 246.317 94.6189 246.399 93.5088 245.762Z" fill="#519FEC"/>
<path d="M95.2332 237.029L92.7297 235.589C92.5762 235.495 92.5998 235.341 92.777 235.247L95.1978 233.854C95.3749 233.748 95.6465 233.736 95.8 233.831L98.3035 235.271C98.457 235.353 98.4334 235.518 98.2562 235.613L95.8354 237.005C95.6583 237.1 95.3867 237.112 95.2332 237.029Z" fill="#D4ECFF"/>
<path d="M75.4296 235.33L75.4768 235.353C75.5595 235.294 75.6421 235.235 75.7366 235.176L93.19 225.098C94.4654 224.354 96.4138 224.284 97.5238 224.921L115.556 235.318C116.583 234.586 116.63 233.595 115.603 232.993L97.5238 222.561C96.4138 221.923 94.4772 222.006 93.19 222.738L75.7366 232.816C74.4612 233.571 74.3195 234.692 75.4296 235.33Z" fill="#235EA6"/>
<path d="M88.725 263.476C88.725 264.149 88.2527 264.42 87.674 264.078C87.0954 263.748 86.623 262.933 86.623 262.261C86.623 261.588 87.0954 261.317 87.674 261.659C88.2645 261.989 88.725 262.804 88.725 263.476Z" fill="#D4ECFF"/>
<path d="M85.4779 261.612C85.4779 262.284 85.0056 262.556 84.427 262.213C83.8483 261.883 83.376 261.069 83.376 260.396C83.376 259.723 83.8483 259.452 84.427 259.794C85.0056 260.125 85.4779 260.939 85.4779 261.612Z" fill="#D4ECFF"/>
<path d="M88.725 267.406C88.725 268.079 88.2527 268.35 87.674 268.008C87.0954 267.677 86.623 266.863 86.623 266.19C86.623 265.518 87.0954 265.246 87.674 265.589C88.2645 265.919 88.725 266.733 88.725 267.406Z" fill="#D4ECFF"/>
<path d="M85.4779 265.541C85.4779 266.214 85.0056 266.486 84.427 266.143C83.8483 265.813 83.376 264.999 83.376 264.326C83.376 263.653 83.8483 263.382 84.427 263.724C85.0056 264.054 85.4779 264.869 85.4779 265.541Z" fill="#D4ECFF"/>
<path d="M88.725 284.66C88.725 285.332 88.2527 285.604 87.674 285.262C87.0954 284.931 86.623 284.117 86.623 283.444C86.623 282.771 87.0954 282.5 87.674 282.842C88.2645 283.173 88.725 283.987 88.725 284.66Z" fill="#D4ECFF"/>
<path d="M85.4779 282.795C85.4779 283.468 85.0056 283.739 84.427 283.397C83.8483 283.066 83.376 282.252 83.376 281.579C83.376 280.907 83.8483 280.635 84.427 280.977C85.0056 281.308 85.4779 282.122 85.4779 282.795Z" fill="#D4ECFF"/>
<path d="M88.725 288.589C88.725 289.262 88.2527 289.533 87.674 289.191C87.0954 288.861 86.623 288.046 86.623 287.374C86.623 286.701 87.0954 286.43 87.674 286.772C88.2645 287.102 88.725 287.917 88.725 288.589Z" fill="#D4ECFF"/>
<path d="M85.4779 286.725C85.4779 287.397 85.0056 287.669 84.427 287.327C83.8483 286.996 83.376 286.182 83.376 285.509C83.376 284.837 83.8483 284.565 84.427 284.907C85.0056 285.238 85.4779 286.052 85.4779 286.725Z" fill="#D4ECFF"/>
<path d="M88.725 305.843C88.725 306.516 88.2527 306.787 87.674 306.445C87.0954 306.115 86.623 305.3 86.623 304.628C86.623 303.955 87.0954 303.684 87.674 304.026C88.2645 304.356 88.725 305.171 88.725 305.843Z" fill="#D4ECFF"/>
<path d="M85.4779 303.978C85.4779 304.651 85.0056 304.923 84.427 304.58C83.8483 304.25 83.376 303.436 83.376 302.763C83.376 302.09 83.8483 301.819 84.427 302.161C85.0056 302.492 85.4779 303.306 85.4779 303.978Z" fill="#D4ECFF"/>
<path d="M88.725 309.773C88.725 310.446 88.2527 310.717 87.674 310.375C87.0954 310.044 86.623 309.23 86.623 308.557C86.623 307.885 87.0954 307.613 87.674 307.955C88.2645 308.286 88.725 309.1 88.725 309.773Z" fill="#D4ECFF"/>
<path d="M85.4779 307.908C85.4779 308.581 85.0056 308.853 84.427 308.51C83.8483 308.18 83.376 307.366 83.376 306.693C83.376 306.02 83.8483 305.749 84.427 306.091C85.0056 306.421 85.4779 307.236 85.4779 307.908Z" fill="#D4ECFF"/>
<path d="M96.012 341.873C94.9019 341.873 93.8037 341.589 92.8118 341.011L73.3391 329.717C72.6778 329.328 72.2881 328.643 72.2881 327.888C72.2881 327.133 72.6896 326.436 73.3509 326.059L86.1516 318.636L87.0963 320.264L74.2956 327.687C74.2011 327.746 74.1775 327.829 74.1775 327.888C74.1775 327.947 74.2011 328.03 74.2956 328.089L93.7683 339.382C95.1381 340.173 96.8504 340.185 98.232 339.394L136.363 317.68C138.323 316.559 140.755 316.57 142.716 317.703L174.659 336.137C176.04 336.94 177.764 336.951 179.158 336.149L194.556 327.251L195.501 328.879L180.102 337.777C178.13 338.922 175.686 338.91 173.714 337.766L141.771 319.332C140.389 318.529 138.677 318.529 137.296 319.308L99.1649 341.023C98.1966 341.601 97.1102 341.873 96.012 341.873Z" fill="#B2D3EA"/>
<path d="M265.15 413.719L234.293 395.911C232.404 394.814 232.64 392.914 234.825 391.651L264.618 374.456C266.803 373.193 270.109 373.052 272.01 374.149L302.867 391.958C304.756 393.055 304.52 394.955 302.335 396.218L272.542 413.413C270.345 414.675 267.039 414.805 265.15 413.719Z" fill="#B2D3EA"/>
<path d="M313.093 378.398V365.074L283.205 365.062L272.873 359.102C270.499 357.733 266.354 357.91 263.626 359.48L253.99 365.038L224.067 365.027V378.728C223.996 379.649 224.516 380.546 225.661 381.206L264.299 403.499C266.673 404.868 270.818 404.691 273.546 403.122L310.85 381.596C312.42 380.675 313.188 379.495 313.093 378.398Z" fill="#235EA6"/>
<path d="M268.574 358.182C266.838 358.229 265.044 358.666 263.615 359.48L253.979 365.038L224.055 365.027V378.728C223.984 379.649 224.504 380.546 225.649 381.206L264.288 403.499C265.421 404.16 266.98 404.455 268.586 404.42V358.182H268.574Z" fill="#235EA6"/>
<path d="M227.444 365.027H224.055V378.728C223.984 379.649 224.504 380.546 225.649 381.207L227.444 382.245V365.027Z" fill="#519FEC"/>
<path d="M264.878 403.794C266.921 404.668 269.885 404.62 272.27 403.712V388.157H264.878V403.794Z" fill="#519FEC"/>
<path d="M264.288 389.845L225.649 367.552C223.276 366.183 223.571 363.799 226.311 362.218L263.615 340.692C266.354 339.111 270.499 338.946 272.861 340.315L311.499 362.607C313.873 363.976 313.578 366.36 310.838 367.942L273.534 389.467C270.794 391.037 266.661 391.214 264.288 389.845Z" fill="#D4ECFF"/>
<path d="M264.985 385.832L232.605 367.151C230.621 366.006 230.869 364 233.16 362.678L264.418 344.634C266.709 343.312 270.181 343.17 272.177 344.315L304.556 362.997C306.54 364.142 306.292 366.148 304.001 367.47L272.743 385.514C270.441 386.836 266.969 386.977 264.985 385.832Z" fill="#519FEC"/>
<path d="M298.888 381.915C298.888 382.906 298.191 384.121 297.329 384.617C296.467 385.113 295.771 384.711 295.771 383.72C295.771 382.729 296.467 381.513 297.329 381.018C298.191 380.522 298.888 380.923 298.888 381.915Z" fill="#D4ECFF"/>
<path d="M303.907 379.011C303.907 380.003 303.21 381.218 302.348 381.714C301.486 382.21 300.789 381.808 300.789 380.817C300.789 379.826 301.486 378.61 302.348 378.115C303.21 377.619 303.907 378.02 303.907 379.011Z" fill="#D4ECFF"/>
<path d="M308.925 376.12C308.925 377.111 308.228 378.327 307.366 378.823C306.504 379.318 305.808 378.917 305.808 377.926C305.808 376.934 306.504 375.719 307.366 375.223C308.228 374.727 308.925 375.129 308.925 376.12Z" fill="#D4ECFF"/>
<path d="M313.093 357.108V343.784L283.205 343.773L272.873 337.813C270.499 336.444 266.354 336.621 263.626 338.19L253.99 343.749L224.067 343.737V357.439C223.996 358.359 224.516 359.256 225.661 359.917L264.299 382.21C266.673 383.579 270.818 383.402 273.546 381.832L310.85 360.306C312.42 359.386 313.188 358.206 313.093 357.108Z" fill="#235EA6"/>
<path d="M268.574 336.892C266.838 336.94 265.044 337.376 263.615 338.19L253.979 343.749L224.055 343.737V357.439C223.984 358.359 224.504 359.256 225.649 359.917L264.288 382.21C265.421 382.871 266.98 383.166 268.586 383.13V336.892H268.574Z" fill="#235EA6"/>
<path d="M227.444 343.737H224.055V357.439C223.984 358.359 224.504 359.256 225.649 359.917L227.444 360.956V343.737Z" fill="#519FEC"/>
<path d="M264.878 382.493C266.921 383.366 269.885 383.319 272.27 382.41V366.856H264.878V382.493Z" fill="#519FEC"/>
<path d="M264.288 368.556L225.649 346.263C223.276 344.894 223.571 342.51 226.311 340.928L263.615 319.403C266.354 317.821 270.499 317.656 272.861 319.025L311.499 341.318C313.873 342.687 313.578 345.071 310.838 346.652L273.534 368.178C270.794 369.747 266.661 369.924 264.288 368.556Z" fill="#D4ECFF"/>
<path d="M264.985 364.543L232.605 345.861C230.621 344.717 230.869 342.71 233.16 341.389L264.418 323.344C266.709 322.023 270.181 321.881 272.177 323.026L304.556 341.707C306.54 342.852 306.292 344.858 304.001 346.18L272.743 364.224C270.441 365.546 266.969 365.688 264.985 364.543Z" fill="#519FEC"/>
<path d="M298.888 360.625C298.888 361.616 298.191 362.832 297.329 363.328C296.467 363.823 295.771 363.422 295.771 362.431C295.771 361.439 296.467 360.224 297.329 359.728C298.191 359.221 298.888 359.634 298.888 360.625Z" fill="#D4ECFF"/>
<path d="M303.907 357.722C303.907 358.713 303.21 359.929 302.348 360.424C301.486 360.92 300.789 360.519 300.789 359.528C300.789 358.536 301.486 357.321 302.348 356.825C303.21 356.329 303.907 356.731 303.907 357.722Z" fill="#D4ECFF"/>
<path d="M308.925 354.831C308.925 355.822 308.228 357.037 307.366 357.533C306.504 358.029 305.808 357.627 305.808 356.636C305.808 355.645 306.504 354.429 307.366 353.934C308.228 353.426 308.925 353.839 308.925 354.831Z" fill="#D4ECFF"/>
<path d="M313.093 335.818V322.495L283.205 322.483L272.873 316.523C270.499 315.154 266.354 315.331 263.626 316.901L253.99 322.459L224.067 322.447V336.149C223.996 337.069 224.516 337.966 225.661 338.627L264.299 360.92C266.673 362.289 270.818 362.112 273.546 360.542L310.85 339.016C312.42 338.096 313.188 336.916 313.093 335.818Z" fill="#235EA6"/>
<path d="M268.574 315.603C266.838 315.65 265.044 316.086 263.615 316.901L253.979 322.459L224.055 322.447V336.149C223.984 337.069 224.504 337.966 225.649 338.627L264.288 360.92C265.421 361.581 266.98 361.876 268.586 361.84V315.603H268.574Z" fill="#235EA6"/>
<path d="M227.444 322.447H224.055V336.149C223.984 337.069 224.504 337.966 225.649 338.627L227.444 339.665V322.447Z" fill="#519FEC"/>
<path d="M264.878 361.203C266.921 362.077 269.885 362.029 272.27 361.121V345.566H264.878V361.203Z" fill="#519FEC"/>
<path d="M264.288 347.266L225.649 324.973C223.276 323.604 223.571 321.22 226.311 319.639L263.615 298.113C266.354 296.532 270.499 296.366 272.861 297.735L311.511 320.016C313.885 321.385 313.59 323.769 310.85 325.351L273.546 346.876C270.794 348.458 266.661 348.635 264.288 347.266Z" fill="#D4ECFF"/>
<path d="M310.839 322.731L273.535 344.256C270.795 345.838 266.65 346.003 264.288 344.634L225.65 322.341C225.119 322.034 224.729 321.68 224.469 321.291C223.654 322.601 224.02 324.017 225.65 324.961L264.288 347.254C266.662 348.623 270.807 348.446 273.535 346.876L310.839 325.351C312.964 324.123 313.614 322.412 312.681 321.067C312.315 321.669 311.701 322.235 310.839 322.731Z" fill="white"/>
<path d="M298.888 339.335C298.888 340.326 298.191 341.542 297.329 342.038C296.467 342.533 295.771 342.132 295.771 341.141C295.771 340.149 296.467 338.934 297.329 338.438C298.191 337.931 298.888 338.332 298.888 339.335Z" fill="#D4ECFF"/>
<path d="M303.907 336.432C303.907 337.423 303.21 338.639 302.348 339.135C301.486 339.63 300.789 339.229 300.789 338.238C300.789 337.246 301.486 336.031 302.348 335.535C303.21 335.04 303.907 335.441 303.907 336.432Z" fill="#D4ECFF"/>
<path d="M308.925 333.541C308.925 334.532 308.228 335.748 307.366 336.243C306.504 336.739 305.808 336.338 305.808 335.346C305.808 334.355 306.504 333.14 307.366 332.644C308.228 332.136 308.925 332.549 308.925 333.541Z" fill="#D4ECFF"/>
<path d="M266.566 333.446L248.487 323.014C247.377 322.376 247.519 321.255 248.794 320.512L266.248 310.433C267.523 309.69 269.471 309.619 270.581 310.256L288.661 320.689C289.771 321.326 289.629 322.447 288.354 323.191L270.9 333.269C269.613 334.001 267.676 334.083 266.566 333.446Z" fill="#519FEC"/>
<path d="M268.303 324.713L265.799 323.273C265.646 323.179 265.669 323.026 265.846 322.931L268.267 321.539C268.444 321.432 268.716 321.421 268.869 321.515L271.373 322.955C271.526 323.049 271.503 323.203 271.326 323.297L268.905 324.69C268.728 324.784 268.456 324.796 268.303 324.713Z" fill="#D4ECFF"/>
<path d="M248.487 323.014L248.534 323.037C248.617 322.978 248.7 322.919 248.794 322.86L266.248 312.782C267.535 312.038 269.471 311.968 270.581 312.605L288.613 323.002C289.641 322.27 289.688 321.279 288.661 320.677L270.581 310.245C269.471 309.607 267.535 309.69 266.248 310.422L248.794 320.5C247.519 321.255 247.377 322.365 248.487 323.014Z" fill="#235EA6"/>
<path d="M209.211 108.936C209.211 109.609 208.739 109.881 208.16 109.538C207.582 109.208 207.109 108.394 207.109 107.721C207.109 107.048 207.582 106.777 208.16 107.119C208.739 107.45 209.211 108.264 209.211 108.936Z" fill="#D4ECFF"/>
<path d="M218.457 114.542C218.457 115.215 217.985 115.486 217.406 115.144C216.828 114.814 216.355 113.999 216.355 113.327C216.355 112.654 216.828 112.383 217.406 112.725C217.985 113.055 218.457 113.87 218.457 114.542Z" fill="#D4ECFF"/>
<path d="M227.704 120.148C227.704 120.821 227.231 121.092 226.653 120.75C226.074 120.419 225.602 119.605 225.602 118.932C225.602 118.26 226.074 117.988 226.653 118.33C227.231 118.661 227.704 119.475 227.704 120.148Z" fill="#D4ECFF"/>
<path d="M236.962 125.754C236.962 126.426 236.49 126.698 235.911 126.356C235.333 126.025 234.86 125.211 234.86 124.538C234.86 123.865 235.333 123.594 235.911 123.936C236.49 124.267 236.962 125.081 236.962 125.754Z" fill="#D4ECFF"/>
</g>
<defs>
<filter id="filter0_d" x="24" y="5.99854" width="358" height="444.001" filterUnits="userSpaceOnUse" color-interpolation-filters="sRGB">
<feFlood flood-opacity="0" result="BackgroundImageFix"/>
<feColorMatrix in="SourceAlpha" type="matrix" values="0 0 0 0 0 0 0 0 0 0 0 0 0 0 0 0 0 0 127 0" result="hardAlpha"/>
<feOffset dy="6"/>
<feGaussianBlur stdDeviation="6"/>
<feComposite in2="hardAlpha" operator="out"/>
<feColorMatrix type="matrix" values="0 0 0 0 0 0 0 0 0 0.095 0 0 0 0 0.2375 0 0 0 0.26 0"/>
<feBlend mode="normal" in2="BackgroundImageFix" result="effect1_dropShadow"/>
<feBlend mode="normal" in="SourceGraphic" in2="effect1_dropShadow" result="shape"/>
</filter>
</defs>
</svg>
