<svg width="95" height="83" viewBox="0 0 95 83" fill="none" xmlns="http://www.w3.org/2000/svg">
<g clip-path="url(#clip0_817:1241)">
<path d="M57.4742 54.1431C57.4742 56.9054 57.0919 59.58 56.3701 62.1097C54.0542 70.1845 48.3367 76.8097 40.8746 80.3071C37.1883 82.0323 33.073 82.998 28.7381 82.998H28.5958C12.7872 82.9184 0 70.0334 0 54.1431C0 38.2078 12.8685 25.2881 28.7361 25.2881C33.9819 25.2881 38.9064 26.701 43.1356 29.1694C43.7761 29.5348 44.3922 29.9289 44.9879 30.3494C45.2197 30.5005 45.4515 30.6618 45.6731 30.8333C47.3302 32.0502 48.8511 33.4365 50.2154 34.9738C50.6607 35.474 51.0877 35.9926 51.4984 36.5296C52.1938 37.4238 52.8241 38.363 53.4137 39.3471C55.5243 42.8792 56.8967 46.9115 57.3237 51.2214C57.4193 52.1851 57.4742 53.161 57.4742 54.1431Z" fill="#59CEFF"/>
<path d="M57.4745 54.143C57.4745 53.159 57.4216 52.1851 57.3241 51.2194C56.8971 46.9094 55.5246 42.8771 53.4141 39.345C52.8265 38.3609 52.1941 37.4218 51.4988 36.5275C51.0901 35.9906 50.6611 35.472 50.2158 34.9718C48.8535 33.4344 47.3306 32.0481 45.6735 30.8313C45.5616 30.7455 45.4458 30.67 45.3299 30.5883C40.3911 37.5729 35.0131 43.3855 22.5147 50.0801C22.3479 49.7371 21.9433 49.582 21.5916 49.7392L14.3979 52.9548C11.7404 54.143 10.2866 56.9218 10.6486 59.678C9.19477 61.4032 8.75559 63.8736 9.73155 66.0766C10.7095 68.2857 12.8404 69.6128 15.0953 69.6761C16.8968 71.7586 19.9039 72.514 22.5431 71.336L23.271 71.0113C23.2893 71.0746 23.3137 71.1359 23.3341 71.1992C23.3727 71.3196 23.4093 71.4401 23.452 71.5585C23.4744 71.63 23.5008 71.6994 23.5252 71.7688C23.5577 71.8627 23.5862 71.9587 23.6207 72.0526H23.6248C23.944 72.9366 24.31 73.7941 24.6292 74.5802C25.4303 76.53 27.1667 78.3083 28.1915 80.16C28.7303 81.1298 29.322 82.0853 29.9848 82.9653C33.8623 82.7979 37.5445 81.8689 40.877 80.3091C41.424 80.0518 41.9607 79.7742 42.4894 79.4843C42.0075 78.6186 41.3955 77.808 40.8282 77.069C39.1894 74.9334 37.3025 73.0203 35.5234 71.0175C35.3527 70.8317 35.1859 70.6459 35.0253 70.4642C34.9135 70.3376 34.8016 70.209 34.6898 70.0824C36.6295 70.1661 37.9105 69.3025 36.6275 68.2061C36.1192 67.7712 35.7756 67.271 35.5417 66.7606C35.31 66.2522 35.1961 65.7377 35.1412 65.2579C43.7764 62.3975 49.7685 62.2975 56.1021 62.959C56.1915 62.6772 56.2871 62.3996 56.3705 62.1137C57.0902 59.58 57.4745 56.9075 57.4745 54.143Z" fill="#39B4E8"/>
<path d="M18.57 64.5219C19.7113 61.3658 18.0885 57.8782 14.9454 56.7321C11.8023 55.586 8.32903 57.2155 7.18768 60.3716C6.04634 63.5278 7.6691 67.0154 10.8122 68.1615C13.9554 69.3075 17.4286 67.678 18.57 64.5219Z" fill="#E6F7FF"/>
<path d="M8.96158 61.8504C9.05511 62.0607 8.77249 62.3894 8.33331 62.5854C7.89412 62.7814 7.46307 62.7712 7.36954 62.5609C7.27601 62.3506 7.5566 62.0219 7.99782 61.8259C8.437 61.6299 8.86805 61.6421 8.96158 61.8504Z" fill="#C9E4F2"/>
<path d="M9.83063 63.8104C9.92416 64.0207 9.64357 64.3494 9.20236 64.5454C8.76317 64.7414 8.33212 64.7312 8.23859 64.5209C8.14506 64.3106 8.42769 63.9819 8.86687 63.7859C9.30605 63.5919 9.7371 63.6021 9.83063 63.8104Z" fill="#C9E4F2"/>
<path d="M10.6978 65.7724C10.7914 65.9827 10.5087 66.3114 10.0695 66.5074C9.63036 66.7034 9.19931 66.6932 9.10578 66.4829C9.01225 66.2726 9.29487 65.9439 9.73406 65.7479C10.1732 65.5519 10.6063 65.5621 10.6978 65.7724Z" fill="#C9E4F2"/>
<path d="M32.87 62.0096C32.87 62.0096 32.0161 65.1415 34.2425 67.0444C36.0806 68.6165 32.6606 69.7149 29.568 68.2245C26.4754 66.734 30.1231 60.6519 32.87 62.0096Z" fill="#E6F7FF"/>
<path d="M32.8712 62.0096C30.9294 61.05 28.5505 63.8043 28.4082 66.0297L28.579 66.4176L33.1599 65.5989C32.369 63.8737 32.8712 62.0096 32.8712 62.0096Z" fill="#CEEAF7"/>
<path d="M40.8737 80.3091C37.1874 82.0343 33.0721 83 28.7372 83H28.5948C27.4989 81.8465 26.6002 80.4336 25.8072 79.0024C24.7825 77.1506 23.0461 75.3723 22.245 73.4225C21.9237 72.6365 21.5597 71.7769 21.2385 70.8929C21.1755 70.7316 21.1226 70.5703 21.0697 70.4009C21.0067 70.2212 20.9457 70.0436 20.8908 69.8557C20.8461 69.7128 20.8013 69.5597 20.7668 69.4168C20.722 69.2473 20.6773 69.086 20.6427 68.9166C20.6062 68.792 20.5797 68.6573 20.5614 68.5327C20.535 68.4164 20.5167 68.3 20.4984 68.1836C20.472 68.0672 20.4618 67.9427 20.4455 67.8263C20.4272 67.6916 20.4191 67.567 20.4089 67.4425C20.4008 67.2812 20.3906 67.1199 20.3906 66.9586C20.3906 66.8504 20.3906 66.7442 20.3988 66.636C20.3988 66.5646 20.4069 66.4849 20.4171 66.4135C20.4354 66.144 20.4699 65.8867 20.5777 65.6438C21.1307 64.3105 24.8699 63.2918 26.3399 62.9345C26.7141 62.8446 26.9459 62.7997 26.9459 62.7997C27.5253 63.4694 28.1129 64.1309 28.6904 64.7944C28.8592 64.9904 29.03 65.1885 29.1987 65.3763C29.4386 65.6458 29.6704 65.9133 29.9104 66.1807C30.7033 67.1015 31.5044 68.0141 32.3055 68.9268C32.4133 69.0513 32.5272 69.1779 32.6349 69.3024C32.7955 69.4903 32.9643 69.6781 33.1249 69.8578H33.1331C34.9142 71.8607 36.8011 73.7737 38.4399 75.9113C39.4219 77.1874 40.5524 78.6717 40.8737 80.3091Z" fill="#FF5369"/>
<path d="M33.1373 69.8578C32.9665 69.672 32.7998 69.4862 32.6392 69.3045C30.7401 67.1383 28.841 64.97 26.942 62.8038C26.942 62.8038 21.2672 63.9696 20.5738 65.6499C20.4457 65.9623 20.4152 66.2992 20.3969 66.6422C20.3258 68.0101 20.7243 69.4883 21.2346 70.897L33.1373 69.8578Z" fill="#F0354D"/>
<path d="M48.9355 20.58L67.9912 63.5756C51.9854 62.0382 45.0805 58.2468 24.7804 67.2057C22.7715 68.0917 20.5797 67.2077 19.8416 65.5458L15.2485 55.1802C14.5124 53.5183 15.3644 51.3725 17.3265 50.3843C37.167 40.3904 40.7191 32.6034 48.9355 20.58Z" fill="#E6F7FF"/>
<path d="M51.2734 25.8598C51.4584 27.2686 51.556 28.6977 51.556 30.1453C51.556 46.6154 39.267 60.7928 21.5898 67.2179C22.5312 67.6324 23.678 67.6896 24.778 67.2057C45.0781 58.2468 51.983 62.0382 67.9888 63.5756L51.2734 25.8598Z" fill="#D6F2FF"/>
<path d="M61.6437 40.6578C66.9057 52.5301 69.614 62.8508 67.9874 63.5776C66.3608 64.3045 63.5305 65.5703 54.0027 44.0715C44.2817 22.1378 47.3051 21.3089 48.9317 20.5821C50.5583 19.8553 56.3816 28.7855 61.6437 40.6578Z" fill="#FF5369"/>
<path d="M60.2119 41.2969C64.4309 50.8151 67.2795 58.7879 66.576 59.1023C65.8725 59.4167 61.8812 51.9544 57.6622 42.4361C53.4432 32.9179 50.5946 24.9451 51.2981 24.6307C52.0037 24.3163 55.9929 31.7786 60.2119 41.2969Z" fill="#EB2C45"/>
<path d="M61.4356 34.051L57.3406 35.0596L54.793 35.6884C55.6408 37.777 56.6148 40.0617 57.668 42.4382C58.7212 44.8147 59.7562 47.0646 60.7341 49.094L62.9057 47.6158L66.3927 45.2352C67.4703 44.5002 67.8688 43.0874 67.3361 41.8869L64.5445 35.5884C64.0118 34.3858 62.7003 33.7386 61.4356 34.051Z" fill="#E6F7FF"/>
<path d="M62.3023 35.9804C62.5117 36.452 61.7065 37.2687 60.5049 37.8056C59.3032 38.3426 58.1605 38.3957 57.9511 37.9261C57.7417 37.4545 58.5468 36.6378 59.7485 36.1008C60.9502 35.5618 62.0949 35.5087 62.3023 35.9804Z" fill="white"/>
<path d="M20.1607 70.1783L27.3544 66.9627C27.7122 66.8034 27.8729 66.3808 27.7143 66.0215L20.1445 48.9409C19.9859 48.5815 19.565 48.4202 19.2071 48.5795L12.0155 51.7972C8.78056 53.2427 7.32475 57.0483 8.7643 60.2987L11.6963 66.9137C13.1358 70.162 16.9258 71.6238 20.1607 70.1783Z" fill="#FF5369"/>
<path d="M10.1413 59.3473C10.1352 59.3493 10.1291 59.3513 10.1251 59.3554C9.89532 59.4453 9.63709 59.333 9.54763 59.1043C8.20365 55.6988 11.1763 53.3121 12.935 52.526C13.1587 52.426 13.423 52.5281 13.5226 52.7527C13.6223 52.9793 13.5226 53.2427 13.299 53.3427C13.1241 53.4223 9.01288 55.317 10.3772 58.7756C10.4626 58.9981 10.3569 59.2513 10.1413 59.3473Z" fill="#FF9EAB"/>
<path d="M15.7018 51.7788C15.5737 51.4909 15.2402 51.3623 14.9536 51.4909C14.6669 51.6196 14.5388 51.9544 14.6669 52.2423C14.795 52.5301 15.1284 52.6588 15.4151 52.5301C15.6998 52.4015 15.8279 52.0646 15.7018 51.7788Z" fill="#FF9EAB"/>
<path d="M25.2338 49.8739C24.7844 50.074 24.2599 49.8719 24.0586 49.4227C23.8573 48.9715 24.0586 48.4427 24.5079 48.2406C38.2893 42.0523 44.0231 30.9313 44.0801 30.819C44.3037 30.3801 44.8385 30.2024 45.2756 30.425C45.7148 30.6475 45.8917 31.1845 45.6701 31.6255C45.4301 32.1053 39.6211 43.4141 25.2338 49.8739C25.2358 49.8739 25.2358 49.8739 25.2338 49.8739Z" fill="white"/>
<path d="M53.2389 39.4981C53.0153 39.5982 52.751 39.4981 52.6513 39.2715C51.4924 36.6582 47.7349 27.7545 47.9932 22.8749C48.0054 22.6278 48.2168 22.44 48.4608 22.4522C48.7068 22.4645 48.8939 22.6768 48.8817 22.9218C48.6845 26.6397 51.1203 33.6181 53.4646 38.9061C53.5663 39.1327 53.4646 39.3981 53.2389 39.4981Z" fill="#FF9EAB"/>
<path d="M49.1512 21.3273C49.0353 21.066 48.7303 20.9496 48.4701 21.0639C48.2098 21.1783 48.0939 21.4866 48.2078 21.7479C48.3237 22.0092 48.6287 22.1256 48.8889 22.0113C49.1492 21.8949 49.2671 21.5886 49.1512 21.3273Z" fill="#FF9EAB"/>
<path d="M31.4356 73.6696L26.4013 75.9195C26.1776 76.0195 25.9133 75.9195 25.8137 75.6929C25.714 75.4662 25.8157 75.2029 26.0394 75.1028L31.0737 72.8529C31.2974 72.7529 31.5617 72.8529 31.6613 73.0795C31.761 73.3041 31.6613 73.5695 31.4356 73.6696Z" fill="#F7314B"/>
<path d="M34.1153 76.7035L29.081 78.9534C28.8573 79.0535 28.593 78.9534 28.4934 78.7268C28.3937 78.5002 28.4954 78.2368 28.7191 78.1368L33.7534 75.8868C33.977 75.7868 34.2414 75.8868 34.341 76.1135C34.4406 76.3401 34.341 76.6035 34.1153 76.7035Z" fill="#F7314B"/>
<path d="M36.5841 79.8334L31.5497 82.0833C31.3261 82.1833 31.0617 82.0833 30.9621 81.8567C30.8625 81.6301 30.9641 81.3667 31.1878 81.2666L36.2222 79.0167C36.4458 78.9167 36.7101 79.0167 36.8098 79.2433C36.9094 79.47 36.8077 79.7333 36.5841 79.8334Z" fill="#F7314B"/>
<path d="M27.7156 66.0235L23.1875 55.8091C22.6365 61.8095 19.1434 66.9464 14.168 69.7639C15.9125 70.8501 18.145 71.0808 20.162 70.1783L27.3557 66.9627C27.7135 66.8035 27.8762 66.3829 27.7156 66.0235Z" fill="#F7435A"/>
<path d="M62.813 0.326674L57.4147 10.9474C57.2378 11.2945 57.4167 11.7171 57.7745 11.8009L61.1965 12.6012C61.5096 12.6747 61.6947 13.0116 61.6032 13.3403L60.3121 17.9402C60.1311 18.5874 60.9363 18.9875 61.3104 18.4342L67.2272 9.69386C67.4529 9.36106 67.3105 8.89965 66.9445 8.78327L63.12 7.57868C62.8496 7.49293 62.6849 7.2071 62.7398 6.90902L63.8642 0.696217C63.9862 0.0245074 63.122 -0.279701 62.813 0.326674Z" fill="#FCC232"/>
<path d="M62.87 2.50106L59.3443 10.6922C59.2467 10.9189 58.9844 11.023 58.7587 10.925C58.533 10.827 58.4293 10.5636 58.5269 10.337C58.529 10.3309 58.533 10.3247 58.5351 10.3186L62.4349 2.29893C62.4938 2.17847 62.6362 2.12947 62.7561 2.18664C62.87 2.24381 62.9188 2.38264 62.87 2.50106Z" fill="#FCD60E"/>
<path d="M66.3097 9.93273C66.269 9.93273 66.2283 9.9266 66.1856 9.91435L62.7596 8.92414C62.5237 8.85677 62.3875 8.60768 62.4546 8.37085C62.5237 8.13402 62.7698 7.99722 63.0056 8.0646L66.4317 9.05481C66.6675 9.12218 66.8038 9.37127 66.7367 9.6081C66.6818 9.8041 66.5028 9.93273 66.3097 9.93273Z" fill="#FCD60E"/>
<path d="M84.8832 19.4653L74.05 24.3469C73.6962 24.5062 73.5701 24.9472 73.7978 25.2391L75.9653 28.0158C76.1645 28.269 76.0974 28.6487 75.8209 28.8467L71.9455 31.6193C71.4006 32.0093 71.7788 32.828 72.4132 32.632L82.4778 29.543C82.8621 29.4245 83.039 28.9754 82.8255 28.6548L80.5971 25.3085C80.4385 25.0717 80.4913 24.745 80.717 24.547L85.4688 20.4106C85.9852 19.9675 85.5013 19.1856 84.8832 19.4653Z" fill="#FCC232"/>
<path d="M83.5703 21.1946L75.7118 25.3616C75.4942 25.4759 75.2258 25.3943 75.1099 25.1758C74.9961 24.9574 75.0774 24.6879 75.297 24.5715C75.3031 24.5694 75.3092 24.5654 75.3153 24.5613L83.3589 20.7638C83.4788 20.7066 83.6211 20.7597 83.6801 20.8801C83.7309 20.9945 83.6842 21.1333 83.5703 21.1946Z" fill="#FCD60E"/>
<path d="M81.615 29.1509C81.5825 29.1244 81.554 29.0958 81.5296 29.0591L79.4781 26.1313C79.3358 25.9292 79.3846 25.6515 79.5859 25.5086C79.7871 25.3657 80.0637 25.4147 80.206 25.6168L82.2576 28.5446C82.3999 28.7467 82.3511 29.0244 82.1498 29.1673C81.9831 29.2857 81.7655 29.2734 81.615 29.1509Z" fill="#FCD60E"/>
<path d="M94.5274 48.5448L82.8768 46.2438C82.4946 46.1683 82.1408 46.4561 82.1571 46.8257L82.3299 50.3496C82.3462 50.6722 82.0737 50.9437 81.7341 50.9437L76.9743 50.958C76.3053 50.9601 76.1427 51.8482 76.773 52.0564L86.7665 55.3742C87.1487 55.5007 87.5513 55.2353 87.5615 54.8515L87.6672 50.8274C87.6753 50.5415 87.9051 50.3067 88.204 50.2761L94.4624 49.6575C95.1394 49.5942 95.1923 48.6754 94.5274 48.5448Z" fill="#FCC232"/>
<path d="M92.4617 49.194L83.6495 48.0364C83.4055 48.0037 83.2347 47.7791 83.2652 47.5341C83.2978 47.2891 83.5214 47.1176 83.7654 47.1483C83.7715 47.1483 83.7797 47.1503 83.7858 47.1503L92.5349 48.7163C92.665 48.7387 92.7524 48.8653 92.7301 48.996C92.7077 49.1246 92.5877 49.2103 92.4617 49.194Z" fill="#FCD60E"/>
<path d="M86.2881 54.5554C86.2759 54.5166 86.2698 54.4738 86.2719 54.4309L86.282 50.8498C86.282 50.6028 86.4833 50.4027 86.7294 50.4047C86.9754 50.4047 87.1747 50.6048 87.1726 50.8539L87.1625 54.435C87.1625 54.682 86.9612 54.8821 86.7151 54.8801C86.5118 54.878 86.341 54.7412 86.2881 54.5554Z" fill="#FCD60E"/>
</g>
<defs>
<clipPath id="clip0_817:1241">
<rect width="95" height="83" fill="white"/>
</clipPath>
</defs>
</svg>
