<svg width="415" height="541" viewBox="0 0 415 541" fill="none" xmlns="http://www.w3.org/2000/svg">
<g opacity="0.8" clip-path="url(#clip0)">
<path d="M372.552 131.979L244.786 131.979L190.949 77.9909L95.9825 77.9909L21.5061 3.3401L22.103 2.74191L96.3306 77.1684L191.297 77.1684L245.134 131.131L372.552 131.131L372.552 131.979Z" fill="#DEDEDE"/>
<path d="M372.378 128.39C374.119 128.39 375.536 129.81 375.536 131.555C375.536 133.3 374.119 134.72 372.378 134.72C370.637 134.72 369.22 133.3 369.22 131.555C369.22 129.81 370.637 128.39 372.378 128.39Z" fill="#DEDEDE"/>
<path d="M24.1672 0.922305C22.9239 -0.323955 20.9345 -0.323955 19.6911 0.922305C18.4478 2.16856 18.4478 4.16255 19.6911 5.40881C20.9345 6.65507 22.9239 6.65507 24.1672 5.40881C25.3857 4.16255 25.3857 2.16857 24.1672 0.922305Z" fill="#DEDEDE"/>
<path d="M-22.1601 538.258L-108.423 538.258L-108.423 537.411L-22.5082 537.411L25.0124 489.779L119.979 489.779L173.841 435.791L304.392 435.791L352.484 387.586L353.081 388.184L304.74 436.639L174.189 436.639L120.327 490.626L25.3605 490.626L-22.1601 538.258Z" fill="#DEDEDE"/>
<path d="M350.445 385.766C351.689 384.52 353.678 384.52 354.921 385.766C356.165 387.013 356.165 389.007 354.921 390.253C353.678 391.499 351.689 391.499 350.445 390.253C349.202 389.007 349.202 387.013 350.445 385.766Z" fill="#DEDEDE"/>
<path d="M411.642 195.189L368.15 151.57L218.626 151.57L173.89 106.754L113.812 106.754L89.7408 130.882L-92.3096 130.882L-92.3096 130.034L89.3927 130.034L113.464 105.907L174.238 105.907L218.974 150.722L368.498 150.722L412.239 194.591L411.642 195.189Z" fill="#DEDEDE"/>
<path d="M414.08 192.522C415.323 193.768 415.323 195.762 414.08 197.008C412.836 198.254 410.847 198.254 409.604 197.008C408.36 195.762 408.36 193.768 409.604 192.522C410.847 191.3 412.836 191.3 414.08 192.522Z" fill="#DEDEDE"/>
<path d="M292.655 424.973L242.125 424.973L204.725 387.486L131.492 387.486L95.0625 350.971L-14.1777 350.971L-14.1777 350.123L95.4106 350.123L131.841 386.663L205.074 386.663L242.473 424.126L292.307 424.126L343.657 372.656L344.253 373.254L292.655 424.973Z" fill="#DEDEDE"/>
<path d="M341.618 370.811C342.861 369.565 344.851 369.565 346.094 370.811C347.337 372.057 347.337 374.051 346.094 375.297C344.851 376.544 342.861 376.544 341.618 375.297C340.374 374.051 340.374 372.057 341.618 370.811Z" fill="#DEDEDE"/>
<path d="M406.196 215.677L363.723 173.105L221.335 173.105L173.715 125.374L130.198 125.374L95.2852 160.343L-41.781 160.343L-41.781 159.521L94.937 159.521L129.85 124.526L174.063 124.526L221.684 172.258L364.071 172.258L406.792 215.079L406.196 215.677Z" fill="#DEDEDE"/>
<path d="M404.132 217.497C405.376 218.743 407.365 218.743 408.609 217.497C409.852 216.25 409.852 214.256 408.609 213.01C407.365 211.764 405.376 211.764 404.132 213.01C402.914 214.256 402.914 216.275 404.132 217.497Z" fill="#DEDEDE"/>
<path d="M286.214 383.224L224.37 383.224L152.679 311.365L4.84562 311.365L-30.8135 347.107L-31.4103 346.509L4.4975 310.517L153.027 310.517L224.719 382.376L285.866 382.376L321.028 347.132L384.438 347.132L384.438 347.98L321.376 347.98L286.214 383.224Z" fill="#DEDEDE"/>
<path d="M384.289 344.39C386.03 344.39 387.447 345.811 387.447 347.556C387.447 349.301 386.03 350.721 384.289 350.721C382.548 350.721 381.131 349.301 381.131 347.556C381.131 345.811 382.548 344.39 384.289 344.39Z" fill="#DEDEDE"/>
<path d="M299.866 397.93L265.823 397.93L265.823 397.082L299.518 397.082L338.261 358.274L338.857 358.872L299.866 397.93Z" fill="#DEDEDE"/>
<path d="M336.197 356.454C337.441 355.208 339.43 355.208 340.673 356.454C341.917 357.701 341.917 359.695 340.673 360.941C339.43 362.187 337.441 362.187 336.197 360.941C334.979 359.695 334.979 357.676 336.197 356.454Z" fill="#DEDEDE"/>
<path d="M265.999 394.34C264.258 394.34 262.841 395.761 262.841 397.506C262.841 399.251 264.258 400.671 265.999 400.671C267.739 400.671 269.157 399.251 269.157 397.506C269.157 395.761 267.739 394.34 265.999 394.34Z" fill="#DEDEDE"/>
<path d="M406.196 241.001L360.64 195.338L232.277 195.338L189.257 152.218L117.914 152.218L80.6884 189.531L-73.6354 189.531L-119.266 143.793L-118.669 143.195L-73.2873 188.683L80.3402 188.683L117.566 151.37L189.605 151.37L232.625 194.491L360.988 194.491L406.792 240.403L406.196 241.001Z" fill="#DEDEDE"/>
<path d="M408.609 238.359C409.852 239.605 409.852 241.599 408.609 242.846C407.365 244.092 405.376 244.092 404.132 242.846C402.889 241.599 402.889 239.605 404.132 238.359C405.376 237.113 407.365 237.113 408.609 238.359Z" fill="#DEDEDE"/>
<path d="M387.075 249.899L350.048 212.786L235.014 212.786L190.104 167.796L120.626 167.796L64.0788 224.501L63.482 223.902L120.278 166.949L190.452 166.949L235.362 211.963L350.396 211.963L387.671 249.301L387.075 249.899Z" fill="#DEDEDE"/>
<path d="M389.487 247.257C390.731 248.504 390.731 250.498 389.487 251.744C388.244 252.99 386.255 252.99 385.011 251.744C383.768 250.498 383.768 248.504 385.011 247.257C386.255 246.011 388.269 246.011 389.487 247.257Z" fill="#DEDEDE"/>
<path d="M61.6667 221.834C60.4233 223.08 60.4233 225.074 61.6667 226.32C62.91 227.566 64.8994 227.566 66.1427 226.32C67.386 225.074 67.386 223.08 66.1427 221.834C64.8994 220.612 62.8851 220.612 61.6667 221.834Z" fill="#DEDEDE"/>
<path d="M261.969 361.664L218.899 361.664L136.814 279.386L-81.0946 279.386L-81.0946 278.538L137.162 278.538L219.247 360.816L261.621 360.816L292.356 330.009L375.66 330.009L411.642 293.942L412.239 294.54L376.008 330.856L292.704 330.856L261.969 361.664Z" fill="#DEDEDE"/>
<path d="M409.604 292.123C410.847 290.876 412.836 290.876 414.08 292.123C415.323 293.369 415.323 295.363 414.08 296.609C412.836 297.856 410.847 297.856 409.604 296.609C408.36 295.363 408.36 293.344 409.604 292.123Z" fill="#DEDEDE"/>
<path d="M221.015 263.11L191.746 263.11L191.746 262.262L220.666 262.262L247.299 235.567L346.891 235.567L346.891 236.415L247.647 236.415L221.015 263.11Z" fill="#DEDEDE"/>
<path d="M346.741 232.826C344.997 232.826 343.583 234.243 343.583 235.991C343.583 237.739 344.997 239.157 346.741 239.157C348.485 239.157 349.899 237.739 349.899 235.991C349.899 234.243 348.485 232.826 346.741 232.826Z" fill="#DEDEDE"/>
<path d="M191.896 259.52C190.152 259.52 188.738 260.938 188.738 262.686C188.738 264.434 190.152 265.851 191.896 265.851C193.64 265.851 195.054 264.434 195.054 262.686C195.054 260.938 193.64 259.52 191.896 259.52Z" fill="#DEDEDE"/>
<path d="M219.097 236.888L178.315 196.036L119.356 196.036L119.356 195.189L178.663 195.189L219.693 236.29L219.097 236.888Z" fill="#DEDEDE"/>
<path d="M221.51 234.246C222.753 235.493 222.753 237.487 221.51 238.733C220.267 239.979 218.277 239.979 217.034 238.733C215.79 237.487 215.79 235.493 217.034 234.246C218.277 233 220.291 233 221.51 234.246Z" fill="#DEDEDE"/>
<path d="M119.53 192.447C117.79 192.447 116.372 193.868 116.372 195.612C116.372 197.357 117.79 198.778 119.53 198.778C121.271 198.778 122.688 197.357 122.688 195.612C122.688 193.868 121.271 192.447 119.53 192.447Z" fill="#DEDEDE"/>
<path d="M191.796 241.001L163.299 212.462L111.178 212.462L111.178 211.614L163.647 211.614L192.393 240.403L191.796 241.001Z" fill="#DEDEDE"/>
<path d="M191.969 237.437C190.225 237.437 188.811 238.854 188.811 240.602C188.811 242.351 190.225 243.768 191.969 243.768C193.714 243.768 195.127 242.351 195.127 240.602C195.127 238.854 193.714 237.437 191.969 237.437Z" fill="#DEDEDE"/>
<path d="M111.327 208.873C109.586 208.873 108.169 210.293 108.169 212.038C108.169 213.783 109.586 215.204 111.327 215.204C113.067 215.204 114.485 213.783 114.485 212.038C114.485 210.293 113.067 208.873 111.327 208.873Z" fill="#DEDEDE"/>
<path d="M171.578 365.951L134.899 329.186L17.2288 329.186L17.2288 328.339L135.247 328.339L172.174 365.353L171.578 365.951Z" fill="#DEDEDE"/>
<path d="M174.015 363.284C175.258 364.53 175.258 366.524 174.015 367.77C172.771 369.017 170.782 369.017 169.539 367.77C168.295 366.524 168.295 364.53 169.539 363.284C170.757 362.063 172.771 362.063 174.015 363.284Z" fill="#DEDEDE"/>
<path d="M17.379 325.597C15.6349 325.597 14.2209 327.014 14.2209 328.762C14.2209 330.511 15.6349 331.928 17.379 331.928C19.1232 331.928 20.5371 330.511 20.5371 328.762C20.5371 327.014 19.1232 325.597 17.379 325.597Z" fill="#DEDEDE"/>
<path d="M-21.7867 516.723L-101.584 516.723L-101.584 515.875L-22.1348 515.875L38.6398 454.958L108.267 454.958L147.88 415.253L222.903 415.253L222.903 416.1L148.228 416.1L108.615 455.806L38.9879 455.806L-21.7867 516.723Z" fill="#DEDEDE"/>
<path d="M222.73 412.511C224.47 412.511 225.888 413.932 225.888 415.676C225.888 417.421 224.47 418.842 222.73 418.842C220.989 418.842 219.572 417.421 219.572 415.676C219.572 413.932 220.989 412.511 222.73 412.511Z" fill="#DEDEDE"/>
<path d="M-104.892 423.428L-105.489 422.83L-58.3166 375.572L82.6786 375.572L109.982 402.94L195.574 402.94L195.574 403.787L109.634 403.787L82.3305 376.394L-57.9684 376.394L-104.892 423.428Z" fill="#DEDEDE"/>
<path d="M195.425 400.198C197.166 400.198 198.583 401.619 198.583 403.363C198.583 405.108 197.166 406.529 195.425 406.529C193.684 406.529 192.267 405.108 192.267 403.363C192.267 401.619 193.684 400.198 195.425 400.198Z" fill="#DEDEDE"/>
<path d="M-26.5612 474.973L-92.4833 474.973L-115.734 451.643L-115.137 451.045L-92.1351 474.126L-26.9093 474.126L22.2525 424.849L102.722 424.849L102.722 425.696L22.6006 425.696L-26.5612 474.973Z" fill="#DEDEDE"/>
<path d="M102.572 422.107C100.828 422.107 99.4143 423.524 99.4143 425.272C99.4143 427.021 100.828 428.438 102.572 428.438C104.317 428.438 105.73 427.021 105.73 425.272C105.73 423.524 104.317 422.107 102.572 422.107Z" fill="#DEDEDE"/>
<path d="M-45.0133 442.795L-78.3597 442.795L-78.3597 441.947L-45.3614 441.947L-7.81243 404.311L75.417 404.311L75.417 405.158L-7.46429 405.158L-45.0133 442.795Z" fill="#DEDEDE"/>
<path d="M75.2433 401.569C73.4991 401.569 72.0852 402.986 72.0852 404.734C72.0852 406.482 73.4991 407.9 75.2433 407.9C76.9874 407.9 78.4014 406.482 78.4014 404.734C78.4014 402.986 76.9874 401.569 75.2433 401.569Z" fill="#DEDEDE"/>
<path d="M-113.099 361.838L-113.696 361.24L-52.8713 300.273L106.824 300.273L106.824 301.121L-52.5232 301.121L-113.099 361.838Z" fill="#DEDEDE"/>
<path d="M106.65 297.531C108.391 297.531 109.808 298.952 109.808 300.697C109.808 302.442 108.391 303.862 106.65 303.862C104.909 303.862 103.492 302.442 103.492 300.697C103.492 298.952 104.909 297.531 106.65 297.531Z" fill="#DEDEDE"/>
<path d="M237.673 334.67L212.06 334.67L137.31 259.72L-94.7473 259.72L-94.7473 258.872L137.658 258.872L212.408 333.822L237.325 333.822L266.693 304.386L347.261 304.386L370.959 280.632L371.556 281.23L347.609 305.233L267.041 305.233L237.673 334.67Z" fill="#DEDEDE"/>
<path d="M368.921 278.812C370.164 277.566 372.153 277.566 373.397 278.812C374.64 280.059 374.64 282.053 373.397 283.299C372.153 284.545 370.164 284.545 368.921 283.299C367.677 282.053 367.677 280.034 368.921 278.812Z" fill="#DEDEDE"/>
<path d="M235.286 311.739L207.982 311.739L135.769 239.356L-107.057 239.356L-107.057 238.509L136.117 238.509L208.33 310.891L234.938 310.891L255.776 290.029L341.119 290.029L362.778 268.319L363.375 268.917L341.467 290.852L256.124 290.852L235.286 311.739Z" fill="#DEDEDE"/>
<path d="M360.715 266.475C361.958 265.229 363.948 265.229 365.191 266.475C366.434 267.721 366.434 269.715 365.191 270.961C363.948 272.208 361.958 272.208 360.715 270.961C359.497 269.715 359.497 267.721 360.715 266.475Z" fill="#DEDEDE"/>
<path d="M233.77 282.452L233.198 281.853L261.223 253.738L348.53 253.738L348.53 254.585L261.571 254.585L233.77 282.452Z" fill="#DEDEDE"/>
<path d="M348.381 250.996C346.637 250.996 345.223 252.413 345.223 254.162C345.223 255.91 346.637 257.327 348.381 257.327C350.125 257.327 351.539 255.91 351.539 254.162C351.539 252.413 350.125 250.996 348.381 250.996Z" fill="#DEDEDE"/>
<path d="M231.357 279.809C230.114 281.056 230.114 283.05 231.357 284.296C232.6 285.542 234.59 285.542 235.833 284.296C237.076 283.05 237.076 281.056 235.833 279.809C234.59 278.563 232.6 278.563 231.357 279.809Z" fill="#DEDEDE"/>
<path d="M161.433 95.7874L75.4932 95.7873L9.8944 30.0347L10.4912 29.4365L75.8413 94.9648L161.433 94.9648L161.433 95.7874Z" fill="#DEDEDE"/>
<path d="M161.284 92.1981C163.024 92.1981 164.442 93.6188 164.442 95.3636C164.442 97.1083 163.024 98.5291 161.284 98.5291C159.543 98.5291 158.126 97.1083 158.126 95.3636C158.126 93.6188 159.543 92.1981 161.284 92.1981Z" fill="#DEDEDE"/>
<path d="M12.5544 27.617C11.311 26.3708 9.32166 26.3708 8.0783 27.617C6.83494 28.8633 6.83494 30.8574 8.0783 32.1036C9.32166 33.3499 11.311 33.3499 12.5544 32.1036C13.7729 30.8574 13.7729 28.8633 12.5544 27.617Z" fill="#DEDEDE"/>
<path d="M46.2743 96.6348L4.14976 54.3867L-112.178 54.3867L-112.178 53.5392L4.49789 53.5392L46.8711 96.0365L46.2743 96.6348Z" fill="#DEDEDE"/>
<path d="M48.7115 93.9678C49.9549 95.214 49.9549 97.208 48.7115 98.4542C47.4682 99.7005 45.4788 99.7005 44.2354 98.4542C42.9921 97.208 42.9921 95.214 44.2354 93.9678C45.4788 92.7465 47.4682 92.7465 48.7115 93.9678Z" fill="#DEDEDE"/>
</g>
<defs>
<clipPath id="clip0">
<rect width="537" height="541" fill="white" transform="translate(415 541) rotate(-180)"/>
</clipPath>
</defs>
</svg>
