<svg width="106" height="106" viewBox="0 0 106 106" fill="none" xmlns="http://www.w3.org/2000/svg">
<g filter="url(#filter0_d)">
<path d="M52.6039 69.053C71.6581 69.0245 87.0815 53.5549 87.053 34.5007C87.0246 15.4464 71.555 0.0230042 52.5007 0.0514755C33.4465 0.0799468 18.0231 15.5495 18.0516 34.6038C18.08 53.658 33.5496 69.0814 52.6039 69.053Z" fill="#FDE218"/>
<path opacity="0.35" d="M61.8636 7.44989C57.3244 5.44028 52.5814 6.20618 51.2674 9.17142C49.9535 12.1367 52.5674 16.1699 57.1066 18.1866C61.6458 20.1962 66.3887 19.4303 67.7027 16.4651C69.0167 13.4998 66.4028 9.46654 61.8636 7.44989Z" fill="#AC7D03"/>
<path d="M61.6954 8.16643C58.0485 6.5503 54.2331 7.16865 53.1721 9.55067C52.1181 11.9327 54.212 15.179 57.8658 16.7951C61.5127 18.4113 65.3281 17.7929 66.3891 15.4109C67.4502 13.0289 65.3492 9.78255 61.6954 8.16643Z" fill="#AC7D03"/>
<path opacity="0.35" d="M75.1234 30.3222C73.4862 30.9757 72.9733 33.5334 73.971 36.0348C74.9688 38.5363 77.1049 40.04 78.7421 39.3865C80.3793 38.7331 80.8923 36.1754 79.8945 33.6739C78.8897 31.1724 76.7536 29.6687 75.1234 30.3222Z" fill="#AC7D03"/>
<path d="M75.7193 31.1933C74.4053 31.7203 73.9907 33.7721 74.7918 35.7887C75.5928 37.7984 77.3143 39.0069 78.6283 38.4799C79.9423 37.9529 80.3569 35.9012 79.5558 33.8845C78.7478 31.8749 77.0333 30.6663 75.7193 31.1933Z" fill="#AC7D03"/>
<path opacity="0.35" d="M26.7023 26.9704C23.3225 30.6102 23.182 35.9715 26.3931 38.9578C29.6043 41.9441 34.9446 41.4101 38.3244 37.7773C41.7042 34.1445 41.8447 28.7762 38.6335 25.7899C35.4224 22.8036 30.0821 23.3376 26.7023 26.9704Z" fill="#AC7D03"/>
<path d="M27.5033 27.5318C24.784 30.4549 24.6716 34.7692 27.2504 37.1723C29.8291 39.5684 34.1294 39.1468 36.8417 36.2237C39.561 33.3006 39.6734 28.9863 37.0876 26.5832C34.5229 24.1871 30.2226 24.6087 27.5033 27.5318Z" fill="#AC7D03"/>
<path opacity="0.35" d="M41.9019 52.4275C39.7236 51.0503 37.2502 51.0433 36.3789 52.4205C35.5076 53.7977 36.5757 56.0252 38.7539 57.4024C40.9322 58.7796 43.4056 58.7866 44.2769 57.4094C45.1482 56.0322 44.0871 53.8048 41.9019 52.4275Z" fill="#AC7D03"/>
<path d="M41.4227 53.0601C39.6661 51.9499 37.6845 51.9499 36.9819 53.0531C36.2862 54.1563 37.1365 55.9551 38.8931 57.0582C40.6498 58.1685 42.6313 58.1685 43.334 57.0653C44.0296 55.9621 43.1723 54.1633 41.4227 53.0601Z" fill="#AC7D03"/>
<path opacity="0.35" d="M57.1837 40.8901C54.8157 40.8901 52.8975 42.4571 52.8975 44.3964C52.8975 46.3358 54.8157 47.9027 57.1837 47.9027C59.5517 47.9027 61.47 46.3358 61.47 44.3964C61.47 42.4571 59.5517 40.8901 57.1837 40.8901Z" fill="#AC7D03"/>
<path opacity="0.35" d="M33.1742 11.3993C31.7408 12.8608 31.4176 14.8704 32.4575 15.8893C33.4975 16.9082 35.5 16.5498 36.9335 15.0812C38.3669 13.6197 38.6901 11.6101 37.6502 10.5912C36.6173 9.57939 34.6147 9.93775 33.1742 11.3993Z" fill="#AC7D03"/>
<path opacity="0.35" d="M62.299 59.2993C61.0132 59.9317 60.3386 61.1754 60.7813 62.0888C61.231 63.0023 62.6293 63.2272 63.9152 62.6018C65.201 61.9694 65.8756 60.7257 65.4329 59.8122C64.9832 58.8988 63.5849 58.6739 62.299 59.2993Z" fill="#AC7D03"/>
<path opacity="0.35" d="M51.6817 24.1876C50.3818 23.5973 48.9835 23.8714 48.5619 24.7919C48.1473 25.7194 48.864 26.942 50.164 27.5323C51.4639 28.1225 52.8622 27.8485 53.2838 26.928C53.7054 26.0075 52.9887 24.7778 51.6817 24.1876Z" fill="#AC7D03"/>
<path opacity="0.35" d="M44.5853 24.1526C44.5853 14.8283 48.2672 6.38226 54.2399 0.135589C53.6777 0.107483 53.1226 0.0512695 52.5535 0.0512695C33.4973 0.0512695 18.0527 15.4958 18.0527 34.552C18.0527 53.6082 33.4973 69.0528 52.5535 69.0528C62.1378 69.0528 70.8087 65.1389 77.0624 58.822C58.9337 57.6345 44.5853 42.5835 44.5853 24.1526Z" fill="#AC7D03"/>
</g>
<defs>
<filter id="filter0_d" x="0" y="0" width="105.104" height="105.104" filterUnits="userSpaceOnUse" color-interpolation-filters="sRGB">
<feFlood flood-opacity="0" result="BackgroundImageFix"/>
<feColorMatrix in="SourceAlpha" type="matrix" values="0 0 0 0 0 0 0 0 0 0 0 0 0 0 0 0 0 0 127 0" result="hardAlpha"/>
<feOffset dy="18"/>
<feGaussianBlur stdDeviation="9"/>
<feComposite in2="hardAlpha" operator="out"/>
<feColorMatrix type="matrix" values="0 0 0 0 0.183333 0 0 0 0 0 0 0 0 0 0.011 0 0 0 0.2 0"/>
<feBlend mode="normal" in2="BackgroundImageFix" result="effect1_dropShadow"/>
<feBlend mode="normal" in="SourceGraphic" in2="effect1_dropShadow" result="shape"/>
</filter>
</defs>
</svg>
