<svg width="307" height="423" viewBox="0 0 307 423" fill="none" xmlns="http://www.w3.org/2000/svg">
<g filter="url(#filter0_d)">
<path d="M225.054 67.1885V82.3246L225.894 81.8072V67.6513C225.854 67.6428 225.815 67.6274 225.772 67.6035L225.054 67.1885Z" fill="#160053"/>
<path d="M226.612 60.5229L224.135 59.0952C224.019 59.0286 223.913 59.02 223.836 59.0627H223.834C223.832 59.0644 223.831 59.0644 223.829 59.0661L222.994 59.5802C223.071 59.5375 223.179 59.5443 223.295 59.6126L223.706 59.85L223.94 59.9849L225.772 61.0403C226.01 61.177 226.202 61.5083 226.202 61.7798V66.3704V66.8468V67.3575C226.202 67.4634 226.171 67.5436 226.121 67.5949L226.91 67.1167C226.992 67.074 227.044 66.9784 227.044 66.8383V61.2606C227.044 60.9908 226.85 60.6595 226.612 60.5229Z" fill="#160053"/>
<path d="M226.204 66.8486V66.3721V61.7815C226.204 61.51 226.011 61.1787 225.775 61.0421L223.943 59.9866L223.708 59.8517L223.298 59.6143C223.18 59.546 223.073 59.5392 222.996 59.5819C222.995 59.5836 222.993 59.5836 222.991 59.5853C222.99 59.5853 222.99 59.587 222.988 59.5887C222.914 59.6348 222.868 59.7271 222.868 59.8586V65.4362C222.868 65.7078 223.061 66.0391 223.298 66.1757L223.992 66.5753V81.7115L225.056 82.3246V81.3221V67.1884L225.775 67.6034C225.818 67.6273 225.857 67.6427 225.896 67.6512C225.989 67.6734 226.069 67.6529 226.124 67.5966C226.175 67.5453 226.204 67.4651 226.204 67.3592V66.8486Z" fill="#1E08A7"/>
<path d="M233.812 71.4698V86.6061L234.652 86.0886V71.9327C234.612 71.9241 234.573 71.9088 234.53 71.8848L233.812 71.4698Z" fill="#160053"/>
<path d="M235.37 64.8042L232.893 63.3765C232.777 63.3099 232.671 63.3014 232.594 63.3441H232.592C232.59 63.3458 232.589 63.3458 232.587 63.3475L231.752 63.8615C231.829 63.8188 231.937 63.8257 232.053 63.894L232.464 64.1314L232.698 64.2663L234.53 65.3217C234.768 65.4583 234.96 65.7896 234.96 66.0612V70.6517V71.1282V71.6389C234.96 71.7447 234.929 71.825 234.879 71.8762L235.668 71.3981C235.75 71.3554 235.801 71.2597 235.801 71.1197V65.542C235.801 65.2722 235.608 64.9409 235.37 64.8042Z" fill="#160053"/>
<path d="M234.962 71.1283V70.6518V66.0613C234.962 65.7897 234.769 65.4584 234.533 65.3218L232.7 64.2664L232.466 64.1314L232.055 63.8941C231.937 63.8258 231.831 63.8189 231.754 63.8616C231.753 63.8633 231.751 63.8633 231.749 63.865C231.747 63.865 231.747 63.8667 231.746 63.8684C231.672 63.9146 231.626 64.0068 231.626 64.1383V69.7159C231.626 69.9875 231.819 70.3188 232.055 70.4554L232.75 70.855V85.9912L233.814 86.6043V85.6019V71.4681L234.533 71.8831C234.575 71.907 234.615 71.9224 234.654 71.931C234.746 71.9532 234.827 71.9327 234.882 71.8763C234.933 71.8251 234.962 71.7448 234.962 71.6389V71.1283Z" fill="#1E08A7"/>
<path d="M275.249 51.96C273.367 50.8756 271.583 50.3137 269.968 50.2044C269.969 50.0917 269.983 49.9909 269.983 49.8765C269.983 33.9206 258.692 14.479 244.763 6.4524C236.842 1.88746 229.781 2.0053 225.161 5.88712C224.545 6.40458 223.972 6.99206 223.446 7.64103C227.355 7.03476 231.997 8.0526 236.98 10.9251C250.91 18.9535 262.201 38.395 262.201 54.3492C262.201 54.462 262.187 54.5644 262.185 54.6771C263.8 54.7864 265.585 55.3483 267.467 56.4328C267.578 56.4959 267.687 56.5625 267.798 56.6292C267.834 56.6514 267.87 56.6736 267.906 56.6958C267.98 56.7419 268.053 56.7863 268.127 56.8324C268.171 56.8597 268.214 56.8887 268.259 56.9178C268.324 56.9605 268.389 57.0014 268.454 57.0441C268.502 57.0749 268.548 57.1073 268.594 57.1398C268.656 57.1808 268.717 57.2218 268.777 57.2645C268.825 57.2969 268.873 57.3311 268.921 57.3652C268.981 57.4079 269.041 57.4489 269.099 57.4916C269.147 57.5275 269.196 57.5633 269.244 57.5975C269.302 57.6402 269.36 57.6829 269.419 57.7256C269.468 57.7631 269.516 57.8007 269.566 57.8383C269.622 57.881 269.679 57.9254 269.735 57.9681C269.785 58.0056 269.833 58.0449 269.882 58.0842C269.939 58.1286 269.993 58.173 270.05 58.2174C270.099 58.2567 270.147 58.2977 270.197 58.3387C270.252 58.3831 270.306 58.4292 270.361 58.4753C270.411 58.5163 270.459 58.5573 270.508 58.5999C270.563 58.6461 270.616 58.6922 270.671 58.7383C270.721 58.781 270.768 58.8237 270.818 58.8664C270.871 58.9125 270.924 58.9603 270.977 59.0081C271.027 59.0525 271.075 59.0969 271.124 59.1413C271.177 59.1891 271.229 59.237 271.282 59.2848C271.33 59.3292 271.377 59.3753 271.427 59.4197C271.478 59.4692 271.531 59.517 271.583 59.5666C271.631 59.6127 271.679 59.6588 271.726 59.7049C271.778 59.7544 271.829 59.8039 271.879 59.8552C271.927 59.903 271.975 59.9491 272.021 59.9969C272.072 60.0482 272.122 60.0994 272.171 60.1506C272.219 60.1984 272.265 60.2463 272.312 60.2958C272.361 60.347 272.411 60.4 272.46 60.4512C272.507 60.5007 272.554 60.5503 272.601 60.5998C272.65 60.6527 272.698 60.704 272.748 60.7569C272.794 60.8064 272.84 60.8577 272.886 60.9089C272.934 60.9618 272.982 61.0165 273.03 61.0694C273.076 61.1207 273.122 61.1719 273.167 61.2231C273.215 61.2778 273.261 61.3307 273.309 61.3854C273.355 61.4383 273.4 61.4895 273.446 61.5425C273.492 61.5971 273.538 61.6518 273.584 61.7064C273.629 61.7594 273.675 61.814 273.72 61.867C273.766 61.9216 273.81 61.978 273.856 62.0343C273.901 62.089 273.945 62.1436 273.99 62.1983C274.034 62.2546 274.079 62.311 274.125 62.3673C274.169 62.422 274.212 62.4784 274.257 62.533C274.301 62.5894 274.344 62.6457 274.388 62.7038C274.431 62.7601 274.476 62.8165 274.518 62.8729C274.561 62.9292 274.604 62.9856 274.647 63.0436C274.69 63.1017 274.734 63.1598 274.777 63.2178C274.82 63.2742 274.861 63.3322 274.902 63.3903C274.944 63.4484 274.987 63.5064 275.028 63.5662C275.069 63.6243 275.11 63.6824 275.151 63.7404C275.193 63.8002 275.235 63.8582 275.276 63.918C275.316 63.9761 275.357 64.0342 275.396 64.0922C275.437 64.152 275.48 64.2135 275.521 64.275C275.56 64.3313 275.598 64.3894 275.636 64.4474C275.677 64.5106 275.719 64.5721 275.76 64.6353C275.796 64.6899 275.832 64.7446 275.867 64.801C275.909 64.8676 275.952 64.9325 275.995 64.9991C276.026 65.0469 276.055 65.0947 276.084 65.1425C276.197 65.3218 276.308 65.5012 276.417 65.6822C276.426 65.6976 276.436 65.7129 276.445 65.7283C276.489 65.8034 276.534 65.8786 276.578 65.9537C276.607 66.0032 276.636 66.0528 276.665 66.1006C276.707 66.1723 276.748 66.2458 276.79 66.3175C276.821 66.3704 276.85 66.4234 276.881 66.4763C276.92 66.548 276.96 66.618 276.999 66.6898C277.03 66.7444 277.061 66.7991 277.09 66.8537C277.129 66.9237 277.167 66.9955 277.204 67.0655C277.235 67.1219 277.264 67.1782 277.295 67.2346C277.333 67.3046 277.369 67.3763 277.406 67.4463C277.435 67.5027 277.466 67.559 277.495 67.6171C277.531 67.6888 277.567 67.7589 277.603 67.8306C277.632 67.8886 277.661 67.945 277.689 68.0031C277.723 68.0748 277.759 68.1448 277.793 68.2165C277.82 68.2746 277.849 68.3327 277.877 68.3907C277.911 68.4625 277.943 68.5342 277.978 68.6059C278.005 68.664 278.032 68.7221 278.058 68.7801C278.091 68.8518 278.123 68.9236 278.156 68.997C278.181 69.0551 278.209 69.1131 278.234 69.1712C278.267 69.2429 278.298 69.3164 278.328 69.3881C278.354 69.4462 278.38 69.5042 278.404 69.564C278.434 69.6357 278.465 69.7092 278.496 69.7809C278.52 69.839 278.546 69.8987 278.57 69.9568C278.599 70.0302 278.629 70.102 278.659 70.1754C278.683 70.2335 278.705 70.2932 278.729 70.3513C278.758 70.4247 278.785 70.4982 278.814 70.5699C278.836 70.628 278.859 70.6877 278.881 70.7475C278.908 70.8209 278.936 70.8944 278.963 70.9678C278.985 71.0259 279.006 71.0856 279.028 71.1437C279.055 71.2171 279.081 71.2906 279.107 71.3657C279.127 71.4238 279.148 71.4836 279.168 71.5416C279.194 71.6151 279.22 71.6902 279.244 71.7636C279.262 71.8217 279.283 71.8815 279.302 71.9395C279.326 72.013 279.35 72.0881 279.374 72.1616C279.392 72.2196 279.41 72.2777 279.428 72.3358C279.452 72.4109 279.475 72.486 279.497 72.5595C279.514 72.6175 279.531 72.6756 279.548 72.7337C279.57 72.8088 279.593 72.884 279.613 72.9591C279.63 73.0172 279.646 73.0752 279.661 73.1333C279.682 73.2084 279.702 73.2836 279.723 73.3587C279.738 73.4168 279.753 73.4731 279.767 73.5312C279.786 73.6064 279.806 73.6832 279.825 73.7583C279.839 73.8147 279.853 73.8728 279.866 73.9291C279.885 74.006 279.904 74.0811 279.921 74.158C279.935 74.2143 279.947 74.269 279.959 74.3253C279.976 74.4022 279.993 74.479 280.01 74.5559C280.022 74.6105 280.032 74.6652 280.044 74.7198C280.06 74.7984 280.077 74.8752 280.092 74.9538C280.102 75.0067 280.113 75.0597 280.123 75.1126C280.138 75.1912 280.154 75.2715 280.167 75.35C280.176 75.4012 280.185 75.4508 280.193 75.502C280.207 75.584 280.221 75.6642 280.234 75.7462C280.241 75.794 280.248 75.8419 280.256 75.888C280.27 75.9716 280.282 76.0553 280.294 76.139C280.301 76.1817 280.306 76.2244 280.311 76.2671C280.323 76.3559 280.335 76.443 280.345 76.5318C280.349 76.566 280.352 76.5984 280.357 76.6309C280.369 76.7282 280.38 76.8255 280.39 76.9229C280.39 76.9297 280.392 76.9348 280.392 76.9417C280.429 77.3106 280.457 77.676 280.474 78.0398C280.474 78.05 280.475 78.0586 280.475 78.0688C280.487 78.3369 280.493 78.6017 280.493 78.8664C280.493 80.6425 280.221 82.188 279.724 83.4808C279.658 83.6533 279.589 83.8207 279.514 83.9829C278.919 85.2962 278.068 86.3124 277.023 87.0023V87.004L283.849 83.0453C284.297 82.8524 284.72 82.6064 285.11 82.3144L285.113 82.3127C286.018 81.633 286.759 80.692 287.296 79.5119C287.926 78.1235 288.275 76.4071 288.275 74.3954C288.275 66.1467 282.443 56.1049 275.249 51.96Z" fill="#D8EAF9"/>
<path d="M203.147 12.9983C205.101 13.041 207.268 13.6336 209.559 14.8257C209.638 14.8667 209.718 14.9094 209.797 14.9503C209.852 14.9794 209.906 15.0084 209.959 15.0392C210.098 15.1143 210.238 15.1929 210.377 15.2731C211.275 15.7906 212.151 16.3986 213.01 17.0526C213.492 15.6335 214.11 14.3595 214.845 13.2391C215.574 12.1274 216.421 11.1693 217.37 10.3683C213.376 8.2797 209.751 8.01841 206.979 9.30779L206.977 9.3095C206.563 9.50248 206.167 9.72962 205.792 9.99091L199.207 13.7771C200.379 13.2323 201.705 12.9659 203.147 12.9983Z" fill="#D8EAF9"/>
<path d="M280.477 78.0637C280.477 78.0534 280.476 78.0449 280.476 78.0346C280.458 77.6709 280.431 77.3054 280.393 76.9365C280.393 76.9297 280.392 76.9246 280.392 76.9177C280.381 76.8204 280.369 76.723 280.359 76.6257C280.356 76.5932 280.352 76.5591 280.347 76.5266C280.337 76.4378 280.325 76.3507 280.313 76.2619C280.308 76.2192 280.303 76.1765 280.296 76.1339C280.284 76.0502 280.27 75.9665 280.258 75.8828C280.251 75.835 280.245 75.7872 280.236 75.7411C280.222 75.6591 280.209 75.5788 280.195 75.4968C280.186 75.4456 280.178 75.3961 280.169 75.3448C280.156 75.2663 280.14 75.186 280.125 75.1075C280.115 75.0545 280.104 75.0016 280.094 74.9486C280.079 74.8701 280.063 74.7932 280.046 74.7147C280.034 74.66 280.024 74.6054 280.012 74.5507C279.995 74.4739 279.978 74.397 279.961 74.3202C279.949 74.2638 279.935 74.2092 279.923 74.1528C279.906 74.076 279.887 74.0008 279.868 73.924C279.855 73.8676 279.841 73.8095 279.827 73.7532C279.808 73.678 279.79 73.6012 279.769 73.526C279.754 73.468 279.74 73.4116 279.725 73.3536C279.704 73.2784 279.683 73.2033 279.663 73.1281C279.648 73.0701 279.63 73.012 279.615 72.9539C279.594 72.8788 279.572 72.8036 279.55 72.7285C279.533 72.6704 279.516 72.6124 279.499 72.5543C279.476 72.4792 279.452 72.404 279.43 72.3306C279.411 72.2725 279.394 72.2145 279.376 72.1564C279.352 72.083 279.328 72.0078 279.304 71.9344C279.285 71.8763 279.264 71.8165 279.246 71.7585C279.222 71.685 279.196 71.6099 279.17 71.5365C279.15 71.4784 279.129 71.4186 279.109 71.3606C279.083 71.2871 279.057 71.2137 279.03 71.1385C279.009 71.0805 278.987 71.0207 278.965 70.9626C278.938 70.8892 278.91 70.8158 278.883 70.7423C278.861 70.6826 278.838 70.6245 278.816 70.5647C278.789 70.4913 278.76 70.4179 278.731 70.3461C278.707 70.2864 278.684 70.2283 278.66 70.1702C278.631 70.0968 278.602 70.0251 278.571 69.9516C278.547 69.8936 278.524 69.8338 278.498 69.7757C278.467 69.7023 278.438 69.6306 278.406 69.5588C278.38 69.5008 278.356 69.4427 278.33 69.3829C278.299 69.3112 278.267 69.2378 278.236 69.166C278.21 69.108 278.185 69.0499 278.157 68.9918C278.125 68.9201 278.092 68.8484 278.06 68.775C278.033 68.7169 278.005 68.6588 277.98 68.6008C277.945 68.529 277.913 68.4573 277.879 68.3856C277.851 68.3275 277.822 68.2695 277.795 68.2114C277.761 68.1397 277.726 68.0696 277.69 67.9979C277.661 67.9398 277.632 67.8835 277.605 67.8254C277.569 67.7537 277.533 67.6837 277.497 67.6119C277.468 67.5556 277.439 67.4975 277.408 67.4412C277.37 67.3694 277.335 67.2994 277.297 67.2294C277.268 67.173 277.237 67.1167 277.206 67.0603C277.169 66.9903 277.131 66.9186 277.092 66.8486C277.061 66.7939 277.032 66.7393 277.001 66.6846C276.962 66.6129 276.922 66.5412 276.883 66.4711C276.854 66.4182 276.823 66.3653 276.792 66.3123C276.751 66.2406 276.71 66.1671 276.667 66.0954C276.638 66.0459 276.609 65.9964 276.58 65.9486C276.536 65.8734 276.493 65.7983 276.447 65.7231C276.438 65.7078 276.428 65.6924 276.419 65.677C276.31 65.496 276.199 65.315 276.086 65.1374C276.055 65.0895 276.026 65.0417 275.997 64.9939C275.954 64.9273 275.911 64.8624 275.868 64.7958C275.832 64.7411 275.798 64.6848 275.762 64.6301C275.721 64.5669 275.678 64.5055 275.637 64.4423C275.6 64.3842 275.56 64.3279 275.523 64.2698C275.482 64.2083 275.439 64.1485 275.398 64.0871C275.359 64.029 275.319 63.9709 275.278 63.9129C275.237 63.8531 275.194 63.7933 275.153 63.7353C275.112 63.6772 275.071 63.6191 275.03 63.5611C274.987 63.503 274.945 63.4432 274.904 63.3852C274.862 63.3271 274.82 63.2707 274.779 63.2127C274.736 63.1546 274.691 63.0965 274.649 63.0385C274.606 62.9821 274.563 62.924 274.52 62.8677C274.478 62.8113 274.433 62.755 274.39 62.6986C274.346 62.6423 274.303 62.5842 274.259 62.5278C274.216 62.4715 274.171 62.4168 274.127 62.3622C274.082 62.3058 274.038 62.2495 273.992 62.1931C273.947 62.1385 273.903 62.0838 273.858 62.0292C273.812 61.9728 273.768 61.9182 273.721 61.8618C273.677 61.8072 273.632 61.7542 273.586 61.7013C273.54 61.6466 273.494 61.592 273.448 61.5373C273.403 61.4844 273.357 61.4314 273.311 61.3802C273.263 61.3256 273.217 61.2709 273.169 61.218C273.123 61.1667 273.078 61.1155 273.032 61.0643C272.984 61.0113 272.936 60.9567 272.888 60.9037C272.842 60.8525 272.796 60.803 272.75 60.7517C272.702 60.6988 272.652 60.6458 272.602 60.5946C272.556 60.5451 272.51 60.4956 272.462 60.446C272.413 60.3931 272.363 60.3419 272.313 60.2906C272.267 60.2428 272.219 60.1933 272.173 60.1455C272.123 60.0942 272.072 60.043 272.023 59.9918C271.975 59.9439 271.928 59.8961 271.881 59.85C271.829 59.8005 271.778 59.7493 271.728 59.6997C271.68 59.6536 271.632 59.6075 271.585 59.5614C271.533 59.5119 271.48 59.4623 271.429 59.4145C271.381 59.3684 271.333 59.324 271.283 59.2796C271.23 59.2318 271.179 59.184 271.126 59.1362C271.076 59.0918 271.029 59.0473 270.979 59.0029C270.926 58.9551 270.873 58.909 270.82 58.8612C270.77 58.8185 270.722 58.7758 270.673 58.7331C270.62 58.687 270.565 58.6409 270.51 58.5948C270.461 58.5538 270.413 58.5111 270.363 58.4701C270.308 58.424 270.254 58.3796 270.199 58.3335C270.149 58.2925 270.101 58.2532 270.052 58.2122C269.995 58.1678 269.94 58.1234 269.884 58.079C269.834 58.0397 269.787 58.0022 269.737 57.9629C269.68 57.9185 269.624 57.8758 269.568 57.8331C269.518 57.7955 269.47 57.758 269.42 57.7204C269.362 57.6777 269.304 57.635 269.246 57.5923C269.198 57.5564 269.148 57.5206 269.101 57.4864C269.041 57.4437 268.981 57.4027 268.923 57.36C268.875 57.3259 268.827 57.2917 268.779 57.2593C268.717 57.2166 268.656 57.1756 268.596 57.1346C268.55 57.1022 268.502 57.0714 268.456 57.039C268.391 56.9963 268.326 56.9536 268.261 56.9126C268.216 56.8836 268.173 56.8562 268.129 56.8272C268.055 56.7811 267.982 56.735 267.908 56.6906C267.872 56.6684 267.836 56.6462 267.8 56.624C267.691 56.5574 267.58 56.4925 267.468 56.4276C265.587 55.3431 263.802 54.7813 262.187 54.672C262.189 54.5593 262.203 54.4585 262.203 54.3441C262.203 38.3881 250.911 18.9466 236.982 10.9199C231.999 8.04744 227.357 7.02959 223.448 7.63586C221.144 7.99279 219.094 8.915 217.38 10.3547C217.376 10.3581 217.373 10.3615 217.37 10.3649C216.42 11.1659 215.573 12.1239 214.845 13.2357C214.109 14.356 213.493 15.6283 213.009 17.0492C212.15 16.3968 211.274 15.7872 210.376 15.2697C210.236 15.1894 210.097 15.1126 209.959 15.0357C209.904 15.0067 209.849 14.976 209.796 14.9469C209.716 14.9042 209.637 14.8633 209.558 14.8223C207.269 13.6302 205.102 13.0376 203.146 12.9949C201.704 12.9625 200.378 13.2306 199.204 13.7737C198.78 13.9701 198.375 14.2023 197.992 14.4705C195.353 16.3217 193.747 19.85 193.747 24.7343C193.747 35.2543 201.192 48.0731 210.376 53.3655C214.966 56.0109 262.033 83.1375 267.468 86.2696C271.246 88.4471 274.645 88.5632 277.025 86.992C278.072 86.3004 278.92 85.2859 279.516 83.9726C279.589 83.8104 279.66 83.6413 279.726 83.4705C280.222 82.1777 280.494 80.6322 280.494 78.8561C280.494 78.5965 280.489 78.3301 280.477 78.0637Z" fill="#1E08A7"/>
<path d="M225.193 38.4962C225.737 38.1782 225.73 37.1584 225.179 36.2184C224.627 35.2783 223.739 34.774 223.196 35.092C222.652 35.41 222.658 36.4297 223.21 37.3698C223.761 38.3098 224.649 38.8141 225.193 38.4962Z" fill="#FF2C9C"/>
<path d="M230.414 41.582C230.957 41.2641 230.951 40.2443 230.4 39.3043C229.848 38.3642 228.96 37.8599 228.416 38.1779C227.872 38.4958 227.879 39.5156 228.43 40.4557C228.982 41.3957 229.87 41.9 230.414 41.582Z" fill="#FF2C9C"/>
<path d="M235.604 44.6294C236.148 44.3115 236.142 43.2917 235.59 42.3516C235.038 41.4116 234.151 40.9073 233.607 41.2253C233.063 41.5432 233.069 42.563 233.621 43.503C234.172 44.4431 235.06 44.9474 235.604 44.6294Z" fill="#D8EAF9"/>
<path d="M240.885 47.5943C241.429 47.2763 241.423 46.2565 240.871 45.3165C240.32 44.3765 239.432 43.8722 238.888 44.1901C238.344 44.5081 238.35 45.5279 238.902 46.4679C239.454 47.4079 240.341 47.9122 240.885 47.5943Z" fill="#D8EAF9"/>
<path d="M81.3199 18.9705L16.2295 54.8701V221.098C16.2295 221.614 16.5049 222.091 16.9532 222.35L81.3199 259.509C83.005 260.48 85.0802 260.48 86.7653 259.509L151.035 222.407C151.543 222.115 151.854 221.573 151.854 220.988V54.8701L86.7653 18.9705C85.0802 17.9988 83.0033 17.9988 81.3199 18.9705Z" fill="url(#paint0_linear)"/>
<path d="M81.3224 15.8042L17.5784 52.5423C15.7838 53.5772 15.7838 56.1628 17.5784 57.1978L81.3207 93.9359C83.0058 94.9076 85.081 94.9076 86.7661 93.9359L150.51 57.1978C152.305 56.1628 152.305 53.5772 150.51 52.5423L86.7678 15.8042C85.0827 14.8325 83.0058 14.8325 81.3224 15.8042Z" fill="#D8EAF9"/>
<path d="M22.5908 74.2347V172.759C22.5908 174.814 23.6926 176.711 25.4769 177.732L68.0927 202.13C69.9575 203.197 72.2807 201.853 72.2807 199.708V101.184C72.2807 99.1292 71.179 97.2318 69.3946 96.2106L26.7788 71.813C24.9141 70.7473 22.5908 72.0897 22.5908 74.2347Z" fill="#1E08A7"/>
<path d="M70.3646 200.769L27.7488 176.371C25.9645 175.35 24.8627 173.453 24.8627 171.398V72.8735C24.8627 72.3407 25.0065 71.8557 25.2511 71.4458C23.8448 71.5176 22.5908 72.6567 22.5908 74.2347V172.759C22.5908 174.814 23.6926 176.711 25.4769 177.732L68.0927 202.13C69.4938 202.932 71.1533 202.372 71.8906 201.136C71.3842 201.161 70.859 201.052 70.3646 200.769Z" fill="#160053"/>
<path d="M36.6537 104.828C34.3698 103.511 32.5188 100.326 32.5188 97.7133C32.5188 95.1004 34.3698 94.0484 36.6537 95.3651V93.022C33.239 91.0546 30.4727 92.6258 30.4727 96.5332C30.4727 100.441 33.2407 105.202 36.6537 107.169C40.0685 109.137 42.8348 107.566 42.8348 103.658L40.7887 102.478C40.7887 105.093 38.9376 106.145 36.6537 104.828Z" fill="#FF2C9C"/>
<path d="M36.6553 93.0221V95.3652C38.9392 96.6819 40.7902 99.8669 40.7902 102.48L42.8364 103.66C42.8381 99.7525 40.07 94.9912 36.6553 93.0221Z" fill="white"/>
<path d="M30.3105 107.403L30.5569 107.545V108.932L31.2515 109.333V109.591L30.3105 109.048V107.403Z" fill="white"/>
<path d="M31.333 109.01C31.333 108.635 31.5605 108.5 31.8719 108.679C32.1867 108.86 32.4125 109.256 32.4125 109.632C32.4125 110.008 32.1867 110.146 31.8719 109.963C31.5605 109.786 31.333 109.386 31.333 109.01ZM32.1747 109.495C32.1747 109.256 32.0464 109.029 31.8736 108.928C31.7025 108.829 31.5742 108.908 31.5742 109.149C31.5742 109.388 31.7025 109.615 31.8736 109.714C32.0447 109.813 32.1747 109.734 32.1747 109.495Z" fill="white"/>
<path d="M33.2265 109.461V109.741C33.2059 109.724 33.1888 109.712 33.1717 109.702C32.9921 109.598 32.8775 109.664 32.8775 109.921V110.529L32.6396 110.392V109.137L32.8655 109.267V109.449C32.9339 109.357 33.0571 109.364 33.2265 109.461Z" fill="white"/>
<path d="M34.3693 110.853L33.5737 110.395C33.6028 110.595 33.726 110.783 33.9022 110.886C34.0168 110.95 34.1058 110.957 34.1776 110.908L34.3042 111.162C34.2136 111.244 34.0699 111.232 33.8954 111.131C33.5549 110.935 33.3359 110.539 33.3359 110.165C33.3359 109.791 33.5583 109.651 33.8594 109.825C34.1554 109.996 34.3727 110.377 34.3727 110.769C34.3727 110.793 34.371 110.827 34.3693 110.853ZM33.5703 110.199L34.1451 110.53C34.1263 110.339 34.0134 110.149 33.8577 110.059C33.7055 109.972 33.5943 110.028 33.5703 110.199Z" fill="white"/>
<path d="M36.295 111.779V112.498L36.0572 112.361V111.68C36.0572 111.456 35.9734 111.3 35.8297 111.217C35.674 111.126 35.5662 111.191 35.5662 111.44V112.077L35.3284 111.941V111.259C35.3284 111.036 35.2446 110.88 35.1009 110.797C34.9435 110.706 34.8374 110.771 34.8374 111.02V111.657L34.5996 111.521V110.266L34.8254 110.395V110.556C34.9007 110.488 35.0188 110.494 35.1573 110.573C35.3062 110.658 35.4293 110.798 35.4995 110.979C35.5816 110.897 35.7185 110.896 35.8793 110.99C36.1239 111.13 36.295 111.401 36.295 111.779Z" fill="white"/>
<path d="M37.1475 111.343L37.3938 111.485V113.13L37.1475 112.988V111.343Z" fill="white"/>
<path d="M38.8053 113.317C38.8053 113.707 38.5864 113.835 38.2904 113.664C38.1621 113.589 38.0475 113.469 37.9653 113.307V113.915L37.7275 113.778V112.067L37.9534 112.197V112.361C38.0338 112.287 38.1501 112.296 38.2887 112.376C38.5881 112.55 38.8053 112.93 38.8053 113.317ZM38.5658 113.179C38.5658 112.94 38.4358 112.713 38.2664 112.614C38.0954 112.515 37.9653 112.593 37.9653 112.832C37.9653 113.071 38.0971 113.3 38.2664 113.399C38.4358 113.497 38.5658 113.418 38.5658 113.179Z" fill="white"/>
<path d="M38.918 113.884L39.0086 113.714C39.0976 113.838 39.2345 113.968 39.3611 114.042C39.5116 114.129 39.5732 114.112 39.5732 114.026C39.5732 113.787 38.9471 113.651 38.9471 113.15C38.9471 112.913 39.1198 112.858 39.3936 113.015C39.5287 113.094 39.6827 113.222 39.7734 113.341L39.6827 113.512C39.5852 113.386 39.4894 113.307 39.3919 113.251C39.2482 113.167 39.1797 113.188 39.1797 113.27C39.1797 113.524 39.8059 113.659 39.8059 114.151C39.8059 114.387 39.6314 114.438 39.3457 114.274C39.178 114.175 39.0086 114.016 38.918 113.884Z" fill="white"/>
<path d="M40.9918 113.949V115.205L40.7659 115.075V114.914C40.6907 114.986 40.5709 114.977 40.4392 114.902C40.1791 114.752 40.0029 114.474 40.0029 114.096V113.379L40.2407 113.516V114.192C40.2407 114.419 40.328 114.578 40.4785 114.665C40.6445 114.761 40.7557 114.697 40.7557 114.446V113.811L40.9918 113.949Z" fill="white"/>
<path d="M42.9981 115.642V116.361L42.7603 116.224V115.543C42.7603 115.319 42.6765 115.164 42.5328 115.08C42.3771 114.989 42.2693 115.054 42.2693 115.304V115.941L42.0315 115.804V115.123C42.0315 114.899 41.9477 114.743 41.804 114.66C41.6466 114.569 41.5405 114.634 41.5405 114.883V115.52L41.3027 115.384V114.129L41.5286 114.258V114.419C41.6038 114.351 41.7219 114.357 41.8605 114.436C42.0093 114.521 42.1325 114.661 42.2026 114.842C42.2847 114.76 42.4216 114.759 42.5824 114.853C42.827 114.994 42.9981 115.264 42.9981 115.642Z" fill="white"/>
<path d="M35.2752 99.8328C35.2752 100.299 34.9297 100.398 34.4199 100.106C33.9117 99.8123 33.5645 99.3136 33.5645 98.8473C33.5645 98.5963 33.6688 98.4648 33.845 98.4426C33.7133 98.2513 33.6346 98.0396 33.6346 97.8312C33.6346 97.3991 33.9545 97.3069 34.4181 97.5733C34.8818 97.8415 35.2017 98.3043 35.2017 98.7346C35.2017 98.943 35.123 99.0642 34.9913 99.1035C35.1709 99.3307 35.2752 99.5817 35.2752 99.8328ZM34.7158 99.4895C34.7158 99.3016 34.5978 99.1189 34.4199 99.0164C34.2419 98.914 34.1239 98.9618 34.1239 99.1496C34.1239 99.3375 34.2419 99.5202 34.4199 99.6227C34.5978 99.7235 34.7158 99.6773 34.7158 99.4895ZM34.1872 98.1796C34.1872 98.3401 34.2796 98.487 34.4199 98.5673C34.5601 98.6475 34.6559 98.61 34.6559 98.4494C34.6559 98.2855 34.5567 98.1352 34.4199 98.0566C34.283 97.9764 34.1872 98.0157 34.1872 98.1796Z" fill="white"/>
<path d="M35.459 99.4364C35.459 98.632 35.8251 98.381 36.3281 98.6713C36.8293 98.9599 37.1937 99.6328 37.1937 100.437C37.1937 101.242 36.8276 101.493 36.3281 101.204C35.8234 100.914 35.459 100.241 35.459 99.4364ZM36.6326 100.114C36.6326 99.6037 36.5026 99.3373 36.3264 99.2349C36.1467 99.1307 36.0167 99.2485 36.0167 99.7592C36.0167 100.27 36.1467 100.536 36.3264 100.64C36.5043 100.743 36.6326 100.625 36.6326 100.114Z" fill="white"/>
<path d="M37.3496 99.9523C37.3496 99.5322 37.5635 99.4007 37.8526 99.5681C38.1451 99.7372 38.359 100.113 38.359 100.535C38.359 100.96 38.1451 101.086 37.8526 100.917C37.5635 100.752 37.3496 100.378 37.3496 99.9523ZM39.0176 100.27L39.4231 100.504L38.0801 102.164L37.6747 101.93L39.0176 100.27ZM38.0185 100.338C38.0185 100.091 37.9484 99.954 37.8526 99.8977C37.7619 99.8464 37.6866 99.8994 37.6866 100.147C37.6866 100.395 37.7619 100.535 37.8526 100.588C37.9484 100.642 38.0185 100.586 38.0185 100.338ZM38.7388 101.901C38.7388 101.481 38.9492 101.348 39.2417 101.517C39.5343 101.686 39.7481 102.061 39.7481 102.483C39.7481 102.909 39.5343 103.035 39.2417 102.866C38.9492 102.698 38.7388 102.326 38.7388 101.901ZM39.4077 102.287C39.4077 102.039 39.3341 101.901 39.2417 101.846C39.1494 101.792 39.0758 101.848 39.0758 102.096C39.0758 102.343 39.1494 102.482 39.2417 102.536C39.3341 102.591 39.4077 102.535 39.4077 102.287Z" fill="white"/>
<path d="M29.9922 141.749L30.2385 141.891V143.277L30.9331 143.679V143.937L29.9922 143.394V141.749Z" fill="white"/>
<path d="M31.0146 143.356C31.0146 142.98 31.2422 142.845 31.5535 143.025C31.8683 143.206 32.0942 143.602 32.0942 143.978C32.0942 144.353 31.8683 144.492 31.5535 144.309C31.2439 144.131 31.0146 143.732 31.0146 143.356ZM31.8564 143.841C31.8564 143.602 31.728 143.375 31.5553 143.274C31.3842 143.175 31.2559 143.253 31.2559 143.494C31.2559 143.733 31.3842 143.96 31.5553 144.059C31.728 144.159 31.8564 144.08 31.8564 143.841Z" fill="white"/>
<path d="M32.9081 143.807V144.087C32.8876 144.07 32.8704 144.058 32.8533 144.048C32.6737 143.943 32.5591 144.01 32.5591 144.266V144.874L32.3213 144.738V143.482L32.5471 143.612V143.795C32.6155 143.704 32.7387 143.709 32.9081 143.807Z" fill="white"/>
<path d="M34.0509 145.2L33.2554 144.743C33.2845 144.942 33.4076 145.13 33.5838 145.233C33.6985 145.298 33.7874 145.305 33.8593 145.255L33.9859 145.509C33.8952 145.591 33.7515 145.579 33.577 145.479C33.2366 145.282 33.0176 144.886 33.0176 144.512C33.0176 144.138 33.24 143.998 33.5411 144.172C33.837 144.343 34.0543 144.724 34.0543 145.117C34.0543 145.139 34.0526 145.173 34.0509 145.2ZM33.2537 144.545L33.8285 144.876C33.8097 144.685 33.6968 144.495 33.5411 144.405C33.3888 144.317 33.2759 144.375 33.2537 144.545Z" fill="white"/>
<path d="M35.9796 146.124V146.843L35.7418 146.707V146.025C35.7418 145.801 35.6579 145.646 35.5142 145.562C35.3586 145.472 35.2508 145.537 35.2508 145.786V146.423L35.013 146.286V145.605C35.013 145.381 34.9292 145.226 34.7854 145.142C34.6281 145.052 34.522 145.117 34.522 145.366V146.003L34.2842 145.866V144.611L34.51 144.741V144.901C34.5853 144.833 34.7033 144.84 34.8419 144.918C34.9907 145.004 35.1139 145.144 35.1841 145.325C35.2662 145.243 35.403 145.241 35.5639 145.335C35.8085 145.477 35.9796 145.747 35.9796 146.124Z" fill="white"/>
<path d="M36.8291 145.689L37.0755 145.831V147.475L36.8291 147.333V145.689Z" fill="white"/>
<path d="M38.487 147.663C38.487 148.052 38.268 148.181 37.972 148.01C37.8437 147.935 37.7291 147.815 37.647 147.653V148.261L37.4092 148.124V146.413L37.635 146.543V146.707C37.7154 146.633 37.8317 146.642 37.9703 146.722C38.268 146.896 38.487 147.275 38.487 147.663ZM38.2458 147.525C38.2458 147.286 38.1174 147.059 37.9464 146.959C37.7753 146.86 37.6453 146.939 37.6453 147.178C37.6453 147.417 37.777 147.646 37.9464 147.745C38.1174 147.842 38.2458 147.764 38.2458 147.525Z" fill="white"/>
<path d="M38.5996 148.23L38.6903 148.059C38.7792 148.184 38.9161 148.314 39.0427 148.387C39.1933 148.474 39.2548 148.457 39.2548 148.372C39.2548 148.133 38.6287 147.996 38.6287 147.495C38.6287 147.258 38.8015 147.203 39.0752 147.361C39.2104 147.437 39.3643 147.567 39.455 147.687L39.3643 147.858C39.2668 147.731 39.171 147.653 39.0735 147.596C38.9298 147.513 38.8614 147.533 38.8614 147.615C38.8614 147.87 39.4875 148.004 39.4875 148.496C39.4875 148.732 39.313 148.783 39.0273 148.619C38.8596 148.52 38.6903 148.361 38.5996 148.23Z" fill="white"/>
<path d="M40.6734 148.295V149.55L40.4476 149.42V149.26C40.3723 149.331 40.2525 149.323 40.1208 149.248C39.8608 149.097 39.6846 148.819 39.6846 148.442V147.724L39.9224 147.861V148.537C39.9224 148.764 40.0096 148.923 40.1602 149.01C40.3261 149.106 40.4373 149.043 40.4373 148.792V148.156L40.6734 148.295Z" fill="white"/>
<path d="M42.6837 149.987V150.706L42.4459 150.57V149.888C42.4459 149.664 42.362 149.509 42.2183 149.425C42.0627 149.335 41.9549 149.4 41.9549 149.649V150.286L41.7171 150.15V149.468C41.7171 149.244 41.6332 149.089 41.4895 149.005C41.3321 148.915 41.2261 148.98 41.2261 149.229V149.866L40.9883 149.729V148.474L41.2141 148.604V148.765C41.2894 148.696 41.4074 148.703 41.546 148.782C41.6948 148.867 41.818 149.007 41.8882 149.188C41.9703 149.106 42.1071 149.104 42.268 149.198C42.5126 149.34 42.6837 149.61 42.6837 149.987Z" fill="white"/>
<path d="M36.4653 139.249C34.1814 137.932 32.3303 134.747 32.3303 132.134C32.3303 129.521 34.1814 128.469 36.4653 129.786V127.443C33.0505 125.475 30.2842 127.046 30.2842 130.954C30.2842 134.861 33.0522 139.623 36.4653 141.59C39.88 143.557 42.6463 141.986 42.6463 138.079L40.6002 136.899C40.6002 139.513 38.7492 140.564 36.4653 139.249Z" fill="#FF2C9C"/>
<path d="M36.4668 127.443V129.786C38.7507 131.103 40.6018 134.288 40.6018 136.9L42.6479 138.081C42.6479 134.173 39.8798 129.41 36.4668 127.443Z" fill="white"/>
<path d="M35.0829 134.252C35.0829 134.718 34.7373 134.817 34.2275 134.525C33.7194 134.231 33.3721 133.733 33.3721 133.266C33.3721 133.015 33.4764 132.884 33.6526 132.862C33.5209 132.67 33.4422 132.459 33.4422 132.25C33.4422 131.818 33.7621 131.726 34.2258 131.992C34.6894 132.26 35.0093 132.723 35.0093 133.154C35.0093 133.362 34.9306 133.483 34.7989 133.523C34.9785 133.75 35.0829 134.002 35.0829 134.252ZM34.5234 133.908C34.5234 133.721 34.4054 133.538 34.2275 133.435C34.0495 133.333 33.9315 133.381 33.9315 133.569C33.9315 133.756 34.0495 133.939 34.2275 134.042C34.4054 134.144 34.5234 134.096 34.5234 133.908ZM33.9948 132.599C33.9948 132.759 34.0872 132.906 34.2275 132.986C34.3677 133.067 34.4635 133.029 34.4635 132.868C34.4635 132.704 34.3643 132.554 34.2275 132.476C34.0906 132.397 33.9948 132.435 33.9948 132.599Z" fill="white"/>
<path d="M35.2656 133.857C35.2656 133.053 35.6317 132.802 36.1347 133.092C36.636 133.381 37.0004 134.054 37.0004 134.858C37.0004 135.662 36.6343 135.913 36.1347 135.625C35.6317 135.333 35.2656 134.66 35.2656 133.857ZM36.4409 134.534C36.4409 134.023 36.3109 133.756 36.1347 133.654C35.9551 133.55 35.8251 133.668 35.8251 134.178C35.8251 134.689 35.9551 134.955 36.1347 135.06C36.3109 135.162 36.4409 135.046 36.4409 134.534Z" fill="white"/>
<path d="M37.1562 134.373C37.1562 133.953 37.3701 133.821 37.6592 133.989C37.9518 134.158 38.1656 134.534 38.1656 134.955C38.1656 135.381 37.9518 135.507 37.6592 135.338C37.3701 135.171 37.1562 134.797 37.1562 134.373ZM38.8226 134.691L39.228 134.925L37.885 136.585L37.4796 136.351L38.8226 134.691ZM37.8252 134.759C37.8252 134.511 37.755 134.375 37.6592 134.318C37.5685 134.267 37.4933 134.32 37.4933 134.568C37.4933 134.815 37.5685 134.955 37.6592 135.008C37.755 135.063 37.8252 135.005 37.8252 134.759ZM38.5454 136.322C38.5454 135.901 38.7558 135.768 39.0484 135.937C39.3409 136.106 39.5548 136.482 39.5548 136.904C39.5548 137.329 39.3409 137.456 39.0484 137.286C38.7558 137.117 38.5454 136.745 38.5454 136.322ZM39.2143 136.708C39.2143 136.46 39.1408 136.322 39.0484 136.267C38.956 136.212 38.8824 136.269 38.8824 136.516C38.8824 136.764 38.956 136.902 39.0484 136.957C39.1408 137.012 39.2143 136.953 39.2143 136.708Z" fill="white"/>
<path d="M30.3066 156.171C30.3066 156.171 34.3954 154.387 38.9649 161.162C43.5345 167.936 47.0484 167.482 49.2707 166.181C51.8147 164.692 55.2414 168.116 58.4714 174.737C61.9066 181.778 64.454 176.405 67.0629 175.548V185.03L30.3066 163.846V156.171Z" fill="#5793CE"/>
<path d="M54.3506 120.497L54.5969 120.639V122.026L55.2915 122.427V122.685L54.3506 122.142V120.497Z" fill="white"/>
<path d="M55.3721 122.102C55.3721 121.727 55.5996 121.592 55.911 121.771C56.2258 121.952 56.4516 122.348 56.4516 122.724C56.4516 123.1 56.2258 123.238 55.911 123.055C55.5996 122.878 55.3721 122.48 55.3721 122.102ZM56.2138 122.588C56.2138 122.348 56.0855 122.121 55.9127 122.021C55.7416 121.921 55.6133 122 55.6133 122.241C55.6133 122.48 55.7416 122.707 55.9127 122.806C56.0838 122.905 56.2138 122.828 56.2138 122.588Z" fill="white"/>
<path d="M57.2655 122.553V122.833C57.245 122.816 57.2279 122.804 57.2108 122.794C57.0311 122.69 56.9165 122.756 56.9165 123.013V123.621L56.6787 123.484V122.229L56.9045 122.358V122.541C56.973 122.451 57.0962 122.456 57.2655 122.553Z" fill="white"/>
<path d="M58.4093 123.947L57.6138 123.489C57.6429 123.689 57.766 123.877 57.9422 123.979C58.0569 124.044 58.1458 124.051 58.2177 124.002L58.3443 124.256C58.2536 124.338 58.1099 124.326 57.9354 124.225C57.595 124.029 57.376 123.633 57.376 123.259C57.376 122.885 57.5984 122.745 57.8995 122.919C58.1954 123.09 58.4127 123.47 58.4127 123.863C58.4127 123.885 58.411 123.92 58.4093 123.947ZM57.6104 123.293L58.1852 123.624C58.1664 123.433 58.0534 123.243 57.8978 123.153C57.7455 123.064 57.6343 123.122 57.6104 123.293Z" fill="white"/>
<path d="M60.335 124.872V125.591L60.0972 125.455V124.773C60.0972 124.55 60.0134 124.394 59.8697 124.311C59.714 124.22 59.6062 124.285 59.6062 124.534V125.171L59.3684 125.035V124.353C59.3684 124.13 59.2846 123.974 59.1409 123.89C58.9835 123.8 58.8775 123.865 58.8775 124.114V124.751L58.6396 124.615V123.359L58.8655 123.489V123.65C58.9407 123.581 59.0588 123.588 59.1974 123.667C59.3462 123.752 59.4694 123.892 59.5395 124.073C59.6216 123.991 59.7585 123.989 59.9193 124.083C60.164 124.223 60.335 124.493 60.335 124.872Z" fill="white"/>
<path d="M61.1865 124.437L61.4329 124.579V126.223L61.1865 126.082V124.437Z" fill="white"/>
<path d="M62.8444 126.411C62.8444 126.801 62.6254 126.929 62.3295 126.758C62.2011 126.683 62.0865 126.563 62.0044 126.401V127.009L61.7666 126.872V125.161L61.9924 125.291V125.455C62.0728 125.381 62.1892 125.39 62.3277 125.47C62.6271 125.643 62.8444 126.022 62.8444 126.411ZM62.6049 126.271C62.6049 126.032 62.4749 125.805 62.3055 125.706C62.1344 125.607 62.0044 125.685 62.0044 125.924C62.0044 126.163 62.1361 126.392 62.3055 126.491C62.4749 126.589 62.6049 126.512 62.6049 126.271Z" fill="white"/>
<path d="M62.958 126.976L63.0487 126.806C63.1376 126.93 63.2745 127.06 63.4011 127.134C63.5517 127.221 63.6132 127.204 63.6132 127.118C63.6132 126.879 62.9871 126.742 62.9871 126.242C62.9871 126.005 63.1599 125.95 63.4336 126.107C63.5688 126.186 63.7227 126.314 63.8134 126.433L63.7227 126.604C63.6252 126.478 63.5294 126.399 63.4319 126.343C63.2882 126.259 63.2198 126.28 63.2198 126.362C63.2198 126.616 63.8459 126.751 63.8459 127.243C63.8459 127.479 63.6714 127.53 63.3857 127.366C63.218 127.268 63.0487 127.11 62.958 126.976Z" fill="white"/>
<path d="M65.0308 127.043V128.298L64.805 128.168V128.008C64.7297 128.08 64.61 128.071 64.4782 127.996C64.2182 127.846 64.042 127.567 64.042 127.19V126.473L64.2798 126.609V127.286C64.2798 127.513 64.367 127.671 64.5176 127.759C64.6835 127.854 64.7947 127.791 64.7947 127.54V126.905L65.0308 127.043Z" fill="white"/>
<path d="M67.0382 128.736V129.455L66.8004 129.318V128.636C66.8004 128.413 66.7165 128.257 66.5728 128.174C66.4171 128.083 66.3094 128.148 66.3094 128.397V129.034L66.0716 128.898V128.216C66.0716 127.993 65.9877 127.837 65.844 127.754C65.6866 127.663 65.5806 127.728 65.5806 127.977V128.614L65.3428 128.478V127.222L65.5686 127.352V127.513C65.6439 127.444 65.7619 127.451 65.9005 127.53C66.0493 127.615 66.1725 127.755 66.2426 127.936C66.3248 127.854 66.4616 127.853 66.6224 127.947C66.8671 128.087 67.0382 128.356 67.0382 128.736Z" fill="white"/>
<path d="M60.9027 111.463L60.8719 106.148C59.5084 105.371 58.1193 105.187 57.0535 105.651C55.7977 106.198 54.9937 107.642 55.2126 110.076C55.2366 110.343 55.2708 110.619 55.3204 110.908C55.3221 110.915 55.3221 110.921 55.3239 110.928L60.901 112.706V111.463H60.9027Z" fill="#5C629E"/>
<path d="M66.6497 113.145C65.8696 110.833 64.335 108.455 62.1486 106.944C62.0905 106.903 62.0306 106.864 61.9724 106.824C61.9348 106.801 61.8972 106.775 61.8595 106.749C61.7483 106.679 61.6371 106.611 61.5242 106.544C61.5191 106.541 61.5139 106.538 61.5088 106.536C61.5037 106.532 61.5002 106.531 61.4951 106.527V106.529L61.5259 111.844L61.5328 113.092L67.1116 117.7L67.1185 117.705C67.204 117.307 67.2451 116.868 67.2417 116.404C67.2348 115.408 67.0347 114.284 66.6497 113.145Z" fill="white"/>
<path d="M61.2012 113.541L55.624 111.763C56.1954 115.015 58.4759 118.513 61.2012 120.084C63.9402 121.664 66.2292 120.775 66.7869 118.154L61.208 113.546" fill="#FF2C9C"/>
<path d="M51.0719 146.174L48.3809 144.621V153.546L51.0719 155.097V146.174Z" fill="#FF2C9C"/>
<path d="M56.3178 142.979L53.625 141.426V156.569L56.3178 158.122V142.979Z" fill="#FF2C9C"/>
<path d="M61.6176 141.344L58.9248 139.792V159.623L61.6176 161.175V141.344Z" fill="#FF2C9C"/>
<path d="M66.8656 138.96L64.1729 137.408V162.647L66.8656 164.198V138.96Z" fill="#FF2C9C"/>
<path d="M275.116 107.595C274.341 106.077 273.333 104.724 272.201 103.749C272.196 103.744 272.191 103.741 272.185 103.735C272.102 103.664 272.018 103.595 271.934 103.529C271.922 103.519 271.908 103.508 271.896 103.498C271.818 103.437 271.739 103.379 271.66 103.32C271.641 103.307 271.623 103.291 271.604 103.278C271.527 103.223 271.45 103.172 271.373 103.121C271.351 103.107 271.33 103.092 271.308 103.076C271.209 103.013 271.109 102.952 271.01 102.893L190.045 56.2297C188.637 55.4185 187.352 55.3587 186.357 55.912L93.9229 109.144L98.2785 125.233L98.879 126.941L172.474 166.748L275.116 107.595Z" fill="#D8EAF9"/>
<path d="M273.224 104.769C273.94 105.587 274.584 106.552 275.116 107.595L175.1 165.238V343.64L182.56 364.852L274.625 311.846C274.64 311.837 274.656 311.829 274.669 311.82L274.834 311.726L274.83 311.719C275.981 310.995 276.71 309.414 276.71 307.184V113.77C276.712 110.625 275.273 107.1 273.224 104.769Z" fill="#160053"/>
<path d="M271.936 103.529C272.019 103.595 272.103 103.664 272.187 103.735C272.103 103.664 272.019 103.595 271.936 103.529Z" fill="#160053"/>
<path d="M271.663 103.32C271.742 103.379 271.82 103.437 271.899 103.498C271.82 103.437 271.742 103.379 271.663 103.32Z" fill="#160053"/>
<path d="M271.375 103.122C271.452 103.174 271.529 103.225 271.606 103.28C271.529 103.225 271.452 103.174 271.375 103.122Z" fill="#160053"/>
<path d="M271.013 102.897C271.112 102.955 271.211 103.015 271.31 103.08C271.213 103.015 271.112 102.953 271.013 102.897Z" fill="#160053"/>
<path d="M178.645 364.673L97.6798 318.009C94.532 316.194 91.9795 311.326 91.9795 307.135V113.724C91.9795 109.533 94.532 107.607 97.6798 109.422L178.645 156.086C181.792 157.901 184.345 162.769 184.345 166.96V360.369C184.347 364.56 181.794 366.487 178.645 364.673Z" fill="#5793CE"/>
<path d="M173.552 353.029L102.775 312.237C100.022 310.65 97.791 306.395 97.791 302.731V123.107C97.791 119.444 100.022 117.76 102.775 119.347L173.552 160.139C176.304 161.725 178.535 165.981 178.535 169.645V349.269C178.535 352.932 176.304 354.616 173.552 353.029Z" fill="url(#paint1_linear)"/>
<path d="M173.552 353.029L102.775 312.237C100.022 310.65 97.791 306.395 97.791 302.731V123.107C97.791 119.444 100.022 117.76 102.775 119.347L173.552 160.139C176.304 161.725 178.535 165.981 178.535 169.645V349.269C178.535 352.932 176.304 354.616 173.552 353.029Z" fill="url(#paint2_linear)"/>
<path d="M173.552 353.029L102.775 312.237C100.022 310.65 97.791 306.395 97.791 302.731V123.107C97.791 119.444 100.022 117.76 102.775 119.347L173.552 160.139C176.304 161.725 178.535 165.981 178.535 169.645V349.269C178.535 352.932 176.304 354.616 173.552 353.029Z" fill="#1E08A7"/>
<path d="M175.865 351.672L105.088 310.879C102.335 309.293 100.104 305.037 100.104 301.374V121.749C100.104 120.501 100.369 119.488 100.819 118.751C99.0399 118.737 97.791 120.368 97.791 123.107V302.731C97.791 306.395 100.022 310.65 102.775 312.237L173.552 353.029C175.365 354.075 176.949 353.694 177.82 352.268C177.22 352.263 176.559 352.071 175.865 351.672Z" fill="#160053"/>
<path d="M195.397 186.236L265.665 145.367C267.223 144.468 268.486 142.06 268.486 139.987V133.757C268.486 131.684 267.223 130.731 265.665 131.629L195.397 172.498C193.839 173.397 192.576 175.805 192.576 177.878V184.108C192.576 186.181 193.839 187.134 195.397 186.236Z" fill="#1E08A7"/>
<path d="M195.397 224.132L265.665 183.263C267.223 182.364 268.486 179.956 268.486 177.883V171.653C268.486 169.58 267.223 168.627 265.665 169.525L195.397 210.394C193.839 211.293 192.576 213.701 192.576 215.774V222.004C192.576 224.075 193.839 225.028 195.397 224.132Z" fill="#1E08A7"/>
<path d="M195.397 262.533L265.665 221.664C267.223 220.766 268.486 218.358 268.486 216.284V210.054C268.486 207.981 267.223 207.028 265.665 207.926L195.397 248.796C193.839 249.694 192.576 252.102 192.576 254.175V260.405C192.576 262.477 193.839 263.43 195.397 262.533Z" fill="#1E08A7"/>
<path d="M196.06 301.056L266.328 260.187C267.886 259.288 269.149 256.88 269.149 254.807V248.577C269.149 246.504 267.886 245.551 266.328 246.449L196.06 287.318C194.502 288.217 193.239 290.625 193.239 292.698V298.928C193.241 301 194.504 301.953 196.06 301.056Z" fill="#1E08A7"/>
<path d="M195.397 340.077L265.665 299.208C267.223 298.31 268.486 295.902 268.486 293.829V287.599C268.486 285.525 267.223 284.572 265.665 285.471L195.397 326.34C193.839 327.238 192.576 329.646 192.576 331.719V337.95C192.576 340.021 193.839 340.974 195.397 340.077Z" fill="#1E08A7"/>
<path d="M173.575 248.505L104.911 208.931V230.739L173.575 270.312V248.505Z" fill="#5793CE"/>
<path d="M173.575 283.008L104.911 243.435V265.243L173.575 304.816V283.008Z" fill="#5793CE"/>
<path d="M173.575 317.512L104.911 277.937V299.746L173.575 339.321V317.512Z" fill="#5793CE"/>
<path d="M165.104 260.964L113.385 231.156C111.924 230.314 110.742 228.056 110.742 226.113V220.272C110.742 218.329 111.926 217.435 113.385 218.277L165.104 248.085C166.565 248.927 167.749 251.185 167.749 253.128V258.969C167.747 260.912 166.564 261.806 165.104 260.964Z" fill="#1E08A7"/>
<path d="M147.685 245.947L116.563 228.01C116.049 227.715 115.632 226.921 115.632 226.236C115.632 225.553 116.048 225.238 116.563 225.534L147.685 243.471C148.198 243.766 148.616 244.56 148.616 245.245C148.616 245.928 148.2 246.243 147.685 245.947Z" fill="white"/>
<path d="M153.817 248.101C153.817 248.797 153.327 249.079 152.722 248.731C152.118 248.382 151.627 247.535 151.627 246.839C151.627 246.142 152.118 245.86 152.722 246.208C153.327 246.557 153.817 247.404 153.817 248.101Z" fill="#D8EAF9"/>
<path d="M158.457 250.775C158.457 251.472 157.968 251.754 157.362 251.405C156.759 251.057 156.268 250.21 156.268 249.513C156.268 248.816 156.757 248.533 157.362 248.883C157.968 249.231 158.457 250.078 158.457 250.775Z" fill="#FF2C9C"/>
<path d="M163.101 253.451C163.101 254.148 162.612 254.43 162.006 254.081C161.402 253.733 160.911 252.886 160.911 252.189C160.911 251.492 161.4 251.211 162.006 251.559C162.612 251.907 163.101 252.754 163.101 253.451Z" fill="#D8EAF9"/>
<path d="M175.223 216.187L106.557 176.612V198.421L175.223 237.996V216.187Z" fill="#5793CE"/>
<path d="M166.75 228.647L115.031 198.839C113.57 197.997 112.388 195.74 112.388 193.796V187.955C112.388 186.012 113.572 185.119 115.031 185.961L166.75 215.769C168.211 216.611 169.395 218.868 169.395 220.812V226.652C169.393 228.594 168.209 229.489 166.75 228.647Z" fill="#1E08A7"/>
<path d="M149.329 213.63L118.206 195.693C117.693 195.398 117.275 194.604 117.275 193.919C117.275 193.236 117.691 192.922 118.206 193.217L149.329 211.154C149.842 211.449 150.259 212.244 150.259 212.928C150.258 213.612 149.842 213.926 149.329 213.63Z" fill="white"/>
<path d="M155.459 215.784C155.459 216.481 154.97 216.762 154.364 216.414C153.761 216.066 153.27 215.219 153.27 214.522C153.27 213.825 153.761 213.543 154.364 213.892C154.968 214.238 155.459 215.085 155.459 215.784Z" fill="#D8EAF9"/>
<path d="M160.099 218.458C160.099 219.155 159.61 219.437 159.004 219.088C158.4 218.74 157.909 217.893 157.909 217.196C157.909 216.499 158.398 216.216 159.004 216.566C159.608 216.914 160.099 217.761 160.099 218.458Z" fill="#FF2C9C"/>
<path d="M164.74 221.133C164.74 221.829 164.25 222.111 163.645 221.763C163.041 221.414 162.55 220.567 162.55 219.87C162.55 219.174 163.039 218.892 163.645 219.24C164.25 219.589 164.74 220.436 164.74 221.133Z" fill="#D8EAF9"/>
<path d="M162.872 294.411L111.153 264.603C109.692 263.761 108.51 261.503 108.51 259.56V253.719C108.51 251.776 109.694 250.883 111.153 251.724L162.872 281.532C164.333 282.374 165.517 284.632 165.517 286.575V292.416C165.515 294.36 164.331 295.253 162.872 294.411Z" fill="#1E08A7"/>
<path d="M145.451 279.394L114.33 261.457C113.817 261.162 113.399 260.368 113.399 259.683C113.399 259 113.815 258.686 114.33 258.981L145.453 276.918C145.966 277.213 146.383 278.008 146.383 278.692C146.382 279.375 145.966 279.69 145.451 279.394Z" fill="white"/>
<path d="M151.582 281.548C151.582 282.245 151.093 282.526 150.487 282.178C149.884 281.83 149.393 280.983 149.393 280.286C149.393 279.589 149.884 279.307 150.487 279.656C151.093 280.004 151.582 280.851 151.582 281.548Z" fill="#D8EAF9"/>
<path d="M156.223 284.222C156.223 284.919 155.734 285.201 155.128 284.852C154.524 284.504 154.033 283.657 154.033 282.96C154.033 282.263 154.523 281.98 155.128 282.33C155.734 282.678 156.223 283.525 156.223 284.222Z" fill="#FF2C9C"/>
<path d="M160.864 286.898C160.864 287.595 160.374 287.877 159.769 287.528C159.165 287.18 158.674 286.333 158.674 285.636C158.674 284.939 159.163 284.658 159.769 285.006C160.374 285.353 160.864 286.201 160.864 286.898Z" fill="#D8EAF9"/>
<path d="M162.872 328.396L111.153 298.588C109.692 297.746 108.51 295.488 108.51 293.545V287.704C108.51 285.761 109.694 284.868 111.153 285.71L162.872 315.517C164.333 316.359 165.517 318.617 165.517 320.561V326.401C165.515 328.345 164.331 329.238 162.872 328.396Z" fill="#1E08A7"/>
<path d="M145.451 313.379L114.33 295.442C113.817 295.147 113.399 294.353 113.399 293.668C113.399 292.985 113.815 292.67 114.33 292.966L145.453 310.903C145.966 311.198 146.383 311.992 146.383 312.677C146.382 313.36 145.966 313.675 145.451 313.379Z" fill="white"/>
<path d="M151.582 315.533C151.582 316.229 151.093 316.511 150.487 316.163C149.884 315.814 149.393 314.967 149.393 314.271C149.393 313.574 149.884 313.292 150.487 313.64C151.093 313.987 151.582 314.836 151.582 315.533Z" fill="#D8EAF9"/>
<path d="M156.223 318.207C156.223 318.904 155.734 319.186 155.128 318.837C154.524 318.489 154.033 317.642 154.033 316.945C154.033 316.248 154.523 315.965 155.128 316.315C155.734 316.663 156.223 317.51 156.223 318.207Z" fill="#FF2C9C"/>
<path d="M160.864 320.882C160.864 321.578 160.374 321.86 159.769 321.512C159.165 321.163 158.674 320.316 158.674 319.619C158.674 318.923 159.163 318.641 159.769 318.989C160.374 319.338 160.864 320.185 160.864 320.882Z" fill="#D8EAF9"/>
<path d="M113.861 150.476L108.676 147.487C107.697 146.924 106.905 147.375 106.905 148.493C106.905 149.612 107.699 150.976 108.676 151.542L113.861 154.53C114.84 155.094 115.632 154.643 115.632 153.525C115.632 152.404 114.838 151.04 113.861 150.476Z" fill="#FF2C9C"/>
<path d="M126.923 158.866L121.737 155.878C120.759 155.314 119.967 155.765 119.967 156.884C119.967 158.002 120.761 159.367 121.737 159.932L126.923 162.921C127.901 163.484 128.694 163.033 128.694 161.915C128.695 160.795 127.901 159.43 126.923 158.866Z" fill="#FF2C9C"/>
<path d="M166.34 198.607L109.27 164.557C108.291 163.993 107.499 164.444 107.499 165.563C107.499 166.681 108.293 168.046 109.27 168.611L166.34 202.661C167.318 203.225 168.111 202.774 168.111 201.655C168.111 200.535 167.318 199.17 166.34 198.607Z" fill="#5793CE"/>
<path d="M140.754 167.074L135.569 164.085C134.59 163.522 133.798 163.973 133.798 165.091C133.798 166.21 134.592 167.574 135.569 168.14L140.754 171.128C141.733 171.692 142.525 171.241 142.525 170.122C142.525 169.002 141.733 167.638 140.754 167.074Z" fill="#B3E0FF"/>
<path d="M156.406 176.418L151.221 173.429C150.242 172.865 149.45 173.316 149.45 174.435C149.45 175.553 150.244 176.918 151.221 177.483L156.406 180.472C157.385 181.035 158.177 180.585 158.177 179.466C158.177 178.346 157.385 176.981 156.406 176.418Z" fill="white"/>
<path d="M169.85 184.36L164.664 181.372C163.686 180.808 162.894 181.259 162.894 182.378C162.894 183.496 163.687 184.861 164.664 185.426L169.85 188.415C170.828 188.978 171.62 188.527 171.62 187.409C171.62 186.289 170.828 184.924 169.85 184.36Z" fill="white"/>
<path d="M272.425 103.946C272.351 103.879 272.278 103.812 272.204 103.749C272.278 103.812 272.351 103.879 272.425 103.946Z" fill="#160053"/>
<path d="M272.636 104.149C272.605 104.118 272.574 104.089 272.542 104.06C272.574 104.089 272.605 104.118 272.636 104.149Z" fill="#160053"/>
<path d="M272.544 104.06C272.503 104.022 272.464 103.983 272.423 103.945C272.464 103.983 272.503 104.021 272.544 104.06Z" fill="#160053"/>
<path d="M272.781 104.294C272.802 104.315 272.823 104.338 272.846 104.359C272.823 104.336 272.802 104.315 272.781 104.294Z" fill="#160053"/>
<path d="M272.639 104.149C272.687 104.197 272.736 104.244 272.784 104.294C272.736 104.244 272.688 104.197 272.639 104.149Z" fill="#160053"/>
<path d="M273.224 104.767C273.164 104.699 273.105 104.632 273.043 104.567C273.105 104.632 273.164 104.699 273.224 104.767Z" fill="#160053"/>
<path d="M273.228 104.77C273.228 104.768 273.226 104.768 273.226 104.765C273.226 104.768 273.228 104.77 273.228 104.77Z" fill="#160053"/>
<path d="M273.006 104.526C272.953 104.468 272.898 104.412 272.844 104.355C272.898 104.412 272.953 104.47 273.006 104.526Z" fill="#160053"/>
<path d="M273.044 104.567C273.032 104.553 273.019 104.541 273.007 104.526C273.019 104.541 273.032 104.555 273.044 104.567Z" fill="#160053"/>
<path d="M131.219 366.053C131.219 362.023 128.764 357.34 125.736 355.594L75.2783 326.514C73.9217 325.732 72.683 325.677 71.725 326.212L71.7216 326.21L12.3418 360.656C13.2314 360.339 14.3143 360.475 15.4828 361.148L65.9408 390.229C68.9689 391.974 71.4239 396.657 71.4239 400.687C71.4239 402.759 70.7755 404.251 69.7336 404.98L129.088 370.591C129.271 370.507 129.449 370.41 129.613 370.287C130.605 369.537 131.219 368.066 131.219 366.053Z" fill="#D8EAF9"/>
<path d="M66.5497 389.95L16.0917 360.87C14.6991 360.067 13.4314 360.033 12.4648 360.614C13.3305 360.351 14.369 360.501 15.4844 361.145L65.9424 390.225C68.9705 391.97 71.4255 396.653 71.4255 400.684C71.4255 402.861 70.7053 404.395 69.5693 405.078C71.0525 404.627 72.0328 402.953 72.0328 400.409C72.0345 396.378 69.5796 391.695 66.5497 389.95Z" fill="white"/>
<path d="M131.22 366.053C131.22 364.128 130.656 362.058 129.742 360.228L69.8852 394.727C70.8398 396.59 71.4266 398.716 71.4266 400.687C71.4266 402.759 70.7782 404.251 69.7363 404.98L129.09 370.592C129.274 370.509 129.451 370.411 129.616 370.288C130.606 369.537 131.22 368.067 131.22 366.053Z" fill="#160053"/>
<path d="M71.4259 400.685C71.4259 398.715 70.8374 396.588 69.8845 394.725C68.8871 392.778 67.4911 391.118 65.9428 390.225L15.4831 361.145C14.3146 360.47 13.2317 360.335 12.3421 360.653C10.9272 361.157 10 362.808 10 365.283C10 369.313 12.455 373.996 15.4831 375.741L65.9411 404.822C67.4141 405.67 68.7502 405.667 69.7356 404.977C70.7758 404.25 71.4259 402.757 71.4259 400.685Z" fill="#1E08A7"/>
<path d="M44.772 387.559C45.346 387.223 45.339 386.146 44.7564 385.153C44.1739 384.16 43.2363 383.628 42.6623 383.963C42.0883 384.299 42.0953 385.376 42.6779 386.369C43.2605 387.362 44.1981 387.894 44.772 387.559Z" fill="#FF2C9C"/>
<path d="M50.2876 390.818C50.8616 390.482 50.8546 389.405 50.2721 388.412C49.6895 387.419 48.7519 386.887 48.1779 387.222C47.604 387.558 47.6109 388.635 48.1935 389.628C48.7761 390.621 49.7137 391.153 50.2876 390.818Z" fill="#FF2C9C"/>
<path d="M55.774 394.04C56.348 393.704 56.341 392.627 55.7584 391.634C55.1758 390.641 54.2382 390.108 53.6643 390.444C53.0903 390.779 53.0973 391.856 53.6799 392.849C54.2625 393.842 55.2 394.375 55.774 394.04Z" fill="#D8EAF9"/>
<path d="M61.3492 397.171C61.9231 396.836 61.9162 395.759 61.3336 394.766C60.751 393.773 59.8134 393.24 59.2395 393.576C58.6655 393.911 58.6725 394.988 59.255 395.981C59.8376 396.974 60.7752 397.507 61.3492 397.171Z" fill="#D8EAF9"/>
<path d="M69.908 368.746L50.7933 357.729C49.6197 357.053 49.7668 355.873 51.1218 355.091L69.5778 344.453C70.9327 343.672 72.9823 343.587 74.1542 344.263L93.2688 355.28C94.4424 355.957 94.2953 357.137 92.9403 357.919L74.4843 368.557C73.1311 369.339 71.0816 369.423 69.908 368.746Z" fill="#160053"/>
<path d="M50.7963 357.731L50.851 357.762C50.94 357.699 51.0221 357.632 51.1247 357.574L69.5807 346.936C70.9357 346.156 72.9852 346.07 74.1571 346.747L93.217 357.731C94.2982 356.959 94.3547 355.907 93.2717 355.282L74.1571 344.265C72.9835 343.589 70.934 343.674 69.5807 344.455L51.1247 355.093C49.7698 355.873 49.6226 357.055 50.7963 357.731Z" fill="#1E08A7"/>
<path d="M72.1421 358.909C72.1216 358.838 72.0891 358.778 72.0891 358.716C72.1011 356.51 72.1165 354.303 72.1268 352.097C72.1285 351.716 72.3406 351.409 72.9531 351.224C73.9026 350.941 75.0248 351.296 75.1172 351.907C75.1292 351.984 75.1275 352.063 75.1275 352.141C75.0967 354.621 75.0642 357.101 75.0334 359.581C75.0248 360.199 74.4894 360.522 73.4252 360.551C71.2714 360.612 69.1175 360.674 66.9636 360.738C66.3203 360.757 65.8037 360.633 65.4666 360.313C64.9414 359.813 65.5094 359.133 66.5393 359.077C67.6462 359.017 68.7599 359.003 69.8702 358.971C70.6024 358.952 71.3347 358.933 72.1421 358.909Z" fill="#D8EAF9"/>
<path d="M83.0984 39.078L50.9493 57.6076C50.1058 58.0943 50.1007 58.8799 50.939 59.3615L82.8555 77.7561C83.6938 78.2394 85.0556 78.236 85.899 77.7493L118.048 59.2197C118.892 58.733 118.897 57.9474 118.058 57.4658L86.1419 39.0728C85.3053 38.5895 83.9418 38.593 83.0984 39.078Z" fill="#99C3EE"/>
<path d="M119.321 52.0146C119.321 47.7895 116.748 42.8796 113.573 41.0506L84.568 23.5986C83.1464 22.7789 81.8479 22.7208 80.8436 23.281L80.8402 23.2793L49.7158 41.3631C50.6482 41.0318 51.7842 41.1735 53.0091 41.8789L82.0138 59.3308C85.189 61.1599 87.7621 66.0698 87.7621 70.2949C87.7621 72.4655 87.0812 74.0315 85.9897 74.7949L117.087 56.7691C117.278 56.682 117.465 56.5796 117.636 56.4498C118.679 55.6659 119.321 54.1255 119.321 52.0146Z" fill="#D8EAF9"/>
<path d="M82.6518 59.0422L53.6471 41.5902C52.1878 40.75 50.8585 40.7124 49.8457 41.3221C50.7541 41.0471 51.8405 41.2043 53.0107 41.8788L82.0171 59.3308C85.1923 61.1616 87.7653 66.0698 87.7653 70.2949C87.7653 72.5782 87.0109 74.1852 85.8185 74.9008C87.3736 74.4277 88.4018 72.6738 88.4018 70.0062C88.4 65.7812 85.827 60.8712 82.6518 59.0422Z" fill="white"/>
<path d="M119.32 52.0146C119.32 49.9977 118.73 47.8271 117.77 45.9076L86.1462 64.0478C87.1453 66.0015 87.7629 68.2302 87.7629 70.2949C87.7629 72.4655 87.082 74.0315 85.9922 74.7949L117.089 56.7708C117.281 56.6838 117.467 56.5813 117.638 56.4515C118.679 55.6659 119.32 54.1255 119.32 52.0146Z" fill="#160053"/>
<path d="M87.763 70.2949C87.763 68.2285 87.1471 65.9998 86.1463 64.0478C85.101 62.007 83.6365 60.2667 82.0147 59.3308L53.01 41.8789C51.785 41.1719 50.6491 41.0301 49.7167 41.3631C48.2334 41.8908 47.2617 43.6225 47.2617 46.2184C47.2617 50.4435 49.8347 55.3534 53.01 57.1824L82.0147 74.6344C83.5578 75.5242 84.959 75.519 85.9923 74.7966C87.0838 74.0315 87.763 72.4655 87.763 70.2949Z" fill="#1E08A7"/>
<path d="M91.0518 36.7418C86.6259 34.1904 79.4235 34.2057 74.9652 36.776C70.5069 39.3462 70.4812 43.4962 74.907 46.0476C74.9806 46.0903 75.0576 46.1296 75.1329 46.1706C71.6907 43.8548 71.8943 40.3521 75.7248 38.1456C79.7451 35.8282 86.241 35.8145 90.2323 38.1149C94.1107 40.3504 94.1979 43.9487 90.5094 46.2765C90.6737 46.1911 90.8362 46.1057 90.9936 46.0134C95.4519 43.4449 95.4776 39.2933 91.0518 36.7418Z" fill="#1E08A7"/>
<path d="M90.2306 38.115C86.2393 35.8146 79.7434 35.8282 75.723 38.1457C71.8926 40.3539 71.6907 43.8566 75.1311 46.1706C75.3022 46.2851 75.4818 46.3978 75.67 46.5054C79.6613 48.8058 86.1572 48.7921 90.1775 46.4746C90.2904 46.4097 90.4016 46.3431 90.5077 46.2748C94.1962 43.9488 94.1106 40.3505 90.2306 38.115Z" fill="#160053"/>
<path d="M86.8248 39.7202C86.5408 39.8876 86.2979 39.9542 86.0122 39.9645C85.374 39.985 84.7393 40.014 84.1166 40.1096C83.1586 40.2565 82.2809 40.499 81.5059 40.8542C79.7627 41.6552 78.8046 42.6935 78.6746 43.9761C78.6678 44.0461 78.6609 44.1161 78.6506 44.1861C78.5925 44.5601 78.0844 44.83 77.4668 44.8163C76.8252 44.8009 76.365 44.5174 76.3702 44.1349C76.3787 43.5833 76.5224 43.0419 76.8218 42.5159C78.0792 40.3043 81.4255 38.8083 85.4476 38.6597C85.694 38.6512 85.9506 38.6443 86.1901 38.6717C86.6246 38.7195 86.912 38.8817 87.0318 39.1276C87.1516 39.3719 87.0421 39.587 86.8248 39.7202Z" fill="#D8EAF9"/>
<path d="M81.7766 41.7645C82.9245 41.1206 84.2966 40.7842 85.8962 40.7688C86.5377 40.762 87.0304 41.0335 87.0595 41.4007C87.0869 41.7457 86.6267 42.0514 86.004 42.077C85.4257 42.1009 84.8594 42.1436 84.3376 42.3007C83.1264 42.6679 82.4523 43.2434 82.3394 44.0307C82.3138 44.2083 82.3001 44.3825 82.0982 44.5328C81.7715 44.7753 81.277 44.8658 80.786 44.7685C80.331 44.678 80.0265 44.4201 80.0384 44.128C80.0795 43.2092 80.6612 42.422 81.7766 41.7645Z" fill="#D8EAF9"/>
<path d="M84.6003 44.7838C83.9468 44.4132 83.9468 43.7881 84.602 43.4021C85.2487 43.0213 86.3419 43.0162 86.9988 43.3919C87.654 43.7659 87.654 44.3858 86.9988 44.7735C86.3538 45.1543 85.2589 45.1578 84.6003 44.7838Z" fill="#D8EAF9"/>
<path opacity="0.63" d="M120.209 248.184C120.958 244.625 121.186 240.598 121.314 236.576C121.485 231.173 121.364 225.59 121.376 220.089L89.8391 186.963L65.6058 184.485L58.3042 183.739C58.3161 189.255 58.1947 194.698 58.3657 200.298C58.4941 204.466 58.7199 208.756 59.4709 213.18C63.3099 235.822 73.537 256.47 89.8391 275.084C97.7721 275.171 104.265 273.118 109.284 268.888C114.582 264.424 118.238 257.538 120.209 248.184Z" fill="#160053"/>
<path d="M105.171 258.212C105.92 254.653 106.148 250.626 106.276 246.604C106.447 241.201 106.326 235.618 106.338 230.117L74.8011 196.991L50.5677 194.513L43.2661 193.767C43.278 199.283 43.1566 204.726 43.3277 210.326C43.456 214.494 43.6818 218.784 44.4328 223.208C48.2718 245.85 58.4989 266.499 74.8011 285.112C82.734 285.199 89.2264 283.146 94.2459 278.916C99.5442 274.452 103.198 267.566 105.171 258.212Z" fill="#D8EAF9"/>
<path d="M113.654 225.856L82.1176 192.73L50.8957 189.537L43.2656 193.765L74.8023 196.991L106.339 230.117C106.327 235.62 106.448 241.203 106.277 246.604C106.149 250.626 105.923 254.653 105.172 258.212C103.201 267.566 99.5455 274.452 94.2489 278.914C103.591 275.408 109.713 267.129 112.489 253.951C113.239 250.392 113.466 246.365 113.594 242.343C113.764 236.942 113.642 231.359 113.654 225.856Z" fill="#1E08A7"/>
<path d="M99.382 235.547C99.3768 234.539 99.3734 233.533 99.3751 232.531L74.8013 206.717L50.2275 204.203C50.2293 205.209 50.2258 206.21 50.2207 207.213L74.8013 237.62L99.382 235.547Z" fill="#1E08A7"/>
<path d="M99.3785 243.062L74.803 245.136L50.2275 214.735C50.2395 215.524 50.2532 216.315 50.2772 217.109C50.3558 219.676 50.4842 222.301 50.8212 224.991L74.803 254.657L98.7849 252.635C99.1236 250.336 99.2502 247.858 99.3289 245.382C99.3511 244.611 99.3665 243.838 99.3785 243.062Z" fill="#1E08A7"/>
<path d="M52.8174 234.978C56.6239 249.579 64.0008 263.054 74.7993 275.384C85.5995 275.504 92.9764 270.529 96.7829 260.316L74.7993 262.171L52.8174 234.978Z" fill="#1E08A7"/>
<path opacity="0.63" d="M274.792 159.403C273.174 158.47 271.255 158.069 269.243 158.243C267.347 158.409 265.388 159.066 263.423 160.198L259.946 162.203C256.381 164.258 253.053 167.747 250.578 172.027C248.102 176.306 246.737 180.929 246.737 185.038L246.739 194.44C244.204 195.91 241.668 197.382 239.133 198.853C238.467 199.213 238.192 199.713 238.235 200.21H238.229V242.687L239.434 243.38H239.436C240.956 244.256 242.477 245.134 244 246.01C244.842 246.449 246.084 246.686 247.249 246.623C247.269 246.621 247.29 246.618 247.31 246.618C247.422 246.611 247.533 246.601 247.642 246.589C247.67 246.586 247.697 246.584 247.724 246.58C247.858 246.563 247.99 246.541 248.118 246.516C248.15 246.509 248.179 246.502 248.212 246.495C248.313 246.473 248.41 246.447 248.506 246.42C248.542 246.41 248.576 246.399 248.611 246.389C248.732 246.35 248.852 246.309 248.965 246.259C259.19 242.009 268.493 237.157 276.796 231.753V160.991C276.202 160.362 275.53 159.828 274.792 159.403ZM244.301 204.449C244.294 204.446 244.287 204.444 244.282 204.441C244.226 204.415 244.171 204.388 244.118 204.36C244.19 204.398 244.263 204.432 244.34 204.466C244.327 204.459 244.313 204.454 244.301 204.449ZM244.469 204.521C244.465 204.519 244.46 204.517 244.455 204.516C244.436 204.507 244.419 204.5 244.4 204.492C244.474 204.523 244.547 204.553 244.624 204.582C244.571 204.562 244.52 204.541 244.469 204.521ZM247.842 204.929C247.822 204.931 247.801 204.934 247.781 204.936C247.801 204.934 247.824 204.932 247.844 204.929H247.842ZM248.328 204.842C248.297 204.849 248.267 204.857 248.234 204.862C248.267 204.857 248.297 204.849 248.328 204.842C248.328 204.842 248.33 204.842 248.328 204.842ZM248.729 204.736C248.694 204.746 248.658 204.756 248.624 204.767C248.623 204.767 248.623 204.767 248.621 204.767C248.658 204.756 248.694 204.745 248.732 204.734C248.73 204.734 248.73 204.736 248.729 204.736ZM273.475 178.929C266.666 182.88 259.859 186.828 253.05 190.778V185.038C253.05 178.759 257.652 170.799 263.101 167.66L266.579 165.656C268.625 164.476 270.469 164.186 271.638 164.859C272.806 165.532 273.475 167.272 273.475 169.629V178.929Z" fill="#160053"/>
<path d="M296.882 224.061L297 182.41C297 182.465 296.997 182.521 296.99 182.576C296.988 182.594 296.985 182.611 296.981 182.63C296.976 182.666 296.971 182.7 296.962 182.734C296.945 182.811 296.921 182.888 296.892 182.963C296.885 182.98 296.878 182.997 296.872 183.015C296.843 183.085 296.808 183.153 296.771 183.219C296.766 183.228 296.762 183.237 296.757 183.245C296.714 183.317 296.663 183.389 296.608 183.457C296.594 183.474 296.582 183.489 296.569 183.505C296.511 183.573 296.449 183.641 296.379 183.704C285.529 192.491 272.39 200.113 257.231 206.415C257.118 206.463 256.998 206.505 256.877 206.545C256.843 206.555 256.807 206.565 256.772 206.575C256.677 206.603 256.577 206.628 256.478 206.65C256.447 206.657 256.417 206.666 256.384 206.671C256.256 206.697 256.124 206.719 255.991 206.736C255.963 206.739 255.936 206.741 255.909 206.744C255.799 206.758 255.688 206.767 255.575 206.773C254.391 206.849 253.122 206.611 252.265 206.165L252.146 247.817C252.988 248.256 254.23 248.491 255.395 248.428V248.43C255.416 248.428 255.436 248.425 255.457 248.425C255.568 248.418 255.679 248.408 255.789 248.396C255.816 248.392 255.844 248.391 255.871 248.387C256.004 248.37 256.136 248.348 256.264 248.322C256.297 248.316 256.326 248.309 256.358 248.302C256.459 248.28 256.557 248.254 256.653 248.227C256.689 248.216 256.723 248.206 256.757 248.196C256.879 248.157 256.998 248.116 257.111 248.066C272.27 241.764 285.409 234.143 296.259 225.356C296.329 225.291 296.391 225.224 296.449 225.156C296.463 225.141 296.476 225.124 296.488 225.108C296.543 225.04 296.594 224.968 296.637 224.897C296.642 224.888 296.646 224.879 296.651 224.871C296.69 224.804 296.723 224.736 296.752 224.666C296.759 224.649 296.766 224.632 296.772 224.615C296.801 224.54 296.825 224.463 296.843 224.386C296.844 224.381 296.846 224.377 296.846 224.374C296.853 224.343 296.856 224.312 296.861 224.282C296.865 224.265 296.868 224.246 296.87 224.229C296.878 224.172 296.882 224.116 296.882 224.061Z" fill="#160053"/>
<path d="M255.516 206.78L255.398 248.432C254.231 248.495 252.991 248.256 252.149 247.819L252.267 206.167C253.109 206.604 254.349 206.843 255.516 206.78Z" fill="#160053"/>
<path d="M250.955 205.411C250.055 204.893 249.157 204.374 248.257 203.857C247.937 203.672 247.618 203.488 247.298 203.303C246.748 202.958 246.425 202.49 246.384 202.019H246.379V244.495L247.583 245.189H247.585C249.106 246.065 250.627 246.943 252.149 247.819L252.267 206.167C251.83 205.914 251.392 205.663 250.955 205.411Z" fill="#1E08A7"/>
<path d="M295.934 180.834C294.278 179.879 292.622 178.924 290.888 177.924C289.664 177.218 287.596 177.338 286.393 177.971C273.355 185.535 260.319 193.097 247.281 200.661C246.616 201.022 246.34 201.522 246.383 202.019C246.424 202.49 246.748 202.958 247.297 203.303C247.617 203.488 247.937 203.672 248.257 203.856C249.156 204.374 250.055 204.893 250.954 205.411C251.392 205.663 251.829 205.914 252.267 206.167C253.553 206.837 255.774 207.04 257.231 206.415C272.391 200.113 285.529 192.491 296.379 183.704C297.281 182.869 297.257 181.595 295.934 180.834Z" fill="#D8EAF9"/>
<path d="M287.936 171.437V185.095C287.936 185.564 287.628 186.034 287.012 186.393C285.778 187.11 283.782 187.11 282.548 186.393C281.931 186.032 281.623 185.559 281.625 185.088V171.437C281.625 169.079 280.956 167.34 279.787 166.668C278.619 165.995 276.776 166.285 274.728 167.465L271.25 169.468C265.802 172.609 261.2 180.567 261.2 186.847V200.504C261.2 200.974 260.89 201.445 260.274 201.802C259.484 202.263 258.378 202.427 257.361 202.297C256.794 202.226 256.254 202.06 255.812 201.802C255.645 201.705 255.501 201.6 255.381 201.489C255.051 201.187 254.887 200.842 254.888 200.497L254.887 186.845C254.887 182.736 256.25 178.115 258.727 173.833C261.201 169.554 264.529 166.065 268.096 164.01L271.574 162.005C273.539 160.873 275.498 160.215 277.394 160.05C279.406 159.877 281.325 160.277 282.944 161.209C284.562 162.142 285.867 163.6 286.723 165.426C287.527 167.149 287.936 169.171 287.936 171.437Z" fill="#1E08A7"/>
<path d="M279.063 230.098C279.717 228.983 279.725 227.775 279.081 227.398C278.436 227.022 277.384 227.62 276.731 228.734C276.077 229.848 276.069 231.057 276.713 231.433C277.357 231.81 278.409 231.212 279.063 230.098Z" fill="#FF2C9C"/>
<path d="M279.063 222.664C279.717 221.55 279.725 220.342 279.081 219.965C278.436 219.588 277.384 220.186 276.731 221.3C276.077 222.415 276.069 223.623 276.713 224C277.357 224.376 278.409 223.778 279.063 222.664Z" fill="#FF2C9C"/>
<path d="M278.513 215.231C279.167 214.117 279.175 212.908 278.531 212.531C277.887 212.155 276.834 212.753 276.181 213.867C275.527 214.981 275.519 216.19 276.163 216.566C276.807 216.943 277.859 216.345 278.513 215.231Z" fill="#D8EAF9"/>
<path d="M274.841 189.905L269.238 193.135C268.662 193.468 268.658 194.004 269.231 194.334C269.805 194.663 270.735 194.662 271.312 194.329L276.915 191.099C277.491 190.766 277.495 190.23 276.921 189.9C276.348 189.571 275.418 189.572 274.841 189.905Z" fill="#160053"/>
</g>
<defs>
<filter id="filter0_d" x="0" y="0" width="307" height="422.478" filterUnits="userSpaceOnUse" color-interpolation-filters="sRGB">
<feFlood flood-opacity="0" result="BackgroundImageFix"/>
<feColorMatrix in="SourceAlpha" type="matrix" values="0 0 0 0 0 0 0 0 0 0 0 0 0 0 0 0 0 0 127 0" result="hardAlpha"/>
<feOffset dy="7"/>
<feGaussianBlur stdDeviation="5"/>
<feComposite in2="hardAlpha" operator="out"/>
<feColorMatrix type="matrix" values="0 0 0 0 0 0 0 0 0 0.0723333 0 0 0 0 0.258333 0 0 0 0.18 0"/>
<feBlend mode="normal" in2="BackgroundImageFix" result="effect1_dropShadow"/>
<feBlend mode="normal" in="SourceGraphic" in2="effect1_dropShadow" result="shape"/>
</filter>
<linearGradient id="paint0_linear" x1="16.2299" y1="139.239" x2="151.854" y2="139.239" gradientUnits="userSpaceOnUse">
<stop stop-color="#575CCE"/>
<stop offset="0.4777" stop-color="#4B5EBF"/>
<stop offset="0.515625" stop-color="#3952AA"/>
</linearGradient>
<linearGradient id="paint1_linear" x1="94.6698" y1="224.238" x2="168.295" y2="212.824" gradientUnits="userSpaceOnUse">
<stop stop-color="#3919BB"/>
<stop offset="1" stop-color="#6507FA"/>
</linearGradient>
<linearGradient id="paint2_linear" x1="94.6698" y1="224.238" x2="168.295" y2="212.824" gradientUnits="userSpaceOnUse">
<stop stop-color="#3919BB"/>
<stop offset="1" stop-color="#6507FA"/>
</linearGradient>
</defs>
</svg>
