<svg width="488" height="558" viewBox="0 0 488 558" fill="none" xmlns="http://www.w3.org/2000/svg">
<path opacity="0.1" d="M487.084 167.091V404.969C487.084 423.702 476.508 440.831 459.76 449.224L265.967 546.329C252.011 553.322 235.573 553.322 221.617 546.329L27.8246 449.224C11.0759 440.831 0.5 423.702 0.5 404.969V167.091C0.5 149.252 10.0986 132.793 25.6249 124.009L219.417 14.3654C234.541 5.80874 253.044 5.80873 268.167 14.3654L461.959 124.009C477.486 132.793 487.084 149.252 487.084 167.091Z" stroke="url(#paint0_linear)"/>
<path opacity="0.1" d="M481.166 170.252V400.899C481.166 419.633 470.59 436.761 453.841 445.154L265.966 539.294C252.01 546.288 235.572 546.288 221.616 539.294L33.7407 445.154C16.9919 436.761 6.41602 419.633 6.41602 400.899V170.252C6.41602 152.413 16.0147 135.954 31.5409 127.17L219.416 20.8744C234.539 12.3177 253.042 12.3177 268.166 20.8744L456.041 127.17C471.567 135.954 481.166 152.413 481.166 170.252Z" stroke="url(#paint1_linear)"/>
<path opacity="0.1" d="M475.248 174.005V397.421C475.248 416.155 464.672 433.283 447.923 441.676L265.966 532.851C252.009 539.845 235.572 539.845 221.615 532.851L39.6577 441.676C22.9089 433.283 12.333 416.155 12.333 397.421V174.005C12.333 156.166 21.9316 139.707 37.4579 130.922L219.415 27.9749C234.539 19.4183 253.042 19.4183 268.166 27.9749L450.123 130.922C465.65 139.707 475.248 156.166 475.248 174.005Z" stroke="url(#paint2_linear)"/>
<path opacity="0.1" d="M469.331 177.166V393.351C469.331 412.085 458.755 429.214 442.006 437.606L265.966 525.817C252.009 532.81 235.572 532.81 221.615 525.817L45.5747 437.606C28.8259 429.214 18.25 412.085 18.25 393.351V177.166C18.25 159.327 27.8486 142.868 43.3749 134.084L219.415 34.4841C234.539 25.9275 253.042 25.9275 268.165 34.4841L444.206 134.084C459.732 142.868 469.331 159.327 469.331 177.166Z" stroke="url(#paint3_linear)"/>
<path opacity="0.1" d="M463.414 180.919V389.873C463.414 408.607 452.838 425.736 436.089 434.128L265.966 519.374C252.01 526.367 235.572 526.367 221.616 519.374L51.4927 434.128C34.7439 425.736 24.168 408.607 24.168 389.873V180.919C24.168 163.08 33.7666 146.621 49.2929 137.837L219.416 41.5849C234.54 33.0283 253.042 33.0283 268.166 41.5849L438.289 137.837C453.815 146.621 463.414 163.08 463.414 180.919Z" stroke="url(#paint4_linear)"/>
<path opacity="0.1" d="M451.581 187.833V382.326C451.581 401.06 441.005 418.188 424.256 426.581L265.968 505.896C252.011 512.89 235.574 512.89 221.617 505.896L63.3286 426.581C46.5798 418.188 36.0039 401.06 36.0039 382.326V187.833C36.0039 169.994 45.6025 153.535 61.1288 144.751L219.417 55.1947C234.541 46.638 253.044 46.638 268.167 55.1947L426.456 144.751C441.982 153.535 451.581 169.994 451.581 187.833Z" stroke="url(#paint5_linear)"/>
<path opacity="0.1" d="M457.497 184.08V385.804C457.497 404.538 446.922 421.666 430.173 430.059L265.967 512.339C252.01 519.332 235.573 519.332 221.616 512.339L57.4106 430.059C40.6618 421.666 30.0859 404.538 30.0859 385.804V184.08C30.0859 166.241 39.6846 149.782 55.2108 140.998L219.417 48.0939C234.54 39.5373 253.043 39.5373 268.167 48.0939L432.372 140.998C447.899 149.782 457.497 166.241 457.497 184.08Z" stroke="url(#paint6_linear)"/>
<path opacity="0.1" d="M445.072 191.401V377.94C445.072 396.674 434.496 413.803 417.747 422.195L265.967 498.249C252.011 505.242 235.573 505.242 221.617 498.249L69.8374 422.195C53.0886 413.803 42.5127 396.674 42.5127 377.94V191.401C42.5127 173.562 52.1113 157.103 67.6376 148.319L219.417 62.4455C234.541 53.8888 253.044 53.8888 268.167 62.4455L419.947 148.319C435.473 157.103 445.072 173.562 445.072 191.401Z" stroke="url(#paint7_linear)"/>
<path opacity="0.1" d="M440.174 194.018V374.572C440.174 393.306 429.598 410.435 412.849 418.827L265.967 492.427C252.011 499.42 235.573 499.42 221.617 492.427L74.7348 418.827C57.986 410.435 47.4102 393.306 47.4102 374.572V194.018C47.4102 176.179 57.0088 159.72 72.535 150.935L219.417 67.8328C234.541 59.2762 253.043 59.2762 268.167 67.8328L415.049 150.935C430.575 159.72 440.174 176.179 440.174 194.018Z" stroke="url(#paint8_linear)"/>
<path opacity="0.1" d="M435.276 197.124V371.693C435.276 390.427 424.7 407.556 407.952 415.948L265.967 487.094C252.011 494.087 235.573 494.087 221.617 487.094L79.6323 415.948C62.8835 407.556 52.3076 390.427 52.3076 371.693V197.124C52.3076 179.285 61.9063 162.826 77.4325 154.041L219.417 73.7098C234.54 65.1531 253.043 65.1531 268.167 73.7098L410.151 154.041C425.678 162.826 435.276 179.285 435.276 197.124Z" stroke="url(#paint9_linear)"/>
<path opacity="0.1" d="M430.379 199.74V368.325C430.379 387.059 419.803 404.188 403.054 412.58L265.967 481.272C252.011 488.265 235.573 488.265 221.617 481.272L84.5298 412.58C67.781 404.188 57.2051 387.059 57.2051 368.325V199.74C57.2051 181.901 66.8037 165.442 82.33 156.658L219.417 79.0974C234.54 70.5408 253.043 70.5408 268.167 79.0974L405.254 156.658C420.78 165.442 430.379 181.901 430.379 199.74Z" stroke="url(#paint10_linear)"/>
<path opacity="0.1" d="M425.481 202.846V365.447C425.481 384.18 414.905 401.309 398.156 409.702L265.967 475.939C252.011 482.932 235.573 482.932 221.616 475.939L89.4272 409.702C72.6785 401.309 62.1025 384.18 62.1025 365.447V202.846C62.1025 185.007 71.7012 168.548 87.2274 159.764L219.417 84.9743C234.54 76.4177 253.043 76.4177 268.167 84.9743L400.356 159.764C415.882 168.548 425.481 185.007 425.481 202.846Z" stroke="url(#paint11_linear)"/>
<path opacity="0.1" d="M415.686 208.569V359.2C415.686 377.933 405.11 395.062 388.361 403.455L265.967 464.784C252.01 471.777 235.573 471.777 221.616 464.784L99.2222 403.455C82.4734 395.062 71.8975 377.933 71.8975 359.2V208.569C71.8975 190.73 81.4961 174.271 97.0224 165.486L219.416 96.2386C234.54 87.682 253.043 87.682 268.167 96.2387L390.561 165.486C406.087 174.271 415.686 190.73 415.686 208.569Z" stroke="url(#paint12_linear)"/>
<path opacity="0.1" d="M420.583 205.463V362.078C420.583 380.812 410.007 397.941 393.259 406.333L265.967 470.117C252.01 477.11 235.573 477.11 221.616 470.117L94.3247 406.333C77.5759 397.941 67 380.812 67 362.078V205.463C67 187.624 76.5986 171.165 92.1249 162.38L219.417 90.3617C234.54 81.8051 253.043 81.8051 268.167 90.3617L395.458 162.38C410.985 171.165 420.583 187.624 420.583 205.463Z" stroke="url(#paint13_linear)"/>
<defs>
<linearGradient id="paint0_linear" x1="243.792" y1="0" x2="243.792" y2="558" gradientUnits="userSpaceOnUse">
<stop stop-color="#0041A4"/>
<stop offset="1" stop-color="#0041A4" stop-opacity="0.7"/>
</linearGradient>
<linearGradient id="paint1_linear" x1="243.791" y1="6.50902" x2="243.791" y2="550.965" gradientUnits="userSpaceOnUse">
<stop stop-color="#0041A4"/>
<stop offset="1" stop-color="#0041A4" stop-opacity="0.7"/>
</linearGradient>
<linearGradient id="paint2_linear" x1="243.791" y1="13.6095" x2="243.791" y2="544.522" gradientUnits="userSpaceOnUse">
<stop stop-color="#0041A4"/>
<stop offset="1" stop-color="#0041A4" stop-opacity="0.7"/>
</linearGradient>
<linearGradient id="paint3_linear" x1="243.79" y1="20.1188" x2="243.79" y2="537.488" gradientUnits="userSpaceOnUse">
<stop stop-color="#0041A4"/>
<stop offset="1" stop-color="#0041A4" stop-opacity="0.7"/>
</linearGradient>
<linearGradient id="paint4_linear" x1="243.791" y1="27.2195" x2="243.791" y2="531.045" gradientUnits="userSpaceOnUse">
<stop stop-color="#0041A4"/>
<stop offset="1" stop-color="#0041A4" stop-opacity="0.7"/>
</linearGradient>
<linearGradient id="paint5_linear" x1="243.792" y1="40.8293" x2="243.792" y2="517.567" gradientUnits="userSpaceOnUse">
<stop stop-color="#0041A4"/>
<stop offset="1" stop-color="#0041A4" stop-opacity="0.7"/>
</linearGradient>
<linearGradient id="paint6_linear" x1="243.792" y1="33.7286" x2="243.792" y2="524.01" gradientUnits="userSpaceOnUse">
<stop stop-color="#0041A4"/>
<stop offset="1" stop-color="#0041A4" stop-opacity="0.7"/>
</linearGradient>
<linearGradient id="paint7_linear" x1="243.792" y1="48.0801" x2="243.792" y2="509.92" gradientUnits="userSpaceOnUse">
<stop stop-color="#0041A4"/>
<stop offset="1" stop-color="#0041A4" stop-opacity="0.7"/>
</linearGradient>
<linearGradient id="paint8_linear" x1="243.792" y1="53.4675" x2="243.792" y2="504.098" gradientUnits="userSpaceOnUse">
<stop stop-color="#0041A4"/>
<stop offset="1" stop-color="#0041A4" stop-opacity="0.7"/>
</linearGradient>
<linearGradient id="paint9_linear" x1="243.792" y1="59.3444" x2="243.792" y2="498.765" gradientUnits="userSpaceOnUse">
<stop stop-color="#0041A4"/>
<stop offset="1" stop-color="#0041A4" stop-opacity="0.7"/>
</linearGradient>
<linearGradient id="paint10_linear" x1="243.792" y1="64.732" x2="243.792" y2="492.943" gradientUnits="userSpaceOnUse">
<stop stop-color="#0041A4"/>
<stop offset="1" stop-color="#0041A4" stop-opacity="0.7"/>
</linearGradient>
<linearGradient id="paint11_linear" x1="243.792" y1="70.609" x2="243.792" y2="487.61" gradientUnits="userSpaceOnUse">
<stop stop-color="#0041A4"/>
<stop offset="1" stop-color="#0041A4" stop-opacity="0.7"/>
</linearGradient>
<linearGradient id="paint12_linear" x1="243.792" y1="81.8733" x2="243.792" y2="476.455" gradientUnits="userSpaceOnUse">
<stop stop-color="#0041A4"/>
<stop offset="1" stop-color="#0041A4" stop-opacity="0.7"/>
</linearGradient>
<linearGradient id="paint13_linear" x1="243.792" y1="75.9963" x2="243.792" y2="481.788" gradientUnits="userSpaceOnUse">
<stop stop-color="#0041A4"/>
<stop offset="1" stop-color="#0041A4" stop-opacity="0.7"/>
</linearGradient>
</defs>
</svg>
