<svg width="303" height="278" viewBox="0 0 303 278" fill="none" xmlns="http://www.w3.org/2000/svg">
<path d="M4.05899 8.09709C6.31398 8.09709 8.11797 6.29774 8.11797 4.04854C8.11797 1.79935 6.31398 0 4.05899 0C1.80399 0 0 1.79935 0 4.04854C0 6.29774 1.80399 8.09709 4.05899 8.09709Z" fill="#EFEFEF"/>
<path d="M26.6098 8.09709C28.8648 8.09709 30.6688 6.29774 30.6688 4.04854C30.6688 1.79935 28.8648 0 26.6098 0C24.3548 0 22.5508 1.79935 22.5508 4.04854C22.5508 6.29774 24.3548 8.09709 26.6098 8.09709Z" fill="#EFEFEF"/>
<path d="M49.1586 8.09709C51.4136 8.09709 53.2176 6.29774 53.2176 4.04854C53.2176 1.79935 51.4136 0 49.1586 0C46.9036 0 45.0996 1.79935 45.0996 4.04854C45.0996 6.29774 46.9036 8.09709 49.1586 8.09709Z" fill="#EFEFEF"/>
<path d="M71.7074 8.09709C73.9624 8.09709 75.7664 6.29774 75.7664 4.04854C75.7664 1.79935 73.9624 0 71.7074 0C69.4524 0 67.6484 1.79935 67.6484 4.04854C67.6484 6.29774 69.4524 8.09709 71.7074 8.09709Z" fill="#EFEFEF"/>
<path d="M94.2582 8.09709C96.5132 8.09709 98.3172 6.29774 98.3172 4.04854C98.3172 1.79935 96.5132 0 94.2582 0C92.0032 0 90.1992 1.79935 90.1992 4.04854C90.1992 6.29774 92.0032 8.09709 94.2582 8.09709Z" fill="#EFEFEF"/>
<path d="M116.809 8.09709C119.064 8.09709 120.868 6.29774 120.868 4.04854C120.868 1.79935 119.064 0 116.809 0C114.554 0 112.75 1.79935 112.75 4.04854C112.75 6.29774 114.554 8.09709 116.809 8.09709Z" fill="#EFEFEF"/>
<path d="M139.36 8.09709C141.615 8.09709 143.419 6.29774 143.419 4.04854C143.419 1.79935 141.615 0 139.36 0C137.105 0 135.301 1.79935 135.301 4.04854C135.301 6.29774 137.105 8.09709 139.36 8.09709Z" fill="#EFEFEF"/>
<path d="M4.05899 30.5889C6.31398 30.5889 8.11797 28.7896 8.11797 26.5404C8.11797 24.2912 6.31398 22.4918 4.05899 22.4918C1.80399 22.4918 0 24.2912 0 26.5404C0 28.7896 1.80399 30.5889 4.05899 30.5889Z" fill="#EFEFEF"/>
<path d="M26.6098 30.5889C28.8648 30.5889 30.6688 28.7896 30.6688 26.5404C30.6688 24.2912 28.8648 22.4918 26.6098 22.4918C24.3548 22.4918 22.5508 24.2912 22.5508 26.5404C22.5508 28.7896 24.3548 30.5889 26.6098 30.5889Z" fill="#EFEFEF"/>
<path d="M49.1586 30.5889C51.4136 30.5889 53.2176 28.7896 53.2176 26.5404C53.2176 24.2912 51.4136 22.4918 49.1586 22.4918C46.9036 22.4918 45.0996 24.2912 45.0996 26.5404C45.0996 28.7896 46.9036 30.5889 49.1586 30.5889Z" fill="#EFEFEF"/>
<path d="M71.7074 30.5889C73.9624 30.5889 75.7664 28.7896 75.7664 26.5404C75.7664 24.2912 73.9624 22.4918 71.7074 22.4918C69.4524 22.4918 67.6484 24.2912 67.6484 26.5404C67.6484 28.7896 69.4524 30.5889 71.7074 30.5889Z" fill="#EFEFEF"/>
<path d="M94.2582 30.5889C96.5132 30.5889 98.3172 28.7896 98.3172 26.5404C98.3172 24.2912 96.5132 22.4918 94.2582 22.4918C92.0032 22.4918 90.1992 24.2912 90.1992 26.5404C90.1992 28.7896 92.0032 30.5889 94.2582 30.5889Z" fill="#EFEFEF"/>
<path d="M116.809 30.5889C119.064 30.5889 120.868 28.7896 120.868 26.5404C120.868 24.2912 119.064 22.4918 116.809 22.4918C114.554 22.4918 112.75 24.2912 112.75 26.5404C112.75 28.7896 114.554 30.5889 116.809 30.5889Z" fill="#EFEFEF"/>
<path d="M139.36 30.5889C141.615 30.5889 143.419 28.7896 143.419 26.5404C143.419 24.2912 141.615 22.4918 139.36 22.4918C137.105 22.4918 135.301 24.2912 135.301 26.5404C135.301 28.7896 137.105 30.5889 139.36 30.5889Z" fill="#EFEFEF"/>
<path d="M4.05899 53.0807C6.31398 53.0807 8.11797 51.2814 8.11797 49.0322C8.11797 46.783 6.31398 44.9836 4.05899 44.9836C1.80399 44.9836 0 46.783 0 49.0322C0 51.2814 1.80399 53.0807 4.05899 53.0807Z" fill="#EFEFEF"/>
<path d="M26.6098 53.0807C28.8648 53.0807 30.6688 51.2814 30.6688 49.0322C30.6688 46.783 28.8648 44.9836 26.6098 44.9836C24.3548 44.9836 22.5508 46.783 22.5508 49.0322C22.5508 51.2814 24.3548 53.0807 26.6098 53.0807Z" fill="#EFEFEF"/>
<path d="M49.1586 53.0807C51.4136 53.0807 53.2176 51.2814 53.2176 49.0322C53.2176 46.783 51.4136 44.9836 49.1586 44.9836C46.9036 44.9836 45.0996 46.783 45.0996 49.0322C45.0996 51.2814 46.9036 53.0807 49.1586 53.0807Z" fill="#EFEFEF"/>
<path d="M71.7074 53.0807C73.9624 53.0807 75.7664 51.2814 75.7664 49.0322C75.7664 46.783 73.9624 44.9836 71.7074 44.9836C69.4524 44.9836 67.6484 46.783 67.6484 49.0322C67.6484 51.2814 69.4524 53.0807 71.7074 53.0807Z" fill="#EFEFEF"/>
<path d="M94.2582 53.0807C96.5132 53.0807 98.3172 51.2814 98.3172 49.0322C98.3172 46.783 96.5132 44.9836 94.2582 44.9836C92.0032 44.9836 90.1992 46.783 90.1992 49.0322C90.1992 51.2814 92.0032 53.0807 94.2582 53.0807Z" fill="#EFEFEF"/>
<path d="M116.809 53.0807C119.064 53.0807 120.868 51.2814 120.868 49.0322C120.868 46.783 119.064 44.9836 116.809 44.9836C114.554 44.9836 112.75 46.783 112.75 49.0322C112.75 51.2814 114.554 53.0807 116.809 53.0807Z" fill="#EFEFEF"/>
<path d="M139.36 53.0807C141.615 53.0807 143.419 51.2814 143.419 49.0322C143.419 46.783 141.615 44.9836 139.36 44.9836C137.105 44.9836 135.301 46.783 135.301 49.0322C135.301 51.2814 137.105 53.0807 139.36 53.0807Z" fill="#EFEFEF"/>
<path d="M4.05899 75.5727C6.31398 75.5727 8.11797 73.7734 8.11797 71.5242C8.11797 69.275 6.31398 67.4756 4.05899 67.4756C1.80399 67.4756 0 69.275 0 71.5242C0 73.7734 1.80399 75.5727 4.05899 75.5727Z" fill="#EFEFEF"/>
<path d="M26.6098 75.5727C28.8648 75.5727 30.6688 73.7734 30.6688 71.5242C30.6688 69.275 28.8648 67.4756 26.6098 67.4756C24.3548 67.4756 22.5508 69.275 22.5508 71.5242C22.5508 73.7734 24.3548 75.5727 26.6098 75.5727Z" fill="#EFEFEF"/>
<path d="M49.1586 75.5727C51.4136 75.5727 53.2176 73.7734 53.2176 71.5242C53.2176 69.275 51.4136 67.4756 49.1586 67.4756C46.9036 67.4756 45.0996 69.275 45.0996 71.5242C45.0996 73.7734 46.9036 75.5727 49.1586 75.5727Z" fill="#EFEFEF"/>
<path d="M71.7074 75.5727C73.9624 75.5727 75.7664 73.7734 75.7664 71.5242C75.7664 69.275 73.9624 67.4756 71.7074 67.4756C69.4524 67.4756 67.6484 69.275 67.6484 71.5242C67.6484 73.7734 69.4524 75.5727 71.7074 75.5727Z" fill="#EFEFEF"/>
<path d="M94.2582 75.5727C96.5132 75.5727 98.3172 73.7734 98.3172 71.5242C98.3172 69.275 96.5132 67.4756 94.2582 67.4756C92.0032 67.4756 90.1992 69.275 90.1992 71.5242C90.1992 73.7734 92.0032 75.5727 94.2582 75.5727Z" fill="#EFEFEF"/>
<path d="M116.809 75.5727C119.064 75.5727 120.868 73.7734 120.868 71.5242C120.868 69.275 119.064 67.4756 116.809 67.4756C114.554 67.4756 112.75 69.275 112.75 71.5242C112.75 73.7734 114.554 75.5727 116.809 75.5727Z" fill="#EFEFEF"/>
<path d="M139.36 75.5727C141.615 75.5727 143.419 73.7734 143.419 71.5242C143.419 69.275 141.615 67.4756 139.36 67.4756C137.105 67.4756 135.301 69.275 135.301 71.5242C135.301 73.7734 137.105 75.5727 139.36 75.5727Z" fill="#EFEFEF"/>
<path d="M4.05899 98.0649C6.31398 98.0649 8.11797 96.2656 8.11797 94.0164C8.11797 91.7672 6.31398 89.9678 4.05899 89.9678C1.80399 89.9678 0 91.7672 0 94.0164C0 96.2656 1.80399 98.0649 4.05899 98.0649Z" fill="#EFEFEF"/>
<path d="M26.6098 98.0649C28.8648 98.0649 30.6688 96.2656 30.6688 94.0164C30.6688 91.7672 28.8648 89.9678 26.6098 89.9678C24.3548 89.9678 22.5508 91.7672 22.5508 94.0164C22.5508 96.2656 24.3548 98.0649 26.6098 98.0649Z" fill="#EFEFEF"/>
<path d="M49.1586 98.0649C51.4136 98.0649 53.2176 96.2656 53.2176 94.0164C53.2176 91.7672 51.4136 89.9678 49.1586 89.9678C46.9036 89.9678 45.0996 91.7672 45.0996 94.0164C45.0996 96.2656 46.9036 98.0649 49.1586 98.0649Z" fill="#EFEFEF"/>
<path d="M71.7074 98.0649C73.9624 98.0649 75.7664 96.2656 75.7664 94.0164C75.7664 91.7672 73.9624 89.9678 71.7074 89.9678C69.4524 89.9678 67.6484 91.7672 67.6484 94.0164C67.6484 96.2656 69.4524 98.0649 71.7074 98.0649Z" fill="#EFEFEF"/>
<path d="M94.2582 98.0649C96.5132 98.0649 98.3172 96.2656 98.3172 94.0164C98.3172 91.7672 96.5132 89.9678 94.2582 89.9678C92.0032 89.9678 90.1992 91.7672 90.1992 94.0164C90.1992 96.2656 92.0032 98.0649 94.2582 98.0649Z" fill="#EFEFEF"/>
<path d="M116.809 98.0649C119.064 98.0649 120.868 96.2656 120.868 94.0164C120.868 91.7672 119.064 89.9678 116.809 89.9678C114.554 89.9678 112.75 91.7672 112.75 94.0164C112.75 96.2656 114.554 98.0649 116.809 98.0649Z" fill="#EFEFEF"/>
<path d="M139.36 98.0649C141.615 98.0649 143.419 96.2656 143.419 94.0164C143.419 91.7672 141.615 89.9678 139.36 89.9678C137.105 89.9678 135.301 91.7672 135.301 94.0164C135.301 96.2656 137.105 98.0649 139.36 98.0649Z" fill="#EFEFEF"/>
<path d="M4.05899 120.557C6.31398 120.557 8.11797 118.758 8.11797 116.508C8.11797 114.259 6.31398 112.46 4.05899 112.46C1.80399 112.46 0 114.259 0 116.508C0 118.758 1.80399 120.557 4.05899 120.557Z" fill="#EFEFEF"/>
<path d="M26.6098 120.557C28.8648 120.557 30.6688 118.758 30.6688 116.508C30.6688 114.259 28.8648 112.46 26.6098 112.46C24.3548 112.46 22.5508 114.259 22.5508 116.508C22.5508 118.758 24.3548 120.557 26.6098 120.557Z" fill="#EFEFEF"/>
<path d="M49.1586 120.557C51.4136 120.557 53.2176 118.758 53.2176 116.508C53.2176 114.259 51.4136 112.46 49.1586 112.46C46.9036 112.46 45.0996 114.259 45.0996 116.508C45.0996 118.758 46.9036 120.557 49.1586 120.557Z" fill="#EFEFEF"/>
<path d="M71.7074 120.557C73.9624 120.557 75.7664 118.758 75.7664 116.508C75.7664 114.259 73.9624 112.46 71.7074 112.46C69.4524 112.46 67.6484 114.259 67.6484 116.508C67.6484 118.758 69.4524 120.557 71.7074 120.557Z" fill="#EFEFEF"/>
<path d="M94.2582 120.557C96.5132 120.557 98.3172 118.758 98.3172 116.508C98.3172 114.259 96.5132 112.46 94.2582 112.46C92.0032 112.46 90.1992 114.259 90.1992 116.508C90.1992 118.758 92.0032 120.557 94.2582 120.557Z" fill="#EFEFEF"/>
<path d="M116.809 120.557C119.064 120.557 120.868 118.758 120.868 116.508C120.868 114.259 119.064 112.46 116.809 112.46C114.554 112.46 112.75 114.259 112.75 116.508C112.75 118.758 114.554 120.557 116.809 120.557Z" fill="#EFEFEF"/>
<path d="M139.36 120.557C141.615 120.557 143.419 118.758 143.419 116.508C143.419 114.259 141.615 112.46 139.36 112.46C137.105 112.46 135.301 114.259 135.301 116.508C135.301 118.758 137.105 120.557 139.36 120.557Z" fill="#EFEFEF"/>
<path d="M4.05899 143.049C6.31398 143.049 8.11797 141.249 8.11797 139C8.11797 136.751 6.31398 134.951 4.05899 134.951C1.80399 134.951 0 136.751 0 139C0 141.249 1.80399 143.049 4.05899 143.049Z" fill="#EFEFEF"/>
<path d="M26.6098 143.049C28.8648 143.049 30.6688 141.249 30.6688 139C30.6688 136.751 28.8648 134.951 26.6098 134.951C24.3548 134.951 22.5508 136.751 22.5508 139C22.5508 141.249 24.3548 143.049 26.6098 143.049Z" fill="#EFEFEF"/>
<path d="M49.1586 143.049C51.4136 143.049 53.2176 141.249 53.2176 139C53.2176 136.751 51.4136 134.951 49.1586 134.951C46.9036 134.951 45.0996 136.751 45.0996 139C45.0996 141.249 46.9036 143.049 49.1586 143.049Z" fill="#EFEFEF"/>
<path d="M71.7074 143.049C73.9624 143.049 75.7664 141.249 75.7664 139C75.7664 136.751 73.9624 134.951 71.7074 134.951C69.4524 134.951 67.6484 136.751 67.6484 139C67.6484 141.249 69.4524 143.049 71.7074 143.049Z" fill="#EFEFEF"/>
<path d="M94.2582 143.049C96.5132 143.049 98.3172 141.249 98.3172 139C98.3172 136.751 96.5132 134.951 94.2582 134.951C92.0032 134.951 90.1992 136.751 90.1992 139C90.1992 141.249 92.0032 143.049 94.2582 143.049Z" fill="#EFEFEF"/>
<path d="M116.809 143.049C119.064 143.049 120.868 141.249 120.868 139C120.868 136.751 119.064 134.951 116.809 134.951C114.554 134.951 112.75 136.751 112.75 139C112.75 141.249 114.554 143.049 116.809 143.049Z" fill="#EFEFEF"/>
<path d="M139.36 143.049C141.615 143.049 143.419 141.249 143.419 139C143.419 136.751 141.615 134.951 139.36 134.951C137.105 134.951 135.301 136.751 135.301 139C135.301 141.249 137.105 143.049 139.36 143.049Z" fill="#EFEFEF"/>
<path d="M4.05899 165.54C6.31398 165.54 8.11797 163.741 8.11797 161.492C8.11797 159.243 6.31398 157.443 4.05899 157.443C1.80399 157.443 0 159.243 0 161.492C0 163.741 1.80399 165.54 4.05899 165.54Z" fill="#EFEFEF"/>
<path d="M26.6098 165.54C28.8648 165.54 30.6688 163.741 30.6688 161.492C30.6688 159.243 28.8648 157.443 26.6098 157.443C24.3548 157.443 22.5508 159.243 22.5508 161.492C22.5508 163.741 24.3548 165.54 26.6098 165.54Z" fill="#EFEFEF"/>
<path d="M49.1586 165.54C51.4136 165.54 53.2176 163.741 53.2176 161.492C53.2176 159.243 51.4136 157.443 49.1586 157.443C46.9036 157.443 45.0996 159.243 45.0996 161.492C45.0996 163.741 46.9036 165.54 49.1586 165.54Z" fill="#EFEFEF"/>
<path d="M71.7074 165.54C73.9624 165.54 75.7664 163.741 75.7664 161.492C75.7664 159.243 73.9624 157.443 71.7074 157.443C69.4524 157.443 67.6484 159.243 67.6484 161.492C67.6484 163.741 69.4524 165.54 71.7074 165.54Z" fill="#EFEFEF"/>
<path d="M94.2582 165.54C96.5132 165.54 98.3172 163.741 98.3172 161.492C98.3172 159.243 96.5132 157.443 94.2582 157.443C92.0032 157.443 90.1992 159.243 90.1992 161.492C90.1992 163.741 92.0032 165.54 94.2582 165.54Z" fill="#EFEFEF"/>
<path d="M116.809 165.54C119.064 165.54 120.868 163.741 120.868 161.492C120.868 159.243 119.064 157.443 116.809 157.443C114.554 157.443 112.75 159.243 112.75 161.492C112.75 163.741 114.554 165.54 116.809 165.54Z" fill="#EFEFEF"/>
<path d="M139.36 165.54C141.615 165.54 143.419 163.741 143.419 161.492C143.419 159.243 141.615 157.443 139.36 157.443C137.105 157.443 135.301 159.243 135.301 161.492C135.301 163.741 137.105 165.54 139.36 165.54Z" fill="#EFEFEF"/>
<path d="M4.05899 188.032C6.31398 188.032 8.11797 186.233 8.11797 183.984C8.11797 181.735 6.31398 179.935 4.05899 179.935C1.80399 179.935 0 181.735 0 183.984C0 186.233 1.80399 188.032 4.05899 188.032Z" fill="#EFEFEF"/>
<path d="M26.6098 188.032C28.8648 188.032 30.6688 186.233 30.6688 183.984C30.6688 181.735 28.8648 179.935 26.6098 179.935C24.3548 179.935 22.5508 181.735 22.5508 183.984C22.5508 186.233 24.3548 188.032 26.6098 188.032Z" fill="#EFEFEF"/>
<path d="M49.1586 188.032C51.4136 188.032 53.2176 186.233 53.2176 183.984C53.2176 181.735 51.4136 179.935 49.1586 179.935C46.9036 179.935 45.0996 181.735 45.0996 183.984C45.0996 186.233 46.9036 188.032 49.1586 188.032Z" fill="#EFEFEF"/>
<path d="M71.7074 188.032C73.9624 188.032 75.7664 186.233 75.7664 183.984C75.7664 181.735 73.9624 179.935 71.7074 179.935C69.4524 179.935 67.6484 181.735 67.6484 183.984C67.6484 186.233 69.4524 188.032 71.7074 188.032Z" fill="#EFEFEF"/>
<path d="M94.2582 188.032C96.5132 188.032 98.3172 186.233 98.3172 183.984C98.3172 181.735 96.5132 179.935 94.2582 179.935C92.0032 179.935 90.1992 181.735 90.1992 183.984C90.1992 186.233 92.0032 188.032 94.2582 188.032Z" fill="#EFEFEF"/>
<path d="M116.809 188.032C119.064 188.032 120.868 186.233 120.868 183.984C120.868 181.735 119.064 179.935 116.809 179.935C114.554 179.935 112.75 181.735 112.75 183.984C112.75 186.233 114.554 188.032 116.809 188.032Z" fill="#EFEFEF"/>
<path d="M139.36 188.032C141.615 188.032 143.419 186.233 143.419 183.984C143.419 181.735 141.615 179.935 139.36 179.935C137.105 179.935 135.301 181.735 135.301 183.984C135.301 186.233 137.105 188.032 139.36 188.032Z" fill="#EFEFEF"/>
<path d="M4.05899 210.524C6.31398 210.524 8.11797 208.725 8.11797 206.476C8.11797 204.227 6.31398 202.427 4.05899 202.427C1.80399 202.427 0 204.227 0 206.476C0 208.725 1.80399 210.524 4.05899 210.524Z" fill="#EFEFEF"/>
<path d="M26.6098 210.524C28.8648 210.524 30.6688 208.725 30.6688 206.476C30.6688 204.227 28.8648 202.427 26.6098 202.427C24.3548 202.427 22.5508 204.227 22.5508 206.476C22.5508 208.725 24.3548 210.524 26.6098 210.524Z" fill="#EFEFEF"/>
<path d="M49.1586 210.524C51.4136 210.524 53.2176 208.725 53.2176 206.476C53.2176 204.227 51.4136 202.427 49.1586 202.427C46.9036 202.427 45.0996 204.227 45.0996 206.476C45.0996 208.725 46.9036 210.524 49.1586 210.524Z" fill="#EFEFEF"/>
<path d="M71.7074 210.524C73.9624 210.524 75.7664 208.725 75.7664 206.476C75.7664 204.227 73.9624 202.427 71.7074 202.427C69.4524 202.427 67.6484 204.227 67.6484 206.476C67.6484 208.725 69.4524 210.524 71.7074 210.524Z" fill="#EFEFEF"/>
<path d="M94.2582 210.524C96.5132 210.524 98.3172 208.725 98.3172 206.476C98.3172 204.227 96.5132 202.427 94.2582 202.427C92.0032 202.427 90.1992 204.227 90.1992 206.476C90.1992 208.725 92.0032 210.524 94.2582 210.524Z" fill="#EFEFEF"/>
<path d="M116.809 210.524C119.064 210.524 120.868 208.725 120.868 206.476C120.868 204.227 119.064 202.427 116.809 202.427C114.554 202.427 112.75 204.227 112.75 206.476C112.75 208.725 114.554 210.524 116.809 210.524Z" fill="#EFEFEF"/>
<path d="M139.36 210.524C141.615 210.524 143.419 208.725 143.419 206.476C143.419 204.227 141.615 202.427 139.36 202.427C137.105 202.427 135.301 204.227 135.301 206.476C135.301 208.725 137.105 210.524 139.36 210.524Z" fill="#EFEFEF"/>
<path d="M4.05899 233.016C6.31398 233.016 8.11797 231.217 8.11797 228.968C8.11797 226.718 6.31398 224.919 4.05899 224.919C1.80399 224.919 0 226.718 0 228.968C0 231.217 1.80399 233.016 4.05899 233.016Z" fill="#EFEFEF"/>
<path d="M26.6098 233.016C28.8648 233.016 30.6688 231.217 30.6688 228.968C30.6688 226.718 28.8648 224.919 26.6098 224.919C24.3548 224.919 22.5508 226.718 22.5508 228.968C22.5508 231.217 24.3548 233.016 26.6098 233.016Z" fill="#EFEFEF"/>
<path d="M49.1586 233.016C51.4136 233.016 53.2176 231.217 53.2176 228.968C53.2176 226.718 51.4136 224.919 49.1586 224.919C46.9036 224.919 45.0996 226.718 45.0996 228.968C45.0996 231.217 46.9036 233.016 49.1586 233.016Z" fill="#EFEFEF"/>
<path d="M71.7074 233.016C73.9624 233.016 75.7664 231.217 75.7664 228.968C75.7664 226.718 73.9624 224.919 71.7074 224.919C69.4524 224.919 67.6484 226.718 67.6484 228.968C67.6484 231.217 69.4524 233.016 71.7074 233.016Z" fill="#EFEFEF"/>
<path d="M94.2582 233.016C96.5132 233.016 98.3172 231.217 98.3172 228.968C98.3172 226.718 96.5132 224.919 94.2582 224.919C92.0032 224.919 90.1992 226.718 90.1992 228.968C90.1992 231.217 92.0032 233.016 94.2582 233.016Z" fill="#EFEFEF"/>
<path d="M116.809 233.016C119.064 233.016 120.868 231.217 120.868 228.968C120.868 226.718 119.064 224.919 116.809 224.919C114.554 224.919 112.75 226.718 112.75 228.968C112.75 231.217 114.554 233.016 116.809 233.016Z" fill="#EFEFEF"/>
<path d="M139.36 233.016C141.615 233.016 143.419 231.217 143.419 228.968C143.419 226.718 141.615 224.919 139.36 224.919C137.105 224.919 135.301 226.718 135.301 228.968C135.301 231.217 137.105 233.016 139.36 233.016Z" fill="#EFEFEF"/>
<path d="M4.05899 255.508C6.31398 255.508 8.11797 253.709 8.11797 251.459C8.11797 249.21 6.31398 247.411 4.05899 247.411C1.80399 247.411 0 249.21 0 251.459C0 253.709 1.80399 255.508 4.05899 255.508Z" fill="#EFEFEF"/>
<path d="M26.6098 255.508C28.8648 255.508 30.6688 253.709 30.6688 251.459C30.6688 249.21 28.8648 247.411 26.6098 247.411C24.3548 247.411 22.5508 249.21 22.5508 251.459C22.5508 253.709 24.3548 255.508 26.6098 255.508Z" fill="#EFEFEF"/>
<path d="M49.1586 255.508C51.4136 255.508 53.2176 253.709 53.2176 251.459C53.2176 249.21 51.4136 247.411 49.1586 247.411C46.9036 247.411 45.0996 249.21 45.0996 251.459C45.0996 253.709 46.9036 255.508 49.1586 255.508Z" fill="#EFEFEF"/>
<path d="M71.7074 255.508C73.9624 255.508 75.7664 253.709 75.7664 251.459C75.7664 249.21 73.9624 247.411 71.7074 247.411C69.4524 247.411 67.6484 249.21 67.6484 251.459C67.6484 253.709 69.4524 255.508 71.7074 255.508Z" fill="#EFEFEF"/>
<path d="M94.2582 255.508C96.5132 255.508 98.3172 253.709 98.3172 251.459C98.3172 249.21 96.5132 247.411 94.2582 247.411C92.0032 247.411 90.1992 249.21 90.1992 251.459C90.1992 253.709 92.0032 255.508 94.2582 255.508Z" fill="#EFEFEF"/>
<path d="M116.809 255.508C119.064 255.508 120.868 253.709 120.868 251.459C120.868 249.21 119.064 247.411 116.809 247.411C114.554 247.411 112.75 249.21 112.75 251.459C112.75 253.709 114.554 255.508 116.809 255.508Z" fill="#EFEFEF"/>
<path d="M139.36 255.508C141.615 255.508 143.419 253.709 143.419 251.459C143.419 249.21 141.615 247.411 139.36 247.411C137.105 247.411 135.301 249.21 135.301 251.459C135.301 253.709 137.105 255.508 139.36 255.508Z" fill="#EFEFEF"/>
<path d="M4.05899 278C6.31398 278 8.11797 276.201 8.11797 273.952C8.11797 271.702 6.31398 269.903 4.05899 269.903C1.80399 269.903 0 271.702 0 273.952C0 276.201 1.80399 278 4.05899 278Z" fill="#EFEFEF"/>
<path d="M26.6098 278C28.8648 278 30.6688 276.201 30.6688 273.952C30.6688 271.702 28.8648 269.903 26.6098 269.903C24.3548 269.903 22.5508 271.702 22.5508 273.952C22.5508 276.201 24.3548 278 26.6098 278Z" fill="#EFEFEF"/>
<path d="M49.1586 278C51.4136 278 53.2176 276.201 53.2176 273.952C53.2176 271.702 51.4136 269.903 49.1586 269.903C46.9036 269.903 45.0996 271.702 45.0996 273.952C45.0996 276.201 46.9036 278 49.1586 278Z" fill="#EFEFEF"/>
<path d="M71.7074 278C73.9624 278 75.7664 276.201 75.7664 273.952C75.7664 271.702 73.9624 269.903 71.7074 269.903C69.4524 269.903 67.6484 271.702 67.6484 273.952C67.6484 276.201 69.4524 278 71.7074 278Z" fill="#EFEFEF"/>
<path d="M94.2582 278C96.5132 278 98.3172 276.201 98.3172 273.952C98.3172 271.702 96.5132 269.903 94.2582 269.903C92.0032 269.903 90.1992 271.702 90.1992 273.952C90.1992 276.201 92.0032 278 94.2582 278Z" fill="#EFEFEF"/>
<path d="M116.809 278C119.064 278 120.868 276.201 120.868 273.952C120.868 271.702 119.064 269.903 116.809 269.903C114.554 269.903 112.75 271.702 112.75 273.952C112.75 276.201 114.554 278 116.809 278Z" fill="#EFEFEF"/>
<path d="M139.36 278C141.615 278 143.419 276.201 143.419 273.952C143.419 271.702 141.615 269.903 139.36 269.903C137.105 269.903 135.301 271.702 135.301 273.952C135.301 276.201 137.105 278 139.36 278Z" fill="#EFEFEF"/>
<path d="M163.11 8.09709C165.365 8.09709 167.169 6.29774 167.169 4.04854C167.169 1.79935 165.365 0 163.11 0C160.855 0 159.051 1.79935 159.051 4.04854C159.051 6.29774 160.855 8.09709 163.11 8.09709Z" fill="#EFEFEF"/>
<path d="M185.661 8.09709C187.916 8.09709 189.72 6.29774 189.72 4.04854C189.72 1.79935 187.916 0 185.661 0C183.406 0 181.602 1.79935 181.602 4.04854C181.602 6.29774 183.406 8.09709 185.661 8.09709Z" fill="#EFEFEF"/>
<path d="M208.208 8.09709C210.463 8.09709 212.267 6.29774 212.267 4.04854C212.267 1.79935 210.463 0 208.208 0C205.953 0 204.149 1.79935 204.149 4.04854C204.149 6.29774 205.953 8.09709 208.208 8.09709Z" fill="#EFEFEF"/>
<path d="M230.758 8.09709C233.013 8.09709 234.817 6.29774 234.817 4.04854C234.817 1.79935 233.013 0 230.758 0C228.503 0 226.699 1.79935 226.699 4.04854C226.699 6.29774 228.503 8.09709 230.758 8.09709Z" fill="#EFEFEF"/>
<path d="M253.309 8.09709C255.564 8.09709 257.368 6.29774 257.368 4.04854C257.368 1.79935 255.564 0 253.309 0C251.054 0 249.25 1.79935 249.25 4.04854C249.25 6.29774 251.054 8.09709 253.309 8.09709Z" fill="#EFEFEF"/>
<path d="M275.86 8.09709C278.115 8.09709 279.919 6.29774 279.919 4.04854C279.919 1.79935 278.115 0 275.86 0C273.605 0 271.801 1.79935 271.801 4.04854C271.801 6.29774 273.605 8.09709 275.86 8.09709Z" fill="#EFEFEF"/>
<path d="M298.411 8.09709C300.666 8.09709 302.47 6.29774 302.47 4.04854C302.47 1.79935 300.666 0 298.411 0C296.156 0 294.352 1.79935 294.352 4.04854C294.352 6.29774 296.156 8.09709 298.411 8.09709Z" fill="#EFEFEF"/>
<path d="M163.11 30.5889C165.365 30.5889 167.169 28.7896 167.169 26.5404C167.169 24.2912 165.365 22.4918 163.11 22.4918C160.855 22.4918 159.051 24.2912 159.051 26.5404C159.051 28.7896 160.855 30.5889 163.11 30.5889Z" fill="#EFEFEF"/>
<path d="M185.661 30.5889C187.916 30.5889 189.72 28.7896 189.72 26.5404C189.72 24.2912 187.916 22.4918 185.661 22.4918C183.406 22.4918 181.602 24.2912 181.602 26.5404C181.602 28.7896 183.406 30.5889 185.661 30.5889Z" fill="#EFEFEF"/>
<path d="M208.208 30.5889C210.463 30.5889 212.267 28.7896 212.267 26.5404C212.267 24.2912 210.463 22.4918 208.208 22.4918C205.953 22.4918 204.149 24.2912 204.149 26.5404C204.149 28.7896 205.953 30.5889 208.208 30.5889Z" fill="#EFEFEF"/>
<path d="M230.758 30.5889C233.013 30.5889 234.817 28.7896 234.817 26.5404C234.817 24.2912 233.013 22.4918 230.758 22.4918C228.503 22.4918 226.699 24.2912 226.699 26.5404C226.699 28.7896 228.503 30.5889 230.758 30.5889Z" fill="#EFEFEF"/>
<path d="M253.309 30.5889C255.564 30.5889 257.368 28.7896 257.368 26.5404C257.368 24.2912 255.564 22.4918 253.309 22.4918C251.054 22.4918 249.25 24.2912 249.25 26.5404C249.25 28.7896 251.054 30.5889 253.309 30.5889Z" fill="#EFEFEF"/>
<path d="M275.86 30.5889C278.115 30.5889 279.919 28.7896 279.919 26.5404C279.919 24.2912 278.115 22.4918 275.86 22.4918C273.605 22.4918 271.801 24.2912 271.801 26.5404C271.801 28.7896 273.605 30.5889 275.86 30.5889Z" fill="#EFEFEF"/>
<path d="M298.411 30.5889C300.666 30.5889 302.47 28.7896 302.47 26.5404C302.47 24.2912 300.666 22.4918 298.411 22.4918C296.156 22.4918 294.352 24.2912 294.352 26.5404C294.352 28.7896 296.156 30.5889 298.411 30.5889Z" fill="#EFEFEF"/>
<path d="M163.11 53.0807C165.365 53.0807 167.169 51.2814 167.169 49.0322C167.169 46.783 165.365 44.9836 163.11 44.9836C160.855 44.9836 159.051 46.783 159.051 49.0322C159.051 51.2814 160.855 53.0807 163.11 53.0807Z" fill="#EFEFEF"/>
<path d="M185.661 53.0807C187.916 53.0807 189.72 51.2814 189.72 49.0322C189.72 46.783 187.916 44.9836 185.661 44.9836C183.406 44.9836 181.602 46.783 181.602 49.0322C181.602 51.2814 183.406 53.0807 185.661 53.0807Z" fill="#EFEFEF"/>
<path d="M208.208 53.0807C210.463 53.0807 212.267 51.2814 212.267 49.0322C212.267 46.783 210.463 44.9836 208.208 44.9836C205.953 44.9836 204.149 46.783 204.149 49.0322C204.149 51.2814 205.953 53.0807 208.208 53.0807Z" fill="#EFEFEF"/>
<path d="M230.758 53.0807C233.013 53.0807 234.817 51.2814 234.817 49.0322C234.817 46.783 233.013 44.9836 230.758 44.9836C228.503 44.9836 226.699 46.783 226.699 49.0322C226.699 51.2814 228.503 53.0807 230.758 53.0807Z" fill="#EFEFEF"/>
<path d="M253.309 53.0807C255.564 53.0807 257.368 51.2814 257.368 49.0322C257.368 46.783 255.564 44.9836 253.309 44.9836C251.054 44.9836 249.25 46.783 249.25 49.0322C249.25 51.2814 251.054 53.0807 253.309 53.0807Z" fill="#EFEFEF"/>
<path d="M275.86 53.0807C278.115 53.0807 279.919 51.2814 279.919 49.0322C279.919 46.783 278.115 44.9836 275.86 44.9836C273.605 44.9836 271.801 46.783 271.801 49.0322C271.801 51.2814 273.605 53.0807 275.86 53.0807Z" fill="#EFEFEF"/>
<path d="M298.411 53.0807C300.666 53.0807 302.47 51.2814 302.47 49.0322C302.47 46.783 300.666 44.9836 298.411 44.9836C296.156 44.9836 294.352 46.783 294.352 49.0322C294.352 51.2814 296.156 53.0807 298.411 53.0807Z" fill="#EFEFEF"/>
<path d="M163.11 75.5727C165.365 75.5727 167.169 73.7734 167.169 71.5242C167.169 69.275 165.365 67.4756 163.11 67.4756C160.855 67.4756 159.051 69.275 159.051 71.5242C159.051 73.7734 160.855 75.5727 163.11 75.5727Z" fill="#EFEFEF"/>
<path d="M185.661 75.5727C187.916 75.5727 189.72 73.7734 189.72 71.5242C189.72 69.275 187.916 67.4756 185.661 67.4756C183.406 67.4756 181.602 69.275 181.602 71.5242C181.602 73.7734 183.406 75.5727 185.661 75.5727Z" fill="#EFEFEF"/>
<path d="M208.208 75.5727C210.463 75.5727 212.267 73.7734 212.267 71.5242C212.267 69.275 210.463 67.4756 208.208 67.4756C205.953 67.4756 204.149 69.275 204.149 71.5242C204.149 73.7734 205.953 75.5727 208.208 75.5727Z" fill="#EFEFEF"/>
<path d="M230.758 75.5727C233.013 75.5727 234.817 73.7734 234.817 71.5242C234.817 69.275 233.013 67.4756 230.758 67.4756C228.503 67.4756 226.699 69.275 226.699 71.5242C226.699 73.7734 228.503 75.5727 230.758 75.5727Z" fill="#EFEFEF"/>
<path d="M253.309 75.5727C255.564 75.5727 257.368 73.7734 257.368 71.5242C257.368 69.275 255.564 67.4756 253.309 67.4756C251.054 67.4756 249.25 69.275 249.25 71.5242C249.25 73.7734 251.054 75.5727 253.309 75.5727Z" fill="#EFEFEF"/>
<path d="M275.86 75.5727C278.115 75.5727 279.919 73.7734 279.919 71.5242C279.919 69.275 278.115 67.4756 275.86 67.4756C273.605 67.4756 271.801 69.275 271.801 71.5242C271.801 73.7734 273.605 75.5727 275.86 75.5727Z" fill="#EFEFEF"/>
<path d="M298.411 75.5727C300.666 75.5727 302.47 73.7734 302.47 71.5242C302.47 69.275 300.666 67.4756 298.411 67.4756C296.156 67.4756 294.352 69.275 294.352 71.5242C294.352 73.7734 296.156 75.5727 298.411 75.5727Z" fill="#EFEFEF"/>
<path d="M163.11 98.0649C165.365 98.0649 167.169 96.2656 167.169 94.0164C167.169 91.7672 165.365 89.9678 163.11 89.9678C160.855 89.9678 159.051 91.7672 159.051 94.0164C159.051 96.2656 160.855 98.0649 163.11 98.0649Z" fill="#EFEFEF"/>
<path d="M185.661 98.0649C187.916 98.0649 189.72 96.2656 189.72 94.0164C189.72 91.7672 187.916 89.9678 185.661 89.9678C183.406 89.9678 181.602 91.7672 181.602 94.0164C181.602 96.2656 183.406 98.0649 185.661 98.0649Z" fill="#EFEFEF"/>
<path d="M208.208 98.0649C210.463 98.0649 212.267 96.2656 212.267 94.0164C212.267 91.7672 210.463 89.9678 208.208 89.9678C205.953 89.9678 204.149 91.7672 204.149 94.0164C204.149 96.2656 205.953 98.0649 208.208 98.0649Z" fill="#EFEFEF"/>
<path d="M230.758 98.0649C233.013 98.0649 234.817 96.2656 234.817 94.0164C234.817 91.7672 233.013 89.9678 230.758 89.9678C228.503 89.9678 226.699 91.7672 226.699 94.0164C226.699 96.2656 228.503 98.0649 230.758 98.0649Z" fill="#EFEFEF"/>
<path d="M253.309 98.0649C255.564 98.0649 257.368 96.2656 257.368 94.0164C257.368 91.7672 255.564 89.9678 253.309 89.9678C251.054 89.9678 249.25 91.7672 249.25 94.0164C249.25 96.2656 251.054 98.0649 253.309 98.0649Z" fill="#EFEFEF"/>
<path d="M275.86 98.0649C278.115 98.0649 279.919 96.2656 279.919 94.0164C279.919 91.7672 278.115 89.9678 275.86 89.9678C273.605 89.9678 271.801 91.7672 271.801 94.0164C271.801 96.2656 273.605 98.0649 275.86 98.0649Z" fill="#EFEFEF"/>
<path d="M298.411 98.0649C300.666 98.0649 302.47 96.2656 302.47 94.0164C302.47 91.7672 300.666 89.9678 298.411 89.9678C296.156 89.9678 294.352 91.7672 294.352 94.0164C294.352 96.2656 296.156 98.0649 298.411 98.0649Z" fill="#EFEFEF"/>
<path d="M163.11 120.557C165.365 120.557 167.169 118.758 167.169 116.508C167.169 114.259 165.365 112.46 163.11 112.46C160.855 112.46 159.051 114.259 159.051 116.508C159.051 118.758 160.855 120.557 163.11 120.557Z" fill="#EFEFEF"/>
<path d="M185.661 120.557C187.916 120.557 189.72 118.758 189.72 116.508C189.72 114.259 187.916 112.46 185.661 112.46C183.406 112.46 181.602 114.259 181.602 116.508C181.602 118.758 183.406 120.557 185.661 120.557Z" fill="#EFEFEF"/>
<path d="M208.208 120.557C210.463 120.557 212.267 118.758 212.267 116.508C212.267 114.259 210.463 112.46 208.208 112.46C205.953 112.46 204.149 114.259 204.149 116.508C204.149 118.758 205.953 120.557 208.208 120.557Z" fill="#EFEFEF"/>
<path d="M230.758 120.557C233.013 120.557 234.817 118.758 234.817 116.508C234.817 114.259 233.013 112.46 230.758 112.46C228.503 112.46 226.699 114.259 226.699 116.508C226.699 118.758 228.503 120.557 230.758 120.557Z" fill="#EFEFEF"/>
<path d="M253.309 120.557C255.564 120.557 257.368 118.758 257.368 116.508C257.368 114.259 255.564 112.46 253.309 112.46C251.054 112.46 249.25 114.259 249.25 116.508C249.25 118.758 251.054 120.557 253.309 120.557Z" fill="#EFEFEF"/>
<path d="M275.86 120.557C278.115 120.557 279.919 118.758 279.919 116.508C279.919 114.259 278.115 112.46 275.86 112.46C273.605 112.46 271.801 114.259 271.801 116.508C271.801 118.758 273.605 120.557 275.86 120.557Z" fill="#EFEFEF"/>
<path d="M298.411 120.557C300.666 120.557 302.47 118.758 302.47 116.508C302.47 114.259 300.666 112.46 298.411 112.46C296.156 112.46 294.352 114.259 294.352 116.508C294.352 118.758 296.156 120.557 298.411 120.557Z" fill="#EFEFEF"/>
<path d="M163.11 143.049C165.365 143.049 167.169 141.249 167.169 139C167.169 136.751 165.365 134.951 163.11 134.951C160.855 134.951 159.051 136.751 159.051 139C159.051 141.249 160.855 143.049 163.11 143.049Z" fill="#EFEFEF"/>
<path d="M185.661 143.049C187.916 143.049 189.72 141.249 189.72 139C189.72 136.751 187.916 134.951 185.661 134.951C183.406 134.951 181.602 136.751 181.602 139C181.602 141.249 183.406 143.049 185.661 143.049Z" fill="#EFEFEF"/>
<path d="M208.208 143.049C210.463 143.049 212.267 141.249 212.267 139C212.267 136.751 210.463 134.951 208.208 134.951C205.953 134.951 204.149 136.751 204.149 139C204.149 141.249 205.953 143.049 208.208 143.049Z" fill="#EFEFEF"/>
<path d="M230.758 143.049C233.013 143.049 234.817 141.249 234.817 139C234.817 136.751 233.013 134.951 230.758 134.951C228.503 134.951 226.699 136.751 226.699 139C226.699 141.249 228.503 143.049 230.758 143.049Z" fill="#EFEFEF"/>
<path d="M253.309 143.049C255.564 143.049 257.368 141.249 257.368 139C257.368 136.751 255.564 134.951 253.309 134.951C251.054 134.951 249.25 136.751 249.25 139C249.25 141.249 251.054 143.049 253.309 143.049Z" fill="#EFEFEF"/>
<path d="M275.86 143.049C278.115 143.049 279.919 141.249 279.919 139C279.919 136.751 278.115 134.951 275.86 134.951C273.605 134.951 271.801 136.751 271.801 139C271.801 141.249 273.605 143.049 275.86 143.049Z" fill="#EFEFEF"/>
<path d="M298.411 143.049C300.666 143.049 302.47 141.249 302.47 139C302.47 136.751 300.666 134.951 298.411 134.951C296.156 134.951 294.352 136.751 294.352 139C294.352 141.249 296.156 143.049 298.411 143.049Z" fill="#EFEFEF"/>
<path d="M163.11 165.54C165.365 165.54 167.169 163.741 167.169 161.492C167.169 159.243 165.365 157.443 163.11 157.443C160.855 157.443 159.051 159.243 159.051 161.492C159.051 163.741 160.855 165.54 163.11 165.54Z" fill="#EFEFEF"/>
<path d="M185.661 165.54C187.916 165.54 189.72 163.741 189.72 161.492C189.72 159.243 187.916 157.443 185.661 157.443C183.406 157.443 181.602 159.243 181.602 161.492C181.602 163.741 183.406 165.54 185.661 165.54Z" fill="#EFEFEF"/>
<path d="M208.208 165.54C210.463 165.54 212.267 163.741 212.267 161.492C212.267 159.243 210.463 157.443 208.208 157.443C205.953 157.443 204.149 159.243 204.149 161.492C204.149 163.741 205.953 165.54 208.208 165.54Z" fill="#EFEFEF"/>
<path d="M230.758 165.54C233.013 165.54 234.817 163.741 234.817 161.492C234.817 159.243 233.013 157.443 230.758 157.443C228.503 157.443 226.699 159.243 226.699 161.492C226.699 163.741 228.503 165.54 230.758 165.54Z" fill="#EFEFEF"/>
<path d="M253.309 165.54C255.564 165.54 257.368 163.741 257.368 161.492C257.368 159.243 255.564 157.443 253.309 157.443C251.054 157.443 249.25 159.243 249.25 161.492C249.25 163.741 251.054 165.54 253.309 165.54Z" fill="#EFEFEF"/>
<path d="M275.86 165.54C278.115 165.54 279.919 163.741 279.919 161.492C279.919 159.243 278.115 157.443 275.86 157.443C273.605 157.443 271.801 159.243 271.801 161.492C271.801 163.741 273.605 165.54 275.86 165.54Z" fill="#EFEFEF"/>
<path d="M298.411 165.54C300.666 165.54 302.47 163.741 302.47 161.492C302.47 159.243 300.666 157.443 298.411 157.443C296.156 157.443 294.352 159.243 294.352 161.492C294.352 163.741 296.156 165.54 298.411 165.54Z" fill="#EFEFEF"/>
<path d="M163.11 188.032C165.365 188.032 167.169 186.233 167.169 183.984C167.169 181.735 165.365 179.935 163.11 179.935C160.855 179.935 159.051 181.735 159.051 183.984C159.051 186.233 160.855 188.032 163.11 188.032Z" fill="#EFEFEF"/>
<path d="M185.661 188.032C187.916 188.032 189.72 186.233 189.72 183.984C189.72 181.735 187.916 179.935 185.661 179.935C183.406 179.935 181.602 181.735 181.602 183.984C181.602 186.233 183.406 188.032 185.661 188.032Z" fill="#EFEFEF"/>
<path d="M208.208 188.032C210.463 188.032 212.267 186.233 212.267 183.984C212.267 181.735 210.463 179.935 208.208 179.935C205.953 179.935 204.149 181.735 204.149 183.984C204.149 186.233 205.953 188.032 208.208 188.032Z" fill="#EFEFEF"/>
<path d="M230.758 188.032C233.013 188.032 234.817 186.233 234.817 183.984C234.817 181.735 233.013 179.935 230.758 179.935C228.503 179.935 226.699 181.735 226.699 183.984C226.699 186.233 228.503 188.032 230.758 188.032Z" fill="#EFEFEF"/>
<path d="M253.309 188.032C255.564 188.032 257.368 186.233 257.368 183.984C257.368 181.735 255.564 179.935 253.309 179.935C251.054 179.935 249.25 181.735 249.25 183.984C249.25 186.233 251.054 188.032 253.309 188.032Z" fill="#EFEFEF"/>
<path d="M275.86 188.032C278.115 188.032 279.919 186.233 279.919 183.984C279.919 181.735 278.115 179.935 275.86 179.935C273.605 179.935 271.801 181.735 271.801 183.984C271.801 186.233 273.605 188.032 275.86 188.032Z" fill="#EFEFEF"/>
<path d="M298.411 188.032C300.666 188.032 302.47 186.233 302.47 183.984C302.47 181.735 300.666 179.935 298.411 179.935C296.156 179.935 294.352 181.735 294.352 183.984C294.352 186.233 296.156 188.032 298.411 188.032Z" fill="#EFEFEF"/>
<path d="M163.11 210.524C165.365 210.524 167.169 208.725 167.169 206.476C167.169 204.227 165.365 202.427 163.11 202.427C160.855 202.427 159.051 204.227 159.051 206.476C159.051 208.725 160.855 210.524 163.11 210.524Z" fill="#EFEFEF"/>
<path d="M185.661 210.524C187.916 210.524 189.72 208.725 189.72 206.476C189.72 204.227 187.916 202.427 185.661 202.427C183.406 202.427 181.602 204.227 181.602 206.476C181.602 208.725 183.406 210.524 185.661 210.524Z" fill="#EFEFEF"/>
<path d="M208.208 210.524C210.463 210.524 212.267 208.725 212.267 206.476C212.267 204.227 210.463 202.427 208.208 202.427C205.953 202.427 204.149 204.227 204.149 206.476C204.149 208.725 205.953 210.524 208.208 210.524Z" fill="#EFEFEF"/>
<path d="M230.758 210.524C233.013 210.524 234.817 208.725 234.817 206.476C234.817 204.227 233.013 202.427 230.758 202.427C228.503 202.427 226.699 204.227 226.699 206.476C226.699 208.725 228.503 210.524 230.758 210.524Z" fill="#EFEFEF"/>
<path d="M253.309 210.524C255.564 210.524 257.368 208.725 257.368 206.476C257.368 204.227 255.564 202.427 253.309 202.427C251.054 202.427 249.25 204.227 249.25 206.476C249.25 208.725 251.054 210.524 253.309 210.524Z" fill="#EFEFEF"/>
<path d="M275.86 210.524C278.115 210.524 279.919 208.725 279.919 206.476C279.919 204.227 278.115 202.427 275.86 202.427C273.605 202.427 271.801 204.227 271.801 206.476C271.801 208.725 273.605 210.524 275.86 210.524Z" fill="#EFEFEF"/>
<path d="M298.411 210.524C300.666 210.524 302.47 208.725 302.47 206.476C302.47 204.227 300.666 202.427 298.411 202.427C296.156 202.427 294.352 204.227 294.352 206.476C294.352 208.725 296.156 210.524 298.411 210.524Z" fill="#EFEFEF"/>
<path d="M163.11 233.016C165.365 233.016 167.169 231.217 167.169 228.968C167.169 226.718 165.365 224.919 163.11 224.919C160.855 224.919 159.051 226.718 159.051 228.968C159.051 231.217 160.855 233.016 163.11 233.016Z" fill="#EFEFEF"/>
<path d="M185.661 233.016C187.916 233.016 189.72 231.217 189.72 228.968C189.72 226.718 187.916 224.919 185.661 224.919C183.406 224.919 181.602 226.718 181.602 228.968C181.602 231.217 183.406 233.016 185.661 233.016Z" fill="#EFEFEF"/>
<path d="M208.208 233.016C210.463 233.016 212.267 231.217 212.267 228.968C212.267 226.718 210.463 224.919 208.208 224.919C205.953 224.919 204.149 226.718 204.149 228.968C204.149 231.217 205.953 233.016 208.208 233.016Z" fill="#EFEFEF"/>
<path d="M230.758 233.016C233.013 233.016 234.817 231.217 234.817 228.968C234.817 226.718 233.013 224.919 230.758 224.919C228.503 224.919 226.699 226.718 226.699 228.968C226.699 231.217 228.503 233.016 230.758 233.016Z" fill="#EFEFEF"/>
<path d="M253.309 233.016C255.564 233.016 257.368 231.217 257.368 228.968C257.368 226.718 255.564 224.919 253.309 224.919C251.054 224.919 249.25 226.718 249.25 228.968C249.25 231.217 251.054 233.016 253.309 233.016Z" fill="#EFEFEF"/>
<path d="M275.86 233.016C278.115 233.016 279.919 231.217 279.919 228.968C279.919 226.718 278.115 224.919 275.86 224.919C273.605 224.919 271.801 226.718 271.801 228.968C271.801 231.217 273.605 233.016 275.86 233.016Z" fill="#EFEFEF"/>
<path d="M298.411 233.016C300.666 233.016 302.47 231.217 302.47 228.968C302.47 226.718 300.666 224.919 298.411 224.919C296.156 224.919 294.352 226.718 294.352 228.968C294.352 231.217 296.156 233.016 298.411 233.016Z" fill="#EFEFEF"/>
<path d="M163.11 255.508C165.365 255.508 167.169 253.709 167.169 251.459C167.169 249.21 165.365 247.411 163.11 247.411C160.855 247.411 159.051 249.21 159.051 251.459C159.051 253.709 160.855 255.508 163.11 255.508Z" fill="#EFEFEF"/>
<path d="M185.661 255.508C187.916 255.508 189.72 253.709 189.72 251.459C189.72 249.21 187.916 247.411 185.661 247.411C183.406 247.411 181.602 249.21 181.602 251.459C181.602 253.709 183.406 255.508 185.661 255.508Z" fill="#EFEFEF"/>
<path d="M208.208 255.508C210.463 255.508 212.267 253.709 212.267 251.459C212.267 249.21 210.463 247.411 208.208 247.411C205.953 247.411 204.149 249.21 204.149 251.459C204.149 253.709 205.953 255.508 208.208 255.508Z" fill="#EFEFEF"/>
<path d="M230.758 255.508C233.013 255.508 234.817 253.709 234.817 251.459C234.817 249.21 233.013 247.411 230.758 247.411C228.503 247.411 226.699 249.21 226.699 251.459C226.699 253.709 228.503 255.508 230.758 255.508Z" fill="#EFEFEF"/>
<path d="M253.309 255.508C255.564 255.508 257.368 253.709 257.368 251.459C257.368 249.21 255.564 247.411 253.309 247.411C251.054 247.411 249.25 249.21 249.25 251.459C249.25 253.709 251.054 255.508 253.309 255.508Z" fill="#EFEFEF"/>
<path d="M275.86 255.508C278.115 255.508 279.919 253.709 279.919 251.459C279.919 249.21 278.115 247.411 275.86 247.411C273.605 247.411 271.801 249.21 271.801 251.459C271.801 253.709 273.605 255.508 275.86 255.508Z" fill="#EFEFEF"/>
<path d="M298.411 255.508C300.666 255.508 302.47 253.709 302.47 251.459C302.47 249.21 300.666 247.411 298.411 247.411C296.156 247.411 294.352 249.21 294.352 251.459C294.352 253.709 296.156 255.508 298.411 255.508Z" fill="#EFEFEF"/>
<path d="M163.11 278C165.365 278 167.169 276.201 167.169 273.952C167.169 271.702 165.365 269.903 163.11 269.903C160.855 269.903 159.051 271.702 159.051 273.952C159.051 276.201 160.855 278 163.11 278Z" fill="#EFEFEF"/>
<path d="M185.661 278C187.916 278 189.72 276.201 189.72 273.952C189.72 271.702 187.916 269.903 185.661 269.903C183.406 269.903 181.602 271.702 181.602 273.952C181.602 276.201 183.406 278 185.661 278Z" fill="#EFEFEF"/>
<path d="M208.208 278C210.463 278 212.267 276.201 212.267 273.952C212.267 271.702 210.463 269.903 208.208 269.903C205.953 269.903 204.149 271.702 204.149 273.952C204.149 276.201 205.953 278 208.208 278Z" fill="#EFEFEF"/>
<path d="M230.758 278C233.013 278 234.817 276.201 234.817 273.952C234.817 271.702 233.013 269.903 230.758 269.903C228.503 269.903 226.699 271.702 226.699 273.952C226.699 276.201 228.503 278 230.758 278Z" fill="#EFEFEF"/>
<path d="M253.309 278C255.564 278 257.368 276.201 257.368 273.952C257.368 271.702 255.564 269.903 253.309 269.903C251.054 269.903 249.25 271.702 249.25 273.952C249.25 276.201 251.054 278 253.309 278Z" fill="#EFEFEF"/>
<path d="M275.86 278C278.115 278 279.919 276.201 279.919 273.952C279.919 271.702 278.115 269.903 275.86 269.903C273.605 269.903 271.801 271.702 271.801 273.952C271.801 276.201 273.605 278 275.86 278Z" fill="#EFEFEF"/>
<path d="M298.411 278C300.666 278 302.47 276.201 302.47 273.952C302.47 271.702 300.666 269.903 298.411 269.903C296.156 269.903 294.352 271.702 294.352 273.952C294.352 276.201 296.156 278 298.411 278Z" fill="#EFEFEF"/>
</svg>
