<svg width="402" height="93" viewBox="0 0 402 93" fill="none" xmlns="http://www.w3.org/2000/svg">
<circle cx="46.5" cy="46.5" r="45" fill="white" stroke="#EEEEEE" stroke-width="3"/>
<g clip-path="url(#clip0)">
<path d="M87 33.3078V33.602C86.9481 34.1729 86.6194 34.7611 86.0138 35.2802C85.7716 35.4878 85.4948 35.6954 85.1661 35.8857L35.9273 64.3459C33.6955 65.6435 30.3045 65.7646 28.3668 64.6573L8.31488 53.0656C8.19377 53.0137 8.10727 52.9272 7.98616 52.858C7.32872 52.3736 7 51.7854 7 51.1625C7 50.2975 7.64014 49.3978 8.85121 48.7058L58.0727 20.2802C60.3045 18.9999 63.6955 18.8615 65.6332 19.9687L85.6851 31.5604C86.5156 32.0276 86.9481 32.6504 87 33.3078Z" fill="#5D7280"/>
<path d="M81.4811 36.7683L37.3981 62.2181C35.4603 63.3427 32.3289 63.3254 30.3911 62.2181L12.5538 51.9067C10.616 50.7821 10.5987 48.9828 12.5365 47.8583L56.6195 22.4084C57.0866 22.1316 57.623 21.9413 58.2112 21.7856C60.0105 21.3531 62.1731 21.5607 63.6437 22.4084L81.4811 32.7025C83.4015 33.8271 83.4015 35.6437 81.4811 36.7683Z" fill="white"/>
<path d="M81.4807 36.768L63.7991 46.9756L38.9375 32.6158L56.6192 22.4082C56.9998 22.1833 57.4323 22.0103 57.8821 21.8891C59.7333 21.3528 62.069 21.5258 63.6261 22.4255L81.4634 32.7196C83.0205 33.6192 83.332 34.9687 82.3804 36.0414C82.1555 36.3009 81.8614 36.5431 81.4807 36.768Z" fill="#69C3FA"/>
<path d="M82.3811 36.0241L57.8828 21.8891C59.734 21.3528 62.0697 21.5258 63.6268 22.4255L81.4641 32.7196C83.0212 33.602 83.3326 34.9687 82.3811 36.0241Z" fill="#D7DAFF"/>
<path d="M76.464 28.7402L70.4951 25.2973L71.464 24.7437L77.4328 28.1866L76.464 28.7402Z" fill="#3B4951"/>
<path d="M70.3048 24.6398C70.0799 24.7782 69.7166 24.7782 69.4743 24.6398C69.2494 24.5014 69.2494 24.2938 69.4743 24.1727C69.6993 24.0342 70.0626 24.0342 70.3048 24.1727C70.5297 24.2938 70.5297 24.5014 70.3048 24.6398Z" fill="#3B4951"/>
<path d="M76.4294 37.2524L65.1664 43.7576C64.3533 44.2247 63.0211 44.2247 62.208 43.7576L44.4917 33.5327C43.6785 33.0656 43.6785 32.287 44.4917 31.8199L55.7547 25.3147C56.5678 24.8476 57.9 24.8476 58.7132 25.3147L76.4294 35.5396C77.2426 36.024 77.2426 36.7853 76.4294 37.2524Z" fill="#E50000"/>
<path d="M63.9555 35.2281C62.658 35.9721 59.3016 36.6987 58.0213 35.9548C56.7237 35.2108 57.9867 33.2731 59.2843 32.5291C60.5818 31.7852 62.6753 31.7852 63.9555 32.5291C65.2358 33.2731 65.2358 34.4842 63.9555 35.2281Z" fill="#EBAB94"/>
<path d="M58.211 41.4394L48.5225 35.8339C50.5294 35.0381 53.1072 34.9169 55.2699 35.4706C56.0484 35.6609 56.7578 35.9377 57.3979 36.301C58.038 36.6644 58.5225 37.0796 58.8339 37.5294C59.8027 38.7924 59.5778 40.2803 58.211 41.4394Z" fill="#D7DAFF"/>
<path d="M58.8169 37.5466C57.8135 37.858 56.5505 37.7715 55.7027 37.2871C54.8723 36.8027 54.6993 36.076 55.2529 35.4878C56.0315 35.6781 56.7408 35.9549 57.3809 36.3182C58.0211 36.6816 58.5055 37.0968 58.8169 37.5466Z" fill="#E88E71"/>
<path d="M45.4081 40.5226L37.415 35.9032L38.851 35.0728L46.8441 39.6921L45.4081 40.5226Z" fill="#5D7280"/>
<path d="M51.3252 43.9481L46.6885 41.2665L48.1245 40.436L52.7611 43.1177L51.3252 43.9481Z" fill="#5D7280"/>
<path d="M55.5117 49.3289L34.8369 37.3912L35.6847 36.9067L56.3594 48.8445L55.5117 49.3289Z" fill="#5D7280"/>
<path d="M53.5048 50.5051L32.8301 38.5674L33.6605 38.083L54.3353 50.0207L53.5048 50.5051Z" fill="#5D7280"/>
<path d="M51.4814 51.6643L30.8066 39.7266L31.6371 39.2422L52.3118 51.1799L51.4814 51.6643Z" fill="#5D7280"/>
<path d="M40.893 47.8927L28.7822 40.9031L29.63 40.4014L41.7407 47.4083L40.893 47.8927Z" fill="#5D7280"/>
<path d="M27.8996 50.5052L21.3944 46.7508C20.6332 46.301 20.7197 45.5398 21.602 45.0207L24.5432 43.3252C25.4256 42.8235 26.7577 42.7543 27.519 43.2041L34.0242 46.9585C34.7854 47.4083 34.6989 48.1695 33.8166 48.6886L30.8754 50.3841C29.993 50.9031 28.6609 50.955 27.8996 50.5052Z" fill="#69C3FA"/>
<path d="M39.4738 57.2005L32.9686 53.4462C32.2074 52.9963 32.2939 52.2351 33.1763 51.7161L36.1174 50.0206C36.9998 49.5188 38.332 49.4496 39.0932 49.8994L45.5984 53.6538C46.3596 54.1036 46.2731 54.8648 45.3908 55.3839L42.4496 57.0794C41.5846 57.5811 40.2524 57.633 39.4738 57.2005Z" fill="#7DEA5D"/>
<path d="M29.4743 47.8755L24.8203 47.3392L28.54 45.1938L29.4743 47.8755Z" fill="white"/>
<path d="M40.9792 54.5191L36.3252 53.9827L40.0449 51.8374L40.9792 54.5191Z" fill="white"/>
<path d="M29.8549 59.0343L18.2113 52.3042C17.3116 51.7851 17.4154 50.8682 18.4708 50.2627C19.5088 49.6571 21.0832 49.5879 22.0002 50.1242L33.6438 56.8544C34.5434 57.3734 34.4396 58.2903 33.3843 58.8959C32.3462 59.5014 30.7718 59.5533 29.8549 59.0343Z" fill="#E50000"/>
<path d="M29.924 57.685L20.5469 52.2871L21.931 51.4912L31.2908 56.8891L29.924 57.685Z" fill="white"/>
<path opacity="0.5" d="M58.2108 50.1935L45.5984 57.4772L45.5811 28.7748L56.6191 22.408C57.0862 22.1312 57.6226 21.9409 58.2108 21.7852V50.1935Z" fill="white"/>
<path d="M87 33.6191V37.1659C86.9308 37.979 86.2907 38.8095 85.1661 39.4669L35.9273 67.8752C34.7855 68.5326 33.3322 68.896 31.9308 68.9479C30.5986 68.9825 29.3183 68.7402 28.3668 68.1866L8.31488 56.6122C7.44983 56.0932 7 55.4358 7 54.7091V51.1624C7 51.7679 7.32872 52.3735 7.98616 52.8406C8.08997 52.9098 8.19377 52.979 8.31488 53.0482L28.3668 64.6399C29.3183 65.1762 30.5986 65.4357 31.9308 65.4011C33.3322 65.3492 34.7855 64.9859 35.9273 64.3285L85.1488 35.9029C85.4775 35.7126 85.7543 35.505 85.9965 35.2973C86.6194 34.7783 86.9481 34.1901 87 33.6191Z" fill="#3B4951"/>
<path d="M86.9999 33.6191V37.1659C86.9307 37.979 86.2905 38.8095 85.166 39.4669L35.9272 67.8752C34.7853 68.5326 33.332 68.896 31.9307 68.9479V65.4011C33.332 65.3492 34.7853 64.9859 35.9272 64.3285L85.1486 35.9029C85.4774 35.7126 85.7542 35.505 85.9964 35.2973C86.6192 34.7783 86.948 34.1901 86.9999 33.6191Z" fill="#2C353B"/>
</g>
<circle cx="149.5" cy="46.5" r="45" fill="white" stroke="#EEEEEE" stroke-width="3"/>
<g clip-path="url(#clip1)">
<path d="M154.39 77.5999L112 53.1299V54.3999L154.39 78.8699V77.5999Z" fill="#3B4951"/>
<path d="M154.39 78.87L183.54 62.04V60.77L154.39 77.6V78.87Z" fill="#2C353B"/>
<path d="M154.39 77.5998L112 53.1298L141.15 36.2998L183.54 60.7698L154.39 77.5998Z" fill="#5D7280"/>
<path d="M139.05 39.3197L141.35 40.6497L142.5 39.9897L140.2 38.6597L139.05 39.3197Z" fill="#3B4951"/>
<path d="M142.13 41.0995L144.43 42.4295L145.58 41.7595L143.28 40.4395L142.13 41.0995Z" fill="#3B4951"/>
<path d="M145.2 42.8795L147.51 44.2095L148.66 43.5395L146.36 42.2095L145.2 42.8795Z" fill="#3B4951"/>
<path d="M151.74 45.3197L149.44 43.9897L148.28 44.6597L150.59 45.9897L151.74 45.3197Z" fill="#3B4951"/>
<path d="M154.82 47.0995L152.51 45.7695L151.36 46.4295L153.67 47.7595L154.82 47.0995Z" fill="#3B4951"/>
<path d="M157.9 48.8798L155.59 47.5498L154.44 48.2098L156.74 49.5398L157.9 48.8798Z" fill="#3B4951"/>
<path d="M157.521 49.9898L159.821 51.3198L160.981 50.6498L158.671 49.3198L157.521 49.9898Z" fill="#3B4951"/>
<path d="M160.601 51.7696L162.901 53.0996L164.051 52.4296L161.751 51.0996L160.601 51.7696Z" fill="#3B4951"/>
<path d="M163.681 53.5399L165.981 54.8699L167.131 54.2099L164.831 52.8799L163.681 53.5399Z" fill="#3B4951"/>
<path d="M166.761 55.3197L169.061 56.6497L170.211 55.9897L167.911 54.6597L166.761 55.3197Z" fill="#3B4951"/>
<path d="M169.84 57.0995L172.14 58.4295L173.29 57.7595L170.99 56.4395L169.84 57.0995Z" fill="#3B4951"/>
<path d="M176.37 59.5395L174.07 58.2095L172.92 58.8795L175.22 60.2095L176.37 59.5395Z" fill="#3B4951"/>
<path d="M177.15 59.9897L176 60.6597L178.3 61.9897L179.45 61.3197L177.15 59.9897Z" fill="#3B4951"/>
<path d="M136.17 40.9797L138.47 42.3097L140.77 40.9797L138.47 39.6597L136.17 40.9797Z" fill="#3B4951"/>
<path d="M139.25 42.7597L141.55 44.0897L143.85 42.7597L141.55 41.4297L139.25 42.7597Z" fill="#3B4951"/>
<path d="M142.33 44.5395L144.63 45.8695L146.93 44.5395L144.63 43.2095L142.33 44.5395Z" fill="#3B4951"/>
<path d="M150.01 46.3197L147.71 44.9897L145.4 46.3197L147.71 47.6497L150.01 46.3197Z" fill="#3B4951"/>
<path d="M153.09 48.0995L150.79 46.7695L148.48 48.0995L150.79 49.4295L153.09 48.0995Z" fill="#3B4951"/>
<path d="M156.171 49.8695L153.871 48.5396L151.561 49.8695L153.871 51.1996L156.171 49.8695Z" fill="#3B4951"/>
<path d="M154.641 51.6498L156.941 52.9798L159.251 51.6498L156.941 50.3198L154.641 51.6498Z" fill="#3B4951"/>
<path d="M157.721 53.4296L160.021 54.7596L162.331 53.4296L160.021 52.0996L157.721 53.4296Z" fill="#3B4951"/>
<path d="M160.8 55.2099L163.1 56.5399L165.41 55.2099L163.1 53.8799L160.8 55.2099Z" fill="#3B4951"/>
<path d="M163.88 56.9799L166.18 58.3099L168.49 56.9799L166.18 55.6499L163.88 56.9799Z" fill="#3B4951"/>
<path d="M166.96 58.7597L169.26 60.0897L171.56 58.7597L169.26 57.4297L166.96 58.7597Z" fill="#3B4951"/>
<path d="M174.64 60.5395L172.34 59.2095L170.04 60.5395L172.34 61.8695L174.64 60.5395Z" fill="#3B4951"/>
<path d="M173.12 62.3197L175.42 63.6497L177.72 62.3197L175.42 60.9897L173.12 62.3197Z" fill="#3B4951"/>
<path d="M133.29 42.6498L135.59 43.9798L137.89 42.6498L135.59 41.3198L133.29 42.6498Z" fill="#3B4951"/>
<path d="M136.37 44.4196L138.67 45.7496L140.97 44.4196L138.67 43.0996L136.37 44.4196Z" fill="#3B4951"/>
<path d="M139.45 46.1996L141.75 47.5296L144.05 46.1996L141.75 44.8696L139.45 46.1996Z" fill="#3B4951"/>
<path d="M147.13 47.9799L144.83 46.6499L142.53 47.9799L144.83 49.3099L147.13 47.9799Z" fill="#3B4951"/>
<path d="M150.211 49.7597L147.911 48.4297L145.601 49.7597L147.911 51.0897L150.211 49.7597Z" fill="#3B4951"/>
<path d="M153.291 51.5395L150.991 50.2095L148.681 51.5395L150.991 52.8695L153.291 51.5395Z" fill="#3B4951"/>
<path d="M151.761 53.3095L154.071 54.6395L156.371 53.3095L154.071 51.9795L151.761 53.3095Z" fill="#3B4951"/>
<path d="M154.84 55.0898L157.15 56.4198L159.45 55.0898L157.15 53.7598L154.84 55.0898Z" fill="#3B4951"/>
<path d="M157.92 56.8695L160.22 58.1996L162.53 56.8695L160.22 55.5396L157.92 56.8695Z" fill="#3B4951"/>
<path d="M161 58.6498L163.3 59.9798L165.61 58.6498L163.3 57.3198L161 58.6498Z" fill="#3B4951"/>
<path d="M164.08 60.4198L166.38 61.7498L168.69 60.4198L166.38 59.0898L164.08 60.4198Z" fill="#3B4951"/>
<path d="M169.46 60.8696L167.16 62.1996L169.46 63.5296L172.54 65.3096L174.84 63.9796L171.76 62.1996L169.46 60.8696Z" fill="#3B4951"/>
<path d="M130.41 44.3095L132.71 45.6395L135.01 44.3095L132.71 42.9795L130.41 44.3095Z" fill="#3B4951"/>
<path d="M133.49 46.0898L135.79 47.4198L138.09 46.0898L135.79 44.7598L133.49 46.0898Z" fill="#3B4951"/>
<path d="M136.57 47.8596L138.87 49.1895L141.17 47.8596L138.87 46.5396L136.57 47.8596Z" fill="#3B4951"/>
<path d="M144.25 49.6396L141.95 48.3096L139.65 49.6396L141.95 50.9696L144.25 49.6396Z" fill="#3B4951"/>
<path d="M147.33 51.4198L145.03 50.0898L142.73 51.4198L145.03 52.7498L147.33 51.4198Z" fill="#3B4951"/>
<path d="M150.41 53.1996L148.11 51.8696L145.8 53.1996L148.11 54.5296L150.41 53.1996Z" fill="#3B4951"/>
<path d="M148.88 54.9799L151.19 56.3099L153.49 54.9799L151.19 53.6499L148.88 54.9799Z" fill="#3B4951"/>
<path d="M151.96 56.7494L154.27 58.0794L156.57 56.7494L154.27 55.4194L151.96 56.7494Z" fill="#3B4951"/>
<path d="M155.04 58.5297L157.35 59.8597L159.65 58.5297L157.35 57.1997L155.04 58.5297Z" fill="#3B4951"/>
<path d="M158.12 60.3095L160.42 61.6395L162.73 60.3095L160.42 58.9795L158.12 60.3095Z" fill="#3B4951"/>
<path d="M161.2 62.0898L163.5 63.4198L165.81 62.0898L163.5 60.7598L161.2 62.0898Z" fill="#3B4951"/>
<path d="M164.28 63.8598L166.58 65.1898L168.89 63.8598L166.58 62.5298L164.28 63.8598Z" fill="#3B4951"/>
<path d="M167.36 65.6396L169.66 66.9696L171.96 65.6396L169.66 64.3096L167.36 65.6396Z" fill="#3B4951"/>
<path d="M127.53 45.9697L129.83 47.2996L132.14 45.9697L129.83 44.6396L127.53 45.9697Z" fill="#3B4951"/>
<path d="M130.61 47.7494L132.91 49.0794L135.21 47.7494L132.91 46.4194L130.61 47.7494Z" fill="#3B4951"/>
<path d="M133.69 49.5297L135.99 50.8597L138.29 49.5297L135.99 48.1997L133.69 49.5297Z" fill="#3B4951"/>
<path d="M147.531 54.8595L145.231 53.5295L144.451 53.0795L142.151 51.7495L139.071 49.9795L136.771 51.2995L139.851 53.0795L142.151 54.4095L142.931 54.8595L145.231 56.1895L146.001 56.6395L148.311 57.9695L150.611 56.6395L148.311 55.3095L147.531 54.8595Z" fill="#3B4951"/>
<path d="M149.08 58.4198L151.39 59.7498L153.69 58.4198L151.39 57.0898L149.08 58.4198Z" fill="#3B4951"/>
<path d="M152.16 60.1899L154.47 61.5199L156.77 60.1899L154.47 58.8599L152.16 60.1899Z" fill="#3B4951"/>
<path d="M155.24 61.9697L157.55 63.2996L159.85 61.9697L157.55 60.6396L155.24 61.9697Z" fill="#3B4951"/>
<path d="M158.32 63.7494L160.62 65.0794L162.93 63.7494L160.62 62.4194L158.32 63.7494Z" fill="#3B4951"/>
<path d="M161.4 65.5297L163.7 66.8597L166.01 65.5297L163.7 64.1997L161.4 65.5297Z" fill="#3B4951"/>
<path d="M164.48 67.2997L166.78 68.6297L169.09 67.2997L166.78 65.9697L164.48 67.2997Z" fill="#3B4951"/>
<path d="M141.06 66.82L130.68 60.83C129.81 60.33 129.92 59.46 130.92 58.88L136.27 55.79C137.27 55.21 138.78 55.15 139.65 55.65L150.03 61.64C150.9 62.14 150.79 63.01 149.79 63.59L144.44 66.68C143.44 67.25 141.93 67.32 141.06 66.82Z" fill="#3B4951"/>
<path d="M184.64 26.47L142.25 2L141.15 2.64L183.54 27.11L184.64 26.47Z" fill="#5D7280"/>
<path d="M184.64 60.1302V26.4702L183.54 27.1102V60.7702L184.64 60.1302Z" fill="#2C353B"/>
<path d="M183.54 60.7701L141.15 36.2901V2.64014L183.54 27.1101V60.7701Z" fill="#3B4951"/>
<path d="M182.65 27.5604V59.3004L142.03 35.8503V4.11035L182.65 27.5604Z" fill="white"/>
<path d="M182.65 28.8604L142.03 5.41035V4.11035L182.65 27.5604V28.8604Z" fill="#69C3FA"/>
<path d="M170.471 23.9603V46.4003L143.351 30.7403V8.30029L170.471 23.9603Z" fill="#419AE8"/>
<path d="M181.11 57.1202L171.73 51.7102V24.6802L181.11 30.1002V57.1202Z" fill="#D7DAFF"/>
<path d="M173.68 27.5699C173.68 27.9699 173.4 28.1299 173.06 27.9299C172.72 27.7299 172.44 27.2499 172.44 26.8499C172.44 26.4499 172.72 26.2899 173.06 26.4899C173.4 26.6899 173.68 27.1799 173.68 27.5699Z" fill="#3B4951"/>
<path d="M180.401 32.1697L174.271 28.6297V27.1997L180.401 30.7297V32.1697Z" fill="#3B4951"/>
<path d="M149.681 36.8799L143.351 33.2199V32.1899L149.681 35.8499V36.8799Z" fill="#3B4951"/>
<path d="M155.12 40.0201L150.98 37.6301V36.6001L155.12 38.9801V40.0201Z" fill="#3B4951"/>
<path d="M166.61 46.1303C166.61 46.5803 166.29 46.7603 165.9 46.5403C165.51 46.3103 165.19 45.7703 165.19 45.3103C165.19 44.8603 165.51 44.6803 165.9 44.9003C166.29 45.1303 166.61 45.6803 166.61 46.1303Z" fill="#D7DAFF"/>
<path d="M168.54 47.2504C168.54 47.7004 168.22 47.8804 167.83 47.6604C167.44 47.4304 167.12 46.8904 167.12 46.4304C167.12 45.9804 167.44 45.8004 167.83 46.0204C168.23 46.2504 168.54 46.8004 168.54 47.2504Z" fill="#D7DAFF"/>
<path d="M170.481 48.3705C170.481 48.8205 170.161 49.0005 169.771 48.7805C169.381 48.5505 169.061 48.0105 169.061 47.5505C169.061 47.1005 169.381 46.9205 169.771 47.1405C170.161 47.3705 170.481 47.9105 170.481 48.3705Z" fill="#D7DAFF"/>
<path d="M180.4 36.4801L172.44 31.8801V29.1001L180.4 33.7001V36.4801Z" fill="#69C3FA"/>
<path d="M180.4 36.4799V37.6699L179.33 35.8599L180.4 36.4799Z" fill="#69C3FA"/>
<path d="M180.4 43.6202L172.44 39.0202V34.4302L180.4 39.0302V43.6202Z" fill="#69C3FA"/>
<path d="M180.4 43.62V44.81L179.33 43L180.4 43.62Z" fill="#69C3FA"/>
<path d="M180.4 47.7102L174.73 44.4402V42.4102L180.4 45.6802V47.7102Z" fill="#69C3FA"/>
<path d="M180.4 47.7101V48.9101L179.33 47.1001L180.4 47.7101Z" fill="#69C3FA"/>
<path d="M158.041 34.8299V39.2099L146.021 32.2699V27.8899C146.021 26.4299 147.051 25.8399 148.321 26.5699L155.751 30.8599C157.011 31.5899 158.041 33.3699 158.041 34.8299Z" fill="#3B4951"/>
<path d="M154.66 30.2302L152.03 34.3102L149.4 27.2002L154.66 30.2302Z" fill="#D7DAFF"/>
<path d="M153.671 29.66L152.031 31.81L150.391 27.77L153.671 29.66Z" fill="#E88E71"/>
<path d="M153.15 29.8201L150.9 28.5201V24.6401L153.15 25.9401V29.8201Z" fill="#E88E71"/>
<path d="M154.66 30.23L155.31 32.4L152.03 34.31L154.66 30.23Z" fill="#5D7280"/>
<path d="M149.4 27.2002L148.74 28.6102L152.03 34.3102L149.4 27.2002Z" fill="#5D7280"/>
<path d="M154.931 24.7099C154.931 26.5599 153.631 29.3699 152.031 28.4399C150.431 27.5199 149.131 23.2099 149.131 21.3599C149.131 19.5099 150.431 18.7599 152.031 19.6899C153.631 20.6099 154.931 22.8599 154.931 24.7099Z" fill="#EBAB94"/>
<path d="M155.27 24.79C155.27 24.97 155.26 25.17 155.24 25.36C154.46 24.59 153.31 23.72 152.03 22.98C150.75 22.24 149.6 21.78 148.82 21.65C148.8 21.43 148.79 21.22 148.79 21.04C148.79 18.97 150.24 18.14 152.04 19.17C153.84 20.2 155.27 22.72 155.27 24.79Z" fill="#886D62"/>
<path d="M167.84 27.3503V35.2903L156.42 28.7003L157.83 27.9703V21.5703L167.84 27.3503Z" fill="#2200FF"/>
<path d="M166.83 29.5699L159.21 25.1699V24.4199L166.83 28.8199V29.5699Z" fill="white"/>
<path d="M166.83 31.1097L159.21 26.7097V25.9697L166.83 30.3697V31.1097Z" fill="white"/>
<path d="M163.02 30.4498L159.21 28.2498V27.5098L163.02 29.7098V30.4498Z" fill="white"/>
<path d="M168.68 44.1901L145.15 30.6001V30.0801L168.68 43.6701V44.1901Z" fill="#D7DAFF"/>
<path d="M155.41 36.5301L145.15 30.6001V30.0801L155.41 36.0101V36.5301Z" fill="#AEB2F4"/>
<path d="M155.931 36.56C155.931 36.89 155.701 37.02 155.411 36.86C155.121 36.69 154.891 36.29 154.891 35.96C154.891 35.63 155.121 35.5 155.411 35.66C155.691 35.83 155.931 36.23 155.931 36.56Z" fill="#AEB2F4"/>
<path opacity="0.4" d="M182.651 27.5599V33.7499L160.531 46.5299L145.841 38.0399L173.331 22.1699L182.651 27.5599Z" fill="white"/>
</g>
<circle cx="355.5" cy="46.5" r="45" fill="white" stroke="#EEEEEE" stroke-width="3"/>
<g clip-path="url(#clip2)">
<path d="M359.716 47.9455L364.519 75.1884L363.009 74.6413L358.206 47.3984L359.716 47.9455Z" fill="#996B3E"/>
<path d="M359.716 47.9451L360.274 47.4746L365.077 74.7175L364.519 75.188L359.716 47.9451Z" fill="#C99666"/>
<path d="M358.206 47.3982L358.764 46.9277L360.274 47.4748L359.716 47.9452L358.206 47.3982Z" fill="#C99666"/>
<path d="M354.705 46.9277L356.05 48.0875L349.672 73.35L348.326 72.1794L354.705 46.9277Z" fill="#996B3E"/>
<path d="M354.705 46.9277L355.329 46.5557L356.674 47.7263L356.051 48.0874L354.705 46.9277Z" fill="#C99666"/>
<path d="M356.05 48.0876L356.674 47.7266L350.306 72.9782L349.672 73.3502L356.05 48.0876Z" fill="#C99666"/>
<path d="M363.359 51.9276L369.574 84.444L368.217 84.0501L362.014 51.5337L363.359 51.9276Z" fill="#996B3E"/>
<path d="M363.359 51.9277L363.994 51.5557L370.197 84.083L369.574 84.4441L363.359 51.9277Z" fill="#C99666"/>
<path d="M362.014 51.5339L362.648 51.1729L363.994 51.5558L363.359 51.9278L362.014 51.5339Z" fill="#C99666"/>
<path d="M385 34.3895L339.3 8L337.823 8.85339L383.534 35.2429L385 34.3895Z" fill="#C99666"/>
<path d="M385 64.4115V34.3896L383.534 35.2321V65.2649L385 64.4115Z" fill="#7F4D31"/>
<path d="M383.534 65.2649L337.823 38.8754V8.85352L383.534 35.2321V65.2649Z" fill="#996B3E"/>
<path d="M382.145 62.9782L339.213 38.1861V11.1401L382.145 35.9213V62.9782Z" fill="white"/>
<path d="M350.482 21.1185L341.226 15.7794V13.9741L350.482 19.3133V21.1185Z" fill="#5D7280"/>
<path d="M359.748 26.4684L352.845 22.4859V20.6807L359.748 24.6632V26.4684Z" fill="#5D7280"/>
<path d="M380.077 40.7463L341.226 18.3174V17.5625L380.077 39.9914V40.7463Z" fill="#5D7280"/>
<path d="M380.077 42.6609L341.226 20.232V19.4771L380.077 41.9059V42.6609Z" fill="#5D7280"/>
<path d="M380.077 44.5754L341.226 22.1465V21.3916L380.077 43.8205V44.5754Z" fill="#5D7280"/>
<path d="M370.044 40.6918L341.226 24.0616V23.3066L370.044 39.9368V40.6918Z" fill="#5D7280"/>
<path d="M341.795 38.0331L341.226 37.7049V25.5933L341.795 25.9215V38.0331Z" fill="#D7DAFF"/>
<path d="M341.795 38.0331V37.3657L359.738 47.7268V48.3832L341.795 38.0331Z" fill="#D7DAFF"/>
<path d="M344.443 38.8974L342.747 37.9127V29.707L344.443 30.6917V38.8974Z" fill="#6159FF"/>
<path d="M347.835 40.8556L346.139 39.8709V34.4771L347.835 35.4617V40.8556Z" fill="#6159FF"/>
<path d="M351.226 42.8144L349.53 41.8297V32.0376L351.226 33.0223V42.8144Z" fill="#6159FF"/>
<path d="M354.618 44.7727L352.922 43.788V38.8975L354.618 39.8712V44.7727Z" fill="#6159FF"/>
<path d="M358.009 46.7309L356.313 45.7462V35.9541L358.009 36.9388V46.7309Z" fill="#6159FF"/>
<path d="M379.497 49.8384L364.924 41.4248V40.4292L379.497 48.8428V49.8384Z" fill="#5D7280"/>
<path d="M371.751 50.6043C371.751 51.589 371.39 52.2564 370.821 52.5518C370.296 52.8253 369.585 52.7596 368.797 52.3111C367.167 51.3701 365.843 49.0835 365.843 47.1907C365.843 45.3089 367.167 44.543 368.797 45.4839C369.092 45.659 369.388 45.8778 369.661 46.1294C370.471 46.8844 371.127 47.9456 371.477 49.0288C371.652 49.5649 371.751 50.101 371.751 50.6043Z" fill="#ED484F"/>
<path d="M371.478 49.0287L368.786 48.8974L369.65 46.1294C370.471 46.8953 371.127 47.9456 371.478 49.0287Z" fill="#F08700"/>
<path d="M371.751 50.6042C371.751 51.5889 371.39 52.2563 370.821 52.5517L368.797 48.8975L371.488 49.0288C371.652 49.5649 371.751 50.101 371.751 50.6042Z" fill="#F6D13A"/>
<path d="M378.589 54.5538C378.589 56.4357 377.265 57.2015 375.635 56.2606C374.005 55.3197 372.681 53.0331 372.681 51.1403C372.681 50.4619 372.845 49.9258 373.151 49.5648C373.676 48.9193 374.595 48.8317 375.635 49.4335C376.827 50.1228 377.856 51.5342 378.326 52.9784C378.479 53.4598 378.578 53.9521 378.589 54.4116C378.589 54.4663 378.589 54.5101 378.589 54.5538Z" fill="#ED484F"/>
<path d="M378.326 52.9891L375.635 52.8578L373.151 49.5755C373.677 48.93 374.596 48.8425 375.635 49.4442C376.828 50.1335 377.856 51.5449 378.326 52.9891Z" fill="#F08700"/>
<path d="M378.589 54.4117L375.646 52.8472L378.337 52.9785C378.479 53.4708 378.567 53.9631 378.589 54.4117Z" fill="#F6D13A"/>
<path d="M380.7 65.7463L335 39.3568L337.823 37.7266L383.534 64.1161L380.7 65.7463Z" fill="#C99666"/>
<path d="M380.7 66.8843L335 40.5057V39.3569L380.7 65.7464V66.8843Z" fill="#996B3E"/>
<path d="M380.7 65.7464L383.534 64.1162V65.2541L380.7 66.8843V65.7464Z" fill="#7F4D31"/>
</g>
<circle cx="252.5" cy="46.5" r="45" fill="white" stroke="#EEEEEE" stroke-width="3"/>
<g clip-path="url(#clip3)">
<path d="M245.129 28.6873L249.541 26.1186C252.568 24.3638 256.764 24.6054 261.406 27.2758L256.993 29.8445C252.352 27.1741 248.155 26.9198 245.129 28.6873Z" fill="#D7DAFF"/>
<path d="M273.143 66.7464L268.73 69.3151C271.719 67.573 273.575 63.8853 273.588 58.6208C273.613 48.0409 266.174 35.1594 256.98 29.8441L261.393 27.2754C270.599 32.5908 278.038 45.4722 278 56.0521C277.988 61.3166 276.131 65.0043 273.143 66.7464Z" fill="#D7DAFF"/>
<path d="M268.732 69.2991C275.229 65.5231 275.212 53.3703 268.693 42.1553C262.175 30.9402 251.624 24.9097 245.127 28.6858C238.63 32.4618 238.647 44.6146 245.165 55.8296C251.684 67.0447 262.234 73.0752 268.732 69.2991Z" fill="#AEB2F4"/>
<path d="M267.08 66.5809C272.688 63.3433 272.687 52.845 267.08 43.1322C261.472 33.4194 252.38 28.1703 246.772 31.4079C241.165 34.6454 241.165 45.1438 246.773 54.8565C252.381 64.5693 261.473 69.8184 267.08 66.5809Z" fill="white"/>
<path d="M257.476 37.3342L256.37 36.6984V33.6465L257.476 34.2823V37.3342Z" fill="#5D7280"/>
<path d="M252.224 35.592L251.258 35.6811L249.936 32.2604L250.889 32.1714L252.224 35.592Z" fill="#5D7280"/>
<path d="M248.219 37.4358L247.672 38.2115L245.37 35.3631L245.917 34.5747L248.219 37.4358Z" fill="#5D7280"/>
<path d="M246.553 42.3697V43.6413L243.908 42.1154V40.8438L246.553 42.3697Z" fill="#5D7280"/>
<path d="M247.672 49.084L248.219 50.5082L245.917 50.7117L245.37 49.3002L247.672 49.084Z" fill="#5D7280"/>
<path d="M251.258 55.7852L252.224 56.9678L250.889 58.8498L249.936 57.6672L251.258 55.7852Z" fill="#5D7280"/>
<path d="M256.37 60.6553L257.476 61.2911V64.3557L256.37 63.7199V60.6553Z" fill="#5D7280"/>
<path d="M261.635 62.4103L262.588 62.3213L263.911 65.7419L262.957 65.8182L261.635 62.4103Z" fill="#5D7280"/>
<path d="M265.64 60.5662L266.186 59.7778L268.488 62.639L267.929 63.4274L265.64 60.5662Z" fill="#5D7280"/>
<path d="M267.293 55.6198V54.3481L269.951 55.8868V57.1584L267.293 55.6198Z" fill="#5D7280"/>
<path d="M266.186 48.9055L265.64 47.4813L267.929 47.2778L268.488 48.702L266.186 48.9055Z" fill="#5D7280"/>
<path d="M262.588 42.217L261.635 41.0216L262.957 39.1396L263.911 40.3223L262.588 42.217Z" fill="#5D7280"/>
<path d="M257.336 48.2823L256.522 47.8118V38.4019L257.336 38.8851V48.2823Z" fill="#5D7280"/>
<path d="M257.997 49.7227L257.028 50.2822L261.733 58.4313L262.702 57.8718L257.997 49.7227Z" fill="#5D7280"/>
<path d="M258.532 49.9231C258.532 50.9404 257.82 51.36 256.929 50.8514C256.052 50.3427 255.327 49.0965 255.327 48.0792C255.327 47.0619 256.039 46.6423 256.929 47.151C257.807 47.6596 258.532 48.9058 258.532 49.9231Z" fill="#AEB2F4"/>
<path d="M259.257 21.9473V26.9447C259.257 27.2881 259.028 27.6314 258.57 27.8984C257.654 28.4198 256.179 28.4198 255.264 27.8984C254.806 27.6314 254.59 27.2881 254.59 26.9447V21.9473H259.257Z" fill="#888ABF"/>
<path d="M260.605 16.1235V21.8458C260.605 22.3926 260.249 22.9394 259.537 23.3463C258.1 24.1729 255.773 24.1729 254.336 23.3463C253.611 22.9267 253.268 22.3799 253.268 21.8458H253.255V16.1235H260.605Z" fill="#AEB2F4"/>
<path d="M259.524 17.6239C258.087 18.4504 255.76 18.4504 254.323 17.6239C252.886 16.7973 252.886 15.4494 254.323 14.6228C255.76 13.7963 258.087 13.7963 259.524 14.6228C260.961 15.4494 260.961 16.7973 259.524 17.6239Z" fill="#D7DAFF"/>
<path d="M271.49 31.7007L267.955 35.2358C267.713 35.4774 267.306 35.5665 266.797 35.4266C265.78 35.1468 264.737 34.1041 264.458 33.0868C264.318 32.5782 264.407 32.1712 264.661 31.9296L268.196 28.3945L271.49 31.7007Z" fill="#888ABF"/>
<path d="M276.55 28.5344L272.506 32.5782C272.125 32.9596 271.489 33.0995 270.688 32.8833C269.086 32.451 267.445 30.7979 267.013 29.2084C266.797 28.4072 266.937 27.7714 267.318 27.39V27.3772L271.362 23.3335L276.55 28.5344Z" fill="#AEB2F4"/>
<path d="M274.732 28.827C273.13 28.3947 271.49 26.7543 271.057 25.1521C270.625 23.5498 271.579 22.5961 273.181 23.0285C274.783 23.4608 276.423 25.1012 276.856 26.7034C277.288 28.3184 276.334 29.2594 274.732 28.827Z" fill="#D7DAFF"/>
<path d="M247.176 73.0412L228 61.9781V55.3657L247.176 66.4288V73.0412Z" fill="#AEB2F4"/>
<path d="M228.903 56.7773V61.5968L233.074 64.0001V59.1807L228.903 56.7773ZM232.655 63.2753L229.323 61.3552V57.5022L232.655 59.4223V63.2753Z" fill="#3B4951"/>
<path d="M232.387 60.5158L230.734 61.4695L230.277 60.6684L229.59 59.4858L230.048 59.2188L230.734 60.4014L231.93 59.7147L232.387 60.5158Z" fill="#6FD450"/>
<path d="M238.542 63.4023L233.735 60.6301V59.5747L238.542 62.3468V63.4023Z" fill="#3B4951"/>
<path d="M242.675 65.7931L239.775 64.1145V63.0591L242.675 64.7376V65.7931Z" fill="#3B4951"/>
<path d="M246.604 70.1036L233.735 62.6774V62.3086L246.604 69.7348V70.1036Z" fill="#3B4951"/>
<path d="M246.604 70.9557L233.735 63.5294V63.1606L246.604 70.5996V70.9557Z" fill="#3B4951"/>
<path d="M243.361 69.9511L233.735 64.3942V64.0254L243.361 69.5824V69.9511Z" fill="#3B4951"/>
<path d="M248.015 65.9454L228.839 54.8696L228 55.3656L247.176 66.4286L248.015 65.9454Z" fill="#D7DAFF"/>
<path d="M248.015 72.5577V65.9453L247.176 66.4285V73.0409L248.015 72.5577Z" fill="#888ABF"/>
<path d="M247.176 64.445L228 53.3819V46.7695L247.176 57.8326V64.445Z" fill="#AEB2F4"/>
<path d="M228.903 48.1938V53.0133L233.074 55.4166V50.5972L228.903 48.1938ZM232.655 54.6791L229.323 52.759V48.906L232.655 50.8261V54.6791Z" fill="#3B4951"/>
<path d="M232.387 51.9196L230.734 52.8733L230.277 52.0722L229.59 50.8896L230.048 50.6226L230.734 51.8052L231.93 51.1185L232.387 51.9196Z" fill="#6FD450"/>
<path d="M238.542 54.8061L233.735 52.0467V50.9785L238.542 53.7506V54.8061Z" fill="#3B4951"/>
<path d="M242.675 57.1969L239.775 55.5183V54.4629L242.675 56.1414V57.1969Z" fill="#3B4951"/>
<path d="M246.604 61.5074L233.735 54.0812V53.7124L246.604 61.1386V61.5074Z" fill="#3B4951"/>
<path d="M246.604 62.3722L233.735 54.9459V54.5771L246.604 62.0034V62.3722Z" fill="#3B4951"/>
<path d="M243.361 61.3549L233.735 55.798V55.4292L243.361 60.9862V61.3549Z" fill="#3B4951"/>
<path d="M248.015 57.3492L228.839 46.2861L228 46.7693L247.176 57.8324L248.015 57.3492Z" fill="#D7DAFF"/>
<path d="M248.015 63.9615V57.3491L247.176 57.8323V64.4447L248.015 63.9615Z" fill="#888ABF"/>
<path d="M247.176 55.8488L228 44.7857V38.1733L247.176 49.2491V55.8488Z" fill="#AEB2F4"/>
<path d="M228.903 39.5977V44.4171L233.074 46.8204V42.001L228.903 39.5977ZM232.655 46.0956L229.323 44.1755V40.3225L232.655 42.2426V46.0956Z" fill="#3B4951"/>
<path d="M232.387 43.3234L230.734 44.2771L230.277 43.476L229.59 42.2934L230.048 42.0264L230.734 43.209L231.93 42.5223L232.387 43.3234Z" fill="#6FD450"/>
<path d="M238.542 46.2226L233.735 43.4505V42.3823L238.542 45.1544V46.2226Z" fill="#3B4951"/>
<path d="M242.675 48.6134L239.775 46.9221V45.8667L242.675 47.5452V48.6134Z" fill="#3B4951"/>
<path d="M246.604 52.9112L233.735 45.485V45.1162L246.604 52.5425V52.9112Z" fill="#3B4951"/>
<path d="M246.604 53.776L233.735 46.3497V45.981L246.604 53.4072V53.776Z" fill="#3B4951"/>
<path d="M243.361 52.7587L233.735 47.2018V46.833L243.361 52.39V52.7587Z" fill="#3B4951"/>
<path d="M248.015 48.753L228.839 37.6899L228 38.1732L247.176 49.2489L248.015 48.753Z" fill="#D7DAFF"/>
<path d="M248.015 55.3653V48.7529L247.176 49.2489V55.8486L248.015 55.3653Z" fill="#888ABF"/>
</g>
<defs>
<clipPath id="clip0">
<rect width="80" height="59.9481" fill="white" transform="translate(7 9)"/>
</clipPath>
<clipPath id="clip1">
<rect width="72.64" height="76.87" fill="white" transform="translate(112 2)"/>
</clipPath>
<clipPath id="clip2">
<rect width="50" height="76.4442" fill="white" transform="translate(335 8)"/>
</clipPath>
<clipPath id="clip3">
<rect width="50" height="59.0412" fill="white" transform="translate(228 14)"/>
</clipPath>
</defs>
</svg>
