<svg width="280" height="258" viewBox="0 0 280 258" fill="none" xmlns="http://www.w3.org/2000/svg">
<path d="M3.7524 7.48549C5.83706 7.48549 7.50479 5.82204 7.50479 3.74274C7.50479 1.66344 5.83706 0 3.7524 0C1.66773 0 0 1.66344 0 3.74274C0 5.82204 1.66773 7.48549 3.7524 7.48549Z" fill="#EFEFEF"/>
<path d="M24.5991 7.48549C26.6837 7.48549 28.3515 5.82204 28.3515 3.74274C28.3515 1.66344 26.6837 0 24.5991 0C22.5144 0 20.8467 1.66344 20.8467 3.74274C20.8467 5.82204 22.5144 7.48549 24.5991 7.48549Z" fill="#EFEFEF"/>
<path d="M45.4458 7.48549C47.5304 7.48549 49.1981 5.82204 49.1981 3.74274C49.1981 1.66344 47.5304 0 45.4458 0C43.3611 0 41.6934 1.66344 41.6934 3.74274C41.6934 5.82204 43.3611 7.48549 45.4458 7.48549Z" fill="#EFEFEF"/>
<path d="M66.2915 7.48549C68.3761 7.48549 70.0438 5.82204 70.0438 3.74274C70.0438 1.66344 68.3761 0 66.2915 0C64.2068 0 62.5391 1.66344 62.5391 3.74274C62.5391 5.82204 64.2068 7.48549 66.2915 7.48549Z" fill="#EFEFEF"/>
<path d="M87.1391 7.48549C89.2238 7.48549 90.8915 5.82204 90.8915 3.74274C90.8915 1.66344 89.2238 0 87.1391 0C85.0544 0 83.3867 1.66344 83.3867 3.74274C83.3867 5.82204 85.0544 7.48549 87.1391 7.48549Z" fill="#EFEFEF"/>
<path d="M107.986 7.48549C110.07 7.48549 111.738 5.82204 111.738 3.74274C111.738 1.66344 110.07 0 107.986 0C105.901 0 104.233 1.66344 104.233 3.74274C104.233 5.82204 105.901 7.48549 107.986 7.48549Z" fill="#EFEFEF"/>
<path d="M128.832 7.48549C130.917 7.48549 132.585 5.82204 132.585 3.74274C132.585 1.66344 130.917 0 128.832 0C126.748 0 125.08 1.66344 125.08 3.74274C125.08 5.82204 126.748 7.48549 128.832 7.48549Z" fill="#EFEFEF"/>
<path d="M3.7524 28.2785C5.83706 28.2785 7.50479 26.615 7.50479 24.5357C7.50479 22.4564 5.83706 20.793 3.7524 20.793C1.66773 20.793 0 22.4564 0 24.5357C0 26.615 1.66773 28.2785 3.7524 28.2785Z" fill="#EFEFEF"/>
<path d="M24.5991 28.2785C26.6837 28.2785 28.3515 26.615 28.3515 24.5357C28.3515 22.4564 26.6837 20.793 24.5991 20.793C22.5144 20.793 20.8467 22.4564 20.8467 24.5357C20.8467 26.615 22.5144 28.2785 24.5991 28.2785Z" fill="#EFEFEF"/>
<path d="M45.4458 28.2785C47.5304 28.2785 49.1981 26.615 49.1981 24.5357C49.1981 22.4564 47.5304 20.793 45.4458 20.793C43.3611 20.793 41.6934 22.4564 41.6934 24.5357C41.6934 26.615 43.3611 28.2785 45.4458 28.2785Z" fill="#EFEFEF"/>
<path d="M66.2915 28.2785C68.3761 28.2785 70.0438 26.615 70.0438 24.5357C70.0438 22.4564 68.3761 20.793 66.2915 20.793C64.2068 20.793 62.5391 22.4564 62.5391 24.5357C62.5391 26.615 64.2068 28.2785 66.2915 28.2785Z" fill="#EFEFEF"/>
<path d="M87.1391 28.2785C89.2238 28.2785 90.8915 26.615 90.8915 24.5357C90.8915 22.4564 89.2238 20.793 87.1391 20.793C85.0544 20.793 83.3867 22.4564 83.3867 24.5357C83.3867 26.615 85.0544 28.2785 87.1391 28.2785Z" fill="#EFEFEF"/>
<path d="M107.986 28.2785C110.07 28.2785 111.738 26.615 111.738 24.5357C111.738 22.4564 110.07 20.793 107.986 20.793C105.901 20.793 104.233 22.4564 104.233 24.5357C104.233 26.615 105.901 28.2785 107.986 28.2785Z" fill="#EFEFEF"/>
<path d="M128.832 28.2785C130.917 28.2785 132.585 26.615 132.585 24.5357C132.585 22.4564 130.917 20.793 128.832 20.793C126.748 20.793 125.08 22.4564 125.08 24.5357C125.08 26.615 126.748 28.2785 128.832 28.2785Z" fill="#EFEFEF"/>
<path d="M3.7524 49.0712C5.83706 49.0712 7.50479 47.4077 7.50479 45.3284C7.50479 43.2491 5.83706 41.5857 3.7524 41.5857C1.66773 41.5857 0 43.2491 0 45.3284C0 47.4077 1.66773 49.0712 3.7524 49.0712Z" fill="#EFEFEF"/>
<path d="M24.5991 49.0712C26.6837 49.0712 28.3515 47.4077 28.3515 45.3284C28.3515 43.2491 26.6837 41.5857 24.5991 41.5857C22.5144 41.5857 20.8467 43.2491 20.8467 45.3284C20.8467 47.4077 22.5144 49.0712 24.5991 49.0712Z" fill="#EFEFEF"/>
<path d="M45.4458 49.0712C47.5304 49.0712 49.1981 47.4077 49.1981 45.3284C49.1981 43.2491 47.5304 41.5857 45.4458 41.5857C43.3611 41.5857 41.6934 43.2491 41.6934 45.3284C41.6934 47.4077 43.3611 49.0712 45.4458 49.0712Z" fill="#EFEFEF"/>
<path d="M66.2915 49.0712C68.3761 49.0712 70.0438 47.4077 70.0438 45.3284C70.0438 43.2491 68.3761 41.5857 66.2915 41.5857C64.2068 41.5857 62.5391 43.2491 62.5391 45.3284C62.5391 47.4077 64.2068 49.0712 66.2915 49.0712Z" fill="#EFEFEF"/>
<path d="M87.1391 49.0712C89.2238 49.0712 90.8915 47.4077 90.8915 45.3284C90.8915 43.2491 89.2238 41.5857 87.1391 41.5857C85.0544 41.5857 83.3867 43.2491 83.3867 45.3284C83.3867 47.4077 85.0544 49.0712 87.1391 49.0712Z" fill="#EFEFEF"/>
<path d="M107.986 49.0712C110.07 49.0712 111.738 47.4077 111.738 45.3284C111.738 43.2491 110.07 41.5857 107.986 41.5857C105.901 41.5857 104.233 43.2491 104.233 45.3284C104.233 47.4077 105.901 49.0712 107.986 49.0712Z" fill="#EFEFEF"/>
<path d="M128.832 49.0712C130.917 49.0712 132.585 47.4077 132.585 45.3284C132.585 43.2491 130.917 41.5857 128.832 41.5857C126.748 41.5857 125.08 43.2491 125.08 45.3284C125.08 47.4077 126.748 49.0712 128.832 49.0712Z" fill="#EFEFEF"/>
<path d="M3.7524 69.8644C5.83706 69.8644 7.50479 68.2009 7.50479 66.1216C7.50479 64.0423 5.83706 62.3789 3.7524 62.3789C1.66773 62.3789 0 64.0423 0 66.1216C0 68.2009 1.66773 69.8644 3.7524 69.8644Z" fill="#EFEFEF"/>
<path d="M24.5991 69.8644C26.6837 69.8644 28.3515 68.2009 28.3515 66.1216C28.3515 64.0423 26.6837 62.3789 24.5991 62.3789C22.5144 62.3789 20.8467 64.0423 20.8467 66.1216C20.8467 68.2009 22.5144 69.8644 24.5991 69.8644Z" fill="#EFEFEF"/>
<path d="M45.4458 69.8644C47.5304 69.8644 49.1981 68.2009 49.1981 66.1216C49.1981 64.0423 47.5304 62.3789 45.4458 62.3789C43.3611 62.3789 41.6934 64.0423 41.6934 66.1216C41.6934 68.2009 43.3611 69.8644 45.4458 69.8644Z" fill="#EFEFEF"/>
<path d="M66.2915 69.8644C68.3761 69.8644 70.0438 68.2009 70.0438 66.1216C70.0438 64.0423 68.3761 62.3789 66.2915 62.3789C64.2068 62.3789 62.5391 64.0423 62.5391 66.1216C62.5391 68.2009 64.2068 69.8644 66.2915 69.8644Z" fill="#EFEFEF"/>
<path d="M87.1391 69.8644C89.2238 69.8644 90.8915 68.2009 90.8915 66.1216C90.8915 64.0423 89.2238 62.3789 87.1391 62.3789C85.0544 62.3789 83.3867 64.0423 83.3867 66.1216C83.3867 68.2009 85.0544 69.8644 87.1391 69.8644Z" fill="#EFEFEF"/>
<path d="M107.986 69.8644C110.07 69.8644 111.738 68.2009 111.738 66.1216C111.738 64.0423 110.07 62.3789 107.986 62.3789C105.901 62.3789 104.233 64.0423 104.233 66.1216C104.233 68.2009 105.901 69.8644 107.986 69.8644Z" fill="#EFEFEF"/>
<path d="M128.832 69.8644C130.917 69.8644 132.585 68.2009 132.585 66.1216C132.585 64.0423 130.917 62.3789 128.832 62.3789C126.748 62.3789 125.08 64.0423 125.08 66.1216C125.08 68.2009 126.748 69.8644 128.832 69.8644Z" fill="#EFEFEF"/>
<path d="M3.7524 90.6576C5.83706 90.6576 7.50479 88.9941 7.50479 86.9149C7.50479 84.8356 5.83706 83.1721 3.7524 83.1721C1.66773 83.1721 0 84.8356 0 86.9149C0 88.9941 1.66773 90.6576 3.7524 90.6576Z" fill="#EFEFEF"/>
<path d="M24.5991 90.6576C26.6837 90.6576 28.3515 88.9941 28.3515 86.9149C28.3515 84.8356 26.6837 83.1721 24.5991 83.1721C22.5144 83.1721 20.8467 84.8356 20.8467 86.9149C20.8467 88.9941 22.5144 90.6576 24.5991 90.6576Z" fill="#EFEFEF"/>
<path d="M45.4458 90.6576C47.5304 90.6576 49.1981 88.9941 49.1981 86.9149C49.1981 84.8356 47.5304 83.1721 45.4458 83.1721C43.3611 83.1721 41.6934 84.8356 41.6934 86.9149C41.6934 88.9941 43.3611 90.6576 45.4458 90.6576Z" fill="#EFEFEF"/>
<path d="M66.2915 90.6576C68.3761 90.6576 70.0438 88.9941 70.0438 86.9149C70.0438 84.8356 68.3761 83.1721 66.2915 83.1721C64.2068 83.1721 62.5391 84.8356 62.5391 86.9149C62.5391 88.9941 64.2068 90.6576 66.2915 90.6576Z" fill="#EFEFEF"/>
<path d="M87.1391 90.6576C89.2238 90.6576 90.8915 88.9941 90.8915 86.9149C90.8915 84.8356 89.2238 83.1721 87.1391 83.1721C85.0544 83.1721 83.3867 84.8356 83.3867 86.9149C83.3867 88.9941 85.0544 90.6576 87.1391 90.6576Z" fill="#EFEFEF"/>
<path d="M107.986 90.6576C110.07 90.6576 111.738 88.9941 111.738 86.9149C111.738 84.8356 110.07 83.1721 107.986 83.1721C105.901 83.1721 104.233 84.8356 104.233 86.9149C104.233 88.9941 105.901 90.6576 107.986 90.6576Z" fill="#EFEFEF"/>
<path d="M128.832 90.6576C130.917 90.6576 132.585 88.9941 132.585 86.9149C132.585 84.8356 130.917 83.1721 128.832 83.1721C126.748 83.1721 125.08 84.8356 125.08 86.9149C125.08 88.9941 126.748 90.6576 128.832 90.6576Z" fill="#EFEFEF"/>
<path d="M3.7524 111.451C5.83706 111.451 7.50479 109.787 7.50479 107.708C7.50479 105.629 5.83706 103.965 3.7524 103.965C1.66773 103.965 0 105.629 0 107.708C0 109.787 1.66773 111.451 3.7524 111.451Z" fill="#EFEFEF"/>
<path d="M24.5991 111.451C26.6837 111.451 28.3515 109.787 28.3515 107.708C28.3515 105.629 26.6837 103.965 24.5991 103.965C22.5144 103.965 20.8467 105.629 20.8467 107.708C20.8467 109.787 22.5144 111.451 24.5991 111.451Z" fill="#EFEFEF"/>
<path d="M45.4458 111.451C47.5304 111.451 49.1981 109.787 49.1981 107.708C49.1981 105.629 47.5304 103.965 45.4458 103.965C43.3611 103.965 41.6934 105.629 41.6934 107.708C41.6934 109.787 43.3611 111.451 45.4458 111.451Z" fill="#EFEFEF"/>
<path d="M66.2915 111.451C68.3761 111.451 70.0438 109.787 70.0438 107.708C70.0438 105.629 68.3761 103.965 66.2915 103.965C64.2068 103.965 62.5391 105.629 62.5391 107.708C62.5391 109.787 64.2068 111.451 66.2915 111.451Z" fill="#EFEFEF"/>
<path d="M87.1391 111.451C89.2238 111.451 90.8915 109.787 90.8915 107.708C90.8915 105.629 89.2238 103.965 87.1391 103.965C85.0544 103.965 83.3867 105.629 83.3867 107.708C83.3867 109.787 85.0544 111.451 87.1391 111.451Z" fill="#EFEFEF"/>
<path d="M107.986 111.451C110.07 111.451 111.738 109.787 111.738 107.708C111.738 105.629 110.07 103.965 107.986 103.965C105.901 103.965 104.233 105.629 104.233 107.708C104.233 109.787 105.901 111.451 107.986 111.451Z" fill="#EFEFEF"/>
<path d="M128.832 111.451C130.917 111.451 132.585 109.787 132.585 107.708C132.585 105.629 130.917 103.965 128.832 103.965C126.748 103.965 125.08 105.629 125.08 107.708C125.08 109.787 126.748 111.451 128.832 111.451Z" fill="#EFEFEF"/>
<path d="M3.7524 132.244C5.83706 132.244 7.50479 130.58 7.50479 128.501C7.50479 126.422 5.83706 124.758 3.7524 124.758C1.66773 124.758 0 126.422 0 128.501C0 130.58 1.66773 132.244 3.7524 132.244Z" fill="#EFEFEF"/>
<path d="M24.5991 132.244C26.6837 132.244 28.3515 130.58 28.3515 128.501C28.3515 126.422 26.6837 124.758 24.5991 124.758C22.5144 124.758 20.8467 126.422 20.8467 128.501C20.8467 130.58 22.5144 132.244 24.5991 132.244Z" fill="#EFEFEF"/>
<path d="M45.4458 132.244C47.5304 132.244 49.1981 130.58 49.1981 128.501C49.1981 126.422 47.5304 124.758 45.4458 124.758C43.3611 124.758 41.6934 126.422 41.6934 128.501C41.6934 130.58 43.3611 132.244 45.4458 132.244Z" fill="#EFEFEF"/>
<path d="M66.2915 132.244C68.3761 132.244 70.0438 130.58 70.0438 128.501C70.0438 126.422 68.3761 124.758 66.2915 124.758C64.2068 124.758 62.5391 126.422 62.5391 128.501C62.5391 130.58 64.2068 132.244 66.2915 132.244Z" fill="#EFEFEF"/>
<path d="M87.1391 132.244C89.2238 132.244 90.8915 130.58 90.8915 128.501C90.8915 126.422 89.2238 124.758 87.1391 124.758C85.0544 124.758 83.3867 126.422 83.3867 128.501C83.3867 130.58 85.0544 132.244 87.1391 132.244Z" fill="#EFEFEF"/>
<path d="M107.986 132.244C110.07 132.244 111.738 130.58 111.738 128.501C111.738 126.422 110.07 124.758 107.986 124.758C105.901 124.758 104.233 126.422 104.233 128.501C104.233 130.58 105.901 132.244 107.986 132.244Z" fill="#EFEFEF"/>
<path d="M128.832 132.244C130.917 132.244 132.585 130.58 132.585 128.501C132.585 126.422 130.917 124.758 128.832 124.758C126.748 124.758 125.08 126.422 125.08 128.501C125.08 130.58 126.748 132.244 128.832 132.244Z" fill="#EFEFEF"/>
<path d="M3.7524 153.037C5.83706 153.037 7.50479 151.373 7.50479 149.294C7.50479 147.214 5.83706 145.551 3.7524 145.551C1.66773 145.551 0 147.214 0 149.294C0 151.373 1.66773 153.037 3.7524 153.037Z" fill="#EFEFEF"/>
<path d="M24.5991 153.037C26.6837 153.037 28.3515 151.373 28.3515 149.294C28.3515 147.214 26.6837 145.551 24.5991 145.551C22.5144 145.551 20.8467 147.214 20.8467 149.294C20.8467 151.373 22.5144 153.037 24.5991 153.037Z" fill="#EFEFEF"/>
<path d="M45.4458 153.037C47.5304 153.037 49.1981 151.373 49.1981 149.294C49.1981 147.214 47.5304 145.551 45.4458 145.551C43.3611 145.551 41.6934 147.214 41.6934 149.294C41.6934 151.373 43.3611 153.037 45.4458 153.037Z" fill="#EFEFEF"/>
<path d="M66.2915 153.037C68.3761 153.037 70.0438 151.373 70.0438 149.294C70.0438 147.214 68.3761 145.551 66.2915 145.551C64.2068 145.551 62.5391 147.214 62.5391 149.294C62.5391 151.373 64.2068 153.037 66.2915 153.037Z" fill="#EFEFEF"/>
<path d="M87.1391 153.037C89.2238 153.037 90.8915 151.373 90.8915 149.294C90.8915 147.214 89.2238 145.551 87.1391 145.551C85.0544 145.551 83.3867 147.214 83.3867 149.294C83.3867 151.373 85.0544 153.037 87.1391 153.037Z" fill="#EFEFEF"/>
<path d="M107.986 153.037C110.07 153.037 111.738 151.373 111.738 149.294C111.738 147.214 110.07 145.551 107.986 145.551C105.901 145.551 104.233 147.214 104.233 149.294C104.233 151.373 105.901 153.037 107.986 153.037Z" fill="#EFEFEF"/>
<path d="M128.832 153.037C130.917 153.037 132.585 151.373 132.585 149.294C132.585 147.214 130.917 145.551 128.832 145.551C126.748 145.551 125.08 147.214 125.08 149.294C125.08 151.373 126.748 153.037 128.832 153.037Z" fill="#EFEFEF"/>
<path d="M3.7524 173.83C5.83706 173.83 7.50479 172.166 7.50479 170.087C7.50479 168.008 5.83706 166.344 3.7524 166.344C1.66773 166.344 0 168.008 0 170.087C0 172.166 1.66773 173.83 3.7524 173.83Z" fill="#EFEFEF"/>
<path d="M24.5991 173.83C26.6837 173.83 28.3515 172.166 28.3515 170.087C28.3515 168.008 26.6837 166.344 24.5991 166.344C22.5144 166.344 20.8467 168.008 20.8467 170.087C20.8467 172.166 22.5144 173.83 24.5991 173.83Z" fill="#EFEFEF"/>
<path d="M45.4458 173.83C47.5304 173.83 49.1981 172.166 49.1981 170.087C49.1981 168.008 47.5304 166.344 45.4458 166.344C43.3611 166.344 41.6934 168.008 41.6934 170.087C41.6934 172.166 43.3611 173.83 45.4458 173.83Z" fill="#EFEFEF"/>
<path d="M66.2915 173.83C68.3761 173.83 70.0438 172.166 70.0438 170.087C70.0438 168.008 68.3761 166.344 66.2915 166.344C64.2068 166.344 62.5391 168.008 62.5391 170.087C62.5391 172.166 64.2068 173.83 66.2915 173.83Z" fill="#EFEFEF"/>
<path d="M87.1391 173.83C89.2238 173.83 90.8915 172.166 90.8915 170.087C90.8915 168.008 89.2238 166.344 87.1391 166.344C85.0544 166.344 83.3867 168.008 83.3867 170.087C83.3867 172.166 85.0544 173.83 87.1391 173.83Z" fill="#EFEFEF"/>
<path d="M107.986 173.83C110.07 173.83 111.738 172.166 111.738 170.087C111.738 168.008 110.07 166.344 107.986 166.344C105.901 166.344 104.233 168.008 104.233 170.087C104.233 172.166 105.901 173.83 107.986 173.83Z" fill="#EFEFEF"/>
<path d="M128.832 173.83C130.917 173.83 132.585 172.166 132.585 170.087C132.585 168.008 130.917 166.344 128.832 166.344C126.748 166.344 125.08 168.008 125.08 170.087C125.08 172.166 126.748 173.83 128.832 173.83Z" fill="#EFEFEF"/>
<path d="M3.7524 194.623C5.83706 194.623 7.50479 192.959 7.50479 190.88C7.50479 188.801 5.83706 187.137 3.7524 187.137C1.66773 187.137 0 188.801 0 190.88C0 192.959 1.66773 194.623 3.7524 194.623Z" fill="#EFEFEF"/>
<path d="M24.5991 194.623C26.6837 194.623 28.3515 192.959 28.3515 190.88C28.3515 188.801 26.6837 187.137 24.5991 187.137C22.5144 187.137 20.8467 188.801 20.8467 190.88C20.8467 192.959 22.5144 194.623 24.5991 194.623Z" fill="#EFEFEF"/>
<path d="M45.4458 194.623C47.5304 194.623 49.1981 192.959 49.1981 190.88C49.1981 188.801 47.5304 187.137 45.4458 187.137C43.3611 187.137 41.6934 188.801 41.6934 190.88C41.6934 192.959 43.3611 194.623 45.4458 194.623Z" fill="#EFEFEF"/>
<path d="M66.2915 194.623C68.3761 194.623 70.0438 192.959 70.0438 190.88C70.0438 188.801 68.3761 187.137 66.2915 187.137C64.2068 187.137 62.5391 188.801 62.5391 190.88C62.5391 192.959 64.2068 194.623 66.2915 194.623Z" fill="#EFEFEF"/>
<path d="M87.1391 194.623C89.2238 194.623 90.8915 192.959 90.8915 190.88C90.8915 188.801 89.2238 187.137 87.1391 187.137C85.0544 187.137 83.3867 188.801 83.3867 190.88C83.3867 192.959 85.0544 194.623 87.1391 194.623Z" fill="#EFEFEF"/>
<path d="M107.986 194.623C110.07 194.623 111.738 192.959 111.738 190.88C111.738 188.801 110.07 187.137 107.986 187.137C105.901 187.137 104.233 188.801 104.233 190.88C104.233 192.959 105.901 194.623 107.986 194.623Z" fill="#EFEFEF"/>
<path d="M128.832 194.623C130.917 194.623 132.585 192.959 132.585 190.88C132.585 188.801 130.917 187.137 128.832 187.137C126.748 187.137 125.08 188.801 125.08 190.88C125.08 192.959 126.748 194.623 128.832 194.623Z" fill="#EFEFEF"/>
<path d="M3.7524 215.415C5.83706 215.415 7.50479 213.752 7.50479 211.673C7.50479 209.593 5.83706 207.93 3.7524 207.93C1.66773 207.93 0 209.593 0 211.673C0 213.752 1.66773 215.415 3.7524 215.415Z" fill="#EFEFEF"/>
<path d="M24.5991 215.415C26.6837 215.415 28.3515 213.752 28.3515 211.673C28.3515 209.593 26.6837 207.93 24.5991 207.93C22.5144 207.93 20.8467 209.593 20.8467 211.673C20.8467 213.752 22.5144 215.415 24.5991 215.415Z" fill="#EFEFEF"/>
<path d="M45.4458 215.415C47.5304 215.415 49.1981 213.752 49.1981 211.673C49.1981 209.593 47.5304 207.93 45.4458 207.93C43.3611 207.93 41.6934 209.593 41.6934 211.673C41.6934 213.752 43.3611 215.415 45.4458 215.415Z" fill="#EFEFEF"/>
<path d="M66.2915 215.415C68.3761 215.415 70.0438 213.752 70.0438 211.673C70.0438 209.593 68.3761 207.93 66.2915 207.93C64.2068 207.93 62.5391 209.593 62.5391 211.673C62.5391 213.752 64.2068 215.415 66.2915 215.415Z" fill="#EFEFEF"/>
<path d="M87.1391 215.415C89.2238 215.415 90.8915 213.752 90.8915 211.673C90.8915 209.593 89.2238 207.93 87.1391 207.93C85.0544 207.93 83.3867 209.593 83.3867 211.673C83.3867 213.752 85.0544 215.415 87.1391 215.415Z" fill="#EFEFEF"/>
<path d="M107.986 215.415C110.07 215.415 111.738 213.752 111.738 211.673C111.738 209.593 110.07 207.93 107.986 207.93C105.901 207.93 104.233 209.593 104.233 211.673C104.233 213.752 105.901 215.415 107.986 215.415Z" fill="#EFEFEF"/>
<path d="M128.832 215.415C130.917 215.415 132.585 213.752 132.585 211.673C132.585 209.593 130.917 207.93 128.832 207.93C126.748 207.93 125.08 209.593 125.08 211.673C125.08 213.752 126.748 215.415 128.832 215.415Z" fill="#EFEFEF"/>
<path d="M3.7524 236.208C5.83706 236.208 7.50479 234.545 7.50479 232.466C7.50479 230.386 5.83706 228.723 3.7524 228.723C1.66773 228.723 0 230.386 0 232.466C0 234.545 1.66773 236.208 3.7524 236.208Z" fill="#EFEFEF"/>
<path d="M24.5991 236.208C26.6837 236.208 28.3515 234.545 28.3515 232.466C28.3515 230.386 26.6837 228.723 24.5991 228.723C22.5144 228.723 20.8467 230.386 20.8467 232.466C20.8467 234.545 22.5144 236.208 24.5991 236.208Z" fill="#EFEFEF"/>
<path d="M45.4458 236.208C47.5304 236.208 49.1981 234.545 49.1981 232.466C49.1981 230.386 47.5304 228.723 45.4458 228.723C43.3611 228.723 41.6934 230.386 41.6934 232.466C41.6934 234.545 43.3611 236.208 45.4458 236.208Z" fill="#EFEFEF"/>
<path d="M66.2915 236.208C68.3761 236.208 70.0438 234.545 70.0438 232.466C70.0438 230.386 68.3761 228.723 66.2915 228.723C64.2068 228.723 62.5391 230.386 62.5391 232.466C62.5391 234.545 64.2068 236.208 66.2915 236.208Z" fill="#EFEFEF"/>
<path d="M87.1391 236.208C89.2238 236.208 90.8915 234.545 90.8915 232.466C90.8915 230.386 89.2238 228.723 87.1391 228.723C85.0544 228.723 83.3867 230.386 83.3867 232.466C83.3867 234.545 85.0544 236.208 87.1391 236.208Z" fill="#EFEFEF"/>
<path d="M107.986 236.208C110.07 236.208 111.738 234.545 111.738 232.466C111.738 230.386 110.07 228.723 107.986 228.723C105.901 228.723 104.233 230.386 104.233 232.466C104.233 234.545 105.901 236.208 107.986 236.208Z" fill="#EFEFEF"/>
<path d="M128.832 236.208C130.917 236.208 132.585 234.545 132.585 232.466C132.585 230.386 130.917 228.723 128.832 228.723C126.748 228.723 125.08 230.386 125.08 232.466C125.08 234.545 126.748 236.208 128.832 236.208Z" fill="#EFEFEF"/>
<path d="M3.7524 257.002C5.83706 257.002 7.50479 255.338 7.50479 253.259C7.50479 251.18 5.83706 249.516 3.7524 249.516C1.66773 249.516 0 251.18 0 253.259C0 255.338 1.66773 257.002 3.7524 257.002Z" fill="#EFEFEF"/>
<path d="M24.5991 257.002C26.6837 257.002 28.3515 255.338 28.3515 253.259C28.3515 251.18 26.6837 249.516 24.5991 249.516C22.5144 249.516 20.8467 251.18 20.8467 253.259C20.8467 255.338 22.5144 257.002 24.5991 257.002Z" fill="#EFEFEF"/>
<path d="M45.4458 257.002C47.5304 257.002 49.1981 255.338 49.1981 253.259C49.1981 251.18 47.5304 249.516 45.4458 249.516C43.3611 249.516 41.6934 251.18 41.6934 253.259C41.6934 255.338 43.3611 257.002 45.4458 257.002Z" fill="#EFEFEF"/>
<path d="M66.2915 257.002C68.3761 257.002 70.0438 255.338 70.0438 253.259C70.0438 251.18 68.3761 249.516 66.2915 249.516C64.2068 249.516 62.5391 251.18 62.5391 253.259C62.5391 255.338 64.2068 257.002 66.2915 257.002Z" fill="#EFEFEF"/>
<path d="M87.1391 257.002C89.2238 257.002 90.8915 255.338 90.8915 253.259C90.8915 251.18 89.2238 249.516 87.1391 249.516C85.0544 249.516 83.3867 251.18 83.3867 253.259C83.3867 255.338 85.0544 257.002 87.1391 257.002Z" fill="#EFEFEF"/>
<path d="M107.986 257.002C110.07 257.002 111.738 255.338 111.738 253.259C111.738 251.18 110.07 249.516 107.986 249.516C105.901 249.516 104.233 251.18 104.233 253.259C104.233 255.338 105.901 257.002 107.986 257.002Z" fill="#EFEFEF"/>
<path d="M128.832 257.002C130.917 257.002 132.585 255.338 132.585 253.259C132.585 251.18 130.917 249.516 128.832 249.516C126.748 249.516 125.08 251.18 125.08 253.259C125.08 255.338 126.748 257.002 128.832 257.002Z" fill="#EFEFEF"/>
<path d="M150.79 7.48549C152.874 7.48549 154.542 5.82204 154.542 3.74274C154.542 1.66344 152.874 0 150.79 0C148.705 0 147.037 1.66344 147.037 3.74274C147.037 5.82204 148.705 7.48549 150.79 7.48549Z" fill="#EFEFEF"/>
<path d="M171.636 7.48549C173.721 7.48549 175.389 5.82204 175.389 3.74274C175.389 1.66344 173.721 0 171.636 0C169.552 0 167.884 1.66344 167.884 3.74274C167.884 5.82204 169.552 7.48549 171.636 7.48549Z" fill="#EFEFEF"/>
<path d="M192.482 7.48549C194.567 7.48549 196.234 5.82204 196.234 3.74274C196.234 1.66344 194.567 0 192.482 0C190.397 0 188.729 1.66344 188.729 3.74274C188.729 5.82204 190.397 7.48549 192.482 7.48549Z" fill="#EFEFEF"/>
<path d="M213.329 7.48549C215.413 7.48549 217.081 5.82204 217.081 3.74274C217.081 1.66344 215.413 0 213.329 0C211.244 0 209.576 1.66344 209.576 3.74274C209.576 5.82204 211.244 7.48549 213.329 7.48549Z" fill="#EFEFEF"/>
<path d="M234.176 7.48549C236.261 7.48549 237.929 5.82204 237.929 3.74274C237.929 1.66344 236.261 0 234.176 0C232.092 0 230.424 1.66344 230.424 3.74274C230.424 5.82204 232.092 7.48549 234.176 7.48549Z" fill="#EFEFEF"/>
<path d="M255.023 7.48549C257.108 7.48549 258.775 5.82204 258.775 3.74274C258.775 1.66344 257.108 0 255.023 0C252.938 0 251.271 1.66344 251.271 3.74274C251.271 5.82204 252.938 7.48549 255.023 7.48549Z" fill="#EFEFEF"/>
<path d="M275.87 7.48549C277.954 7.48549 279.622 5.82204 279.622 3.74274C279.622 1.66344 277.954 0 275.87 0C273.785 0 272.117 1.66344 272.117 3.74274C272.117 5.82204 273.785 7.48549 275.87 7.48549Z" fill="#EFEFEF"/>
<path d="M150.79 28.2785C152.874 28.2785 154.542 26.615 154.542 24.5357C154.542 22.4564 152.874 20.793 150.79 20.793C148.705 20.793 147.037 22.4564 147.037 24.5357C147.037 26.615 148.705 28.2785 150.79 28.2785Z" fill="#EFEFEF"/>
<path d="M171.636 28.2785C173.721 28.2785 175.389 26.615 175.389 24.5357C175.389 22.4564 173.721 20.793 171.636 20.793C169.552 20.793 167.884 22.4564 167.884 24.5357C167.884 26.615 169.552 28.2785 171.636 28.2785Z" fill="#EFEFEF"/>
<path d="M192.482 28.2785C194.567 28.2785 196.234 26.615 196.234 24.5357C196.234 22.4564 194.567 20.793 192.482 20.793C190.397 20.793 188.729 22.4564 188.729 24.5357C188.729 26.615 190.397 28.2785 192.482 28.2785Z" fill="#EFEFEF"/>
<path d="M213.329 28.2785C215.413 28.2785 217.081 26.615 217.081 24.5357C217.081 22.4564 215.413 20.793 213.329 20.793C211.244 20.793 209.576 22.4564 209.576 24.5357C209.576 26.615 211.244 28.2785 213.329 28.2785Z" fill="#EFEFEF"/>
<path d="M234.176 28.2785C236.261 28.2785 237.929 26.615 237.929 24.5357C237.929 22.4564 236.261 20.793 234.176 20.793C232.092 20.793 230.424 22.4564 230.424 24.5357C230.424 26.615 232.092 28.2785 234.176 28.2785Z" fill="#EFEFEF"/>
<path d="M255.023 28.2785C257.108 28.2785 258.775 26.615 258.775 24.5357C258.775 22.4564 257.108 20.793 255.023 20.793C252.938 20.793 251.271 22.4564 251.271 24.5357C251.271 26.615 252.938 28.2785 255.023 28.2785Z" fill="#EFEFEF"/>
<path d="M275.87 28.2785C277.954 28.2785 279.622 26.615 279.622 24.5357C279.622 22.4564 277.954 20.793 275.87 20.793C273.785 20.793 272.117 22.4564 272.117 24.5357C272.117 26.615 273.785 28.2785 275.87 28.2785Z" fill="#EFEFEF"/>
<path d="M150.79 49.0712C152.874 49.0712 154.542 47.4077 154.542 45.3284C154.542 43.2491 152.874 41.5857 150.79 41.5857C148.705 41.5857 147.037 43.2491 147.037 45.3284C147.037 47.4077 148.705 49.0712 150.79 49.0712Z" fill="#EFEFEF"/>
<path d="M171.636 49.0712C173.721 49.0712 175.389 47.4077 175.389 45.3284C175.389 43.2491 173.721 41.5857 171.636 41.5857C169.552 41.5857 167.884 43.2491 167.884 45.3284C167.884 47.4077 169.552 49.0712 171.636 49.0712Z" fill="#EFEFEF"/>
<path d="M192.482 49.0712C194.567 49.0712 196.234 47.4077 196.234 45.3284C196.234 43.2491 194.567 41.5857 192.482 41.5857C190.397 41.5857 188.729 43.2491 188.729 45.3284C188.729 47.4077 190.397 49.0712 192.482 49.0712Z" fill="#EFEFEF"/>
<path d="M213.329 49.0712C215.413 49.0712 217.081 47.4077 217.081 45.3284C217.081 43.2491 215.413 41.5857 213.329 41.5857C211.244 41.5857 209.576 43.2491 209.576 45.3284C209.576 47.4077 211.244 49.0712 213.329 49.0712Z" fill="#EFEFEF"/>
<path d="M234.176 49.0712C236.261 49.0712 237.929 47.4077 237.929 45.3284C237.929 43.2491 236.261 41.5857 234.176 41.5857C232.092 41.5857 230.424 43.2491 230.424 45.3284C230.424 47.4077 232.092 49.0712 234.176 49.0712Z" fill="#EFEFEF"/>
<path d="M255.023 49.0712C257.108 49.0712 258.775 47.4077 258.775 45.3284C258.775 43.2491 257.108 41.5857 255.023 41.5857C252.938 41.5857 251.271 43.2491 251.271 45.3284C251.271 47.4077 252.938 49.0712 255.023 49.0712Z" fill="#EFEFEF"/>
<path d="M275.87 49.0712C277.954 49.0712 279.622 47.4077 279.622 45.3284C279.622 43.2491 277.954 41.5857 275.87 41.5857C273.785 41.5857 272.117 43.2491 272.117 45.3284C272.117 47.4077 273.785 49.0712 275.87 49.0712Z" fill="#EFEFEF"/>
<path d="M150.79 69.8644C152.874 69.8644 154.542 68.2009 154.542 66.1216C154.542 64.0423 152.874 62.3789 150.79 62.3789C148.705 62.3789 147.037 64.0423 147.037 66.1216C147.037 68.2009 148.705 69.8644 150.79 69.8644Z" fill="#EFEFEF"/>
<path d="M171.636 69.8644C173.721 69.8644 175.389 68.2009 175.389 66.1216C175.389 64.0423 173.721 62.3789 171.636 62.3789C169.552 62.3789 167.884 64.0423 167.884 66.1216C167.884 68.2009 169.552 69.8644 171.636 69.8644Z" fill="#EFEFEF"/>
<path d="M192.482 69.8644C194.567 69.8644 196.234 68.2009 196.234 66.1216C196.234 64.0423 194.567 62.3789 192.482 62.3789C190.397 62.3789 188.729 64.0423 188.729 66.1216C188.729 68.2009 190.397 69.8644 192.482 69.8644Z" fill="#EFEFEF"/>
<path d="M213.329 69.8644C215.413 69.8644 217.081 68.2009 217.081 66.1216C217.081 64.0423 215.413 62.3789 213.329 62.3789C211.244 62.3789 209.576 64.0423 209.576 66.1216C209.576 68.2009 211.244 69.8644 213.329 69.8644Z" fill="#EFEFEF"/>
<path d="M234.176 69.8644C236.261 69.8644 237.929 68.2009 237.929 66.1216C237.929 64.0423 236.261 62.3789 234.176 62.3789C232.092 62.3789 230.424 64.0423 230.424 66.1216C230.424 68.2009 232.092 69.8644 234.176 69.8644Z" fill="#EFEFEF"/>
<path d="M255.023 69.8644C257.108 69.8644 258.775 68.2009 258.775 66.1216C258.775 64.0423 257.108 62.3789 255.023 62.3789C252.938 62.3789 251.271 64.0423 251.271 66.1216C251.271 68.2009 252.938 69.8644 255.023 69.8644Z" fill="#EFEFEF"/>
<path d="M275.87 69.8644C277.954 69.8644 279.622 68.2009 279.622 66.1216C279.622 64.0423 277.954 62.3789 275.87 62.3789C273.785 62.3789 272.117 64.0423 272.117 66.1216C272.117 68.2009 273.785 69.8644 275.87 69.8644Z" fill="#EFEFEF"/>
<path d="M150.79 90.6576C152.874 90.6576 154.542 88.9941 154.542 86.9149C154.542 84.8356 152.874 83.1721 150.79 83.1721C148.705 83.1721 147.037 84.8356 147.037 86.9149C147.037 88.9941 148.705 90.6576 150.79 90.6576Z" fill="#EFEFEF"/>
<path d="M171.636 90.6576C173.721 90.6576 175.389 88.9941 175.389 86.9149C175.389 84.8356 173.721 83.1721 171.636 83.1721C169.552 83.1721 167.884 84.8356 167.884 86.9149C167.884 88.9941 169.552 90.6576 171.636 90.6576Z" fill="#EFEFEF"/>
<path d="M192.482 90.6576C194.567 90.6576 196.234 88.9941 196.234 86.9149C196.234 84.8356 194.567 83.1721 192.482 83.1721C190.397 83.1721 188.729 84.8356 188.729 86.9149C188.729 88.9941 190.397 90.6576 192.482 90.6576Z" fill="#EFEFEF"/>
<path d="M213.329 90.6576C215.413 90.6576 217.081 88.9941 217.081 86.9149C217.081 84.8356 215.413 83.1721 213.329 83.1721C211.244 83.1721 209.576 84.8356 209.576 86.9149C209.576 88.9941 211.244 90.6576 213.329 90.6576Z" fill="#EFEFEF"/>
<path d="M234.176 90.6576C236.261 90.6576 237.929 88.9941 237.929 86.9149C237.929 84.8356 236.261 83.1721 234.176 83.1721C232.092 83.1721 230.424 84.8356 230.424 86.9149C230.424 88.9941 232.092 90.6576 234.176 90.6576Z" fill="#EFEFEF"/>
<path d="M255.023 90.6576C257.108 90.6576 258.775 88.9941 258.775 86.9149C258.775 84.8356 257.108 83.1721 255.023 83.1721C252.938 83.1721 251.271 84.8356 251.271 86.9149C251.271 88.9941 252.938 90.6576 255.023 90.6576Z" fill="#EFEFEF"/>
<path d="M275.87 90.6576C277.954 90.6576 279.622 88.9941 279.622 86.9149C279.622 84.8356 277.954 83.1721 275.87 83.1721C273.785 83.1721 272.117 84.8356 272.117 86.9149C272.117 88.9941 273.785 90.6576 275.87 90.6576Z" fill="#EFEFEF"/>
<path d="M150.79 111.451C152.874 111.451 154.542 109.787 154.542 107.708C154.542 105.629 152.874 103.965 150.79 103.965C148.705 103.965 147.037 105.629 147.037 107.708C147.037 109.787 148.705 111.451 150.79 111.451Z" fill="#EFEFEF"/>
<path d="M171.636 111.451C173.721 111.451 175.389 109.787 175.389 107.708C175.389 105.629 173.721 103.965 171.636 103.965C169.552 103.965 167.884 105.629 167.884 107.708C167.884 109.787 169.552 111.451 171.636 111.451Z" fill="#EFEFEF"/>
<path d="M192.482 111.451C194.567 111.451 196.234 109.787 196.234 107.708C196.234 105.629 194.567 103.965 192.482 103.965C190.397 103.965 188.729 105.629 188.729 107.708C188.729 109.787 190.397 111.451 192.482 111.451Z" fill="#EFEFEF"/>
<path d="M213.329 111.451C215.413 111.451 217.081 109.787 217.081 107.708C217.081 105.629 215.413 103.965 213.329 103.965C211.244 103.965 209.576 105.629 209.576 107.708C209.576 109.787 211.244 111.451 213.329 111.451Z" fill="#EFEFEF"/>
<path d="M234.176 111.451C236.261 111.451 237.929 109.787 237.929 107.708C237.929 105.629 236.261 103.965 234.176 103.965C232.092 103.965 230.424 105.629 230.424 107.708C230.424 109.787 232.092 111.451 234.176 111.451Z" fill="#EFEFEF"/>
<path d="M255.023 111.451C257.108 111.451 258.775 109.787 258.775 107.708C258.775 105.629 257.108 103.965 255.023 103.965C252.938 103.965 251.271 105.629 251.271 107.708C251.271 109.787 252.938 111.451 255.023 111.451Z" fill="#EFEFEF"/>
<path d="M275.87 111.451C277.954 111.451 279.622 109.787 279.622 107.708C279.622 105.629 277.954 103.965 275.87 103.965C273.785 103.965 272.117 105.629 272.117 107.708C272.117 109.787 273.785 111.451 275.87 111.451Z" fill="#EFEFEF"/>
<path d="M150.79 132.244C152.874 132.244 154.542 130.58 154.542 128.501C154.542 126.422 152.874 124.758 150.79 124.758C148.705 124.758 147.037 126.422 147.037 128.501C147.037 130.58 148.705 132.244 150.79 132.244Z" fill="#EFEFEF"/>
<path d="M171.636 132.244C173.721 132.244 175.389 130.58 175.389 128.501C175.389 126.422 173.721 124.758 171.636 124.758C169.552 124.758 167.884 126.422 167.884 128.501C167.884 130.58 169.552 132.244 171.636 132.244Z" fill="#EFEFEF"/>
<path d="M192.482 132.244C194.567 132.244 196.234 130.58 196.234 128.501C196.234 126.422 194.567 124.758 192.482 124.758C190.397 124.758 188.729 126.422 188.729 128.501C188.729 130.58 190.397 132.244 192.482 132.244Z" fill="#EFEFEF"/>
<path d="M213.329 132.244C215.413 132.244 217.081 130.58 217.081 128.501C217.081 126.422 215.413 124.758 213.329 124.758C211.244 124.758 209.576 126.422 209.576 128.501C209.576 130.58 211.244 132.244 213.329 132.244Z" fill="#EFEFEF"/>
<path d="M234.176 132.244C236.261 132.244 237.929 130.58 237.929 128.501C237.929 126.422 236.261 124.758 234.176 124.758C232.092 124.758 230.424 126.422 230.424 128.501C230.424 130.58 232.092 132.244 234.176 132.244Z" fill="#EFEFEF"/>
<path d="M255.023 132.244C257.108 132.244 258.775 130.58 258.775 128.501C258.775 126.422 257.108 124.758 255.023 124.758C252.938 124.758 251.271 126.422 251.271 128.501C251.271 130.58 252.938 132.244 255.023 132.244Z" fill="#EFEFEF"/>
<path d="M275.87 132.244C277.954 132.244 279.622 130.58 279.622 128.501C279.622 126.422 277.954 124.758 275.87 124.758C273.785 124.758 272.117 126.422 272.117 128.501C272.117 130.58 273.785 132.244 275.87 132.244Z" fill="#EFEFEF"/>
<path d="M150.79 153.037C152.874 153.037 154.542 151.373 154.542 149.294C154.542 147.214 152.874 145.551 150.79 145.551C148.705 145.551 147.037 147.214 147.037 149.294C147.037 151.373 148.705 153.037 150.79 153.037Z" fill="#EFEFEF"/>
<path d="M171.636 153.037C173.721 153.037 175.389 151.373 175.389 149.294C175.389 147.214 173.721 145.551 171.636 145.551C169.552 145.551 167.884 147.214 167.884 149.294C167.884 151.373 169.552 153.037 171.636 153.037Z" fill="#EFEFEF"/>
<path d="M192.482 153.037C194.567 153.037 196.234 151.373 196.234 149.294C196.234 147.214 194.567 145.551 192.482 145.551C190.397 145.551 188.729 147.214 188.729 149.294C188.729 151.373 190.397 153.037 192.482 153.037Z" fill="#EFEFEF"/>
<path d="M213.329 153.037C215.413 153.037 217.081 151.373 217.081 149.294C217.081 147.214 215.413 145.551 213.329 145.551C211.244 145.551 209.576 147.214 209.576 149.294C209.576 151.373 211.244 153.037 213.329 153.037Z" fill="#EFEFEF"/>
<path d="M234.176 153.037C236.261 153.037 237.929 151.373 237.929 149.294C237.929 147.214 236.261 145.551 234.176 145.551C232.092 145.551 230.424 147.214 230.424 149.294C230.424 151.373 232.092 153.037 234.176 153.037Z" fill="#EFEFEF"/>
<path d="M255.023 153.037C257.108 153.037 258.775 151.373 258.775 149.294C258.775 147.214 257.108 145.551 255.023 145.551C252.938 145.551 251.271 147.214 251.271 149.294C251.271 151.373 252.938 153.037 255.023 153.037Z" fill="#EFEFEF"/>
<path d="M275.87 153.037C277.954 153.037 279.622 151.373 279.622 149.294C279.622 147.214 277.954 145.551 275.87 145.551C273.785 145.551 272.117 147.214 272.117 149.294C272.117 151.373 273.785 153.037 275.87 153.037Z" fill="#EFEFEF"/>
<path d="M150.79 173.83C152.874 173.83 154.542 172.166 154.542 170.087C154.542 168.008 152.874 166.344 150.79 166.344C148.705 166.344 147.037 168.008 147.037 170.087C147.037 172.166 148.705 173.83 150.79 173.83Z" fill="#EFEFEF"/>
<path d="M171.636 173.83C173.721 173.83 175.389 172.166 175.389 170.087C175.389 168.008 173.721 166.344 171.636 166.344C169.552 166.344 167.884 168.008 167.884 170.087C167.884 172.166 169.552 173.83 171.636 173.83Z" fill="#EFEFEF"/>
<path d="M192.482 173.83C194.567 173.83 196.234 172.166 196.234 170.087C196.234 168.008 194.567 166.344 192.482 166.344C190.397 166.344 188.729 168.008 188.729 170.087C188.729 172.166 190.397 173.83 192.482 173.83Z" fill="#EFEFEF"/>
<path d="M213.329 173.83C215.413 173.83 217.081 172.166 217.081 170.087C217.081 168.008 215.413 166.344 213.329 166.344C211.244 166.344 209.576 168.008 209.576 170.087C209.576 172.166 211.244 173.83 213.329 173.83Z" fill="#EFEFEF"/>
<path d="M234.176 173.83C236.261 173.83 237.929 172.166 237.929 170.087C237.929 168.008 236.261 166.344 234.176 166.344C232.092 166.344 230.424 168.008 230.424 170.087C230.424 172.166 232.092 173.83 234.176 173.83Z" fill="#EFEFEF"/>
<path d="M255.023 173.83C257.108 173.83 258.775 172.166 258.775 170.087C258.775 168.008 257.108 166.344 255.023 166.344C252.938 166.344 251.271 168.008 251.271 170.087C251.271 172.166 252.938 173.83 255.023 173.83Z" fill="#EFEFEF"/>
<path d="M275.87 173.83C277.954 173.83 279.622 172.166 279.622 170.087C279.622 168.008 277.954 166.344 275.87 166.344C273.785 166.344 272.117 168.008 272.117 170.087C272.117 172.166 273.785 173.83 275.87 173.83Z" fill="#EFEFEF"/>
<path d="M150.79 194.623C152.874 194.623 154.542 192.959 154.542 190.88C154.542 188.801 152.874 187.137 150.79 187.137C148.705 187.137 147.037 188.801 147.037 190.88C147.037 192.959 148.705 194.623 150.79 194.623Z" fill="#EFEFEF"/>
<path d="M171.636 194.623C173.721 194.623 175.389 192.959 175.389 190.88C175.389 188.801 173.721 187.137 171.636 187.137C169.552 187.137 167.884 188.801 167.884 190.88C167.884 192.959 169.552 194.623 171.636 194.623Z" fill="#EFEFEF"/>
<path d="M192.482 194.623C194.567 194.623 196.234 192.959 196.234 190.88C196.234 188.801 194.567 187.137 192.482 187.137C190.397 187.137 188.729 188.801 188.729 190.88C188.729 192.959 190.397 194.623 192.482 194.623Z" fill="#EFEFEF"/>
<path d="M213.329 194.623C215.413 194.623 217.081 192.959 217.081 190.88C217.081 188.801 215.413 187.137 213.329 187.137C211.244 187.137 209.576 188.801 209.576 190.88C209.576 192.959 211.244 194.623 213.329 194.623Z" fill="#EFEFEF"/>
<path d="M234.176 194.623C236.261 194.623 237.929 192.959 237.929 190.88C237.929 188.801 236.261 187.137 234.176 187.137C232.092 187.137 230.424 188.801 230.424 190.88C230.424 192.959 232.092 194.623 234.176 194.623Z" fill="#EFEFEF"/>
<path d="M255.023 194.623C257.108 194.623 258.775 192.959 258.775 190.88C258.775 188.801 257.108 187.137 255.023 187.137C252.938 187.137 251.271 188.801 251.271 190.88C251.271 192.959 252.938 194.623 255.023 194.623Z" fill="#EFEFEF"/>
<path d="M275.87 194.623C277.954 194.623 279.622 192.959 279.622 190.88C279.622 188.801 277.954 187.137 275.87 187.137C273.785 187.137 272.117 188.801 272.117 190.88C272.117 192.959 273.785 194.623 275.87 194.623Z" fill="#EFEFEF"/>
<path d="M150.79 215.415C152.874 215.415 154.542 213.752 154.542 211.673C154.542 209.593 152.874 207.93 150.79 207.93C148.705 207.93 147.037 209.593 147.037 211.673C147.037 213.752 148.705 215.415 150.79 215.415Z" fill="#EFEFEF"/>
<path d="M171.636 215.415C173.721 215.415 175.389 213.752 175.389 211.673C175.389 209.593 173.721 207.93 171.636 207.93C169.552 207.93 167.884 209.593 167.884 211.673C167.884 213.752 169.552 215.415 171.636 215.415Z" fill="#EFEFEF"/>
<path d="M192.482 215.415C194.567 215.415 196.234 213.752 196.234 211.673C196.234 209.593 194.567 207.93 192.482 207.93C190.397 207.93 188.729 209.593 188.729 211.673C188.729 213.752 190.397 215.415 192.482 215.415Z" fill="#EFEFEF"/>
<path d="M213.329 215.415C215.413 215.415 217.081 213.752 217.081 211.673C217.081 209.593 215.413 207.93 213.329 207.93C211.244 207.93 209.576 209.593 209.576 211.673C209.576 213.752 211.244 215.415 213.329 215.415Z" fill="#EFEFEF"/>
<path d="M234.176 215.415C236.261 215.415 237.929 213.752 237.929 211.673C237.929 209.593 236.261 207.93 234.176 207.93C232.092 207.93 230.424 209.593 230.424 211.673C230.424 213.752 232.092 215.415 234.176 215.415Z" fill="#EFEFEF"/>
<path d="M255.023 215.415C257.108 215.415 258.775 213.752 258.775 211.673C258.775 209.593 257.108 207.93 255.023 207.93C252.938 207.93 251.271 209.593 251.271 211.673C251.271 213.752 252.938 215.415 255.023 215.415Z" fill="#EFEFEF"/>
<path d="M275.87 215.415C277.954 215.415 279.622 213.752 279.622 211.673C279.622 209.593 277.954 207.93 275.87 207.93C273.785 207.93 272.117 209.593 272.117 211.673C272.117 213.752 273.785 215.415 275.87 215.415Z" fill="#EFEFEF"/>
<path d="M150.79 236.208C152.874 236.208 154.542 234.545 154.542 232.466C154.542 230.386 152.874 228.723 150.79 228.723C148.705 228.723 147.037 230.386 147.037 232.466C147.037 234.545 148.705 236.208 150.79 236.208Z" fill="#EFEFEF"/>
<path d="M171.636 236.208C173.721 236.208 175.389 234.545 175.389 232.466C175.389 230.386 173.721 228.723 171.636 228.723C169.552 228.723 167.884 230.386 167.884 232.466C167.884 234.545 169.552 236.208 171.636 236.208Z" fill="#EFEFEF"/>
<path d="M192.482 236.208C194.567 236.208 196.234 234.545 196.234 232.466C196.234 230.386 194.567 228.723 192.482 228.723C190.397 228.723 188.729 230.386 188.729 232.466C188.729 234.545 190.397 236.208 192.482 236.208Z" fill="#EFEFEF"/>
<path d="M213.329 236.208C215.413 236.208 217.081 234.545 217.081 232.466C217.081 230.386 215.413 228.723 213.329 228.723C211.244 228.723 209.576 230.386 209.576 232.466C209.576 234.545 211.244 236.208 213.329 236.208Z" fill="#EFEFEF"/>
<path d="M234.176 236.208C236.261 236.208 237.929 234.545 237.929 232.466C237.929 230.386 236.261 228.723 234.176 228.723C232.092 228.723 230.424 230.386 230.424 232.466C230.424 234.545 232.092 236.208 234.176 236.208Z" fill="#EFEFEF"/>
<path d="M255.023 236.208C257.108 236.208 258.775 234.545 258.775 232.466C258.775 230.386 257.108 228.723 255.023 228.723C252.938 228.723 251.271 230.386 251.271 232.466C251.271 234.545 252.938 236.208 255.023 236.208Z" fill="#EFEFEF"/>
<path d="M275.87 236.208C277.954 236.208 279.622 234.545 279.622 232.466C279.622 230.386 277.954 228.723 275.87 228.723C273.785 228.723 272.117 230.386 272.117 232.466C272.117 234.545 273.785 236.208 275.87 236.208Z" fill="#EFEFEF"/>
<path d="M150.79 257.002C152.874 257.002 154.542 255.338 154.542 253.259C154.542 251.18 152.874 249.516 150.79 249.516C148.705 249.516 147.037 251.18 147.037 253.259C147.037 255.338 148.705 257.002 150.79 257.002Z" fill="#EFEFEF"/>
<path d="M171.636 257.002C173.721 257.002 175.389 255.338 175.389 253.259C175.389 251.18 173.721 249.516 171.636 249.516C169.552 249.516 167.884 251.18 167.884 253.259C167.884 255.338 169.552 257.002 171.636 257.002Z" fill="#EFEFEF"/>
<path d="M192.482 257.002C194.567 257.002 196.234 255.338 196.234 253.259C196.234 251.18 194.567 249.516 192.482 249.516C190.397 249.516 188.729 251.18 188.729 253.259C188.729 255.338 190.397 257.002 192.482 257.002Z" fill="#EFEFEF"/>
<path d="M213.329 257.002C215.413 257.002 217.081 255.338 217.081 253.259C217.081 251.18 215.413 249.516 213.329 249.516C211.244 249.516 209.576 251.18 209.576 253.259C209.576 255.338 211.244 257.002 213.329 257.002Z" fill="#EFEFEF"/>
<path d="M234.176 257.002C236.261 257.002 237.929 255.338 237.929 253.259C237.929 251.18 236.261 249.516 234.176 249.516C232.092 249.516 230.424 251.18 230.424 253.259C230.424 255.338 232.092 257.002 234.176 257.002Z" fill="#EFEFEF"/>
<path d="M255.023 257.002C257.108 257.002 258.775 255.338 258.775 253.259C258.775 251.18 257.108 249.516 255.023 249.516C252.938 249.516 251.271 251.18 251.271 253.259C251.271 255.338 252.938 257.002 255.023 257.002Z" fill="#EFEFEF"/>
<path d="M275.87 257.002C277.954 257.002 279.622 255.338 279.622 253.259C279.622 251.18 277.954 249.516 275.87 249.516C273.785 249.516 272.117 251.18 272.117 253.259C272.117 255.338 273.785 257.002 275.87 257.002Z" fill="#EFEFEF"/>
</svg>
