<svg width="106" height="86" viewBox="0 0 106 86" fill="none" xmlns="http://www.w3.org/2000/svg">
<g filter="url(#filter0_d)">
<path d="M78.8382 25.4469C78.8382 39.2734 67.6294 50.4744 53.8107 50.4744C39.9842 50.4744 28.7832 39.2656 28.7832 25.4469C28.7832 11.6204 39.992 0.419434 53.8107 0.419434C67.6294 0.419434 78.8382 11.6204 78.8382 25.4469Z" fill="url(#paint0_linear)"/>
<path d="M46.9363 2.85851C46.9363 4.43535 45.6546 5.71702 44.0777 5.71702C42.5009 5.71702 41.2192 4.43535 41.2192 2.85851C41.2192 1.28167 42.5009 0 44.0777 0C45.6546 0 46.9363 1.28167 46.9363 2.85851Z" fill="#FF619D"/>
<path d="M31.7272 44.6407C31.7272 45.7592 30.8261 46.6603 29.7076 46.6603C28.589 46.6603 27.688 45.7592 27.688 44.6407C27.688 43.5221 28.589 42.6211 29.7076 42.6211C30.8261 42.6211 31.7272 43.5299 31.7272 44.6407Z" fill="url(#paint1_linear)"/>
<path d="M53.8032 0.419434C51.8224 0.419434 49.8883 0.660232 48.0396 1.09522C48.0551 4.38872 48.9794 9.68628 54.6654 10.2844C62.9846 11.1544 63.4972 17.1588 63.4972 17.1588C63.4972 17.1588 64.3905 23.1477 68.22 22.4564C70.9542 21.967 75.8246 20.6232 78.6287 22.2777C77.0674 9.94262 66.5577 0.419434 53.8032 0.419434Z" fill="url(#paint2_linear)"/>
<path d="M80.5869 25.0972L80.7267 25.9283C80.6957 25.6254 80.6413 25.3535 80.5869 25.0972Z" fill="white"/>
<path d="M76.6167 35.7545C76.7565 35.4516 76.8886 35.1486 77.0129 34.8379C76.9818 34.8069 76.9585 34.7836 76.9274 34.7603C76.8497 35.102 76.741 35.4283 76.6167 35.7545Z" fill="#230753"/>
<path opacity="0.15" d="M68.3986 5.11133C72.0649 9.46123 74.271 15.085 74.271 21.2215C74.271 28.6008 71.0784 35.2266 65.9984 39.8096C61.0737 39.4523 55.0382 37.6269 49.0104 34.4188C37.0404 28.0415 29.5835 18.5572 32.0847 13.0111C30.1893 16.3123 29.0242 20.0874 28.8145 24.1189C33.5294 28.3989 40.4427 33.176 48.5677 37.5026C52.8865 39.8018 57.1121 41.7437 61.0581 43.2973C57.5394 45.1848 53.5157 46.2568 49.2435 46.2568C43.7983 46.2568 38.7571 44.509 34.648 41.5573C39.2387 47.0102 46.1131 50.4824 53.8031 50.4824C59.2327 50.4824 64.2584 48.7424 68.3597 45.8062C71.762 43.3672 74.5351 40.1048 76.3682 36.2986C76.4537 36.1199 76.5314 35.9413 76.609 35.7626C76.7411 35.4364 76.8498 35.1101 76.912 34.7684C76.943 34.7994 76.9663 34.8227 76.9974 34.846C78.1703 31.9487 78.8228 28.7795 78.8228 25.4549C78.8384 17.0658 74.7137 9.65542 68.3986 5.11133Z" fill="#230753"/>
<path d="M76.6168 35.7471C76.5158 35.9723 76.4071 36.1898 76.2983 36.4151C76.3294 36.353 76.376 36.2986 76.4071 36.2364C76.4925 36.0733 76.5547 35.9102 76.6168 35.7471Z" fill="url(#paint3_linear)"/>
<path d="M32.123 12.9409C32.3017 12.6224 32.4959 12.3117 32.6901 12.001C32.5192 12.2262 32.3638 12.4515 32.2318 12.7001C32.1852 12.7777 32.1541 12.8632 32.123 12.9409Z" fill="url(#paint4_linear)"/>
<path d="M77.6188 33.1679C77.4401 33.7349 77.2226 34.2864 77.0051 34.8302C81.9609 39.351 84.4388 43.3125 83.2193 45.5962C81.8522 48.1517 76.1507 48.043 68.3675 45.7981C62.6038 44.1358 55.6984 41.3006 48.5599 37.4945C40.4426 33.1679 33.5216 28.3985 28.8144 24.1185C23.7965 19.5589 21.2798 15.5585 22.5071 13.2593C23.5868 11.2397 27.3696 10.8824 32.7371 11.931C33.0556 11.4339 33.3974 10.9445 33.7469 10.4707C24.7364 8.08602 18.1183 8.21807 16.4172 11.4028C14.4364 15.1158 19.6485 22.0679 29.0863 29.4083C34.0498 33.2689 40.1863 37.2381 47.0685 40.9045C52.8632 43.9883 58.5413 46.5128 63.7612 48.4081C76.5158 53.0376 86.5128 53.8921 88.6489 49.8684C90.5209 46.3807 86.0156 40.019 77.6188 33.1679Z" fill="#FFB92F"/>
<path opacity="0.15" d="M21.0159 10.9527C20.2314 12.4208 20.9848 14.588 22.9423 17.1513C22.15 15.5978 21.9713 14.2695 22.5073 13.2675C23.587 11.2479 27.3699 10.8906 32.7373 11.9392C33.0558 11.4421 33.3976 10.9527 33.7471 10.4789C31.1683 9.79531 28.7836 9.32925 26.6552 9.07292C23.7501 8.97194 21.7538 9.57005 21.0159 10.9527Z" fill="#230753"/>
<path d="M77.0049 34.8308C78.7681 36.4464 80.2129 37.9844 81.3004 39.3982C80.5159 37.8524 79.141 36.0891 77.2612 34.186C77.168 34.4035 77.0903 34.621 77.0049 34.8308Z" fill="#FF619D"/>
<path opacity="0.15" d="M86.4039 41.961C87.6157 44.1981 87.9342 46.1245 87.1652 47.5615C85.0213 51.5852 75.0243 50.7308 62.2697 46.1012C57.0498 44.2059 51.3717 41.6814 45.577 38.5976C38.7026 34.9313 32.5661 30.962 27.5948 27.1015C23.0196 23.5361 19.4387 20.0639 17.1938 17.0112C19.1202 20.5611 23.3148 24.911 29.0939 29.4085C34.0575 33.269 40.194 37.2383 47.0761 40.9046C52.8708 43.9884 58.549 46.5129 63.7689 48.4082C76.5234 53.0378 86.5204 53.8922 88.6566 49.8685C89.6741 47.9655 88.7886 45.2002 86.4039 41.961Z" fill="#230753"/>
<path d="M32.7455 11.9312C32.7377 11.9312 32.7377 11.9312 32.7455 11.9312C32.7219 11.9548 32.7062 11.9784 32.6904 12.002C32.7062 11.9784 32.7219 11.9548 32.7455 11.9312Z" fill="url(#paint5_linear)"/>
<path d="M32.7455 11.9312C32.7377 11.9312 32.7377 11.9312 32.7455 11.9312C32.7219 11.9548 32.7062 11.9784 32.6904 12.002C32.7062 11.9784 32.7219 11.9548 32.7455 11.9312Z" fill="url(#paint6_linear)"/>
<path d="M76.6167 35.7472C76.7565 35.4443 76.8808 35.1413 77.0051 34.8306C76.974 34.8073 76.9507 34.7762 76.9196 34.7529C76.8497 35.0947 76.7487 35.4287 76.6167 35.7472Z" fill="url(#paint7_linear)"/>
<path d="M76.6167 35.7472C76.7565 35.4443 76.8808 35.1413 77.0051 34.8306C76.974 34.8073 76.9507 34.7762 76.9196 34.7529C76.8497 35.0947 76.7487 35.4287 76.6167 35.7472Z" fill="url(#paint8_linear)"/>
</g>
<defs>
<filter id="filter0_d" x="0" y="0" width="105.072" height="85.4409" filterUnits="userSpaceOnUse" color-interpolation-filters="sRGB">
<feFlood flood-opacity="0" result="BackgroundImageFix"/>
<feColorMatrix in="SourceAlpha" type="matrix" values="0 0 0 0 0 0 0 0 0 0 0 0 0 0 0 0 0 0 127 0" result="hardAlpha"/>
<feOffset dy="17"/>
<feGaussianBlur stdDeviation="8"/>
<feComposite in2="hardAlpha" operator="out"/>
<feColorMatrix type="matrix" values="0 0 0 0 0 0 0 0 0 0.0875 0 0 0 0 0.3125 0 0 0 0.12 0"/>
<feBlend mode="normal" in2="BackgroundImageFix" result="effect1_dropShadow"/>
<feBlend mode="normal" in="SourceGraphic" in2="effect1_dropShadow" result="shape"/>
</filter>
<linearGradient id="paint0_linear" x1="28.7757" y1="25.4456" x2="78.8364" y2="25.4456" gradientUnits="userSpaceOnUse">
<stop stop-color="#FF247E"/>
<stop offset="1" stop-color="#C20768"/>
</linearGradient>
<linearGradient id="paint1_linear" x1="27.6835" y1="44.6439" x2="31.7266" y2="44.6439" gradientUnits="userSpaceOnUse">
<stop stop-color="#FF247E"/>
<stop offset="1" stop-color="#C20768"/>
</linearGradient>
<linearGradient id="paint2_linear" x1="48.0465" y1="11.461" x2="78.6288" y2="11.461" gradientUnits="userSpaceOnUse">
<stop stop-color="#FF247E"/>
<stop offset="1" stop-color="#C20768"/>
</linearGradient>
<linearGradient id="paint3_linear" x1="17.8906" y1="4.88595" x2="92.1023" y2="44.4119" gradientUnits="userSpaceOnUse">
<stop stop-color="#F1C13B"/>
<stop offset="1" stop-color="#FF1200"/>
</linearGradient>
<linearGradient id="paint4_linear" x1="19.468" y1="5.58277" x2="91.9299" y2="44.1772" gradientUnits="userSpaceOnUse">
<stop stop-color="#F1C13B"/>
<stop offset="1" stop-color="#FF1200"/>
</linearGradient>
<linearGradient id="paint5_linear" x1="19.6916" y1="5.03235" x2="92.4607" y2="43.7901" gradientUnits="userSpaceOnUse">
<stop stop-color="#F1C13B"/>
<stop offset="1" stop-color="#FF1200"/>
</linearGradient>
<linearGradient id="paint6_linear" x1="25.2437" y1="7.98951" x2="86.4037" y2="40.5641" gradientUnits="userSpaceOnUse">
<stop stop-color="#F1C13B"/>
<stop offset="1" stop-color="#FF1200"/>
</linearGradient>
<linearGradient id="paint7_linear" x1="20.0049" y1="5.01779" x2="92.0595" y2="43.3953" gradientUnits="userSpaceOnUse">
<stop stop-color="#F1C13B"/>
<stop offset="1" stop-color="#FF1200"/>
</linearGradient>
<linearGradient id="paint8_linear" x1="25.5025" y1="7.94589" x2="86.062" y2="40.201" gradientUnits="userSpaceOnUse">
<stop stop-color="#F1C13B"/>
<stop offset="1" stop-color="#FF1200"/>
</linearGradient>
</defs>
</svg>
