<svg width="331" height="304" viewBox="0 0 331 304" fill="none" xmlns="http://www.w3.org/2000/svg">
<path d="M5.07389 8.84373C7.53682 8.84373 9.50716 6.87845 9.50716 4.42186C9.50716 1.96527 7.53682 0 5.07389 0C2.61097 0 0.640625 1.96527 0.640625 4.42186C0.640625 6.87845 2.61097 8.84373 5.07389 8.84373Z" fill="#EFEFEF"/>
<path d="M29.7038 8.84373C32.1667 8.84373 34.137 6.87845 34.137 4.42186C34.137 1.96527 32.1667 0 29.7038 0C27.2408 0 25.2705 1.96527 25.2705 4.42186C25.2705 6.87845 27.2408 8.84373 29.7038 8.84373Z" fill="#EFEFEF"/>
<path d="M54.3317 8.84373C56.7946 8.84373 58.765 6.87845 58.765 4.42186C58.765 1.96527 56.7946 0 54.3317 0C51.8688 0 49.8984 1.96527 49.8984 4.42186C49.8984 6.87845 51.8688 8.84373 54.3317 8.84373Z" fill="#EFEFEF"/>
<path d="M78.9606 8.84373C81.4235 8.84373 83.3939 6.87845 83.3939 4.42186C83.3939 1.96527 81.4235 0 78.9606 0C76.4977 0 74.5273 1.96527 74.5273 4.42186C74.5273 6.87845 76.4977 8.84373 78.9606 8.84373Z" fill="#EFEFEF"/>
<path d="M103.591 8.84373C106.054 8.84373 108.025 6.87845 108.025 4.42186C108.025 1.96527 106.054 0 103.591 0C101.129 0 99.1582 1.96527 99.1582 4.42186C99.1582 6.87845 101.129 8.84373 103.591 8.84373Z" fill="#EFEFEF"/>
<path d="M128.22 8.84373C130.683 8.84373 132.654 6.87845 132.654 4.42186C132.654 1.96527 130.683 0 128.22 0C125.757 0 123.787 1.96527 123.787 4.42186C123.787 6.87845 125.757 8.84373 128.22 8.84373Z" fill="#EFEFEF"/>
<path d="M152.849 8.84373C155.312 8.84373 157.283 6.87845 157.283 4.42186C157.283 1.96527 155.312 0 152.849 0C150.386 0 148.416 1.96527 148.416 4.42186C148.416 6.87845 150.386 8.84373 152.849 8.84373Z" fill="#EFEFEF"/>
<path d="M5.07389 33.4096C7.53682 33.4096 9.50716 31.4444 9.50716 28.9878C9.50716 26.5312 7.53682 24.5659 5.07389 24.5659C2.61097 24.5659 0.640625 26.5312 0.640625 28.9878C0.640625 31.4444 2.61097 33.4096 5.07389 33.4096Z" fill="#EFEFEF"/>
<path d="M29.7038 33.4096C32.1667 33.4096 34.137 31.4444 34.137 28.9878C34.137 26.5312 32.1667 24.5659 29.7038 24.5659C27.2408 24.5659 25.2705 26.5312 25.2705 28.9878C25.2705 31.4444 27.2408 33.4096 29.7038 33.4096Z" fill="#EFEFEF"/>
<path d="M54.3317 33.4096C56.7946 33.4096 58.765 31.4444 58.765 28.9878C58.765 26.5312 56.7946 24.5659 54.3317 24.5659C51.8688 24.5659 49.8984 26.5312 49.8984 28.9878C49.8984 31.4444 51.8688 33.4096 54.3317 33.4096Z" fill="#EFEFEF"/>
<path d="M78.9606 33.4096C81.4235 33.4096 83.3939 31.4444 83.3939 28.9878C83.3939 26.5312 81.4235 24.5659 78.9606 24.5659C76.4977 24.5659 74.5273 26.5312 74.5273 28.9878C74.5273 31.4444 76.4977 33.4096 78.9606 33.4096Z" fill="#EFEFEF"/>
<path d="M103.591 33.4096C106.054 33.4096 108.025 31.4444 108.025 28.9878C108.025 26.5312 106.054 24.5659 103.591 24.5659C101.129 24.5659 99.1582 26.5312 99.1582 28.9878C99.1582 31.4444 101.129 33.4096 103.591 33.4096Z" fill="#EFEFEF"/>
<path d="M128.22 33.4096C130.683 33.4096 132.654 31.4444 132.654 28.9878C132.654 26.5312 130.683 24.5659 128.22 24.5659C125.757 24.5659 123.787 26.5312 123.787 28.9878C123.787 31.4444 125.757 33.4096 128.22 33.4096Z" fill="#EFEFEF"/>
<path d="M152.849 33.4096C155.312 33.4096 157.283 31.4444 157.283 28.9878C157.283 26.5312 155.312 24.5659 152.849 24.5659C150.386 24.5659 148.416 26.5312 148.416 28.9878C148.416 31.4444 150.386 33.4096 152.849 33.4096Z" fill="#EFEFEF"/>
<path d="M5.07389 57.9753C7.53682 57.9753 9.50716 56.01 9.50716 53.5535C9.50716 51.0969 7.53682 49.1316 5.07389 49.1316C2.61097 49.1316 0.640625 51.0969 0.640625 53.5535C0.640625 56.01 2.61097 57.9753 5.07389 57.9753Z" fill="#EFEFEF"/>
<path d="M29.7038 57.9753C32.1667 57.9753 34.137 56.01 34.137 53.5535C34.137 51.0969 32.1667 49.1316 29.7038 49.1316C27.2408 49.1316 25.2705 51.0969 25.2705 53.5535C25.2705 56.01 27.2408 57.9753 29.7038 57.9753Z" fill="#EFEFEF"/>
<path d="M54.3317 57.9753C56.7946 57.9753 58.765 56.01 58.765 53.5535C58.765 51.0969 56.7946 49.1316 54.3317 49.1316C51.8688 49.1316 49.8984 51.0969 49.8984 53.5535C49.8984 56.01 51.8688 57.9753 54.3317 57.9753Z" fill="#EFEFEF"/>
<path d="M78.9606 57.9753C81.4235 57.9753 83.3939 56.01 83.3939 53.5535C83.3939 51.0969 81.4235 49.1316 78.9606 49.1316C76.4977 49.1316 74.5273 51.0969 74.5273 53.5535C74.5273 56.01 76.4977 57.9753 78.9606 57.9753Z" fill="#EFEFEF"/>
<path d="M103.591 57.9753C106.054 57.9753 108.025 56.01 108.025 53.5535C108.025 51.0969 106.054 49.1316 103.591 49.1316C101.129 49.1316 99.1582 51.0969 99.1582 53.5535C99.1582 56.01 101.129 57.9753 103.591 57.9753Z" fill="#EFEFEF"/>
<path d="M128.22 57.9753C130.683 57.9753 132.654 56.01 132.654 53.5535C132.654 51.0969 130.683 49.1316 128.22 49.1316C125.757 49.1316 123.787 51.0969 123.787 53.5535C123.787 56.01 125.757 57.9753 128.22 57.9753Z" fill="#EFEFEF"/>
<path d="M152.849 57.9753C155.312 57.9753 157.283 56.01 157.283 53.5535C157.283 51.0969 155.312 49.1316 152.849 49.1316C150.386 49.1316 148.416 51.0969 148.416 53.5535C148.416 56.01 150.386 57.9753 152.849 57.9753Z" fill="#EFEFEF"/>
<path d="M5.07389 82.5412C7.53682 82.5412 9.50716 80.576 9.50716 78.1194C9.50716 75.6628 7.53682 73.6975 5.07389 73.6975C2.61097 73.6975 0.640625 75.6628 0.640625 78.1194C0.640625 80.576 2.61097 82.5412 5.07389 82.5412Z" fill="#EFEFEF"/>
<path d="M29.7038 82.5412C32.1667 82.5412 34.137 80.576 34.137 78.1194C34.137 75.6628 32.1667 73.6975 29.7038 73.6975C27.2408 73.6975 25.2705 75.6628 25.2705 78.1194C25.2705 80.576 27.2408 82.5412 29.7038 82.5412Z" fill="#EFEFEF"/>
<path d="M54.3317 82.5412C56.7946 82.5412 58.765 80.576 58.765 78.1194C58.765 75.6628 56.7946 73.6975 54.3317 73.6975C51.8688 73.6975 49.8984 75.6628 49.8984 78.1194C49.8984 80.576 51.8688 82.5412 54.3317 82.5412Z" fill="#EFEFEF"/>
<path d="M78.9606 82.5412C81.4235 82.5412 83.3939 80.576 83.3939 78.1194C83.3939 75.6628 81.4235 73.6975 78.9606 73.6975C76.4977 73.6975 74.5273 75.6628 74.5273 78.1194C74.5273 80.576 76.4977 82.5412 78.9606 82.5412Z" fill="#EFEFEF"/>
<path d="M103.591 82.5412C106.054 82.5412 108.025 80.576 108.025 78.1194C108.025 75.6628 106.054 73.6975 103.591 73.6975C101.129 73.6975 99.1582 75.6628 99.1582 78.1194C99.1582 80.576 101.129 82.5412 103.591 82.5412Z" fill="#EFEFEF"/>
<path d="M128.22 82.5412C130.683 82.5412 132.654 80.576 132.654 78.1194C132.654 75.6628 130.683 73.6975 128.22 73.6975C125.757 73.6975 123.787 75.6628 123.787 78.1194C123.787 80.576 125.757 82.5412 128.22 82.5412Z" fill="#EFEFEF"/>
<path d="M152.849 82.5412C155.312 82.5412 157.283 80.576 157.283 78.1194C157.283 75.6628 155.312 73.6975 152.849 73.6975C150.386 73.6975 148.416 75.6628 148.416 78.1194C148.416 80.576 150.386 82.5412 152.849 82.5412Z" fill="#EFEFEF"/>
<path d="M5.07389 107.108C7.53682 107.108 9.50716 105.142 9.50716 102.686C9.50716 100.229 7.53682 98.2639 5.07389 98.2639C2.61097 98.2639 0.640625 100.229 0.640625 102.686C0.640625 105.142 2.61097 107.108 5.07389 107.108Z" fill="#EFEFEF"/>
<path d="M29.7038 107.108C32.1667 107.108 34.137 105.142 34.137 102.686C34.137 100.229 32.1667 98.2639 29.7038 98.2639C27.2408 98.2639 25.2705 100.229 25.2705 102.686C25.2705 105.142 27.2408 107.108 29.7038 107.108Z" fill="#EFEFEF"/>
<path d="M54.3317 107.108C56.7946 107.108 58.765 105.142 58.765 102.686C58.765 100.229 56.7946 98.2639 54.3317 98.2639C51.8688 98.2639 49.8984 100.229 49.8984 102.686C49.8984 105.142 51.8688 107.108 54.3317 107.108Z" fill="#EFEFEF"/>
<path d="M78.9606 107.108C81.4235 107.108 83.3939 105.142 83.3939 102.686C83.3939 100.229 81.4235 98.2639 78.9606 98.2639C76.4977 98.2639 74.5273 100.229 74.5273 102.686C74.5273 105.142 76.4977 107.108 78.9606 107.108Z" fill="#EFEFEF"/>
<path d="M103.591 107.108C106.054 107.108 108.025 105.142 108.025 102.686C108.025 100.229 106.054 98.2639 103.591 98.2639C101.129 98.2639 99.1582 100.229 99.1582 102.686C99.1582 105.142 101.129 107.108 103.591 107.108Z" fill="#EFEFEF"/>
<path d="M128.22 107.108C130.683 107.108 132.654 105.142 132.654 102.686C132.654 100.229 130.683 98.2639 128.22 98.2639C125.757 98.2639 123.787 100.229 123.787 102.686C123.787 105.142 125.757 107.108 128.22 107.108Z" fill="#EFEFEF"/>
<path d="M152.849 107.108C155.312 107.108 157.283 105.142 157.283 102.686C157.283 100.229 155.312 98.2639 152.849 98.2639C150.386 98.2639 148.416 100.229 148.416 102.686C148.416 105.142 150.386 107.108 152.849 107.108Z" fill="#EFEFEF"/>
<path d="M5.07389 131.674C7.53682 131.674 9.50716 129.708 9.50716 127.252C9.50716 124.795 7.53682 122.83 5.07389 122.83C2.61097 122.83 0.640625 124.795 0.640625 127.252C0.640625 129.708 2.61097 131.674 5.07389 131.674Z" fill="#EFEFEF"/>
<path d="M29.7038 131.674C32.1667 131.674 34.137 129.708 34.137 127.252C34.137 124.795 32.1667 122.83 29.7038 122.83C27.2408 122.83 25.2705 124.795 25.2705 127.252C25.2705 129.708 27.2408 131.674 29.7038 131.674Z" fill="#EFEFEF"/>
<path d="M54.3317 131.674C56.7946 131.674 58.765 129.708 58.765 127.252C58.765 124.795 56.7946 122.83 54.3317 122.83C51.8688 122.83 49.8984 124.795 49.8984 127.252C49.8984 129.708 51.8688 131.674 54.3317 131.674Z" fill="#EFEFEF"/>
<path d="M78.9606 131.674C81.4235 131.674 83.3939 129.708 83.3939 127.252C83.3939 124.795 81.4235 122.83 78.9606 122.83C76.4977 122.83 74.5273 124.795 74.5273 127.252C74.5273 129.708 76.4977 131.674 78.9606 131.674Z" fill="#EFEFEF"/>
<path d="M103.591 131.674C106.054 131.674 108.025 129.708 108.025 127.252C108.025 124.795 106.054 122.83 103.591 122.83C101.129 122.83 99.1582 124.795 99.1582 127.252C99.1582 129.708 101.129 131.674 103.591 131.674Z" fill="#EFEFEF"/>
<path d="M128.22 131.674C130.683 131.674 132.654 129.708 132.654 127.252C132.654 124.795 130.683 122.83 128.22 122.83C125.757 122.83 123.787 124.795 123.787 127.252C123.787 129.708 125.757 131.674 128.22 131.674Z" fill="#EFEFEF"/>
<path d="M152.849 131.674C155.312 131.674 157.283 129.708 157.283 127.252C157.283 124.795 155.312 122.83 152.849 122.83C150.386 122.83 148.416 124.795 148.416 127.252C148.416 129.708 150.386 131.674 152.849 131.674Z" fill="#EFEFEF"/>
<path d="M5.07389 156.239C7.53682 156.239 9.50716 154.274 9.50716 151.817C9.50716 149.361 7.53682 147.395 5.07389 147.395C2.61097 147.395 0.640625 149.361 0.640625 151.817C0.640625 154.274 2.61097 156.239 5.07389 156.239Z" fill="#EFEFEF"/>
<path d="M29.7038 156.239C32.1667 156.239 34.137 154.274 34.137 151.817C34.137 149.361 32.1667 147.395 29.7038 147.395C27.2408 147.395 25.2705 149.361 25.2705 151.817C25.2705 154.274 27.2408 156.239 29.7038 156.239Z" fill="#EFEFEF"/>
<path d="M54.3317 156.239C56.7946 156.239 58.765 154.274 58.765 151.817C58.765 149.361 56.7946 147.395 54.3317 147.395C51.8688 147.395 49.8984 149.361 49.8984 151.817C49.8984 154.274 51.8688 156.239 54.3317 156.239Z" fill="#EFEFEF"/>
<path d="M78.9606 156.239C81.4235 156.239 83.3939 154.274 83.3939 151.817C83.3939 149.361 81.4235 147.395 78.9606 147.395C76.4977 147.395 74.5273 149.361 74.5273 151.817C74.5273 154.274 76.4977 156.239 78.9606 156.239Z" fill="#EFEFEF"/>
<path d="M103.591 156.239C106.054 156.239 108.025 154.274 108.025 151.817C108.025 149.361 106.054 147.395 103.591 147.395C101.129 147.395 99.1582 149.361 99.1582 151.817C99.1582 154.274 101.129 156.239 103.591 156.239Z" fill="#EFEFEF"/>
<path d="M128.22 156.239C130.683 156.239 132.654 154.274 132.654 151.817C132.654 149.361 130.683 147.395 128.22 147.395C125.757 147.395 123.787 149.361 123.787 151.817C123.787 154.274 125.757 156.239 128.22 156.239Z" fill="#EFEFEF"/>
<path d="M152.849 156.239C155.312 156.239 157.283 154.274 157.283 151.817C157.283 149.361 155.312 147.395 152.849 147.395C150.386 147.395 148.416 149.361 148.416 151.817C148.416 154.274 150.386 156.239 152.849 156.239Z" fill="#EFEFEF"/>
<path d="M5.07389 180.805C7.53682 180.805 9.50716 178.84 9.50716 176.383C9.50716 173.927 7.53682 171.961 5.07389 171.961C2.61097 171.961 0.640625 173.927 0.640625 176.383C0.640625 178.84 2.61097 180.805 5.07389 180.805Z" fill="#EFEFEF"/>
<path d="M29.7038 180.805C32.1667 180.805 34.137 178.84 34.137 176.383C34.137 173.927 32.1667 171.961 29.7038 171.961C27.2408 171.961 25.2705 173.927 25.2705 176.383C25.2705 178.84 27.2408 180.805 29.7038 180.805Z" fill="#EFEFEF"/>
<path d="M54.3317 180.805C56.7946 180.805 58.765 178.84 58.765 176.383C58.765 173.927 56.7946 171.961 54.3317 171.961C51.8688 171.961 49.8984 173.927 49.8984 176.383C49.8984 178.84 51.8688 180.805 54.3317 180.805Z" fill="#EFEFEF"/>
<path d="M78.9606 180.805C81.4235 180.805 83.3939 178.84 83.3939 176.383C83.3939 173.927 81.4235 171.961 78.9606 171.961C76.4977 171.961 74.5273 173.927 74.5273 176.383C74.5273 178.84 76.4977 180.805 78.9606 180.805Z" fill="#EFEFEF"/>
<path d="M103.591 180.805C106.054 180.805 108.025 178.84 108.025 176.383C108.025 173.927 106.054 171.961 103.591 171.961C101.129 171.961 99.1582 173.927 99.1582 176.383C99.1582 178.84 101.129 180.805 103.591 180.805Z" fill="#EFEFEF"/>
<path d="M128.22 180.805C130.683 180.805 132.654 178.84 132.654 176.383C132.654 173.927 130.683 171.961 128.22 171.961C125.757 171.961 123.787 173.927 123.787 176.383C123.787 178.84 125.757 180.805 128.22 180.805Z" fill="#EFEFEF"/>
<path d="M152.849 180.805C155.312 180.805 157.283 178.84 157.283 176.383C157.283 173.927 155.312 171.961 152.849 171.961C150.386 171.961 148.416 173.927 148.416 176.383C148.416 178.84 150.386 180.805 152.849 180.805Z" fill="#EFEFEF"/>
<path d="M5.07389 205.371C7.53682 205.371 9.50716 203.406 9.50716 200.949C9.50716 198.493 7.53682 196.527 5.07389 196.527C2.61097 196.527 0.640625 198.493 0.640625 200.949C0.640625 203.406 2.61097 205.371 5.07389 205.371Z" fill="#EFEFEF"/>
<path d="M29.7038 205.371C32.1667 205.371 34.137 203.406 34.137 200.949C34.137 198.493 32.1667 196.527 29.7038 196.527C27.2408 196.527 25.2705 198.493 25.2705 200.949C25.2705 203.406 27.2408 205.371 29.7038 205.371Z" fill="#EFEFEF"/>
<path d="M54.3317 205.371C56.7946 205.371 58.765 203.406 58.765 200.949C58.765 198.493 56.7946 196.527 54.3317 196.527C51.8688 196.527 49.8984 198.493 49.8984 200.949C49.8984 203.406 51.8688 205.371 54.3317 205.371Z" fill="#EFEFEF"/>
<path d="M78.9606 205.371C81.4235 205.371 83.3939 203.406 83.3939 200.949C83.3939 198.493 81.4235 196.527 78.9606 196.527C76.4977 196.527 74.5273 198.493 74.5273 200.949C74.5273 203.406 76.4977 205.371 78.9606 205.371Z" fill="#EFEFEF"/>
<path d="M103.591 205.371C106.054 205.371 108.025 203.406 108.025 200.949C108.025 198.493 106.054 196.527 103.591 196.527C101.129 196.527 99.1582 198.493 99.1582 200.949C99.1582 203.406 101.129 205.371 103.591 205.371Z" fill="#EFEFEF"/>
<path d="M128.22 205.371C130.683 205.371 132.654 203.406 132.654 200.949C132.654 198.493 130.683 196.527 128.22 196.527C125.757 196.527 123.787 198.493 123.787 200.949C123.787 203.406 125.757 205.371 128.22 205.371Z" fill="#EFEFEF"/>
<path d="M152.849 205.371C155.312 205.371 157.283 203.406 157.283 200.949C157.283 198.493 155.312 196.527 152.849 196.527C150.386 196.527 148.416 198.493 148.416 200.949C148.416 203.406 150.386 205.371 152.849 205.371Z" fill="#EFEFEF"/>
<path d="M5.07389 229.937C7.53682 229.937 9.50716 227.972 9.50716 225.515C9.50716 223.059 7.53682 221.093 5.07389 221.093C2.61097 221.093 0.640625 223.059 0.640625 225.515C0.640625 227.972 2.61097 229.937 5.07389 229.937Z" fill="#EFEFEF"/>
<path d="M29.7038 229.937C32.1667 229.937 34.137 227.972 34.137 225.515C34.137 223.059 32.1667 221.093 29.7038 221.093C27.2408 221.093 25.2705 223.059 25.2705 225.515C25.2705 227.972 27.2408 229.937 29.7038 229.937Z" fill="#EFEFEF"/>
<path d="M54.3317 229.937C56.7946 229.937 58.765 227.972 58.765 225.515C58.765 223.059 56.7946 221.093 54.3317 221.093C51.8688 221.093 49.8984 223.059 49.8984 225.515C49.8984 227.972 51.8688 229.937 54.3317 229.937Z" fill="#EFEFEF"/>
<path d="M78.9606 229.937C81.4235 229.937 83.3939 227.972 83.3939 225.515C83.3939 223.059 81.4235 221.093 78.9606 221.093C76.4977 221.093 74.5273 223.059 74.5273 225.515C74.5273 227.972 76.4977 229.937 78.9606 229.937Z" fill="#EFEFEF"/>
<path d="M103.591 229.937C106.054 229.937 108.025 227.972 108.025 225.515C108.025 223.059 106.054 221.093 103.591 221.093C101.129 221.093 99.1582 223.059 99.1582 225.515C99.1582 227.972 101.129 229.937 103.591 229.937Z" fill="#EFEFEF"/>
<path d="M128.22 229.937C130.683 229.937 132.654 227.972 132.654 225.515C132.654 223.059 130.683 221.093 128.22 221.093C125.757 221.093 123.787 223.059 123.787 225.515C123.787 227.972 125.757 229.937 128.22 229.937Z" fill="#EFEFEF"/>
<path d="M152.849 229.937C155.312 229.937 157.283 227.972 157.283 225.515C157.283 223.059 155.312 221.093 152.849 221.093C150.386 221.093 148.416 223.059 148.416 225.515C148.416 227.972 150.386 229.937 152.849 229.937Z" fill="#EFEFEF"/>
<path d="M5.07389 254.503C7.53682 254.503 9.50716 252.537 9.50716 250.081C9.50716 247.624 7.53682 245.659 5.07389 245.659C2.61097 245.659 0.640625 247.624 0.640625 250.081C0.640625 252.537 2.61097 254.503 5.07389 254.503Z" fill="#EFEFEF"/>
<path d="M29.7038 254.503C32.1667 254.503 34.137 252.537 34.137 250.081C34.137 247.624 32.1667 245.659 29.7038 245.659C27.2408 245.659 25.2705 247.624 25.2705 250.081C25.2705 252.537 27.2408 254.503 29.7038 254.503Z" fill="#EFEFEF"/>
<path d="M54.3317 254.503C56.7946 254.503 58.765 252.537 58.765 250.081C58.765 247.624 56.7946 245.659 54.3317 245.659C51.8688 245.659 49.8984 247.624 49.8984 250.081C49.8984 252.537 51.8688 254.503 54.3317 254.503Z" fill="#EFEFEF"/>
<path d="M78.9606 254.503C81.4235 254.503 83.3939 252.537 83.3939 250.081C83.3939 247.624 81.4235 245.659 78.9606 245.659C76.4977 245.659 74.5273 247.624 74.5273 250.081C74.5273 252.537 76.4977 254.503 78.9606 254.503Z" fill="#EFEFEF"/>
<path d="M103.591 254.503C106.054 254.503 108.025 252.537 108.025 250.081C108.025 247.624 106.054 245.659 103.591 245.659C101.129 245.659 99.1582 247.624 99.1582 250.081C99.1582 252.537 101.129 254.503 103.591 254.503Z" fill="#EFEFEF"/>
<path d="M128.22 254.503C130.683 254.503 132.654 252.537 132.654 250.081C132.654 247.624 130.683 245.659 128.22 245.659C125.757 245.659 123.787 247.624 123.787 250.081C123.787 252.537 125.757 254.503 128.22 254.503Z" fill="#EFEFEF"/>
<path d="M152.849 254.503C155.312 254.503 157.283 252.537 157.283 250.081C157.283 247.624 155.312 245.659 152.849 245.659C150.386 245.659 148.416 247.624 148.416 250.081C148.416 252.537 150.386 254.503 152.849 254.503Z" fill="#EFEFEF"/>
<path d="M5.07389 279.068C7.53682 279.068 9.50716 277.103 9.50716 274.646C9.50716 272.19 7.53682 270.225 5.07389 270.225C2.61097 270.225 0.640625 272.19 0.640625 274.646C0.640625 277.103 2.61097 279.068 5.07389 279.068Z" fill="#EFEFEF"/>
<path d="M29.7038 279.068C32.1667 279.068 34.137 277.103 34.137 274.646C34.137 272.19 32.1667 270.225 29.7038 270.225C27.2408 270.225 25.2705 272.19 25.2705 274.646C25.2705 277.103 27.2408 279.068 29.7038 279.068Z" fill="#EFEFEF"/>
<path d="M54.3317 279.068C56.7946 279.068 58.765 277.103 58.765 274.646C58.765 272.19 56.7946 270.225 54.3317 270.225C51.8688 270.225 49.8984 272.19 49.8984 274.646C49.8984 277.103 51.8688 279.068 54.3317 279.068Z" fill="#EFEFEF"/>
<path d="M78.9606 279.068C81.4235 279.068 83.3939 277.103 83.3939 274.646C83.3939 272.19 81.4235 270.225 78.9606 270.225C76.4977 270.225 74.5273 272.19 74.5273 274.646C74.5273 277.103 76.4977 279.068 78.9606 279.068Z" fill="#EFEFEF"/>
<path d="M103.591 279.068C106.054 279.068 108.025 277.103 108.025 274.646C108.025 272.19 106.054 270.225 103.591 270.225C101.129 270.225 99.1582 272.19 99.1582 274.646C99.1582 277.103 101.129 279.068 103.591 279.068Z" fill="#EFEFEF"/>
<path d="M128.22 279.068C130.683 279.068 132.654 277.103 132.654 274.646C132.654 272.19 130.683 270.225 128.22 270.225C125.757 270.225 123.787 272.19 123.787 274.646C123.787 277.103 125.757 279.068 128.22 279.068Z" fill="#EFEFEF"/>
<path d="M152.849 279.068C155.312 279.068 157.283 277.103 157.283 274.646C157.283 272.19 155.312 270.225 152.849 270.225C150.386 270.225 148.416 272.19 148.416 274.646C148.416 277.103 150.386 279.068 152.849 279.068Z" fill="#EFEFEF"/>
<path d="M5.07389 303.635C7.53682 303.635 9.50716 301.669 9.50716 299.213C9.50716 296.756 7.53682 294.791 5.07389 294.791C2.61097 294.791 0.640625 296.756 0.640625 299.213C0.640625 301.669 2.61097 303.635 5.07389 303.635Z" fill="#EFEFEF"/>
<path d="M29.7038 303.635C32.1667 303.635 34.137 301.669 34.137 299.213C34.137 296.756 32.1667 294.791 29.7038 294.791C27.2408 294.791 25.2705 296.756 25.2705 299.213C25.2705 301.669 27.2408 303.635 29.7038 303.635Z" fill="#EFEFEF"/>
<path d="M54.3317 303.635C56.7946 303.635 58.765 301.669 58.765 299.213C58.765 296.756 56.7946 294.791 54.3317 294.791C51.8688 294.791 49.8984 296.756 49.8984 299.213C49.8984 301.669 51.8688 303.635 54.3317 303.635Z" fill="#EFEFEF"/>
<path d="M78.9606 303.635C81.4235 303.635 83.3939 301.669 83.3939 299.213C83.3939 296.756 81.4235 294.791 78.9606 294.791C76.4977 294.791 74.5273 296.756 74.5273 299.213C74.5273 301.669 76.4977 303.635 78.9606 303.635Z" fill="#EFEFEF"/>
<path d="M103.591 303.635C106.054 303.635 108.025 301.669 108.025 299.213C108.025 296.756 106.054 294.791 103.591 294.791C101.129 294.791 99.1582 296.756 99.1582 299.213C99.1582 301.669 101.129 303.635 103.591 303.635Z" fill="#EFEFEF"/>
<path d="M128.22 303.635C130.683 303.635 132.654 301.669 132.654 299.213C132.654 296.756 130.683 294.791 128.22 294.791C125.757 294.791 123.787 296.756 123.787 299.213C123.787 301.669 125.757 303.635 128.22 303.635Z" fill="#EFEFEF"/>
<path d="M152.849 303.635C155.312 303.635 157.283 301.669 157.283 299.213C157.283 296.756 155.312 294.791 152.849 294.791C150.386 294.791 148.416 296.756 148.416 299.213C148.416 301.669 150.386 303.635 152.849 303.635Z" fill="#EFEFEF"/>
<path d="M178.791 8.84373C181.254 8.84373 183.224 6.87845 183.224 4.42186C183.224 1.96527 181.254 0 178.791 0C176.328 0 174.357 1.96527 174.357 4.42186C174.357 6.87845 176.328 8.84373 178.791 8.84373Z" fill="#EFEFEF"/>
<path d="M203.42 8.84373C205.883 8.84373 207.853 6.87845 207.853 4.42186C207.853 1.96527 205.883 0 203.42 0C200.957 0 198.986 1.96527 198.986 4.42186C198.986 6.87845 200.957 8.84373 203.42 8.84373Z" fill="#EFEFEF"/>
<path d="M228.049 8.84373C230.511 8.84373 232.482 6.87845 232.482 4.42186C232.482 1.96527 230.511 0 228.049 0C225.586 0 223.615 1.96527 223.615 4.42186C223.615 6.87845 225.586 8.84373 228.049 8.84373Z" fill="#EFEFEF"/>
<path d="M252.677 8.84373C255.14 8.84373 257.111 6.87845 257.111 4.42186C257.111 1.96527 255.14 0 252.677 0C250.214 0 248.244 1.96527 248.244 4.42186C248.244 6.87845 250.214 8.84373 252.677 8.84373Z" fill="#EFEFEF"/>
<path d="M277.308 8.84373C279.771 8.84373 281.742 6.87845 281.742 4.42186C281.742 1.96527 279.771 0 277.308 0C274.845 0 272.875 1.96527 272.875 4.42186C272.875 6.87845 274.845 8.84373 277.308 8.84373Z" fill="#EFEFEF"/>
<path d="M301.937 8.84373C304.4 8.84373 306.37 6.87845 306.37 4.42186C306.37 1.96527 304.4 0 301.937 0C299.474 0 297.504 1.96527 297.504 4.42186C297.504 6.87845 299.474 8.84373 301.937 8.84373Z" fill="#EFEFEF"/>
<path d="M326.567 8.84373C329.03 8.84373 331 6.87845 331 4.42186C331 1.96527 329.03 0 326.567 0C324.104 0 322.134 1.96527 322.134 4.42186C322.134 6.87845 324.104 8.84373 326.567 8.84373Z" fill="#EFEFEF"/>
<path d="M178.791 33.4096C181.254 33.4096 183.224 31.4444 183.224 28.9878C183.224 26.5312 181.254 24.5659 178.791 24.5659C176.328 24.5659 174.357 26.5312 174.357 28.9878C174.357 31.4444 176.328 33.4096 178.791 33.4096Z" fill="#EFEFEF"/>
<path d="M203.42 33.4096C205.883 33.4096 207.853 31.4444 207.853 28.9878C207.853 26.5312 205.883 24.5659 203.42 24.5659C200.957 24.5659 198.986 26.5312 198.986 28.9878C198.986 31.4444 200.957 33.4096 203.42 33.4096Z" fill="#EFEFEF"/>
<path d="M228.049 33.4096C230.511 33.4096 232.482 31.4444 232.482 28.9878C232.482 26.5312 230.511 24.5659 228.049 24.5659C225.586 24.5659 223.615 26.5312 223.615 28.9878C223.615 31.4444 225.586 33.4096 228.049 33.4096Z" fill="#EFEFEF"/>
<path d="M252.677 33.4096C255.14 33.4096 257.111 31.4444 257.111 28.9878C257.111 26.5312 255.14 24.5659 252.677 24.5659C250.214 24.5659 248.244 26.5312 248.244 28.9878C248.244 31.4444 250.214 33.4096 252.677 33.4096Z" fill="#EFEFEF"/>
<path d="M277.308 33.4096C279.771 33.4096 281.742 31.4444 281.742 28.9878C281.742 26.5312 279.771 24.5659 277.308 24.5659C274.845 24.5659 272.875 26.5312 272.875 28.9878C272.875 31.4444 274.845 33.4096 277.308 33.4096Z" fill="#EFEFEF"/>
<path d="M301.937 33.4096C304.4 33.4096 306.37 31.4444 306.37 28.9878C306.37 26.5312 304.4 24.5659 301.937 24.5659C299.474 24.5659 297.504 26.5312 297.504 28.9878C297.504 31.4444 299.474 33.4096 301.937 33.4096Z" fill="#EFEFEF"/>
<path d="M326.567 33.4096C329.03 33.4096 331 31.4444 331 28.9878C331 26.5312 329.03 24.5659 326.567 24.5659C324.104 24.5659 322.134 26.5312 322.134 28.9878C322.134 31.4444 324.104 33.4096 326.567 33.4096Z" fill="#EFEFEF"/>
<path d="M178.791 57.9753C181.254 57.9753 183.224 56.01 183.224 53.5535C183.224 51.0969 181.254 49.1316 178.791 49.1316C176.328 49.1316 174.357 51.0969 174.357 53.5535C174.357 56.01 176.328 57.9753 178.791 57.9753Z" fill="#EFEFEF"/>
<path d="M203.42 57.9753C205.883 57.9753 207.853 56.01 207.853 53.5535C207.853 51.0969 205.883 49.1316 203.42 49.1316C200.957 49.1316 198.986 51.0969 198.986 53.5535C198.986 56.01 200.957 57.9753 203.42 57.9753Z" fill="#EFEFEF"/>
<path d="M228.049 57.9753C230.511 57.9753 232.482 56.01 232.482 53.5535C232.482 51.0969 230.511 49.1316 228.049 49.1316C225.586 49.1316 223.615 51.0969 223.615 53.5535C223.615 56.01 225.586 57.9753 228.049 57.9753Z" fill="#EFEFEF"/>
<path d="M252.677 57.9753C255.14 57.9753 257.111 56.01 257.111 53.5535C257.111 51.0969 255.14 49.1316 252.677 49.1316C250.214 49.1316 248.244 51.0969 248.244 53.5535C248.244 56.01 250.214 57.9753 252.677 57.9753Z" fill="#EFEFEF"/>
<path d="M277.308 57.9753C279.771 57.9753 281.742 56.01 281.742 53.5535C281.742 51.0969 279.771 49.1316 277.308 49.1316C274.845 49.1316 272.875 51.0969 272.875 53.5535C272.875 56.01 274.845 57.9753 277.308 57.9753Z" fill="#EFEFEF"/>
<path d="M301.937 57.9753C304.4 57.9753 306.37 56.01 306.37 53.5535C306.37 51.0969 304.4 49.1316 301.937 49.1316C299.474 49.1316 297.504 51.0969 297.504 53.5535C297.504 56.01 299.474 57.9753 301.937 57.9753Z" fill="#EFEFEF"/>
<path d="M326.567 57.9753C329.03 57.9753 331 56.01 331 53.5535C331 51.0969 329.03 49.1316 326.567 49.1316C324.104 49.1316 322.134 51.0969 322.134 53.5535C322.134 56.01 324.104 57.9753 326.567 57.9753Z" fill="#EFEFEF"/>
<path d="M178.791 82.5412C181.254 82.5412 183.224 80.576 183.224 78.1194C183.224 75.6628 181.254 73.6975 178.791 73.6975C176.328 73.6975 174.357 75.6628 174.357 78.1194C174.357 80.576 176.328 82.5412 178.791 82.5412Z" fill="#EFEFEF"/>
<path d="M203.42 82.5412C205.883 82.5412 207.853 80.576 207.853 78.1194C207.853 75.6628 205.883 73.6975 203.42 73.6975C200.957 73.6975 198.986 75.6628 198.986 78.1194C198.986 80.576 200.957 82.5412 203.42 82.5412Z" fill="#EFEFEF"/>
<path d="M228.049 82.5412C230.511 82.5412 232.482 80.576 232.482 78.1194C232.482 75.6628 230.511 73.6975 228.049 73.6975C225.586 73.6975 223.615 75.6628 223.615 78.1194C223.615 80.576 225.586 82.5412 228.049 82.5412Z" fill="#EFEFEF"/>
<path d="M252.677 82.5412C255.14 82.5412 257.111 80.576 257.111 78.1194C257.111 75.6628 255.14 73.6975 252.677 73.6975C250.214 73.6975 248.244 75.6628 248.244 78.1194C248.244 80.576 250.214 82.5412 252.677 82.5412Z" fill="#EFEFEF"/>
<path d="M277.308 82.5412C279.771 82.5412 281.742 80.576 281.742 78.1194C281.742 75.6628 279.771 73.6975 277.308 73.6975C274.845 73.6975 272.875 75.6628 272.875 78.1194C272.875 80.576 274.845 82.5412 277.308 82.5412Z" fill="#EFEFEF"/>
<path d="M301.937 82.5412C304.4 82.5412 306.37 80.576 306.37 78.1194C306.37 75.6628 304.4 73.6975 301.937 73.6975C299.474 73.6975 297.504 75.6628 297.504 78.1194C297.504 80.576 299.474 82.5412 301.937 82.5412Z" fill="#EFEFEF"/>
<path d="M326.567 82.5412C329.03 82.5412 331 80.576 331 78.1194C331 75.6628 329.03 73.6975 326.567 73.6975C324.104 73.6975 322.134 75.6628 322.134 78.1194C322.134 80.576 324.104 82.5412 326.567 82.5412Z" fill="#EFEFEF"/>
<path d="M178.791 107.108C181.254 107.108 183.224 105.142 183.224 102.686C183.224 100.229 181.254 98.2639 178.791 98.2639C176.328 98.2639 174.357 100.229 174.357 102.686C174.357 105.142 176.328 107.108 178.791 107.108Z" fill="#EFEFEF"/>
<path d="M203.42 107.108C205.883 107.108 207.853 105.142 207.853 102.686C207.853 100.229 205.883 98.2639 203.42 98.2639C200.957 98.2639 198.986 100.229 198.986 102.686C198.986 105.142 200.957 107.108 203.42 107.108Z" fill="#EFEFEF"/>
<path d="M228.049 107.108C230.511 107.108 232.482 105.142 232.482 102.686C232.482 100.229 230.511 98.2639 228.049 98.2639C225.586 98.2639 223.615 100.229 223.615 102.686C223.615 105.142 225.586 107.108 228.049 107.108Z" fill="#EFEFEF"/>
<path d="M252.677 107.108C255.14 107.108 257.111 105.142 257.111 102.686C257.111 100.229 255.14 98.2639 252.677 98.2639C250.214 98.2639 248.244 100.229 248.244 102.686C248.244 105.142 250.214 107.108 252.677 107.108Z" fill="#EFEFEF"/>
<path d="M277.308 107.108C279.771 107.108 281.742 105.142 281.742 102.686C281.742 100.229 279.771 98.2639 277.308 98.2639C274.845 98.2639 272.875 100.229 272.875 102.686C272.875 105.142 274.845 107.108 277.308 107.108Z" fill="#EFEFEF"/>
<path d="M301.937 107.108C304.4 107.108 306.37 105.142 306.37 102.686C306.37 100.229 304.4 98.2639 301.937 98.2639C299.474 98.2639 297.504 100.229 297.504 102.686C297.504 105.142 299.474 107.108 301.937 107.108Z" fill="#EFEFEF"/>
<path d="M326.567 107.108C329.03 107.108 331 105.142 331 102.686C331 100.229 329.03 98.2639 326.567 98.2639C324.104 98.2639 322.134 100.229 322.134 102.686C322.134 105.142 324.104 107.108 326.567 107.108Z" fill="#EFEFEF"/>
<path d="M178.791 131.674C181.254 131.674 183.224 129.708 183.224 127.252C183.224 124.795 181.254 122.83 178.791 122.83C176.328 122.83 174.357 124.795 174.357 127.252C174.357 129.708 176.328 131.674 178.791 131.674Z" fill="#EFEFEF"/>
<path d="M203.42 131.674C205.883 131.674 207.853 129.708 207.853 127.252C207.853 124.795 205.883 122.83 203.42 122.83C200.957 122.83 198.986 124.795 198.986 127.252C198.986 129.708 200.957 131.674 203.42 131.674Z" fill="#EFEFEF"/>
<path d="M228.049 131.674C230.511 131.674 232.482 129.708 232.482 127.252C232.482 124.795 230.511 122.83 228.049 122.83C225.586 122.83 223.615 124.795 223.615 127.252C223.615 129.708 225.586 131.674 228.049 131.674Z" fill="#EFEFEF"/>
<path d="M252.677 131.674C255.14 131.674 257.111 129.708 257.111 127.252C257.111 124.795 255.14 122.83 252.677 122.83C250.214 122.83 248.244 124.795 248.244 127.252C248.244 129.708 250.214 131.674 252.677 131.674Z" fill="#EFEFEF"/>
<path d="M277.308 131.674C279.771 131.674 281.742 129.708 281.742 127.252C281.742 124.795 279.771 122.83 277.308 122.83C274.845 122.83 272.875 124.795 272.875 127.252C272.875 129.708 274.845 131.674 277.308 131.674Z" fill="#EFEFEF"/>
<path d="M301.937 131.674C304.4 131.674 306.37 129.708 306.37 127.252C306.37 124.795 304.4 122.83 301.937 122.83C299.474 122.83 297.504 124.795 297.504 127.252C297.504 129.708 299.474 131.674 301.937 131.674Z" fill="#EFEFEF"/>
<path d="M326.567 131.674C329.03 131.674 331 129.708 331 127.252C331 124.795 329.03 122.83 326.567 122.83C324.104 122.83 322.134 124.795 322.134 127.252C322.134 129.708 324.104 131.674 326.567 131.674Z" fill="#EFEFEF"/>
<path d="M178.791 156.239C181.254 156.239 183.224 154.274 183.224 151.817C183.224 149.361 181.254 147.395 178.791 147.395C176.328 147.395 174.357 149.361 174.357 151.817C174.357 154.274 176.328 156.239 178.791 156.239Z" fill="#EFEFEF"/>
<path d="M203.42 156.239C205.883 156.239 207.853 154.274 207.853 151.817C207.853 149.361 205.883 147.395 203.42 147.395C200.957 147.395 198.986 149.361 198.986 151.817C198.986 154.274 200.957 156.239 203.42 156.239Z" fill="#EFEFEF"/>
<path d="M228.049 156.239C230.511 156.239 232.482 154.274 232.482 151.817C232.482 149.361 230.511 147.395 228.049 147.395C225.586 147.395 223.615 149.361 223.615 151.817C223.615 154.274 225.586 156.239 228.049 156.239Z" fill="#EFEFEF"/>
<path d="M252.677 156.239C255.14 156.239 257.111 154.274 257.111 151.817C257.111 149.361 255.14 147.395 252.677 147.395C250.214 147.395 248.244 149.361 248.244 151.817C248.244 154.274 250.214 156.239 252.677 156.239Z" fill="#EFEFEF"/>
<path d="M277.308 156.239C279.771 156.239 281.742 154.274 281.742 151.817C281.742 149.361 279.771 147.395 277.308 147.395C274.845 147.395 272.875 149.361 272.875 151.817C272.875 154.274 274.845 156.239 277.308 156.239Z" fill="#EFEFEF"/>
<path d="M301.937 156.239C304.4 156.239 306.37 154.274 306.37 151.817C306.37 149.361 304.4 147.395 301.937 147.395C299.474 147.395 297.504 149.361 297.504 151.817C297.504 154.274 299.474 156.239 301.937 156.239Z" fill="#EFEFEF"/>
<path d="M326.567 156.239C329.03 156.239 331 154.274 331 151.817C331 149.361 329.03 147.395 326.567 147.395C324.104 147.395 322.134 149.361 322.134 151.817C322.134 154.274 324.104 156.239 326.567 156.239Z" fill="#EFEFEF"/>
<path d="M178.791 180.805C181.254 180.805 183.224 178.84 183.224 176.383C183.224 173.927 181.254 171.961 178.791 171.961C176.328 171.961 174.357 173.927 174.357 176.383C174.357 178.84 176.328 180.805 178.791 180.805Z" fill="#EFEFEF"/>
<path d="M203.42 180.805C205.883 180.805 207.853 178.84 207.853 176.383C207.853 173.927 205.883 171.961 203.42 171.961C200.957 171.961 198.986 173.927 198.986 176.383C198.986 178.84 200.957 180.805 203.42 180.805Z" fill="#EFEFEF"/>
<path d="M228.049 180.805C230.511 180.805 232.482 178.84 232.482 176.383C232.482 173.927 230.511 171.961 228.049 171.961C225.586 171.961 223.615 173.927 223.615 176.383C223.615 178.84 225.586 180.805 228.049 180.805Z" fill="#EFEFEF"/>
<path d="M252.677 180.805C255.14 180.805 257.111 178.84 257.111 176.383C257.111 173.927 255.14 171.961 252.677 171.961C250.214 171.961 248.244 173.927 248.244 176.383C248.244 178.84 250.214 180.805 252.677 180.805Z" fill="#EFEFEF"/>
<path d="M277.308 180.805C279.771 180.805 281.742 178.84 281.742 176.383C281.742 173.927 279.771 171.961 277.308 171.961C274.845 171.961 272.875 173.927 272.875 176.383C272.875 178.84 274.845 180.805 277.308 180.805Z" fill="#EFEFEF"/>
<path d="M301.937 180.805C304.4 180.805 306.37 178.84 306.37 176.383C306.37 173.927 304.4 171.961 301.937 171.961C299.474 171.961 297.504 173.927 297.504 176.383C297.504 178.84 299.474 180.805 301.937 180.805Z" fill="#EFEFEF"/>
<path d="M326.567 180.805C329.03 180.805 331 178.84 331 176.383C331 173.927 329.03 171.961 326.567 171.961C324.104 171.961 322.134 173.927 322.134 176.383C322.134 178.84 324.104 180.805 326.567 180.805Z" fill="#EFEFEF"/>
<path d="M178.791 205.371C181.254 205.371 183.224 203.406 183.224 200.949C183.224 198.493 181.254 196.527 178.791 196.527C176.328 196.527 174.357 198.493 174.357 200.949C174.357 203.406 176.328 205.371 178.791 205.371Z" fill="#EFEFEF"/>
<path d="M203.42 205.371C205.883 205.371 207.853 203.406 207.853 200.949C207.853 198.493 205.883 196.527 203.42 196.527C200.957 196.527 198.986 198.493 198.986 200.949C198.986 203.406 200.957 205.371 203.42 205.371Z" fill="#EFEFEF"/>
<path d="M228.049 205.371C230.511 205.371 232.482 203.406 232.482 200.949C232.482 198.493 230.511 196.527 228.049 196.527C225.586 196.527 223.615 198.493 223.615 200.949C223.615 203.406 225.586 205.371 228.049 205.371Z" fill="#EFEFEF"/>
<path d="M252.677 205.371C255.14 205.371 257.111 203.406 257.111 200.949C257.111 198.493 255.14 196.527 252.677 196.527C250.214 196.527 248.244 198.493 248.244 200.949C248.244 203.406 250.214 205.371 252.677 205.371Z" fill="#EFEFEF"/>
<path d="M277.308 205.371C279.771 205.371 281.742 203.406 281.742 200.949C281.742 198.493 279.771 196.527 277.308 196.527C274.845 196.527 272.875 198.493 272.875 200.949C272.875 203.406 274.845 205.371 277.308 205.371Z" fill="#EFEFEF"/>
<path d="M301.937 205.371C304.4 205.371 306.37 203.406 306.37 200.949C306.37 198.493 304.4 196.527 301.937 196.527C299.474 196.527 297.504 198.493 297.504 200.949C297.504 203.406 299.474 205.371 301.937 205.371Z" fill="#EFEFEF"/>
<path d="M326.567 205.371C329.03 205.371 331 203.406 331 200.949C331 198.493 329.03 196.527 326.567 196.527C324.104 196.527 322.134 198.493 322.134 200.949C322.134 203.406 324.104 205.371 326.567 205.371Z" fill="#EFEFEF"/>
<path d="M178.791 229.937C181.254 229.937 183.224 227.972 183.224 225.515C183.224 223.059 181.254 221.093 178.791 221.093C176.328 221.093 174.357 223.059 174.357 225.515C174.357 227.972 176.328 229.937 178.791 229.937Z" fill="#EFEFEF"/>
<path d="M203.42 229.937C205.883 229.937 207.853 227.972 207.853 225.515C207.853 223.059 205.883 221.093 203.42 221.093C200.957 221.093 198.986 223.059 198.986 225.515C198.986 227.972 200.957 229.937 203.42 229.937Z" fill="#EFEFEF"/>
<path d="M228.049 229.937C230.511 229.937 232.482 227.972 232.482 225.515C232.482 223.059 230.511 221.093 228.049 221.093C225.586 221.093 223.615 223.059 223.615 225.515C223.615 227.972 225.586 229.937 228.049 229.937Z" fill="#EFEFEF"/>
<path d="M252.677 229.937C255.14 229.937 257.111 227.972 257.111 225.515C257.111 223.059 255.14 221.093 252.677 221.093C250.214 221.093 248.244 223.059 248.244 225.515C248.244 227.972 250.214 229.937 252.677 229.937Z" fill="#EFEFEF"/>
<path d="M277.308 229.937C279.771 229.937 281.742 227.972 281.742 225.515C281.742 223.059 279.771 221.093 277.308 221.093C274.845 221.093 272.875 223.059 272.875 225.515C272.875 227.972 274.845 229.937 277.308 229.937Z" fill="#EFEFEF"/>
<path d="M301.937 229.937C304.4 229.937 306.37 227.972 306.37 225.515C306.37 223.059 304.4 221.093 301.937 221.093C299.474 221.093 297.504 223.059 297.504 225.515C297.504 227.972 299.474 229.937 301.937 229.937Z" fill="#EFEFEF"/>
<path d="M326.567 229.937C329.03 229.937 331 227.972 331 225.515C331 223.059 329.03 221.093 326.567 221.093C324.104 221.093 322.134 223.059 322.134 225.515C322.134 227.972 324.104 229.937 326.567 229.937Z" fill="#EFEFEF"/>
<path d="M178.791 254.503C181.254 254.503 183.224 252.537 183.224 250.081C183.224 247.624 181.254 245.659 178.791 245.659C176.328 245.659 174.357 247.624 174.357 250.081C174.357 252.537 176.328 254.503 178.791 254.503Z" fill="#EFEFEF"/>
<path d="M203.42 254.503C205.883 254.503 207.853 252.537 207.853 250.081C207.853 247.624 205.883 245.659 203.42 245.659C200.957 245.659 198.986 247.624 198.986 250.081C198.986 252.537 200.957 254.503 203.42 254.503Z" fill="#EFEFEF"/>
<path d="M228.049 254.503C230.511 254.503 232.482 252.537 232.482 250.081C232.482 247.624 230.511 245.659 228.049 245.659C225.586 245.659 223.615 247.624 223.615 250.081C223.615 252.537 225.586 254.503 228.049 254.503Z" fill="#EFEFEF"/>
<path d="M252.677 254.503C255.14 254.503 257.111 252.537 257.111 250.081C257.111 247.624 255.14 245.659 252.677 245.659C250.214 245.659 248.244 247.624 248.244 250.081C248.244 252.537 250.214 254.503 252.677 254.503Z" fill="#EFEFEF"/>
<path d="M277.308 254.503C279.771 254.503 281.742 252.537 281.742 250.081C281.742 247.624 279.771 245.659 277.308 245.659C274.845 245.659 272.875 247.624 272.875 250.081C272.875 252.537 274.845 254.503 277.308 254.503Z" fill="#EFEFEF"/>
<path d="M301.937 254.503C304.4 254.503 306.37 252.537 306.37 250.081C306.37 247.624 304.4 245.659 301.937 245.659C299.474 245.659 297.504 247.624 297.504 250.081C297.504 252.537 299.474 254.503 301.937 254.503Z" fill="#EFEFEF"/>
<path d="M326.567 254.503C329.03 254.503 331 252.537 331 250.081C331 247.624 329.03 245.659 326.567 245.659C324.104 245.659 322.134 247.624 322.134 250.081C322.134 252.537 324.104 254.503 326.567 254.503Z" fill="#EFEFEF"/>
<path d="M178.791 279.068C181.254 279.068 183.224 277.103 183.224 274.646C183.224 272.19 181.254 270.225 178.791 270.225C176.328 270.225 174.357 272.19 174.357 274.646C174.357 277.103 176.328 279.068 178.791 279.068Z" fill="#EFEFEF"/>
<path d="M203.42 279.068C205.883 279.068 207.853 277.103 207.853 274.646C207.853 272.19 205.883 270.225 203.42 270.225C200.957 270.225 198.986 272.19 198.986 274.646C198.986 277.103 200.957 279.068 203.42 279.068Z" fill="#EFEFEF"/>
<path d="M228.049 279.068C230.511 279.068 232.482 277.103 232.482 274.646C232.482 272.19 230.511 270.225 228.049 270.225C225.586 270.225 223.615 272.19 223.615 274.646C223.615 277.103 225.586 279.068 228.049 279.068Z" fill="#EFEFEF"/>
<path d="M252.677 279.068C255.14 279.068 257.111 277.103 257.111 274.646C257.111 272.19 255.14 270.225 252.677 270.225C250.214 270.225 248.244 272.19 248.244 274.646C248.244 277.103 250.214 279.068 252.677 279.068Z" fill="#EFEFEF"/>
<path d="M277.308 279.068C279.771 279.068 281.742 277.103 281.742 274.646C281.742 272.19 279.771 270.225 277.308 270.225C274.845 270.225 272.875 272.19 272.875 274.646C272.875 277.103 274.845 279.068 277.308 279.068Z" fill="#EFEFEF"/>
<path d="M301.937 279.068C304.4 279.068 306.37 277.103 306.37 274.646C306.37 272.19 304.4 270.225 301.937 270.225C299.474 270.225 297.504 272.19 297.504 274.646C297.504 277.103 299.474 279.068 301.937 279.068Z" fill="#EFEFEF"/>
<path d="M326.567 279.068C329.03 279.068 331 277.103 331 274.646C331 272.19 329.03 270.225 326.567 270.225C324.104 270.225 322.134 272.19 322.134 274.646C322.134 277.103 324.104 279.068 326.567 279.068Z" fill="#EFEFEF"/>
<path d="M178.791 303.635C181.254 303.635 183.224 301.669 183.224 299.213C183.224 296.756 181.254 294.791 178.791 294.791C176.328 294.791 174.357 296.756 174.357 299.213C174.357 301.669 176.328 303.635 178.791 303.635Z" fill="#EFEFEF"/>
<path d="M203.42 303.635C205.883 303.635 207.853 301.669 207.853 299.213C207.853 296.756 205.883 294.791 203.42 294.791C200.957 294.791 198.986 296.756 198.986 299.213C198.986 301.669 200.957 303.635 203.42 303.635Z" fill="#EFEFEF"/>
<path d="M228.049 303.635C230.511 303.635 232.482 301.669 232.482 299.213C232.482 296.756 230.511 294.791 228.049 294.791C225.586 294.791 223.615 296.756 223.615 299.213C223.615 301.669 225.586 303.635 228.049 303.635Z" fill="#EFEFEF"/>
<path d="M252.677 303.635C255.14 303.635 257.111 301.669 257.111 299.213C257.111 296.756 255.14 294.791 252.677 294.791C250.214 294.791 248.244 296.756 248.244 299.213C248.244 301.669 250.214 303.635 252.677 303.635Z" fill="#EFEFEF"/>
<path d="M277.308 303.635C279.771 303.635 281.742 301.669 281.742 299.213C281.742 296.756 279.771 294.791 277.308 294.791C274.845 294.791 272.875 296.756 272.875 299.213C272.875 301.669 274.845 303.635 277.308 303.635Z" fill="#EFEFEF"/>
<path d="M301.937 303.635C304.4 303.635 306.37 301.669 306.37 299.213C306.37 296.756 304.4 294.791 301.937 294.791C299.474 294.791 297.504 296.756 297.504 299.213C297.504 301.669 299.474 303.635 301.937 303.635Z" fill="#EFEFEF"/>
<path d="M326.567 303.635C329.03 303.635 331 301.669 331 299.213C331 296.756 329.03 294.791 326.567 294.791C324.104 294.791 322.134 296.756 322.134 299.213C322.134 301.669 324.104 303.635 326.567 303.635Z" fill="#EFEFEF"/>
</svg>
