<svg width="60" height="58" viewBox="0 0 60 58" fill="none" xmlns="http://www.w3.org/2000/svg">
<path d="M41.9751 48.975L46.6881 44.296C48.2171 42.778 50.0091 41.552 51.9771 40.677L57.6941 38.136" stroke="#EE0033" stroke-width="2" stroke-miterlimit="10"/>
<path d="M37 53C37 55.485 33.314 57 30 57C26.686 57 23 54.485 23 52C23 48.687 26.686 48 30 48C33.314 48 37 50.515 37 53Z" stroke="#EE0033" stroke-width="2" stroke-miterlimit="10"/>
<path d="M23.582 53.761C21.085 52.454 18.872 50.371 17.663 48.808C15.559 46.088 13.017 41.847 10.116 40C8.14696 38.747 5.48096 38.282 2.33496 37.125" stroke="#EE0033" stroke-width="2" stroke-miterlimit="10"/>
<path d="M26.527 32.2369C26.186 32.0059 25.871 31.7999 25.59 31.6239C25.142 31.3429 23.672 30.9999 23 30.9999C17.391 30.9999 14.629 29.7149 11.404 27.0269C10.229 26.0479 8.21095 24.1489 7.37695 23.3589" stroke="#EE0033" stroke-width="2" stroke-miterlimit="10"/>
<path d="M36.3921 54.647C36.3921 54.647 40.2501 51.812 41.9751 48.975C42.4401 48.209 43.0001 47.466 43.0001 46.5C43.0001 45.422 42.5132 44.458 41.7472 43.816C41.7472 43.816 36.3001 39.453 31.4521 35.804" stroke="#EE0033" stroke-width="2" stroke-miterlimit="10"/>
<path d="M37 34.9999H31.855L29.685 39.3399C29.192 40.3239 28.175 40.9999 27 40.9999C25.343 40.9999 24 39.6569 24 37.9999C24 37.5179 24.113 37.0629 24.315 36.6599L27.315 30.6599C27.808 29.6759 28.825 28.9999 30 28.9999H38.371C42.563 29.2499 45 30.9999 45 30.9999L54.553 23.3569" stroke="#EE0033" stroke-width="2" stroke-miterlimit="10"/>
<path d="M5 20V13C5 11.895 5.895 11 7 11H15C16.105 11 17 11.895 17 13V22" stroke="#EE0033" stroke-width="2" stroke-miterlimit="10"/>
<path d="M23 26V9C23 7.895 23.895 7 25 7H33C34.105 7 35 7.895 35 9V26" stroke="#EE0033" stroke-width="2" stroke-miterlimit="10"/>
<path d="M41 22V3C41 1.895 41.895 1 43 1H51C52.105 1 53 1.895 53 3V20" stroke="#EE0033" stroke-width="2" stroke-miterlimit="10"/>
<path d="M1 20V22" stroke="#EE0033" stroke-width="2" stroke-miterlimit="10"/>
<path d="M1 24V26" stroke="#EE0033" stroke-width="2" stroke-miterlimit="10"/>
<path d="M31 10V16" stroke="#EE0033" stroke-width="2" stroke-miterlimit="10"/>
<path d="M31 18V20" stroke="#EE0033" stroke-width="2" stroke-miterlimit="10"/>
<path d="M59 4V13" stroke="#EE0033" stroke-width="2" stroke-miterlimit="10"/>
<path d="M59 2V0" stroke="#EE0033" stroke-width="2" stroke-miterlimit="10"/>
</svg>
