<svg width="56" height="56" viewBox="0 0 56 56" fill="none" xmlns="http://www.w3.org/2000/svg">
<path d="M51.389 22.419C53.617 24.598 55 27.637 55 31C55 37.627 49.627 43 43 43C36.373 43 31 37.627 31 31C31 24.373 36.373 19 43 19C45.071 19 47.02 19.525 48.72 20.448" stroke="#EE0033" stroke-width="2" stroke-miterlimit="10"/>
<path d="M51 39.9441V54.0001L43 48.7661L35 54.0001V39.9441" stroke="#EE0033" stroke-width="2" stroke-miterlimit="10"/>
<path d="M39 37H47" stroke="#EE0033" stroke-width="2" stroke-miterlimit="10"/>
<path d="M39 25H43V37" stroke="#EE0033" stroke-width="2" stroke-miterlimit="10"/>
<path d="M31.998 35.8C29.457 38.392 25.916 40 22 40C14.268 40 8 33.732 8 26V10H36V21.252" stroke="#EE0033" stroke-width="2" stroke-miterlimit="10"/>
<path d="M22 40V49" stroke="#EE0033" stroke-width="2" stroke-miterlimit="10"/>
<path d="M15 49H29" stroke="#EE0033" stroke-width="2" stroke-miterlimit="10"/>
<path d="M16.8788 34.5909C16.2818 34.2339 15.7248 33.8169 15.2168 33.3479" stroke="#EE0033" stroke-width="2" stroke-miterlimit="10"/>
<path d="M13.251 30.846C12.454 29.41 12 27.758 12 26V24" stroke="#EE0033" stroke-width="2" stroke-miterlimit="10"/>
<path d="M8 10V7C8 6.448 7.552 6 7 6H2C1.448 6 1 6.448 1 7V18C1 20.761 3.239 23 6 23H8" stroke="#EE0033" stroke-width="2" stroke-miterlimit="10"/>
<path d="M36 10V7C36 6.448 36.448 6 37 6H42C42.552 6 43 6.448 43 7V18C43 18.342 42.966 18.677 42.9 19" stroke="#EE0033" stroke-width="2" stroke-miterlimit="10"/>
<path d="M49 3V13" stroke="#EE0033" stroke-width="2" stroke-miterlimit="10"/>
<path d="M54 5V8" stroke="#EE0033" stroke-width="2" stroke-miterlimit="10"/>
<path d="M54 10V20" stroke="#EE0033" stroke-width="2" stroke-miterlimit="10"/>
<path d="M6 35V45" stroke="#EE0033" stroke-width="2" stroke-miterlimit="10"/>
<path d="M6 47V50" stroke="#EE0033" stroke-width="2" stroke-miterlimit="10"/>
<path d="M22 0V5" stroke="#EE0033" stroke-width="2" stroke-miterlimit="10"/>
<path d="M26.3989 6.60093L29.6009 3.39893" stroke="#EE0033" stroke-width="2" stroke-miterlimit="10"/>
<path d="M17.6009 6.60093L14.3989 3.39893" stroke="#EE0033" stroke-width="2" stroke-miterlimit="10"/>
</svg>
