<svg width="56" height="60" viewBox="0 0 56 60" fill="none" xmlns="http://www.w3.org/2000/svg">
<path d="M40.377 32.286C40.783 33.788 41 35.369 41 37C41 46.941 32.941 55 23 55C13.059 55 5 46.941 5 37C5 27.059 13.059 19 23 19C25.354 19 27.602 19.451 29.662 20.273" stroke="#EE0033" stroke-width="2" stroke-miterlimit="10"/>
<path d="M9.719 54.541C4.422 50.523 1 44.161 1 37" stroke="#EE0033" stroke-width="2" stroke-miterlimit="10"/>
<path d="M14.8234 57.431C14.2544 57.202 13.6954 56.952 13.1504 56.678" stroke="#EE0033" stroke-width="2" stroke-miterlimit="10"/>
<path d="M18.8717 58.6129C18.2847 58.5019 17.7067 58.3669 17.1387 58.2109" stroke="#EE0033" stroke-width="2" stroke-miterlimit="10"/>
<path d="M23.0004 59.0001C22.3774 59.0001 21.7604 58.9751 21.1504 58.9241" stroke="#EE0033" stroke-width="2" stroke-miterlimit="10"/>
<path d="M44.1153 43.1951C42.6523 48.1921 39.4633 52.4521 35.2363 55.2851" stroke="#EE0033" stroke-width="2" stroke-miterlimit="10"/>
<path d="M10.1816 19.117C13.7906 16.526 18.2166 15 22.9996 15" stroke="#EE0033" stroke-width="2" stroke-miterlimit="10"/>
<path d="M6.33008 22.6429C6.74908 22.1569 7.18908 21.6889 7.64808 21.2419" stroke="#EE0033" stroke-width="2" stroke-miterlimit="10"/>
<path d="M29 31C29 34.313 26.313 37 23 37C19.686 37 17 34.313 17 31V29C17 25.687 19.686 23 23 23C26.313 23 29 25.687 29 29V31Z" stroke="#EE0033" stroke-width="2" stroke-miterlimit="10"/>
<path d="M32.2664 47.719L30.4694 43.448C29.8444 41.965 28.3914 41 26.7814 41H19.2184C17.6094 41 16.1554 41.965 15.5314 43.448L13.7334 47.719" stroke="#EE0033" stroke-width="2" stroke-miterlimit="10"/>
<path d="M53 29H35C33.896 29 33 28.104 33 27V16C33 14.896 33.896 14 35 14H53C54.104 14 55 14.896 55 16V27C55 28.104 54.104 29 53 29Z" stroke="#EE0033" stroke-width="2" stroke-miterlimit="10"/>
<path d="M44 21C44.5523 21 45 20.5523 45 20C45 19.4477 44.5523 19 44 19C43.4477 19 43 19.4477 43 20C43 20.5523 43.4477 21 44 21Z" stroke="#EE0033" stroke-width="2" stroke-miterlimit="10"/>
<path d="M44 21V26" stroke="#EE0033" stroke-width="2" stroke-miterlimit="10"/>
<path d="M37 14V8C37 4.134 40.135 1 44 1C47.866 1 51 4.134 51 8V14" stroke="#EE0033" stroke-width="2" stroke-miterlimit="10"/>
<path d="M24.3984 3.39795L28.6004 7.59995" stroke="#EE0033" stroke-width="2" stroke-miterlimit="10"/>
<path d="M32 1V6" stroke="#EE0033" stroke-width="2" stroke-miterlimit="10"/>
<path d="M27 11H22" stroke="#EE0033" stroke-width="2" stroke-miterlimit="10"/>
</svg>
