<svg width="60" height="61" viewBox="0 0 60 61" fill="none" xmlns="http://www.w3.org/2000/svg">
<path d="M43.707 16.2928L49 10.9998" stroke="#EE0033" stroke-width="2" stroke-miterlimit="10"/>
<path d="M54 5.99974H57.29C57.921 5.99974 58.237 6.76274 57.791 7.20874L54.293 10.7067C54.105 10.8947 53.851 10.9997 53.586 10.9997H49V6.41374C49 6.14874 49.105 5.89374 49.293 5.70674L52.791 2.20874C53.237 1.76274 54 2.07874 54 2.70974V5.99974Z" stroke="#EE0033" stroke-width="2" stroke-miterlimit="10"/>
<path d="M46.253 23.1498C45.1 25.4338 42.733 26.9998 40 26.9998C36.134 26.9998 33 23.8658 33 19.9998C33 17.2668 34.566 14.8998 36.85 13.7468" stroke="#EE0033" stroke-width="2" stroke-miterlimit="10"/>
<path d="M50.565 14.3038C51.48 15.9988 52 17.9388 52 19.9998C52 26.6268 46.627 31.9998 40 31.9998C33.373 31.9998 28 26.6268 28 19.9998C28 13.3728 33.373 7.99976 40 7.99976C42.061 7.99976 44.001 8.51976 45.696 9.43476" stroke="#EE0033" stroke-width="2" stroke-miterlimit="10"/>
<path d="M55.618 13.2758C56.507 15.3378 57 17.6118 57 19.9998C57 29.3888 49.389 36.9998 40 36.9998C30.611 36.9998 23 29.3888 23 19.9998C23 10.6108 30.611 2.99976 40 2.99976C42.388 2.99976 44.662 3.49276 46.724 4.38176" stroke="#EE0033" stroke-width="2" stroke-miterlimit="10"/>
<path d="M45 36.2528V42.9998C45 44.6568 43.657 45.9998 42 45.9998H4C2.343 45.9998 1 44.6568 1 42.9998V16.9998C1 15.3428 2.343 13.9998 4 13.9998H24.092" stroke="#EE0033" stroke-width="2" stroke-miterlimit="10"/>
<path d="M23 45.9998V59.9998" stroke="#EE0033" stroke-width="2" stroke-miterlimit="10"/>
<path d="M16.5942 59.7406L23.0002 49.6816L29.4062 59.7406" stroke="#EE0033" stroke-width="2" stroke-miterlimit="10"/>
<path d="M42 40.9998H40V42.9998H42V40.9998Z" fill="#EE0033"/>
<path d="M38 40.9998H36V42.9998H38V40.9998Z" fill="#EE0033"/>
<path d="M34 40.9998H32V42.9998H34V40.9998Z" fill="#EE0033"/>
<path d="M38 49.9998H41" stroke="#EE0033" stroke-width="2" stroke-miterlimit="10"/>
<path d="M43 49.9998H54" stroke="#EE0033" stroke-width="2" stroke-miterlimit="10"/>
<path d="M1 9.99976H4" stroke="#EE0033" stroke-width="2" stroke-miterlimit="10"/>
<path d="M6 9.99976H17" stroke="#EE0033" stroke-width="2" stroke-miterlimit="10"/>
<path d="M6 26.9998V27.4998C6 28.8808 7.119 29.9998 8.5 29.9998H11.5C12.881 29.9998 14 28.8808 14 27.4998C14 26.1188 12.881 24.9998 11.5 24.9998H8.5C7.119 24.9998 6 23.8808 6 22.4998C6 21.1188 7.119 19.9998 8.5 19.9998H11.5C12.881 19.9998 14 21.1188 14 22.4998V22.9998" stroke="#EE0033" stroke-width="2" stroke-miterlimit="10"/>
<path d="M10 29.9998V32.9998" stroke="#EE0033" stroke-width="2" stroke-miterlimit="10"/>
<path d="M10 19.9998V16.9998" stroke="#EE0033" stroke-width="2" stroke-miterlimit="10"/>
<path d="M45.705 18.2908C45.887 18.4718 46 18.7228 46 18.9998C46 19.4458 45.708 19.8208 45.305 19.9518C43.797 20.4438 39.284 21.9548 39.284 21.9548C39.195 21.9838 39.099 21.9998 39 21.9998C38.487 21.9998 38 21.5128 38 20.9998C38 20.9008 38.016 20.8048 38.044 20.7158C38.044 20.7158 39.554 16.2018 40.047 14.6938C40.179 14.2918 40.555 13.9998 41 13.9998C41.275 13.9998 41.524 14.1108 41.705 14.2908L45.705 18.2908Z" stroke="#EE0033" stroke-width="2" stroke-miterlimit="10"/>
</svg>
