<svg width="60" height="60" viewBox="0 0 60 60" fill="none" xmlns="http://www.w3.org/2000/svg">
<path d="M20.001 48C18.449 46.494 18 44.216 18 42C18 33.5 22.143 19 22.143 19" stroke="#EE0033" stroke-width="2" stroke-miterlimit="10"/>
<path d="M31.9999 19H30.0029" stroke="#EE0033" stroke-width="2" stroke-miterlimit="10"/>
<path d="M33.001 12V7H29.001V12" stroke="#EE0033" stroke-width="2" stroke-miterlimit="10"/>
<path d="M24 12V7H21C20.448 7 20 7.448 20 8V17C20 18.105 20.895 19 22 19H28" stroke="#EE0033" stroke-width="2" stroke-miterlimit="10"/>
<path d="M34 19H40C41.105 19 42 18.105 42 17V8C42 7.448 41.552 7 41 7H38V12" stroke="#EE0033" stroke-width="2" stroke-miterlimit="10"/>
<path d="M20 15H42" stroke="#EE0033" stroke-width="2" stroke-miterlimit="10"/>
<path d="M45.995 54V52C45.995 49.791 44.204 48 41.995 48H20.001C17.792 48 16.001 49.791 16.001 52V54" stroke="#EE0033" stroke-width="2" stroke-miterlimit="10"/>
<path d="M12 54H51" stroke="#EE0033" stroke-width="2" stroke-miterlimit="10"/>
<path d="M24 44H26" stroke="#EE0033" stroke-width="2" stroke-miterlimit="10"/>
<path d="M28 44H30" stroke="#EE0033" stroke-width="2" stroke-miterlimit="10"/>
<path d="M32 44H34" stroke="#EE0033" stroke-width="2" stroke-miterlimit="10"/>
<path d="M10 54H8" stroke="#EE0033" stroke-width="2" stroke-miterlimit="10"/>
<path d="M12 20C14.2091 20 16 18.2091 16 16C16 13.7909 14.2091 12 12 12C9.79086 12 8 13.7909 8 16C8 18.2091 9.79086 20 12 20Z" stroke="#EE0033" stroke-width="2" stroke-miterlimit="10"/>
<path d="M6 34C8.20914 34 10 32.2091 10 30C10 27.7909 8.20914 26 6 26C3.79086 26 2 27.7909 2 30C2 32.2091 3.79086 34 6 34Z" stroke="#EE0033" stroke-width="2" stroke-miterlimit="10"/>
<path d="M12 20V23H21.087" stroke="#EE0033" stroke-width="2" stroke-miterlimit="10"/>
<path d="M10 30H13" stroke="#EE0033" stroke-width="2" stroke-miterlimit="10"/>
<path d="M18.1402 39H15.0002L11.2842 42.716" stroke="#EE0033" stroke-width="2" stroke-miterlimit="10"/>
<path d="M9 50C11.2091 50 13 48.2091 13 46C13 43.7909 11.2091 42 9 42C6.79086 42 5 43.7909 5 46C5 48.2091 6.79086 50 9 50Z" stroke="#EE0033" stroke-width="2" stroke-miterlimit="10"/>
<path d="M15 30H17" stroke="#EE0033" stroke-width="2" stroke-miterlimit="10"/>
<path d="M54 50C56.2091 50 58 48.2091 58 46C58 43.7909 56.2091 42 54 42C51.7909 42 50 43.7909 50 46C50 48.2091 51.7909 50 54 50Z" stroke="#EE0033" stroke-width="2" stroke-miterlimit="10"/>
<path d="M53 34C55.2091 34 57 32.2091 57 30C57 27.7909 55.2091 26 53 26C50.7909 26 49 27.7909 49 30C49 32.2091 50.7909 34 53 34Z" stroke="#EE0033" stroke-width="2" stroke-miterlimit="10"/>
<path d="M53.9999 42V39H44.0029" stroke="#EE0033" stroke-width="2" stroke-miterlimit="10"/>
<path d="M48.9997 30H42.6377" stroke="#EE0033" stroke-width="2" stroke-miterlimit="10"/>
<path d="M41.0557 22.9999H44.9997L48.1717 19.8279" stroke="#EE0033" stroke-width="2" stroke-miterlimit="10"/>
<path d="M51 21C53.2091 21 55 19.2091 55 17C55 14.7909 53.2091 13 51 13C48.7909 13 47 14.7909 47 17C47 19.2091 48.7909 21 51 21Z" stroke="#EE0033" stroke-width="2" stroke-miterlimit="10"/>
<path d="M53 54H55" stroke="#EE0033" stroke-width="2" stroke-miterlimit="10"/>
<path d="M41.995 48C43.547 46.494 44.143 44.216 44.143 42C44.143 33.5 40 19 40 19" stroke="#EE0033" stroke-width="2" stroke-miterlimit="10"/>
</svg>
