<svg width="60" height="54" viewBox="0 0 60 54" fill="none" xmlns="http://www.w3.org/2000/svg">
<path d="M32.71 29C37.6805 29 41.71 24.9706 41.71 20C41.71 15.0294 37.6805 11 32.71 11C27.7394 11 23.71 15.0294 23.71 20C23.71 24.9706 27.7394 29 32.71 29Z" stroke="#EF0C3D" stroke-width="2" stroke-miterlimit="10"/>
<path d="M32.71 13V16" stroke="#EF0C3D" stroke-width="2" stroke-miterlimit="10"/>
<path d="M32.71 24V27" stroke="#EF0C3D" stroke-width="2" stroke-miterlimit="10"/>
<path d="M29.71 22C29.71 23.104 30.606 24 31.71 24H33.71C34.814 24 35.71 23.104 35.71 22C35.71 20.896 34.814 20 33.71 20H31.71C30.606 20 29.71 19.104 29.71 18C29.71 16.896 30.606 16 31.71 16H33.71C34.814 16 35.71 16.896 35.71 18" stroke="#EF0C3D" stroke-width="2" stroke-miterlimit="10"/>
<path d="M25.366 25.2029L20.893 23.9169C19.602 23.5459 18.713 22.3649 18.712 21.0219L18.71 17.8459C18.709 16.6739 19.221 15.5599 20.111 14.7979L25.109 10.5139L28.925 11.8319" stroke="#EF0C3D" stroke-width="2" stroke-miterlimit="10"/>
<path d="M1.11621 31.594L3.77521 28.935C4.37421 28.336 5.18621 28 6.03221 28C6.23121 28 6.42921 28.019 6.62621 28.056L27.1472 31.948C27.3292 31.981 27.5192 32 27.7102 32C29.3662 32 30.7102 30.657 30.7102 29C30.7102 28.925 30.7072 28.851 30.7022 28.776" stroke="#EF0C3D" stroke-width="2" stroke-miterlimit="10"/>
<path d="M45.9351 2.57995C46.4181 2.22095 46.9441 1.91395 47.5011 1.66895" stroke="#EF0C3D" stroke-width="2" stroke-miterlimit="10"/>
<path d="M49.831 1.048C50.12 1.017 50.413 1 50.71 1C55.128 1 58.71 4.582 58.71 9C58.71 13.418 55.128 17 50.71 17C46.292 17 42.71 13.418 42.71 9C42.71 7.283 43.251 5.692 44.171 4.39" stroke="#EF0C3D" stroke-width="2" stroke-miterlimit="10"/>
<path d="M49.1299 37.2261C49.4889 37.7081 49.7959 38.2341 50.0399 38.7921" stroke="#EF0C3D" stroke-width="2" stroke-miterlimit="10"/>
<path d="M50.662 41.121C50.694 41.409 50.71 41.703 50.71 42C50.71 46.418 47.128 50 42.71 50C38.292 50 34.71 46.418 34.71 42C34.71 37.582 38.292 34 42.71 34C44.427 34 46.017 34.541 47.32 35.461" stroke="#EF0C3D" stroke-width="2" stroke-miterlimit="10"/>
<path d="M17.4849 51.4199C17.0009 51.7789 16.4759 52.0859 15.9189 52.3309" stroke="#EF0C3D" stroke-width="2" stroke-miterlimit="10"/>
<path d="M13.589 52.952C13.3 52.983 13.007 53 12.71 53C8.29196 53 4.70996 49.418 4.70996 45C4.70996 40.582 8.29196 37 12.71 37C17.128 37 20.71 40.582 20.71 45C20.71 46.717 20.169 48.308 19.249 49.61" stroke="#EF0C3D" stroke-width="2" stroke-miterlimit="10"/>
<path d="M44.5952 34.2239L48.8252 16.7759" stroke="#EF0C3D" stroke-width="2" stroke-miterlimit="10"/>
<path d="M20.6709 44.2039L34.7529 42.7959" stroke="#EF0C3D" stroke-width="2" stroke-miterlimit="10"/>
<path d="M1 14.416L22.647 3.367C23.117 3.133 23.648 3 24.21 3C24.89 3 25.566 3.129 26.198 3.381L37.048 7.698C38.073 8.105 38.71 9.205 38.71 10.383C38.71 11.24 38.351 12.013 37.774 12.56" stroke="#EF0C3D" stroke-width="2" stroke-miterlimit="10"/>
</svg>
