<svg width="23" height="24" viewBox="0 0 23 24" fill="none" xmlns="http://www.w3.org/2000/svg">
<path d="M4.10872 15.5008C4.25297 14.3064 4.74282 13.6377 5.66592 12.9522C6.98671 12.0238 8.63657 12.549 8.63657 12.549V9.43344C9.03767 9.42319 9.43893 9.44697 9.83565 9.50449V13.5139C9.83565 13.5139 8.18629 12.9887 6.8655 13.9176C5.9429 14.6026 5.45205 15.2718 5.3083 16.4662C5.30379 17.1147 5.42551 17.9625 5.98598 18.6955C5.8474 18.6245 5.70616 18.5435 5.56224 18.4526C4.3276 17.6236 4.10271 16.3798 4.10872 15.5008ZM16.648 3.67283C15.7394 2.6772 15.3958 1.67198 15.2716 0.96582H16.4146C16.4146 0.96582 16.1867 2.81738 17.8475 4.63821L17.8706 4.66269C17.423 4.38112 17.0124 4.04876 16.648 3.67283ZM22.154 6.49553V10.4243C22.154 10.4243 20.6955 10.3671 19.6161 10.0926C18.109 9.70851 17.1403 9.11949 17.1403 9.11949C17.1403 9.11949 16.4712 8.69944 16.4171 8.67016V16.783C16.4171 17.2347 16.2934 18.3629 15.9162 19.3038C15.4238 20.5346 14.664 21.3425 14.5243 21.5077C14.5243 21.5077 13.6002 22.5998 11.9699 23.3352C10.5003 23.9987 9.21007 23.9819 8.8244 23.9987C8.8244 23.9987 6.59403 24.087 4.58705 22.7827C4.15306 22.4952 3.74794 22.1696 3.37695 21.8101L3.38697 21.8173C5.39445 23.1216 7.62432 23.0333 7.62432 23.0333C8.01049 23.0165 9.30073 23.0333 10.7698 22.3699C12.3986 21.6344 13.3242 20.5423 13.3242 20.5423C13.4624 20.3772 14.2258 19.5692 14.7161 18.3379C15.0923 17.3975 15.217 16.2689 15.217 15.8172V7.70526C15.2711 7.73502 15.9397 8.15506 15.9397 8.15506C15.9397 8.15506 16.9089 8.74457 18.416 9.12813C19.4959 9.40272 20.9539 9.45984 20.9539 9.45984V6.38128C21.4528 6.49313 21.878 6.52337 22.154 6.49553Z" fill="#EE1D52"/>
<path d="M20.9538 6.38128V9.45888C20.9538 9.45888 19.4958 9.40176 18.4159 9.12717C16.9088 8.74313 15.9396 8.1541 15.9396 8.1541C15.9396 8.1541 15.2709 7.73406 15.2168 7.7043V15.8181C15.2168 16.2698 15.0931 17.3984 14.716 18.3389C14.2236 19.5702 13.4638 20.3781 13.3241 20.5433C13.3241 20.5433 12.3995 21.6354 10.7696 22.3708C9.30058 23.0342 8.01034 23.0174 7.62417 23.0342C7.62417 23.0342 5.3943 23.1226 3.38682 21.8183L3.3768 21.8111C3.16486 21.6058 2.96535 21.3891 2.77927 21.162C2.13865 20.381 1.74597 19.4574 1.6473 19.1938C1.64713 19.1927 1.64713 19.1916 1.6473 19.1905C1.48853 18.7325 1.15495 17.6327 1.20053 16.5675C1.28117 14.6881 1.94231 13.5345 2.11712 13.2455C2.58007 12.4575 3.1822 11.7524 3.8967 11.1616C4.52721 10.6519 5.24187 10.2463 6.01137 9.9615C6.84323 9.62712 7.734 9.4479 8.63592 9.43344V12.549C8.63592 12.549 6.98606 12.0257 5.66577 12.9522C4.74267 13.6377 4.25282 14.3064 4.10857 15.5008C4.10256 16.3798 4.32745 17.6236 5.56109 18.4531C5.70501 18.5443 5.84625 18.6253 5.98482 18.696C6.20034 18.9762 6.46265 19.2203 6.76117 19.4185C7.96626 20.1813 8.97601 20.2346 10.2673 19.7392C11.1282 19.4079 11.7764 18.6615 12.0769 17.8343C12.2657 17.3178 12.2632 16.7979 12.2632 16.2602V0.96582H15.2684C15.3926 1.67198 15.7362 2.6772 16.6448 3.67283C17.0093 4.04876 17.4198 4.38112 17.8674 4.66269C17.9997 4.79951 18.6758 5.4759 19.5438 5.89114C19.9927 6.10578 20.4658 6.27024 20.9538 6.38128Z" fill="black"/>
<path d="M0.451172 18.2368V18.2392L0.525741 18.4413C0.517176 18.4178 0.489464 18.3463 0.451172 18.2368Z" fill="#69C9D0"/>
<path d="M6.01182 9.96152C5.24232 10.2463 4.52767 10.6519 3.89716 11.1616C3.18242 11.7537 2.58044 12.4603 2.11807 13.2499C1.94327 13.5379 1.28212 14.6924 1.20148 16.5718C1.1559 17.6371 1.48948 18.7369 1.64826 19.1948C1.64808 19.1959 1.64808 19.1971 1.64826 19.1982C1.74843 19.4593 2.13961 20.3829 2.78022 21.1664C2.9663 21.3935 3.16581 21.6102 3.37776 21.8154C2.69867 21.3653 2.09304 20.8211 1.58064 20.2005C0.945537 19.4262 0.553858 18.5122 0.451681 18.2424C0.451561 18.2405 0.451561 18.2386 0.451681 18.2366V18.2333C0.292405 17.7758 -0.0421751 16.6755 0.00440569 15.6088C0.0850455 13.7294 0.746192 12.5759 0.920995 12.2869C1.38323 11.4972 1.98523 10.7906 2.70008 10.1987C3.33046 9.68873 4.04515 9.28313 4.81475 8.99854C5.29478 8.80764 5.79486 8.66682 6.30633 8.57849C7.07715 8.44953 7.86441 8.43835 8.63888 8.54537V9.43346C7.73611 9.44762 6.84446 9.62685 6.01182 9.96152Z" fill="#69C9D0"/>
<path d="M15.271 0.965863H12.2657V16.2608C12.2657 16.7984 12.2657 17.3169 12.0794 17.8349C11.7759 18.6615 11.1303 19.408 10.2698 19.7392C8.97804 20.2366 7.96829 20.1813 6.7637 19.4185C6.46467 19.2212 6.20168 18.9779 5.98535 18.6985C7.01163 19.2232 7.93022 19.214 9.0682 18.7762C9.92819 18.445 10.5748 17.6985 10.8773 16.8714C11.0667 16.3549 11.0642 15.835 11.0642 15.2978V0H15.2139C15.2139 0 15.1673 0.380201 15.271 0.965863ZM20.9538 5.53019V6.38132C20.4666 6.27011 19.9944 6.10565 19.5464 5.89119C18.6784 5.47594 18.0022 4.79955 17.87 4.66274C18.0234 4.75929 18.1826 4.84713 18.3468 4.9258C19.4021 5.43082 20.4414 5.58155 20.9538 5.53019Z" fill="#69C9D0"/>
</svg>
