<svg width="24" height="18" viewBox="0 0 24 18" fill="none" xmlns="http://www.w3.org/2000/svg">
<path d="M0.209577 3.37809C0.319746 1.682 1.68338 0.352771 3.38097 0.268668C5.83919 0.146882 9.35269 0 12 0C14.6473 0 18.1608 0.146882 20.619 0.268668C22.3166 0.352771 23.6803 1.682 23.7904 3.37809C23.896 5.00308 24 7.00256 24 8.57143C24 10.1403 23.896 12.1398 23.7904 13.7648C23.6803 15.4609 22.3166 16.7901 20.619 16.8742C18.1608 16.996 14.6473 17.1429 12 17.1429C9.35269 17.1429 5.83919 16.996 3.38097 16.8742C1.68338 16.7901 0.319746 15.4609 0.209577 13.7648C0.104026 12.1398 0 10.1403 0 8.57143C0 7.00256 0.104026 5.00308 0.209577 3.37809Z" fill="#FC0D1B"/>
<path d="M9.42871 5.14307V12.0002L16.2859 8.57164L9.42871 5.14307Z" fill="white"/>
</svg>
