<svg width="41" height="41" viewBox="0 0 41 41" fill="none" xmlns="http://www.w3.org/2000/svg">
<rect x="0.953125" y="0.541016" width="40" height="40" rx="5" fill="#FFEAEE"/>
<path d="M12.272 27.2384C12.2718 27.4887 12.3209 27.7366 12.4166 27.9679C12.5123 28.1993 12.6526 28.4094 12.8296 28.5865C13.0065 28.7636 13.2166 28.904 13.4479 28.9998C13.6792 29.0956 13.927 29.1449 14.1774 29.1449H28.041C28.2913 29.1448 28.539 29.0954 28.7701 28.9995C29.0013 28.9036 29.2113 28.7632 29.3881 28.5861C29.5649 28.4091 29.7052 28.1989 29.8008 27.9677C29.8964 27.7364 29.9455 27.4886 29.9453 27.2384V13.3761C29.9454 12.8709 29.7448 12.3864 29.3877 12.0291C29.0306 11.6718 28.5462 11.4709 28.041 11.4707H14.1774C13.9271 11.4707 13.6793 11.5199 13.4481 11.6157C13.217 11.7114 13.0069 11.8518 12.83 12.0287C12.653 12.2056 12.5127 12.4157 12.4169 12.6469C12.3212 12.8781 12.2719 13.1259 12.272 13.3761V27.2384Z" fill="#EE0033"/>
<path d="M23.3404 19.467L24.6118 19.0686C24.1406 17.5409 22.7161 16.4272 21.0352 16.4272C19.9098 16.4272 18.9003 16.9298 18.214 17.719C18.2077 17.719 18.1985 17.7206 18.1916 17.7206C18.0044 17.9349 17.734 18.0735 17.4279 18.0735C17.159 18.0735 16.901 17.9666 16.7108 17.7765C16.5207 17.5864 16.4138 17.3285 16.4137 17.0595C16.4139 16.9 16.4519 16.7428 16.5246 16.6008C16.5973 16.4588 16.7025 16.336 16.8318 16.2424C17.885 15.1132 19.3734 14.3984 21.0352 14.3984C23.6244 14.3984 25.8204 16.1122 26.5495 18.4639L27.7996 18.0735C28.0662 18.1407 28.3269 18.4028 28.4688 18.7689L26.9668 23.2068L23.185 20.4168C23.0938 20.0358 23.1593 19.6733 23.3404 19.467ZM15.2529 17.4074L19.0344 20.1945C19.1257 20.5761 19.0596 20.9397 18.879 21.146L17.6082 21.5436C18.0788 23.071 19.5034 24.185 21.1848 24.185C22.3102 24.185 23.32 23.6826 24.0057 22.8924L24.0281 22.8918C24.1224 22.7815 24.2395 22.6929 24.3714 22.632C24.5032 22.5712 24.6466 22.5395 24.7918 22.5393C24.925 22.5393 25.0569 22.5655 25.1799 22.6165C25.303 22.6675 25.4148 22.7423 25.509 22.8365C25.6031 22.9307 25.6778 23.0425 25.7287 23.1656C25.7796 23.2887 25.8058 23.4206 25.8057 23.5538C25.8057 23.8895 25.6396 24.1862 25.3882 24.3709C24.3356 25.4987 22.8474 26.2143 21.1848 26.2143C18.595 26.2143 16.3993 24.5011 15.6696 22.1483L14.4209 22.5393C14.1538 22.4724 13.8928 22.2103 13.7498 21.8431L15.2529 17.4074Z" fill="white"/>
</svg>
