<svg width="41" height="41" viewBox="0 0 41 41" fill="none" xmlns="http://www.w3.org/2000/svg">
<g clip-path="url(#clip0_8787_2065)">
<path d="M35.9531 0.541016H5.95312C3.1917 0.541016 0.953125 2.77959 0.953125 5.54102V35.541C0.953125 38.3024 3.1917 40.541 5.95312 40.541H35.9531C38.7146 40.541 40.9531 38.3024 40.9531 35.541V5.54102C40.9531 2.77959 38.7146 0.541016 35.9531 0.541016Z" fill="#FFEAEE"/>
<path d="M6 23.5625V32.9375C6.0004 33.3518 6.1652 33.749 6.4581 34.0419C6.7511 34.3348 7.1483 34.4996 7.5625 34.5H16.9375C17.3518 34.4996 17.749 34.3348 18.0419 34.0419C18.3349 33.749 18.4996 33.3518 18.5 32.9375V23.5625C18.4996 23.1482 18.3349 22.7511 18.0419 22.4581C17.749 22.1652 17.3518 22.0004 16.9375 22H7.5625C7.1483 22.0004 6.7511 22.1652 6.4581 22.4581C6.1652 22.7511 6.0004 23.1482 6 23.5625Z" fill="#EE0033"/>
<path d="M23 16.9375V7.5625C23.0004 7.1482 23.1652 6.7511 23.4581 6.4581C23.7511 6.1652 24.1483 6.0004 24.5625 6H33.9375C34.3518 6.0004 34.749 6.1652 35.0419 6.4581C35.3349 6.7511 35.4996 7.1482 35.5 7.5625V16.9375C35.4996 17.3518 35.3349 17.749 35.0419 18.0419C34.749 18.3348 34.3518 18.4996 33.9375 18.5H24.5625C24.1483 18.4996 23.7511 18.3348 23.4581 18.0419C23.1652 17.749 23.0004 17.3518 23 16.9375Z" fill="#EE0033"/>
<path d="M4 14.5938L5.1016 13.4922L7.125 15.5078V11.4688C7.1267 10.0189 7.7034 8.6288 8.7286 7.6036C9.7538 6.5784 11.1439 6.0017 12.5938 6H16.5V7.5625H12.5938C11.5582 7.5638 10.5653 7.9757 9.833 8.708C9.1007 9.4403 8.6888 10.4331 8.6875 11.4688V15.5078L10.711 13.4922L11.8125 14.5938L7.9063 18.5L4 14.5938Z" fill="#EE0033"/>
<path d="M38 25.4062L36.8984 26.5078L34.875 24.4922L34.875 28.5312C34.8733 29.9811 34.2966 31.3712 33.2714 32.3964C32.2462 33.4216 30.8561 33.9983 29.4062 34L25.5 34L25.5 32.4375L29.4062 32.4375C30.4418 32.4362 31.4347 32.0243 32.167 31.292C32.8993 30.5597 33.3112 29.5669 33.3125 28.5312L33.3125 24.4922L31.289 26.5078L30.1875 25.4062L34.0937 21.5L38 25.4062Z" fill="#EE0033"/>
</g>
<defs>
<clipPath id="clip0_8787_2065">
<rect width="41" height="41" fill="white"/>
</clipPath>
</defs>
</svg>
