<svg width="74" height="74" viewBox="0 0 74 74" fill="none" xmlns="http://www.w3.org/2000/svg">
<g filter="url(#filter0_d_38_97)">
<path d="M33 17C41.8745 17 49 24.1903 49 33C49 41.8745 41.8097 49 33 49C24.1255 49 17 41.8097 17 33C17 24.1903 24.1255 17 33 17Z" fill="white" stroke="#EE0033" stroke-width="0.8201" stroke-miterlimit="10"/>
<path d="M28.0816 28.6784V38.4784H26.2196L22.2016 32.0384V38.4784H20.1996V28.6784H22.1456L26.0796 35.0204V28.6784H28.0816ZM36.1906 35.6364H31.3186C31.468 36.6257 32.042 37.1204 33.0406 37.1204C33.4513 37.1204 33.806 37.0504 34.1046 36.9104C34.4126 36.7704 34.7113 36.5371 35.0006 36.2104L35.9666 37.1344C35.696 37.5824 35.2853 37.9417 34.7346 38.2124C34.1933 38.4831 33.596 38.6184 32.9426 38.6184C31.8506 38.6184 31.0013 38.3011 30.3946 37.6664C29.788 37.0224 29.4846 36.1357 29.4846 35.0064C29.4846 33.8677 29.788 32.9717 30.3946 32.3184C31.0106 31.6651 31.8553 31.3384 32.9286 31.3384C33.9553 31.3384 34.7533 31.6604 35.3226 32.3044C35.9013 32.9484 36.1906 33.8444 36.1906 34.9924V35.6364ZM34.4406 34.3344C34.4406 33.8584 34.3006 33.4851 34.0206 33.2144C33.75 32.9344 33.372 32.7944 32.8866 32.7944C32.448 32.7944 32.0933 32.9391 31.8226 33.2284C31.552 33.5084 31.3793 33.9051 31.3046 34.4184H34.4406V34.3344ZM46.3405 31.4784L44.5485 38.4784H42.9805L41.5805 33.4104L40.1805 38.4784H38.5985L36.8065 31.4784H38.6685L39.5505 35.8324L40.7825 31.4784H42.3645L43.5965 35.8324L44.4785 31.4784H46.3405Z" fill="#EE0033"/>
</g>
<defs>
<filter id="filter0_d_38_97" x="0.589844" y="0.589966" width="72.8203" height="72.8201" filterUnits="userSpaceOnUse" color-interpolation-filters="sRGB">
<feFlood flood-opacity="0" result="BackgroundImageFix"/>
<feColorMatrix in="SourceAlpha" type="matrix" values="0 0 0 0 0 0 0 0 0 0 0 0 0 0 0 0 0 0 127 0" result="hardAlpha"/>
<feOffset dx="4" dy="4"/>
<feGaussianBlur stdDeviation="10"/>
<feComposite in2="hardAlpha" operator="out"/>
<feColorMatrix type="matrix" values="0 0 0 0 0 0 0 0 0 0 0 0 0 0 0 0 0 0 0.25 0"/>
<feBlend mode="normal" in2="BackgroundImageFix" result="effect1_dropShadow_38_97"/>
<feBlend mode="normal" in="SourceGraphic" in2="effect1_dropShadow_38_97" result="shape"/>
</filter>
</defs>
</svg>
