<svg width="21" height="21" viewBox="0 0 21 21" fill="none" xmlns="http://www.w3.org/2000/svg">
<g clip-path="url(#clip0_51_138)">
<path d="M3.30631 18.568C2.63747 19.2576 1.98985 19.9367 1.21484 20.7517C0.864495 20.3442 0.492914 19.9681 0.185033 19.5501C0.110717 19.4457 0.1638 19.1531 0.269966 19.0486C0.843262 18.4531 1.43779 17.8993 2.05355 17.3038C1.43779 16.3008 1.11929 15.256 1.19361 14.1067C1.27854 12.9156 1.72444 11.8708 2.55253 11.0037C3.39124 10.126 4.28304 9.31109 5.13236 8.4439C5.39778 8.17226 5.58888 8.19315 5.82244 8.4648C6.08786 8.76779 6.3745 9.06034 6.74608 9.45736C7.35123 8.76779 7.90329 8.14091 8.49782 7.46179C8.94372 7.89016 9.30468 8.19315 9.60195 8.54838C9.66565 8.62152 9.61256 8.90362 9.51701 9.0081C9.01803 9.5305 8.49782 10.0216 7.98823 10.5126C8.77385 11.2649 9.52763 11.9962 10.3345 12.7798C10.7698 12.3619 11.29 11.8917 11.7571 11.3902C12.0438 11.0872 12.2349 11.0768 12.5321 11.3798C12.7975 11.6514 13.1585 11.8395 13.4664 12.0589C13.4239 12.1425 13.3815 12.2261 13.339 12.3097C12.7232 12.853 12.1075 13.3963 11.3643 14.044C11.9164 14.462 12.3729 14.7963 12.8506 15.1515C12.5746 15.4441 12.4578 15.5903 12.3198 15.7157C11.566 16.4575 10.8122 17.1889 10.0691 17.9307C8.35981 19.6233 5.86491 19.9681 3.73097 18.7979C3.64604 18.7665 3.56111 18.7143 3.30631 18.568ZM5.42963 10.6693C4.85633 11.2231 4.21934 11.7559 3.67789 12.3724C2.56315 13.6575 2.69055 15.559 3.90084 16.7814C5.06866 17.9725 7.04335 18.171 8.33857 17.1262C9.01803 16.5829 9.54886 15.8724 10.0903 15.2873" fill="white"/>
<path d="M8.41309 5.21556C9.54906 4.14986 10.6001 2.97969 11.8422 2.04981C13.5303 0.796053 15.42 0.796053 17.2992 1.73637C17.4266 1.79906 17.5433 1.8722 17.7663 2.00802C18.329 1.42293 18.9023 0.837845 19.4543 0.231861C19.7091 -0.0397874 19.9108 -0.0502352 20.1338 0.242309C20.2081 0.336341 20.3037 0.419925 20.3886 0.503509C21.1636 1.26621 21.1636 1.27666 20.3674 2.04981C19.9427 2.46773 19.5074 2.87521 19.0509 3.29313C19.6242 4.2021 19.9427 5.14242 19.9321 6.17678C19.9215 7.47233 19.5074 8.61116 18.605 9.55148C17.7451 10.45 16.832 11.3067 15.9509 12.1844C15.7598 12.3829 15.6005 12.4351 15.3776 12.2157C13.0844 9.94851 10.7806 7.69174 8.47678 5.42452C8.47678 5.39318 8.46617 5.35138 8.41309 5.21556ZM15.6854 9.9903C16.2057 9.47834 16.7153 8.99774 17.2036 8.49623C18.467 7.21113 18.5307 5.27825 17.3523 3.9618C16.1844 2.64535 14.1248 2.40505 12.7234 3.53343C12.0652 4.06628 11.545 4.76629 10.9929 5.36183C12.5005 6.84545 14.0823 8.4022 15.6854 9.9903Z" fill="white"/>
</g>
<defs>
<clipPath id="clip0_51_138">
<rect width="21" height="21" fill="white"/>
</clipPath>
</defs>
</svg>
