<svg width="41" height="41" viewBox="0 0 41 41" fill="none" xmlns="http://www.w3.org/2000/svg">
<rect x="0.953125" y="0.0410156" width="40" height="40" rx="5" fill="#FFEAEE"/>
<path d="M29.7588 16.0777C33.5782 16.0777 36.2519 14.6452 36.2519 13.3562C36.2519 12.0671 33.5783 10.6348 29.7588 10.6348C25.9394 10.6348 23.2656 12.0672 23.2656 13.3562C23.2656 14.6453 25.9392 16.0777 29.7588 16.0777Z" fill="#EE0033"/>
<path d="M23.3125 15.2188V17.7015C23.3125 18.9906 25.9861 20.4229 29.8056 20.4229C33.625 20.4229 36.2988 18.9905 36.2988 17.7015V15.2188C35.0097 16.3169 32.6224 17.0809 29.8056 17.0809C26.9889 17.033 24.6017 16.3169 23.3125 15.2188Z" fill="#EE0033"/>
<path d="M23.3125 19.5176V22.0003C23.3125 23.2894 25.9861 24.7217 29.8056 24.7217C33.625 24.7217 36.2988 23.2893 36.2988 22.0003V19.5176C35.0097 20.6157 32.6224 21.3797 29.8056 21.3797C26.9889 21.3797 24.6017 20.6158 23.3125 19.5176Z" fill="#EE0033"/>
<path d="M23.3125 23.8613V26.344C23.3125 27.6331 25.9861 29.0655 29.8056 29.0655C33.625 29.0655 36.2988 27.6331 36.2988 26.344V23.8613C35.0097 24.9595 32.6224 25.7234 29.8056 25.7234C26.9889 25.7234 24.6017 25.0073 23.3125 23.8613Z" fill="#EE0033"/>
<path d="M23.3125 28.2539V30.7366C23.3125 32.0257 25.9861 33.4581 29.8056 33.4581C33.625 33.4581 36.2988 32.0257 36.2988 30.7366V28.2539C35.0097 29.352 32.6224 30.116 29.8056 30.116C26.9889 30.0682 24.6017 29.3521 23.3125 28.2539Z" fill="#EE0033"/>
<path d="M17.4897 23.3828L14.1476 26.7249C13.8612 27.0113 13.527 27.1546 13.0973 27.1546C12.7154 27.1546 12.3334 27.0113 12.047 26.7249L8.70488 23.3828C6.74735 24.0512 5.60156 25.197 5.60156 26.4383C5.60156 28.5389 8.89579 30.1622 13.0495 30.1622C17.251 30.1622 20.4975 28.5389 20.4975 26.3905C20.5932 25.1493 19.4472 24.0513 17.4899 23.3829L17.4897 23.3828Z" fill="#EE0033"/>
<path d="M5.69531 28.6836V30.7366C5.69531 32.8372 8.98954 34.4605 13.1433 34.4605C17.3447 34.4605 20.5912 32.8372 20.5912 30.7366V28.6836C19.2067 30.1636 16.4852 31.1185 13.1433 31.1185C9.84905 31.1185 7.08017 30.1637 5.69531 28.6836Z" fill="#EE0033"/>
<path d="M12.8155 26.01C12.911 26.1054 13.0064 26.1533 13.1497 26.1533C13.293 26.1533 13.3885 26.1054 13.4839 26.01L17.6854 21.8085C17.8287 21.6652 17.8763 21.4743 17.7809 21.2833C17.6854 21.0924 17.5421 20.997 17.3512 20.997H16.0142V10.1592C16.0142 9.92041 15.8233 9.68164 15.5367 9.68164C15.2503 9.68164 15.0592 9.87257 15.0592 10.1592V21.4741C15.0592 21.7129 15.2501 21.9516 15.5367 21.9516H16.2051L13.1496 25.0071L10.0942 21.9516H10.7626C11.0014 21.9516 11.2401 21.7607 11.2401 21.4741L11.2399 10.1592C11.2399 9.92041 11.049 9.68164 10.7624 9.68164C10.5236 9.68164 10.2848 9.87257 10.2848 10.1592V20.997H8.94814C8.75721 20.997 8.56628 21.0924 8.51844 21.2833C8.42298 21.4743 8.4706 21.6652 8.61391 21.8085L12.8155 26.01Z" fill="#EE0033"/>
<path d="M13.1416 21.4732C13.3804 21.4732 13.6191 21.2822 13.6191 20.9956V18.1787C13.6191 17.9399 13.4282 17.7012 13.1416 17.7012C12.9028 17.7012 12.6641 17.8921 12.6641 18.1787V20.9956C12.6643 21.2344 12.9028 21.4732 13.1416 21.4732Z" fill="#EE0033"/>
<path d="M13.1416 16.0787C13.3804 16.0787 13.6191 15.8878 13.6191 15.6012V9.53808C13.6191 9.29931 13.4282 9.06055 13.1416 9.06055C12.9028 9.06055 12.6641 9.25147 12.6641 9.53808V15.6012C12.6643 15.84 12.9028 16.0787 13.1416 16.0787Z" fill="#EE0033"/>
<path d="M13.1416 8.29691C13.3804 8.29691 13.6191 8.10598 13.6191 7.81937V6.10058C13.6191 5.86181 13.4282 5.62305 13.1416 5.62305C12.9028 5.62305 12.6641 5.81397 12.6641 6.10058V7.81937C12.6643 8.10598 12.9028 8.29691 13.1416 8.29691Z" fill="#EE0033"/>
</svg>
