<svg width="41" height="41" viewBox="0 0 41 41" fill="none" xmlns="http://www.w3.org/2000/svg">
<rect x="0.953125" y="0.541016" width="40" height="40" rx="5" fill="#FFEAEE"/>
<path d="M19.3906 29.916V20.541C19.391 20.1267 19.5558 19.7296 19.8487 19.4366C20.1417 19.1437 20.5389 18.9789 20.9531 18.9785H30.3281C30.7424 18.9789 31.1396 19.1437 31.4325 19.4366C31.7255 19.7296 31.8902 20.1267 31.8906 20.541V29.916C31.8902 30.3303 31.7255 30.7275 31.4325 31.0204C31.1396 31.3133 30.7424 31.4781 30.3281 31.4785H20.9531C20.5389 31.4781 20.1417 31.3133 19.8487 31.0204C19.5558 30.7275 19.391 30.3303 19.3906 29.916ZM10.0156 19.7598L11.1172 18.6582L13.1406 20.6738V16.6348C13.1423 15.1849 13.719 13.7948 14.7442 12.7696C15.7694 11.7444 17.1595 11.1677 18.6094 11.166H22.5156V12.7285H18.6094C17.5738 12.7298 16.5809 13.1417 15.8486 13.874C15.1163 14.6063 14.7044 15.5991 14.7031 16.6348V20.6738L16.7266 18.6582L17.8281 19.7598L13.9219 23.666L10.0156 19.7598Z" fill="#EE0033"/>
</svg>
