<svg width="41" height="41" viewBox="0 0 41 41" fill="none" xmlns="http://www.w3.org/2000/svg">
<rect x="0.953125" y="0.541016" width="40" height="40" rx="5" fill="#FFEAEE"/>
<path d="M29.3906 29.916V20.541C29.3902 20.1267 29.2255 19.7296 28.9325 19.4366C28.6396 19.1437 28.2424 18.9789 27.8281 18.9785H18.4531C18.0389 18.9789 17.6417 19.1437 17.3487 19.4366C17.0558 19.7296 16.891 20.1267 16.8906 20.541V29.916C16.891 30.3303 17.0558 30.7275 17.3487 31.0204C17.6417 31.3133 18.0389 31.4781 18.4531 31.4785H27.8281C28.2424 31.4781 28.6396 31.3133 28.9325 31.0204C29.2255 30.7275 29.3902 30.3303 29.3906 29.916ZM17.6719 9.60352L16.5703 10.7051L18.5859 12.7285H14.5469C13.097 12.7302 11.7069 13.3069 10.6817 14.3321C9.65648 15.3573 9.07978 16.7474 9.07812 18.1973V22.1035H10.6406V18.1973C10.6419 17.1616 11.0538 16.1688 11.7861 15.4365C12.5184 14.7042 13.5113 14.2923 14.5469 14.291H18.5859L16.5703 16.3145L17.6719 17.416L21.5781 13.5098L17.6719 9.60352Z" fill="#EE0033"/>
</svg>
