<svg width="75" height="70" viewBox="0 0 75 70" fill="none" xmlns="http://www.w3.org/2000/svg">
<path d="M36.4288 34.7424H33.7084C33.3051 33.3588 32.2331 32.2757 30.8495 31.8834V23.618C30.8495 22.9838 30.331 22.4653 29.6968 22.4653C29.0625 22.4653 28.544 22.9838 28.544 23.618V31.8834C26.7917 32.3908 25.501 33.9813 25.501 35.895C25.501 38.2122 27.3802 40.0914 29.6974 40.0914C31.6111 40.0914 33.2017 38.8002 33.709 37.0484H36.4294C37.0636 37.0484 37.5821 36.5299 37.5821 35.8957C37.5816 35.2615 37.0625 34.7424 36.4289 34.7424L36.4288 34.7424ZM29.6967 37.786C28.6591 37.786 27.8063 36.9331 27.8063 35.8956C27.8063 34.858 28.6591 34.0052 29.6967 34.0052C30.7342 34.0052 31.5871 34.858 31.5871 35.8956C31.5871 36.9326 30.7342 37.786 29.6967 37.786Z" fill="#EE0033"/>
<path d="M59.3341 37.3714C59.357 36.8874 59.392 36.4028 59.392 35.9072C59.392 27.446 55.8298 19.802 50.1235 14.3851L51.2301 13.0944L55.6223 16.5525C55.8298 16.7139 56.0834 16.7945 56.3371 16.7945C56.3833 16.7945 56.4295 16.7945 56.4868 16.7829C56.7978 16.7484 57.0748 16.587 57.259 16.3334C60.4634 12.1024 59.6795 5.98127 55.5183 2.68455C51.3453 -0.601161 45.2124 0.0564165 41.8464 4.15989C41.6506 4.40189 41.5582 4.71342 41.5927 5.01274C41.6272 5.32375 41.7774 5.60077 42.0306 5.7966L46.2726 9.1512L45.1316 10.5115C40.6359 7.76771 35.3447 6.17716 29.7071 6.17716C24.116 6.17716 18.8826 7.7332 14.4211 10.4309L13.2567 9.03612L17.4988 5.68153C17.7408 5.4857 17.9021 5.20866 17.9366 4.89767C17.9711 4.58666 17.8788 4.28681 17.6829 4.04481C14.2715 -0.0358341 8.13855 -0.692868 3.97707 2.59271C-0.195968 5.87842 -0.968079 11.9996 2.23639 16.2415C2.42108 16.4835 2.69758 16.6449 3.00858 16.691C3.05475 16.7027 3.10092 16.7027 3.15825 16.7027C3.41193 16.7027 3.66561 16.6104 3.87312 16.4607L8.2653 13.0026L9.37183 14.2938C3.60771 19.7119 0 27.4009 0 35.9205C0 45.9727 5.02585 54.872 12.7037 60.2549L11.2284 64.6699C10.8479 65.7998 11.0326 67.0099 11.7358 67.9785C12.439 68.947 13.5226 69.5 14.7216 69.5C16.1509 69.5 17.4537 68.6583 18.053 67.3676L19.6786 63.8633C22.8024 64.9932 26.1803 65.604 29.6846 65.604C33.7541 65.604 37.6156 64.7623 41.1433 63.2752L43.0454 67.3675C43.6451 68.6587 44.9592 69.4999 46.3768 69.4999H46.3885C47.5873 69.4999 48.6711 68.9463 49.3743 67.9783C49.6397 67.6095 49.801 67.2061 49.9162 66.7795C52.4753 68.4969 55.5417 69.4998 58.8503 69.4998C67.7153 69.4998 74.9201 62.2949 74.9201 53.43C74.9196 44.7146 67.9685 37.6255 59.3341 37.3714ZM54.0775 4.50476C56.9592 6.77571 57.7202 10.8107 56.0486 13.9573L51.8638 10.6604C51.841 10.6376 51.8293 10.6026 51.7948 10.5798L48.6822 8.15923L44.4168 4.79295C47.1032 2.43016 51.2069 2.2455 54.0775 4.50476ZM48.0602 10.5916L49.4088 11.6636L48.3829 12.8508C47.945 12.4936 47.4839 12.1476 47.0226 11.8133L48.0602 10.5916ZM3.43599 13.8539C1.7642 10.7068 2.52529 6.67231 5.40709 4.40136C6.76736 3.32932 8.40451 2.79913 10.0412 2.79913C11.8509 2.79913 13.6496 3.44448 15.056 4.67839L10.8712 7.98638L7.67791 10.4765C7.65509 10.4993 7.63174 10.5343 7.60892 10.5571L3.43599 13.8539ZM10.0641 11.5601L11.4126 10.4881L12.4502 11.7331C11.989 12.0675 11.5278 12.4019 11.0899 12.759L10.0641 11.5601ZM15.955 66.3863C15.5399 67.2742 14.1681 67.4005 13.6033 66.6055C13.338 66.2483 13.269 65.7988 13.4186 65.3721L14.6982 61.5101C15.6089 62.0519 16.5657 62.5359 17.5338 62.9743L15.955 66.3863ZM2.29393 35.9068C2.29393 20.7934 14.5826 8.50592 29.6839 8.50592C44.7973 8.50592 57.0848 20.7946 57.0848 35.9068C57.0848 36.437 57.0386 36.9443 57.0158 37.4628C56.1629 37.5663 55.3212 37.7282 54.514 37.9585C54.5719 37.2781 54.6064 36.5982 54.6064 35.895C54.6064 22.1538 43.4358 10.9832 29.6945 10.9832C15.9532 10.9832 4.78265 22.1537 4.78265 35.895C4.78265 49.6362 15.9532 60.8069 29.6945 60.8069C34.6513 60.8069 39.2739 59.3427 43.1477 56.8298C43.3324 57.6715 43.5855 58.4899 43.897 59.2737C39.7468 61.8099 34.8939 63.2853 29.683 63.2853C14.5819 63.297 2.29304 51.0083 2.29304 35.9062L2.29393 35.9068ZM42.7798 53.4168C42.7798 53.705 42.8026 53.9815 42.8259 54.2585C42.5494 54.4544 42.2496 54.6391 41.9614 54.8349L40.659 52.5868C40.3363 52.0332 39.6331 51.8491 39.0796 52.1601C38.5261 52.4827 38.3419 53.1859 38.6529 53.7395L39.9553 55.9987C37.1887 57.4169 34.1105 58.2814 30.8371 58.4543V55.8373C30.8371 55.2031 30.3186 54.6846 29.6844 54.6846C29.0502 54.6846 28.5317 55.2031 28.5317 55.8373V58.4543C25.2577 58.293 22.1684 57.4285 19.4018 56.0104L20.7159 53.7395C21.0386 53.1859 20.8427 52.4827 20.2892 52.1601C19.7357 51.8374 19.0325 52.0332 18.7098 52.5868L17.3957 54.8577C14.7214 53.1286 12.4506 50.8461 10.7209 48.1718L12.9919 46.8577C13.5454 46.535 13.7296 45.8318 13.4186 45.2783C13.0959 44.7248 12.3927 44.5406 11.8391 44.8516L9.57988 46.1779C8.16174 43.4113 7.30893 40.3219 7.13597 37.048H9.75296C10.3872 37.048 10.9057 36.5295 10.9057 35.8953C10.9057 35.2611 10.3872 34.7426 9.75296 34.7426L7.14766 34.742C7.30899 31.468 8.17353 28.3787 9.59156 25.6122L11.8508 26.9262C12.0355 27.0297 12.2314 27.0759 12.4272 27.0759C12.8305 27.0759 13.211 26.8684 13.4302 26.4995C13.7529 25.946 13.5571 25.2428 13.0035 24.9201L10.7326 23.6061C12.4617 20.9429 14.7442 18.6609 17.4074 16.9313L18.7215 19.2022C18.9407 19.571 19.3212 19.7786 19.7245 19.7786C19.9203 19.7786 20.1167 19.7324 20.3009 19.6289C20.8544 19.3062 21.0386 18.603 20.7276 18.0495L19.4135 15.7785C22.1801 14.3604 25.2695 13.5076 28.5434 13.3346V15.9516C28.5434 16.5858 29.0619 17.1043 29.6961 17.1043C30.3303 17.1043 30.8488 16.5858 30.8488 15.9516V13.3346C34.1228 13.496 37.2121 14.3488 39.9787 15.7669L38.6646 18.0378C38.3419 18.5913 38.5378 19.2945 39.0913 19.6172C39.276 19.7207 39.4718 19.7669 39.6677 19.7669C40.071 19.7669 40.4515 19.5594 40.6707 19.1905L41.9848 16.9196C44.6591 18.6487 46.9299 20.9312 48.6707 23.5944L46.3998 24.9084C45.8462 25.2311 45.6621 25.9343 45.9731 26.4878C46.1923 26.8567 46.5728 27.0642 46.9761 27.0642C47.172 27.0642 47.3683 27.018 47.5525 26.9145L49.8234 25.6005C51.2416 28.3671 52.0944 31.4565 52.2673 34.7303H49.6503C49.0161 34.7303 48.4976 35.2489 48.4976 35.8831C48.4976 36.5173 49.0161 37.0358 49.6503 37.0358H52.2785C52.244 37.6466 52.1861 38.2575 52.1055 38.8572C46.5839 41.428 42.7798 46.9851 42.7798 53.4168ZM47.4946 66.6162C47.2293 66.9734 46.8259 67.1809 46.3881 67.1809H46.3764C45.8462 67.1809 45.3622 66.8699 45.1313 66.3853L43.2409 62.3275C43.4946 62.2007 43.7366 62.0393 43.9786 61.9008C43.9903 61.9008 43.9903 61.8891 44.0015 61.8891C44.3013 61.7161 44.6012 61.5548 44.9005 61.3706C45.6154 62.6157 46.4799 63.7566 47.483 64.7714L47.6905 65.3823C47.829 65.8095 47.76 66.259 47.4946 66.6162ZM58.8498 67.1814C51.2643 67.1814 45.0855 61.0024 45.0855 53.4171C45.0855 45.8316 51.2645 39.6528 58.8498 39.6528C66.4347 39.6523 72.6141 45.8315 72.6141 53.4158C72.6141 61.0013 66.435 67.18 58.8498 67.18V67.1814Z" fill="#EE0033"/>
<path d="M58.8508 41.9595C52.5337 41.9595 47.3921 47.1011 47.3921 53.4182C47.3921 59.7353 52.5337 64.8769 58.8508 64.8769C65.1679 64.8769 70.3095 59.7353 70.3095 53.4182C70.3089 47.1005 65.1679 41.9595 58.8508 41.9595ZM58.8508 62.5713C53.8016 62.5713 49.6975 58.4672 49.6975 53.418C49.6975 48.3688 53.8016 44.2648 58.8508 44.2648C63.9 44.2648 68.004 48.3688 68.004 53.418C68.0035 58.4672 63.8995 62.5713 58.8508 62.5713Z" fill="#EE0033"/>
<path d="M58.8504 49.0717C59.7266 49.0717 60.4415 49.7865 60.4415 50.6627C60.4415 51.297 60.96 51.8155 61.5942 51.8155C62.2284 51.8155 62.747 51.297 62.747 50.6627C62.747 48.9104 61.5826 47.4466 60.0032 46.951V46.4086C60.0032 45.7744 59.4847 45.2559 58.8505 45.2559C58.2163 45.2559 57.6978 45.7744 57.6978 46.4086V46.9621C56.1067 47.4578 54.9429 48.9221 54.9429 50.6739C54.9429 52.8296 56.6952 54.5816 58.8506 54.5816C59.7268 54.5816 60.4417 55.2965 60.4417 56.1727C60.4417 57.0489 59.7268 57.7638 58.8506 57.7638C57.9627 57.7638 57.2483 57.0489 57.2483 56.1727C57.2483 55.5385 56.7298 55.02 56.0956 55.02C55.4614 55.02 54.9429 55.5385 54.9429 56.1727C54.9429 57.925 56.1073 59.3888 57.6978 59.8845V60.438C57.6978 61.0722 58.2163 61.5907 58.8505 61.5907C59.4847 61.5907 60.0032 61.0722 60.0032 60.438V59.8845C61.5943 59.3888 62.747 57.9245 62.747 56.1727C62.747 54.0169 60.9946 52.2761 58.8504 52.2761C57.9625 52.2761 57.2482 51.5613 57.2482 50.6739C57.2477 49.786 57.9625 49.0717 58.8504 49.0717Z" fill="#EE0033"/>
</svg>
