<svg width="80" height="70" viewBox="0 0 80 70" fill="none" xmlns="http://www.w3.org/2000/svg">
<path d="M39.9767 0.5005C30.7559 0.5005 22.0992 4.07544 15.6386 10.6617C14.8859 11.4144 14.8859 12.6068 15.6386 13.2968C16.3914 14.0495 17.5837 14.0495 18.2737 13.2968C24.0446 7.46313 31.76 4.26412 39.978 4.26412C55.4713 4.26412 68.3307 15.8687 70.3379 30.8604L67.3893 28.539C66.5738 27.9117 65.3826 28.0372 64.7553 28.8526C64.128 29.6681 64.2535 30.8605 65.0689 31.4877L71.3416 36.5059C71.4044 36.5686 71.4676 36.6314 71.5304 36.6314C71.5304 36.6314 71.5925 36.6308 71.5925 36.6935C71.6553 36.7563 71.7813 36.7568 71.844 36.8195C71.9067 36.8823 72.0322 36.8823 72.1576 36.8823H72.5334C72.6589 36.8823 72.7843 36.8823 72.9098 36.8195C72.9725 36.8195 72.972 36.8201 73.0347 36.7574C73.0974 36.7574 73.2234 36.6935 73.2862 36.6935C73.3489 36.6935 73.3494 36.6314 73.4122 36.6314C73.4749 36.5686 73.5992 36.5686 73.662 36.5059C73.7874 36.4432 73.8502 36.3177 73.9756 36.1923L78.9938 29.9196C79.621 29.1041 79.4956 27.9117 78.6801 27.2845C77.8647 26.6572 76.6734 26.7826 76.0462 27.5981L74.0395 30.1072C71.6559 13.3594 57.2903 0.5 39.9776 0.5L39.9767 0.5005ZM39.9767 14.6142C28.6859 14.6142 19.5284 23.7723 19.5284 35.0008C19.5284 46.2293 28.7492 55.3875 39.9767 55.3875C51.2042 55.3875 60.425 46.2293 60.425 35.0008C60.425 23.7723 51.2669 14.6142 39.9767 14.6142ZM39.9767 18.3778C49.1975 18.3778 56.6629 25.8422 56.6629 35.0008C56.6629 44.1594 49.1356 51.6238 39.9767 51.6238C30.8179 51.6238 23.2906 44.1594 23.2906 35.0008C23.2906 25.8422 30.7551 18.3778 39.9767 18.3778ZM39.9767 20.762C38.9104 20.762 38.0949 21.6402 38.0949 22.6438L38.1576 31.4878C36.9031 32.1778 36.0882 33.4323 36.0882 34.9377C36.0882 37.1331 37.8439 38.889 40.0395 38.889C41.4821 38.9518 42.7367 38.1369 43.4267 36.8823H48.2562C49.3226 36.8823 50.138 36.0042 50.138 35.0005C50.138 33.9342 49.2598 33.1187 48.2562 33.1187H43.4895C43.1132 32.4287 42.6113 31.9269 41.9213 31.5505L41.8585 22.6438C41.8585 21.5774 41.0431 20.762 39.9767 20.762ZM7.16941 33.1814C7.04395 33.1814 6.9185 33.2435 6.85577 33.2435H6.7936C6.73088 33.2435 6.60486 33.3068 6.54214 33.3696C6.47941 33.3696 6.47997 33.4323 6.41724 33.4323C6.35452 33.495 6.29123 33.4944 6.2285 33.5572L6.16634 33.621C6.10361 33.6838 5.9776 33.7454 5.91487 33.8708L0.896704 40.1435C0.269434 40.959 0.394888 42.1514 1.21034 42.7786C2.02579 43.4059 3.21818 43.2804 3.84545 42.465L5.85272 39.9559C8.299 56.642 22.6636 69.5 39.9762 69.5C49.197 69.5 57.8538 65.9251 64.3143 59.3388C65.0671 58.5861 65.0671 57.3937 64.3143 56.7037C63.5616 55.951 62.3693 55.951 61.6792 56.7037C55.9083 62.5374 48.193 65.7364 39.9749 65.7364C24.4817 65.7364 11.6223 54.1318 9.61505 39.1401L12.5637 41.4615C12.9401 41.7124 13.3153 41.9 13.7544 41.9C14.319 41.9 14.8841 41.6491 15.1976 41.21C15.8249 40.3946 15.6995 39.2022 14.884 38.5749L8.6113 33.5568C8.54857 33.494 8.42312 33.4319 8.29767 33.3691C8.29767 33.3691 8.23494 33.3697 8.23494 33.307C8.17221 33.307 8.10948 33.2431 8.04676 33.2431H7.85914C7.79641 33.2431 7.73312 33.181 7.60767 33.181L7.16941 33.1814Z" fill="#606060"/>
</svg>
