<svg xmlns="http://www.w3.org/2000/svg" width="71" height="71" viewBox="0 0 71 71">
    <g fill="none" fill-rule="evenodd">
        <circle cx="35.437" cy="35.437" r="35.437" fill="#FFF"/>
        <path fill="#000" fill-rule="nonzero" stroke="#000" stroke-width=".5" d="M22.637 36.19v6.394a1.6 1.6 0 1 0 3.2 0V36.19a1.6 1.6 0 1 0-3.2 0zm-1.6 0a3.2 3.2 0 0 1 6.4 0v6.394a3.2 3.2 0 0 1-6.4 0V36.19zm12.8 15.197c0 .446.355.8.798.8h1.604a.801.801 0 0 0 0-1.6h-1.604a.801.801 0 0 0-.798.8zm-1.6 0c0-1.324 1.076-2.4 2.398-2.4h1.604a2.401 2.401 0 0 1 0 4.8h-1.604a2.395 2.395 0 0 1-2.398-2.4zm12.8-15.197v6.394a1.6 1.6 0 1 0 3.2 0V36.19a1.6 1.6 0 1 0-3.2 0zm-1.6 0a3.2 3.2 0 0 1 6.4 0v6.394a3.2 3.2 0 0 1-6.4 0V36.19zm-20.8 4.058a.8.8 0 1 1-1.6 0v-8.06c0-7.512 6.089-13.6 13.6-13.6h1.6c7.51 0 13.6 6.088 13.6 13.6v8.002a.8.8 0 1 1-1.6 0v-8.003c0-6.627-5.373-12-12-12h-1.6c-6.628 0-12 5.373-12 12v8.06zm23.2 4.742a.8.8 0 1 1 1.6 0 7.197 7.197 0 0 1-7.197 7.197h-2.403a.8.8 0 1 1 0-1.6h2.403a5.597 5.597 0 0 0 5.597-5.597z"/>
    </g>
</svg>
