<?xml version="1.0" encoding="UTF-8"?>
<svg width="29px" height="25px" viewBox="0 0 29 25" version="1.1" xmlns="http://www.w3.org/2000/svg" xmlns:xlink="http://www.w3.org/1999/xlink">
    <!-- Generator: Sketch 55 (78076) - https://sketchapp.com -->
    <title>add_cart_icn</title>
    <desc>Created with Sketch.</desc>
    <g id="UI" stroke="none" stroke-width="1" fill="none" fill-rule="evenodd">
        <g id="add_cart_icn" transform="translate(-0.477535, 0.117484)" fill="#d4e6f4" fill-rule="nonzero">
            <path d="M7.78460236,12.4153494 L22.1966495,12.4153494 C22.9068419,12.4153494 23.5094794,11.8835274 23.5979208,11.1788195 L23.7092922,10.288161 L23.826986,10.2022886 C24.2186867,10.2758879 24.6186972,10.3132343 25.023534,10.3132343 L25.0579585,10.3131443 L25.1577096,10.4255464 L25.0410036,11.3591942 C24.8621914,12.7908383 23.639584,13.8699608 22.1966495,13.8699608 L8.07557086,13.8699608 L8.24127095,14.6983297 C8.47238624,15.8539061 9.49569014,16.6930543 10.673582,16.6930543 L23.0158299,16.6930543 C23.4173575,16.6930543 23.7431356,17.0188324 23.7431356,17.42036 C23.7431356,17.8218876 23.4173575,18.1476657 23.0158299,18.1476657 L10.673582,18.1476657 C8.8040645,18.1476657 7.18103223,16.8174154 6.8144575,14.9845417 L4.23922635,2.10627251 L1.6273057,2.10627251 C1.22577811,2.10627251 0.9,1.78049439 0.9,1.37896681 C0.9,0.977439221 1.22577811,0.651661108 1.6273057,0.651661108 L4.83558433,0.651661108 C5.18200943,0.651661108 5.48012561,0.896195266 5.5484546,1.23638675 L6.07324856,3.85993974 L18.4848287,3.85993974 L18.5848204,3.9586515 C18.5902142,4.37730656 18.6356023,4.79044767 18.7197121,5.19415474 L18.6218142,5.31455114 L6.36421706,5.31455114 L7.78460236,12.4153494 Z M20.8769775,24.3790378 C19.3992172,24.3790378 18.1960046,23.1758252 18.1960046,21.6980648 C18.1960046,20.2203045 19.3992172,19.0170919 20.8769775,19.0170919 C22.3547378,19.0170919 23.5579504,20.2203045 23.5579504,21.6980648 C23.5579504,23.1758252 22.3547378,24.3790378 20.8769775,24.3790378 Z M20.8769775,20.2865181 C20.098928,20.2865181 19.4654308,20.9200153 19.4654308,21.6980648 C19.4654308,22.4761144 20.098928,23.1096116 20.8769775,23.1096116 C21.655027,23.1096116 22.2885242,22.4761144 22.2885242,21.6980648 C22.2885242,20.9200153 21.655027,20.2865181 20.8769775,20.2865181 Z M10.1827154,24.3790378 C8.70495508,24.3790378 7.50174246,23.1758252 7.50174246,21.6980648 C7.50174246,20.2203045 8.70495508,19.0170919 10.1827154,19.0170919 C11.6604757,19.0170919 12.8636883,20.2203045 12.8636883,21.6980648 C12.8636883,23.1758252 11.6604757,24.3790378 10.1827154,24.3790378 Z M10.1827154,20.2865181 C9.40466587,20.2865181 8.77116867,20.9200153 8.77116867,21.6980648 C8.77116867,22.4761144 9.40466587,23.1096116 10.1827154,23.1096116 C10.9607649,23.1096116 11.5942621,22.4761144 11.5942621,21.6980648 C11.5942621,20.9200153 10.9607649,20.2865181 10.1827154,20.2865181 Z" id="Combined-Shape"></path>
            <path d="M25.023534,7.74795112 C22.8839964,7.74795112 21.1495584,6.01351319 21.1495584,3.87397556 C21.1495584,1.73443794 22.8839964,0 25.023534,0 C27.1630716,0 28.8975096,1.73443794 28.8975096,3.87397556 C28.8975096,6.01351319 27.1630716,7.74795112 25.023534,7.74795112 Z M25.5643882,4.41482975 L26.752721,4.41482975 C27.0514265,4.41482975 27.2935752,4.17268108 27.2935752,3.87397556 C27.2935752,3.57527004 27.0514265,3.33312137 26.752721,3.33312137 L25.5643882,3.33312137 L25.5643882,2.14478855 C25.5643882,1.84608303 25.3222395,1.60393436 25.023534,1.60393436 C24.7248285,1.60393436 24.4826798,1.84608303 24.4826798,2.14478855 L24.4826798,3.33312137 L23.294347,3.33312137 C22.9956415,3.33312137 22.7534928,3.57527004 22.7534928,3.87397556 C22.7534928,4.17268108 22.9956415,4.41482975 23.294347,4.41482975 L24.4826798,4.41482975 L24.4826798,5.60316257 C24.4826798,5.9018681 24.7248285,6.14401677 25.023534,6.14401677 C25.3222395,6.14401677 25.5643882,5.9018681 25.5643882,5.60316257 L25.5643882,4.41482975 Z" id="Combined-Shape" stroke="#d4e6f4" stroke-width="0.2"></path>
        </g>
    </g>
</svg>
