<?xml version="1.0" encoding="UTF-8"?>
<svg width="18px" height="18px" viewBox="0 0 18 18" version="1.1" xmlns="http://www.w3.org/2000/svg" xmlns:xlink="http://www.w3.org/1999/xlink">
    <!-- Generator: Sketch 54.1 (76490) - https://sketchapp.com -->
    <title>block_icn</title>
    <desc>Created with Sketch.</desc>
    <g id="UI" stroke="none" stroke-width="1" fill="none" fill-rule="evenodd">
        <g id="DỊch-vụ-Cloud" transform="translate(-1209.000000, -1171.000000)" fill="#7F8287" fill-rule="nonzero">
            <path d="M1211.2792,1171.7 L1224.9541,1171.7 C1225.94821,1171.7 1226.7541,1172.50589 1226.7541,1173.5 L1226.7541,1176.72996 C1226.7541,1177.72407 1225.94821,1178.52996 1224.9541,1178.52996 L1211.2792,1178.52996 C1210.28509,1178.52996 1209.4792,1177.72407 1209.4792,1176.72996 L1209.4792,1173.5 C1209.4792,1172.50589 1210.28509,1171.7 1211.2792,1171.7 Z M1211.2792,1173.3 C1211.16874,1173.3 1211.0792,1173.38954 1211.0792,1173.5 L1211.0792,1176.72996 C1211.0792,1176.84042 1211.16874,1176.92996 1211.2792,1176.92996 L1224.9541,1176.92996 C1225.06456,1176.92996 1225.1541,1176.84042 1225.1541,1176.72996 L1225.1541,1173.5 C1225.1541,1173.38954 1225.06456,1173.3 1224.9541,1173.3 L1211.2792,1173.3 Z M1211.2792,1181.20902 L1224.9541,1181.20902 C1225.94821,1181.20902 1226.7541,1182.01491 1226.7541,1183.00902 L1226.7541,1186.23898 C1226.7541,1187.2331 1225.94821,1188.03898 1224.9541,1188.03898 L1211.2792,1188.03898 C1210.28509,1188.03898 1209.4792,1187.2331 1209.4792,1186.23898 L1209.4792,1183.00902 C1209.4792,1182.01491 1210.28509,1181.20902 1211.2792,1181.20902 Z M1211.2792,1182.80902 C1211.16874,1182.80902 1211.0792,1182.89856 1211.0792,1183.00902 L1211.0792,1186.23898 C1211.0792,1186.34944 1211.16874,1186.43898 1211.2792,1186.43898 L1224.9541,1186.43898 C1225.06456,1186.43898 1225.1541,1186.34944 1225.1541,1186.23898 L1225.1541,1183.00902 C1225.1541,1182.89856 1225.06456,1182.80902 1224.9541,1182.80902 L1211.2792,1182.80902 Z" id="block_icn"></path>
        </g>
    </g>
</svg>