<?xml version="1.0" encoding="UTF-8"?>
<svg width="23px" height="23px" viewBox="0 0 23 23" version="1.1" xmlns="http://www.w3.org/2000/svg" xmlns:xlink="http://www.w3.org/1999/xlink">
    <!-- Generator: Sketch 54.1 (76490) - https://sketchapp.com -->
    <title>call_icn</title>
    <desc>Created with Sketch.</desc>
    <g id="UI" stroke="none" stroke-width="1" fill="none" fill-rule="evenodd">
        <path d="M16.5254985,15.471962 C16.4389758,15.4006434 16.3145436,15.3989358 16.2260951,15.4678536 L15.0775687,16.3627635 C13.9869569,17.2125514 12.4330296,17.111944 11.461096,16.1286185 C10.7167051,15.3754969 9.97020438,14.6246308 9.22159386,13.8760203 C8.47298576,13.1274122 7.72212068,12.3809125 6.96899855,11.6365211 C5.98567106,10.664593 5.88506178,9.11066403 6.73484976,8.02005213 L7.63031558,6.87081212 C7.69917472,6.7824388 7.69753502,6.65812238 7.62637172,6.57160255 C6.24436271,4.89143456 5.26197005,3.72244162 4.70886714,3.09981565 C4.13168007,3.4077164 3.36917669,4.02955827 2.37950173,4.98896254 C1.66067189,5.68580591 1.4979335,6.77788642 1.98236089,7.65403559 C3.43144511,10.2748865 5.38947332,12.8190382 7.85661852,15.2861834 C10.318059,17.7476239 12.8465137,19.6926625 15.4414788,21.1213498 C16.3158976,21.602771 17.4042031,21.4405997 18.1002742,20.7251557 C19.0354728,19.7639267 19.6992495,18.9746201 20.0155215,18.4508277 C19.4513696,17.9099954 18.4350707,17.0459759 16.5254985,15.471962 Z M8.02293148,10.5702269 C8.77812427,11.316665 9.53105561,12.0652189 10.2817254,12.8158888 C11.0323964,13.5665597 11.7809513,14.319492 12.5273881,15.0746836 C12.9651022,15.517528 13.6649199,15.5628367 14.1560817,15.180131 L15.3046081,14.285221 C15.9469816,13.7846935 16.8507047,13.7970978 17.4790985,14.3150675 C19.7646241,16.1989707 21.0615375,17.3016132 21.4601496,17.7002252 C21.6444077,17.8844834 21.7197594,18.1512086 21.6591523,18.4046428 C21.4809458,19.1498305 20.7025598,20.2004112 19.1748554,21.7706379 C18.0081562,22.9698084 16.1840262,23.241627 14.718395,22.4347073 C11.9982914,20.9371235 9.35780563,18.9076337 6.79648699,16.346315 C4.23013616,13.7799642 2.18801031,11.1244391 0.670305122,8.37947857 C-0.141653508,6.91094714 0.131115492,5.08048932 1.33596066,3.91249615 C2.81248205,2.48113637 3.86920133,1.69310467 4.64453818,1.45177458 C4.91049767,1.36899248 5.20042785,1.4405035 5.39738891,1.63746457 C5.8221843,2.06225994 6.92796035,3.36242589 8.78426027,5.61920979 C9.30113623,6.24762381 9.31305523,7.15046515 8.81294815,7.79229901 L7.91748277,8.94153845 C7.53477752,9.43269966 7.5800869,10.1325161 8.02293148,10.5702269 Z M22.2887242,9.52845533 C22.2887242,9.94246244 21.9531051,10.2780815 21.539098,10.2780815 C21.1250909,10.2780815 20.7894718,9.94246244 20.7894718,9.52845533 C20.7894718,5.57269511 17.5826945,2.36591781 13.6269343,2.36591781 C13.2129272,2.36591781 12.8773081,2.03029871 12.8773081,1.6162916 C12.8773081,1.20228448 13.2129272,0.86666538 13.6269343,0.86666538 C18.4107088,0.86666538 22.2887242,4.74468085 22.2887242,9.52845533 Z M19.3216628,9.52845533 C19.3216628,9.94246244 18.9860437,10.2780815 18.5720366,10.2780815 C18.1580295,10.2780815 17.8224104,9.94246244 17.8224104,9.52845533 C17.8224104,7.21135788 15.9440317,5.33297921 13.6269343,5.33297921 C13.2129272,5.33297921 12.8773081,4.99736011 12.8773081,4.583353 C12.8773081,4.16934588 13.2129272,3.83372678 13.6269343,3.83372678 C16.772046,3.83372678 19.3216628,6.38334362 19.3216628,9.52845533 Z" id="call_icn" fill="#0DABA0" fill-rule="nonzero"></path>
    </g>
</svg>
