<?xml version="1.0" encoding="UTF-8"?>
<svg width="26px" height="24px" viewBox="0 0 26 24" version="1.1" xmlns="http://www.w3.org/2000/svg" xmlns:xlink="http://www.w3.org/1999/xlink">
    <!-- Generator: Sketch 54.1 (76490) - https://sketchapp.com -->
    <title>cart_icn</title>
    <desc>Created with Sketch.</desc>
    <g id="UI" stroke="none" stroke-width="1" fill="none" fill-rule="evenodd">
        <path d="M24.8255204,3.22574753 C25.0338537,3.22574753 25.2319496,3.31506926 25.370575,3.47120516 C25.5088231,3.62691624 25.5732984,3.83626606 25.5470612,4.04324582 L24.7118416,10.725002 C24.5330294,12.1566461 23.3104221,13.2357686 21.8674875,13.2357686 L7.7464089,13.2357686 L7.91210899,14.0641375 C8.14322428,15.2197139 9.16652818,16.0588621 10.3444201,16.0588621 L22.686668,16.0588621 C23.0881956,16.0588621 23.4139737,16.3846402 23.4139737,16.7861678 C23.4139737,17.1876954 23.0881956,17.5134735 22.686668,17.5134735 L10.3444201,17.5134735 C8.47490254,17.5134735 6.85187027,16.1832232 6.48529554,14.3503495 L3.91006438,1.47208029 L1.29814374,1.47208029 C0.896616151,1.47208029 0.570838038,1.14630218 0.570838038,0.744774593 C0.570838038,0.343247007 0.896616151,0.0174688943 1.29814374,0.0174688943 L4.50642237,0.0174688943 C4.85284747,0.0174688943 5.15096364,0.262003052 5.21929264,0.602194539 L5.7440866,3.22574753 L24.8255204,3.22574753 Z M21.8674875,11.7811572 C22.5776799,11.7811572 23.1803175,11.2493352 23.2687588,10.5446273 L24.0020502,4.68035893 L6.0350551,4.68035893 L7.4554404,11.7811572 L21.8674875,11.7811572 Z M20.5478156,23.7448456 C19.0700552,23.7448456 17.8668426,22.5416329 17.8668426,21.0638726 C17.8668426,19.5861123 19.0700552,18.3828997 20.5478156,18.3828997 C22.0255759,18.3828997 23.2287885,19.5861123 23.2287885,21.0638726 C23.2287885,22.5416329 22.0255759,23.7448456 20.5478156,23.7448456 Z M20.5478156,19.6523259 C19.769766,19.6523259 19.1362688,20.2858231 19.1362688,21.0638726 C19.1362688,21.8419221 19.769766,22.4754193 20.5478156,22.4754193 C21.3258651,22.4754193 21.9593623,21.8419221 21.9593623,21.0638726 C21.9593623,20.2858231 21.3258651,19.6523259 20.5478156,19.6523259 Z M9.85355343,23.7448456 C8.37579311,23.7448456 7.17258049,22.5416329 7.17258049,21.0638726 C7.17258049,19.5861123 8.37579311,18.3828997 9.85355343,18.3828997 C11.3313137,18.3828997 12.5345264,19.5861123 12.5345264,21.0638726 C12.5345264,22.5416329 11.3313137,23.7448456 9.85355343,23.7448456 Z M9.85355343,19.6523259 C9.07550391,19.6523259 8.44200671,20.2858231 8.44200671,21.0638726 C8.44200671,21.8419221 9.07550391,22.4754193 9.85355343,22.4754193 C10.631603,22.4754193 11.2651002,21.8419221 11.2651002,21.0638726 C11.2651002,20.2858231 10.631603,19.6523259 9.85355343,19.6523259 Z" id="cart_icn" fill="#0DABA0" fill-rule="nonzero"></path>
    </g>
</svg>
