<svg viewBox="0 0 1024 1024" version="1.1" xmlns="http://www.w3.org/2000/svg"><path d="M512 0C229.195005 0 0 229.195005 0 512s229.195005 512 512 512 512-229.195005 512-512S794.804995 0 512 0z m246.573167 699.225104c17.214217 17.378162 17.214217 45.576689 0 62.954851-8.853026 8.689081-20.165226 12.951649-31.477426 12.951649-11.3122 0-22.6244-4.426513-31.477425-12.951649L513.967339 580.528979 332.480307 762.179955c-8.853026 8.689081-20.165226 12.951649-31.477425 12.951649-11.3122 0-22.6244-4.426513-31.477426-12.951649-17.214217-17.378162-17.214217-45.576689 0-62.954851l181.487032-181.487032L269.525456 336.087096c-17.378162-17.378162-17.378162-45.576689 0-62.954851 17.378162-17.378162 45.576689-17.378162 62.954851 0l181.487032 181.487031 192.799232-192.963176c17.378162-17.378162 45.576689-17.378162 62.954851 0 17.214217 17.378162 17.214217 45.576689 0 62.954851L576.92219 517.574127l181.650977 181.650977z m0 0" fill="" /></svg>