<?xml version="1.0" encoding="utf-8"?>
<!-- Svg Vector Icons : http://www.onlinewebfonts.com/icon -->
<!DOCTYPE svg PUBLIC "-//W3C//DTD SVG 1.1//EN" "http://www.w3.org/Graphics/SVG/1.1/DTD/svg11.dtd">
<svg version="1.1" xmlns="http://www.w3.org/2000/svg" xmlns:xlink="http://www.w3.org/1999/xlink" x="0px" y="0px" viewBox="0 0 1000 1000" enable-background="new 0 0 1000 1000" xml:space="preserve">
<metadata> Svg Vector Icons : http://www.onlinewebfonts.com/icon </metadata>
<g><g transform="translate(0.000000,512.000000) scale(0.100000,-0.100000)"><path d="M4621,5016.4c-1005.8-103.5-1825.8-415.7-2590.3-986.7c-241.4-180.1-762.5-701.2-942.6-942.6C568.9,2389.8,250.9,1613.8,124.4,726.8c-32.6-226.1-32.6-980.9,0-1207c126.5-889,446.4-1672.6,965.6-2360.4c180.1-239.5,546-618.8,795.1-823.8c986.7-812.3,2285.6-1214.7,3540.5-1097.8C6563.7-4655,7581-4187.5,8403-3392.4c852.6,827.7,1366,1896.7,1477.1,3084.6C9997,947.1,9594.6,2246.1,8782.3,3232.8c-779.8,946.5-1862.2,1557.6-3098,1747.3C5490.8,5008.8,4789.6,5033.7,4621,5016.4z M5195.8,4361.2c436.8-206.9,852.6-1034.6,1082.5-2157.3c21.1-103.5,38.3-199.2,38.3-214.6c0-23-206.9-26.8-1322-26.8c-1155.3,0-1322,3.8-1322,28.7c0,15.3,21.1,134.1,49.8,262.5c226.1,1092.1,638,1898.6,1071,2105.6C4942.9,4432.1,5044.4,4432.1,5195.8,4361.2z M3760.8,4142.8c-277.8-434.9-557.5-1243.4-691.6-1992.5l-32.6-187.8h-957.9c-904.3,0-957.9,1.9-944.5,32.6c5.7,19.2,63.2,124.5,126.5,235.7c519.2,913.9,1343,1601.7,2333.5,1946.5c101.5,36.4,195.4,65.1,206.9,65.1C3814.4,4242.4,3797.2,4200.3,3760.8,4142.8z M6469.8,4152.4c843-312.3,1580.6-892.8,2084.5-1640c90.1-132.2,310.4-515.4,310.4-538.4c0-5.8-431.1-11.5-956-11.5h-956l-21.1,130.3c-130.3,756.8-421.5,1607.4-705,2050l-65.1,103.5l63.2-13.4C6259.1,4225.2,6370.2,4188.8,6469.8,4152.4z M2956.1,1269c-74.7-557.5-74.7-1733.9,0-2289.5l11.5-82.4H1923.4H879.3l-47.9,197.3C737.5-528.1,712.6-319.3,712.6,123.3c0,442.6,24.9,651.4,118.8,1030.7l47.9,195.4h1044.2h1044.2L2956.1,1269z M6412.4,1330.3c0-9.6,13.4-162.9,30.6-339.1c51.7-538.4,42.2-1379.4-23-1983l-13.4-111.1h-1412h-1412l-13.4,111.1c-76.6,712.7-76.6,1517.4,0,2232l13.4,109.2h1413.9C5912.3,1349.4,6412.4,1343.7,6412.4,1330.3z M9159.7,1144.4c97.7-410,115-563.3,115-1011.6c0-452.1-19.2-632.3-115-1028.8l-49.8-206.9H8065.8H7021.6l11.5,82.4c74.7,551.8,74.7,1735.8,0,2289.5l-11.5,80.5h1044.2h1044.2L9159.7,1144.4z M3069.1-1901.8c134.1-754.9,413.8-1557.6,691.6-1992.5c36.4-55.5,57.5-101.5,47.9-101.5c-34.5,0-406.2,136-574.8,210.7c-854.5,375.5-1624.7,1105.5-2040.4,1931.2l-69,137.9h956h956L3069.1-1901.8z M6316.6-1742.8c0-44.1-70.9-371.7-132.2-616.9C5916.2-3423,5423.8-4168.3,4994.6-4168.3c-166.7,0-364,122.6-532.6,331.4c-321.9,398.5-578.6,1042.2-751,1885.2c-21.1,99.6-38.3,193.5-38.3,208.8c0,23,206.9,26.8,1322,26.8C6109.6-1716,6316.6-1719.8,6316.6-1742.8z M8795.7-1853.9c-419.6-831.5-1187.9-1557.6-2053.8-1938.9c-159-69-528.8-203.1-561.4-203.1c-9.6,0,11.5,46,47.9,101.5c281.6,440.7,574.8,1293.2,703.1,2050l21.1,128.4h956h956L8795.7-1853.9z"/></g></g>
</svg>