<?xml version="1.0" standalone="no"?><!DOCTYPE svg PUBLIC "-//W3C//DTD SVG 1.1//EN" "http://www.w3.org/Graphics/SVG/1.1/DTD/svg11.dtd"><svg class="icon" viewBox="0 0 1199 1024" version="1.1" xmlns="http://www.w3.org/2000/svg"><path d="M602.217121 215.724587A269.134523 269.134523 0 0 1 876.014115 485.200267a194.497076 194.497076 0 0 1-21.909824 97.002147l158.789368 156.287554a652.329015 652.329015 0 0 0 186.195602-253.289701 644.975198 644.975198 0 0 0-602.330643-404.118754 746.412379 746.412379 0 0 0-219.060339 37.906271l120.466129 118.532909a240.856445 240.856445 0 0 1 104.052713-21.796106zM54.623133 70.202414l125.962538 123.953505 21.871918 21.568668a582.467757 582.467757 0 0 0-202.609018 269.399867A645.051011 645.051011 0 0 0 602.217121 889.281113a732.311246 732.311246 0 0 0 240.932257-43.099429l21.909825 21.530761L1023.848571 1023.962094l71.187977-70.050789L125.811109 0z m301.165321 296.389131l82.142889 80.81617v37.90627a160.078182 160.078182 0 0 0 164.285778 161.670245 108.525653 108.525653 0 0 0 38.32324-5.38269l82.142889 80.816169a237.558599 237.558599 0 0 1-120.466129 32.334049 269.134523 269.134523 0 0 1-273.796994-269.437773 289.945066 289.945066 0 0 1 27.368327-118.72244z m235.473755-43.09943l169.744281 167.015029v-10.76538a160.078182 160.078182 0 0 0-164.247872-161.670246c0 5.420597 0 5.420597-5.496409 5.420597z" /></svg>