<?xml version="1.0" standalone="no"?><!DOCTYPE svg PUBLIC "-//W3C//DTD SVG 1.1//EN" "http://www.w3.org/Graphics/SVG/1.1/DTD/svg11.dtd"><svg class="icon" viewBox="0 0 1568 1024" version="1.1" xmlns="http://www.w3.org/2000/svg"><path d="M784.144144 1024c-350.558559 0-654.990991-212.18018-784.144144-516.612613C129.153153 212.18018 433.585586 0 784.144144 0s654.990991 212.18018 784.144144 516.612613c-129.153153 295.207207-433.585586 507.387387-784.144144 507.387387z m0-848.720721c-184.504505 0-341.333333 156.828829-341.333333 341.333334s156.828829 341.333333 341.333333 341.333333 341.333333-156.828829 341.333333-341.333333c0-193.72973-156.828829-341.333333-341.333333-341.333334z m0 507.387388c-92.252252 0-175.279279-73.801802-175.279279-175.27928s73.801802-175.279279 175.279279-175.279279c92.252252 0 175.279279 73.801802 175.279279 175.279279s-83.027027 175.279279-175.279279 175.27928z" /></svg>