<?xml version="1.0" encoding="UTF-8"?>
<svg width="35px" height="35px" viewBox="0 0 35 35" version="1.1" xmlns="http://www.w3.org/2000/svg" xmlns:xlink="http://www.w3.org/1999/xlink">
    <!-- Generator: Sketch 54.1 (76490) - https://sketchapp.com -->
    <title>google_icn</title>
    <desc>Created with Sketch.</desc>
    <g id="UI" stroke="none" stroke-width="1" fill="none" fill-rule="evenodd">
        <g id="Vietel-Home-" transform="translate(-329.000000, -3418.000000)" fill-rule="nonzero">
            <g id="google_icn" transform="translate(329.514286, 3418.168549)">
                <path d="M14.072706,16.7085461 L14.072706,18.5759719 L17.1765195,18.5759719 C17.0514288,19.3774088 16.2383391,20.925816 14.072706,20.925816 C12.2041633,20.925816 10.6796202,19.3851897 10.6796202,17.4866402 C10.6796202,15.5880907 12.2041633,14.0474645 14.072706,14.0474645 C15.1359771,14.0474645 15.8474306,14.498759 16.2539754,14.8878061 L17.7394277,13.4638939 C16.785611,12.5768667 15.5503401,12.0399818 14.072706,12.0399818 C11.0470742,12.0399818 8.59998699,14.4754162 8.59998699,17.4866402 C8.59998699,20.4978643 11.0470742,22.9332986 14.072706,22.9332986 C17.2312467,22.9332986 19.3265162,20.7235115 19.3265162,17.6111353 C19.3265162,17.253212 19.2874254,16.9808791 19.2405163,16.7085461 L14.072706,16.7085461 L14.072706,16.7085461 Z" id="Shape" fill="#a6a6a6"></path>
                <polyline id="Shape-Copy" fill="#a6a6a6" points="25.799961 16.7085461 24.236327 16.7085461 24.236327 15.152358 22.672693 15.152358 22.672693 16.7085461 21.109059 16.7085461 21.109059 18.2647343 22.672693 18.2647343 22.672693 19.8209224 24.236327 19.8209224 24.236327 18.2647343 25.799961 18.2647343"></polyline>
            </g>
        </g>
    </g>
</svg>
