<?xml version="1.0" encoding="UTF-8"?>
<svg width="16px" height="16px" viewBox="0 0 16 16" version="1.1" xmlns="http://www.w3.org/2000/svg" xmlns:xlink="http://www.w3.org/1999/xlink">
    <!-- Generator: Sketch 54.1 (76490) - https://sketchapp.com -->
    <title>grid_icn</title>
    <desc>Created with Sketch.</desc>
    <g id="UI" stroke="none" stroke-width="1" fill="none" fill-rule="evenodd">
        <g id="DỊch-vụ-Cloud" transform="translate(-1208.000000, -1172.000000)" fill="#7F8287" fill-rule="nonzero">
            <path d="M1214.75,1179.375 L1209.125,1179.375 C1208.75,1179.375 1208.5,1179.125 1208.5,1178.75 L1208.5,1173.125 C1208.5,1172.75 1208.75,1172.5 1209.125,1172.5 L1214.75,1172.5 C1215.125,1172.5 1215.375,1172.75 1215.375,1173.125 L1215.375,1178.75 C1215.375,1179.125 1215.125,1179.375 1214.75,1179.375 Z M1209.75,1178.125 L1214.125,1178.125 L1214.125,1173.75 L1209.75,1173.75 L1209.75,1178.125 Z M1222.875,1179.375 L1217.25,1179.375 C1216.875,1179.375 1216.625,1179.125 1216.625,1178.75 L1216.625,1173.125 C1216.625,1172.75 1216.875,1172.5 1217.25,1172.5 L1222.875,1172.5 C1223.25,1172.5 1223.5,1172.75 1223.5,1173.125 L1223.5,1178.75 C1223.5,1179.125 1223.25,1179.375 1222.875,1179.375 Z M1217.875,1178.125 L1222.25,1178.125 L1222.25,1173.75 L1217.875,1173.75 L1217.875,1178.125 Z M1214.75,1187.5 L1209.125,1187.5 C1208.75,1187.5 1208.5,1187.25 1208.5,1186.875 L1208.5,1181.25 C1208.5,1180.875 1208.75,1180.625 1209.125,1180.625 L1214.75,1180.625 C1215.125,1180.625 1215.375,1180.875 1215.375,1181.25 L1215.375,1186.875 C1215.375,1187.25 1215.125,1187.5 1214.75,1187.5 Z M1209.75,1186.25 L1214.125,1186.25 L1214.125,1181.875 L1209.75,1181.875 L1209.75,1186.25 Z M1222.875,1187.5 L1217.25,1187.5 C1216.875,1187.5 1216.625,1187.25 1216.625,1186.875 L1216.625,1181.25 C1216.625,1180.875 1216.875,1180.625 1217.25,1180.625 L1222.875,1180.625 C1223.25,1180.625 1223.5,1180.875 1223.5,1181.25 L1223.5,1186.875 C1223.5,1187.25 1223.25,1187.5 1222.875,1187.5 Z M1217.875,1186.25 L1222.25,1186.25 L1222.25,1181.875 L1217.875,1181.875 L1217.875,1186.25 Z" id="grid_icn"></path>
        </g>
    </g>
</svg>