<svg xmlns="http://www.w3.org/2000/svg" width="20" height="14" viewBox="0 0 20 14">
    <g fill="#FFF" fill-rule="nonzero">
        <path d="M18.814.126L7.667.133A1.157 1.157 0 0 0 6.51 1.292v.531a2.247 2.247 0 0 0-.905-.174c-.468 0-.857.106-.9.12a.616.616 0 0 0-.243.131L.213 5.622A.632.632 0 0 0 0 6.108l.037 6.128c.008.326.383.592.71.607.017 0 1.601.066 3.001.066.854 0 1.456-.022 1.84-.07 1.12-.141 1.61-.472 1.813-.682.21-.154.398-.305.594-.457a1.334 1.334 0 0 0 1.282 1.684c.367 0 .704-.152.95-.405.121.164.275.307.469.407a1.325 1.325 0 0 0 1.786-.587l.881-1.735c.161-.318.195-.679.083-1.016a1.273 1.273 0 0 0-.155-.306l5.514.003c.64 0 1.16-.52 1.161-1.158l.005-7.288A1.168 1.168 0 0 0 18.814.126zM10.602 10.54l-.879 1.737a.506.506 0 0 1-.67.22.501.501 0 0 1-.22-.67l.724-1.424s.237-.578.615-.584a.488.488 0 0 1 .46.34.478.478 0 0 1-.03.38zM9.217 9.012l-.795.728h.007c-.497.432-1.09.91-1.82 1.45-.054.04-.058.035-.097.09-.003.002-.244.217-1.075.32-.228.028-.703.024-1.688.024-.855 0-1.92.013-2.503-.007l.01-5.249 3.91-3.426c.105-.02.265-.043.438-.043.255 0 .43.045.525.139V7.37c0 .22.116.422.306.535.022.013.047.01.07.021v.047l.058-.03a.599.599 0 0 0 .489-.024c.971-.526 2.812-1.363 3.614-1.363.036 0 .067 0 .088.004l.01.018c.017.083.097.805-1.547 2.433zm3.403 1.672l-.879 1.737a.508.508 0 0 1-.67.22.5.5 0 0 1-.218-.67l.88-1.736a.496.496 0 0 1 .918.068.48.48 0 0 1-.031.381zm6.576-2.1a.386.386 0 0 1-.387.387l-7.869-.003c.643-.793 1.013-1.505 1.074-2.122.045-.488-.1-.8-.206-.954-.131-.249-.44-.587-1.142-.587-.917 0-2.346.6-3.288 1.049v-1.73l11.819-.003-.001 3.963zm0-6.253L7.282 2.325V1.29c0-.213.173-.386.385-.386L18.814.895a.4.4 0 0 1 .386.4l-.003 1.036z"/>
        <path d="M18.319 8.255l-.008-1.048-3.052-.002.01 1.05z"/>
    </g>
</svg>
