<svg xmlns="http://www.w3.org/2000/svg" width="20" height="19" viewBox="0 0 20 19">
    <path fill="#FFF" fill-rule="nonzero" d="M15.46 15.01c.485 0 .906.185 1.263.556.357.371.535.8.535 1.285 0 .485-.178.906-.535 1.263a1.728 1.728 0 0 1-1.263.535c-.486 0-.914-.179-1.285-.535-.371-.357-.557-.778-.557-1.263 0-.486.186-.914.557-1.285.371-.371.8-.557 1.285-.557zM.816.407h2.997l.856 1.799H18.2c.257 0 .471.092.642.278a.945.945 0 0 1 .257.664.826.826 0 0 1-.128.428l-3.254 5.909c-.343.628-.871.942-1.585.942H7.324l-.813 1.498-.043.129c0 .143.071.214.214.214h10.576v1.841H6.296c-.485 0-.906-.185-1.263-.557-.356-.37-.535-.799-.535-1.284 0-.286.071-.571.214-.856l1.242-2.27-3.297-6.936H.816V.408zm5.48 14.601c.486 0 .914.186 1.285.557.371.371.557.8.557 1.285 0 .485-.186.906-.557 1.263-.371.356-.8.535-1.285.535-.485 0-.906-.179-1.263-.535a1.728 1.728 0 0 1-.535-1.263c0-.486.179-.914.535-1.285.357-.371.778-.557 1.263-.557z"/>
</svg>
