<svg xmlns="http://www.w3.org/2000/svg" width="17" height="16" viewBox="0 0 17 16">
    <g fill="#FFF" fill-rule="nonzero">
        <path d="M10.625 12.75v1.063h-4.25V12.75H.531v2.656c0 .293.238.531.531.531h14.876a.531.531 0 0 0 .53-.53V12.75h-5.843zM16.469 2.656h-4.782V.531a.531.531 0 0 0-.53-.531H5.843a.531.531 0 0 0-.532.531v2.125H.532A.531.531 0 0 0 0 3.187v7.97c0 .293.238.53.531.53h5.844v-1.062h4.25v1.063h5.844a.531.531 0 0 0 .531-.532V3.187a.531.531 0 0 0-.531-.53zm-5.844 0h-4.25V1.062h4.25v1.594z"/>
    </g>
</svg>
