<svg xmlns="http://www.w3.org/2000/svg" width="25" height="18" viewBox="0 0 25 18">
    <path fill="#FFF" fill-rule="nonzero" d="M20.746.408H.596v13.175h20.15V.408zm-1.938 11.238H2.533v-9.3h16.275v9.3zm-8.171-1.554c1.71 0 3.1-1.391 3.1-3.1 0-1.71-1.39-3.1-3.1-3.1-1.71 0-3.1 1.39-3.1 3.1 0 1.709 1.39 3.1 3.1 3.1zm0-4.263a1.164 1.164 0 1 1-1.163 1.162c0-.64.522-1.162 1.163-1.162zm6.587 1.167c0-1.55-2.325-1.55-2.325 0s2.325 1.55 2.325 0zm5.072-3.875v12.012H3.308v1.938h20.925V3.12h-1.937zM6.374 6.996c0-1.55-2.325-1.55-2.325 0s2.325 1.55 2.325 0z"/>
</svg>
