<svg xmlns="http://www.w3.org/2000/svg" width="16" height="19" viewBox="0 0 16 19">
    <g fill="#FFF" fill-rule="nonzero">
        <path d="M13.958 13.201l1.91 1.91v.933H.677v-.933l1.91-1.91V8.493c0-1.481.377-2.77 1.132-3.865.756-1.096 1.8-1.806 3.132-2.132V1.83c0-.385.133-.718.4-1C7.517.55 7.858.408 8.272.408c.415 0 .756.14 1.022.422.267.282.4.615.4 1v.666c1.332.326 2.376 1.036 3.131 2.132.756 1.096 1.133 2.384 1.133 3.865V13.2zM8.272 18.887c-.533 0-.984-.185-1.354-.556a1.792 1.792 0 0 1-.556-1.31h3.82c0 .504-.192.94-.577 1.31-.385.37-.83.556-1.333.556z"/>
    </g>
</svg>
