<svg xmlns="http://www.w3.org/2000/svg" width="26" height="26" viewBox="0 0 26 26">
    <g fill="#FFF" fill-rule="nonzero">
        <path d="M25.414 10.89L13.574.542a.873.873 0 0 0-1.148 0L.586 10.889a.866.866 0 0 0-.081 1.225.873.873 0 0 0 1.228.08l.917-.8v12.91c0 .48.39.868.87.868H22.48a.87.87 0 0 0 .87-.868v-12.91l.918.801a.87.87 0 0 0 1.228-.08.866.866 0 0 0-.08-1.226zM10.99 23.435v-7.15h4.02v7.15h-4.02zM21.609 9.879v13.557h-4.857v-8.019a.87.87 0 0 0-.87-.868h-5.763a.87.87 0 0 0-.87.868v8.019H4.39V9.879v-.007L13 2.35l8.609 7.522v.007z"/>
        <path d="M10.689 8.705c0 .479.404.867.903.867h2.239c.498 0 .902-.388.902-.867s-.404-.867-.902-.867h-2.24c-.498 0-.902.388-.902.867z"/>
    </g>
</svg>
