<svg width="31" height="30" viewBox="0 0 31 30" fill="none" xmlns="http://www.w3.org/2000/svg">
<path d="M26.4797 0.366745C25.9817 0.371516 25.4951 0.544056 25.1143 0.924651L11.9589 14.0793C11.6804 14.3441 11.5884 14.5808 11.4485 14.9105C11.3038 15.2513 11.171 15.661 11.0568 16.1333C10.828 17.0782 10.6902 18.2401 10.8906 19.3983C10.9396 19.7079 11.1993 19.9726 11.5078 20.0275C12.6658 20.2279 13.828 20.09 14.7728 19.8613C15.2451 19.7468 15.6668 19.6024 16.0076 19.4577C16.3373 19.3177 16.574 19.2377 16.8388 18.9591C16.8478 18.9496 16.8536 18.9448 16.8626 18.9355L29.9942 5.80463C30.8646 4.93426 30.6613 3.51553 29.7923 2.64644C29.2858 2.13996 28.779 1.63318 28.2726 1.12675C27.8382 0.692357 27.2644 0.418334 26.6935 0.366904C26.6222 0.360543 26.5509 0.366109 26.4799 0.366904L26.4797 0.366745ZM26.4797 1.88644C26.5216 1.88405 26.5653 1.88087 26.6104 1.88644C26.7909 1.90897 26.9944 1.99749 27.1922 2.19521C27.7042 2.70647 28.2003 3.21532 28.7119 3.72684C29.1075 4.12254 29.0813 4.55644 28.9138 4.72416L27.8926 5.74509L25.1619 3.01442L26.1831 1.99349C26.246 1.93068 26.3541 1.89383 26.48 1.88668L26.4797 1.88644ZM24.0933 4.09473L26.8123 6.81346L15.759 17.8668C15.7417 17.8705 15.6015 17.9776 15.4147 18.0569C15.1656 18.1626 14.8141 18.2813 14.4174 18.3773C13.798 18.5273 13.07 18.58 12.3634 18.5435C12.3284 17.8403 12.3803 17.1054 12.5295 16.4895C12.6255 16.0927 12.7445 15.7532 12.8502 15.5041C12.9295 15.3172 13.0376 15.1683 13.0403 15.1479L24.0933 4.09473ZM3.57701 5.68574C1.69575 5.68547 0.157532 7.22375 0.157532 9.10474V26.5807C0.157532 28.462 1.69581 30 3.57701 30H21.0537C22.9349 30 24.4732 28.462 24.4732 26.5807V14.8034C24.4787 14.4019 24.1148 14.0327 23.7133 14.0327C23.3118 14.0327 22.9479 14.4019 22.9535 14.8034V26.5807C22.9535 27.6462 22.1194 28.4802 21.0537 28.4802H3.57701C2.51157 28.4802 1.67722 27.6462 1.67722 26.5807V9.10474C1.67722 8.0393 2.5113 7.20523 3.57701 7.20523H16.8748C17.2764 7.21079 17.6455 6.8469 17.6455 6.44538C17.6455 6.04386 17.2763 5.67997 16.8748 5.68553L3.57701 5.68574Z" fill="#B5B4B4"/>
</svg>
