<svg width="28" height="25" viewBox="0 0 28 25" fill="none" xmlns="http://www.w3.org/2000/svg">
<path d="M0.860352 15.9238C1.08413 15.9238 1.29874 16.016 1.45697 16.1801C1.61521 16.3442 1.7041 16.5668 1.7041 16.7988V21.1738C1.7041 21.638 1.88189 22.0831 2.19836 22.4113C2.51483 22.7395 2.94405 22.9238 3.3916 22.9238H23.6416C24.0892 22.9238 24.5184 22.7395 24.8348 22.4113C25.1513 22.0831 25.3291 21.638 25.3291 21.1738V16.7988C25.3291 16.5668 25.418 16.3442 25.5762 16.1801C25.7345 16.016 25.9491 15.9238 26.1729 15.9238C26.3966 15.9238 26.6112 16.016 26.7695 16.1801C26.9277 16.3442 27.0166 16.5668 27.0166 16.7988V21.1738C27.0166 22.1021 26.661 22.9923 26.0281 23.6487C25.3952 24.3051 24.5367 24.6738 23.6416 24.6738H3.3916C2.4965 24.6738 1.63805 24.3051 1.00512 23.6487C0.372181 22.9923 0.0166016 22.1021 0.0166016 21.1738V16.7988C0.0166016 16.5668 0.105496 16.3442 0.26373 16.1801C0.421964 16.016 0.636575 15.9238 0.860352 15.9238V15.9238Z" fill="#B5B4B4"/>
<path d="M12.9193 19.3431C12.9977 19.4246 13.0908 19.4893 13.1933 19.5334C13.2958 19.5775 13.4057 19.6002 13.5167 19.6002C13.6277 19.6002 13.7376 19.5775 13.8401 19.5334C13.9426 19.4893 14.0357 19.4246 14.1141 19.3431L19.1766 14.0931C19.335 13.9288 19.424 13.706 19.424 13.4736C19.424 13.2413 19.335 13.0184 19.1766 12.8541C19.0181 12.6898 18.8033 12.5975 18.5792 12.5975C18.3551 12.5975 18.1402 12.6898 17.9818 12.8541L14.3604 16.6114V1.22363C14.3604 0.991568 14.2715 0.769009 14.1133 0.604914C13.9551 0.44082 13.7405 0.348633 13.5167 0.348633C13.2929 0.348633 13.0783 0.44082 12.9201 0.604914C12.7618 0.769009 12.6729 0.991568 12.6729 1.22363V16.6114L9.05157 12.8541C8.89313 12.6898 8.67825 12.5975 8.45419 12.5975C8.23013 12.5975 8.01525 12.6898 7.85682 12.8541C7.69838 13.0184 7.60938 13.2413 7.60938 13.4736C7.60938 13.706 7.69838 13.9288 7.85682 14.0931L12.9193 19.3431V19.3431Z" fill="#B5B4B4"/>
</svg>
