<svg width="76" height="76" viewBox="0 0 76 76" fill="none" xmlns="http://www.w3.org/2000/svg">
<rect x="0.832031" y="0.0634766" width="75" height="75" rx="8" fill="#FEF2F5"/>
<path d="M58.2152 15.4265H18.5379C16.1193 15.4265 14.1523 17.3938 14.1523 19.8121V44.6082C14.1523 47.0269 16.12 48.9938 18.5379 48.9938H30.2271V53.1573H25.5218C23.3961 53.1573 21.6665 54.6096 21.6665 56.3942V58.8498C21.6665 59.2816 22.0164 59.6311 22.4478 59.6311H61.8189C62.2506 59.6311 62.6002 59.2812 62.6002 58.8498V19.8114C62.6012 17.3931 60.6336 15.4258 58.2149 15.4258L58.2152 15.4265ZM15.715 44.6083V19.8122C15.715 18.256 16.9811 16.9893 18.5379 16.9893H58.2152C59.7721 16.9893 61.0381 18.2554 61.0381 19.8122V27.1197H59.5869V19.7217C59.5869 19.0152 59.0124 18.4404 58.3056 18.4404H18.4479C17.7414 18.4404 17.1668 19.0149 17.1668 19.7217V42.1414C17.1668 42.5731 17.5167 42.9227 17.9481 42.9227H43.321V47.4311L18.5377 47.4315C16.9815 47.4315 15.7147 46.165 15.7147 44.6085L15.715 44.6083ZM31.7907 48.9943H43.3213V53.1577H31.7907V48.9943ZM23.2303 56.3955C23.2303 55.4875 24.28 54.7211 25.5229 54.7211H43.3208V58.0702H23.2303V56.3955ZM43.3208 27.9007V41.3604L18.7298 41.36V20.0028H58.0243V27.1193H44.1017C43.6707 27.1193 43.3201 27.4695 43.3201 27.9013L43.3208 27.9007ZM61.0395 58.0694H44.8845V28.6817H61.0395V58.0694ZM52.9617 47.7936C50.8086 47.7936 49.056 49.5456 49.056 51.6993C49.056 53.8531 50.808 55.6051 52.9617 55.6051C55.1155 55.6051 56.8675 53.8531 56.8675 51.6993C56.8675 49.5456 55.1155 47.7936 52.9617 47.7936V47.7936ZM52.9617 54.0418C51.67 54.0418 50.6192 52.9911 50.6192 51.6993C50.6192 50.4076 51.67 49.3568 52.9617 49.3568C54.2535 49.3568 55.3042 50.4076 55.3042 51.6993C55.3042 52.9911 54.2538 54.0418 52.9617 54.0418ZM47.7998 34.7668C47.7998 34.335 48.1497 33.9855 48.5811 33.9855H57.342C57.7738 33.9855 58.1233 34.3354 58.1233 34.7668C58.1233 35.1985 57.7735 35.5481 57.342 35.5481H48.5811C48.1501 35.5488 47.7998 35.1985 47.7998 34.7668ZM47.7998 41.0706C47.7998 40.6388 48.1497 40.2893 48.5811 40.2893H57.342C57.7738 40.2893 58.1233 40.6392 58.1233 41.0706C58.1233 41.5023 57.7735 41.8519 57.342 41.8519H48.5811C48.1501 41.8519 47.7998 41.502 47.7998 41.0706Z" fill="#EE0033"/>
</svg>
