<svg width="25" height="24" viewBox="0 0 25 24" fill="none" xmlns="http://www.w3.org/2000/svg">
<path fill-rule="evenodd" clip-rule="evenodd" d="M12.25 1C6.175 1 1.25 5.925 1.25 12C1.25 18.075 6.175 23 12.25 23C18.325 23 23.25 18.075 23.25 12C23.25 5.925 18.325 1 12.25 1ZM17.018 10.14C17.1058 10.0396 17.1726 9.92274 17.2146 9.79617C17.2565 9.6696 17.2727 9.53591 17.2623 9.40298C17.2518 9.27006 17.2148 9.14056 17.1536 9.02213C17.0923 8.90369 17.008 8.79871 16.9055 8.71334C16.8031 8.62798 16.6846 8.56396 16.5571 8.52506C16.4296 8.48616 16.2955 8.47316 16.1629 8.48683C16.0302 8.50049 15.9017 8.54055 15.7847 8.60463C15.6678 8.66872 15.5649 8.75554 15.482 8.86L11.182 14.019L8.957 11.793C8.7684 11.6108 8.5158 11.51 8.2536 11.5123C7.9914 11.5146 7.74059 11.6198 7.55518 11.8052C7.36977 11.9906 7.2646 12.2414 7.26233 12.5036C7.26005 12.7658 7.36084 13.0184 7.543 13.207L10.543 16.207C10.6413 16.3052 10.7589 16.3818 10.8884 16.4321C11.0179 16.4823 11.1565 16.505 11.2953 16.4986C11.434 16.4923 11.57 16.4572 11.6944 16.3954C11.8188 16.3337 11.9291 16.2467 12.018 16.14L17.018 10.14Z" fill="#1C77FF"/>
</svg>
