<svg width="22" height="21" viewBox="0 0 22 21" fill="none" xmlns="http://www.w3.org/2000/svg">
<path d="M11 21C13.7848 21 16.4555 19.8938 18.4246 17.9246C20.3938 15.9555 21.5 13.2848 21.5 10.5C21.5 7.71523 20.3938 5.04451 18.4246 3.07538C16.4555 1.10625 13.7848 0 11 0C8.21523 0 5.54451 1.10625 3.57538 3.07538C1.60625 5.04451 0.5 7.71523 0.5 10.5C0.5 13.2848 1.60625 15.9555 3.57538 17.9246C5.54451 19.8938 8.21523 21 11 21ZM11 11.7735L8.561 14.2125C8.39212 14.3814 8.16308 14.4763 7.92425 14.4763C7.68542 14.4763 7.45638 14.3814 7.2875 14.2125C7.11862 14.0436 7.02375 13.8146 7.02375 13.5757C7.02375 13.3369 7.11862 13.1079 7.2875 12.939L9.7265 10.5L7.2875 8.061C7.20388 7.97738 7.13755 7.87811 7.0923 7.76886C7.04704 7.6596 7.02375 7.54251 7.02375 7.42425C7.02375 7.30599 7.04704 7.1889 7.0923 7.07964C7.13755 6.97039 7.20388 6.87112 7.2875 6.7875C7.37112 6.70388 7.47039 6.63755 7.57964 6.5923C7.6889 6.54704 7.80599 6.52375 7.92425 6.52375C8.04251 6.52375 8.1596 6.54704 8.26886 6.5923C8.37811 6.63755 8.47738 6.70388 8.561 6.7875L11 9.2265L13.439 6.7875C13.5226 6.70388 13.6219 6.63755 13.7311 6.5923C13.8404 6.54704 13.9575 6.52375 14.0758 6.52375C14.194 6.52375 14.3111 6.54704 14.4204 6.5923C14.5296 6.63755 14.6289 6.70388 14.7125 6.7875C14.7961 6.87112 14.8624 6.97039 14.9077 7.07964C14.953 7.1889 14.9763 7.30599 14.9763 7.42425C14.9763 7.54251 14.953 7.6596 14.9077 7.76886C14.8624 7.87811 14.7961 7.97738 14.7125 8.061L12.2735 10.5L14.7125 12.939C14.7961 13.0226 14.8624 13.1219 14.9077 13.2311C14.953 13.3404 14.9763 13.4575 14.9763 13.5757C14.9763 13.694 14.953 13.8111 14.9077 13.9204C14.8624 14.0296 14.7961 14.1289 14.7125 14.2125C14.6289 14.2961 14.5296 14.3624 14.4204 14.4077C14.3111 14.453 14.194 14.4763 14.0758 14.4763C13.9575 14.4763 13.8404 14.453 13.7311 14.4077C13.6219 14.3624 13.5226 14.2961 13.439 14.2125L11 11.7735Z" fill="#DFDFDF"/>
</svg>
