<svg width="76" height="76" viewBox="0 0 76 76" fill="none" xmlns="http://www.w3.org/2000/svg">
<rect x="0.164062" y="0.0634766" width="75" height="75" rx="8" fill="#EE0033" fill-opacity="0.05"/>
<path d="M55.7355 21.1694L39.3631 13.7987C38.286 13.3132 37.147 13.3132 36.0698 13.7987L19.6974 21.1694C18.2408 21.8295 17.332 23.23 17.332 24.8298V41.2518C17.332 52.4948 26.477 61.6331 37.7133 61.6331C48.9495 61.6331 58.0945 52.4881 58.0945 41.2518V24.8235C58.0945 23.2298 57.1919 21.8231 55.7353 21.1692L55.7355 21.1694ZM55.8415 41.2518C55.8415 51.2433 47.7114 59.3804 37.7129 59.3804C27.7152 59.3804 19.5842 51.2437 19.5842 41.2518V24.8235C19.5842 24.1011 19.9576 23.5224 20.6176 23.2237L36.99 15.853C37.4755 15.6352 37.9425 15.6352 38.4281 15.853L54.8004 23.2237C55.4605 23.5162 55.8338 24.1016 55.8338 24.8235L55.8342 41.2518H55.8415ZM48.9687 29.7659C49.4106 30.2077 49.4106 30.9239 48.9687 31.3656L35.0243 45.3101C34.8127 45.5217 34.5264 45.6401 34.2273 45.6401C33.9286 45.6401 33.6419 45.5217 33.4303 45.3101L26.458 38.3379C26.0162 37.8961 26.0162 37.1799 26.458 36.7381C26.8999 36.2963 27.616 36.2963 28.0578 36.7381L34.2334 42.9138L47.3753 29.7719C47.8113 29.3235 48.527 29.3235 48.9693 29.7653L48.9687 29.7659Z" fill="#EE0033"/>
</svg>
