<svg width="27" height="28" viewBox="0 0 27 28" fill="none" xmlns="http://www.w3.org/2000/svg">
<path d="M10.5706 4.81655H16.4634C16.4634 4.05878 16.153 3.33206 15.6005 2.79624C15.0479 2.26042 14.2985 1.9594 13.517 1.9594C12.7356 1.9594 11.9861 2.26042 11.4336 2.79624C10.881 3.33206 10.5706 4.05878 10.5706 4.81655V4.81655ZM8.80273 4.81655C8.80273 3.60413 9.29942 2.44137 10.1835 1.58406C11.0676 0.726749 12.2667 0.245117 13.517 0.245117C14.7673 0.245117 15.9664 0.726749 16.8505 1.58406C17.7346 2.44137 18.2313 3.60413 18.2313 4.81655H25.5974C25.8318 4.81655 26.0566 4.90685 26.2224 5.0676C26.3882 5.22834 26.4813 5.44636 26.4813 5.67369C26.4813 5.90102 26.3882 6.11904 26.2224 6.27978C26.0566 6.44053 25.8318 6.53083 25.5974 6.53083H24.0534L22.6191 23.22C22.5148 24.4341 21.9437 25.5658 21.0192 26.3907C20.0947 27.2157 18.8842 27.6736 17.6279 27.6737H9.40616C8.1498 27.6736 6.93934 27.2157 6.01483 26.3907C5.09032 25.5658 4.51927 24.4341 4.41491 23.22L2.98059 6.53083H1.43666C1.20223 6.53083 0.9774 6.44053 0.811631 6.27978C0.645862 6.11904 0.552734 5.90102 0.552734 5.67369C0.552734 5.44636 0.645862 5.22834 0.811631 5.0676C0.9774 4.90685 1.20223 4.81655 1.43666 4.81655H8.80273ZM6.17688 23.0771C6.24428 23.8627 6.61368 24.5951 7.21184 25.129C7.80999 25.6628 8.5932 25.9593 9.40616 25.9594H17.6279C18.4408 25.9593 19.2241 25.6628 19.8222 25.129C20.4204 24.5951 20.7898 23.8627 20.8572 23.0771L22.2809 6.53083H4.75434L6.17688 23.0771ZM10.8652 10.5308C11.0997 10.5308 11.3245 10.6211 11.4903 10.7819C11.656 10.9426 11.7492 11.1606 11.7492 11.388V21.1023C11.7492 21.3296 11.656 21.5476 11.4903 21.7084C11.3245 21.8691 11.0997 21.9594 10.8652 21.9594C10.6308 21.9594 10.406 21.8691 10.2402 21.7084C10.0744 21.5476 9.98131 21.3296 9.98131 21.1023V11.388C9.98131 11.1606 10.0744 10.9426 10.2402 10.7819C10.406 10.6211 10.6308 10.5308 10.8652 10.5308ZM17.0527 11.388C17.0527 11.1606 16.9596 10.9426 16.7938 10.7819C16.6281 10.6211 16.4032 10.5308 16.1688 10.5308C15.9344 10.5308 15.7095 10.6211 15.5438 10.7819C15.378 10.9426 15.2849 11.1606 15.2849 11.388V21.1023C15.2849 21.3296 15.378 21.5476 15.5438 21.7084C15.7095 21.8691 15.9344 21.9594 16.1688 21.9594C16.4032 21.9594 16.6281 21.8691 16.7938 21.7084C16.9596 21.5476 17.0527 21.3296 17.0527 21.1023V11.388Z" fill="#B5B4B4"/>
</svg>
