<svg width="23" height="22" viewBox="0 0 23 22" fill="none" xmlns="http://www.w3.org/2000/svg">
<g clip-path="url(#clip0_201_1652)">
<path d="M11.25 22C14.1674 22 16.9653 20.8411 19.0282 18.7782C21.0911 16.7153 22.25 13.9174 22.25 11C22.25 8.08262 21.0911 5.28473 19.0282 3.22183C16.9653 1.15893 14.1674 4.76837e-07 11.25 4.76837e-07C8.33262 4.76837e-07 5.53473 1.15893 3.47183 3.22183C1.40893 5.28473 0.25 8.08262 0.25 11C0.25 13.9174 1.40893 16.7153 3.47183 18.7782C5.53473 20.8411 8.33262 22 11.25 22V22ZM11.25 12.3341L8.69486 14.8893C8.51794 15.0662 8.27799 15.1656 8.02779 15.1656C7.77759 15.1656 7.53763 15.0662 7.36071 14.8893C7.1838 14.7124 7.0844 14.4724 7.0844 14.2222C7.0844 13.972 7.1838 13.7321 7.36071 13.5551L9.91586 11L7.36071 8.44486C7.27311 8.35726 7.20362 8.25326 7.15621 8.1388C7.10881 8.02435 7.0844 7.90167 7.0844 7.77779C7.0844 7.6539 7.10881 7.53123 7.15621 7.41677C7.20362 7.30231 7.27311 7.19832 7.36071 7.11071C7.44832 7.02311 7.55231 6.95362 7.66677 6.90622C7.78123 6.85881 7.9039 6.8344 8.02779 6.8344C8.15167 6.8344 8.27435 6.85881 8.3888 6.90622C8.50326 6.95362 8.60726 7.02311 8.69486 7.11071L11.25 9.66586L13.8051 7.11071C13.8927 7.02311 13.9967 6.95362 14.1112 6.90622C14.2257 6.85881 14.3483 6.8344 14.4722 6.8344C14.5961 6.8344 14.7188 6.85881 14.8332 6.90622C14.9477 6.95362 15.0517 7.02311 15.1393 7.11071C15.2269 7.19832 15.2964 7.30231 15.3438 7.41677C15.3912 7.53123 15.4156 7.6539 15.4156 7.77779C15.4156 7.90167 15.3912 8.02435 15.3438 8.1388C15.2964 8.25326 15.2269 8.35726 15.1393 8.44486L12.5841 11L15.1393 13.5551C15.2269 13.6427 15.2964 13.7467 15.3438 13.8612C15.3912 13.9757 15.4156 14.0983 15.4156 14.2222C15.4156 14.3461 15.3912 14.4688 15.3438 14.5832C15.2964 14.6977 15.2269 14.8017 15.1393 14.8893C15.0517 14.9769 14.9477 15.0464 14.8332 15.0938C14.7188 15.1412 14.5961 15.1656 14.4722 15.1656C14.3483 15.1656 14.2257 15.1412 14.1112 15.0938C13.9967 15.0464 13.8927 14.9769 13.8051 14.8893L11.25 12.3341Z" fill="#EE0033"/>
</g>
<defs>
<clipPath id="clip0_201_1652">
<rect width="22" height="22" fill="white" transform="matrix(1 0 0 -1 0.25 22)"/>
</clipPath>
</defs>
</svg>
