<svg width="57" height="24" viewBox="0 0 57 24" fill="none" xmlns="http://www.w3.org/2000/svg">
<path d="M38.3623 11.8347C38.3623 12.3578 38.1545 12.8597 37.7846 13.2296C37.4148 13.5994 36.9129 13.8072 36.3898 13.8072C35.8668 13.8072 35.3648 13.5994 34.995 13.2296C34.6252 12.8597 34.4174 12.3578 34.4174 11.8347C34.4174 11.3117 34.6252 10.8098 34.995 10.4399C35.3648 10.0701 35.8668 9.86229 36.3898 9.86229C36.9129 9.86317 37.4139 10.071 37.7837 10.4408C38.1536 10.8106 38.3614 11.3117 38.3623 11.8347ZM50.197 7.72121V15.9483C49.3552 16.2477 48.6926 16.9103 48.3932 17.7521H24.3867C24.0873 16.9103 23.4247 16.2476 22.5829 15.9483V7.72121C23.4247 7.42183 24.0873 6.7592 24.3867 5.91737H48.3932C48.6926 6.7592 49.3552 7.42185 50.197 7.72121ZM28.5 11.8347C28.5 11.5732 28.3961 11.3223 28.2112 11.1373C28.0263 10.9524 27.7753 10.8485 27.5138 10.8485H25.5413C24.9967 10.8485 24.5551 11.2901 24.5551 11.8347C24.5551 12.3794 24.9967 12.821 25.5413 12.821H27.5138C27.7753 12.821 28.0263 12.7171 28.2112 12.5322C28.3961 12.3472 28.5 12.0963 28.5 11.8347ZM40.3347 11.8347C40.3347 10.7886 39.9191 9.78519 39.1794 9.04513C38.4393 8.30546 37.4359 7.88983 36.3898 7.88983C35.3438 7.88983 34.3403 8.30546 33.6002 9.04513C32.8605 9.78524 32.4449 10.7887 32.4449 11.8347C32.4449 12.8808 32.8605 13.8843 33.6002 14.6244C34.3403 15.364 35.3438 15.7797 36.3898 15.7797C37.4359 15.7788 38.4385 15.3627 39.1781 14.623C39.9177 13.8833 40.3338 12.8808 40.3347 11.8347ZM48.2246 11.8347C48.2246 11.5732 48.1207 11.3223 47.9357 11.1373C47.7508 10.9524 47.4999 10.8485 47.2383 10.8485H45.2659C44.7213 10.8485 44.2797 11.2901 44.2797 11.8347C44.2797 12.3794 44.7213 12.821 45.2659 12.821H47.2383C47.4999 12.821 47.7508 12.7171 47.9357 12.5322C48.1207 12.3472 48.2246 12.0963 48.2246 11.8347ZM56.1144 0.986229V22.6833C56.1144 22.9448 56.0105 23.1958 55.8256 23.3807C55.6407 23.5656 55.3897 23.6695 55.1282 23.6695H36.3898H17.6515C17.1069 23.6695 16.6653 23.2279 16.6653 22.6833V0.986229C16.6653 0.441605 17.1069 0 17.6515 0H55.1282C55.3897 0 55.6407 0.103907 55.8256 0.288824C56.0105 0.473742 56.1144 0.724704 56.1144 0.986229ZM52.1695 6.9036C52.1695 6.64208 52.0656 6.39111 51.8807 6.2062C51.6957 6.02128 51.4448 5.91737 51.1833 5.91737C50.6386 5.91693 50.1975 5.47577 50.197 4.93114C50.197 4.66962 50.0931 4.41865 49.9082 4.23374C49.7233 4.04882 49.4723 3.94492 49.2108 3.94492H23.5689C23.0242 3.94492 22.5826 4.38652 22.5826 4.93114C22.5822 5.47577 22.141 5.91693 21.5964 5.91737C21.0518 5.91737 20.6102 6.35898 20.6102 6.9036V16.7659C20.6102 17.0274 20.7141 17.2784 20.899 17.4633C21.0839 17.6482 21.3349 17.7521 21.5964 17.7521C22.141 17.7526 22.5822 18.1937 22.5826 18.7383C22.5826 18.9999 22.6865 19.2508 22.8714 19.4358C23.0564 19.6207 23.3073 19.7246 23.5689 19.7246H49.2108C49.4723 19.7246 49.7233 19.6207 49.9082 19.4358C50.0931 19.2508 50.197 18.9999 50.197 18.7383C50.1975 18.1937 50.6386 17.7526 51.1833 17.7521C51.4448 17.7521 51.6958 17.6482 51.8807 17.4633C52.0656 17.2784 52.1695 17.0274 52.1695 16.7659V6.9036ZM13.7066 19.7246H9.76165C9.21703 19.7246 8.77542 20.1662 8.77542 20.7108C8.77542 21.2554 9.21703 21.697 9.76165 21.697H13.7066C14.2512 21.697 14.6928 21.2554 14.6928 20.7108C14.6928 20.1662 14.2512 19.7246 13.7066 19.7246ZM13.7066 13.8072H5.81673C5.27211 13.8072 4.83051 14.2488 4.83051 14.7934C4.83051 15.3381 5.27211 15.7797 5.81673 15.7797H13.7066C14.2512 15.7797 14.6928 15.3381 14.6928 14.7934C14.6928 14.2488 14.2512 13.8072 13.7066 13.8072ZM13.7066 1.97246H7.78919C7.24457 1.97246 6.80296 2.41406 6.80296 2.95869C6.80296 3.50331 7.24457 3.94492 7.78919 3.94492H13.7066C14.2512 3.94492 14.6928 3.50331 14.6928 2.95869C14.6928 2.41406 14.2512 1.97246 13.7066 1.97246ZM13.7066 7.88983H1.87182C1.32719 7.88983 0.88559 8.33144 0.88559 8.87606C0.88559 9.42068 1.32719 9.86229 1.87182 9.86229H13.7066C14.2512 9.86229 14.6928 9.42068 14.6928 8.87606C14.6928 8.33144 14.2512 7.88983 13.7066 7.88983Z" fill="#EE0033"/>
</svg>
