<svg width="76" height="76" viewBox="0 0 76 76" fill="none" xmlns="http://www.w3.org/2000/svg">
<rect x="0.5" y="0.563477" width="75" height="75" rx="8" fill="#EE0033" fill-opacity="0.05"/>
<path d="M55.7355 21.1694L39.3631 13.7987C38.286 13.3132 37.147 13.3132 36.0698 13.7987L19.6974 21.1694C18.2408 21.8295 17.332 23.23 17.332 24.8298V41.2518C17.332 52.4948 26.477 61.6331 37.7133 61.6331C48.9495 61.6331 58.0945 52.4881 58.0945 41.2518V24.8235C58.0945 23.2298 57.1921 21.8233 55.7355 21.1694ZM55.8415 41.2518C55.8415 51.2433 47.7114 59.3804 37.7129 59.3804C27.7152 59.3804 19.5842 51.2437 19.5842 41.2518V24.8235C19.5842 24.1011 19.9576 23.5224 20.6176 23.2237L36.99 15.853C37.4755 15.6352 37.9425 15.6352 38.4281 15.853L54.8004 23.2237C55.4605 23.5162 55.8338 24.1016 55.8338 24.8235L55.8342 41.2518H55.8415Z" fill="#EE0033"/>
<path d="M39.4109 38.0003L46.701 30.7103C46.8648 30.519 46.9504 30.2729 46.9407 30.0212C46.9309 29.7695 46.8266 29.5308 46.6485 29.3527C46.4704 29.1746 46.2317 29.0703 45.98 29.0605C45.7283 29.0508 45.4823 29.1364 45.291 29.3003L38.0009 36.5903L30.711 29.2903C30.5196 29.1264 30.2736 29.0408 30.0219 29.0506C29.7702 29.0603 29.5315 29.1646 29.3534 29.3427C29.1753 29.5208 29.071 29.7595 29.0612 30.0112C29.0515 30.2629 29.1371 30.509 29.301 30.7003L36.591 38.0003L29.291 45.2903C29.1863 45.3799 29.1012 45.4902 29.0412 45.6143C28.9812 45.7384 28.9475 45.8735 28.9422 46.0112C28.9368 46.1489 28.96 46.2863 29.0103 46.4146C29.0606 46.5429 29.1368 46.6595 29.2343 46.7569C29.3318 46.8544 29.4483 46.9306 29.5766 46.9809C29.705 47.0312 29.8423 47.0544 29.98 47.0491C30.1177 47.0437 30.2529 47.01 30.3769 46.95C30.501 46.89 30.6113 46.8049 30.701 46.7003L38.0009 39.4103L45.291 46.7003C45.4823 46.8641 45.7283 46.9497 45.98 46.94C46.2317 46.9303 46.4704 46.8259 46.6485 46.6478C46.8266 46.4697 46.9309 46.231 46.9407 45.9793C46.9504 45.7276 46.8648 45.4816 46.701 45.2903L39.4109 38.0003Z" fill="#EE0033"/>
</svg>
