<svg width="41" height="24" viewBox="0 0 41 24" fill="none" xmlns="http://www.w3.org/2000/svg">
<path d="M22.3623 11.8347C22.3623 12.3578 22.1545 12.8597 21.7847 13.2296C21.4148 13.5994 20.9129 13.8072 20.3899 13.8072C19.8668 13.8072 19.3649 13.5994 18.995 13.2296C18.6252 12.8597 18.4174 12.3578 18.4174 11.8347C18.4174 11.3117 18.6252 10.8098 18.995 10.4399C19.3649 10.0701 19.8668 9.86229 20.3899 9.86229C20.9129 9.86317 21.4139 10.071 21.7838 10.4408C22.1536 10.8106 22.3614 11.3117 22.3623 11.8347ZM34.1971 7.72121V15.9483C33.3552 16.2477 32.6926 16.9103 32.3932 17.7521H8.38672C8.08734 16.9103 7.4247 16.2476 6.58288 15.9483V7.72121C7.4247 7.42183 8.08736 6.7592 8.38672 5.91737H32.3932C32.6926 6.7592 33.3552 7.42185 34.1971 7.72121ZM12.5 11.8347C12.5 11.5732 12.3961 11.3223 12.2112 11.1373C12.0263 10.9524 11.7753 10.8485 11.5138 10.8485H9.54134C8.99672 10.8485 8.55511 11.2901 8.55511 11.8347C8.55511 12.3794 8.99672 12.821 9.54134 12.821H11.5138C11.7753 12.821 12.0263 12.7171 12.2112 12.5322C12.3961 12.3472 12.5 12.0963 12.5 11.8347ZM24.3348 11.8347C24.3348 10.7886 23.9191 9.78519 23.1795 9.04513C22.4394 8.30546 21.4359 7.88983 20.3899 7.88983C19.3438 7.88983 18.3403 8.30546 17.6002 9.04513C16.8606 9.78524 16.4449 10.7887 16.4449 11.8347C16.4449 12.8808 16.8606 13.8843 17.6002 14.6244C18.3404 15.364 19.3438 15.7797 20.3899 15.7797C21.436 15.7788 22.4385 15.3627 23.1781 14.623C23.9177 13.8833 24.3339 12.8808 24.3348 11.8347ZM32.2246 11.8347C32.2246 11.5732 32.1207 11.3223 31.9358 11.1373C31.7509 10.9524 31.4999 10.8485 31.2384 10.8485H29.2659C28.7213 10.8485 28.2797 11.2901 28.2797 11.8347C28.2797 12.3794 28.7213 12.821 29.2659 12.821H31.2384C31.4999 12.821 31.7509 12.7171 31.9358 12.5322C32.1207 12.3472 32.2246 12.0963 32.2246 11.8347ZM40.1144 0.986229V22.6833C40.1144 22.9448 40.0105 23.1958 39.8256 23.3807C39.6407 23.5656 39.3897 23.6695 39.1282 23.6695H20.3899H1.65151C1.10689 23.6695 0.665283 23.2279 0.665283 22.6833V0.986229C0.665283 0.441605 1.10689 0 1.65151 0H39.1282C39.3897 0 39.6407 0.103907 39.8256 0.288824C40.0105 0.473742 40.1144 0.724704 40.1144 0.986229ZM36.1695 6.9036C36.1695 6.64208 36.0656 6.39111 35.8807 6.2062C35.6958 6.02128 35.4448 5.91737 35.1833 5.91737C34.6387 5.91693 34.1975 5.47577 34.1971 4.93114C34.1971 4.66962 34.0932 4.41865 33.9082 4.23374C33.7233 4.04882 33.4724 3.94492 33.2108 3.94492H7.56888C7.02426 3.94492 6.58265 4.38652 6.58265 4.93114C6.58221 5.47577 6.14105 5.91693 5.59643 5.91737C5.0518 5.91737 4.6102 6.35898 4.6102 6.9036V16.7659C4.6102 17.0274 4.7141 17.2784 4.89902 17.4633C5.08394 17.6482 5.3349 17.7521 5.59643 17.7521C6.14105 17.7526 6.58222 18.1937 6.58265 18.7383C6.58265 18.9999 6.68656 19.2508 6.87148 19.4358C7.0564 19.6207 7.30736 19.7246 7.56888 19.7246H33.2108C33.4724 19.7246 33.7233 19.6207 33.9082 19.4358C34.0932 19.2508 34.1971 18.9999 34.1971 18.7383C34.1975 18.1937 34.6387 17.7526 35.1833 17.7521C35.4448 17.7521 35.6958 17.6482 35.8807 17.4633C36.0656 17.2784 36.1695 17.0274 36.1695 16.7659V6.9036Z" fill="#EE0033"/>
</svg>
