<?xml version="1.0" encoding="UTF-8"?>
<svg width="18px" height="16px" viewBox="0 0 18 16" version="1.1" xmlns="http://www.w3.org/2000/svg" xmlns:xlink="http://www.w3.org/1999/xlink">
    <!-- Generator: Sketch 54.1 (76490) - https://sketchapp.com -->
    <title>list_icn</title>
    <desc>Created with Sketch.</desc>
    <g id="UI" stroke="none" stroke-width="1" fill="none" fill-rule="evenodd">
        <g id="DỊch-vụ-Cloud" transform="translate(-1248.000000, -1172.000000)" fill="#7F8287">
            <path d="M1253.71614,1173.12178 L1265.88843,1173.12178 L1265.88843,1174.7505 L1253.71614,1174.7505 L1253.71614,1173.12178 Z M1253.71614,1179.17842 L1265.88843,1179.17842 L1265.88843,1180.80715 L1253.71614,1180.80715 L1253.71614,1179.17842 Z M1249.6128,1172.5 L1250.29038,1172.5 C1250.84266,1172.5 1251.29038,1172.94772 1251.29038,1173.5 L1251.29038,1174.17757 C1251.29038,1174.72986 1250.84266,1175.17757 1250.29038,1175.17757 L1249.6128,1175.17757 C1249.06052,1175.17757 1248.6128,1174.72986 1248.6128,1174.17757 L1248.6128,1173.5 C1248.6128,1172.94772 1249.06052,1172.5 1249.6128,1172.5 Z M1249.6128,1178.45423 L1250.29038,1178.45423 C1250.84266,1178.45423 1251.29038,1178.90195 1251.29038,1179.45423 L1251.29038,1180.1318 C1251.29038,1180.68409 1250.84266,1181.1318 1250.29038,1181.1318 L1249.6128,1181.1318 C1249.06052,1181.1318 1248.6128,1180.68409 1248.6128,1180.1318 L1248.6128,1179.45423 C1248.6128,1178.90195 1249.06052,1178.45423 1249.6128,1178.45423 Z M1249.6128,1184.56141 L1250.29038,1184.56141 C1250.84266,1184.56141 1251.29038,1185.00912 1251.29038,1185.56141 L1251.29038,1186.23898 C1251.29038,1186.79127 1250.84266,1187.23898 1250.29038,1187.23898 L1249.6128,1187.23898 C1249.06052,1187.23898 1248.6128,1186.79127 1248.6128,1186.23898 L1248.6128,1185.56141 C1248.6128,1185.00912 1249.06052,1184.56141 1249.6128,1184.56141 Z M1253.71614,1185.08583 L1265.88843,1185.08583 L1265.88843,1186.71456 L1253.71614,1186.71456 L1253.71614,1185.08583 Z" id="list_icn"></path>
        </g>
    </g>
</svg>