<?xml version="1.0" encoding="utf-8"?>
<!-- Svg Vector Icons : http://www.onlinewebfonts.com/icon -->
<!DOCTYPE svg PUBLIC "-//W3C//DTD SVG 1.1//EN" "http://www.w3.org/Graphics/SVG/1.1/DTD/svg11.dtd">
<svg version="1.1" xmlns="http://www.w3.org/2000/svg" xmlns:xlink="http://www.w3.org/1999/xlink" x="0px" y="0px" viewBox="0 0 1000 1000" enable-background="new 0 0 1000 1000" xml:space="preserve">
<metadata> Svg Vector Icons : http://www.onlinewebfonts.com/icon </metadata>
<g><g transform="translate(0.000000,511.000000) scale(0.100000,-0.100000)"><path d="M4711.6,5006c-611.5-76.9-1159.6-334.6-1588.4-744.2c-400-380.8-659.6-834.6-790.4-1371.1c-48.1-203.8-50-232.7-61.5-1017.3l-11.5-807.7l-96.2-13.5c-346.1-50-692.3-301.9-848.1-621.1c-128.8-265.4-123.1-161.5-123.1-2294.2c0-2142.3-5.8-2030.7,128.8-2300c86.5-171.1,309.6-400,480.8-488.4c65.4-34.6,184.6-78.9,267.3-100c144.2-36.5,223.1-38.5,2919.2-38.5c3071.1,0,2911.5-5.8,3184.5,126.9c194.2,96.1,409.6,309.6,507.7,501.9c130.8,263.5,126.9,173.1,126.9,2298c0,1309.6-5.8,1950-21.2,2019.2c-32.7,159.6-155.8,396.1-275,528.8c-173.1,190.4-436.5,332.7-675,367.3l-96.1,13.5l-11.5,788.4c-11.6,855.8-19.2,930.7-132.7,1280.7c-219.2,667.3-703.8,1238.4-1330.7,1565.3c-403.8,209.6-744.2,298.1-1198,307.7C4909.6,5011.7,4748.1,5009.8,4711.6,5006z M5357.7,4431c480.8-84.6,871.1-294.2,1217.3-653.8c232.7-242.3,378.8-484.6,486.5-798.1c100-296.1,111.5-419.2,111.5-1194.2v-709.6h-2175h-2173l5.8,784.6l7.7,782.7l53.8,192.3c100,365.4,275,673.1,532.7,942.3c265.4,275,532.7,450,873.1,565.4C4632.7,4457.9,5019.2,4488.7,5357.7,4431z M7907.6,454.2c63.5-30.8,146.1-94.2,196.2-150c155.8-173.1,148.1-38.5,142.3-2192.2l-5.8-1911.5l-44.2-90.4c-57.7-115.4-171.2-228.8-288.5-286.5l-90.4-46.2H5000H2182.8l-90.4,46.2c-115.4,55.8-230.8,167.3-288.5,275l-44.2,82.7l-5.8,1921.1c-5.8,2149.9-13.5,2026.9,132.7,2192.3c90.4,103.8,186.5,165.4,305.8,196.2c67.3,19.2,707.7,23.1,2846.1,21.2L7798,508L7907.6,454.2z"/><path d="M4794.2-792c-119.2-46.2-246.1-167.3-301.9-286.5c-28.8-63.5-40.4-123.1-38.5-230.8c0-178.8,59.6-307.7,190.4-415.4l86.5-73.1V-2290c0-451.9,3.8-494.2,38.5-551.9c98.1-163.5,363.5-163.5,461.5,0c34.6,57.7,38.5,100,38.5,551.9v492.3l82.7,67.3c44.2,38.5,105.8,115.4,138.5,173.1c75,138.4,80.8,344.2,13.5,480.8C5373.1-809.3,5069.2-686.2,4794.2-792z"/></g></g>
</svg>