<?xml version="1.0" encoding="UTF-8"?>
<svg width="16px" height="18px" viewBox="0 0 16 18" version="1.1" xmlns="http://www.w3.org/2000/svg" xmlns:xlink="http://www.w3.org/1999/xlink">
    <!-- Generator: Sketch 54.1 (76490) - https://sketchapp.com -->
    <title>plane_icn</title>
    <desc>Created with Sketch.</desc>
    <g id="UI" stroke="none" stroke-width="1" fill="none" fill-rule="evenodd">
        <g id="Vietel-Home-" transform="translate(-855.000000, -3424.000000)" fill="#C1C1C1">
            <path d="M859.154143,3433.08335 C859.437771,3433.19119 859.754199,3433.15623 860.008885,3432.99029 L868.535558,3427.43116 L861.502753,3434.2843 C861.313185,3434.46895 861.205137,3434.72499 861.204172,3434.99236 L861.180054,3440.92965 C861.178125,3441.46292 861.891535,3441.619 862.103291,3441.13153 L863.981117,3436.80831 C864.096401,3436.54341 864.409452,3436.43656 864.657385,3436.57787 L869.637267,3439.4116 C869.949836,3439.58985 870.337171,3439.36975 870.353571,3439.00488 L870.999451,3424.94063 C871.015851,3424.58167 870.661799,3424.32612 870.335724,3424.46202 L855.300571,3430.71149 C854.892977,3430.88087 854.902142,3431.47273 855.31456,3431.62882 L859.154143,3433.08335 Z" id="plane_icn"></path>
        </g>
    </g>
</svg>