<svg xmlns="http://www.w3.org/2000/svg" width="19" height="19" viewBox="0 0 19 19">
    <path fill="#FFF" fill-rule="nonzero" d="M10.087 5.61v4.24l3.487 2.122-.706 1.225-4.29-2.592V5.609h1.509zm8.53 2.12h-6.833l2.78-2.828c-1.382-1.382-3.04-2.081-4.972-2.097-1.932-.016-3.59.652-4.972 2.003C3.269 6.19 2.593 7.824 2.593 9.709c0 1.886.676 3.52 2.027 4.902 1.35 1.382 3 2.074 4.948 2.074 1.948 0 3.614-.692 4.996-2.074 1.351-1.351 2.027-2.985 2.027-4.902h2.026c0 2.483-.88 4.588-2.639 6.316-1.76 1.76-3.896 2.639-6.41 2.639-2.513 0-4.65-.88-6.41-2.64C1.4 14.298.52 12.2.52 9.734c0-2.467.88-4.58 2.639-6.339 1.76-1.76 3.88-2.64 6.362-2.64s4.603.88 6.363 2.64L18.617.566V7.73z"/>
</svg>
