<svg xmlns="http://www.w3.org/2000/svg" width="15" height="16" viewBox="0 0 15 16">
    <path fill="#FFF" fill-rule="nonzero" d="M13.904 9.717L12.6 9.34c-.308-.103-.685.034-.822.342-1.028 2.228-3.667 3.222-5.895 2.228-2.228-1.028-3.222-3.667-2.228-5.895.994-2.227 3.667-3.221 5.895-2.227.034.034.069.034.137.068l-.788.789a.663.663 0 0 0 0 .96.677.677 0 0 0 .48.205h3.804a.687.687 0 0 0 .685-.686V1.252a.687.687 0 0 0-.685-.686.677.677 0 0 0-.48.206L11.676 1.8C8.352-.393 3.896.532 1.703 3.856-.491 7.181.435 11.636 3.759 13.83a7.02 7.02 0 0 0 3.941 1.2c2.913 0 5.518-1.748 6.615-4.387a.696.696 0 0 0-.377-.891c0-.034-.034-.034-.034-.034z"/>
</svg>
