<svg xmlns="http://www.w3.org/2000/svg" width="17" height="17" viewBox="0 0 17 17">
    <path fill="#FFF" fill-rule="nonzero" stroke="#FFF" d="M13.075 3.06c1.733 1.478 2.599 3.338 2.599 5.58 0 2.038-.713 3.77-2.14 5.197s-3.159 2.14-5.197 2.14c-2.038 0-3.77-.713-5.197-2.14S1 10.678 1 8.64c0-2.242.866-4.102 2.599-5.58l1.146 1.147C3.344 5.354 2.643 6.831 2.643 8.64c0 1.58.554 2.923 1.662 4.031 1.109 1.109 2.452 1.663 4.032 1.663s2.923-.554 4.031-1.663c1.109-1.108 1.663-2.452 1.663-4.031 0-1.809-.7-3.274-2.102-4.395l1.146-1.184zM9.14 1.304v8.14H7.534v-8.14H9.14z"/>
</svg>
