<?xml version="1.0" encoding="UTF-8"?>
<svg width="36px" height="35px" viewBox="0 0 36 35" version="1.1" xmlns="http://www.w3.org/2000/svg" xmlns:xlink="http://www.w3.org/1999/xlink">
    <!-- Generator: Sketch 54.1 (76490) - https://sketchapp.com -->
    <title>twitter_icn</title>
    <desc>Created with Sketch.</desc>
    <g id="UI" stroke="none" stroke-width="1" fill="none" fill-rule="evenodd">
        <g id="Vietel-Home-" transform="translate(-286.000000, -3417.000000)" fill-rule="nonzero">
            <g id="twitter_icn" transform="translate(286.914286, 3417.308550)">
                <path d="M16.6848367,13.9803543 L16.7209297,14.5755122 L16.1193784,14.5026357 C13.9297316,14.2232759 12.0167985,13.2758817 10.3926099,11.6847452 L9.59856216,10.8952501 L9.39403474,11.4782619 C8.96091778,12.7778924 9.23763137,14.1503994 10.1399583,15.0735015 C10.6211994,15.5836368 10.5129202,15.6565133 9.68277936,15.3528613 C9.39403474,15.2556927 9.14138318,15.1828162 9.1173211,15.2192545 C9.03310395,15.304277 9.32184857,16.4095702 9.55043806,16.8468291 C9.86324476,17.4541331 10.5008891,18.049291 11.1986887,18.4015273 L11.788209,18.6808872 L11.0904094,18.6930332 C10.416672,18.6930332 10.3926099,18.7051793 10.4647961,18.960247 C10.7054166,19.7497422 11.6558677,20.5878216 12.714598,20.952204 L13.4605216,21.2072717 L12.8108462,21.5959463 C11.8483641,22.1546659 10.7174476,22.470464 9.58653118,22.4947561 C9.04513499,22.5069022 8.59998699,22.5554865 8.59998699,22.5919248 C8.59998699,22.7133856 10.0677722,23.3935661 10.9219751,23.6607798 C13.4845836,24.450275 16.5284333,24.1101847 18.8143283,22.7619699 C20.4385168,21.8024296 22.0627054,19.8954951 22.82066,18.049291 C23.2297149,17.0654586 23.6387699,15.2678388 23.6387699,14.4054671 C23.6387699,13.8467474 23.6748629,13.773871 24.3486004,13.1058365 C24.7456242,12.717162 25.1185861,12.2920492 25.1907722,12.1705884 C25.3110825,11.9398129 25.2990515,11.9398129 24.6854691,12.1462963 C23.6628319,12.5106787 23.5184596,12.4620943 24.0237627,11.9155208 C24.3967245,11.5268462 24.8418724,10.8223736 24.8418724,10.6158902 C24.8418724,10.579452 24.661407,10.6401824 24.4568796,10.7494971 C24.2403211,10.8709579 23.7590801,11.0531491 23.3981493,11.1624638 L22.7484739,11.3689472 L22.1589536,10.9681265 C21.8341159,10.7494971 21.3769369,10.5065755 21.1363163,10.433699 C20.522734,10.2636539 19.584314,10.2879461 19.0308868,10.4822833 C17.5270085,11.028857 16.5765574,12.4378022 16.6848367,13.9803543 Z" id="Shape" fill="#a6a6a6"></path>
            </g>
        </g>
    </g>
</svg>
