<?xml version="1.0" encoding="UTF-8"?>
<svg width="35px" height="35px" viewBox="0 0 35 35" version="1.1" xmlns="http://www.w3.org/2000/svg" xmlns:xlink="http://www.w3.org/1999/xlink">
    <!-- Generator: Sketch 54.1 (76490) - https://sketchapp.com -->
    <title>youtube_icn</title>
    <desc>Created with Sketch.</desc>
    <g id="UI" stroke="none" stroke-width="1" fill="none" fill-rule="evenodd">
        <g id="Vietel-Home-" transform="translate(-372.000000, -3418.000000)" fill-rule="nonzero">
            <g id="youtube_icn" transform="translate(372.114286, 3418.168549)">
                <path d="M26.1898271,13.7378173 C26.1898271,13.7378173 26.3732934,15.2552747 26.3732934,16.7721462 L26.3732934,18.1946894 C26.3732934,19.7121469 26.1898271,21.2290184 26.1898271,21.2290184 C26.1898271,21.2290184 26.010374,22.5209079 25.4605482,23.0898079 C24.7628025,23.8368188 23.9807771,23.8403342 23.6224443,23.884276 C21.0550615,24.0741047 17.199974,24.0799636 17.199974,24.0799636 C17.199974,24.0799636 12.4298479,24.0354359 10.9621168,23.8913067 C10.553904,23.8133832 9.63714542,23.8368188 8.93882648,23.0898079 C8.38900065,22.5209079 8.21012092,21.2290184 8.21012092,21.2290184 C8.21012092,21.2290184 8.02665453,19.7121469 8.02665453,18.1946894 L8.02665453,16.7721462 C8.02665453,15.2552747 8.21012092,13.7378173 8.21012092,13.7378173 C8.21012092,13.7378173 8.38900065,12.4459278 8.93882648,11.8770277 C9.63714542,11.1300168 10.4185976,11.1265014 10.7775037,11.0831455 C13.3448865,10.8933169 17.1959607,10.8933169 17.1959607,10.8933169 L17.2039873,10.8933169 C17.2039873,10.8933169 21.0550615,10.8933169 23.6224443,11.0831455 C23.9807771,11.1265014 24.7628025,11.1300168 25.4605482,11.8770277 C26.010374,12.4459278 26.1898271,13.7378173 26.1898271,13.7378173 Z M15.3056835,19.9183805 L20.2621427,17.2935891 L15.3051102,14.6506353 L15.3056835,19.9183805 Z" id="Combined-Shape" fill="#a6a6a6"></path>
            </g>
        </g>
    </g>
</svg>
