<svg width="118" height="101" viewBox="0 0 118 101" fill="none" xmlns="http://www.w3.org/2000/svg">
<path d="M68.1901 86.7918V13.5717C68.1901 6.16324 53.4032 0.359863 34.5267 0.359863C15.6501 0.359863 0.863281 6.16276 0.863281 13.5717V86.7918C0.863281 94.2002 15.6496 100.004 34.5267 100.004C53.4032 100.003 68.1901 94.2002 68.1901 86.7918ZM34.5267 2.3764C53.4571 2.3764 66.1735 8.16501 66.1735 13.5717C66.1735 18.9783 53.4571 24.7669 34.5267 24.7669C15.5963 24.7669 2.87982 18.9783 2.87982 13.5717C2.87982 8.16501 15.5963 2.3764 34.5267 2.3764ZM2.87982 18.1648C7.53776 23.2438 19.7846 26.7834 34.5267 26.7834C49.2682 26.7834 61.5156 23.2443 66.1735 18.1648V37.9782C66.1735 43.3849 53.4571 49.1735 34.5267 49.1735C15.5963 49.1735 2.87982 43.3849 2.87982 37.9782V18.1648ZM2.87982 42.5714C7.53776 47.6504 19.7846 51.19 34.5267 51.19C49.2682 51.19 61.5156 47.6508 66.1735 42.5714V62.3853C66.1735 67.7919 53.4571 73.5805 34.5267 73.5805C15.5963 73.5805 2.87982 67.7919 2.87982 62.3853V42.5714ZM34.5267 97.9871C15.5963 97.9871 2.87982 92.1985 2.87982 86.7918V66.978C7.53776 72.0569 19.7846 75.5966 34.5267 75.5966C49.2682 75.5966 61.5156 72.0574 66.1735 66.978V86.7918C66.1735 92.1985 53.4571 97.9871 34.5267 97.9871Z" fill="white"/>
<path d="M9.32007 12.1023C9.49391 12.1023 9.66965 12.0576 9.83016 11.9633C10.9284 11.317 12.2849 10.703 13.8623 10.1382C19.367 8.16689 26.7059 7.08099 34.5277 7.08099C35.0845 7.08099 35.536 6.62996 35.536 6.07272C35.536 5.51548 35.085 5.06445 34.5277 5.06445C26.4802 5.06445 18.8993 6.19227 13.1822 8.23976C11.4866 8.84701 10.0145 9.51522 8.8076 10.2253C8.32799 10.5078 8.16749 11.1255 8.44992 11.6056C8.63757 11.9247 8.9743 12.1023 9.32007 12.1023Z" fill="white"/>
<path d="M103.491 9.94165C103.981 13.2489 106.83 15.7974 110.272 15.7974C114.057 15.7974 117.136 12.7183 117.136 8.93386C117.136 5.1494 114.057 2.06982 110.272 2.06982C106.83 2.06982 103.98 4.61836 103.491 7.92559H88.1052C87.5484 7.92559 87.0969 8.37662 87.0969 8.93386V49.1946L73.5227 49.4756C72.9659 49.487 72.5239 49.9476 72.5354 50.5043C72.5468 51.0535 72.9959 51.4916 73.5427 51.4916C73.5498 51.4916 73.557 51.4916 73.5641 51.4912L87.0964 51.2111V93.496C87.0964 94.0527 87.5479 94.5042 88.1047 94.5042H103.49C103.98 97.8115 106.83 100.36 110.271 100.36C114.056 100.36 117.135 97.2809 117.135 93.496C117.135 89.711 114.056 86.6319 110.271 86.6319C106.83 86.6319 103.98 89.1805 103.49 92.4877H89.113V51.1897H103.49C103.98 54.4969 106.83 57.0454 110.271 57.0454C114.056 57.0454 117.135 53.9663 117.135 50.1814C117.135 46.3965 114.056 43.3179 110.271 43.3179C106.83 43.3179 103.98 45.8659 103.49 49.1736H89.113V9.94165H103.491ZM110.272 4.08541C112.945 4.08541 115.12 6.26007 115.12 8.93338C115.12 11.6067 112.945 13.7809 110.272 13.7809C107.599 13.7809 105.424 11.6062 105.424 8.93338C105.424 6.26054 107.599 4.08541 110.272 4.08541ZM110.272 88.648C112.945 88.648 115.12 90.8227 115.12 93.496C115.12 96.1693 112.945 98.3439 110.272 98.3439C107.599 98.3439 105.424 96.1693 105.424 93.496C105.424 90.8227 107.599 88.648 110.272 88.648ZM110.272 45.3344C112.945 45.3344 115.12 47.509 115.12 50.1819C115.12 52.8547 112.945 55.0299 110.272 55.0299C107.599 55.0299 105.424 52.8552 105.424 50.1819C105.424 47.5086 107.599 45.3344 110.272 45.3344Z" fill="white"/>
</svg>
