<svg width="43" height="45" viewBox="0 0 43 45" fill="none" xmlns="http://www.w3.org/2000/svg">
<path fill-rule="evenodd" clip-rule="evenodd" d="M40.4247 0H2.3535C1.05574 0 0 1.05574 0 2.35341V42.6466C0 43.9443 1.05574 45 2.3535 45H40.4248C41.7226 45 42.7783 43.9443 42.7783 42.6466V2.35341C42.7782 1.05574 41.7225 0 40.4247 0ZM41.2782 42.6466C41.2782 43.1171 40.8954 43.5 40.4247 43.5H2.3535C1.88294 43.5 1.5 43.1171 1.5 42.6466V2.35341C1.5 1.88294 1.88285 1.5 2.3535 1.5H40.4248C40.8954 1.5 41.2783 1.88294 41.2783 2.35341V42.6466H41.2782ZM36.839 3.82015H5.93912C4.55029 3.82015 3.42044 4.95018 3.42044 6.33882V12.0777C3.42044 13.4664 4.55029 14.5964 5.93912 14.5964H36.8389C38.2278 14.5964 39.3577 13.4664 39.3577 12.0777V6.33882C39.3578 4.95018 38.2279 3.82015 36.839 3.82015ZM37.8578 12.0777C37.8578 12.6394 37.4008 13.0964 36.839 13.0964H5.93912C5.37741 13.0964 4.92044 12.6394 4.92044 12.0777V6.33882C4.92044 5.77721 5.37741 5.32015 5.93912 5.32015H36.8389C37.4007 5.32015 37.8577 5.77721 37.8577 6.33882L37.8578 12.0777ZM34.7022 9.20815C34.7022 9.62241 34.3663 9.95815 33.9522 9.95815H23.9988C23.5846 9.95815 23.2488 9.62241 23.2488 9.20815C23.2488 8.79406 23.5846 8.45815 23.9988 8.45815H33.9522C34.3663 8.45815 34.7022 8.79406 34.7022 9.20815ZM9.54565 9.20815C9.54565 9.78529 9.07491 10.2559 8.49785 10.2559C7.9208 10.2559 7.45015 9.78529 7.45015 9.20815C7.45015 8.631 7.9208 8.16035 8.49785 8.16035C9.07491 8.16035 9.54565 8.631 9.54565 9.20815ZM13.4907 9.20815C13.4907 9.78529 13.0201 10.2559 12.443 10.2559C11.8659 10.2559 11.3952 9.78529 11.3952 9.20815C11.3952 8.631 11.8659 8.16035 12.443 8.16035C13.0201 8.16035 13.4907 8.631 13.4907 9.20815ZM17.4359 9.20815C17.4359 9.78529 16.9652 10.2559 16.3881 10.2559C15.811 10.2559 15.3403 9.78529 15.3403 9.20815C15.3403 8.631 15.811 8.16035 16.3881 8.16035C16.9652 8.16035 17.4359 8.631 17.4359 9.20815ZM36.839 17.1118H5.93912C4.55029 17.1118 3.42044 18.2419 3.42044 19.6305V25.3694C3.42044 26.7582 4.55029 27.8881 5.93912 27.8881H36.8389C38.2278 27.8881 39.3577 26.7582 39.3577 25.3694V19.6305C39.3578 18.2418 38.2279 17.1118 36.839 17.1118ZM37.8578 25.3694C37.8578 25.9312 37.4008 26.3881 36.839 26.3881H5.93912C5.37741 26.3881 4.92044 25.9312 4.92044 25.3694V19.6305C4.92044 19.0689 5.37741 18.6118 5.93912 18.6118H36.8389C37.4007 18.6118 37.8577 19.0689 37.8577 19.6305L37.8578 25.3694ZM34.7022 22.5C34.7022 22.9141 34.3663 23.25 33.9522 23.25H23.9988C23.5846 23.25 23.2488 22.9141 23.2488 22.5C23.2488 22.0857 23.5846 21.75 23.9988 21.75H33.9522C34.3663 21.75 34.7022 22.0857 34.7022 22.5ZM9.54565 22.5C9.54565 23.0771 9.07491 23.5478 8.49785 23.5478C7.9208 23.5478 7.45015 23.0771 7.45015 22.5C7.45015 21.9229 7.9208 21.4522 8.49785 21.4522C9.07491 21.4522 9.54565 21.9229 9.54565 22.5ZM13.4907 22.5C13.4907 23.0771 13.0201 23.5478 12.443 23.5478C11.8659 23.5478 11.3952 23.0771 11.3952 22.5C11.3952 21.9229 11.8659 21.4522 12.443 21.4522C13.0201 21.4522 13.4907 21.9229 13.4907 22.5ZM17.4359 22.5C17.4359 23.0771 16.9652 23.5478 16.3881 23.5478C15.811 23.5478 15.3403 23.0771 15.3403 22.5C15.3403 21.9229 15.811 21.4522 16.3881 21.4522C16.9652 21.4522 17.4359 21.9229 17.4359 22.5ZM36.839 30.4036H5.93912C4.55029 30.4036 3.42044 31.5336 3.42044 32.9223V38.6612C3.42044 40.05 4.55029 41.1799 5.93912 41.1799H36.8389C38.2278 41.1799 39.3577 40.05 39.3577 38.6612V32.9223C39.3578 31.5336 38.2279 30.4036 36.839 30.4036ZM37.8578 38.6612C37.8578 39.223 37.4008 39.6799 36.839 39.6799H5.93912C5.37741 39.6799 4.92044 39.223 4.92044 38.6612V32.9223C4.92044 32.3606 5.37741 31.9036 5.93912 31.9036H36.8389C37.4007 31.9036 37.8577 32.3606 37.8577 32.9223L37.8578 38.6612ZM34.7022 35.7919C34.7022 36.2059 34.3663 36.5419 33.9522 36.5419H23.9988C23.5846 36.5419 23.2488 36.2059 23.2488 35.7919C23.2488 35.3776 23.5846 35.0419 23.9988 35.0419H33.9522C34.3663 35.0419 34.7022 35.3775 34.7022 35.7919ZM9.54565 35.7917C9.54565 36.3688 9.07491 36.8396 8.49785 36.8396C7.9208 36.8396 7.45015 36.3688 7.45015 35.7917C7.45015 35.2147 7.9208 34.7441 8.49785 34.7441C9.07491 34.7441 9.54565 35.2147 9.54565 35.7917ZM13.4907 35.7917C13.4907 36.3688 13.0201 36.8396 12.443 36.8396C11.8659 36.8396 11.3952 36.3688 11.3952 35.7917C11.3952 35.2147 11.8659 34.7441 12.443 34.7441C13.0201 34.7441 13.4907 35.2147 13.4907 35.7917ZM17.4359 35.7917C17.4359 36.3688 16.9652 36.8396 16.3881 36.8396C15.811 36.8396 15.3403 36.3688 15.3403 35.7917C15.3403 35.2147 15.811 34.7441 16.3881 34.7441C16.9652 34.7441 17.4359 35.2147 17.4359 35.7917Z" fill="#44494D"/>
</svg>
