<svg width="50" height="50" viewBox="0 0 50 50" fill="none" xmlns="http://www.w3.org/2000/svg">
	<path d="M31.1591 17.1398L33.8219 17.1397C33.5664 18.6757 33.089 21.5311 32.8206 23.1309C32.8016 23.2619 32.8295 23.3953 32.8994 23.5077C32.9692 23.6201 33.0766 23.7041 33.2025 23.745C33.3284 23.7858 33.4646 23.7809 33.5872 23.7309C33.7098 23.681 33.8107 23.5894 33.8722 23.4722C35.267 20.6905 36.9018 17.406 38.3027 14.6113C38.3442 14.5259 38.3634 14.4313 38.3583 14.3365C38.3533 14.2416 38.3243 14.1496 38.2739 14.0691C38.2236 13.9886 38.1536 13.9222 38.0706 13.8761C37.9875 13.83 37.8942 13.8058 37.7992 13.8057H36.3056L37.2398 10.0689C37.2586 9.98666 37.2587 9.90128 37.2403 9.81897C37.2219 9.73665 37.1854 9.65947 37.1335 9.59304C37.0815 9.52661 37.0154 9.47259 36.9399 9.43492C36.8644 9.39724 36.7815 9.37686 36.6972 9.37524H33.3744C33.2574 9.37606 33.1435 9.41305 33.0483 9.48115C32.9532 9.54925 32.8814 9.64513 32.8429 9.75562C32.2223 11.6169 31.2361 14.571 30.6277 16.4013C30.6012 16.4856 30.5948 16.5748 30.6088 16.662C30.6228 16.7492 30.657 16.8319 30.7086 16.9036C30.7602 16.9753 30.8277 17.0339 30.9059 17.0749C30.9841 17.1159 31.0708 17.1381 31.1591 17.1398Z" fill="#44494D"/>
	<path d="M29.5639 16.0489C29.7039 15.657 30.5124 13.2047 30.6547 12.7652C29.0399 12.0769 27.3127 11.6901 25.5586 11.624V15.5399C26.919 15.6109 28.2526 15.9453 29.4856 16.5244C29.4866 16.3628 29.513 16.2023 29.5639 16.0489Z" fill="#44494D"/>
	<path d="M17.896 18.2586C19.7012 16.6284 22.0121 15.6685 24.441 15.5398V11.624C20.9732 11.7539 17.6676 13.1258 15.127 15.4896C15.9267 16.2898 17.0953 17.4559 17.896 18.2586Z" fill="#44494D"/>
	<path d="M17.1013 19.0471C16.2959 18.2415 15.1377 17.0839 14.3322 16.2781C11.9697 18.8217 10.5981 22.1286 10.4668 25.5977H14.3826C14.5127 23.1675 15.4723 20.8553 17.1013 19.0471Z" fill="#44494D"/>
	<path d="M35.8195 22.0791C35.7457 22.2451 35.3171 23.0889 35.2266 23.2706C35.4455 24.0288 35.5769 24.8096 35.6181 25.5977H39.534C39.4495 23.1704 38.7488 20.8045 37.4978 18.7227L35.8195 22.0791Z" fill="#44494D"/>
	<path d="M25.0001 36.7859C22.2787 36.7825 19.6619 35.7371 17.6873 33.8645C15.7127 31.9918 14.5302 29.4341 14.3827 26.7167L10.4668 26.7166C11.8244 45.256 38.1705 45.2664 39.5334 26.7167H35.6175C35.47 29.4341 34.2875 31.9918 32.3129 33.8645C30.3382 35.7371 27.7215 36.7825 25.0001 36.7859Z" fill="#44494D"/>
	<path d="M19.8034 20.166C19.7515 20.1129 19.6895 20.0705 19.6211 20.0415C19.5527 20.0125 19.4792 19.9973 19.4049 19.9968C19.3305 19.9964 19.2569 20.0107 19.1881 20.039C19.1194 20.0672 19.0569 20.1088 19.0044 20.1613C18.9518 20.2139 18.9102 20.2763 18.882 20.3451C18.8537 20.4138 18.8394 20.4875 18.8399 20.5618C18.8403 20.6361 18.8555 20.7096 18.8845 20.778C18.9135 20.8464 18.9559 20.9084 19.009 20.9603L23.2773 25.223C23.053 25.6368 22.9852 26.1175 23.0864 26.5772C23.1875 27.0369 23.4508 27.4448 23.828 27.7262C24.2052 28.0077 24.6712 28.1439 25.1406 28.11C25.6101 28.0761 26.0516 27.8742 26.3844 27.5414C26.7172 27.2086 26.9191 26.767 26.953 26.2976C26.987 25.8282 26.8508 25.3622 26.5693 24.985C26.2878 24.6077 25.8799 24.3445 25.4202 24.2433C24.9606 24.1422 24.4798 24.21 24.066 24.4343L19.8034 20.166Z" fill="#44494D"/>
	<path d="M29.1947 29.7932H20.8036C20.285 29.7942 19.788 30.001 19.4217 30.3681C19.0554 30.7351 18.8496 31.2325 18.8496 31.7511C18.8496 32.2697 19.0554 32.7671 19.4217 33.1342C19.788 33.5013 20.285 33.708 20.8036 33.709H29.1947C29.7133 33.708 30.2103 33.5013 30.5766 33.1342C30.9429 32.7671 31.1487 32.2697 31.1487 31.7511C31.1487 31.2325 30.9429 30.7351 30.5766 30.3681C30.2103 30.001 29.7133 29.7942 29.1947 29.7932Z" fill="#44494D"/>
	<path d="M25 1.5625C20.3645 1.5625 15.8331 2.93709 11.9788 5.51243C8.12456 8.08778 5.12051 11.7482 3.34658 16.0309C1.57266 20.3135 1.10851 25.026 2.01286 29.5724C2.9172 34.1189 5.1494 38.295 8.4272 41.5728C11.705 44.8506 15.8812 47.0828 20.4276 47.9872C24.974 48.8915 29.6865 48.4274 33.9692 46.6534C38.2518 44.8795 41.9122 41.8755 44.4876 38.0212C47.0629 34.1669 48.4375 29.6355 48.4375 25C48.4305 18.7861 45.9589 12.8288 41.5651 8.43495C37.1712 4.04109 31.2139 1.56953 25 1.5625ZM25 47.1794C20.6133 47.1794 16.3252 45.8786 12.6778 43.4415C9.0304 41.0044 6.18761 37.5405 4.5089 33.4877C2.8302 29.4349 2.39097 24.9754 3.24677 20.673C4.10257 16.3706 6.21495 12.4186 9.3168 9.31679C12.4186 6.21494 16.3706 4.10255 20.673 3.24676C24.9754 2.39096 29.4349 2.83019 33.4877 4.50889C37.5405 6.1876 41.0044 9.03039 43.4415 12.6778C45.8786 16.3252 47.1794 20.6133 47.1794 25C47.1727 30.8803 44.8338 36.5178 40.6758 40.6758C36.5178 44.8338 30.8803 47.1727 25 47.1794Z" fill="#44494D"/>
</svg>
