<svg width="50" height="50" viewBox="0 0 50 50" fill="none" xmlns="http://www.w3.org/2000/svg">
<path d="M24.5839 43.3332C34.9393 43.3332 43.3339 34.9385 43.3339 24.5832C43.3339 14.2279 34.9393 5.83325 24.5839 5.83325C14.2286 5.83325 5.83398 14.2279 5.83398 24.5832C5.83398 34.9385 14.2286 43.3332 24.5839 43.3332Z" stroke="#44494D" stroke-miterlimit="10" stroke-linecap="round" stroke-linejoin="round"/>
<path d="M12.9492 39.2871C16.1461 38.4666 20.1883 37.9766 24.5838 37.9766C28.9072 37.9766 32.8888 38.4505 36.0604 39.2469" stroke="#44494D" stroke-miterlimit="10" stroke-linecap="round" stroke-linejoin="round"/>
<path d="M33.6113 31.0215C36.495 31.4965 39.1037 32.1923 41.3126 33.0577" stroke="#44494D" stroke-miterlimit="10" stroke-linecap="round" stroke-linejoin="round"/>
<path d="M7.85352 33.0579C10.0832 32.1843 12.7204 31.4836 15.6364 31.0083" stroke="#44494D" stroke-miterlimit="10" stroke-linecap="round" stroke-linejoin="round"/>
<path d="M36.2186 9.98901C33.0217 10.8095 28.9795 11.2995 24.584 11.2995C20.2606 11.2995 16.279 10.8255 13.1074 10.0292" stroke="#44494D" stroke-miterlimit="10" stroke-linecap="round" stroke-linejoin="round"/>
<path d="M15.5548 18.2542C12.6711 17.7792 10.0624 17.0834 7.85352 16.218" stroke="#44494D" stroke-miterlimit="10" stroke-linecap="round" stroke-linejoin="round"/>
<path d="M41.3142 16.218C39.0844 17.0916 36.4473 17.7924 33.5312 18.2676" stroke="#44494D" stroke-miterlimit="10" stroke-linecap="round" stroke-linejoin="round"/>
<path d="M24.5849 43.3332C32.7466 43.3332 39.3631 34.9385 39.3631 24.5832C39.3631 14.2279 32.7466 5.83325 24.5849 5.83325C16.4231 5.83325 9.80664 14.2279 9.80664 24.5832C9.80664 34.9385 16.4231 43.3332 24.5849 43.3332Z" stroke="#44494D" stroke-miterlimit="10" stroke-linecap="round" stroke-linejoin="round"/>
<path d="M20.1992 14.4596C21.5444 9.4046 23.5527 5.83325 24.5827 5.83325C25.6045 5.83325 27.5892 9.35185 28.9339 14.3394" stroke="#44494D" stroke-miterlimit="10" stroke-linecap="round" stroke-linejoin="round"/>
<path d="M29.1674 34.5754C27.9607 39.7041 26.0398 43.3334 24.5824 43.3334C23.1285 43.3334 21.2132 39.7199 20.0059 34.6114" stroke="#44494D" stroke-miterlimit="10" stroke-linecap="round" stroke-linejoin="round"/>
<path d="M24.5838 35.3896C30.5521 35.3896 35.3903 30.5513 35.3903 24.5831C35.3903 18.6148 30.5521 13.7766 24.5838 13.7766C18.6156 13.7766 13.7773 18.6148 13.7773 24.5831C13.7773 30.5513 18.6156 35.3896 24.5838 35.3896Z" stroke="#44494D" stroke-miterlimit="10" stroke-linecap="round" stroke-linejoin="round"/>
<path d="M5.83398 24.5833H13.7776" stroke="#44494D" stroke-miterlimit="10" stroke-linecap="round" stroke-linejoin="round"/>
<path d="M35.3906 24.5833H43.3342" stroke="#44494D" stroke-miterlimit="10" stroke-linecap="round" stroke-linejoin="round"/>
<path d="M18.875 26.4007L21.3063 28.8321L30.2918 19.8467" stroke="#44494D" stroke-miterlimit="10" stroke-linecap="round" stroke-linejoin="round"/>
</svg>
