<svg width="183" height="184" viewBox="0 0 183 184" fill="none" xmlns="http://www.w3.org/2000/svg">
<path d="M91.7599 178.06C139.284 178.06 177.81 139.534 177.81 92.01C177.81 44.4859 139.284 5.95996 91.7599 5.95996C44.2358 5.95996 5.70996 44.4859 5.70996 92.01C5.70996 139.534 44.2358 178.06 91.7599 178.06Z" fill="#E80033" stroke="white" stroke-width="10" stroke-miterlimit="10"/>
<path d="M125.16 103.97H122.49V116.28H125.16V103.97Z" fill="white"/>
<path d="M135.49 116.27H129.65C128.28 116.27 127.59 115.65 127.59 114.42V105.81C127.59 104.58 128.28 103.96 129.65 103.96H135.13C136.06 103.96 136.87 104.08 137.56 104.32C138.25 104.56 138.79 104.87 139.19 105.25C139.59 105.63 139.9 106.1 140.14 106.67C140.38 107.23 140.53 107.78 140.6 108.31C140.67 108.84 140.71 109.44 140.71 110.11C140.71 110.77 140.67 111.36 140.6 111.9C140.53 112.44 140.38 112.99 140.16 113.55C139.94 114.11 139.64 114.58 139.27 114.97C138.9 115.35 138.39 115.66 137.75 115.9C137.1 116.15 136.35 116.27 135.49 116.27ZM134.19 105.81H131.26C130.86 105.81 130.58 105.87 130.45 105.99C130.31 106.11 130.25 106.34 130.25 106.69V113.55C130.25 113.9 130.32 114.14 130.45 114.25C130.58 114.37 130.85 114.43 131.26 114.43H134.19C134.97 114.43 135.62 114.33 136.13 114.12C136.64 113.91 137.03 113.6 137.28 113.18C137.53 112.76 137.71 112.31 137.81 111.84C137.9 111.37 137.95 110.8 137.95 110.12C137.95 109.44 137.9 108.86 137.81 108.4C137.72 107.93 137.54 107.49 137.28 107.06C137.02 106.64 136.64 106.33 136.13 106.12C135.62 105.92 134.97 105.81 134.19 105.81Z" fill="white"/>
<path d="M154.23 116.27H148.33C147.16 116.27 146.16 116.12 145.36 115.82C144.55 115.52 143.93 115.08 143.5 114.5C143.07 113.92 142.77 113.28 142.59 112.57C142.41 111.87 142.33 111.05 142.33 110.11C142.33 109.17 142.42 108.35 142.59 107.65C142.77 106.95 143.07 106.31 143.5 105.73C143.93 105.15 144.55 104.71 145.36 104.41C146.17 104.11 147.16 103.96 148.33 103.96H154V105.81H149.57C147.85 105.81 146.66 106.11 146.02 106.71C145.38 107.31 145.06 108.45 145.06 110.11C145.06 111.77 145.38 112.91 146.02 113.51C146.66 114.11 147.84 114.42 149.57 114.42H154.22L154.23 116.27Z" fill="white"/>
<path d="M58.2099 75.6899H56.1299C55.2999 75.6899 54.6299 76.3599 54.6299 77.1899V92.6101C54.6299 93.4401 55.2999 94.1101 56.1299 94.1101H58.2099C59.0399 94.1101 59.7099 93.4401 59.7099 92.6101V77.1899C59.7099 76.3599 59.0399 75.6899 58.2099 75.6899Z" fill="white"/>
<path d="M50.7202 75.6899C49.4102 75.6899 48.3103 76.4801 47.7703 77.6001L42.2402 89.3401C42.1102 89.6201 41.8502 90.0701 41.6302 90.0701C41.4102 90.0701 41.1503 89.6201 41.0203 89.3401L35.4503 77.6001C34.9203 76.4801 33.8202 75.6899 32.5002 75.6899H29.2803L38.0602 92.6799C38.9302 94.3499 40.7102 94.3101 41.6202 94.3101C42.8802 94.3101 44.3603 94.2399 45.1403 92.6799L53.9202 75.6899H50.7202Z" fill="white"/>
<path d="M147.67 72.8701C147.67 72.0401 147 71.3701 146.17 71.3701H144.09C143.26 71.3701 142.59 72.0401 142.59 72.8701V88.1001C142.59 90.4301 143.41 91.78 144.89 92.76C146.32 93.7 147.97 94.1201 151.06 94.1201H152.73C153.56 94.1201 154.23 93.4501 154.23 92.6201V90.99H152.97C152.06 90.99 150.15 90.9499 149.02 90.1899C147.54 89.2199 147.67 87.48 147.67 86.23V72.8701Z" fill="white"/>
<path d="M115.13 90.98C114.22 90.98 112.31 90.9399 111.18 90.1799C109.7 89.2099 109.83 87.47 109.83 86.22V78.8201H114.76C115.59 78.8201 116.26 78.1501 116.26 77.3201V75.6899H109.83V72.8701C109.83 72.0401 109.16 71.3701 108.33 71.3701H106.25C105.42 71.3701 104.75 72.0401 104.75 72.8701V75.6899H94.1504V72.8701C94.1504 72.0401 93.4804 71.3701 92.6504 71.3701H90.5704C89.7404 71.3701 89.0704 72.0401 89.0704 72.8701V75.6899H85.9004V77.3201C85.9004 78.1501 86.5704 78.8201 87.4004 78.8201H89.0704V88.1001C89.0704 90.4301 89.9004 91.78 91.3704 92.76C92.8004 93.7 94.4503 94.1201 97.5403 94.1201H99.2104C100.04 94.1201 100.71 93.4501 100.71 92.6201V90.99H99.4504C98.5404 90.99 96.6304 90.9499 95.5004 90.1899C94.0204 89.2199 94.1504 87.48 94.1504 86.23V78.8301H104.75V88.1101C104.75 90.4401 105.57 91.79 107.05 92.77C108.48 93.71 110.14 94.1299 113.22 94.1299H114.89C115.72 94.1299 116.39 93.4599 116.39 92.6299V91H115.13V90.98Z" fill="white"/>
<path d="M84.0301 92.6101V90.98H72.7801C70.9101 90.98 68.7801 90.77 68.1301 88.79C67.9601 88.23 67.8301 87.05 67.8301 86.25H81.2101C82.1201 86.25 82.9901 86.1101 83.6901 85.5601C84.6401 84.8001 84.7801 83.72 84.7801 82.78C84.7801 80.45 84.2101 78.1601 81.5201 76.8101C79.3901 75.7301 76.61 75.6299 73.92 75.6299C71.75 75.6299 67.8401 75.6301 65.3201 77.3701C62.8001 79.1101 62.5801 81.6401 62.5801 85.0801C62.5801 87.5101 62.71 90.05 64.23 91.79C66.14 93.95 68.9201 94.1201 71.2701 94.1201H82.54C83.36 94.1101 84.0301 93.4401 84.0301 92.6101ZM79.5201 82.05C79.5201 82.54 79.3901 83.1299 78.3901 83.1299H71.16C69.32 83.1299 67.8301 83.97 67.8301 85.01V83.1299C67.8701 81.9099 67.8301 80.91 68.8701 79.97C70.2601 78.72 72.3501 78.76 73.6901 78.76C75.1201 78.76 76.7701 78.8301 78.0301 79.5901C78.7801 80.0401 79.5201 80.9 79.5201 82.05Z" fill="white"/>
<path d="M138.98 92.6101V90.98H127.73C125.86 90.98 123.731 90.77 123.081 88.79C122.911 88.23 122.781 87.05 122.781 86.25H136.16C137.07 86.25 137.941 86.1101 138.641 85.5601C139.591 84.8001 139.72 83.72 139.72 82.78C139.72 80.45 139.161 78.1601 136.461 76.8101C134.331 75.7301 131.55 75.6299 128.86 75.6299C126.69 75.6299 122.78 75.6301 120.26 77.3701C117.74 79.1101 117.521 81.6401 117.521 85.0801C117.521 87.5101 117.65 90.05 119.17 91.79C121.08 93.95 123.861 94.1201 126.211 94.1201H137.48C138.31 94.1101 138.98 93.4401 138.98 92.6101ZM134.461 82.05C134.461 82.54 134.331 83.1299 133.331 83.1299H126.1C124.26 83.1299 122.771 83.97 122.771 85.01V83.1299C122.811 81.9099 122.77 80.91 123.81 79.97C125.2 78.72 127.29 78.76 128.63 78.76C130.06 78.76 131.71 78.8301 132.97 79.5901C133.72 80.0401 134.461 80.9 134.461 82.05Z" fill="white"/>
<path d="M58.2099 70.54H56.1299C55.2999 70.54 54.6299 71.21 54.6299 72.04V72.45V75.6899H54.6499C54.7899 74.8399 55.7599 73.95 57.1699 73.95H58.2099C59.0399 73.95 59.7099 73.28 59.7099 72.45V72.04C59.7099 71.21 59.0399 70.54 58.2099 70.54Z" fill="white"/>
</svg>
