<svg width="100" height="101" viewBox="0 0 100 101" fill="none" xmlns="http://www.w3.org/2000/svg">
	<path d="M50 23.0122C34.9199 23.0122 22.6523 35.2798 22.6523 50.3599C22.6523 65.4399 34.9199 77.7075 50 77.7075C65.0801 77.7075 77.3477 65.4399 77.3477 50.3599C77.3477 35.2798 65.0801 23.0122 50 23.0122ZM50 75.3638C36.2129 75.3638 24.9961 64.147 24.9961 50.3599C24.9961 36.5728 36.2129 25.356 50 25.356C63.7871 25.356 75.0039 36.5728 75.0039 50.3599C75.0039 64.147 63.7871 75.3638 50 75.3638ZM96.0566 42.9146L86.6289 41.6235C85.7051 37.7368 84.1758 34.0493 82.0742 30.6392L87.8301 23.0552C88.1836 22.5884 88.1387 21.9321 87.7246 21.5181L78.8379 12.6313C78.4238 12.2173 77.7676 12.1724 77.3008 12.5259L69.7188 18.2817C66.3105 16.1802 62.6211 14.6528 58.7344 13.729L57.4434 4.29932C57.3633 3.71924 56.8672 3.28564 56.2832 3.28564H43.7148C43.1289 3.28564 42.6328 3.71729 42.5547 4.29932L41.2637 13.729C37.377 14.6528 33.6895 16.1802 30.2793 18.2817L22.6973 12.5278C22.2305 12.1743 21.5742 12.2192 21.1602 12.6333L12.2734 21.52C11.8594 21.9341 11.8145 22.5903 12.168 23.0571L17.9238 30.6392C15.8223 34.0493 14.293 37.7368 13.3711 41.6235L3.94336 42.9146C3.36328 42.9946 2.92969 43.4907 2.92969 44.0747V56.6431C2.92969 57.229 3.36133 57.7251 3.94336 57.8032L13.3711 59.0942C14.2949 62.981 15.8242 66.6685 17.9258 70.0786L12.168 77.6626C11.8145 78.1294 11.8594 78.7856 12.2734 79.1997L21.1602 88.0864C21.5742 88.5005 22.2305 88.5454 22.6973 88.1919L30.2793 82.436C33.6895 84.5376 37.377 86.0649 41.2637 86.9888L42.5547 96.4185C42.6348 96.9985 43.1309 97.4321 43.7148 97.4321H56.2832C56.8691 97.4321 57.3652 97.0005 57.4434 96.4185L58.7344 86.9888C62.6211 86.0649 66.3086 84.5376 69.7188 82.436L77.3027 88.1919C77.7695 88.5454 78.4258 88.5005 78.8398 88.0864L87.7266 79.1997C88.1406 78.7856 88.1855 78.1294 87.832 77.6626L82.0762 70.0786C84.1777 66.6704 85.707 62.9829 86.6289 59.0942L96.0566 57.8032C96.6367 57.7231 97.0703 57.2271 97.0703 56.6431V44.0747C97.0703 43.4907 96.6387 42.9946 96.0566 42.9146ZM94.7266 55.6216L85.5059 56.8833C85.0176 56.9497 84.623 57.3169 84.5195 57.7993C83.625 61.9731 81.9922 65.9106 79.668 69.5044C79.4004 69.9184 79.4199 70.4575 79.7188 70.8501L85.3477 78.2661L77.9062 85.7075L70.4902 80.0786C70.0977 79.7798 69.5586 79.7603 69.1445 80.0278C65.5488 82.3521 61.6113 83.9849 57.4395 84.8794C56.957 84.9829 56.5918 85.3774 56.5234 85.8657L55.2617 95.0864H44.7383L43.4766 85.8657C43.4102 85.3774 43.043 84.9829 42.5605 84.8794C38.3867 83.9849 34.4492 82.3521 30.8555 80.0278C30.4414 79.7603 29.9043 79.7798 29.5098 80.0786L22.0938 85.7075L14.6523 78.2661L20.2832 70.8501C20.582 70.4575 20.6016 69.9184 20.334 69.5044C18.0078 65.9106 16.375 61.9712 15.4805 57.7993C15.377 57.3169 14.9824 56.9517 14.4941 56.8833L5.27344 55.6216V45.0981L14.4941 43.8364C14.9824 43.77 15.377 43.4028 15.4805 42.9204C16.375 38.7485 18.0078 34.8091 20.332 31.2153C20.5996 30.8013 20.5801 30.2642 20.2812 29.8696L14.6523 22.4536L22.0938 15.0122L29.5098 20.6411C29.9023 20.9399 30.4414 20.9595 30.8555 20.6919C34.4492 18.3677 38.3887 16.7349 42.5605 15.8403C43.043 15.7368 43.4082 15.3423 43.4766 14.854L44.7383 5.6333H55.2617L56.5234 14.854C56.5898 15.3423 56.957 15.7368 57.4395 15.8403C61.6133 16.7349 65.5508 18.3677 69.1445 20.6919C69.5586 20.9595 70.0957 20.9399 70.4902 20.6411L77.9062 15.0122L85.3477 22.4536L79.7168 29.8696C79.418 30.2622 79.3984 30.8013 79.666 31.2153C81.9922 34.8091 83.625 38.7485 84.5195 42.9204C84.623 43.4028 85.0176 43.7681 85.5059 43.8364L94.7246 45.0981V55.6216H94.7266ZM64.5449 34.1743L58.584 36.936C58.3652 37.0376 58.1816 37.2036 58.0625 37.4126L55.9062 41.145L51.4922 45.5708L49.209 43.2876C49.7402 40.4731 48.8535 37.5454 46.8105 35.5024C44.877 33.5688 42.1035 32.6489 39.3945 33.0435C38.4844 33.1763 37.7383 33.7993 37.4492 34.6743C37.1602 35.5474 37.3828 36.4946 38.0332 37.145L41.5918 40.7036C41.6055 40.7173 41.6055 40.7485 41.5918 40.7642L39.752 42.604C39.7461 42.6099 39.6992 42.6099 39.6914 42.604L36.1328 39.0454C35.4824 38.395 34.5352 38.1704 33.6621 38.4614C32.7891 38.7505 32.1641 39.4966 32.0312 40.4067C31.6367 43.1157 32.5566 45.8892 34.4902 47.8228C36.5332 49.8657 39.4609 50.7524 42.2754 50.2212L43.7676 51.7134L35.7422 59.5767C35.7363 59.5825 35.7305 59.5884 35.7246 59.5942C34.0059 61.3462 34.0039 64.2017 35.7168 65.9575L36.1465 66.397C37.0176 67.2895 38.1348 67.7622 39.3809 67.7681H39.4043C40.6406 67.7681 41.7559 67.3052 42.6289 66.4263C42.6328 66.4224 42.6387 66.4165 42.6426 66.4126L50.4043 58.3403L58.1172 66.0532C59.0391 66.9751 60.2695 67.4849 61.582 67.4849C62.8945 67.4849 64.125 66.9771 65.0469 66.0532C65.9688 65.1313 66.4785 63.9009 66.4785 62.5884C66.4785 61.2759 65.9707 60.0454 65.0469 59.1235L56.6035 50.6802L61.0977 46.3228L64.7637 44.0688C64.9629 43.9458 65.1211 43.7661 65.2188 43.5532L67.9512 37.5024C68.1543 37.0513 68.0527 36.522 67.6973 36.1782L65.8535 34.395C65.5039 34.0571 64.9844 33.9692 64.5449 34.1743ZM40.9609 64.7817C40.5273 65.2153 40.0176 65.4263 39.4043 65.4263C39.4004 65.4263 39.3965 65.4263 39.3926 65.4263C38.7715 65.4243 38.2578 65.2056 37.8242 64.7603L37.3945 64.3208C36.5664 63.4712 36.5645 62.0923 37.3906 61.2427L45.4297 53.3677L48.7461 56.6841L40.9609 64.7817ZM63.3906 64.397C62.3926 65.3931 60.7715 65.3931 59.7754 64.397L43.4805 48.1021C43.2578 47.8794 42.959 47.7583 42.6523 47.7583C42.5488 47.7583 42.4453 47.772 42.3438 47.7993C40.1387 48.4028 37.7676 47.7739 36.1543 46.1606C34.7188 44.7251 34.0645 42.7505 34.3574 40.7388C34.3633 40.6997 34.3691 40.6919 34.4062 40.6802C34.4434 40.6685 34.4531 40.6704 34.4805 40.6978L38.0391 44.2563C38.4883 44.7056 39.0879 44.9536 39.7266 44.9536C40.3652 44.9536 40.9648 44.7056 41.4141 44.2563L43.2539 42.4165C44.1836 41.4868 44.1836 39.9731 43.2539 39.0415L39.6953 35.4829C39.668 35.4556 39.666 35.4458 39.6777 35.4087C39.6895 35.3716 39.6973 35.3657 39.7363 35.3599C41.7461 35.0688 43.7246 35.7231 45.1582 37.1567C46.7715 38.77 47.3984 41.1411 46.7969 43.3462C46.6855 43.7524 46.8008 44.186 47.0977 44.4849L63.3926 60.7798C64.3887 61.7778 64.3887 63.3989 63.3906 64.397ZM63.2305 42.2603L59.7617 44.3931C59.6895 44.438 59.6211 44.4907 59.5606 44.5493L54.9492 49.02L53.1543 47.2251L57.6777 42.688C57.75 42.6157 57.8125 42.5356 57.8633 42.4458L59.9102 38.9028L64.8047 36.6353L65.4785 37.2856L63.2305 42.2603Z" fill="white"/>
</svg>
