<svg width="50" height="50" viewBox="0 0 50 50" fill="none" xmlns="http://www.w3.org/2000/svg">
<g clip-path="url(#clip0_564_1790)">
<path d="M25 39.375C17.1094 39.375 10.625 32.8906 10.625 25C10.625 17.1094 17.1094 10.625 25 10.625C32.8906 10.625 39.375 17.1094 39.375 25C39.375 32.8906 32.8906 39.375 25 39.375ZM25 11.7969C17.7344 11.7969 11.7969 17.7344 11.7969 25C11.7969 32.2656 17.7344 38.2031 25 38.2031C32.2656 38.2031 38.2031 32.2656 38.2031 25C38.2031 17.7344 32.2656 11.7969 25 11.7969Z" fill="#44494D"/>
<path d="M25 39.375C20.7031 39.375 17.3438 33.0469 17.3438 25C17.3438 16.9531 20.7031 10.625 25 10.625C29.2969 10.625 32.6562 16.9531 32.6562 25C32.6562 33.0469 29.2969 39.375 25 39.375ZM25 11.7969C21.4844 11.7969 18.5156 17.8125 18.5156 25C18.5156 32.1875 21.4844 38.2031 25 38.2031C28.5156 38.2031 31.4844 32.1875 31.4844 25C31.4844 17.8125 28.5156 11.7969 25 11.7969Z" fill="#44494D"/>
<path d="M25 18.6719C21.0156 18.6719 17.1875 17.8125 14.4531 16.25C14.1406 16.0937 14.0625 15.7031 14.2188 15.4687C14.375 15.1562 14.7656 15.0781 15 15.2344C17.5 16.6406 21.0937 17.5 24.9219 17.5C28.75 17.5 32.3437 16.6406 34.8437 15.2344C35.1562 15.0781 35.4687 15.1562 35.625 15.4687C35.7812 15.7812 35.7031 16.0937 35.3906 16.25C32.8125 17.8125 29.0625 18.6719 25 18.6719Z" fill="#44494D"/>
<path d="M14.7656 34.8438C14.5312 34.8438 14.375 34.7656 14.2188 34.5313C14.0625 34.2188 14.1406 33.9063 14.4531 33.75C17.1094 32.1875 20.9375 31.3281 25 31.3281C29.0625 31.3281 32.8125 32.1875 35.5469 33.75C35.8594 33.9063 35.9375 34.2969 35.7812 34.5313C35.625 34.7656 35.2344 34.9219 35 34.7656C32.5 33.3594 28.9062 32.5 25.0781 32.5C21.25 32.5 17.6562 33.3594 15.1562 34.7656C15 34.7656 14.8437 34.8438 14.7656 34.8438Z" fill="#44494D"/>
<path d="M25 39.2188C24.6875 39.2188 24.375 38.9844 24.375 38.5938V11.3281C24.375 11.0156 24.6094 10.7031 25 10.7031C25.3906 10.7031 25.625 10.9375 25.625 11.3281V38.5938C25.625 38.9844 25.3125 39.2188 25 39.2188Z" fill="#44494D"/>
<path d="M38.6719 25.625H11.3281C11.0156 25.625 10.7031 25.3906 10.7031 25C10.7031 24.6094 10.9375 24.375 11.3281 24.375H38.5938C38.9062 24.375 39.2188 24.6094 39.2188 25C39.2188 25.3906 38.9844 25.625 38.6719 25.625Z" fill="#44494D"/>
<path d="M47.3438 47.0312C47.0312 47.0312 46.7188 46.7969 46.7188 46.4063V39.375C46.7188 39.2969 46.6406 39.2188 46.4844 39.2188H36.0938C36.0938 39.2188 35.8594 39.2188 35.8594 39.375V46.4063C35.8594 46.7188 35.625 47.0312 35.2344 47.0312C34.8437 47.0312 34.6094 46.7969 34.6094 46.4063V39.375C34.6094 38.5938 35.2344 38.0469 36.0156 38.0469H46.4844C47.2656 38.0469 47.8906 38.6719 47.8906 39.375V46.4063C47.9688 46.7969 47.6562 47.0312 47.3438 47.0312Z" fill="#44494D"/>
<path d="M37.0313 42.1875C36.7188 42.1875 36.4062 41.9531 36.4062 41.5625V40.3906C36.4062 40.0781 36.6406 39.7656 37.0313 39.7656H38.9063C39.2188 39.7656 39.5312 40 39.5312 40.3906C39.5312 40.7812 39.2969 41.0156 38.9063 41.0156H37.5781V41.5625C37.6562 41.9531 37.3438 42.1875 37.0313 42.1875Z" fill="#44494D"/>
<path d="M47.5787 49.2969H34.9224C34.4537 49.2969 33.9068 49.0625 33.7505 48.5156L33.2037 47.1875C33.1255 46.875 33.1255 46.5625 33.2818 46.4062C33.438 46.1719 33.7505 46.0156 34.063 46.0156H48.2037C48.5162 46.0156 48.8287 46.1719 48.9849 46.4844C49.1412 46.7187 49.1412 47.0312 49.063 47.2656L48.5943 48.4375C48.5943 48.5937 48.5162 48.6719 48.5162 48.8281C48.3599 49.0625 47.9693 49.2969 47.5787 49.2969ZM34.8443 48.125H47.4224L47.813 47.1875H34.5318L34.8443 48.125Z" fill="#44494D"/>
<path d="M14.8437 9.76562C14.5312 9.76562 14.2188 9.53125 14.2188 9.14062V2.10938C14.2188 2.03125 14.1406 1.95312 13.9844 1.95312H3.59375C3.59375 1.95312 3.35938 1.95312 3.35938 2.10938V9.14062C3.35938 9.45312 3.125 9.76562 2.73437 9.76562C2.34375 9.76562 2.10938 9.53125 2.10938 9.14062V2.10938C2.10938 1.32813 2.73437 0.78125 3.51562 0.78125H13.9844C14.7656 0.78125 15.3906 1.40625 15.3906 2.10938V9.14062C15.4687 9.45312 15.1562 9.76562 14.8437 9.76562Z" fill="#44494D"/>
<path d="M4.53125 4.84375C4.21875 4.84375 3.90625 4.60938 3.90625 4.21875V3.20312C3.90625 2.89062 4.14063 2.57812 4.53125 2.57812H6.32812C6.64062 2.57812 6.95312 2.8125 6.95312 3.20312C6.95312 3.59375 6.71875 3.75 6.32812 3.75H5.15625V4.21875C5.15625 4.53125 4.84375 4.84375 4.53125 4.84375Z" fill="#44494D"/>
<path d="M15.0787 11.9531H2.42241C1.95366 11.9531 1.40679 11.7187 1.25054 11.1719L0.70366 9.84375C0.625535 9.53125 0.625536 9.21875 0.781786 9.0625C0.938036 8.82812 1.25054 8.67188 1.56304 8.67188H15.7037C16.0162 8.67188 16.3287 8.82812 16.4849 9.14062C16.6412 9.375 16.6412 9.6875 16.563 9.92187L16.0943 11.1719C16.0162 11.5625 15.6255 11.9531 15.0787 11.9531ZM2.34429 10.7812H14.9224L15.313 9.84375H2.03179L2.34429 10.7812Z" fill="#44494D"/>
<path d="M6.875 41.4063C5.3125 41.4063 4.0625 40.1563 4.0625 38.5938C4.0625 37.0313 5.3125 35.7812 6.875 35.7812C8.4375 35.7812 9.6875 37.0313 9.6875 38.5938C9.6875 40.1563 8.4375 41.4063 6.875 41.4063ZM6.875 37.0313C6.01563 37.0313 5.23438 37.7344 5.23438 38.6719C5.23438 39.5313 5.9375 40.3125 6.875 40.3125C7.8125 40.3125 8.51562 39.6094 8.51562 38.6719C8.51562 37.7344 7.8125 37.0313 6.875 37.0313Z" fill="#44494D"/>
<path d="M10.4688 49.2969C10.3906 49.2969 10.2344 49.2969 10.1562 49.2188H3.35938C1.95313 49.2188 0.859375 48.2031 0.703125 46.9531V46.3281C0.703125 42.3437 4.45313 42.3438 6.875 42.3438C9.21875 42.3438 13.0469 42.3438 13.0469 46.4063V47.0313V47.1094C12.8906 48.2812 11.7188 49.2969 10.4688 49.2969ZM6.875 43.4375C3.4375 43.4375 1.875 43.8281 1.875 46.25V46.875C1.95313 47.5 2.57813 48.0469 3.35938 48.0469H10.4688C10.5469 48.0469 10.625 48.0469 10.7031 48.125C11.3281 48.0469 11.7969 47.5 11.9531 46.9531V46.4063C11.9531 43.9063 10.1562 43.4375 6.875 43.4375Z" fill="#44494D"/>
<path d="M43.125 6.32813C41.5625 6.32813 40.3125 5.07812 40.3125 3.51562C40.3125 1.95312 41.5625 0.78125 43.125 0.78125C44.6875 0.78125 45.9375 2.03125 45.9375 3.59375C45.9375 5.15625 44.6094 6.32813 43.125 6.32813ZM43.125 1.95312C42.2656 1.95312 41.4844 2.65625 41.4844 3.59375C41.4844 4.53125 42.1875 5.23438 43.125 5.23438C44.0625 5.23438 44.7656 4.53125 44.7656 3.59375C44.7656 2.65625 43.9844 1.95312 43.125 1.95312Z" fill="#44494D"/>
<path d="M46.5625 14.1406H39.4531C38.0469 14.1406 36.9531 13.125 36.7969 11.875V11.25C36.7969 7.1875 40.7031 7.1875 42.9688 7.1875C45.2344 7.1875 49.1406 7.1875 49.1406 11.25V11.875V11.9531C48.9844 13.125 47.8906 14.1406 46.5625 14.1406ZM43.0469 8.28125C39.7656 8.28125 38.0469 8.75 38.0469 11.1719V11.7969C38.125 12.4219 38.75 12.9688 39.5312 12.9688H46.6406C47.3438 12.9688 47.9687 12.4219 48.125 11.7969V11.25C48.0469 8.75 46.25 8.28125 43.0469 8.28125Z" fill="#44494D"/>
<path d="M6.09375 33.5156C6.09375 33.2031 6.32813 32.8906 6.71875 32.8906C7.03125 32.8906 7.34375 33.125 7.34375 33.5156C7.34375 33.8281 7.10938 34.1406 6.71875 34.1406C6.32813 34.0625 6.09375 33.8281 6.09375 33.5156ZM6.09375 31.9531C6.09375 31.6406 6.32813 31.3281 6.71875 31.3281C7.03125 31.3281 7.34375 31.5625 7.34375 31.9531C7.34375 32.2656 7.10938 32.5781 6.71875 32.5781C6.32813 32.5 6.09375 32.2656 6.09375 31.9531ZM6.09375 30.3906C6.09375 30.0781 6.32813 29.7656 6.71875 29.7656C7.03125 29.7656 7.34375 30 7.34375 30.3906C7.34375 30.7031 7.10938 31.0156 6.71875 31.0156C6.32813 30.9375 6.09375 30.7031 6.09375 30.3906ZM6.09375 28.8281C6.09375 28.5156 6.32813 28.2031 6.71875 28.2031C7.03125 28.2031 7.34375 28.4375 7.34375 28.8281C7.34375 29.1406 7.10938 29.4531 6.71875 29.4531C6.32813 29.375 6.09375 29.1406 6.09375 28.8281ZM6.09375 27.2656C6.09375 26.9531 6.32813 26.6406 6.71875 26.6406C7.03125 26.6406 7.34375 26.875 7.34375 27.2656C7.34375 27.5781 7.10938 27.8906 6.71875 27.8906C6.32813 27.8125 6.09375 27.5781 6.09375 27.2656ZM6.09375 25.7031C6.09375 25.3906 6.32813 25.0781 6.71875 25.0781C7.03125 25.0781 7.34375 25.3125 7.34375 25.7031C7.34375 26.0156 7.10938 26.3281 6.71875 26.3281C6.32813 26.25 6.09375 26.0156 6.09375 25.7031ZM6.09375 24.1406C6.09375 23.8281 6.32813 23.5156 6.71875 23.5156C7.03125 23.5156 7.34375 23.75 7.34375 24.1406C7.34375 24.4531 7.10938 24.7656 6.71875 24.7656C6.32813 24.6875 6.09375 24.4531 6.09375 24.1406ZM6.09375 22.5781C6.09375 22.2656 6.32813 21.9531 6.71875 21.9531C7.03125 21.9531 7.34375 22.1875 7.34375 22.5781C7.34375 22.8906 7.10938 23.2031 6.71875 23.2031C6.32813 23.125 6.09375 22.8906 6.09375 22.5781ZM6.09375 21.0156C6.09375 20.7031 6.32813 20.3906 6.71875 20.3906C7.03125 20.3906 7.34375 20.625 7.34375 21.0156C7.34375 21.3281 7.10938 21.6406 6.71875 21.6406C6.32813 21.5625 6.09375 21.3281 6.09375 21.0156ZM6.09375 19.4531C6.09375 19.1406 6.32813 18.8281 6.71875 18.8281C7.03125 18.8281 7.34375 19.0625 7.34375 19.4531C7.34375 19.7656 7.10938 20.0781 6.71875 20.0781C6.32813 20 6.09375 19.7656 6.09375 19.4531ZM6.09375 17.8906C6.09375 17.5781 6.32813 17.2656 6.71875 17.2656C7.03125 17.2656 7.34375 17.5 7.34375 17.8906C7.34375 18.2031 7.10938 18.5156 6.71875 18.5156C6.32813 18.4375 6.09375 18.2031 6.09375 17.8906ZM6.09375 16.3281C6.09375 16.0156 6.32813 15.7031 6.71875 15.7031C7.03125 15.7031 7.34375 15.9375 7.34375 16.3281C7.34375 16.6406 7.10938 16.9531 6.71875 16.9531C6.32813 16.875 6.09375 16.6406 6.09375 16.3281ZM6.09375 14.7656C6.09375 14.4531 6.32813 14.1406 6.71875 14.1406C7.03125 14.1406 7.34375 14.375 7.34375 14.7656C7.34375 15.0781 7.10938 15.3906 6.71875 15.3906C6.32813 15.3125 6.09375 15.0781 6.09375 14.7656Z" fill="#44494D"/>
<path d="M31.7187 43.3594C31.7187 43.0469 31.9531 42.7344 32.3438 42.7344C32.6562 42.7344 32.9688 42.9687 32.9688 43.3594C32.9688 43.6719 32.7344 43.9844 32.3438 43.9844C31.9531 43.9062 31.7187 43.6719 31.7187 43.3594ZM30.1562 43.3594C30.1562 43.0469 30.3906 42.7344 30.7812 42.7344C31.0938 42.7344 31.4062 42.9687 31.4062 43.3594C31.4062 43.6719 31.1719 43.9844 30.7812 43.9844C30.3906 43.9062 30.1562 43.6719 30.1562 43.3594ZM28.5937 43.3594C28.5937 43.0469 28.8281 42.7344 29.2188 42.7344C29.5313 42.7344 29.8438 42.9687 29.8438 43.3594C29.8438 43.6719 29.6094 43.9844 29.2188 43.9844C28.8281 43.9062 28.5937 43.6719 28.5937 43.3594ZM27.0312 43.3594C27.0312 43.0469 27.2656 42.7344 27.6563 42.7344C27.9688 42.7344 28.2812 42.9687 28.2812 43.3594C28.2812 43.6719 28.0469 43.9844 27.6563 43.9844C27.2656 43.9062 27.0312 43.6719 27.0312 43.3594ZM25.4687 43.3594C25.4687 43.0469 25.7031 42.7344 26.0938 42.7344C26.4063 42.7344 26.7188 42.9687 26.7188 43.3594C26.7188 43.6719 26.4844 43.9844 26.0938 43.9844C25.7031 43.9062 25.4687 43.6719 25.4687 43.3594ZM23.9062 43.3594C23.9062 43.0469 24.1406 42.7344 24.5312 42.7344C24.8437 42.7344 25.0781 42.9687 25.0781 43.3594C25.0781 43.6719 24.8437 43.9844 24.5312 43.9844C24.1406 43.9062 23.9062 43.6719 23.9062 43.3594ZM22.3438 43.3594C22.3438 43.0469 22.5781 42.7344 22.9687 42.7344C23.2812 42.7344 23.5938 42.9687 23.5938 43.3594C23.5938 43.6719 23.3594 43.9844 22.9687 43.9844C22.5781 43.9062 22.3438 43.6719 22.3438 43.3594ZM20.7812 43.3594C20.7812 43.0469 21.0156 42.7344 21.4062 42.7344C21.7187 42.7344 22.0313 42.9687 22.0313 43.3594C22.0313 43.6719 21.7969 43.9844 21.4062 43.9844C21.0156 43.9062 20.7812 43.6719 20.7812 43.3594ZM19.2188 43.3594C19.2188 43.0469 19.4531 42.7344 19.8437 42.7344C20.1562 42.7344 20.4688 42.9687 20.4688 43.3594C20.4688 43.6719 20.2344 43.9844 19.8437 43.9844C19.4531 43.9062 19.2188 43.6719 19.2188 43.3594ZM17.6562 43.3594C17.6562 43.0469 17.8906 42.7344 18.2812 42.7344C18.5937 42.7344 18.9063 42.9687 18.9063 43.3594C18.9063 43.6719 18.6719 43.9844 18.2812 43.9844C17.8906 43.9062 17.6562 43.6719 17.6562 43.3594ZM16.0938 43.3594C16.0938 43.0469 16.3281 42.7344 16.7187 42.7344C17.0312 42.7344 17.3438 42.9687 17.3438 43.3594C17.3438 43.6719 17.1094 43.9844 16.7187 43.9844C16.3281 43.9062 16.0938 43.6719 16.0938 43.3594ZM14.5312 43.3594C14.5312 43.0469 14.7656 42.7344 15.1562 42.7344C15.4687 42.7344 15.7813 42.9687 15.7813 43.3594C15.7813 43.6719 15.5469 43.9844 15.1562 43.9844C14.7656 43.9062 14.5312 43.6719 14.5312 43.3594Z" fill="#44494D"/>
<path d="M42.7344 35.2344C42.7344 34.9219 42.9687 34.6094 43.3594 34.6094C43.6719 34.6094 43.9844 34.8438 43.9844 35.2344C43.9844 35.5469 43.75 35.8594 43.3594 35.8594C42.9687 35.8594 42.7344 35.5469 42.7344 35.2344ZM42.7344 33.6719C42.7344 33.3594 42.9687 33.0469 43.3594 33.0469C43.6719 33.0469 43.9844 33.2812 43.9844 33.6719C43.9844 33.9844 43.75 34.2969 43.3594 34.2969C42.9687 34.2969 42.7344 33.9844 42.7344 33.6719ZM42.7344 32.1094C42.7344 31.7969 42.9687 31.4844 43.3594 31.4844C43.6719 31.4844 43.9844 31.7187 43.9844 32.1094C43.9844 32.4219 43.75 32.7344 43.3594 32.7344C42.9687 32.7344 42.7344 32.4219 42.7344 32.1094ZM42.7344 30.5469C42.7344 30.2344 42.9687 29.9219 43.3594 29.9219C43.6719 29.9219 43.9844 30.1562 43.9844 30.5469C43.9844 30.8594 43.75 31.1719 43.3594 31.1719C42.9687 31.1719 42.7344 30.8594 42.7344 30.5469ZM42.7344 28.9844C42.7344 28.6719 42.9687 28.3594 43.3594 28.3594C43.6719 28.3594 43.9844 28.5937 43.9844 28.9844C43.9844 29.2969 43.75 29.6094 43.3594 29.6094C42.9687 29.6094 42.7344 29.2969 42.7344 28.9844ZM42.7344 27.4219C42.7344 27.1094 42.9687 26.7969 43.3594 26.7969C43.6719 26.7969 43.9844 27.0312 43.9844 27.4219C43.9844 27.7344 43.75 28.0469 43.3594 28.0469C42.9687 28.0469 42.7344 27.7344 42.7344 27.4219ZM42.7344 25.8594C42.7344 25.5469 42.9687 25.2344 43.3594 25.2344C43.6719 25.2344 43.9844 25.4687 43.9844 25.8594C43.9844 26.1719 43.75 26.4844 43.3594 26.4844C42.9687 26.4844 42.7344 26.1719 42.7344 25.8594ZM42.7344 24.2969C42.7344 23.9844 42.9687 23.6719 43.3594 23.6719C43.6719 23.6719 43.9844 23.9063 43.9844 24.2969C43.9844 24.6094 43.75 24.9219 43.3594 24.9219C42.9687 24.9219 42.7344 24.6094 42.7344 24.2969ZM42.7344 22.7344C42.7344 22.4219 42.9687 22.1094 43.3594 22.1094C43.6719 22.1094 43.9844 22.3438 43.9844 22.7344C43.9844 23.0469 43.75 23.3594 43.3594 23.3594C42.9687 23.3594 42.7344 23.0469 42.7344 22.7344ZM42.7344 21.1719C42.7344 20.8594 42.9687 20.5469 43.3594 20.5469C43.6719 20.5469 43.9844 20.7813 43.9844 21.1719C43.9844 21.4844 43.75 21.7969 43.3594 21.7969C42.9687 21.7969 42.7344 21.4844 42.7344 21.1719ZM42.7344 19.6094C42.7344 19.2969 42.9687 18.9844 43.3594 18.9844C43.6719 18.9844 43.9844 19.2188 43.9844 19.6094C43.9844 19.9219 43.75 20.2344 43.3594 20.2344C42.9687 20.2344 42.7344 19.9219 42.7344 19.6094ZM42.7344 18.0469C42.7344 17.7344 42.9687 17.4219 43.3594 17.4219C43.6719 17.4219 43.9844 17.6563 43.9844 18.0469C43.9844 18.3594 43.75 18.6719 43.3594 18.6719C42.9687 18.6719 42.7344 18.3594 42.7344 18.0469ZM42.7344 16.4844C42.7344 16.1719 42.9687 15.8594 43.3594 15.8594C43.6719 15.8594 43.9844 16.0938 43.9844 16.4844C43.9844 16.7969 43.75 17.1094 43.3594 17.1094C42.9687 17.1094 42.7344 16.7969 42.7344 16.4844Z" fill="#44494D"/>
<path d="M34.2969 6.64063C34.2969 6.32813 34.5312 6.01562 34.9219 6.01562C35.2344 6.01562 35.5469 6.25 35.5469 6.64063C35.5469 6.95313 35.3125 7.26563 34.9219 7.26563C34.6094 7.26563 34.2969 6.95313 34.2969 6.64063ZM32.7344 6.64063C32.7344 6.32813 32.9688 6.01562 33.3594 6.01562C33.6719 6.01562 33.9844 6.25 33.9844 6.64063C33.9844 6.95313 33.75 7.26563 33.3594 7.26563C33.0469 7.26563 32.7344 6.95313 32.7344 6.64063ZM31.1719 6.64063C31.1719 6.32813 31.4063 6.01562 31.7969 6.01562C32.1094 6.01562 32.4219 6.25 32.4219 6.64063C32.4219 6.95313 32.1875 7.26563 31.7969 7.26563C31.4844 7.26563 31.1719 6.95313 31.1719 6.64063ZM29.6094 6.64063C29.6094 6.32813 29.8438 6.01562 30.2344 6.01562C30.5469 6.01562 30.8594 6.25 30.8594 6.64063C30.8594 6.95313 30.625 7.26563 30.2344 7.26563C29.9219 7.26563 29.6094 6.95313 29.6094 6.64063ZM28.0469 6.64063C28.0469 6.32813 28.2813 6.01562 28.6719 6.01562C28.9844 6.01562 29.2969 6.25 29.2969 6.64063C29.2969 6.95313 29.0625 7.26563 28.6719 7.26563C28.3594 7.26563 28.0469 6.95313 28.0469 6.64063ZM26.4844 6.64063C26.4844 6.32813 26.7188 6.01562 27.1094 6.01562C27.4219 6.01562 27.7344 6.25 27.7344 6.64063C27.7344 6.95313 27.5 7.26563 27.1094 7.26563C26.7969 7.26563 26.4844 6.95313 26.4844 6.64063ZM24.9219 6.64063C24.9219 6.32813 25.1562 6.01562 25.4687 6.01562C25.7812 6.01562 26.0938 6.25 26.0938 6.64063C26.0938 6.95313 25.8594 7.26563 25.4687 7.26563C25.2344 7.26563 24.9219 6.95313 24.9219 6.64063ZM23.3594 6.64063C23.3594 6.32813 23.5938 6.01562 23.9844 6.01562C24.2969 6.01562 24.6094 6.25 24.6094 6.64063C24.6094 6.95313 24.375 7.26563 23.9844 7.26563C23.6719 7.26563 23.3594 6.95313 23.3594 6.64063ZM21.7969 6.64063C21.7969 6.32813 22.0313 6.01562 22.4219 6.01562C22.7344 6.01562 23.0469 6.25 23.0469 6.64063C23.0469 6.95313 22.8125 7.26563 22.4219 7.26563C22.1094 7.26563 21.7969 6.95313 21.7969 6.64063ZM20.2344 6.64063C20.2344 6.32813 20.4688 6.01562 20.8594 6.01562C21.1719 6.01562 21.4844 6.25 21.4844 6.64063C21.4844 6.95313 21.25 7.26563 20.8594 7.26563C20.5469 7.26563 20.2344 6.95313 20.2344 6.64063ZM18.6719 6.64063C18.6719 6.32813 18.9063 6.01562 19.2969 6.01562C19.6094 6.01562 19.9219 6.25 19.9219 6.64063C19.9219 6.95313 19.6875 7.26563 19.2969 7.26563C18.9844 7.26563 18.6719 6.95313 18.6719 6.64063ZM17.1094 6.64063C17.1094 6.32813 17.3438 6.01562 17.7344 6.01562C18.0469 6.01562 18.3594 6.25 18.3594 6.64063C18.3594 6.95313 18.125 7.26563 17.7344 7.26563C17.4219 7.26563 17.1094 6.95313 17.1094 6.64063Z" fill="#44494D"/>
</g>
<defs>
<clipPath id="clip0_564_1790">
<rect width="50" height="50" fill="white"/>
</clipPath>
</defs>
</svg>
