<svg width="50" height="50" viewBox="0 0 50 50" fill="none" xmlns="http://www.w3.org/2000/svg">
<g clip-path="url(#clip0_564_1783)">
<path d="M47.8023 21.2402C46.8475 21.2402 46.0335 21.8525 45.731 22.7051H41.5524V21.8506C41.5524 21.4462 41.2247 21.1182 40.8199 21.1182C40.4156 21.1182 40.0875 21.4462 40.0875 21.8506V25.4211C40.0875 29.0737 38.863 32.513 36.6394 35.1051C33.5339 38.7241 29.6185 41.476 24.9997 43.286C20.8703 41.6679 17.2925 39.2894 14.3643 36.2159C14.0851 35.9229 13.6216 35.9115 13.3287 36.1907C13.0361 36.4696 13.0246 36.9331 13.3035 37.226C14.3144 38.2869 15.3993 39.2673 16.5524 40.1679V45.7316C15.7002 46.0338 15.0876 46.8478 15.0876 47.803C15.0876 49.0146 16.0733 50.0003 17.2849 50.0003C18.4964 50.0003 19.4821 49.0146 19.4821 47.803C19.4821 46.8482 18.8699 46.0338 18.0173 45.7316V41.241C20.0276 42.6242 22.2234 43.782 24.5915 44.6994C24.7235 44.7501 24.8616 44.7757 25.0001 44.7757C25.1382 44.7757 25.2762 44.7501 25.4075 44.6994C30.3067 42.802 34.4597 39.8952 37.7514 36.0587C39.2742 34.2838 40.3713 32.1529 40.9847 29.834H43.4605C43.763 30.6865 44.577 31.2988 45.5318 31.2988C46.7434 31.2988 47.7291 30.3131 47.7291 29.1015C47.7291 27.89 46.7434 26.9043 45.5318 26.9043C44.577 26.9043 43.763 27.5169 43.4605 28.3691H41.3033C41.468 27.4078 41.5524 26.4213 41.5524 25.4211V24.1699H45.731C46.0335 25.0225 46.8475 25.6347 47.8023 25.6347C49.0139 25.6347 49.9996 24.649 49.9996 23.4375C49.9996 22.2259 49.0139 21.2402 47.8023 21.2402ZM17.2849 48.535C16.8809 48.535 16.5524 48.2066 16.5524 47.8026C16.5524 47.3987 16.8809 47.0702 17.2849 47.0702C17.6888 47.0702 18.0173 47.3987 18.0173 47.8026C18.0173 48.2066 17.6888 48.535 17.2849 48.535ZM45.5318 28.3691C45.9358 28.3691 46.2642 28.6976 46.2642 29.1015C46.2642 29.5055 45.9358 29.834 45.5318 29.834C45.1279 29.834 44.7994 29.5055 44.7994 29.1015C44.7994 28.6976 45.1279 28.3691 45.5318 28.3691ZM47.8023 24.1699C47.3984 24.1699 47.0699 23.8415 47.0699 23.4375C47.0699 23.0335 47.3984 22.7051 47.8023 22.7051C48.2063 22.7051 48.5347 23.0335 48.5347 23.4375C48.5347 23.8415 48.2063 24.1699 47.8023 24.1699Z" fill="#44494D"/>
<path d="M9.91207 25.421V12.0971C12.5988 11.462 15.39 10.2783 18.2136 8.57579C22.3994 6.05237 27.6004 6.05237 31.7862 8.57579C33.0428 9.333 34.2925 9.98722 35.5296 10.5365C35.5433 10.543 35.557 10.5495 35.5715 10.5548C37.1005 11.2312 38.6099 11.7477 40.0877 12.0971V18.7171C40.0877 19.1219 40.4154 19.4495 40.8202 19.4495C41.2249 19.4495 41.5526 19.1219 41.5526 18.7171V11.8282C41.5526 11.3044 41.1917 10.844 40.6943 10.7334C39.3492 10.4343 37.9713 9.98493 36.5721 9.39213V4.26863C37.4247 3.96613 38.037 3.15207 38.037 2.19726C38.037 0.985714 37.0512 0 35.8397 0C34.6282 0 33.6424 0.985714 33.6424 2.19726C33.6424 3.15207 34.2551 3.96613 35.1073 4.26863V8.72342C34.2585 8.30723 33.4029 7.83993 32.5427 7.32152C27.8903 4.51658 22.1095 4.51696 17.4575 7.32152C14.6682 9.00265 11.9255 10.1509 9.30554 10.7334C8.8081 10.844 8.44723 11.3044 8.44723 11.8282V16.2597H4.26863C3.96613 15.4071 3.15207 14.7949 2.19726 14.7949C0.985714 14.7949 0 15.7806 0 16.9921C0 18.2037 0.985714 19.1894 2.19726 19.1894C3.15207 19.1894 3.96613 18.5771 4.26863 17.7245H8.44723V21.9237H6.53913C6.23662 21.0712 5.42257 20.4589 4.46776 20.4589C3.25621 20.4589 2.2705 21.4446 2.2705 22.6562C2.2705 23.8677 3.25621 24.8534 4.46776 24.8534C5.42257 24.8534 6.23662 24.2412 6.53913 23.3886H8.44723V25.421C8.44723 28.9313 9.46117 32.2238 11.3788 34.9421C11.5215 35.1443 11.7481 35.2522 11.9781 35.2522C12.1238 35.2522 12.2715 35.2088 12.3996 35.1183C12.73 34.8849 12.8089 34.4279 12.5759 34.0975C10.8333 31.6275 9.91207 28.6273 9.91207 25.421ZM35.8397 1.46484C36.2437 1.46484 36.5721 1.79328 36.5721 2.19726C36.5721 2.60123 36.2437 2.92968 35.8397 2.92968C35.4357 2.92968 35.1073 2.60123 35.1073 2.19726C35.1073 1.79328 35.4357 1.46484 35.8397 1.46484ZM2.19726 17.7245C1.79328 17.7245 1.46484 17.3961 1.46484 16.9921C1.46484 16.5881 1.79328 16.2597 2.19726 16.2597C2.60123 16.2597 2.92968 16.5881 2.92968 16.9921C2.92968 17.3961 2.60123 17.7245 2.19726 17.7245ZM4.46776 23.3886C4.06378 23.3886 3.73534 23.0601 3.73534 22.6562C3.73534 22.2522 4.06378 21.9237 4.46776 21.9237C4.87173 21.9237 5.20018 22.2522 5.20018 22.6562C5.20018 23.0601 4.87173 23.3886 4.46776 23.3886Z" fill="#44494D"/>
<path d="M16.9426 12.6125C17.305 12.4332 17.4537 11.9938 17.2745 11.6314C17.0952 11.269 16.6557 11.1202 16.2929 11.2995C14.9071 11.985 13.5155 12.5538 12.1574 12.9902C11.6905 13.1401 11.377 13.5696 11.377 14.059V25.4211C11.377 28.7242 12.476 31.8244 14.4714 34.1506C17.2031 37.3343 20.6085 39.8185 24.5933 41.5351C24.7222 41.5908 24.8611 41.6186 24.9999 41.6186C25.1388 41.6186 25.2777 41.5908 25.407 41.5351C29.3914 39.8188 32.7964 37.3347 35.5277 34.1514C37.5236 31.8244 38.6229 28.7242 38.6229 25.4211V14.059C38.6229 13.5696 38.3094 13.1401 37.8425 12.9902C35.6109 12.2734 33.319 11.2102 31.0302 9.83047C29.2114 8.73375 27.1263 8.1543 24.9999 8.1543C22.874 8.1543 20.7889 8.73375 18.9697 9.83047L18.8141 9.92393C18.4665 10.1311 18.3529 10.5808 18.56 10.9283C18.7671 11.2759 19.2165 11.3895 19.564 11.1824C19.6182 11.15 19.6724 11.1175 19.7261 11.0851C21.3169 10.1261 23.1407 9.61913 24.9999 9.61913C26.8596 9.61913 28.6834 10.1261 30.2741 11.0851C32.5793 12.4748 34.8941 13.5582 37.1581 14.3078V25.4207C37.1581 28.3744 36.1842 31.1362 34.4161 33.1973C31.8706 36.164 28.7032 38.4906 24.9999 40.1145C21.2963 38.4902 18.1289 36.1636 15.5834 33.1969C13.8153 31.1359 12.8418 28.3744 12.8418 25.4207V14.3078C14.1933 13.8603 15.5716 13.2904 16.9426 12.6125Z" fill="#44494D"/>
<path d="M25 17.1387C22.9809 17.1387 21.3379 18.7813 21.3379 20.8008V22.0215H21.0937C20.1515 22.0215 19.3848 22.7882 19.3848 23.7304V29.5898C19.3848 30.532 20.1515 31.2988 21.0937 31.2988H28.9062C29.8484 31.2988 30.6152 30.532 30.6152 29.5898V23.7304C30.6152 22.7882 29.8484 22.0215 28.9062 22.0215H28.6621V20.8008C28.6621 18.7813 27.0195 17.1387 25 17.1387ZM22.8027 20.8008C22.8027 19.5892 23.7884 18.6035 25 18.6035C26.2115 18.6035 27.1972 19.5892 27.1972 20.8008V22.0215H22.8027V20.8008ZM29.1504 23.7304V29.5898C29.1504 29.7245 29.0409 29.8339 28.9062 29.8339H21.0937C20.9591 29.8339 20.8496 29.7245 20.8496 29.5898V23.7304C20.8496 23.5958 20.9591 23.4863 21.0937 23.4863H28.9062C29.0409 23.4863 29.1504 23.5958 29.1504 23.7304Z" fill="#44494D"/>
<path d="M25 23.7305C23.7884 23.7305 22.8027 24.7162 22.8027 25.9277C22.8027 26.8825 23.4154 27.6966 24.2676 27.9991V28.8574C24.2676 29.2618 24.5956 29.5898 25 29.5898C25.4047 29.5898 25.7324 29.2618 25.7324 28.8574V27.9991C26.585 27.6966 27.1972 26.8825 27.1972 25.9277C27.1972 24.7162 26.2115 23.7305 25 23.7305ZM25 26.6601C24.596 26.6601 24.2676 26.3317 24.2676 25.9277C24.2676 25.5238 24.596 25.1953 25 25.1953C25.404 25.1953 25.7324 25.5238 25.7324 25.9277C25.7324 26.3317 25.404 26.6601 25 26.6601Z" fill="#44494D"/>
</g>
<defs>
<clipPath id="clip0_564_1783">
<rect width="50" height="50" fill="white"/>
</clipPath>
</defs>
</svg>
