<svg width="100" height="101" viewBox="0 0 100 101" fill="none" xmlns="http://www.w3.org/2000/svg">
<path d="M73.6738 43.6704V15.0806C73.6738 12.0396 69.9082 9.5708 62.4824 7.74658C55.832 6.11182 47.0371 5.21143 37.7168 5.21143C28.3965 5.21143 19.5996 6.11182 12.9512 7.74658C5.52344 9.57275 1.75781 12.0396 1.75781 15.0806V83.0239C1.75781 86.0708 5.51758 88.5415 12.9297 90.3638C19.5664 91.9946 28.3691 92.8931 37.7148 92.8931C45.1035 92.8931 52.1445 92.3345 58.123 91.2759C62.2012 93.9497 67.0742 95.5083 72.3047 95.5083C86.6055 95.5083 98.2402 83.8735 98.2402 69.5728C98.2422 55.729 87.3418 44.3833 73.6738 43.6704ZM13.6016 10.4028C20.043 8.81885 28.6074 7.94775 37.7148 7.94775C46.8223 7.94775 55.3867 8.81885 61.8281 10.4028C69.0195 12.1704 70.9375 14.1763 70.9375 15.0825C70.9375 15.9888 69.0195 17.9946 61.8281 19.7622C55.3867 21.3462 46.8223 22.2173 37.7148 22.2173C28.6074 22.2173 20.043 21.3462 13.6016 19.7622C6.41016 17.9927 4.49219 15.9868 4.49219 15.0806C4.49219 14.1743 6.41016 12.1704 13.6016 10.4028ZM4.49219 19.1528C6.36133 20.3989 9.18359 21.4907 12.9492 22.4165C19.5996 24.0513 28.3945 24.9517 37.7148 24.9517C47.0352 24.9517 55.832 24.0513 62.4805 22.4165C66.2461 21.4907 69.0684 20.4009 70.9375 19.1528V32.0669C70.9375 32.9771 69.0234 34.9868 61.8477 36.7505C55.418 38.3306 46.8477 39.2017 37.7148 39.2017C28.582 39.2017 20.0117 38.3306 13.582 36.7505C6.40625 34.9868 4.49219 32.9771 4.49219 32.0669V19.1528ZM4.49219 36.147C6.35938 37.3931 9.17383 38.4829 12.9297 39.4067C19.5664 41.0376 28.3691 41.936 37.7148 41.936C47.0605 41.936 55.8633 41.0376 62.5 39.4067C66.2559 38.4829 69.0723 37.395 70.9375 36.147V43.6704C62.3535 44.1177 54.8613 48.7603 50.4746 55.5806C46.4199 55.981 42.1328 56.188 37.7148 56.188C28.582 56.188 20.0117 55.3169 13.582 53.7368C6.40625 51.9731 4.49219 49.9614 4.49219 49.0532V36.147ZM4.49219 53.1333C6.35938 54.3794 9.17383 55.4692 12.9297 56.3911C19.5664 58.022 28.3691 58.9204 37.7148 58.9204C41.5488 58.9204 45.2871 58.7681 48.8672 58.4712C47.2656 61.8384 46.3691 65.602 46.3691 69.5708C46.3691 70.6938 46.4414 71.8013 46.5801 72.8872C43.6992 73.0767 40.7246 73.1724 37.7148 73.1724C28.582 73.1724 20.0117 72.3013 13.582 70.7212C6.40625 68.9575 4.49219 66.9478 4.49219 66.0376V53.1333ZM37.7148 90.1567C28.582 90.1567 20.0117 89.2856 13.582 87.7056C6.40625 85.9438 4.49219 83.9341 4.49219 83.0239V70.1177C6.35938 71.3638 9.17383 72.4536 12.9297 73.3774C19.5664 75.0083 28.3691 75.9067 37.7148 75.9067C40.8945 75.9067 44.0391 75.8013 47.0762 75.5942C48.334 80.8618 51.2031 85.5103 55.1309 88.9888C49.8828 89.7544 43.9316 90.1567 37.7148 90.1567ZM72.3066 92.772C59.5137 92.772 49.1055 82.3638 49.1055 69.5708C49.1055 56.7778 59.5137 46.3696 72.3066 46.3696C85.0996 46.3696 95.5078 56.7778 95.5078 69.5708C95.5078 82.3638 85.0996 92.772 72.3066 92.772ZM77.7422 68.8716C79.7168 67.2798 80.9824 64.8442 80.9824 62.1157C80.9824 57.3306 77.0898 53.4399 72.3066 53.4399C67.5234 53.4399 63.6309 57.3325 63.6309 62.1157C63.6309 64.8442 64.8965 67.2798 66.8711 68.8716C62.5527 70.186 59.4004 74.2036 59.4004 78.9458V79.6274C59.4004 82.2271 61.5156 84.3423 64.1152 84.3423H80.4961C83.0957 84.3423 85.2109 82.2271 85.2109 79.6274V78.9458C85.2109 74.2036 82.0586 70.1841 77.7422 68.8716ZM72.3066 56.1724C75.584 56.1724 78.248 58.8384 78.248 62.1138C78.248 65.3911 75.582 68.0552 72.3066 68.0552C69.0312 68.0552 66.3652 65.3892 66.3652 62.1138C66.3633 58.8384 69.0293 56.1724 72.3066 56.1724ZM82.4766 79.6255C82.4766 80.7173 81.5879 81.606 80.4961 81.606H64.1152C63.0234 81.606 62.1348 80.7173 62.1348 79.6255V78.9438C62.1348 74.647 65.6309 71.1489 69.9277 71.1489H74.6816C78.9785 71.1489 82.4766 74.645 82.4766 78.9438V79.6255Z" fill="white"/>
</svg>
