<svg width="44" height="46" viewBox="0 0 44 46" fill="none" xmlns="http://www.w3.org/2000/svg">
<path fill-rule="evenodd" clip-rule="evenodd" d="M21.9999 6.02979C24.1982 6.02969 25.987 7.81789 25.9871 10.0168C25.9872 12.2157 24.1984 14.0045 22.0001 14.0045C19.8012 14.0046 18.0124 12.2158 18.0123 10.017C18.0123 7.81809 19.8011 6.02979 21.9999 6.02979ZM27.4496 10.0167C27.4495 7.01209 25.0045 4.56659 21.9999 4.56669C18.9947 4.56679 16.5499 7.01229 16.5499 10.017C16.55 13.0222 18.9949 15.467 22.0001 15.467C25.0048 15.4669 27.4497 13.0219 27.4496 10.0167ZM43.835 2.65959L43.8352 9.03559C43.8352 9.41389 43.5279 9.72059 43.1496 9.72059C42.7707 9.72059 42.464 9.41389 42.464 9.03559L42.4639 3.34519L36.7741 3.34529C36.3952 3.34529 36.0885 3.03799 36.0885 2.65969C36.0885 2.28139 36.3952 1.97469 36.7741 1.97469L43.1495 1.97449C43.5277 1.97459 43.835 2.28129 43.835 2.65959ZM43.8359 38.5838L43.8361 44.9592C43.8361 45.3375 43.5288 45.6448 43.1505 45.6448L36.7751 45.645C36.3962 45.645 36.0895 45.3377 36.0895 44.9594C36.0895 44.5811 36.3962 44.2738 36.7751 44.2738L42.4649 44.2737L42.4648 38.5839C42.4648 38.2056 42.7715 37.8983 43.1504 37.8983C43.5285 37.8982 43.8358 38.2054 43.8359 38.5838ZM7.91176 44.96C7.91176 45.3383 7.60456 45.6456 7.22616 45.6456L0.850763 45.6458C0.472463 45.6458 0.165162 45.3385 0.165162 44.9602L0.164963 38.5848C0.164963 38.2065 0.472263 37.8992 0.850563 37.8992C1.23006 37.8992 1.53616 38.2065 1.53616 38.5848L1.53626 44.2746L7.22606 44.2745C7.60456 44.2744 7.91176 44.5817 7.91176 44.96ZM0.164263 9.03659L0.164062 2.66059C0.164062 2.28229 0.471362 1.97559 0.849662 1.97559L7.22506 1.97539C7.60336 1.97539 7.91066 2.28209 7.91066 2.66039C7.91066 3.03869 7.60346 3.34599 7.22506 3.34599L1.53526 3.34609L1.53536 9.03649C1.53536 9.41479 1.22926 9.72149 0.849763 9.72149C0.471663 9.72159 0.164363 9.41499 0.164263 9.03659ZM22.0008 39.3964L40.3823 32.8317L33.2317 30.2778L22.2311 34.2068C22.0818 34.2599 21.9193 34.26 21.7708 34.2068L10.7688 30.2783L3.61826 32.8326L22.0008 39.3964ZM17.9659 21.1442C18.8258 22.5181 20.0102 24.3451 20.7297 25.55C21.3016 26.5076 22.6948 26.5126 23.2699 25.5499C23.9921 24.341 25.1722 22.5189 26.0324 21.1434L40.3821 26.268L22.0006 32.8327L3.61816 26.2688L17.9659 21.1442ZM21.9998 1.81689C17.6771 1.81699 14.1603 5.33399 14.1604 9.65669C14.1605 12.4245 18.0819 18.6052 20.4235 22.2976C21.0427 23.2732 21.5775 24.1147 21.9859 24.7997C21.9876 24.8031 21.9894 24.8061 21.9911 24.8078H22.0096C22.0107 24.8061 22.0125 24.8032 22.0142 24.7997C22.4226 24.117 22.9545 23.2766 23.5707 22.305C25.915 18.6049 29.839 12.4119 29.8389 9.65629C29.8389 5.33359 26.3225 1.81669 21.9998 1.81689ZM43.1062 32.8316C43.1062 32.5416 42.9242 32.2829 42.651 32.1865L35.27 29.5505L42.6509 26.9131C43.2554 26.6977 43.2554 25.8374 42.6509 25.6228L26.77 19.9513C29.056 16.2171 31.3016 12.1156 31.3015 9.65629C31.3014 4.52679 27.1288 0.354392 21.9998 0.354492C16.8703 0.354592 12.6979 4.52719 12.698 9.65679C12.6981 12.1266 14.9432 16.2245 17.2271 19.9528L1.34936 25.6237C0.744863 25.8384 0.744863 26.6988 1.34936 26.914L8.73046 29.5499L1.34956 32.1873C0.744962 32.402 0.745062 33.2623 1.34956 33.4776L21.771 40.7703C21.9215 40.8242 22.08 40.8241 22.2313 40.7703L42.6511 33.4766C42.9243 33.3797 43.1062 33.1215 43.1062 32.8316Z" fill="#44494D"/>
</svg>
