<svg width="100" height="101" viewBox="0 0 100 101" fill="none" xmlns="http://www.w3.org/2000/svg">
<path d="M15.7178 31.0157C19.4154 31.0157 22.801 29.6614 25.4121 27.4264L31.2994 33.3186C31.5281 33.5475 31.8279 33.662 32.1277 33.662C32.4275 33.662 32.7268 33.5477 32.9555 33.3194C33.4129 32.8622 33.4133 32.1208 32.9561 31.6633L27.0674 25.7698C29.2996 23.1583 30.6521 19.7729 30.6521 16.0754C30.6521 7.84048 23.9525 1.14087 15.7178 1.14087C7.48301 1.14087 0.783203 7.84067 0.783203 16.0756C0.783203 24.3106 7.48301 31.0157 15.7178 31.0157ZM15.7178 3.48286C22.6613 3.48286 28.3104 9.13188 28.3104 16.0756C28.3104 23.0194 22.6613 28.6739 15.7178 28.6739C8.77422 28.6739 3.1252 23.0223 3.1252 16.0756C3.1252 9.12895 8.77402 3.48286 15.7178 3.48286ZM8.77227 10.9266C8.77227 10.2797 9.29648 9.75571 9.94316 9.75571H21.4922C22.1389 9.75571 22.6631 10.2799 22.6631 10.9266C22.6631 11.5733 22.1389 12.0975 21.4922 12.0975H9.94316C9.29648 12.0975 8.77227 11.5733 8.77227 10.9266ZM8.77227 21.2245C8.77227 20.5776 9.29648 20.0536 9.94316 20.0536H21.4922C22.1389 20.0536 22.6631 20.5778 22.6631 21.2245C22.6631 21.8711 22.1389 22.3954 21.4922 22.3954H9.94316C9.29648 22.3954 8.77227 21.8711 8.77227 21.2245ZM8.77227 16.0756C8.77227 15.4288 9.29648 14.9047 9.94316 14.9047H21.4922C22.1389 14.9047 22.6631 15.429 22.6631 16.0756C22.6631 16.7223 22.1389 17.2465 21.4922 17.2465H9.94316C9.29648 17.2465 8.77227 16.7223 8.77227 16.0756ZM21.3252 79.4432C20.7477 79.126 20.4539 78.6286 20.1426 78.1022C19.6557 77.2778 18.7488 75.7438 16.4857 76.727C16.0582 76.9129 15.7814 77.3346 15.7814 77.801V84.7292C15.1924 84.426 14.5256 84.2538 13.8187 84.2538C11.4451 84.2538 9.51406 86.1848 9.51406 88.5584C9.51406 90.9321 11.4451 92.8629 13.8187 92.8629C16.1924 92.8629 18.1232 90.9319 18.1232 88.5584V79.2881C18.1242 79.2899 18.1254 79.2917 18.1264 79.2932C18.5195 79.9585 19.0578 80.8696 20.1977 81.4958C20.7643 81.8073 21.4764 81.6001 21.7877 81.0333C22.099 80.4665 21.892 79.7545 21.325 79.443L21.3252 79.4432ZM13.8187 90.5211C12.7365 90.5211 11.8561 89.6407 11.8561 88.5584C11.8561 87.4762 12.7365 86.5956 13.8187 86.5956C14.901 86.5956 15.7814 87.4762 15.7814 88.5584C15.7814 89.6407 14.901 90.5211 13.8187 90.5211ZM79.675 22.9936C80.0512 23.2137 80.4646 23.3239 80.8793 23.3239C81.2912 23.3239 81.7039 23.2149 82.0811 22.9971L90.458 18.1637C91.2094 17.7297 91.658 16.9512 91.658 16.0811C91.658 15.211 91.2096 14.4381 90.4582 14.0042L82.0813 9.16509C81.3246 8.72837 80.425 8.72954 79.6807 9.16548C78.9295 9.59966 78.481 10.3782 78.481 11.2479V20.92C78.481 21.7864 78.9295 22.5627 79.6748 22.9936H79.675ZM80.823 11.2479C80.823 11.2223 80.8273 11.2118 80.8271 11.2118C80.8275 11.2114 80.8338 11.2038 80.8584 11.1897C80.8717 11.1819 80.8787 11.1801 80.8787 11.1799C80.8803 11.1799 80.8906 11.1819 80.91 11.193L89.2865 16.0319C89.2865 16.0319 89.2865 16.0319 89.2867 16.0319C89.3061 16.043 89.3121 16.0506 89.3121 16.0506C89.3121 16.0512 89.3158 16.0598 89.3158 16.0807C89.3158 16.1063 89.3115 16.1167 89.3117 16.1167C89.3113 16.1172 89.3053 16.1245 89.2871 16.1352L80.9102 20.9686C80.8902 20.9801 80.8799 20.9817 80.8799 20.9821C80.8789 20.9817 80.8713 20.9799 80.8523 20.969C80.8326 20.9575 80.8266 20.9497 80.8264 20.9497C80.8264 20.9491 80.8227 20.9407 80.8227 20.9196V11.2475L80.823 11.2479ZM99.215 84.6387C99.215 76.4006 92.5131 69.6987 84.275 69.6987C80.5781 69.6987 77.1932 71.0514 74.5818 73.2838L68.6986 67.4006C68.2414 66.9432 67.4998 66.9432 67.0426 67.4006C66.5854 67.8579 66.5854 68.5995 67.0426 69.0567L72.9254 74.9395C70.6898 77.5516 69.335 80.9391 69.335 84.6387C69.335 86.8188 69.8082 88.8891 70.6512 90.7584C70.6705 90.8133 70.6955 90.8659 70.7234 90.9178C73.1002 96.0266 78.2791 99.5788 84.275 99.5788C86.424 99.5788 88.4666 99.119 90.3148 98.2987C90.3605 98.2823 90.4041 98.2608 90.4477 98.2385C94.3877 96.443 97.4146 92.9866 98.6301 88.7676C98.6346 88.7491 98.6422 88.7313 98.6457 88.7125C99.0137 87.4166 99.2148 86.0512 99.2148 84.6389L99.215 84.6387ZM84.275 72.0405C91.2217 72.0405 96.873 77.692 96.873 84.6387C96.873 85.1411 96.84 85.6356 96.7826 86.1227L90.4898 79.8299C90.2701 79.6104 89.9725 79.487 89.6619 79.487C89.3514 79.487 89.0535 79.6104 88.834 79.8299L81.518 87.1461L78.249 83.8772C77.792 83.4198 77.0508 83.4198 76.5934 83.8768L72.209 88.2569C71.8644 87.1102 71.6769 85.8961 71.6769 84.6387C71.6769 77.692 77.3285 72.0405 84.275 72.0405ZM73.1789 90.5981L77.4207 86.3606L80.6895 89.6293C80.6895 89.6293 80.6898 89.6297 80.69 89.6299C80.6902 89.6301 80.6904 89.6303 80.6906 89.6305L87.7932 96.7331C86.6758 97.0586 85.4961 97.2366 84.275 97.2366C79.483 97.2366 75.3082 94.5469 73.1789 90.5981ZM90.1502 95.778L83.174 88.8018L89.6621 82.3137L96.16 88.8116C95.1014 91.8174 92.9342 94.3038 90.1502 95.778ZM82.1658 82.078C84.2555 82.078 85.9555 80.378 85.9555 78.2883C85.9555 76.1987 84.2555 74.4987 82.1658 74.4987C80.0762 74.4987 78.3762 76.1987 78.3762 78.2883C78.3762 80.378 80.0762 82.078 82.1658 82.078ZM82.1658 76.8405C82.9641 76.8405 83.6137 77.4899 83.6137 78.2883C83.6137 79.0868 82.9643 79.7362 82.1658 79.7362C81.3674 79.7362 80.718 79.0868 80.718 78.2883C80.718 77.4899 81.3676 76.8405 82.1658 76.8405ZM48.8283 15.8409V25.0891C48.8283 25.736 49.3525 26.26 49.9992 26.26C50.6459 26.26 51.1701 25.7358 51.1701 25.0891V15.8411C54.6955 15.2784 57.3986 12.2196 57.3986 8.54067C57.3986 4.4604 54.0793 1.14106 49.9992 1.14106C45.9191 1.14106 42.6053 4.4604 42.6053 8.54067C42.6053 12.2192 45.3059 15.278 48.8283 15.8409ZM49.9992 3.48306C52.7879 3.48306 55.0568 5.752 55.0568 8.54087C55.0568 11.3297 52.7881 13.5928 49.9992 13.5928C47.2104 13.5928 44.9471 11.3264 44.9471 8.54087C44.9471 5.75532 47.2135 3.48306 49.9992 3.48306ZM91.8213 42.9635C88.14 42.9635 85.0791 45.6641 84.5156 49.1864H75.2729C74.6262 49.1864 74.102 49.7106 74.102 50.3573C74.102 51.004 74.6262 51.5282 75.2729 51.5282H84.5154C85.0785 55.0536 88.1396 57.7567 91.8213 57.7567C95.8982 57.7567 99.215 54.4374 99.215 50.3573C99.215 46.2772 95.8982 42.9635 91.8213 42.9635ZM91.8213 55.4149C89.0326 55.4149 86.7637 53.1461 86.7637 50.3573C86.7637 47.5684 89.0324 45.3053 91.8213 45.3053C94.6102 45.3053 96.8732 47.5717 96.8732 50.3573C96.8732 53.1428 94.6068 55.4149 91.8213 55.4149ZM51.1701 84.8792V75.6311C51.1701 74.9842 50.6459 74.4602 49.9992 74.4602C49.3525 74.4602 48.8283 74.9844 48.8283 75.6311V84.8793C45.3059 85.4422 42.6053 88.501 42.6053 92.1795C42.6053 96.2596 45.9221 99.579 49.9992 99.579C54.0764 99.579 57.3986 96.2596 57.3986 92.1795C57.3986 88.5008 54.6957 85.4418 51.1701 84.8792ZM49.9992 97.237C47.2135 97.237 44.9471 94.9682 44.9471 92.1793C44.9471 89.3905 47.2135 87.1274 49.9992 87.1274C52.785 87.1274 55.0568 89.3938 55.0568 92.1793C55.0568 94.9649 52.7881 97.237 49.9992 97.237ZM8.17715 57.7565C11.8586 57.7565 14.9199 55.0536 15.483 51.528H24.7256C25.3723 51.528 25.8965 51.0038 25.8965 50.3571C25.8965 49.7104 25.3723 49.1862 24.7256 49.1862H15.4828C14.9193 45.6637 11.8584 42.9633 8.17715 42.9633C4.10019 42.9633 0.783398 46.2801 0.783398 50.3571C0.783398 54.434 4.10019 57.7565 8.17715 57.7565ZM8.17715 45.3051C10.9658 45.3051 13.2348 47.5715 13.2348 50.3571C13.2348 53.1426 10.966 55.4147 8.17715 55.4147C5.38828 55.4147 3.1252 53.1459 3.1252 50.3571C3.1252 47.5682 5.3916 45.3051 8.17715 45.3051ZM67.8707 33.662C68.1703 33.662 68.4701 33.5477 68.6986 33.319L74.5818 27.436C77.1932 29.6686 80.5781 31.0213 84.2752 31.0213C92.5131 31.0213 99.2152 24.3194 99.2152 16.0813C99.2152 7.84321 92.5131 1.14106 84.2752 1.14106C76.0373 1.14106 69.3352 7.84302 69.3352 16.0811C69.3352 19.7809 70.6898 23.1682 72.9256 25.7803L67.0428 31.6629C66.5855 32.1202 66.5855 32.8618 67.0428 33.319C67.2715 33.5477 67.5711 33.662 67.8707 33.662ZM84.2752 3.48286C91.2219 3.48286 96.8732 9.13442 96.8732 16.0811C96.8732 23.0278 91.2217 28.6793 84.2752 28.6793C77.3287 28.6793 71.6771 23.0278 71.6771 16.0811C71.6771 9.13442 77.3287 3.48286 84.2752 3.48286ZM31.2998 67.4006L25.4166 73.2838C22.8053 71.0512 19.4203 69.6987 15.7234 69.6987C7.48555 69.6987 0.783398 76.4006 0.783398 84.6387C0.783398 92.8768 7.48535 99.5786 15.7234 99.5786C23.9615 99.5786 30.6635 92.8766 30.6635 84.6387C30.6635 80.9389 29.3086 77.5516 27.073 74.9395L32.9559 69.0567C33.4131 68.5995 33.4131 67.8579 32.9559 67.4006C32.4984 66.9432 31.757 66.9432 31.2998 67.4006ZM15.7234 97.2368C8.77676 97.2368 3.12539 91.5852 3.12539 84.6387C3.12539 77.6922 8.77695 72.0405 15.7234 72.0405C22.6699 72.0405 28.3215 77.692 28.3215 84.6387C28.3215 91.5854 22.6699 97.2368 15.7234 97.2368ZM70.5367 50.3573C70.5367 39.036 61.3238 29.8254 49.9994 29.8254C38.675 29.8254 29.4621 39.036 29.4621 50.3573C29.4621 55.3985 31.2891 60.0204 34.3141 63.5983C34.3438 63.6448 34.3756 63.6901 34.4121 63.7327C36.7494 66.4522 39.7186 68.4778 43.0086 69.6686C43.1582 69.7229 43.3084 69.7758 43.4596 69.8266C43.4707 69.8303 43.482 69.8338 43.4932 69.8376C43.6555 69.8919 43.8187 69.9442 43.9826 69.9946C43.9902 69.9969 43.9981 69.9991 44.0057 70.0014C44.173 70.0526 44.3412 70.1014 44.5102 70.1485C44.5164 70.1502 44.5227 70.1518 44.5289 70.1536C44.6986 70.2004 44.8691 70.2452 45.0406 70.2879C45.0475 70.2897 45.0543 70.2913 45.0611 70.293C45.2311 70.3352 45.4018 70.3751 45.5732 70.4129C45.582 70.4149 45.591 70.4168 45.5998 70.4188C45.7684 70.4557 45.9375 70.4905 46.1076 70.5233C46.1195 70.5256 46.1313 70.5278 46.1432 70.5301C46.3088 70.5618 46.475 70.5913 46.642 70.6188C46.6582 70.6215 46.6744 70.6243 46.6906 70.627C46.8518 70.6532 47.0135 70.6774 47.1758 70.6999C47.1977 70.7028 47.2193 70.7061 47.241 70.709C47.3967 70.7299 47.5529 70.7491 47.7098 70.7665C47.7375 70.7696 47.7652 70.7729 47.793 70.776C47.9424 70.792 48.0926 70.8061 48.243 70.8188C48.2773 70.8217 48.3117 70.8252 48.3461 70.828C48.4889 70.8393 48.6322 70.8487 48.7758 70.8573C48.817 70.8596 48.858 70.8629 48.8992 70.8651C49.0404 70.8725 49.182 70.8778 49.3238 70.8825C49.366 70.8838 49.408 70.8862 49.4502 70.8874C49.6324 70.892 49.8154 70.8948 49.9988 70.8948C50.1822 70.8948 50.365 70.892 50.5475 70.8874C50.5896 70.8862 50.6316 70.8838 50.6736 70.8825C50.8156 70.878 50.9572 70.8727 51.0984 70.8651C51.1396 70.8629 51.1807 70.8596 51.2219 70.8573C51.3654 70.8489 51.509 70.8395 51.6518 70.828C51.6861 70.8252 51.7203 70.8217 51.7547 70.8188C51.9053 70.8061 52.0553 70.792 52.2049 70.776C52.2326 70.7731 52.2602 70.7696 52.2879 70.7665C52.4447 70.7491 52.6012 70.7299 52.7568 70.709C52.7785 70.7061 52.8002 70.703 52.8219 70.6999C52.9844 70.6774 53.1463 70.6532 53.3074 70.627C53.3234 70.6245 53.3396 70.6217 53.3557 70.619C53.5229 70.5915 53.6893 70.5618 53.8551 70.5301C53.8668 70.528 53.8785 70.5256 53.8902 70.5235C54.0603 70.4907 54.2299 70.4559 54.3986 70.4188C54.4072 70.4168 54.4158 70.4151 54.4244 70.4131C54.5961 70.3752 54.7672 70.3352 54.9373 70.293C54.9439 70.2915 54.9506 70.2899 54.9572 70.2881C55.1289 70.2454 55.2996 70.2006 55.4695 70.1538C55.4756 70.152 55.4816 70.1504 55.4877 70.1489C55.6572 70.1018 55.8258 70.0528 55.9936 70.0016L56.0152 69.9952C56.1799 69.9446 56.3438 69.892 56.5068 69.8376C56.5174 69.834 56.5279 69.8309 56.5385 69.8274C56.6908 69.776 56.8424 69.7227 56.9934 69.668C60.2818 68.477 63.2498 66.4516 65.5863 63.7332C65.6228 63.6909 65.6547 63.6456 65.6842 63.5991C68.7094 60.0211 70.5363 55.3993 70.5363 50.3581L70.5367 50.3573ZM49.9994 32.1672C60.0324 32.1672 68.1949 40.3272 68.1949 50.3573C68.1949 54.125 67.0436 57.629 65.0744 60.536C63.5633 57.544 60.3443 55.304 55.9592 54.2163C57.6772 52.1217 58.6889 49.2702 58.6889 46.5981C58.6889 41.1788 54.3176 38.3432 49.9994 38.3432C45.6813 38.3432 41.3102 41.1788 41.3102 46.5981C41.3102 49.2706 42.3221 52.1227 44.0406 54.2172C39.6578 55.3049 36.4389 57.5454 34.9258 60.5377C32.9559 57.6305 31.8041 54.1258 31.8041 50.3573C31.8041 40.3272 39.9666 32.1672 49.9996 32.1672H49.9994ZM57.1045 67.1077C57.0863 67.1153 57.0682 67.1231 57.05 67.1309C56.9459 67.1749 56.8412 67.2174 56.7361 67.2594C56.6875 67.2788 56.6389 67.2981 56.5902 67.317C56.5105 67.3481 56.4305 67.3786 56.3502 67.4084C56.2748 67.4366 56.1992 67.4643 56.1232 67.4915C56.0652 67.5122 56.0072 67.5327 55.9488 67.553C55.8496 67.5874 55.7502 67.6208 55.6504 67.6534C55.6121 67.6659 55.5738 67.6786 55.5354 67.6909C55.4146 67.7293 55.2937 67.7667 55.1723 67.8028C55.1518 67.8088 55.1311 67.8151 55.1105 67.8211C54.9711 67.862 54.8312 67.9012 54.6908 67.9387C54.6857 67.9401 54.6809 67.9415 54.6758 67.9428C53.4711 68.2629 52.2281 68.4606 50.9648 68.5274C50.9611 68.5274 50.9574 68.528 50.9539 68.5282C50.8102 68.5358 50.666 68.5411 50.5217 68.5452C50.5064 68.5456 50.4914 68.5465 50.4762 68.5469C50.3176 68.551 50.1588 68.5532 49.9998 68.5532C49.8408 68.5532 49.682 68.551 49.5234 68.5469C49.5086 68.5465 49.4939 68.5458 49.4791 68.5452C49.3344 68.5411 49.1898 68.5356 49.0455 68.5282C49.0424 68.5282 49.0393 68.5278 49.0363 68.5276C47.7725 68.4608 46.5291 68.2633 45.3238 67.943C45.3189 67.9417 45.3141 67.9403 45.3094 67.9391C45.1686 67.9016 45.0281 67.8622 44.8883 67.8211C44.8686 67.8153 44.8488 67.8094 44.8291 67.8036C44.7066 67.7672 44.5848 67.7297 44.4633 67.6909C44.4258 67.6788 44.3883 67.6665 44.3508 67.6544C44.2502 67.6215 44.15 67.5877 44.05 67.5532C43.9922 67.5331 43.9348 67.5127 43.8771 67.4922C43.8008 67.4649 43.7244 67.437 43.6484 67.4086C43.5689 67.379 43.4895 67.3489 43.4104 67.318C43.3609 67.2989 43.3115 67.2792 43.2623 67.2596C43.1578 67.2178 43.0537 67.1756 42.9502 67.1319C42.9312 67.1239 42.9125 67.1159 42.8936 67.1079C40.4832 66.0813 38.3383 64.5491 36.592 62.6452C37.584 59.3977 41.1072 57.0112 46.193 56.1624C47.3139 56.8856 48.5887 57.3239 49.9797 57.3477H49.9998C49.9998 57.3477 50.0131 57.3477 50.0199 57.3477C51.4113 57.3239 52.6867 56.8852 53.8076 56.1618C58.8971 57.011 62.4203 59.3975 63.4082 62.6448C61.6617 64.5493 59.5162 66.0821 57.1051 67.1086L57.1045 67.1077ZM49.9994 55.0049C46.365 54.9266 43.6518 50.5081 43.6518 46.5981C43.6518 42.5354 46.9422 40.6852 49.9992 40.6852C53.0562 40.6852 56.3469 42.5356 56.3469 46.5981C56.3469 50.5081 53.6338 54.9266 49.9994 55.0049Z" fill="white"/>
</svg>
