<svg width="33" height="33" viewBox="0 0 33 33" fill="none" xmlns="http://www.w3.org/2000/svg">
<path d="M31.4839 16.5011L32.9317 12.725C33.0905 12.3084 32.9668 11.8361 32.6182 11.5535L29.4792 9.0086L28.844 5.01381C28.7738 4.57247 28.4274 4.22805 27.986 4.15793L23.991 3.52273L21.4481 0.381759C21.1676 0.0332201 20.685 -0.0905213 20.2787 0.0682802L16.5003 1.51812L12.7239 0.0703426C12.3053 -0.0905213 11.8371 0.0373449 11.5545 0.383821L9.00949 3.52479L5.01455 4.16C4.57525 4.23012 4.22876 4.57659 4.15863 5.01588L3.5234 9.01066L0.38231 11.5556C0.0358202 11.8361 -0.0899885 12.3084 0.0688192 12.725L1.51665 16.5011L0.0688192 20.2773C-0.092051 20.6939 0.0358202 21.1662 0.38231 21.4467L3.5234 23.9896L4.15863 27.9843C4.22876 28.4257 4.57318 28.7722 5.01455 28.8423L9.00949 29.4775L11.5545 32.6164C11.8371 32.967 12.3094 33.0907 12.726 32.9299L16.5003 31.4842L20.2766 32.9319C20.3962 32.9773 20.52 33 20.6458 33C20.9489 33 21.248 32.866 21.4481 32.6164L23.991 29.4775L27.986 28.8423C28.4274 28.7722 28.7738 28.4257 28.844 27.9843L29.4792 23.9896L32.6182 21.4467C32.9668 21.1641 33.0905 20.6939 32.9317 20.2773L31.4839 16.5011Z" fill="url(#paint0_linear_3206_1833)"/>
<defs>
<linearGradient id="paint0_linear_3206_1833" x1="25.068" y1="1.88369" x2="-12.348" y2="45.7827" gradientUnits="userSpaceOnUse">
<stop stop-color="#EE0033"/>
</linearGradient>
</defs>
</svg>
