<svg xmlns="http://www.w3.org/2000/svg" width="18" height="18" viewBox="0 0 18 18" fill="none">
    <path d="M8.99976 2.81168C7.77599 2.81168 6.5797 3.17457 5.56217 3.85446C4.54464 4.53435 3.75157 5.5007 3.28325 6.63132C2.81494 7.76194 2.6924 9.00604 2.93115 10.2063C3.1699 11.4066 3.7592 12.5091 4.62454 13.3744C5.48987 14.2397 6.59238 14.829 7.79264 15.0678C8.9929 15.3065 10.237 15.184 11.3676 14.7157C12.4982 14.2474 13.4646 13.4543 14.1445 12.4368C14.8244 11.4192 15.1873 10.2229 15.1873 8.99918C15.1873 7.35815 14.5354 5.78433 13.375 4.62395C12.2146 3.46357 10.6408 2.81168 8.99976 2.81168Z" stroke="black" stroke-width="1.00189" stroke-miterlimit="10" />
    <path d="M7.03076 7.11106C7.03076 7.11106 7.0603 6.49573 7.71887 5.96585C8.10951 5.65116 8.57786 5.56009 8.99979 5.55376C9.38411 5.54884 9.72728 5.61248 9.93262 5.71023C10.2842 5.8776 10.9688 6.28617 10.9688 7.15501C10.9688 8.0692 10.3711 8.48446 9.69001 8.9412C9.00894 9.39795 8.82399 9.89372 8.82399 10.406" stroke="black" stroke-width="1.00189" stroke-miterlimit="10" stroke-linecap="round" />
    <path d="M8.79294 12.9441C9.18314 12.9441 9.49945 12.6278 9.49945 12.2376C9.49945 11.8474 9.18314 11.5311 8.79294 11.5311C8.40274 11.5311 8.08643 11.8474 8.08643 12.2376C8.08643 12.6278 8.40274 12.9441 8.79294 12.9441Z" fill="black" />
</svg>