<svg xmlns="http://www.w3.org/2000/svg" width="24" height="24" viewBox="0 0 24 24">
    <g fill="none" fill-rule="evenodd">
        <path fill="#000" fill-rule="nonzero" d="M20.5 17.078c-.104 0-.207.007-.308.019-.793-1.243-2.15-2.004-3.602-2.004-2.254 0-4.11 1.765-4.293 4.003a2.377 2.377 0 0 0-1.97 2.351c0 1.314 1.055 2.383 2.352 2.383h7.822c1.835 0 3.33-1.514 3.33-3.376 0-1.86-1.494-3.376-3.33-3.376zm0 5.958h-7.82c-.86 0-1.558-.712-1.558-1.589 0-.876.698-1.588 1.557-1.588.22 0 .398-.178.398-.397 0-1.971 1.576-3.575 3.513-3.575 1.254 0 2.423.703 3.049 1.834a.397.397 0 0 0 .418.199 2.42 2.42 0 0 1 .444-.047c1.398 0 2.535 1.158 2.535 2.581 0 1.424-1.137 2.582-2.535 2.582zm-.244-9.532a.397.397 0 0 0 0-.794h-7.944a.397.397 0 0 0 0 .794h7.944zm0-7.15h-7.944a.397.397 0 0 0 0 .795h7.944a.397.397 0 0 0 0-.794zM2.383 20.257a1.193 1.193 0 0 0 2.383 0c0-.657-.535-1.192-1.191-1.192-.657 0-1.192.535-1.192 1.192zm1.589 0a.397.397 0 1 1-.795 0 .397.397 0 0 1 .795 0zM2.383 13.9a1.193 1.193 0 0 0 2.383 0c0-.657-.535-1.191-1.191-1.191-.657 0-1.192.534-1.192 1.191zm1.589 0a.397.397 0 1 1-.795 0 .397.397 0 0 1 .795 0zm19.45-8.823a.393.393 0 0 0-.073-.162L20.172.904A2.37 2.37 0 0 0 18.303 0H5.363c-.746 0-1.46.357-1.907.953L.477 4.925a.388.388 0 0 0-.068.154 2.44 2.44 0 0 0-.408 1.35v2.235c0 .864.45 1.622 1.127 2.06A2.454 2.454 0 0 0 0 12.784v2.235c0 .864.45 1.622 1.127 2.06A2.453 2.453 0 0 0 0 19.14v2.235a2.46 2.46 0 0 0 2.457 2.456h7.329a.397.397 0 0 0 0-.794h-7.33a1.665 1.665 0 0 1-1.662-1.662v-2.235c0-.917.746-1.663 1.663-1.663h9.164a.397.397 0 1 0 0-.795H2.456A1.665 1.665 0 0 1 .794 15.02v-2.235c0-.916.745-1.662 1.662-1.662h18.916c.917 0 1.663.746 1.663 1.662v2.235c0 .462-.186.891-.522 1.209a.397.397 0 1 0 .546.577c.49-.462.77-1.113.77-1.786v-2.235a2.45 2.45 0 0 0-1.127-2.06 2.454 2.454 0 0 0 1.128-2.06V6.429c0-.498-.151-.962-.408-1.35zM4.091 1.43A1.597 1.597 0 0 1 5.36.794h12.942c.488 0 .942.22 1.245.602l2.058 2.6c-.078-.007-.153-.023-.232-.023H2.458c-.102 0-.199.018-.297.03l1.93-2.574zm18.944 7.234c0 .917-.746 1.663-1.662 1.663H2.457A1.665 1.665 0 0 1 .794 8.663V6.43c0-.917.746-1.663 1.663-1.663h18.916c.916 0 1.662.746 1.662 1.663v2.234zm-2.78-.72h-7.943a.397.397 0 0 0 0 .795h7.944a.397.397 0 0 0 0-.795zM3.576 6.355c-.657 0-1.192.534-1.192 1.191s.535 1.192 1.192 1.192a1.193 1.193 0 0 0 0-2.383zm0 1.588a.397.397 0 1 1 0-.794.397.397 0 0 1 0 .794z"/>
        <path fill="#0DABA0" d="M20.5 23.036h-7.82c-.86 0-1.558-.712-1.558-1.589 0-.876.698-1.588 1.557-1.588.22 0 .398-.178.398-.397 0-1.971 1.576-3.575 3.513-3.575 1.254 0 2.423.703 3.049 1.834a.397.397 0 0 0 .418.199 2.42 2.42 0 0 1 .444-.047c1.398 0 2.535 1.158 2.535 2.581 0 1.424-1.137 2.582-2.535 2.582z"/>
    </g>
</svg>
