<svg xmlns="http://www.w3.org/2000/svg" width="24" height="24" viewBox="0 0 24 24">
    <g fill="none" fill-rule="evenodd">
        <path fill="#353638" fill-rule="nonzero" d="M16.264 22.46v-2.532a.566.566 0 0 1 1.132 0v3.098a.566.566 0 0 1-.566.565H.566A.566.566 0 0 1 0 23.026V6.762a.57.57 0 0 1 .043-.216.314.314 0 0 1 .049-.082l.002-.003.007-.01.007-.012a.32.32 0 0 1 .057-.078L6.363.163A.448.448 0 0 1 6.467.09l.004-.003.005-.002a.263.263 0 0 1 .068-.041A.576.576 0 0 1 6.762 0H16.83c.312 0 .566.253.566.566v11.617a.566.566 0 0 1-1.132 0V1.132H7.328v5.63a.566.566 0 0 1-.566.566h-5.63V22.46h15.132zm-.763-8.838a.566.566 0 1 1 1.11.222l-.774 3.872a.566.566 0 0 1-1.062.142l-1.043-2.085-1.043 2.085a.566.566 0 1 1-1.061-.142l-.775-3.872a.564.564 0 0 1 .441-.665.57.57 0 0 1 .67.443l.45 2.255.812-1.623c.198-.394.815-.394 1.013 0l.811 1.623.451-2.255zm8.08.222l-.774 3.872a.566.566 0 0 1-1.062.142l-1.043-2.085-1.043 2.085a.566.566 0 1 1-1.061-.142l-.775-3.872a.564.564 0 0 1 .442-.665c.3-.066.606.136.668.443l.451 2.255.812-1.623c.198-.394.815-.394 1.013 0l.812 1.623.45-2.256a.566.566 0 1 1 1.11.222zm-15.05-.222a.566.566 0 1 1 1.11.222l-.774 3.872a.566.566 0 0 1-1.062.142l-1.043-2.085-1.044 2.085a.566.566 0 1 1-1.061-.142l-.774-3.872a.564.564 0 0 1 .441-.665c.3-.066.607.136.669.443l.45 2.255.813-1.623c.197-.394.815-.394 1.013 0l.811 1.623.451-2.255z"/>
        <path fill="#0DABA0" d="M6.233 1.695v4.46h-4.46"/>
    </g>
</svg>
