<svg xmlns="http://www.w3.org/2000/svg" width="24" height="24" viewBox="0 0 24 24">
    <g fill="none" fill-rule="evenodd">
        <path fill="#0DABA0" d="M4.134.89h15.412v5.623H4.134z"/>
        <path fill="#353638" fill-rule="nonzero" d="M.471 22.647a.472.472 0 0 1 0-.943h9.914l.043-.03a1.5 1.5 0 0 1 .91-.91l.03-.044v-1.128l-.044-.045H4.606c-.83 0-1.505-.676-1.505-1.505v-4.135c0-.373.14-.725.391-1.003v-.06a1.49 1.49 0 0 1-.391-1.004V7.706c0-.374.14-.725.391-1.003v-.06a1.49 1.49 0 0 1-.391-1.004V1.505C3.1.675 3.776 0 4.606 0h14.47c.829 0 1.504.675 1.504 1.505v4.134c0 .374-.14.726-.391 1.003v.061c.25.278.391.63.391 1.003v4.134c0 .374-.14.726-.391 1.004v.06c.25.278.391.63.391 1.003v4.135c0 .83-.675 1.505-1.505 1.505h-6.718l-.045.045v1.128l.03.043a1.5 1.5 0 0 1 .91.911l.044.03h9.913a.472.472 0 0 1 0 .943h-9.913l-.043.03a1.502 1.502 0 0 1-1.413 1.004c-.639 0-1.2-.407-1.412-1.004l-.043-.03H.471zM4.134 11.84c0 .26.212.472.472.472h14.47c.259 0 .47-.212.47-.472V7.706a.472.472 0 0 0-.47-.471H4.605a.472.472 0 0 0-.472.471v4.134zm0-10.335v4.134c0 .26.212.472.472.472h14.47c.259 0 .47-.212.47-.472V1.505a.472.472 0 0 0-.47-.471H4.605a.472.472 0 0 0-.472.471zm0 16.537c0 .26.212.471.472.471h14.47c.259 0 .47-.212.47-.471v-4.135a.472.472 0 0 0-.47-.471H4.605a.472.472 0 0 0-.472.471v4.135zm7.706 3.662a.472.472 0 0 0 0 .943.472.472 0 0 0 0-.943zM5.64 5.077c.26 0 .47-.211.47-.471V2.539a.472.472 0 0 0-.942 0v2.067c0 .26.21.471.471.471zm0 3.191a.472.472 0 0 0-.472.472v2.067a.472.472 0 0 0 .943 0V8.74a.472.472 0 0 0-.472-.472zm0 6.201a.472.472 0 0 0-.472.472v2.067a.472.472 0 0 0 .943 0v-2.067a.472.472 0 0 0-.472-.472zM18.041 4.044a.468.468 0 0 0 .471-.471.496.496 0 0 0-.14-.34.485.485 0 0 0-.67.008.481.481 0 0 0 .006.67.494.494 0 0 0 .333.133zm-2.067 0c.127 0 .247-.05.331-.144a.457.457 0 0 0-.003-.659.475.475 0 0 0-.667 0 .49.49 0 0 0-.133.331c0 .127.05.247.142.331.082.09.203.14.33.14zm-2.068 0a.468.468 0 0 0 .471-.471.496.496 0 0 0-.14-.34.485.485 0 0 0-.669.008.482.482 0 0 0 .007.671.475.475 0 0 0 .331.132zm3.663 5.73c0 .125.05.247.139.338a.475.475 0 0 0 .672-.009.468.468 0 0 0-.01-.66.476.476 0 0 0-.669 0 .49.49 0 0 0-.132.33zm-2.067 0a.46.46 0 0 0 .142.33c.082.09.203.14.33.14a.468.468 0 0 0 .471-.471.479.479 0 0 0-.14-.339.486.486 0 0 0-.672.01.471.471 0 0 0-.131.33zm-2.067 0a.46.46 0 0 0 .142.33c.082.09.202.14.33.14a.468.468 0 0 0 .471-.471.479.479 0 0 0-.141-.339.486.486 0 0 0-.671.01.471.471 0 0 0-.131.33zm4.606 6.672c.127 0 .247-.05.331-.143a.44.44 0 0 0 .14-.328.442.442 0 0 0-.143-.331.475.475 0 0 0-.667 0 .49.49 0 0 0-.133.33c0 .127.05.248.142.332.082.09.203.14.33.14zm-2.067 0a.468.468 0 0 0 .471-.471.479.479 0 0 0-.141-.34.485.485 0 0 0-.669.008.481.481 0 0 0 .006.67.494.494 0 0 0 .333.133zm-2.068 0c.128 0 .247-.05.332-.143a.44.44 0 0 0 .14-.328.442.442 0 0 0-.143-.331c-.168-.178-.48-.178-.669 0a.471.471 0 0 0 .011.662c.082.09.202.14.33.14z"/>
    </g>
</svg>
