<svg xmlns="http://www.w3.org/2000/svg" width="22" height="24" viewBox="0 0 22 24">
    <g fill="none" fill-rule="evenodd">
        <path fill="#0DABA0" d="M14.53 10.635L12.915 8.74V7.592L11.81 6.164h-1.55l-1.258 1.61v1.15L7.39 10.47l-.404 3.44.804 3.103 1.213 1.342 1.957 1.013 2.564-1.299 1.006-2.374.344-2.168z"/>
        <path fill="#353638" fill-rule="nonzero" d="M8.597 8.486c-.103-.475-.01-.93.287-1.278l.85-1.094c-.004-.428-.046-.742-.15-.848-.041-.08-.078-.112-.123-.122a.297.297 0 0 0-.067-.004c-.263 0-.442-.176-.442-.433s.18-.432.442-.432c.341 0 .583.091.82.324.254.29.373.716.402 1.21h.691c.038-.464.158-.86.395-1.131.227-.297.462-.403.823-.403.262 0 .441.175.441.432s-.179.433-.441.433a.41.41 0 0 0-.106.008.197.197 0 0 0-.094.054c-.17.167-.229.569-.173.854l.88 1.15c.318.373.403.863.255 1.322l1.273 1.268a.14.14 0 0 1 .061.015c.041.02.067.058.053.076.123.12.177.195.253.396.037.098.071.214.103.35l2.013-.985c.173-.085.43-.01.615.175.086.17.01.421-.18.603l-2.314 1.133c.046.51.071 1.144.072 1.918h1.985c.263 0 .442.175.442.432s-.18.432-.442.432h-2.005a7.616 7.616 0 0 1-.42 2.03l1.913 1.874c.176.173.176.434.014.572 0 .082-.071.113-.185.122a1.13 1.13 0 0 1-.1.003.943.943 0 0 1-.164-.01.331.331 0 0 1-.184-.08l-1.667-1.633c-.816 1.541-2.157 2.49-3.464 2.49-1.316 0-2.67-.963-3.503-2.53l-1.692 1.638c0 .082-.071.113-.185.122a1.13 1.13 0 0 1-.1.003.943.943 0 0 1-.164-.01.331.331 0 0 1-.184-.08.414.414 0 0 1 0-.607l1.949-1.909a7.844 7.844 0 0 1-.44-1.995H4.697c-.263 0-.442-.175-.442-.432s.18-.432.442-.432h1.907c0-.809.027-1.468.074-1.993l-2.16-1.058c-.186-.091-.265-.351-.18-.603.101-.196.38-.257.538-.099l1.916.939c.101-.5.225-.705.41-.79.002 0 .01-.002.016-.005.009-.004.012-.009.027-.058l1.352-1.324zm-.734 2.007l-.039.038c-.03.03-.03.03-.03.026-.062.123-.126.34-.18.704-.081.529-.127 1.271-.127 2.265 0 2.736 1.358 4.917 3.03 5.271V9.741h-.34c-.455 0-.838-.157-1.142-.46l-1.172 1.212zm3.538 8.304c1.673-.354 3.03-2.535 3.03-5.271 0-.994-.046-1.736-.126-2.265-.055-.364-.118-.581-.172-.691L12.85 9.313c-.298.282-.67.428-1.108.428H11.4v9.056zm-.481 4.746c-.03 0-.03 0-.053-.002C5.737 22.044.34 18.051.34 14.446V3.787c0-.197.114-.354.35-.43L10.88.44h.078l.092.002L21.236 3.36c.191.094.34.264.34.427v10.659c0 3.605-5.395 7.598-10.539 9.097h-.117zM1.224 4.13v10.316c0 3.033 4.862 6.762 9.72 8.235 4.888-1.473 9.75-5.202 9.75-8.235V4.13l-9.72-2.826-9.75 2.826zm8.368 3.595c-.168.247-.208.522-.079.713.188.275.41.438.663.438h1.566c.293 0 .511-.143.66-.433.131-.258.1-.461-.075-.717l-.742-1.053h-1.15l-.843 1.052z"/>
    </g>
</svg>
