<svg xmlns="http://www.w3.org/2000/svg" width="24" height="24" viewBox="0 0 24 24">
    <g fill="none" fill-rule="evenodd">
        <path fill="#0DABA0" d="M6.462 15.692h16.615v7.385H6.462z"/>
        <path fill="#000" fill-rule="nonzero" d="M4.612 22.216c-2.28-.68-3.705-1.761-3.705-2.85v-3.182l.145.135c.74.693 1.86 1.278 3.298 1.71a.41.41 0 0 0 .237-.787c-2.265-.68-3.68-1.758-3.68-2.842v-3.195l.145.136c1.612 1.51 5 2.477 8.88 2.477 3.879 0 7.267-.967 8.879-2.477l.144-.136v2.202a.411.411 0 0 0 .822 0V4.47c0-2.44-4.32-4.383-9.846-4.383S.086 2.029.086 4.469v14.897c0 1.492 1.557 2.822 4.292 3.637a.409.409 0 0 0 .51-.276.41.41 0 0 0-.276-.511zM9.932.907c4.969 0 9.023 1.707 9.023 3.562 0 1.855-4.054 3.562-9.024 3.562-4.97 0-9.024-1.707-9.024-3.562C.907 2.614 4.962.907 9.931.907zM.906 6.24l.145.135c1.612 1.51 5 2.477 8.88 2.477 3.879 0 7.267-.967 8.879-2.477l.144-.135v3.195c0 1.854-4.054 3.561-9.024 3.561-4.97 0-9.024-1.707-9.024-3.561V6.24zM23.75 16.387c0-.774-.63-1.404-1.404-1.404H7.448c-.774 0-1.404.63-1.404 1.404v1.986c0 .348.132.677.366.936v.114a1.392 1.392 0 0 0-.366.936v1.986c0 .774.63 1.404 1.404 1.404h14.897c.774 0 1.404-.63 1.404-1.404V20.36c0-.348-.131-.677-.365-.936v-.114c.234-.26.365-.588.365-.936v-1.986zm-.821 5.958c0 .322-.261.583-.583.583H7.448a.582.582 0 0 1-.582-.583V20.36c0-.321.261-.582.582-.582h14.897c.322 0 .583.26.583.582v1.986zm0-3.972c0 .321-.261.582-.583.582H7.448a.582.582 0 0 1-.582-.582v-1.986c0-.322.261-.583.582-.583h14.897c.322 0 .583.261.583.583v1.986z"/>
        <path fill="#000" fill-rule="nonzero" d="M8.442 20.856a.497.497 0 1 0 0 .993.497.497 0 0 0 0-.993zM8.442 16.883a.497.497 0 1 0 0 .994.497.497 0 0 0 0-.994zM21.352 16.883H17.38c-.274 0-.497.207-.497.462 0 .254.223.461.497.461h3.972c.274 0 .497-.207.497-.461 0-.255-.223-.462-.497-.462zM21.352 20.856H17.38c-.274 0-.497.206-.497.461s.223.462.497.462h3.972c.274 0 .497-.207.497-.462s-.223-.461-.497-.461z"/>
    </g>
</svg>
