<svg xmlns="http://www.w3.org/2000/svg" width="40" height="40" viewBox="0 0 40 40">
    <g fill="none" fill-rule="nonzero">
        <path fill="#0DABA0" d="M16.842 9.825h6.667v2.807h-6.667zM15.439 23.158c-3.682 0-6.667.903-6.667 2.017v12.106c0 1.114 2.985 2.017 6.667 2.017s6.666-.903 6.666-2.017V25.175c0-1.114-2.984-2.017-6.666-2.017z"/>
        <ellipse cx="15.439" cy="25.088" fill="#0DABA0" rx="6.667" ry="1.93"/>
        <path fill="#0DABA0" d="M8.772 37.31c0 1.098 2.985 1.988 6.667 1.988s6.666-.89 6.666-1.988v-3.977c0 1.099-2.984 1.989-6.666 1.989-3.682 0-6.667-.89-6.667-1.989v3.977zM22.105 25.263c0 1.098-2.984 1.988-6.666 1.988-3.682 0-6.667-.89-6.667-1.988v3.977c0 1.098 2.985 1.988 6.667 1.988s6.666-.89 6.666-1.988v-3.977z"/>
        <path fill="#0DABA0" d="M30.75 33.333a4.645 4.645 0 0 0-.131-1.073l1.31-.761-1.317-2.296-1.31.761a4.586 4.586 0 0 0-1.845-1.075v-1.52h-2.634v1.52a4.586 4.586 0 0 0-1.844 1.075l-1.311-.761-1.317 2.296 1.31.761a4.525 4.525 0 0 0 0 2.146l-1.31.762 1.317 2.296 1.311-.762c.523.5 1.154.868 1.844 1.076v1.52h2.634v-1.52a4.586 4.586 0 0 0 1.844-1.076l1.312.762 1.317-2.296-1.311-.762c.085-.35.13-.711.131-1.073zm-4.61 1.989a1.982 1.982 0 0 1-1.975-1.989c0-1.098.884-1.988 1.975-1.988 1.092 0 1.976.89 1.976 1.988a1.982 1.982 0 0 1-1.976 1.989zM.702 7.368h11.93v2.807H.702z"/>
        <path fill="#0DABA0" d="M4.912 9.825h3.86v2.807h-3.86zM27.368.702h11.93v3.86h-11.93z"/>
        <path fill="#000" d="M30.971 28.362l-1.504.86a5.381 5.381 0 0 0-1.285-.737v-1.71H24.16v1.71c-.46.185-.893.432-1.285.734l-.056-.031v-3.736c0-1.817-3.821-2.645-7.374-2.645-3.554 0-7.375.828-7.375 2.645v11.903c0 1.817 3.821 2.645 7.375 2.645 3.382 0 7.002-.753 7.34-2.394l.09-.05c.392.302.824.549 1.285.733V40h4.022v-1.71c.46-.185.893-.432 1.285-.735l1.504.86 2.011-3.439-1.502-.855a4.961 4.961 0 0 0 0-1.464l1.502-.857-2.01-3.438zm-9.6 0l-.993 1.696c-1.596.489-3.262.72-4.933.684-3.923 0-5.933-.965-6.034-1.322V27.06l.03.013c.161.078.334.152.518.221.05.019.103.035.154.054a8.782 8.782 0 0 0 .66.204c.146.04.295.077.447.112l.22.05c.192.04.387.077.586.11l.113.02c.239.04.482.073.73.103l.215.022a18.16 18.16 0 0 0 .81.072c.18.012.36.023.542.03l.238.011a23.086 23.086 0 0 0 1.54 0l.239-.01a24.43 24.43 0 0 0 .803-.05c.185-.015.367-.033.55-.053l.214-.022c.248-.03.491-.064.73-.102l.113-.02c.2-.035.395-.072.586-.112a10.817 10.817 0 0 0 1.327-.366c.051-.018.105-.034.154-.053.184-.069.356-.143.518-.221l.03-.013v1.363l-.107-.062zm-5.926-4.232c.244 0 .48.004.71.01.081 0 .156.008.236.011.144.006.29.012.428.02.113.007.22.017.328.026l.292.023c.134.013.256.028.382.042.063.008.134.014.192.022.165.021.321.045.474.066l.054.008c1.86.305 2.838.832 2.934 1.089a.226.226 0 0 1-.017.033.286.286 0 0 1-.026.04c-.01.013-.025.025-.037.038-.012.012-.031.033-.053.05-.021.019-.034.026-.05.039-.018.012-.052.038-.083.058l-.067.04c-.036.02-.067.042-.112.065-.024.014-.055.027-.08.04-.046.023-.09.046-.142.066l-.095.04c-.055.023-.11.047-.171.07-.034.014-.074.027-.11.04-.067.024-.13.048-.201.071-.042.014-.089.027-.134.041-.073.023-.145.046-.223.066-.05.015-.106.028-.158.042-.08.021-.157.042-.242.063l-.187.041c-.084.02-.166.039-.254.057-.072.014-.15.027-.225.04-.087.017-.172.034-.263.048-.092.015-.176.026-.264.04-.088.012-.174.026-.268.038-.094.012-.201.023-.304.035l-.273.03-.354.028c-.09.006-.175.015-.268.021-.15.01-.307.015-.464.021-.067 0-.134.007-.2.01a21.982 21.982 0 0 1-2.092-.032c-3.004-.189-4.553-.962-4.651-1.277.127-.364 2.135-1.32 6.038-1.32zM9.41 31.025c1.426.71 3.782 1.04 6.034 1.04a19.995 19.995 0 0 0 3.978-.373l-.063.108 1.502.855a5.05 5.05 0 0 0-.054.732c0 .15.02.302.033.453-1.721.645-3.556.94-5.396.87-3.923 0-5.933-.966-6.034-1.323v-2.362zm0 6.33v-2.359c1.427.706 3.785 1.036 6.034 1.036a19.313 19.313 0 0 0 4.274-.443l1.26 2.152c-.826.42-2.667.936-5.534.936-3.923 0-5.933-.965-6.034-1.322zm20.67-4.886a3.78 3.78 0 0 1 0 1.837l-.115.479 1.185.675-.67 1.145-1.186-.675-.364.337a4.045 4.045 0 0 1-1.609.921l-.48.14v1.35H25.5v-1.35l-.48-.14a4.045 4.045 0 0 1-1.609-.92l-.363-.338-1.186.675-.67-1.145 1.185-.675-.115-.48a3.78 3.78 0 0 1 0-1.836l.115-.479-1.185-.675.67-1.145 1.186.675.363-.338a4.045 4.045 0 0 1 1.61-.92l.479-.14v-1.35h1.34v1.35l.48.14c.602.178 1.153.494 1.609.92l.363.338 1.186-.675.67 1.145-1.183.675.114.479z"/>
        <path fill="#000" d="M26.14 30.877a2.632 2.632 0 1 0 0 5.263 2.632 2.632 0 0 0 0-5.263zm0 3.948a1.316 1.316 0 1 1 0-2.632 1.316 1.316 0 0 1 0 2.632zM24.21 0h-8.07v13.333h8.07V0zm-1.345 1.333v8h-5.38v-8h5.38zM20.175 12h-2.69v-1.333h5.38V12h-2.69z"/>
        <path fill="#000" d="M20.702 11.403a.553.553 0 0 0-.153-.373.536.536 0 0 0-.479-.142.335.335 0 0 0-.095.031.412.412 0 0 0-.095.047.895.895 0 0 0-.078.064.526.526 0 1 0 .9.374zM7.302 14.737H5.965v4h13.367v2.667h1.336v-2.667h13.367v-4h-1.337v2.667h-12.03v-2.667h-1.336v2.667H7.302zM4 12H2.667v1.333h8V12H9.333v-1.333h4V0H0v10.667h4V12zm4 0H5.333v-1.333H8V12zM1.333 1.333H12v5.334H1.333V1.333zm0 8V8H12v1.333H1.333zM26.667 13.333H40V0H26.667v13.333zm12-1.333H28V5.333h10.667V12zM28 1.333h10.667V4H28V1.333z"/>
        <path fill="#000" d="M29.588 2.194a.299.299 0 0 0-.09-.047.526.526 0 0 0-.574.11.543.543 0 0 0-.11.174.521.521 0 0 0 .11.574c.052.047.11.084.174.11a.495.495 0 0 0 .4 0 .615.615 0 0 0 .173-.11.523.523 0 0 0 .154-.374.553.553 0 0 0-.153-.373.526.526 0 0 0-.084-.064zM31.777 2.252a.548.548 0 0 0-.747 0 .547.547 0 0 0-.11.175.533.533 0 0 0-.043.201.446.446 0 0 0 .042.202.62.62 0 0 0 .111.174c.15.152.378.196.574.112a.615.615 0 0 0 .173-.112.62.62 0 0 0 .11-.174.502.502 0 0 0 0-.403.612.612 0 0 0-.11-.175zM33.882 2.258a.615.615 0 0 0-.173-.11.5.5 0 0 0-.4 0 .412.412 0 0 0-.096.047.49.49 0 0 0-.189.237.496.496 0 0 0 0 .4.615.615 0 0 0 .111.173c.051.047.11.084.174.11a.526.526 0 0 0 .2.043.544.544 0 0 0 .373-.153.615.615 0 0 0 .111-.173.495.495 0 0 0 0-.4.49.49 0 0 0-.11-.174z"/>
    </g>
</svg>
