<svg xmlns="http://www.w3.org/2000/svg" width="40" height="40" viewBox="0 0 40 40">
    <g fill="none" fill-rule="evenodd">
        <path fill="#0DABA0" d="M8.155 22.25v-4.632l4.73-4.548h4.74l4.875 4.59v4.59z"/>
        <path fill="#000" fill-rule="nonzero" d="M18.756 12.494a4.651 4.651 0 0 0 1.2-3.121 4.67 4.67 0 0 0-4.662-4.667 4.747 4.747 0 0 0-3.322 1.354 4.576 4.576 0 0 0-.172 6.45c-2.692 1.305-4.741 4.146-4.741 7.52v2.333c0 .644.522 1.166 1.165 1.166h14.14c.644 0 1.165-.522 1.165-1.166v-2.334c0-3.354-2.036-6.222-4.773-7.535zM15.294 7.04a2.335 2.335 0 0 1 2.33 2.334 2.335 2.335 0 0 1-2.33 2.333c-1.305 0-2.408-1.068-2.408-2.333 0-1.265 1.103-2.334 2.408-2.334zM21.2 21.196H9.389v-1.167c0-3.246 2.705-5.99 5.905-5.99s5.905 2.744 5.905 5.99v1.167z"/>
        <circle cx="30.5" cy="30.5" r="8" fill="#0DABA0"/>
        <path fill="#000" fill-rule="nonzero" d="M30.625 21.25V1.172C30.625.525 30.1 0 29.453 0H9.173c-.938 0-1.821.366-2.485 1.03L1.03 6.688A3.493 3.493 0 0 0 0 9.174v27.31c0 .648.525 1.172 1.172 1.172h23.26A9.336 9.336 0 0 0 30.624 40C35.795 40 40 35.794 40 30.625c0-5.17-4.206-9.375-9.375-9.375zM7.031 4.001v3.03h-3.03l3.03-3.03zM2.344 35.312V9.375h5.86c.646 0 1.171-.525 1.171-1.172v-5.86h18.906v19.204a9.413 9.413 0 0 0-5.775 4.395c-.028-.002-.056-.005-.084-.005H8.203c-.647 0-1.172.525-1.172 1.172 0 .648.525 1.164 1.172 1.164h13.344a9.421 9.421 0 0 0-.297 2.352H8.203a1.172 1.172 0 0 0 0 2.344h13.344c.214.831.54 1.618.962 2.343H2.344zm28.281 2.344a7.04 7.04 0 0 1-7.031-7.031 7.04 7.04 0 0 1 7.031-7.031 7.04 7.04 0 0 1 7.031 7.031 7.04 7.04 0 0 1-7.031 7.031z"/>
        <path fill="#000" fill-rule="nonzero" d="M34.95 27.403a1.176 1.176 0 0 0-1.664 0l-3.874 3.874-1.521-1.52a1.176 1.176 0 1 0-1.664 1.663l2.353 2.353a1.173 1.173 0 0 0 1.664 0l4.706-4.706c.459-.46.459-1.204 0-1.664z"/>
    </g>
</svg>
