<svg xmlns="http://www.w3.org/2000/svg" width="40" height="38" viewBox="0 0 40 38">
    <g fill="none" fill-rule="nonzero">
        <ellipse cx="13.577" cy="12.028" fill="#0DABA0" rx="11.169" ry="11.208"/>
        <path fill="#000" d="M39.948 29.482c0-.025 0-.05-.008-.074a.24.24 0 0 0-.017-.073c-.008-.025-.008-.05-.016-.066a.245.245 0 0 0-.033-.065.245.245 0 0 0-.032-.065c-.008-.025-.025-.041-.04-.058-.017-.016-.025-.04-.042-.057-.016-.016-.032-.033-.057-.049l-.049-.049c-.016-.016-.04-.025-.065-.04-.016-.01-.032-.025-.057-.034l-8.986-4.447a.243.243 0 0 0-.081-.033c-.155-.057-3.861-1.357-6.892.009l-6.688 2.428c-.017.008-.041.016-.057.024a2.204 2.204 0 0 0-1.263 2.469c.203 1.03 1.034 1.758 2.077 1.807h.016c.066 0 .359-.017 3.406-.213a712.48 712.48 0 0 0 2.819-.18.74.74 0 0 0-.017-1.48c-.04 0-.04 0-2.892.18-1.425.09-3.022.197-3.291.213-.513-.04-.636-.474-.668-.605a.738.738 0 0 1 .407-.834l6.68-2.428a.396.396 0 0 1 .058-.024c2.346-1.071 5.409-.107 5.775.008l4 1.978-2.2 5.208a4.453 4.453 0 0 0-3.624-.483l-8.978 2.706a4.212 4.212 0 0 1-3.234-.335L1.838 27.176c-.505-.277-.342-.76-.302-.858.05-.13.261-.54.774-.4l10.925 3.654a.744.744 0 0 0 .937-.466.744.744 0 0 0-.465-.94L2.758 24.495c-.016-.008-.024-.008-.04-.008-1.084-.294-2.135.229-2.55 1.275-.424 1.055-.025 2.167.97 2.714l14.068 7.669a5.669 5.669 0 0 0 4.359.45l8.977-2.707a2.942 2.942 0 0 1 2.436.335l4.579 2.894c.024.017.04.025.065.033.008 0 .008.008.016.008h.008c.008.008.017.008.033.008.016.009.04.017.057.025.008 0 .024.008.032.008.017.008.041.008.057.017.009 0 .025 0 .033.008.033 0 .057.008.09.008.032 0 .065 0 .097-.008.009 0 .025 0 .033-.008.024 0 .04-.009.065-.017.008 0 .025-.008.033-.008.016-.008.04-.016.057-.025.008-.008.024-.008.032-.016a.467.467 0 0 0 .057-.033.062.062 0 0 1 .033-.016c.016-.008.033-.024.049-.033.008-.008.024-.016.032-.024l.041-.041.033-.033c.016-.016.024-.032.032-.049.009-.008.017-.024.025-.032 0 0 0-.009.008-.009 0-.008.008-.016.008-.016.008-.016.025-.04.033-.065l3.258-6.966c.009-.024.017-.04.025-.065s.016-.05.024-.065c.008-.025.008-.05.008-.074 0-.025.009-.049.009-.074.008-.024.008-.049.008-.073zm-1.711.376l-2.599 5.55-2.631-1.667 2.256-5.346 2.974 1.463zM12.534 12.772h2.07c.847 0 1.531.687 1.531 1.537 0 .85-.684 1.537-1.531 1.537H10.88a.745.745 0 0 0-.74.744c0 .408.333.744.74.744h1.948v1.463c0 .409.334.744.74.744a.745.745 0 0 0 .742-.744v-1.463h.302a3.023 3.023 0 0 0 3.014-3.025 3.023 3.023 0 0 0-3.014-3.025h-2.07a1.532 1.532 0 0 1-1.531-1.537c0-.85.684-1.537 1.531-1.537H16.2a.745.745 0 0 0 .742-.744.745.745 0 0 0-.742-.744h-1.882v-1.43a.745.745 0 0 0-.741-.744.745.745 0 0 0-.741.744V6.73h-.302A3.023 3.023 0 0 0 9.52 9.755c.008 1.66 1.36 3.017 3.014 3.017z"/>
        <path fill="#000" d="M13.577 23.972c6.566 0 11.902-5.363 11.902-11.944S20.135.076 13.577.076c-6.558 0-11.91 5.363-11.91 11.952 0 6.59 5.344 11.944 11.91 11.944zm0-22.408c5.752 0 10.428 4.692 10.428 10.464s-4.676 10.464-10.428 10.464c-5.752 0-10.428-4.692-10.428-10.464S7.825 1.564 13.577 1.564z"/>
    </g>
</svg>
