<svg xmlns="http://www.w3.org/2000/svg" width="40" height="38" viewBox="0 0 40 38">
    <g fill="none" fill-rule="nonzero">
        <path fill="#0DABA0" d="M20 17.977a2.376 2.376 0 0 1-1.595-.618 2.371 2.371 0 0 1-2.947-1.221 2.37 2.37 0 0 1-2.255-2.256 2.373 2.373 0 0 1-1.182-1.236 2.373 2.373 0 0 1-.04-1.71 2.376 2.376 0 0 1-.617-1.596c0-.592.221-1.156.617-1.595a2.371 2.371 0 0 1 1.221-2.947 2.37 2.37 0 0 1 2.256-2.255 2.368 2.368 0 0 1 2.947-1.221A2.376 2.376 0 0 1 20 .704c.592 0 1.156.221 1.595.617a2.368 2.368 0 0 1 2.947 1.221 2.37 2.37 0 0 1 2.255 2.256c.534.253.955.69 1.182 1.237.227.548.238 1.154.04 1.71.396.439.617 1.003.617 1.595 0 .592-.221 1.156-.617 1.595a2.371 2.371 0 0 1-1.221 2.947 2.37 2.37 0 0 1-2.256 2.255c-.253.534-.69.955-1.237 1.182a2.373 2.373 0 0 1-1.71.04 2.376 2.376 0 0 1-1.595.618z"/>
        <path fill="#000" d="M20 18.372c4.98 0 9.032-4.051 9.032-9.032 0-4.98-4.051-9.032-9.032-9.032-4.98 0-9.032 4.052-9.032 9.032s4.051 9.032 9.032 9.032zm0-16.774c4.269 0 7.742 3.473 7.742 7.742 0 4.27-3.473 7.742-7.742 7.742s-7.742-3.473-7.742-7.742S15.731 1.598 20 1.598z"/>
        <path fill="#000" d="M24.328 5.639l-7.742 7.742-.913-.912 7.742-7.742zM12.258 23.534h-1.935V29.985h1.935a1.938 1.938 0 0 0 1.936-1.935c0-.498-.195-.947-.504-1.29a1.92 1.92 0 0 0 .504-1.29 1.938 1.938 0 0 0-1.936-1.936zm-.645 1.29h.645a.646.646 0 0 1 0 1.29h-.645v-1.29zm.645 3.871h-.645v-1.29h.645a.646.646 0 0 1 0 1.29zM15.484 29.985h3.226v-1.29h-1.936v-1.29h1.29v-1.29h-1.29v-1.291h1.936v-1.29h-3.226zM21.935 24.824c.356 0 .646.29.646.645h1.29a1.938 1.938 0 0 0-1.936-1.935A1.938 1.938 0 0 0 20 25.469c0 1.067.868 1.936 1.935 1.936a.646.646 0 1 1-.645.645H20c0 1.067.868 1.935 1.935 1.935a1.938 1.938 0 0 0 1.936-1.935 1.938 1.938 0 0 0-1.936-1.936.646.646 0 0 1 0-1.29zM29.677 23.534h-5.16v1.29h1.935v5.161h1.29v-5.161h1.935z"/>
        <path fill="#000" d="M40 26.114h-7.742v-5.16H7.742v5.16H0l4.355 5.807L0 37.727h15.484v-5.161h9.032v5.161H40l-4.355-5.806L40 26.114zM5.968 31.921L2.58 27.405h5.16v4.825L13 36.437H2.581l3.387-4.516zm8.226 3.819l-3.968-3.174h3.968v3.174zm-5.162-4.464v-9.033h21.936v9.033H9.032zm20.742 1.29l-3.968 3.174v-3.174h3.968zm7.645 3.871H27.001l5.257-4.207v-4.825h5.161l-3.387 4.516 3.387 4.516zM22.58 9.701a1.938 1.938 0 0 0-1.935 1.936c0 1.067.869 1.935 1.936 1.935a1.938 1.938 0 0 0 1.935-1.935 1.938 1.938 0 0 0-1.935-1.936zm0 2.581a.646.646 0 1 1 .002-1.292.646.646 0 0 1-.001 1.292zM17.42 8.411a1.938 1.938 0 0 0 1.935-1.935 1.938 1.938 0 0 0-1.936-1.936 1.938 1.938 0 0 0-1.935 1.936c0 1.067.868 1.935 1.935 1.935zm0-2.58a.646.646 0 1 1-.002 1.291.646.646 0 0 1 .001-1.292z"/>
    </g>
</svg>
