<svg xmlns="http://www.w3.org/2000/svg" width="40" height="40" viewBox="0 0 40 40">
    <g fill="none" fill-rule="nonzero">
        <path fill="#0DABA0" d="M14.643 15.833v-3.928c0-1.447 1.2-2.62 2.678-2.62a6.112 6.112 0 0 0 5.358 0c1.479 0 2.678 1.173 2.678 2.62v3.928c0 .724-.6 1.31-1.34 1.31h-8.035c-.74 0-1.34-.586-1.34-1.31z"/>
        <g fill="#222">
            <path d="M4.608 20.538a.664.664 0 0 1-.664-.663 15.915 15.915 0 0 1 9.7-14.665.664.664 0 0 1 .521 1.221 14.59 14.59 0 0 0-8.893 13.444.664.664 0 0 1-.664.663zM35.154 20.538a.664.664 0 0 1-.664-.663A14.59 14.59 0 0 0 25.597 6.43a.664.664 0 1 1 .521-1.221 15.915 15.915 0 0 1 9.7 14.665.664.664 0 0 1-.664.663zM19.881 35.805a15.857 15.857 0 0 1-6.236-1.266.664.664 0 1 1 .52-1.221 14.734 14.734 0 0 0 11.432 0 .664.664 0 0 1 .52 1.221 15.857 15.857 0 0 1-6.236 1.266z"/>
            <path d="M15.233 37.133a.663.663 0 0 1-.59-.357l-1.328-2.54a.663.663 0 0 1 .403-.945l2.656-.778a.664.664 0 0 1 .373 1.274l-1.88.551.954 1.824a.663.663 0 0 1-.588.97zM35.154 20.538a.663.663 0 0 1-.47-.194l-1.991-1.991a.663.663 0 0 1 .939-.939l1.522 1.522 1.523-1.522a.664.664 0 0 1 .939.939l-1.992 1.99a.663.663 0 0 1-.47.195zM12.577 9.254a.664.664 0 0 1-.598-.952l1.035-2.16-2.04-.929a.664.664 0 0 1 .55-1.206l2.657 1.212a.664.664 0 0 1 .325.881l-.004.008-1.328 2.77a.664.664 0 0 1-.597.376z"/>
        </g>
        <path fill="#0DABA0" d="M.714 37.976v-3.928c0-1.447 1.2-2.62 2.679-2.62a6.112 6.112 0 0 0 5.357 0c1.48 0 2.679 1.173 2.679 2.62v3.928c0 .724-.6 1.31-1.34 1.31H2.054c-.74 0-1.34-.586-1.34-1.31zM28.571 37.976v-3.928c0-1.447 1.2-2.62 2.679-2.62a6.112 6.112 0 0 0 5.357 0c1.48 0 2.679 1.173 2.679 2.62v3.928c0 .724-.6 1.31-1.34 1.31h-8.035c-.74 0-1.34-.586-1.34-1.31z"/>
        <path fill="#000" d="M23.929 3.929a3.928 3.928 0 1 0-7.857 0 3.928 3.928 0 0 0 7.857 0zm-6.548 0a2.62 2.62 0 1 1 5.238 0 2.62 2.62 0 0 1-5.238 0zM13.929 11.888v3.98c0 1.098.906 1.99 2.023 1.99h8.096c1.117 0 2.023-.892 2.023-1.99v-3.98c-.002-1.83-1.51-3.315-3.373-3.317h-.159l-.142.07a5.46 5.46 0 0 1-4.794 0l-.142-.07h-.16c-1.861.002-3.37 1.486-3.372 3.317zm1.349 0c0-1.044.82-1.91 1.88-1.985a6.856 6.856 0 0 0 5.684 0c1.06.075 1.88.94 1.88 1.985v3.98a.67.67 0 0 1-.674.663h-8.096a.67.67 0 0 1-.674-.664v-3.98zM33.929 22.143a3.928 3.928 0 1 0 0 7.857 3.928 3.928 0 0 0 0-7.857zm0 6.547a2.62 2.62 0 1 1 0-5.238 2.62 2.62 0 0 1 0 5.238zM36.627 30.714h-.16l-.141.067a5.46 5.46 0 0 1-4.794 0l-.143-.067h-.159c-1.862.002-3.37 1.486-3.373 3.317v3.98c0 1.098.906 1.989 2.024 1.989h8.095C39.094 40 40 39.11 40 38.01v-3.98c-.002-1.83-1.511-3.314-3.373-3.316zm2.024 7.296a.67.67 0 0 1-.675.663h-8.095a.67.67 0 0 1-.674-.663v-3.98c0-1.043.82-1.91 1.88-1.984a6.856 6.856 0 0 0 5.684 0c1.059.074 1.88.94 1.88 1.985v3.98zM6.071 22.143a3.928 3.928 0 1 0 0 7.857 3.928 3.928 0 0 0 0-7.857zm0 6.547a2.62 2.62 0 1 1 0-5.238 2.62 2.62 0 0 1 0 5.238zM2.024 40h8.095c1.118 0 2.024-.89 2.024-1.99v-3.98c-.002-1.83-1.511-3.314-3.373-3.316h-.16l-.142.067a5.46 5.46 0 0 1-4.794 0l-.142-.067h-.16C1.513 30.716.003 32.2 0 34.031v3.98C0 39.108.906 40 2.024 40zm-.675-5.97c0-1.043.821-1.91 1.88-1.984a6.856 6.856 0 0 0 5.685 0c1.059.074 1.88.94 1.88 1.985v3.98a.67.67 0 0 1-.675.662H2.024a.67.67 0 0 1-.675-.663v-3.98z"/>
    </g>
</svg>
