<?xml version="1.0" encoding="UTF-8"?>
<svg width="38px" height="38px" viewBox="0 0 38 38" version="1.1" xmlns="http://www.w3.org/2000/svg" xmlns:xlink="http://www.w3.org/1999/xlink">
    <!-- Generator: Sketch 54.1 (76490) - https://sketchapp.com -->
    <title>feature_icn_6</title>
    <desc>Created with Sketch.</desc>
    <g id="UI" stroke="none" stroke-width="1" fill="none" fill-rule="evenodd">
        <g id="DỊch-vụ-Cloud---Tính-năng" transform="translate(-782.000000, -966.000000)">
            <g id="feature_icn_6" transform="translate(783.000000, 966.731731)">
                <polygon id="Path-3" fill="#0DABA0" points="30.5 11.5 2.78466797 11.5 3.55883789 9.62064018 24.7473145 0.734897995 28.0070801 0.734897995 30.0625 2.69241753 30.5 4.25223198"></polygon>
                <path d="M30.66375,36.0481476 L5.41125,36.0481476 C2.52525,36.0481476 0,33.4026476 0,30.6368976 L0,15.6056476 C0,12.9601476 2.405,10.7956476 5.41125,10.7956476 L30.66375,10.7956476 C33.67,10.7956476 36.075,12.8398976 36.075,15.6056476 L36.075,30.6368976 C36.075,33.4026476 33.54975,36.0481476 30.66375,36.0481476 Z M5.41125,11.9981476 C3.367,11.9981476 1.2025,13.3208976 1.2025,15.6056476 L1.2025,30.5166476 C1.2025,32.8013976 3.24675,34.8456476 5.41125,34.8456476 L30.66375,34.8456476 C32.82825,34.8456476 34.8725,32.8013976 34.8725,30.6368976 L34.8725,15.6056476 C34.8725,13.3208976 32.708,11.9981476 30.66375,11.9981476 L5.41125,11.9981476 Z" id="Shape" stroke="#353638" stroke-width="0.7" fill="#353638" fill-rule="nonzero"></path>
                <path d="M35.47375,28.8331476 L29.46125,28.8331476 C26.57525,28.8331476 24.05,26.3078976 24.05,23.4218976 C24.05,20.5358976 26.57525,18.0106476 29.46125,18.0106476 L35.47375,18.0106476 C35.8345,18.0106476 36.075,18.2511476 36.075,18.6118976 L36.075,28.2318976 C36.075,28.4723976 35.8345,28.8331476 35.47375,28.8331476 Z M29.46125,19.2131476 C27.29675,19.2131476 25.2525,21.2573976 25.2525,23.4218976 C25.2525,25.5863976 27.29675,27.6306476 29.46125,27.6306476 L34.8725,27.6306476 L34.8725,19.2131476 L29.46125,19.2131476 Z" id="Shape" stroke="#353638" stroke-width="0.7" fill="#353638" fill-rule="nonzero"></path>
                <path d="M0.60125,16.2068976 C0.2405,16.2068976 0,15.9663976 0,15.6056476 C0,12.7196476 1.80375,10.1943976 4.5695,8.99189761 L23.8095,0.574397609 C25.61325,-0.267352391 27.53725,-0.147102391 28.98025,0.694647609 C30.42325,1.65664761 31.265,3.34014761 31.265,5.38439761 L31.265,11.3968976 C31.265,11.7576476 31.0245,11.9981476 30.66375,11.9981476 C30.303,11.9981476 30.0625,11.6373976 30.0625,11.3968976 L30.0625,5.38439761 C30.0625,3.82114761 29.46125,2.49839761 28.25875,1.77689761 C27.1765,1.05539761 25.7335,1.05539761 24.2905,1.65664761 L5.0505,10.0741476 C2.6455,11.1563976 1.2025,13.2006476 1.2025,15.6056476 C1.2025,15.9663976 0.962,16.2068976 0.60125,16.2068976 Z" id="Path" stroke="#353638" stroke-width="0.7" fill="#353638" fill-rule="nonzero"></path>
                <path d="M13.82875,11.9981476 C13.58825,11.9981476 13.34775,11.8778976 13.2275,11.6373976 C13.10725,11.2766476 13.2275,11.0361476 13.58825,10.7956476 L25.61325,5.98564761 C25.974,5.86539761 26.2145,5.98564761 26.33475,6.34639761 C26.455,6.70714761 26.33475,6.94764761 25.974,7.18814761 L13.949,11.9981476 C13.949,11.9981476 13.949,11.9981476 13.82875,11.9981476 Z" id="Path" stroke="#353638" stroke-width="0.7" fill="#353638" fill-rule="nonzero"></path>
                <path d="M29.46125,25.2256476 C28.49925,25.2256476 27.6575,24.3838976 27.6575,23.4218976 C27.6575,22.4598976 28.49925,21.6181476 29.46125,21.6181476 C30.42325,21.6181476 31.265,22.4598976 31.265,23.4218976 C31.265,24.3838976 30.42325,25.2256476 29.46125,25.2256476 Z M29.46125,22.8206476 C29.1005,22.8206476 28.86,23.0611476 28.86,23.4218976 C28.86,23.7826476 29.1005,24.0231476 29.46125,24.0231476 C29.822,24.0231476 30.0625,23.7826476 30.0625,23.4218976 C30.0625,23.0611476 29.822,22.8206476 29.46125,22.8206476 Z" id="Shape" stroke="#353638" stroke-width="0.7" fill="#353638" fill-rule="nonzero"></path>
            </g>
        </g>
    </g>
</svg>
