<?xml version="1.0" encoding="UTF-8"?>
<svg width="40px" height="46px" viewBox="0 0 40 46" version="1.1" xmlns="http://www.w3.org/2000/svg" xmlns:xlink="http://www.w3.org/1999/xlink">
    <!-- Generator: Sketch 54.1 (76490) - https://sketchapp.com -->
    <title>feature_icn_1</title>
    <desc>Created with Sketch.</desc>
    <g id="UI" stroke="none" stroke-width="1" fill="none" fill-rule="evenodd">
        <g id="DỊch-vụ-Cloud---Tính-năng" transform="translate(-191.000000, -711.000000)">
            <g id="feature_icn_1" transform="translate(191.607281, 711.543045)">
                <path d="M15.9375,16.875 L26.25,16.875 C28.5402362,16.8797485 30.604683,15.4954806 31.4698573,13.3749435 C32.3350315,11.2544063 31.8281668,8.82104929 30.1882736,7.22231405 C28.5483803,5.6235788 26.1029283,5.17871629 24.0050625,6.0975 C22.7890849,1.92627774 18.5991923,-0.635006659 14.3323423,0.18455914 C10.0654924,1.00412494 7.12268212,4.93544096 7.53861686,9.26033343 C7.95455161,13.5852259 11.5926615,16.8836399 15.9375,16.875 L15.9375,16.875 Z" id="Path" fill="#0DABA0"></path>
                <path d="M32.8125,37.5 L15.9375,37.5 C15.419733,37.5 15,37.919733 15,38.4375 C15,38.955267 15.419733,39.375 15.9375,39.375 L32.8125,39.375 C33.330267,39.375 33.75,38.955267 33.75,38.4375 C33.75,37.919733 33.330267,37.5 32.8125,37.5 Z" id="Path" fill="#353638" fill-rule="nonzero"></path>
                <path d="M8.4375,35.625 C6.88419914,35.625 5.625,36.8841991 5.625,38.4375 C5.625,39.9908009 6.88419914,41.25 8.4375,41.25 C9.99080086,41.25 11.25,39.9908009 11.25,38.4375 C11.25,36.8841991 9.99080086,35.625 8.4375,35.625 Z M8.4375,39.375 C7.91973305,39.375 7.5,38.955267 7.5,38.4375 C7.5,37.919733 7.91973305,37.5 8.4375,37.5 C8.95526695,37.5 9.375,37.919733 9.375,38.4375 C9.375,38.955267 8.95526695,39.375 8.4375,39.375 Z" id="Shape" fill="#353638" fill-rule="nonzero"></path>
                <path d="M15.9375,28.125 L32.8125,28.125 C33.330267,28.125 33.75,27.705267 33.75,27.1875 C33.75,26.669733 33.330267,26.25 32.8125,26.25 L15.9375,26.25 C15.419733,26.25 15,26.669733 15,27.1875 C15,27.705267 15.419733,28.125 15.9375,28.125 Z" id="Path" fill="#353638" fill-rule="nonzero"></path>
                <path d="M36.5625,20.625 L2.8125,20.625 C1.25919914,20.625 4.16333634e-16,21.8841991 0,23.4375 L0,42.1875 C2.91433544e-15,43.7408009 1.25919914,45 2.8125,45 L36.5625,45 C38.1158009,45 39.375,43.7408009 39.375,42.1875 L39.375,23.4375 C39.375,21.8841991 38.1158009,20.625 36.5625,20.625 Z M2.8125,22.5 L36.5625,22.5 C37.080267,22.5 37.5,22.919733 37.5,23.4375 L37.5,31.875 L1.875,31.875 L1.875,23.4375 C1.875,22.919733 2.29473305,22.5 2.8125,22.5 Z M36.5625,43.125 L2.8125,43.125 C2.29473305,43.125 1.875,42.705267 1.875,42.1875 L1.875,33.75 L37.5,33.75 L37.5,42.1875 C37.5,42.705267 37.080267,43.125 36.5625,43.125 Z" id="Shape" fill="#353638" fill-rule="nonzero"></path>
                <path d="M8.4375,30 C9.99080086,30 11.25,28.7408009 11.25,27.1875 C11.25,25.6341991 9.99080086,24.375 8.4375,24.375 C6.88419914,24.375 5.625,25.6341991 5.625,27.1875 C5.625,28.7408009 6.88419914,30 8.4375,30 Z M8.4375,26.25 C8.95526695,26.25 9.375,26.669733 9.375,27.1875 C9.375,27.705267 8.95526695,28.125 8.4375,28.125 C7.91973305,28.125 7.5,27.705267 7.5,27.1875 C7.5,26.669733 7.91973305,26.25 8.4375,26.25 Z" id="Shape" fill="#353638" fill-rule="nonzero"></path>
                <path d="M15.9375,16.875 L26.25,16.875 C28.5402362,16.8797485 30.604683,15.4954806 31.4698573,13.3749435 C32.3350315,11.2544063 31.8281668,8.82104929 30.1882736,7.22231405 C28.5483803,5.6235788 26.1029283,5.17871629 24.0050625,6.0975 C22.7890849,1.92627774 18.5991923,-0.635006659 14.3323423,0.18455914 C10.0654924,1.00412494 7.12268212,4.93544096 7.53861686,9.26033343 C7.95455161,13.5852259 11.5926615,16.8836399 15.9375,16.875 L15.9375,16.875 Z M15.9375,1.875 C18.8551417,1.86963668 21.4183048,3.81047181 22.2043125,6.62025 C22.3547099,7.1380068 22.7207101,7.56596502 23.2088681,7.79486085 C23.6970261,8.02375668 24.2600939,8.03143576 24.7543125,7.8159375 C26.1518784,7.20679421 27.779154,7.50485198 28.8700876,8.56979797 C29.9610212,9.63474396 30.2982179,11.254362 29.72294,12.6662053 C29.1476622,14.0780485 27.7745476,15.0007732 26.25,15 L15.9375,15 C12.3131314,14.9999999 9.3750001,12.0618686 9.3750001,8.4375 C9.3750001,4.81313137 12.3131314,1.87500005 15.9375,1.875 Z" id="Shape" fill="#353638" fill-rule="nonzero"></path>
            </g>
        </g>
    </g>
</svg>
