<?xml version="1.0" encoding="UTF-8"?>
<svg width="44px" height="43px" viewBox="0 0 44 43" version="1.1" xmlns="http://www.w3.org/2000/svg" xmlns:xlink="http://www.w3.org/1999/xlink">
    <!-- Generator: Sketch 54.1 (76490) - https://sketchapp.com -->
    <title>feature_icn_5</title>
    <desc>Created with Sketch.</desc>
    <g id="UI" stroke="none" stroke-width="1" fill="none" fill-rule="evenodd">
        <g id="DỊch-vụ-Cloud---Tính-năng" transform="translate(-192.000000, -972.000000)">
            <g id="feature_icn_5" transform="translate(192.607281, 972.204878)">
                <path d="M1.06097561,22.2804878 C2.6181224,19.724687 5.4473907,18.4467867 9.54878049,18.4467867 C13.6501703,18.4467867 16.4794386,19.724687 18.0365854,22.2804878 L18.0365854,39.2560976 C15.4183183,40.9509339 12.6604618,41.7983521 9.76301595,41.7983521 C6.86557007,41.7983521 3.96488996,40.9509339 1.06097561,39.2560976 L1.06097561,22.2804878 Z" id="Rectangle" fill="#0DABA0"></path>
                <path d="M9.76301595,17.754116 C5.02884076,17.754116 -1.38555833e-13,19.3090982 -1.38555833e-13,22.1918505 L-1.38555833e-13,38.1676948 C-1.38555833e-13,41.0504471 5.02884076,42.6054293 9.76301595,42.6054293 C14.4971911,42.6054293 19.5260319,41.0504471 19.5260319,38.1676948 L19.5260319,22.1918505 C19.5260319,19.3090982 14.4971911,17.754116 9.76301595,17.754116 Z M17.7509381,38.1676948 C17.7509381,39.2540522 14.6391986,40.8303355 9.76301595,40.8303355 C4.88683326,40.8303355 1.77509381,39.2540522 1.77509381,38.1676948 L1.77509381,35.4677771 C3.65846834,36.6553149 6.7666576,37.2801479 9.76301595,37.2801479 C12.7593743,37.2801479 15.8675636,36.6553149 17.7509381,35.4677771 L17.7509381,38.1676948 Z M17.7509381,32.8424134 C17.7509381,33.9287708 14.6391986,35.5050541 9.76301595,35.5050541 C4.88683326,35.5050541 1.77509381,33.9287708 1.77509381,32.8424134 L1.77509381,30.1424957 C3.65846834,31.3300334 6.7666576,31.9548664 9.76301595,31.9548664 C12.7593743,31.9548664 15.8675636,31.3300334 17.7509381,30.1424957 L17.7509381,32.8424134 Z M17.7509381,27.5171319 C17.7509381,28.6034893 14.6391986,30.1797726 9.76301595,30.1797726 C4.88683326,30.1797726 1.77509381,28.6034893 1.77509381,27.5171319 L1.77509381,24.8172142 C3.65846834,26.004752 6.7666576,26.629585 9.76301595,26.629585 C12.7593743,26.629585 15.8675636,26.004752 17.7509381,24.8172142 L17.7509381,27.5171319 Z M9.76301595,24.8544912 C4.88683326,24.8544912 1.77509381,23.2782079 1.77509381,22.1918505 C1.77509381,21.1054931 4.88683326,19.5292098 9.76301595,19.5292098 C14.6391986,19.5292098 17.7509381,21.1054931 17.7509381,22.1918505 C17.7509381,23.2782079 14.6391986,24.8544912 9.76301595,24.8544912 Z M22.1886726,25.2805137 C21.6987467,25.2805137 21.3011257,25.6781347 21.3011257,26.1680606 C21.3011257,26.6579865 21.6987467,27.0556075 22.1886726,27.0556075 C26.5926803,27.0556075 30.1783698,23.4716931 30.1783698,19.0676854 C30.1783698,14.6636777 26.5944554,11.0797633 22.1904477,11.0797633 C19.1887641,11.0797633 16.4693204,12.7607771 15.0936227,15.4660201 C14.8717359,15.9026931 15.0456951,16.4369964 15.4823682,16.6588831 C15.9190413,16.8772196 16.4533445,16.7085857 16.6752312,16.2701376 C17.7456128,14.1631012 19.8579744,12.8548571 22.1886726,12.8548571 C25.6146037,12.8548571 28.4015009,15.6417543 28.4015009,19.0676854 C28.4015009,22.4936164 25.6146037,25.2805137 22.1886726,25.2805137 Z M42.4336175,16.5080001 C42.3004855,15.4731204 41.7129294,14.5731479 40.8253825,14.0388446 C39.9502613,13.5098667 38.8976306,13.4140116 37.9266543,13.7796809 C37.163364,14.0672461 36.2882427,13.6714002 35.9367742,12.8850337 C35.5231773,11.9584347 35.0119503,11.0708878 34.420844,10.2490194 C33.9078419,9.53543165 34.003697,8.59818211 34.6427308,8.07275435 C35.4326475,7.42307001 35.8728708,6.46274426 35.8533447,5.44029023 C35.8320436,4.40186035 35.3421177,3.44330969 34.5095987,2.81315139 C33.1534271,1.78537208 31.6729988,0.929776861 30.1091412,0.271217058 C29.13994,-0.137054518 28.0606829,-0.0820266099 27.1500598,0.420324938 C26.2571876,0.913801017 25.6465553,1.77472151 25.4796965,2.7811997 C25.3430143,3.60129304 24.5708485,4.14447175 23.6957273,4.05749215 C22.7016747,3.95276162 21.6685701,3.95276162 20.6745176,4.05749215 C19.7816454,4.13204609 19.0290056,3.59951795 18.8923234,2.77942461 C18.7236895,1.77294642 18.1148323,0.912025923 17.220185,0.420324938 C16.3060117,-0.0820266099 15.2285298,-0.135279424 14.2628788,0.271217058 C12.7007962,0.929776861 11.2185929,1.78537208 9.8624212,2.81315139 C9.0316773,3.44330969 8.54175141,4.40008526 8.52045028,5.43851513 C8.50092425,6.46096917 8.94292261,7.42129492 9.73283935,8.07275435 C10.3718731,8.59818211 10.4677282,9.53188146 9.95295098,10.2472443 C9.36184475,11.0708878 8.85061773,11.9584347 8.43702087,12.8832586 C8.0855523,13.6696251 7.20865596,14.063696 6.42761468,13.7708055 C5.5897704,13.458389 4.68092237,13.4921157 3.8714796,13.8648854 C3.05848663,14.2412053 2.41767777,14.9423674 2.11591182,15.7890871 C1.949053,16.2506115 2.19046576,16.7582884 2.65199015,16.9233721 C3.11173945,17.0884558 3.62119137,16.8488181 3.78627509,16.3872937 C3.93005769,15.9861225 4.23182364,15.65418 4.617019,15.4748955 C4.99156379,15.2991612 5.41403612,15.2831854 5.82230769,15.4393937 C7.46249437,16.0535761 9.32101759,15.2494586 10.0576815,13.6074968 C10.4215758,12.7909537 10.8724496,12.0081373 11.3943272,11.282124 C12.4593834,9.79814553 12.2303963,7.8277914 10.8600239,6.69883174 C10.4908044,6.39706579 10.2866686,5.94974215 10.2955441,5.47401701 C10.3044196,4.98231603 10.5369568,4.52611692 10.9345779,4.22612606 C12.1735933,3.28710144 13.5244397,2.50606016 14.9516152,1.90607846 C15.4166897,1.70904304 15.9314669,1.73566945 16.3645898,1.97530711 C16.7870621,2.2078444 17.0622017,2.59658995 17.1420809,3.07231509 C17.4349714,4.83143305 19.036106,6.01542062 20.8609024,5.8219354 C21.7324735,5.73140561 22.6430966,5.73140561 23.5128926,5.8219354 C25.3501147,6.01364553 26.9388236,4.83320815 27.2317141,3.07231509 C27.3115933,2.59836504 27.588508,2.2078444 28.0092052,1.97530711 C28.4423281,1.73389436 28.9553302,1.70904304 29.4221799,1.90607846 C30.8493553,2.50783526 32.2019768,3.28887653 33.4392172,4.22612606 C33.8368382,4.52789201 34.0711506,4.98231603 34.080026,5.47401701 C34.0906766,5.95151725 33.8847657,6.39884089 33.5155462,6.70238193 C32.1469489,7.8295665 31.9161867,9.79992062 32.9830181,11.283899 C33.5048956,12.0099124 33.9539944,12.7927288 34.3196637,13.6092719 C35.0563276,15.2512337 36.9166259,16.0571263 38.5727885,15.4340684 C39.0201121,15.2654345 39.5082629,15.313362 39.9147594,15.5565498 C40.3354566,15.8103883 40.6123712,16.239961 40.6762746,16.733437 C40.777455,17.509153 40.8271576,18.2937445 40.8271576,19.0659103 C40.8271576,19.8380761 40.777455,20.6226676 40.6762746,21.3983836 C40.6141463,21.8936347 40.3354566,22.3214323 39.9147594,22.5752708 C39.5064878,22.8202337 39.018337,22.8646111 38.5532624,22.6906519 C36.9130758,22.0764694 35.0545525,22.882362 34.3196637,24.5243238 C33.9539944,25.342642 33.5031205,26.1236833 32.981243,26.8514717 C31.9161867,28.3354502 32.1451738,30.3040292 33.5155462,31.4329889 C33.8847657,31.7347548 34.0889015,32.1803034 34.080026,32.6578036 C34.0711506,33.1512797 33.8386133,33.6057037 33.4409923,33.9074696 C32.2019768,34.8464943 30.8511304,35.6275355 29.423955,36.2275172 C28.9588804,36.4210025 28.4458783,36.3961512 28.0109803,36.1582886 C27.588508,35.9257513 27.3115933,35.5370058 27.2334892,35.0612806 C26.9405987,33.3021626 25.3359139,32.1199502 23.5128926,32.3116603 C23.0779946,32.3578127 22.6359962,32.380889 22.1886726,32.380889 C21.6987467,32.380889 21.3011257,32.77851 21.3011257,33.2684359 C21.3011257,33.7583618 21.6987467,34.1559828 22.1886726,34.1559828 C22.6998996,34.1559828 23.2040263,34.1293564 23.6992774,34.0761035 C24.5939247,33.9944492 25.3465645,34.5340778 25.4832467,35.352396 C25.6501055,36.3588742 26.2589627,37.2197947 27.15361,37.7132708 C27.6612868,37.9919605 28.2204414,38.133968 28.7831461,38.133968 C29.2304697,38.133968 29.6831187,38.0452133 30.1109163,37.8659288 C31.6729988,37.207369 33.1552022,36.3517738 34.5113738,35.3239945 C35.3438928,34.6920611 35.8320436,33.7335104 35.8533447,32.6950806 C35.8728708,31.6726265 35.4308724,30.7140759 34.6409557,30.0626164 C34.0019219,29.5371887 33.9060668,28.6017142 34.4190689,27.8881265 C35.0119503,27.064483 35.5231773,26.1769361 35.9367742,25.2503371 C36.2900178,24.4621955 37.1722394,24.0716748 37.9461803,24.3627902 C38.9029559,24.7213592 39.9520364,24.623729 40.8271576,24.0965262 C41.7147045,23.5622229 42.3004855,22.6622504 42.4336175,21.6273707 C42.5436733,20.7771007 42.5987012,19.9161802 42.5987012,19.0676854 C42.5987012,18.2191906 42.5436733,17.3582701 42.4336175,16.5080001 Z" id="Shape" fill="#353638" fill-rule="nonzero"></path>
            </g>
        </g>
    </g>
</svg>
