<?xml version="1.0" encoding="UTF-8"?>
<svg width="37px" height="37px" viewBox="0 0 37 37" version="1.1" xmlns="http://www.w3.org/2000/svg" xmlns:xlink="http://www.w3.org/1999/xlink">
    <!-- Generator: Sketch 54.1 (76490) - https://sketchapp.com -->
    <title>feature_icn_2</title>
    <desc>Created with Sketch.</desc>
    <g id="UI" stroke="none" stroke-width="1" fill="none" fill-rule="evenodd">
        <g id="DỊch-vụ-Cloud---Tính-năng" transform="translate(-777.000000, -711.000000)">
            <g id="feature_icn_2" transform="translate(777.391524, 711.543045)">
                <path d="M0.4635,35.943 C0.555,35.9805 0.6525,36 0.75,36 L11.25,36 C11.664,36 12,35.664 12,35.25 C12,34.836 11.664,34.5 11.25,34.5 L2.5605,34.5 L11.6355,25.425 C11.928,25.1325 11.928,24.657 11.6355,24.3645 C11.343,24.072 10.8675,24.072 10.575,24.3645 L1.5,33.4395 L1.5,24.75 C1.5,24.336 1.164,24 0.75,24 C0.336,24 8.8817842e-16,24.336 8.8817842e-16,24.75 L8.8817842e-16,35.25 C8.8817842e-16,35.3475 0.0195,35.445 0.057,35.5365 C0.1335,35.7195 0.2805,35.8665 0.4635,35.943 Z" id="Path" stroke="#353638" stroke-width="0.4" fill="#353638" fill-rule="nonzero"></path>
                <path d="M35.5365,0.057 C35.445,0.0195 35.3475,8.8817842e-16 35.25,8.8817842e-16 L24.75,8.8817842e-16 C24.336,8.8817842e-16 24,0.336 24,0.75 C24,1.164 24.336,1.5 24.75,1.5 L33.4395,1.5 L24.3645,10.575 C24.072,10.8675 24.072,11.343 24.3645,11.6355 C24.5115,11.7825 24.7035,11.8545 24.8955,11.8545 C25.0875,11.8545 25.2795,11.781 25.4265,11.6355 L34.5,2.5605 L34.5,11.25 C34.5,11.664 34.836,12 35.25,12 C35.664,12 36,11.664 36,11.25 L36,0.75 C36,0.6525 35.9805,0.555 35.943,0.4635 C35.8665,0.2805 35.7195,0.1335 35.5365,0.057 Z" id="Path" stroke="#353638" stroke-width="0.4" fill="#353638" fill-rule="nonzero"></path>
                <path d="M35.25,24 C34.836,24 34.5,24.336 34.5,24.75 L34.5,33.4395 L25.425,24.3645 C25.1325,24.072 24.657,24.072 24.3645,24.3645 C24.072,24.657 24.072,25.1325 24.3645,25.425 L33.4395,34.5 L24.75,34.5 C24.336,34.5 24,34.836 24,35.25 C24,35.664 24.336,36 24.75,36 L35.25,36 C35.3475,36 35.445,35.9805 35.5365,35.943 C35.7195,35.8665 35.8665,35.721 35.943,35.5365 C35.9805,35.445 36,35.3475 36,35.25 L36,24.75 C36,24.336 35.664,24 35.25,24 Z" id="Path" stroke="#353638" stroke-width="0.4" fill="#353638" fill-rule="nonzero"></path>
                <path d="M0.75,12 C1.164,12 1.5,11.664 1.5,11.25 L1.5,2.5605 L10.575,11.6355 C10.722,11.7825 10.914,11.8545 11.106,11.8545 C11.298,11.8545 11.49,11.781 11.637,11.6355 C11.9295,11.343 11.9295,10.8675 11.637,10.575 L2.5605,1.5 L11.25,1.5 C11.664,1.5 12,1.164 12,0.75 C12,0.336 11.664,8.8817842e-16 11.25,8.8817842e-16 L0.75,8.8817842e-16 C0.6525,8.8817842e-16 0.555,0.0195 0.4635,0.057 C0.2805,0.1335 0.1335,0.279 0.057,0.4635 C0.0195,0.555 8.8817842e-16,0.6525 8.8817842e-16,0.75 L8.8817842e-16,11.25 C8.8817842e-16,11.664 0.336,12 0.75,12 Z" id="Path" stroke="#353638" stroke-width="0.4" fill="#353638" fill-rule="nonzero"></path>
                <circle id="Oval" fill="#0DABA0" cx="18" cy="18" r="7.5"></circle>
                <path d="M10.5,18 C10.5,22.1355 13.8645,25.5 18,25.5 C22.1355,25.5 25.5,22.1355 25.5,18 C25.5,13.8645 22.1355,10.5 18,10.5 C13.8645,10.5 10.5,13.8645 10.5,18 Z M18,12 C21.309,12 24,14.691 24,18 C24,21.309 21.309,24 18,24 C14.691,24 12,21.309 12,18 C12,14.691 14.691,12 18,12 Z" id="Shape" stroke="#353638" stroke-width="0.4" fill="#353638" fill-rule="nonzero"></path>
            </g>
        </g>
    </g>
</svg>
