<?xml version="1.0" encoding="UTF-8"?>
<svg width="43px" height="42px" viewBox="0 0 43 42" version="1.1" xmlns="http://www.w3.org/2000/svg" xmlns:xlink="http://www.w3.org/1999/xlink">
    <!-- Generator: Sketch 54.1 (76490) - https://sketchapp.com -->
    <title>feature_icn_4</title>
    <desc>Created with Sketch.</desc>
    <g id="UI" stroke="none" stroke-width="1" fill="none" fill-rule="evenodd">
        <g id="DỊch-vụ-Cloud---Tính-năng" transform="translate(-778.000000, -844.000000)">
            <g id="feature_icn_4" transform="translate(778.183190, 843.760330)">
                <path d="M29.3133064,18.820171 C29.8490625,18.9175812 30.1316308,19.5115398 29.8692069,19.988674 L21.1001851,35.93235 C20.7028919,36.6547013 19.6044962,36.3725709 19.6044962,35.5481722 L19.6044962,24.7630247 L13.0844212,23.5775565 C12.5486651,23.4801463 12.2660968,22.8861878 12.5285207,22.4090536 L21.2975425,6.46537755 C21.6948357,5.74302632 22.7932314,6.02515669 22.7932314,6.84955537 L22.7932314,17.6347029 L29.3133064,18.820171 Z" id="Path" fill="#0DABA0"></path>
                <path d="M21.1988638,41.7264448 C9.86179392,41.7264448 0.671282837,32.5359337 0.671282837,21.1988638 C0.671282837,9.86179392 9.86179392,0.671282837 21.1988638,0.671282837 C32.5359337,0.671282837 41.7264448,9.86179392 41.7264448,21.1988638 C41.7264448,32.5359337 32.5359337,41.7264448 21.1988638,41.7264448 Z M21.1988638,39.9414377 C31.5501015,39.9414377 39.9414377,31.5501015 39.9414377,21.1988638 C39.9414377,10.8476261 31.5501015,2.45628988 21.1988638,2.45628988 C10.8476261,2.45628988 2.45628988,10.8476261 2.45628988,21.1988638 C2.45628988,31.5501015 10.8476261,39.9414377 21.1988638,39.9414377 Z M29.3133064,18.820171 C29.8490625,18.9175812 30.1316308,19.5115398 29.8692069,19.988674 L21.1001851,35.93235 C20.7028919,36.6547013 19.6044962,36.3725709 19.6044962,35.5481722 L19.6044962,24.7630247 L13.0844212,23.5775565 C12.5486651,23.4801463 12.2660968,22.8861878 12.5285207,22.4090536 L21.2975425,6.46537755 C21.6948357,5.74302632 22.7932314,6.02515669 22.7932314,6.84955537 L22.7932314,17.6347029 L29.3133064,18.820171 Z M21.8534431,19.0843388 C21.4743896,19.0154199 21.1988638,18.6852815 21.1988638,18.3000136 L21.1988638,9.95316761 L14.459246,22.2070181 L20.5442845,23.3133888 C20.923338,23.3823077 21.1988638,23.7124461 21.1988638,24.097714 L21.1988638,32.44456 L27.9384816,20.1907094 L21.8534431,19.0843388 Z" id="Shape" stroke="#353638" stroke-width="0.3" fill="#353638" fill-rule="nonzero"></path>
            </g>
        </g>
    </g>
</svg>
