<?xml version="1.0" encoding="UTF-8"?>
<svg width="41px" height="41px" viewBox="0 0 41 41" version="1.1" xmlns="http://www.w3.org/2000/svg" xmlns:xlink="http://www.w3.org/1999/xlink">
    <!-- Generator: Sketch 54.1 (76490) - https://sketchapp.com -->
    <title>feature_icn_3</title>
    <desc>Created with Sketch.</desc>
    <g id="UI" stroke="none" stroke-width="1" fill="none" fill-rule="evenodd">
        <g id="DỊch-vụ-Cloud---Tính-năng" transform="translate(-191.000000, -845.000000)" fill-rule="nonzero">
            <g id="feature_icn_3" transform="translate(191.607281, 845.968664)">
                <path d="M27.5,38.3333333 C21.5266667,38.3333333 16.6666667,33.4733333 16.6666667,27.5 C16.6666667,21.5266667 21.5266667,16.6666667 27.5,16.6666667 C33.4733333,16.6666667 38.3333333,21.5266667 38.3333333,27.5 C38.3333333,33.4733333 33.4733333,38.3333333 27.5,38.3333333 Z M34.09,21.895 C34.035,21.8983333 33.9833333,21.9066667 33.9316667,21.92 C32.2716667,22.1883333 29.7816667,21.9083333 28.085,20.24 C27.7616667,19.9216667 27.24,19.9216667 26.9166667,20.24 C25.2216667,21.91 22.735,22.19 21.0716667,21.92 C21.015,21.9066667 20.9583333,21.8966667 20.8983333,21.8933333 C20.455,21.8566667 20.0883333,22.1533333 20.0133333,22.5783333 C19.9883333,22.7183333 20,22.8566667 20.0416667,22.9816667 C20.3533333,27.6833333 22.8333333,33.7833333 27.0466667,36.5316667 C27.1833333,36.6216667 27.3416667,36.6666667 27.5,36.6666667 C27.6583333,36.6666667 27.8166667,36.6216667 27.955,36.5316667 C32.1833333,33.775 34.665,27.64 34.9633333,22.9333333 C34.9866667,22.835 34.995,22.7333333 34.9816667,22.6266667 C34.93,22.1883333 34.5166667,21.8483333 34.09,21.895 Z" id="Combined-Shape" fill="#0DABA0"></path>
                <path d="M39.975,9.36833333 C40.0366667,9.12 39.98,8.855 39.8233333,8.65333333 C39.665,8.45166667 39.4233333,8.33333333 39.1666667,8.33333333 L36.6666667,8.33333333 L36.6666667,4.16666667 C36.6666667,3.70666667 36.2933333,3.33333333 35.8333333,3.33333333 L13.9166667,3.33333333 L10.1133333,0.191666667 C9.965,0.0683333333 9.77666667,0 9.58333333,0 L0.833333333,0 C0.373333333,0 0,0.373333333 0,0.833333333 L0,27.5 C0,27.535 0.015,27.565 0.02,27.5983333 C0.0266666667,27.6466667 0.0333333333,27.6916667 0.0483333333,27.7383333 C0.07,27.8116667 0.101666667,27.875 0.141666667,27.9383333 C0.156666667,27.9633333 0.16,27.9933333 0.178333333,28.015 C0.188333333,28.0266667 0.203333333,28.0316667 0.213333333,28.0433333 C0.268333333,28.105 0.333333333,28.1533333 0.403333333,28.1966667 C0.433333333,28.215 0.456666667,28.24 0.488333333,28.255 C0.593333333,28.3033333 0.71,28.3333333 0.833333333,28.3333333 L15.0416667,28.3333333 C15.4733333,34.8366667 20.8883333,40 27.5,40 C34.3933333,40 40,34.3933333 40,27.5 C40,24.6216667 39.0133333,21.975 37.3716667,19.86 L39.975,9.36833333 Z M9.28333333,1.66666667 L13.085,4.80833333 C13.235,4.93166667 13.4233333,5 13.6166667,5 L35,5 L35,8.33333333 L5.36666667,8.33333333 C4.98333333,8.33333333 4.65,8.595 4.55833333,8.96666667 L1.66666667,20.6583333 L1.66666667,1.66666667 L9.28333333,1.66666667 Z M6.02,10 L38.1016667,10 L36.0216667,18.38 C33.7866667,16.29 30.795,15 27.5,15 C20.8883333,15 15.4733333,20.1633333 15.0416667,26.6666667 L1.89833333,26.6666667 L6.02,10 Z M27.5,38.3333333 C21.5266667,38.3333333 16.6666667,33.4733333 16.6666667,27.5 C16.6666667,21.5266667 21.5266667,16.6666667 27.5,16.6666667 C33.4733333,16.6666667 38.3333333,21.5266667 38.3333333,27.5 C38.3333333,33.4733333 33.4733333,38.3333333 27.5,38.3333333 Z" id="Shape" fill="#353638"></path>
                <path d="M34.09,21.895 C34.035,21.8983333 33.9833333,21.9066667 33.9316667,21.92 C32.2716667,22.1883333 29.7816667,21.9083333 28.085,20.24 C27.7616667,19.9216667 27.24,19.9216667 26.9166667,20.24 C25.2216667,21.91 22.735,22.19 21.0716667,21.92 C21.015,21.9066667 20.9583333,21.8966667 20.8983333,21.8933333 C20.455,21.8566667 20.0883333,22.1533333 20.0133333,22.5783333 C19.9883333,22.7183333 20,22.8566667 20.0416667,22.9816667 C20.3533333,27.6833333 22.8333333,33.7833333 27.0466667,36.5316667 C27.1833333,36.6216667 27.3416667,36.6666667 27.5,36.6666667 C27.6583333,36.6666667 27.8166667,36.6216667 27.955,36.5316667 C32.1833333,33.775 34.665,27.64 34.9633333,22.9333333 C34.9866667,22.835 34.995,22.7333333 34.9816667,22.6266667 C34.93,22.1883333 34.5166667,21.8483333 34.09,21.895 Z M27.5,34.8166667 C24.6166667,32.645 22.285,28.085 21.775,23.6633333 C23.5466667,23.7583333 25.7466667,23.325 27.5,21.9433333 C29.2533333,23.325 31.4533333,23.7483333 33.225,23.6633333 C32.715,28.085 30.3833333,32.645 27.5,34.8166667 Z" id="Shape" fill="#353638"></path>
            </g>
        </g>
    </g>
</svg>
