<?xml version="1.0" encoding="UTF-8"?>
<svg width="45px" height="45px" viewBox="0 0 45 45" version="1.1" xmlns="http://www.w3.org/2000/svg" xmlns:xlink="http://www.w3.org/1999/xlink">
    <!-- Generator: Sketch 54.1 (76490) - https://sketchapp.com -->
    <title>why_icn_1</title>
    <desc>Created with Sketch.</desc>
    <g id="UI" stroke="none" stroke-width="1" fill="none" fill-rule="evenodd">
        <g id="DỊch-vụ-Cloud---Tại-sao-chọn" transform="translate(-302.000000, -702.000000)">
            <g id="why_icn_1" transform="translate(302.335327, 702.500000)">
                <circle id="Oval" fill="#0DABA0" cx="13.2" cy="26.4" r="2.93333333"></circle>
                <circle id="Oval-Copy-4" fill="#0DABA0" cx="24.9333333" cy="14.8326172" r="2.93333333"></circle>
                <circle id="Oval-Copy-5" fill="#0DABA0" cx="38.0724935" cy="7.33261719" r="2.93333333"></circle>
                <g id="Group-5" fill="#353638" fill-rule="nonzero" stroke="#353638" stroke-width="0.6">
                    <path d="M29.2377514,13.718072 C29.3004774,14.0221701 29.3333333,14.3393636 29.3333333,14.6666667 C29.3333333,17.16 27.4266667,19.0666667 24.9333333,19.0666667 C23.9581593,19.0666667 23.0727271,18.7750057 22.3560099,18.2706568 L16.8039901,23.8226765 C17.308339,24.5393938 17.6,25.424826 17.6,26.4 C17.6,28.8933333 15.6933333,30.8 13.2,30.8 C10.7066667,30.8 8.8,28.8933333 8.8,26.4 C8.8,23.9066667 10.7066667,22 13.2,22 C14.175174,22 15.0606062,22.291661 15.7773235,22.7960099 L21.3293432,17.2439901 C20.8249943,16.5272729 20.5333333,15.6418407 20.5333333,14.6666667 C20.5333333,12.1733333 22.44,10.2666667 24.9333333,10.2666667 C26.5420045,10.2666667 27.9064647,11.0603525 28.6721987,12.2932092 L34.0217927,8.94971291 C33.8348957,8.45298826 33.7333333,7.90878578 33.7333333,7.33333333 C33.7333333,4.84 35.64,2.93333333 38.1333333,2.93333333 C40.6266667,2.93333333 42.5333333,4.84 42.5333333,7.33333333 C42.5333333,9.82666667 40.6266667,11.7333333 38.1333333,11.7333333 C36.773145,11.7333333 35.5875504,11.1659034 34.7908535,10.2453476 C34.7808186,10.2525353 34.7705354,10.259643 34.76,10.2666667 L29.2377514,13.718072 Z M2.93333333,41.0666667 L0.733333333,41.0666667 C0.293333333,41.0666667 2.84217094e-14,40.7733333 2.84217094e-14,40.3333333 C2.84217094e-14,39.8933333 0.293333333,39.6 0.733333333,39.6 L2.93333333,39.6 L2.93333333,0.733333333 C2.93333333,0.293333333 3.22666667,2.84217094e-14 3.66666667,2.84217094e-14 C4.10666667,2.84217094e-14 4.4,0.293333333 4.4,0.733333333 L4.4,39.6 L43.2666667,39.6 C43.7066667,39.6 44,39.8933333 44,40.3333333 C44,40.7733333 43.7066667,41.0666667 43.2666667,41.0666667 L4.4,41.0666667 L4.4,43.2666667 C4.4,43.7066667 4.10666667,44 3.66666667,44 C3.22666667,44 2.93333333,43.7066667 2.93333333,43.2666667 L2.93333333,41.0666667 Z M13.9333333,36.6666667 C13.4933333,36.6666667 13.2,36.3733333 13.2,35.9333333 L13.2,34.4666667 C13.2,34.0266667 13.4933333,33.7333333 13.9333333,33.7333333 C14.3733333,33.7333333 14.6666667,34.0266667 14.6666667,34.4666667 L14.6666667,35.9333333 C14.6666667,36.3733333 14.3733333,36.6666667 13.9333333,36.6666667 Z M25.6666667,36.6666667 C25.2266667,36.6666667 24.9333333,36.3733333 24.9333333,35.9333333 L24.9333333,22.7333333 C24.9333333,22.2933333 25.2266667,22 25.6666667,22 C26.1066667,22 26.4,22.2933333 26.4,22.7333333 L26.4,35.9333333 C26.4,36.3733333 26.1066667,36.6666667 25.6666667,36.6666667 Z M38.8666667,36.6666667 C38.4266667,36.6666667 38.1333333,36.3733333 38.1333333,35.9333333 L38.1333333,16.1333333 C38.1333333,15.6933333 38.4266667,15.4 38.8666667,15.4 C39.3066667,15.4 39.6,15.6933333 39.6,16.1333333 L39.6,35.9333333 C39.6,36.3733333 39.3066667,36.6666667 38.8666667,36.6666667 Z M13.2,23.4666667 C11.5866667,23.4666667 10.2666667,24.7866667 10.2666667,26.4 C10.2666667,28.0133333 11.5866667,29.3333333 13.2,29.3333333 C14.8133333,29.3333333 16.1333333,28.0133333 16.1333333,26.4 C16.1333333,24.7866667 14.8133333,23.4666667 13.2,23.4666667 Z M24.9333333,11.7333333 C23.32,11.7333333 22,13.0533333 22,14.6666667 C22,16.28 23.32,17.6 24.9333333,17.6 C26.5466667,17.6 27.8666667,16.28 27.8666667,14.6666667 C27.8666667,13.0533333 26.5466667,11.7333333 24.9333333,11.7333333 Z M38.1333333,4.4 C36.52,4.4 35.2,5.72 35.2,7.33333333 C35.2,8.94666667 36.52,10.2666667 38.1333333,10.2666667 C39.7466667,10.2666667 41.0666667,8.94666667 41.0666667,7.33333333 C41.0666667,5.72 39.7466667,4.4 38.1333333,4.4 Z" id="Combined-Shape"></path>
                </g>
            </g>
        </g>
    </g>
</svg>
