<?xml version="1.0" encoding="UTF-8"?>
<svg width="48px" height="49px" viewBox="0 0 48 49" version="1.1" xmlns="http://www.w3.org/2000/svg" xmlns:xlink="http://www.w3.org/1999/xlink">
    <!-- Generator: Sketch 54.1 (76490) - https://sketchapp.com -->
    <title>why_icn_3</title>
    <desc>Created with Sketch.</desc>
    <g id="UI" stroke="none" stroke-width="1" fill="none" fill-rule="evenodd">
        <g id="DỊch-vụ-Cloud---Tại-sao-chọn" transform="translate(-1090.000000, -704.000000)">
            <g id="why_icn_3" transform="translate(1090.500000, 705.278735)">
                <path d="M10.81,36.5695801 C7.40492839,35.0305545 5.15152995,34.9040278 4.04980469,36.19 C2.94807943,37.4759722 1.83292643,40.7564703 0.704345703,46.0314941 C5.87019857,45.3493652 9.02547201,44.431722 10.170166,43.2785645 C11.31486,42.1254069 11.528138,39.8890788 10.81,36.5695801 Z" id="Path-7" fill="#0DABA0"></path>
                <g id="Group-11" fill="#353638" fill-rule="nonzero" stroke="#353638" stroke-width="0.6">
                    <path d="M33.6833333,17.2333333 C31.49,17.2333333 29.7666667,15.51 29.7666667,13.3166667 C29.7666667,11.1233333 31.49,9.4 33.6833333,9.4 C35.8766667,9.4 37.6,11.1233333 37.6,13.3166667 C37.6,15.51 35.8766667,17.2333333 33.6833333,17.2333333 Z M33.6833333,10.9666667 C32.43,10.9666667 31.3333333,12.0633333 31.3333333,13.3166667 C31.3333333,14.57 32.43,15.6666667 33.6833333,15.6666667 C34.9366667,15.6666667 36.0333333,14.57 36.0333333,13.3166667 C36.0333333,12.0633333 34.9366667,10.9666667 33.6833333,10.9666667 Z" id="Shape"></path>
                    <path d="M14.8833333,47 C14.57,47 14.2566667,46.8433333 14.1,46.53 C13.9433333,46.2166667 14.1,45.9033333 14.2566667,45.7466667 C16.92,43.0833333 19.1133333,38.54 16.6066667,35.0933333 C16.2933333,34.78 16.45,34.31 16.7633333,33.9966667 C17.0766667,33.6833333 17.5466667,33.84 17.86,34.1533333 C20.68,37.9133333 19.27,42.3 16.7633333,45.4333333 C19.27,44.8066667 20.8366667,43.24 21.9333333,41.83 C24.2833333,38.54 24.91,33.9966667 23.6566667,30.2366667 C23.5,29.7666667 23.6566667,29.4533333 24.1266667,29.2966667 C24.5966667,29.14 24.91,29.2966667 25.0666667,29.7666667 C26.4766667,33.9966667 25.85,39.1666667 23.1866667,42.77 C21.15,45.4333333 18.1733333,47 14.8833333,47 Z" id="Path"></path>
                    <path d="M0.783333333,32.9 C0.626666667,32.9 0.626666667,32.9 0.47,32.9 C0.156666667,32.7433333 -3.90798505e-14,32.43 -3.90798505e-14,32.1166667 C-3.90798505e-14,28.9833333 1.41,26.32 4.07333333,24.44 C7.67666667,21.9333333 13.0033333,21.3066667 17.5466667,22.7166667 C18.0166667,22.8733333 18.1733333,23.3433333 18.0166667,23.6566667 C17.86,24.1266667 17.39,24.2833333 17.0766667,24.1266667 C13.16,22.7166667 8.14666667,23.3433333 5.01333333,25.5366667 C3.76,26.4766667 2.35,27.8866667 1.88,30.08 C5.48333333,27.73 10.4966667,27.5733333 13.7866667,28.8266667 C14.2566667,28.9833333 14.4133333,29.4533333 14.2566667,29.7666667 C14.1,30.2366667 13.63,30.3933333 13.3166667,30.2366667 C9.87,28.9833333 4.7,29.4533333 1.56666667,32.43 C1.25333333,32.7433333 0.94,32.9 0.783333333,32.9 Z" id="Path"></path>
                    <path d="M8.61666667,39.1666667 C8.46,39.1666667 8.14666667,39.01 7.99,39.01 C7.83333333,38.6966667 7.83333333,38.2266667 7.99,38.07 C8.61666667,36.8166667 24.91,8.30333333 29.14,4.07333333 C33.2133333,0.156666667 45.7466667,1.59872116e-13 46.2166667,1.59872116e-13 C46.53,1.59872116e-13 46.6866667,0.156666667 46.8433333,0.156666667 C47,0.156666667 47,0.626666667 47,0.783333333 C47,1.25333333 46.8433333,13.7866667 42.9266667,17.7033333 C38.6966667,21.9333333 10.1833333,38.3833333 8.93,39.01 C8.93,39.1666667 8.77333333,39.1666667 8.61666667,39.1666667 Z M45.4333333,1.56666667 C42.6133333,1.72333333 33.37,2.19333333 30.3933333,5.17 C26.9466667,8.61666667 15.04,28.9833333 10.81,36.19 C18.0166667,31.96 38.3833333,20.0533333 41.83,16.6066667 C44.8066667,13.63 45.2766667,4.38666667 45.4333333,1.56666667 Z" id="Shape"></path>
                    <path d="M0.783333333,47 C0.626666667,47 0.313333333,46.8433333 0.156666667,46.8433333 C1.73194792e-13,46.53 1.73194792e-13,46.3733333 1.73194792e-13,46.06 C0.156666667,45.2766667 1.25333333,37.9133333 3.13333333,36.0333333 C5.17,33.9966667 8.77333333,33.9966667 10.81,36.0333333 C11.9066667,37.13 12.3766667,38.3833333 12.3766667,39.95 C12.3766667,41.5166667 11.9066667,42.77 10.9666667,43.8666667 L10.9666667,43.8666667 L10.9666667,43.8666667 C8.93,45.7466667 1.72333333,46.8433333 0.783333333,47 C0.783333333,47 0.783333333,47 0.783333333,47 Z M7.05,36.0333333 C5.95333333,36.0333333 5.01333333,36.5033333 4.23,37.13 C3.13333333,38.2266667 2.19333333,42.3 1.72333333,45.2766667 C4.7,44.8066667 8.77333333,43.71 9.87,42.77 L9.87,42.77 C10.4966667,41.9866667 10.9666667,41.0466667 10.9666667,39.95 C10.9666667,38.8533333 10.4966667,37.9133333 9.87,37.13 C9.24333333,36.3466667 8.14666667,36.0333333 7.05,36.0333333 Z" id="Shape"></path>
                </g>
            </g>
        </g>
    </g>
</svg>
