<?xml version="1.0" encoding="UTF-8"?>
<svg width="46px" height="47px" viewBox="0 0 46 47" version="1.1" xmlns="http://www.w3.org/2000/svg" xmlns:xlink="http://www.w3.org/1999/xlink">
    <!-- Generator: Sketch 54.1 (76490) - https://sketchapp.com -->
    <title>why_icn_2</title>
    <desc>Created with Sketch.</desc>
    <g id="UI" stroke="none" stroke-width="1" fill="none" fill-rule="evenodd">
        <g id="DỊch-vụ-Cloud---Tại-sao-chọn" transform="translate(-687.000000, -704.000000)">
            <g id="why_icn_2" transform="translate(687.351759, 705.278735)">
                <polygon id="Path-6" fill="#0DABA0" points="31.95 4.5 31.95 15.8328376 44.7 15.8328376"></polygon>
                <g id="Group-9" fill="#353638" fill-rule="nonzero" stroke="#353638" stroke-width="0.6">
                    <path d="M44.25,40.5 L19.5,40.5 C19.05,40.5 18.75,40.2 18.75,39.75 C18.75,39.3 19.05,39 19.5,39 L43.5,39 L43.5,16.05 L31.95,4.5 L24.75,4.5 C24.3,4.5 24,4.2 24,3.75 C24,3.3 24.3,3 24.75,3 L32.25,3 C32.4,3 32.7,3.15 32.85,3.15 L44.85,15.15 C45,15.3 45,15.45 45,15.75 L45,39.75 C45,40.2 44.7,40.5 44.25,40.5 Z" id="Path"></path>
                    <path d="M43.95,16.5 L32.25,16.5 C31.8,16.5 31.5,16.2 31.5,15.75 L31.5,3.75 C31.5,3.3 31.8,3 32.25,3 C32.7,3 33,3.3 33,3.75 L33,15 L43.95,15 C44.4,15 44.7,15.3 44.7,15.75 C44.7,16.2 44.25,16.5 43.95,16.5 Z" id="Path"></path>
                    <path d="M38.25,24 L23.25,24 C22.8,24 22.5,23.7 22.5,23.25 C22.5,22.8 22.8,22.5 23.25,22.5 L38.25,22.5 C38.7,22.5 39,22.8 39,23.25 C39,23.7 38.7,24 38.25,24 Z" id="Path"></path>
                    <path d="M38.25,28.5 L23.25,28.5 C22.8,28.5 22.5,28.2 22.5,27.75 C22.5,27.3 22.8,27 23.25,27 L38.25,27 C38.7,27 39,27.3 39,27.75 C39,28.2 38.7,28.5 38.25,28.5 Z" id="Path"></path>
                    <path d="M38.25,33 L23.25,33 C22.8,33 22.5,32.7 22.5,32.25 C22.5,31.8 22.8,31.5 23.25,31.5 L38.25,31.5 C38.7,31.5 39,31.8 39,32.25 C39,32.7 38.7,33 38.25,33 Z" id="Path"></path>
                    <path d="M16.95,45 C15.6,45 14.25,44.7 13.05,44.25 L3,39.75 C1.2,39.15 5.32907052e-15,37.5 5.32907052e-15,35.7 L5.32907052e-15,9.15 C5.32907052e-15,7.2 1.35,5.4 3.15,4.8 L15.3,1.05 C15.3,1.05 15.3,1.05 15.3,1.05 C17.7,0.3 20.25,1.77635684e-14 22.8,1.77635684e-14 C24.3,1.77635684e-14 25.5,1.2 25.5,2.7 L25.5,12.9 C25.5,14.1 24.75,15 23.7,15.45 L20.25,16.35 C19.8,16.5 19.5,16.95 19.5,17.4 L19.5,42.6 C19.5,43.8 18.3,45 16.95,45 Z M15.75,2.55 L3.6,6.3 C2.4,6.6 1.5,7.8 1.5,9.15 L1.5,35.7 C1.5,36.9 2.25,38.1 3.45,38.55 L13.5,43.05 C14.55,43.5 15.6,43.65 16.8,43.65 C17.4,43.65 18,43.2 18,42.45 L18,17.25 C18,16.05 18.75,15.15 19.8,14.7 L23.25,13.8 C23.7,13.65 24,13.2 24,12.75 L24,2.55 C24,1.95 23.55,1.5 22.8,1.5 C20.4,1.5 18,1.8 15.75,2.55 Z" id="Shape"></path>
                </g>
            </g>
        </g>
    </g>
</svg>
