<svg xmlns="http://www.w3.org/2000/svg" width="41" height="39" viewBox="0 0 41 39">
    <g fill="none" fill-rule="nonzero" transform="translate(.205 .442)">
        <path fill="#881421" d="M9.454 23.636v9.455c0 2.61 6.838 4.727 15.273 4.727 8.435 0 15.273-2.116 15.273-4.727v-9.455H9.454z"/>
        <path fill="#AF2031" d="M9.454 14.182v9.454c0 2.611 6.838 4.728 15.273 4.728 8.435 0 15.273-2.117 15.273-4.728v-9.454H9.454z"/>
        <path fill="#C94F60" d="M9.454 4.727v9.455c0 2.61 6.838 4.727 15.273 4.727C33.162 18.91 40 16.793 40 14.182V4.727H9.454z"/>
        <ellipse cx="24.727" cy="4.727" fill="#E08095" rx="15.273" ry="4.727"/>
        <path fill="#000" d="M21.09 10.422v19.156c.003.098-.007.195-.028.291a1.683 1.683 0 0 1-1.666 1.404H9.455V8.727h9.941a1.692 1.692 0 0 1 1.695 1.695z" opacity=".2"/>
        <path fill="#000" d="M21.818 10.422v17.702a2.445 2.445 0 0 1-2.422 2.421H9.455V8h9.941a2.43 2.43 0 0 1 2.422 2.422z" opacity=".1"/>
        <path fill="#000" d="M21.09 10.422v17.702a1.692 1.692 0 0 1-1.694 1.694H9.455V8.728h9.941a1.692 1.692 0 0 1 1.695 1.694z" opacity=".2"/>
        <path fill="#000" d="M20.364 10.422v17.702a1.692 1.692 0 0 1-1.695 1.694H9.455V8.728h9.214a1.692 1.692 0 0 1 1.695 1.694z" opacity=".1"/>
        <rect width="20.364" height="20.364" y="8.727" fill="#AF2031" rx="2.333"/>
        <path fill="#FFF" d="M8.963 13.394h2.5l4.015 11.03h-2.361l-.885-2.63h-4.13l-.87 2.63H4.886l4.077-11.03zm2.738 6.7L10.417 16.1a5.303 5.303 0 0 1-.239-.9h-.046a5.103 5.103 0 0 1-.23.924l-1.3 3.969h3.1z"/>
    </g>
</svg>
