
<svg xmlns="http://www.w3.org/2000/svg" width="88" height="88" viewBox="0 0 88 88">
    <g fill="#666" fill-rule="nonzero" stroke="#FFF" stroke-width=".5">
        <path d="M44 15.284c-8.697 0-15.747 7.05-15.747 15.748 0 8.697 7.05 15.747 15.747 15.747s15.747-7.05 15.747-15.747S52.697 15.284 44 15.284zm0 27.996c-6.764 0-12.248-5.484-12.248-12.248 0-6.765 5.484-12.248 12.248-12.248 6.764 0 12.248 5.483 12.248 12.248 0 6.764-5.484 12.248-12.248 12.248z"/>
        <path d="M44.002.463C25.269.448 8.629 12.427 2.702 30.197c-5.929 17.77.186 37.34 15.177 48.574 15.454 11.688 36.792 11.688 52.246 0a43.058 43.058 0 0 0 3.34-2.787A43.493 43.493 0 0 0 44.002.463zm0 83.591a39.857 39.857 0 0 1-25.75-9.404c2.042-12.634 12.95-21.92 25.75-21.92 12.799 0 23.707 9.286 25.75 21.92a39.857 39.857 0 0 1-25.75 9.404zm28.735-12.211C69.533 58.571 57.656 49.22 44.002 49.22S18.47 58.57 15.267 71.843c-15.306-15.76-15.06-40.907.55-56.365 15.61-15.458 40.76-15.458 56.37 0s15.855 40.605.55 56.365z"/>
    </g>
</svg>
