<svg xmlns="http://www.w3.org/2000/svg" width="22" height="24" viewBox="0 0 22 24">
    <path fill="#606060" fill-rule="nonzero" d="M21.593 19.618c-2.609-1.152-2.708-6.096-2.71-6.22V10.08c0-3.193-1.995-5.938-4.83-7.106C14.047 1.333 12.68 0 11 0S7.953 1.333 7.947 2.974c-2.835 1.17-4.83 3.914-4.83 7.107v3.316c-.002.125-.101 5.069-2.71 6.22a.673.673 0 0 0-.391.76c.068.312.35.534.676.534h6.613c.136.73.488 1.408 1.028 1.957A3.716 3.716 0 0 0 11 24a3.716 3.716 0 0 0 2.667-1.132c.54-.55.892-1.228 1.028-1.957h6.613a.689.689 0 0 0 .676-.534.673.673 0 0 0-.391-.76zm-3.436-2.369c.274.813.662 1.63 1.213 2.309H2.63c.55-.68.94-1.496 1.213-2.309h14.314zM11 1.354c.76 0 1.402.499 1.603 1.18a8.061 8.061 0 0 0-3.206 0c.2-.681.843-1.18 1.603-1.18zM4.501 13.4v-3.32c0-3.504 2.916-6.355 6.5-6.355 3.583 0 6.498 2.85 6.498 6.354v3.327c0 .102.017 1.172.293 2.489H4.208c.276-1.319.293-2.39.293-2.495zm6.5 9.246c-1.057 0-1.98-.745-2.275-1.736h4.548c-.295.99-1.217 1.736-2.274 1.736z"/>
</svg>
