<svg id="Layer_1" data-name="Layer 1" xmlns="http://www.w3.org/2000/svg" viewBox="0 0 60 60">
    <defs>
        <style>.cls-1{fill:#0DABA0;}.cls-2{fill:#fff;}</style>
    </defs>
    <title>Icon MB net_trangchu</title>
    <path class="cls-1" d="M30,0A30,30,0,1,0,60,30,30,30,0,0,0,30,0Z"/>
    <path fill="#FFF" fill-rule="nonzero" d="M42.218 34.097c-1.32 0-2.641-.176-3.874-.616-.528-.176-1.232 0-1.584.352l-2.465 1.848c-2.905-1.496-4.666-3.345-6.162-6.162l1.849-2.464c.44-.44.528-1.057.352-1.585-.352-1.232-.617-2.553-.617-3.873 0-.88-.704-1.585-1.584-1.585H24.26c-.88 0-1.585.704-1.585 1.585 0 10.74 8.803 19.542 19.543 19.542.88 0 1.584-.704 1.584-1.584v-3.962c0-.792-.704-1.496-1.584-1.496z"/>
</svg>
