<svg width="17" height="17" viewBox="0 0 17 17" fill="none" xmlns="http://www.w3.org/2000/svg">
<path d="M1.43942 14.851C1.24415 15.0463 1.24415 15.3629 1.43942 15.5581C1.63468 15.7534 1.95126 15.7534 2.14652 15.5581L8.49877 9.20588L14.851 15.5581C15.0463 15.7534 15.3629 15.7534 15.5581 15.5581C15.7534 15.3629 15.7534 15.0463 15.5581 14.851L9.20588 8.49877L15.5581 2.14652C15.7534 1.95126 15.7534 1.63468 15.5581 1.43942C15.3629 1.24415 15.0463 1.24415 14.851 1.43942L8.49877 7.79166L2.14652 1.43942C1.95126 1.24415 1.63468 1.24415 1.43942 1.43942C1.24415 1.63468 1.24415 1.95126 1.43942 2.14652L7.79166 8.49877L1.43942 14.851Z" stroke="#7F8287" stroke-linecap="round" stroke-linejoin="round"/>
</svg>
