<?xml version="1.0" encoding="UTF-8"?>
<svg width="22px" height="22px" viewBox="0 0 22 22" version="1.1" xmlns="http://www.w3.org/2000/svg" xmlns:xlink="http://www.w3.org/1999/xlink">
    <!-- Generator: Sketch 54.1 (76490) - https://sketchapp.com -->
    <title>check_orange_icn</title>
    <desc>Created with Sketch.</desc>
    <g id="UI" stroke="none" stroke-width="1" fill="none" fill-rule="evenodd">
        <g id="Vietel-Home-" transform="translate(-189.000000, -1782.000000)" fill="#0DABA0" fill-rule="nonzero">
            <path style="fill: #ee0033" d="M200,1803.56595 C194.20101,1803.56595 189.5,1798.86494 189.5,1793.06595 C189.5,1787.26696 194.20101,1782.56595 200,1782.56595 C205.79899,1782.56595 210.5,1787.26696 210.5,1793.06595 C210.5,1798.86494 205.79899,1803.56595 200,1803.56595 Z M200,1801.46595 C204.639192,1801.46595 208.4,1797.70515 208.4,1793.06595 C208.4,1788.42676 204.639192,1784.66595 200,1784.66595 C195.360808,1784.66595 191.6,1788.42676 191.6,1793.06595 C191.6,1797.70515 195.360808,1801.46595 200,1801.46595 Z M197.682538,1796.95842 L194.532538,1793.80842 C194.122487,1793.39837 194.122487,1792.73354 194.532538,1792.32349 C194.942588,1791.91344 195.607412,1791.91344 196.017462,1792.32349 L198.425,1794.74582 L203.457538,1789.69849 C203.867588,1789.28844 204.532412,1789.28844 204.942462,1789.69849 C205.352513,1790.10854 205.352513,1790.77337 204.942462,1791.18342 L199.167462,1796.95842 C198.757412,1797.36847 198.092588,1797.36847 197.682538,1796.95842 Z" id="check_orange_icn"></path>
        </g>
    </g>
</svg>
