<?xml version="1.0" encoding="UTF-8"?>
<svg width="43px" height="43px" viewBox="0 0 43 43" version="1.1" xmlns="http://www.w3.org/2000/svg" xmlns:xlink="http://www.w3.org/1999/xlink">
    <!-- Generator: Sketch 54.1 (76490) - https://sketchapp.com -->
    <title>cloud_service_icn</title>
    <desc>Created with Sketch.</desc>
    <g id="UI" stroke="none" stroke-width="1" fill="none" fill-rule="evenodd">
        <g id="Vietel-Home-" transform="translate(-179.000000, -941.000000)">
            <g id="cloud_service_icn" transform="translate(179.873099, 941.329627)">
                <path d="M35.8759696,29.8873739 C35.692475,29.8873739 35.5131508,29.8984948 35.3352166,29.9193465 C33.9478865,27.7438237 31.574968,26.4120979 29.032456,26.4120979 C25.0887128,26.4120979 21.8414148,29.5009232 21.5202993,33.4182544 C19.5671942,33.7421501 18.0728255,35.4644969 18.0728255,37.5329812 C18.0728255,39.8322238 19.9188921,41.7033125 22.1889425,41.7033125 L35.8759696,41.7033125 C39.0885148,41.7033125 41.7033125,39.0523719 41.7033125,35.7953432 C41.7033125,32.5383145 39.0899049,29.8873739 35.8759696,29.8873739 Z M35.8759696,40.313202 L22.1889425,40.313202 C20.6862331,40.313202 19.4629359,39.066273 19.4629359,37.5329812 C19.4629359,35.9996894 20.684843,34.7527604 22.1889425,34.7527604 C22.5726129,34.7527604 22.8839977,34.4413757 22.8839977,34.0577052 C22.8839977,30.6088412 25.6419767,27.8022083 29.032456,27.8022083 C31.2274404,27.8022083 33.2722928,29.032456 34.3676998,31.0119733 C34.5108812,31.2719239 34.8028044,31.4109349 35.0988979,31.3595009 C35.3532881,31.3122371 35.6104585,31.2774843 35.8759696,31.2774843 C38.3225639,31.2774843 40.313202,33.3042653 40.313202,35.7953432 C40.313202,38.2864211 38.3225639,40.313202 35.8759696,40.313202 Z M35.4478156,23.6318771 C35.8314861,23.6318771 36.1428708,23.3204923 36.1428708,22.9368219 C36.1428708,22.5531514 35.8314861,22.2417666 35.4478156,22.2417666 L21.5467114,22.2417666 C21.163041,22.2417666 20.8516562,22.5531514 20.8516562,22.9368219 C20.8516562,23.3204923 21.163041,23.6318771 21.5467114,23.6318771 L35.4478156,23.6318771 Z M35.4478156,11.1208833 L21.5467114,11.1208833 C21.163041,11.1208833 20.8516562,11.4322681 20.8516562,11.8159385 C20.8516562,12.199609 21.163041,12.5109937 21.5467114,12.5109937 L35.4478156,12.5109937 C35.8314861,12.5109937 36.1428708,12.199609 36.1428708,11.8159385 C36.1428708,11.4322681 35.8314861,11.1208833 35.4478156,11.1208833 Z M4.17033125,35.4478156 C4.17033125,36.5974369 5.10587556,37.5329812 6.25549687,37.5329812 C7.40511818,37.5329812 8.34066249,36.5974369 8.34066249,35.4478156 C8.34066249,34.2981943 7.40511818,33.36265 6.25549687,33.36265 C5.10587556,33.36265 4.17033125,34.2981943 4.17033125,35.4478156 Z M6.95055208,35.4478156 C6.95055208,35.8314861 6.63916734,36.1428708 6.25549687,36.1428708 C5.87182639,36.1428708 5.56044166,35.8314861 5.56044166,35.4478156 C5.56044166,35.0641451 5.87182639,34.7527604 6.25549687,34.7527604 C6.63916734,34.7527604 6.95055208,35.0641451 6.95055208,35.4478156 Z M4.17033125,24.3269323 C4.17033125,25.4765536 5.10587556,26.4120979 6.25549687,26.4120979 C7.40511818,26.4120979 8.34066249,25.4765536 8.34066249,24.3269323 C8.34066249,23.177311 7.40511818,22.2417666 6.25549687,22.2417666 C5.10587556,22.2417666 4.17033125,23.177311 4.17033125,24.3269323 Z M6.95055208,24.3269323 C6.95055208,24.7106027 6.63916734,25.0219875 6.25549687,25.0219875 C5.87182639,25.0219875 5.56044166,24.7106027 5.56044166,24.3269323 C5.56044166,23.9432618 5.87182639,23.6318771 6.25549687,23.6318771 C6.63916734,23.6318771 6.95055208,23.9432618 6.95055208,24.3269323 Z M40.9887957,8.88697589 C40.9665539,8.78688794 40.929021,8.68958021 40.8609056,8.60339336 L35.3004639,1.58194565 C34.5053207,0.576895822 33.312606,0 32.0309242,0 L9.38463541,0 C8.07932173,0 6.83100258,0.624159577 6.04837042,1.6681325 L0.83545636,8.61868458 C0.772901391,8.70070109 0.73675852,8.79383849 0.715906864,8.888366 C0.2669012,9.56673988 0.00139011042,10.3785644 0.00139011042,11.2515537 L0.00139011042,15.1619343 C0.00139011042,16.6743744 0.789582716,18.0005398 1.97395679,18.7664906 C0.789582716,19.5338316 0,20.8599969 0,22.372437 L0,26.2828176 C0,27.7952578 0.788192606,29.1214231 1.97256668,29.888764 C0.789582716,30.6547149 0,31.9808802 0,33.4933203 L0,37.4037009 C0,39.7738392 1.92808315,41.7033125 4.29961151,41.7033125 L17.1247702,41.7033125 C17.5084407,41.7033125 17.8198254,41.3919277 17.8198254,41.0082573 C17.8198254,40.6245868 17.5084407,40.313202 17.1247702,40.313202 L4.29961151,40.313202 C2.6954241,40.313202 1.39011042,39.0078884 1.39011042,37.4037009 L1.39011042,33.4933203 C1.39011042,31.8891329 2.6954241,30.5838192 4.29961151,30.5838192 L20.2664197,30.5838192 C20.2692,30.5838192 20.2705901,30.5824291 20.2733703,30.5824291 L20.3373154,30.5824291 C20.7209859,30.5824291 21.0309805,30.2710444 21.0309805,29.8873739 C21.0309805,29.5037035 20.7195957,29.1923187 20.3359253,29.1923187 L4.2982214,29.1923187 C2.69403399,29.1923187 1.38872031,27.887005 1.38872031,26.2828176 L1.38872031,22.372437 C1.38872031,20.7682496 2.69403399,19.4629359 4.2982214,19.4629359 L37.4009207,19.4629359 C39.0051081,19.4629359 40.3104218,20.7682496 40.3104218,22.372437 L40.3104218,26.2828176 C40.3104218,27.0918619 39.9865261,27.8425215 39.3985094,28.3985657 C39.1190972,28.6626867 39.1065862,29.1019615 39.3707072,29.3813737 C39.6348282,29.6593958 40.0741031,29.6732969 40.3535152,29.4091759 C41.2098233,28.6001317 41.7019224,27.4616313 41.7019224,26.2828176 L41.7019224,22.372437 C41.7019224,20.8599969 40.9137297,19.5338316 39.7293557,18.7678807 C40.9137297,18.0005398 41.7033125,16.6743744 41.7033125,15.1619343 L41.7033125,11.2515537 C41.7033125,10.3785644 41.4378014,9.56673988 40.9887957,8.88697589 Z M7.15906864,2.50080864 C7.68175016,1.80436332 8.51303618,1.38872031 9.3832453,1.38872031 L32.0295341,1.38872031 C32.884452,1.38872031 33.6795951,1.77378089 34.2092272,2.44381411 L37.8110033,6.9936455 C37.6747725,6.98113451 37.542712,6.95194219 37.4037009,6.95194219 L4.30100163,6.95194219 C4.12306749,6.95194219 3.95347402,6.98391473 3.78110033,7.00476638 L7.15906864,2.50080864 Z M40.3118119,15.1605442 C40.3118119,16.7647316 39.0064983,18.0700453 37.4023108,18.0700453 L4.29961151,18.0700453 C2.6954241,18.0700453 1.39011042,16.7647316 1.39011042,15.1605442 L1.39011042,11.2501636 C1.39011042,9.64597617 2.6954241,8.34066249 4.29961151,8.34066249 L37.4023108,8.34066249 C39.0064983,8.34066249 40.3118119,9.64597617 40.3118119,11.2501636 L40.3118119,15.1605442 Z M35.4478156,13.9011042 L21.5467114,13.9011042 C21.163041,13.9011042 20.8516562,14.2124889 20.8516562,14.5961594 C20.8516562,14.9798298 21.163041,15.2912146 21.5467114,15.2912146 L35.4478156,15.2912146 C35.8314861,15.2912146 36.1428708,14.9798298 36.1428708,14.5961594 C36.1428708,14.2124889 35.8314861,13.9011042 35.4478156,13.9011042 Z M6.25549687,11.1208833 C5.10587556,11.1208833 4.17033125,12.0564276 4.17033125,13.2060489 C4.17033125,14.3556703 5.10587556,15.2912146 6.25549687,15.2912146 C7.40511818,15.2912146 8.34066249,14.3556703 8.34066249,13.2060489 C8.34066249,12.0564276 7.40511818,11.1208833 6.25549687,11.1208833 Z M6.25549687,13.9011042 C5.87182639,13.9011042 5.56044166,13.5897194 5.56044166,13.2060489 C5.56044166,12.8223785 5.87182639,12.5109937 6.25549687,12.5109937 C6.63916734,12.5109937 6.95055208,12.8223785 6.95055208,13.2060489 C6.95055208,13.5897194 6.63916734,13.9011042 6.25549687,13.9011042 Z" id="Shape" fill="#000000" fill-rule="nonzero"></path>
                <path d="M35.8759696,40.313202 L22.1889425,40.313202 C20.6862331,40.313202 19.4629359,39.066273 19.4629359,37.5329812 C19.4629359,35.9996894 20.684843,34.7527604 22.1889425,34.7527604 C22.5726129,34.7527604 22.8839977,34.4413757 22.8839977,34.0577052 C22.8839977,30.6088412 25.6419767,27.8022083 29.032456,27.8022083 C31.2274404,27.8022083 33.2722928,29.032456 34.3676998,31.0119733 C34.5108812,31.2719239 34.8028044,31.4109349 35.0988979,31.3595009 C35.3532881,31.3122371 35.6104585,31.2774843 35.8759696,31.2774843 C38.3225639,31.2774843 40.313202,33.3042653 40.313202,35.7953432 C40.313202,38.2864211 38.3225639,40.313202 35.8759696,40.313202 Z" id="Path" fill="#0DABA0"></path>
            </g>
        </g>
    </g>
</svg>
