<?xml version="1.0" encoding="utf-8"?>
<!-- Generator: Adobe Illustrator 23.0.0, SVG Export Plug-In . SVG Version: 6.00 Build 0)  -->
<svg version="1.1" id="Layer_1" xmlns="http://www.w3.org/2000/svg" xmlns:xlink="http://www.w3.org/1999/xlink" x="0px" y="0px"
	 width="65px" height="65px" viewBox="0 0 65 65" style="enable-background:new 0 0 65 65;" xml:space="preserve">
<style type="text/css">
	.st0{fill-rule:evenodd;clip-rule:evenodd;fill:#EE0533;}
	.st1{fill:#FFFFFF;}
</style>
<g id="Page-1">
	<g id="Home-1" transform="translate(-296.000000, -619.000000)">
		<g id="Group-21" transform="translate(296.873099, 619.492923)">
			<circle id="Oval" class="st0" cx="32" cy="32" r="32"/>
			<g id="Shape-3" transform="translate(17.655172, 16.098897)">
				<path id="Shape" class="st1" d="M21.2,25.7H1.9c-1.1,0-1.9,0.9-1.9,1.9V29c0,1.1,0.9,1.9,1.9,1.9h19.3c1.1,0,1.9-0.9,1.9-1.9
					v-1.3C23.2,26.6,22.3,25.7,21.2,25.7z M3.2,29.6c-0.4,0-0.6-0.3-0.6-0.6s0.3-0.6,0.6-0.6s0.6,0.3,0.6,0.6S3.6,29.6,3.2,29.6z
					 M20,29.6h-5.1c-0.4,0-0.6-0.3-0.6-0.6s0.3-0.6,0.6-0.6H20c0.4,0,0.6,0.3,0.6,0.6S20.3,29.6,20,29.6z M21.2,19.3H1.9
					c-1.1,0-1.9,0.9-1.9,1.9v1.3c0,1.1,0.9,1.9,1.9,1.9h19.3c1.1,0,1.9-0.9,1.9-1.9v-1.3C23.2,20.2,22.3,19.3,21.2,19.3z M3.2,23.2
					c-0.4,0-0.6-0.3-0.6-0.6S2.9,22,3.2,22s0.6,0.3,0.6,0.6S3.6,23.2,3.2,23.2z M20,23.2h-5.1c-0.4,0-0.6-0.3-0.6-0.6
					s0.3-0.6,0.6-0.6H20c0.4,0,0.6,0.3,0.6,0.6S20.3,23.2,20,23.2z"/>
				<path id="Path" class="st1" d="M24.3,7.8C23.4,3.3,19.4,0,14.8,0C9.5,0,5.1,4.3,5.1,9.7c0,0.2,0,0.4,0,0.7
					C2.3,10.6,0,13.1,0,16.1c0,0.5,0.1,1,0.3,1.6c0.1,0.3,0.5,0.5,0.8,0.4c0.3,0,0.6-0.1,0.8-0.1h19.3c1.7,0,3.1,1.4,3.2,3.1
					c0,0.2,0.1,0.4,0.2,0.5s0.3,0.1,0.4,0.1h0.1c3.3-0.7,5.7-3.6,5.7-6.9C30.9,11.1,28,8,24.3,7.8z"/>
			</g>
		</g>
	</g>
</g>
</svg>
