<?xml version="1.0" encoding="UTF-8"?>
<svg width="65px" height="65px" viewBox="0 0 65 65" version="1.1" xmlns="http://www.w3.org/2000/svg" xmlns:xlink="http://www.w3.org/1999/xlink">
    <!-- Generator: Sketch 54.1 (76490) - https://sketchapp.com -->
    <title>Group 21@1x</title>
    <desc>Created with Sketch.</desc>
    <g id="Page-1" stroke="none" stroke-width="1" fill="none" fill-rule="evenodd">
        <g id="Home-1" transform="translate(-296.000000, -619.000000)">
            <g id="Group-21" transform="translate(296.873099, 619.492923)">
                <circle id="Oval" fill="#0DABA0" cx="32" cy="32" r="32"></circle>
                <g id="Shape-3" transform="translate(17.655172, 16.098897)" fill="#FFFFFF" fill-rule="nonzero">
                    <path d="M21.2413793,25.7471264 L1.93103448,25.7471264 C0.866390805,25.7471264 0,26.6135172 0,27.6781609 L0,28.9655172 C0,30.0301609 0.866390805,30.8965517 1.93103448,30.8965517 L21.2413793,30.8965517 C22.306023,30.8965517 23.1724138,30.0301609 23.1724138,28.9655172 L23.1724138,27.6781609 C23.1724138,26.6135172 22.306023,25.7471264 21.2413793,25.7471264 Z M3.2183908,29.6091954 C2.86308046,29.6091954 2.57471264,29.3208276 2.57471264,28.9655172 C2.57471264,28.6102069 2.86308046,28.3218391 3.2183908,28.3218391 C3.57370115,28.3218391 3.86206897,28.6102069 3.86206897,28.9655172 C3.86206897,29.3208276 3.57370115,29.6091954 3.2183908,29.6091954 Z M19.954023,29.6091954 L14.8045977,29.6091954 C14.4492874,29.6091954 14.1609195,29.3208276 14.1609195,28.9655172 C14.1609195,28.6102069 14.4492874,28.3218391 14.8045977,28.3218391 L19.954023,28.3218391 C20.3093333,28.3218391 20.5977011,28.6102069 20.5977011,28.9655172 C20.5977011,29.3208276 20.3093333,29.6091954 19.954023,29.6091954 Z M21.2413793,19.3103448 L1.93103448,19.3103448 C0.866390805,19.3103448 0,20.1767356 0,21.2413793 L0,22.5287356 C0,23.5933793 0.866390805,24.4597701 1.93103448,24.4597701 L21.2413793,24.4597701 C22.306023,24.4597701 23.1724138,23.5933793 23.1724138,22.5287356 L23.1724138,21.2413793 C23.1724138,20.1767356 22.306023,19.3103448 21.2413793,19.3103448 Z M3.2183908,23.1724138 C2.86308046,23.1724138 2.57471264,22.884046 2.57471264,22.5287356 C2.57471264,22.1734253 2.86308046,21.8850575 3.2183908,21.8850575 C3.57370115,21.8850575 3.86206897,22.1734253 3.86206897,22.5287356 C3.86206897,22.884046 3.57370115,23.1724138 3.2183908,23.1724138 Z M19.954023,23.1724138 L14.8045977,23.1724138 C14.4492874,23.1724138 14.1609195,22.884046 14.1609195,22.5287356 C14.1609195,22.1734253 14.4492874,21.8850575 14.8045977,21.8850575 L19.954023,21.8850575 C20.3093333,21.8850575 20.5977011,22.1734253 20.5977011,22.5287356 C20.5977011,22.884046 20.3093333,23.1724138 19.954023,23.1724138 Z" id="Shape"></path>
                    <path d="M24.2615172,7.75374713 C23.368092,3.29691954 19.394023,0 14.8045977,0 C9.48009195,0 5.14942529,4.33066667 5.14942529,9.65517241 C5.14942529,9.87273563 5.15843678,10.0954483 5.17774713,10.3310345 C2.27218391,10.6387126 0,13.1052874 0,16.091954 C0,16.6081839 0.0823908046,17.1282759 0.260045977,17.7268966 C0.36045977,18.0667586 0.711908046,18.2611494 1.05434483,18.1633103 C1.38648276,18.068046 1.66583908,18.0242759 1.93103448,18.0242759 L21.2413793,18.0242759 C22.9805977,18.0242759 24.3889655,19.3914483 24.4468966,21.1358161 C24.4533333,21.3250575 24.5421609,21.5014253 24.6902069,21.6185747 C24.8047816,21.7086897 24.9451034,21.7576092 25.0892874,21.7576092 C25.1317701,21.7576092 25.1742529,21.7537471 25.2167356,21.7447356 C28.5072184,21.0830345 30.8965517,18.1645977 30.8965517,14.8045977 C30.8965517,11.0828506 28.0102989,8.0228046 24.2615172,7.75374713 Z" id="Path"></path>
                </g>
            </g>
        </g>
    </g>
</svg>
