<?xml version="1.0" encoding="UTF-8"?>
<svg width="41px" height="41px" viewBox="0 0 41 41" version="1.1" xmlns="http://www.w3.org/2000/svg" xmlns:xlink="http://www.w3.org/1999/xlink">
    <!-- Generator: Sketch 54.1 (76490) - https://sketchapp.com -->
    <title>domain_color_icn</title>
    <desc>Created with Sketch.</desc>
    <g id="UI" stroke="none" stroke-width="1" fill="none" fill-rule="evenodd">
        <g id="DỊch-vụ-Cloud" transform="translate(-369.000000, -1920.000000)">
            <g id="domain_color_icn" transform="translate(369.351759, 1920.484575)">
                <path d="M27.7840426,38.3684397 L27.7840426,34.0430851 C27.7840426,33.5093003 28.2171017,33.0762411 28.7508865,33.0762411 C29.2846713,33.0762411 29.7177305,33.5093003 29.7177305,34.0430851 L29.7177305,39.3352837 C29.7177305,39.8690685 29.2846713,40.3021277 28.7508865,40.3021277 L0.966843972,40.3021277 C0.43305916,40.3021277 1.42108547e-14,39.8690685 1.42108547e-14,39.3352837 L1.42108547e-14,11.5512411 C1.42108547e-14,11.4240941 0.0257167239,11.2989071 0.073436372,11.1824999 C0.0953297017,11.1277665 0.117587824,11.0936253 0.156856238,11.0422372 L0.160914842,11.0369314 L0.172998829,11.020688 L0.184869716,11.0006652 C0.219859584,10.9399685 0.240356724,10.9092228 0.282591157,10.8669883 L10.870442,0.279191904 C10.9233047,0.227981106 10.9676335,0.198733748 11.0477232,0.153433003 L11.0548386,0.149411051 C11.0659518,0.143124515 11.0659518,0.143124515 11.062552,0.145564927 L11.0641593,0.143838204 C11.0948894,0.118711582 11.1298419,0.0949973036 11.1787853,0.0744047077 C11.2973772,0.0258014951 11.4239505,5.68434189e-14 11.5512411,5.68434189e-14 L28.7508865,5.68434189e-14 C29.2846713,5.68434189e-14 29.7177305,0.43305916 29.7177305,0.966843972 L29.7177305,20.8125887 C29.7177305,21.3463735 29.2846713,21.7794326 28.7508865,21.7794326 C28.2171017,21.7794326 27.7840426,21.3463735 27.7840426,20.8125887 L27.7840426,1.93368794 L12.5180851,1.93368794 L12.5180851,11.5512411 C12.5180851,12.0850259 12.0850259,12.5180851 11.5512411,12.5180851 L1.93368794,12.5180851 L1.93368794,38.3684397 L27.7840426,38.3684397 Z M26.4814723,23.2704902 C26.587577,22.7476769 27.1096594,22.4026538 27.6184843,22.5122842 C28.142432,22.6166871 28.482601,23.1254459 28.3781674,23.6495479 L27.0550625,30.2650715 C26.9737133,30.6698804 26.6443115,30.978764 26.2326248,31.0331302 C26.1899851,31.0384602 26.147762,31.0407801 26.1047872,31.0407801 C25.7394157,31.0407801 25.4056871,30.8356986 25.2403159,30.5068773 L23.4586878,26.9447683 L21.6765015,30.5079884 C21.4918557,30.8734332 21.1010262,31.0794772 20.6839663,31.0328593 C20.2743875,30.978764 19.9449856,30.6698804 19.8635812,30.2647961 L18.5407026,23.650397 C18.4342624,23.1259367 18.7748247,22.6165895 19.2940142,22.5135867 C19.8057153,22.4005365 20.3310946,22.7475425 20.4372266,23.2704902 L21.2074413,27.1226422 L22.5943602,24.3498327 C22.9319128,23.6767131 23.9867861,23.6767131 24.3244797,24.3501141 L25.7112577,27.1226422 L26.4814723,23.2704902 Z M40.2856142,23.6495479 L38.9625093,30.2650715 C38.8811602,30.6698804 38.5517583,30.978764 38.1400716,31.0331302 C38.0974319,31.0384602 38.0552089,31.0407801 38.012234,31.0407801 C37.6468625,31.0407801 37.3131339,30.8356986 37.1477627,30.5068773 L35.3661346,26.9447683 L33.5839483,30.5079884 C33.3993025,30.8734332 33.008473,31.0794772 32.5914131,31.0328593 C32.1818343,30.978764 31.8524324,30.6698804 31.771028,30.2647961 L30.4481495,23.650397 C30.3417092,23.1259367 30.6822715,22.6165895 31.2019444,22.5134803 C31.7155197,22.4008888 32.2384471,22.7470777 32.3446734,23.2704902 L33.1148881,27.1226422 L34.501807,24.3498327 C34.8393596,23.6767131 35.8942329,23.6767131 36.2319265,24.3501141 L37.6187047,27.1226425 L38.3890934,23.269625 C38.4948095,22.748733 39.0166299,22.4035713 39.5283632,22.5127722 C40.0509316,22.6182631 40.3898861,23.1262577 40.2856142,23.6495479 Z M14.5740255,23.2704902 C14.680036,22.7481414 15.2045627,22.4023062 15.7110375,22.5122842 C16.2349852,22.6166871 16.5751542,23.1254459 16.4707206,23.6495479 L15.1476157,30.2650715 C15.0662665,30.6698804 14.7368647,30.978764 14.325178,31.0331302 C14.2825383,31.0384602 14.2403152,31.0407801 14.1973404,31.0407801 C13.8319689,31.0407801 13.4982403,30.8356986 13.3328691,30.5068773 L11.5512409,26.9447683 L9.76905467,30.5079884 C9.5838913,30.8744575 9.19786727,31.0791098 8.77651953,31.0328593 C8.36694065,30.978764 8.03753878,30.6698804 7.95613441,30.2647961 L6.63325584,23.650397 C6.52681556,23.1259367 6.86737791,22.6165895 7.38705076,22.5134803 C7.90062609,22.4008888 8.42355347,22.7470777 8.52977981,23.2704902 L9.29999445,27.1226422 L10.6869134,24.3498327 C11.024466,23.6767131 12.0793393,23.6767131 12.4170329,24.3501141 L13.8038109,27.1226422 L14.5740255,23.2704902 Z" id="Shape" fill="#353638" fill-rule="nonzero"></path>
                <polyline id="Shape" fill="white" points="10.6482407 2.89559762 10.6482407 10.5154246 3.02841366 10.5154246"></polyline>
            </g>
        </g>
    </g>
</svg>
