<?xml version="1.0" encoding="UTF-8"?>
<svg width="65px" height="65px" viewBox="0 0 65 65" version="1.1" xmlns="http://www.w3.org/2000/svg" xmlns:xlink="http://www.w3.org/1999/xlink">
    <!-- Generator: Sketch 54.1 (76490) - https://sketchapp.com -->
    <title>Group 6@1x</title>
    <desc>Created with Sketch.</desc>
    <g id="Page-1" stroke="none" stroke-width="1" fill="none" fill-rule="evenodd">
        <g id="Home-1" transform="translate(-1070.000000, -619.000000)">
            <g id="Group-6" transform="translate(1070.126901, 619.492923)">
                <g id="Group-19" fill="#0DABA0">
                    <circle id="Oval-Copy-8" cx="32" cy="32" r="32"></circle>
                </g>
                <g id="Shape-4" transform="translate(19.500000, 17.500000)" fill="#FFFFFF" fill-rule="nonzero">
                    <path d="M11.52,16.8 C11.16,16.68 10.92,16.92 10.8,17.28 L10.08,20.4 L9,17.88 C8.76,17.4 8.04,17.4 7.92,17.88 L6.84,20.4 L6.12,17.28 C6,16.92 5.76,16.8 5.4,16.8 C5.04,16.92 4.92,17.16 4.92,17.52 L6.12,22.32 C6.24,22.56 6.36,22.8 6.6,22.8 C6.84,22.8 7.08,22.68 7.2,22.44 L8.4,19.56 L9.6,22.44 C9.72,22.68 9.96,22.8 10.2,22.8 C10.2,22.8 10.2,22.8 10.2,22.8 C10.44,22.8 10.68,22.56 10.68,22.32 L11.88,17.52 C12.12,17.16 11.88,16.92 11.52,16.8 Z M28.32,16.8 C27.96,16.68 27.72,16.92 27.6,17.28 L26.88,20.4 L25.8,17.88 C25.56,17.4 24.84,17.4 24.72,17.88 L23.64,20.4 L22.92,17.28 C22.8,16.92 22.56,16.8 22.2,16.8 C21.84,16.92 21.72,17.16 21.72,17.52 L22.92,22.32 C23.04,22.56 23.16,22.8 23.4,22.8 C23.64,22.8 23.88,22.68 24,22.44 L25.2,19.56 L26.4,22.44 C26.52,22.68 26.76,22.8 27,22.8 C27,22.8 27,22.8 27,22.8 C27.24,22.8 27.48,22.56 27.48,22.32 L28.68,17.52 C28.92,17.16 28.68,16.92 28.32,16.8 Z M19.92,16.8 C19.56,16.68 19.32,16.92 19.2,17.28 L18.48,20.4 L17.4,17.88 C17.16,17.4 16.44,17.4 16.32,17.88 L15.24,20.4 L14.52,17.28 C14.4,16.92 14.16,16.8 13.8,16.8 C13.44,16.92 13.32,17.16 13.32,17.52 L14.52,22.32 C14.64,22.56 14.76,22.8 15,22.8 C15.24,22.8 15.48,22.68 15.6,22.44 L16.8,19.56 L18,22.44 C18.12,22.68 18.36,22.8 18.6,22.8 C18.6,22.8 18.6,22.8 18.6,22.8 C18.84,22.8 19.08,22.56 19.08,22.32 L20.28,17.52 C20.52,17.16 20.28,16.92 19.92,16.8 Z" id="Shape"></path>
                    <path d="M21.12,21.84 C21.36,21.96 21.6,22.2 21.6,22.44 L21.6,28.2 C21.6,28.56 21.36,28.8 21,28.8 L0.6,28.8 C0.24,28.8 1.50990331e-13,28.56 1.50990331e-13,28.2 L1.50990331e-13,7.8 C1.50990331e-13,7.68 1.50990331e-13,7.68 1.50990331e-13,7.68 C1.50990331e-13,7.56 1.50990331e-13,7.56 1.50990331e-13,7.56 C1.50990331e-13,7.44 1.50990331e-13,7.44 0.12,7.32 L7.32,0.12 C7.32,0.12 7.44,-4.03233003e-13 7.56,-4.03233003e-13 C7.68,-4.03233003e-13 7.68,-4.03233003e-13 7.68,-4.03233003e-13 C7.8,-4.03233003e-13 7.8,-4.03233003e-13 7.8,-4.03233003e-13 L21,-4.03233003e-13 C21.36,-4.03233003e-13 21.6,0.24 21.6,0.6 L21.6,15.36 C21.6,15.48 21.48,15.72 21.24,15.84 C21,15.96 20.88,15.96 20.64,15.84 C20.4,15.72 20.28,15.6 20.16,15.6 C19.56,15.48 18.84,15.72 18.36,16.2 C18.24,16.44 17.88,16.44 17.64,16.32 C17.16,16.08 16.44,16.08 15.96,16.32 C15.72,16.44 15.48,16.44 15.24,16.2 C14.88,15.72 14.16,15.48 13.44,15.6 C13.32,15.72 13.08,15.72 12.96,15.84 C12.72,15.96 12.6,15.96 12.36,15.84 C12.12,15.72 12,15.6 11.88,15.6 C11.28,15.48 10.56,15.72 10.08,16.2 C9.96,16.44 9.6,16.44 9.36,16.32 C8.88,16.08 8.16,16.08 7.68,16.32 C7.44,16.44 7.2,16.44 6.96,16.2 C6.6,15.72 5.88,15.48 5.16,15.6 C4.2,15.84 3.6,16.8 3.84,17.76 L5.04,22.56 C5.16,23.28 5.88,23.76 6.6,23.88 C7.08,23.88 7.68,23.76 8.04,23.28 C8.16,23.16 8.28,23.04 8.52,23.04 C8.76,23.04 8.88,23.16 9,23.28 C9.36,23.64 9.84,23.88 10.32,23.88 L10.44,23.88 C11.16,23.88 11.76,23.28 12,22.56 L12.12,22.32 C12.24,21.84 13.2,21.84 13.32,22.32 L13.44,22.56 C13.56,23.28 14.28,23.76 15,23.88 C15.48,23.88 16.08,23.76 16.44,23.28 C16.56,23.16 16.68,23.04 16.92,23.04 C17.16,23.04 17.28,23.16 17.4,23.28 C17.76,23.64 18.24,23.88 18.72,23.88 L18.84,23.88 C19.56,23.88 20.16,23.28 20.4,22.56 L20.52,22.32 C20.52,21.96 20.76,21.84 21.12,21.84 Z M7.2,2.04 L2.04,7.2 L7.2,7.2 L7.2,2.04 Z" id="Combined-Shape"></path>
                </g>
            </g>
        </g>
    </g>
</svg>
