<?xml version="1.0" encoding="UTF-8"?>
<svg width="44px" height="43px" viewBox="0 0 44 43" version="1.1" xmlns="http://www.w3.org/2000/svg" xmlns:xlink="http://www.w3.org/1999/xlink">
    <!-- Generator: Sketch 54.1 (76490) - https://sketchapp.com -->
    <title>email_host_color_icn</title>
    <desc>Created with Sketch.</desc>
    <g id="UI" stroke="none" stroke-width="1" fill="none" fill-rule="evenodd">
        <g id="DỊch-vụ-Cloud" transform="translate(-1014.000000, -1920.000000)">
            <g id="email_host_color_icn" transform="translate(1014.283762, 1920.906668)">
                <path d="M0.302412277,9.02372523 C1.44027537,8.69285119 2.00920692,8.18317589 2.00920692,7.49469933 C2.00920692,6.46198449 6.67644325,0.955392691 17.5568143,0.955392691 C24.8103951,0.955392691 30.6760363,2.86717654 35.1537382,6.69074425 L33.4469435,9.45145961 C29.7067092,12.9965442 24.1826206,14.7690866 16.8746779,14.7690866 C9.56673519,14.7690866 4.04264665,12.8539661 0.302412277,9.02372523 Z" id="Path-5" fill="#0DABA0"></path>
                <path d="M39.5855545,35.0777768 C38.4227262,35.0777768 37.8316656,34.1920629 37.8316656,32.4469435 C37.8316656,30.0283308 35.8655562,28.0622214 33.4469435,28.0622214 C31.0283308,28.0622214 29.0622214,30.0283308 29.0622214,32.4469435 C29.0622214,34.8655562 31.0283308,36.8316656 33.4469435,36.8316656 C34.7781452,36.8316656 35.9585123,36.2230662 36.7635473,35.2829818 C37.3598695,36.2721751 38.3192467,36.8316656 39.5855545,36.8316656 C43.0933321,36.8316656 43.0933321,33.5308468 43.0933321,32.4469435 C43.0933321,27.1291526 38.7647345,22.8005549 33.4469435,22.8005549 C28.1291526,22.8005549 23.8005549,27.1291526 23.8005549,32.4469435 C23.8005549,37.7647345 28.1291526,42.0933321 33.4469435,42.0933321 C35.9672818,42.0933321 38.3473089,41.1286933 40.1538144,39.3800661 C40.5028383,39.0433195 40.5116078,38.4873367 40.1748611,38.1400667 C39.8381145,37.7927967 39.2838856,37.7840273 38.9348617,38.11902 C37.4563334,39.5519472 35.5077629,40.3394433 33.4469435,40.3394433 C29.0955453,40.3394433 25.5544438,36.7983417 25.5544438,32.4469435 C25.5544438,28.0955453 29.0955453,24.5544438 33.4469435,24.5544438 C37.7983417,24.5544438 41.3394433,28.0955453 41.3394433,32.4469435 C41.3394433,34.4130529 40.8974633,35.0777768 39.5855545,35.0777768 Z M33.4469435,35.0777768 C31.9964775,35.0777768 30.8161103,33.8974096 30.8161103,32.4469435 C30.8161103,30.9964775 31.9964775,29.8161103 33.4469435,29.8161103 C34.8974096,29.8161103 36.0777768,30.9964775 36.0777768,32.4469435 C36.0777768,33.8974096 34.8974096,35.0777768 33.4469435,35.0777768 Z M24.2951516,39.8886939 C22.42726,40.1886089 20.4892128,40.3394433 18.5388884,40.3394433 C9.23626199,40.3394433 2.75388884,37.1035184 2.75388884,34.2008324 L2.75388884,28.9075958 C5.56537265,31.5419369 11.4970247,33.3238879 18.5388884,33.3238879 C19.4579261,33.3238879 20.3524095,33.2870563 21.2346155,33.2256702 C21.7186889,33.1941002 22.0834977,32.7749207 22.0501738,32.2908474 C22.0186039,31.8067741 21.590655,31.445473 21.1153511,31.4752891 C20.2734845,31.5331674 19.4175867,31.5699991 18.5388884,31.5699991 C9.23626199,31.5699991 2.75388884,28.3340742 2.75388884,25.4313882 L2.75388884,20.1381517 C5.56537265,22.7724927 11.4970247,24.5544438 18.5388884,24.5544438 C21.0399339,24.5544438 23.4743316,24.3229304 25.7771876,23.8686732 C26.2542454,23.7739632 26.5629298,23.3144443 26.4682198,22.8391405 C26.3752637,22.3620827 25.9017137,22.0498905 25.4386871,22.1481083 C23.246326,22.5813188 20.9241772,22.8005549 18.5388884,22.8005549 C9.23626199,22.8005549 2.75388884,19.56463 2.75388884,16.661944 L2.75388884,11.3687075 C5.56537265,14.0030485 11.4970247,15.7849996 18.5388884,15.7849996 C25.5807521,15.7849996 31.5124041,14.0030485 34.3238879,11.3687075 L34.3238879,16.6636979 C34.3238879,17.8528345 33.2785702,18.8560589 32.4016258,19.485705 C32.0087547,19.769835 31.9193063,20.3170483 32.2016825,20.7099194 C32.3735636,20.9484483 32.6419086,21.0747283 32.9137613,21.0747283 C33.092658,21.0747283 33.2715546,21.0203577 33.4258969,20.9098627 C33.7661513,20.6660722 34.0467735,20.4064966 34.3238879,20.1469211 L34.3238879,20.3100328 C34.3238879,20.7941061 34.716759,21.1869772 35.2008324,21.1869772 C35.6849057,21.1869772 36.0777768,20.7941061 36.0777768,20.3100328 L36.0777768,7.89249978 C36.0777768,3.46743824 28.3729431,0 18.5388884,0 C8.70483367,0 1,3.46743824 1,7.89249978 L1,34.2008324 C1,38.6258939 8.70483367,42.0933321 18.5388884,42.0933321 C20.5821689,42.0933321 22.6114183,41.9337283 24.572266,41.621536 C25.0493238,41.5443649 25.3755471,41.0953694 25.3001299,40.6165577 C25.2212049,40.1377461 24.777471,39.8202922 24.2951516,39.8886939 Z M18.5388884,1.75388884 C27.8415148,1.75388884 34.3238879,4.98981375 34.3238879,7.89249978 C34.3238879,10.7951858 27.8415148,14.0311107 18.5388884,14.0311107 C9.23626199,14.0311107 2.75388884,10.7951858 2.75388884,7.89249978 C2.75388884,4.98981375 9.23626199,1.75388884 18.5388884,1.75388884 Z" id="Shape" fill="#353638" fill-rule="nonzero"></path>
            </g>
        </g>
    </g>
</svg>
