<svg id="Layer_1" data-name="Layer 1" xmlns="http://www.w3.org/2000/svg" width="312" height="260" viewBox="0 0 312 260"><defs><style>.cls-1{fill:#e51c1c;}.cls-2{fill:#fcfcfc;}.cls-3{fill:#fff;}</style></defs><title>401</title><path class="cls-1" d="M263.5,114.6a73.36,73.36,0,0,0,1.4-14.1A70.94,70.94,0,0,0,134.6,61.7a55.39,55.39,0,0,0-83.9,47.4,47,47,0,0,0,.3,5.3A52.08,52.08,0,0,0,3.2,166.3h0a52.07,52.07,0,0,0,52,52.1H256.5a52.07,52.07,0,0,0,52.1-52v-.06h0A51.9,51.9,0,0,0,263.5,114.6Z"/><path class="cls-2" d="M124.4,185.53a.87.87,0,0,1-.6.2H113a9.91,9.91,0,0,1-3.2-.5,5.84,5.84,0,0,1-2-1.4,5.3,5.3,0,0,1-1.1-2.1,11.33,11.33,0,0,1-.3-2.6v-13.9a10.55,10.55,0,0,1,.3-2.5,5.3,5.3,0,0,1,1.1-2.1,6.26,6.26,0,0,1,2-1.5,6.83,6.83,0,0,1,3-.5h10.6a.87.87,0,0,1,.6.2c.1.1.1.3.1.6V161c0,.3,0,.5-.1.6a.87.87,0,0,1-.6.2H112.9a2.53,2.53,0,0,0-3,2.9v5h12.3a.87.87,0,0,1,.6.2c.1.1.1.3.1.6V172c0,.3,0,.5-.1.6a.87.87,0,0,1-.6.2H110v6.7a2.83,2.83,0,0,0,.7,2.1,3.29,3.29,0,0,0,2.4.8h10.7a.87.87,0,0,1,.6.2c.1.1.1.3.1.6v1.6C124.6,185.23,124.5,185.43,124.4,185.53Z"/><path class="cls-2" d="M129,160.53a2.07,2.07,0,0,1,.4-1.5,2.2,2.2,0,0,1,1.6-.5h8.9a9.41,9.41,0,0,1,3.4.6,7.59,7.59,0,0,1,2.6,1.6,7.94,7.94,0,0,1,1.7,2.4,7.85,7.85,0,0,1,.6,3.1,7.28,7.28,0,0,1-1.2,4.1,6.16,6.16,0,0,1-3.2,2.5v.2a3.9,3.9,0,0,1,2.3,1.5,8.56,8.56,0,0,1,1.1,2.4l2.2,8.2a.3.3,0,0,1,0,.4c0,.2-.2.3-.5.3h-2.6a.63.63,0,0,1-.4-.1,1.31,1.31,0,0,1-.3-.4l-2.1-7.4a8.8,8.8,0,0,0-.8-1.9,3.45,3.45,0,0,0-1.2-1.2,4.77,4.77,0,0,0-1.5-.6,9.92,9.92,0,0,0-1.8-.2h-5.5v11c0,.3-.1.5-.2.5a3.54,3.54,0,0,1-.6.1h-2.2a1.12,1.12,0,0,1-.6-.1.72.72,0,0,1-.2-.5v-24.5Zm15.4,5.8a9.59,9.59,0,0,0-.2-1.6,5.7,5.7,0,0,0-.8-1.5,3.78,3.78,0,0,0-1.6-1.1,5.78,5.78,0,0,0-2.4-.4h-6.7v9.1h6.5a6.12,6.12,0,0,0,2.4-.4,3.68,3.68,0,0,0,1.6-1,4.78,4.78,0,0,0,1.2-3.1Z"/><path class="cls-2" d="M153.2,160.53a2.07,2.07,0,0,1,.4-1.5,2.2,2.2,0,0,1,1.6-.5h8.9a9.41,9.41,0,0,1,3.4.6,7.59,7.59,0,0,1,2.6,1.6,7.94,7.94,0,0,1,1.7,2.4,7.85,7.85,0,0,1,.6,3.1,7.28,7.28,0,0,1-1.2,4.1,6.16,6.16,0,0,1-3.2,2.5v.2a3.9,3.9,0,0,1,2.3,1.5,8.56,8.56,0,0,1,1.1,2.4l2.2,8.2a.3.3,0,0,1,0,.4c0,.2-.2.3-.5.3h-2.6a.63.63,0,0,1-.4-.1,1.31,1.31,0,0,1-.3-.4l-2.1-7.4a8.8,8.8,0,0,0-.8-1.9,3.45,3.45,0,0,0-1.2-1.2,4.77,4.77,0,0,0-1.5-.6,9.92,9.92,0,0,0-1.8-.2h-5.5v11c0,.3-.1.5-.2.5a3.54,3.54,0,0,1-.6.1H154a1.12,1.12,0,0,1-.6-.1.72.72,0,0,1-.2-.5Zm15.5,5.8a9.59,9.59,0,0,0-.2-1.6,5.7,5.7,0,0,0-.8-1.5,5,5,0,0,0-1.6-1.1,5.78,5.78,0,0,0-2.4-.4H157v9.1h6.5a6.12,6.12,0,0,0,2.4-.4,3.68,3.68,0,0,0,1.6-1,5.62,5.62,0,0,0,1-1.5A6.62,6.62,0,0,0,168.7,166.33Z"/><path class="cls-2" d="M199.8,172c0,4.5-1,8-2.9,10.5s-4.9,3.6-8.7,3.6-6.7-1.2-8.6-3.6-2.8-5.9-2.8-10.3a18.78,18.78,0,0,1,.9-6,14.18,14.18,0,0,1,2.4-4.4,9.48,9.48,0,0,1,3.6-2.7,11.51,11.51,0,0,1,4.6-.9,12.77,12.77,0,0,1,5,.9,9,9,0,0,1,3.6,2.8,14,14,0,0,1,2.2,4.4A23.29,23.29,0,0,1,199.8,172Zm-3.7.2a28.18,28.18,0,0,0-.3-4.1,9.71,9.71,0,0,0-1.2-3.5,6.89,6.89,0,0,0-2.4-2.4,7.45,7.45,0,0,0-3.9-.9,6.86,6.86,0,0,0-3.6.9,7.75,7.75,0,0,0-2.5,2.3,11.76,11.76,0,0,0-1.5,3.4,18.25,18.25,0,0,0-.5,4.1,19.7,19.7,0,0,0,.4,4.4,10.42,10.42,0,0,0,1.3,3.4,6.62,6.62,0,0,0,2.4,2.3,8.6,8.6,0,0,0,3.8.8,7.31,7.31,0,0,0,3.8-.9,8.07,8.07,0,0,0,3.8-5.9,16.26,16.26,0,0,0,.4-3.87Z"/><path class="cls-2" d="M204.8,160.53a2.07,2.07,0,0,1,.4-1.5,2.2,2.2,0,0,1,1.6-.5h8.9a9.41,9.41,0,0,1,3.4.6,7.59,7.59,0,0,1,2.6,1.6,7.94,7.94,0,0,1,1.7,2.4,7.85,7.85,0,0,1,.6,3.1,7.28,7.28,0,0,1-1.2,4.1,6.16,6.16,0,0,1-3.2,2.5v.2a3.9,3.9,0,0,1,2.3,1.5,8.56,8.56,0,0,1,1.1,2.4l2.2,8.2a.3.3,0,0,1,0,.4c0,.2-.2.3-.5.3h-2.6a.63.63,0,0,1-.4-.1,1.31,1.31,0,0,1-.3-.4l-2.1-7.4a8.8,8.8,0,0,0-.8-1.9,3.45,3.45,0,0,0-1.2-1.2,4.77,4.77,0,0,0-1.5-.6,9.92,9.92,0,0,0-1.8-.2h-5.5v11c0,.3-.1.5-.2.5a3.54,3.54,0,0,1-.6.1h-2.2a1.12,1.12,0,0,1-.6-.1c-.2-.1-.2-.3-.2-.5v-24.5Zm15.5,5.8a9.59,9.59,0,0,0-.2-1.6,5.7,5.7,0,0,0-.8-1.5,5,5,0,0,0-1.6-1.1,5.78,5.78,0,0,0-2.4-.4h-6.7v9.1h6.5a6.12,6.12,0,0,0,2.4-.4,3.68,3.68,0,0,0,1.6-1,5.62,5.62,0,0,0,1-1.5A6.62,6.62,0,0,0,220.3,166.33Z"/><path class="cls-3" d="M144.28,133.24a1.32,1.32,0,0,1-.28,1,1.56,1.56,0,0,1-1,.25h-4.69v8.8c0,.52-.1.84-.31,1a2,2,0,0,1-1.07.21h-5.41a1.68,1.68,0,0,1-1-.21c-.18-.14-.27-.46-.27-1v-8.73H109.69a5.64,5.64,0,0,1-2.76-.67c-.81-.44-1.22-1.43-1.22-3v-1.18a8.1,8.1,0,0,1,.35-2.42,7.49,7.49,0,0,1,1.26-2.34l19.49-25.22a16,16,0,0,1,2-2.17,4.33,4.33,0,0,1,3-1h2.63a4,4,0,0,1,3,.91,4.62,4.62,0,0,1,.83,3.14v27.19H143a1.63,1.63,0,0,1,1,.24,1.35,1.35,0,0,1,.28,1Zm-14.11-25.72-.21-.21-15.45,20.2.14.28h15.52Z"/><path class="cls-3" d="M187.4,121a39.51,39.51,0,0,1-1.15,9.9,22.09,22.09,0,0,1-3.5,7.65,16.18,16.18,0,0,1-6,4.95,21.63,21.63,0,0,1-17,.07,15.6,15.6,0,0,1-5.94-4.88,22.08,22.08,0,0,1-3.49-7.65,39.5,39.5,0,0,1-1.16-9.9,39.06,39.06,0,0,1,1.19-10,21.84,21.84,0,0,1,3.57-7.67,16,16,0,0,1,6-4.92,19,19,0,0,1,8.42-1.75A20.19,20.19,0,0,1,177,98.54a15.24,15.24,0,0,1,5.94,4.89,21.47,21.47,0,0,1,3.39,7.64A42.14,42.14,0,0,1,187.4,121Zm-8.25.14a38.49,38.49,0,0,0-.55-6.62,19.39,19.39,0,0,0-1.82-5.6,10.33,10.33,0,0,0-3.36-3.85,9,9,0,0,0-5.24-1.44,8.72,8.72,0,0,0-5.13,1.44,10.19,10.19,0,0,0-3.29,3.81,18.7,18.7,0,0,0-1.74,5.53,41.17,41.17,0,0,0,0,13.17,19.1,19.1,0,0,0,1.74,5.56,10.34,10.34,0,0,0,3.32,3.89,10.07,10.07,0,0,0,10.41,0,10.36,10.36,0,0,0,3.36-3.86,18.53,18.53,0,0,0,1.78-5.56A39.55,39.55,0,0,0,179.15,121.12Z"/><path class="cls-3" d="M225.07,144.21c-.14.19-.47.28-1,.28H199.77c-.51,0-.84-.09-1-.28a1.83,1.83,0,0,1-.21-1.05v-4.33a1.87,1.87,0,0,1,.21-1.05,1.25,1.25,0,0,1,1-.28h7.9V105.29l-7.76,1.25c-.51.1-.84.06-1-.1a1.35,1.35,0,0,1-.21-.87v-4a1.93,1.93,0,0,1,.21-1,1.85,1.85,0,0,1,1-.62l11-3.08a5.46,5.46,0,0,1,3.39,0c1,.35,1.5,1.22,1.5,2.62v38h8.32a1.25,1.25,0,0,1,1,.28,1.87,1.87,0,0,1,.21,1.05v4.33A1.83,1.83,0,0,1,225.07,144.21Z"/></svg>