<?xml version="1.0" encoding="utf-8"?>
<!-- Generator: Adobe Illustrator 23.0.0, SVG Export Plug-In . SVG Version: 6.00 Build 0)  -->
<svg version="1.1" id="Layer_1" xmlns="http://www.w3.org/2000/svg" xmlns:xlink="http://www.w3.org/1999/xlink" x="0px" y="0px"
	 viewBox="0 0 312 260" style="enable-background:new 0 0 312 260;" xml:space="preserve">
<style type="text/css">
	.st0{fill:#E51C1C;}
	.st1{fill:#FCFCFC;}
	.st2{fill:#FFFFFF;}
</style>
<path class="st0" d="M263.5,114.6c0.9-4.6,1.4-9.3,1.4-14.1c0-39.1-31.7-70.9-70.9-70.9c-24.8,0-46.7,12.8-59.4,32.1
	c-8.3-5-18.1-7.9-28.6-7.9c-30.5,0-55.3,24.7-55.3,55.3c0,1.8,0.1,3.5,0.3,5.3C24.2,116.6,3.2,139,3.2,166.3l0,0
	c0,28.8,23.3,52.1,52.1,52.1h201.2c28.8,0,52.1-23.3,52.1-52.1l0,0C308.7,139.8,289,117.9,263.5,114.6z"/>
<g>
	<path class="st1" d="M124.4,185.5c-0.1,0.1-0.3,0.2-0.6,0.2H113c-1.3,0-2.3-0.2-3.2-0.5c-0.8-0.4-1.5-0.8-2-1.4
		c-0.5-0.6-0.9-1.3-1.1-2.1s-0.3-1.7-0.3-2.6v-13.9c0-0.9,0.1-1.7,0.3-2.5c0.2-0.8,0.6-1.5,1.1-2.1s1.2-1.1,2-1.5s1.8-0.5,3-0.5
		h10.6c0.3,0,0.5,0.1,0.6,0.2c0.1,0.1,0.1,0.3,0.1,0.6v1.6c0,0.3,0,0.5-0.1,0.6s-0.3,0.2-0.6,0.2h-10.5c-1.1,0-1.9,0.2-2.3,0.7
		c-0.5,0.5-0.7,1.2-0.7,2.2v5h12.3c0.3,0,0.5,0.1,0.6,0.2c0.1,0.1,0.1,0.3,0.1,0.6v1.5c0,0.3,0,0.5-0.1,0.6s-0.3,0.2-0.6,0.2H110
		v6.7c0,0.9,0.2,1.6,0.7,2.1s1.3,0.8,2.4,0.8h10.7c0.3,0,0.5,0.1,0.6,0.2c0.1,0.1,0.1,0.3,0.1,0.6v1.6
		C124.6,185.2,124.5,185.4,124.4,185.5z"/>
	<path class="st1" d="M129,160.5c0-0.7,0.1-1.2,0.4-1.5c0.3-0.3,0.8-0.5,1.6-0.5h8.9c1.2,0,2.4,0.2,3.4,0.6c1,0.4,1.9,0.9,2.6,1.6
		c0.7,0.7,1.3,1.5,1.7,2.4s0.6,2,0.6,3.1c0,1.5-0.4,2.9-1.2,4.1c-0.8,1.2-1.8,2-3.2,2.5v0.2c1.1,0.3,1.8,0.8,2.3,1.5
		s0.8,1.5,1.1,2.4l2.2,8.2c0.1,0.1,0.1,0.3,0,0.4c0,0.2-0.2,0.3-0.5,0.3h-2.6c-0.1,0-0.3,0-0.4-0.1c-0.1-0.1-0.2-0.2-0.3-0.4
		l-2.1-7.4c-0.2-0.7-0.5-1.4-0.8-1.9s-0.7-0.9-1.2-1.2s-1-0.5-1.5-0.6s-1.2-0.2-1.8-0.2h-5.5v11c0,0.3-0.1,0.5-0.2,0.5
		c-0.1,0.1-0.3,0.1-0.6,0.1h-2.2c-0.3,0-0.4,0-0.6-0.1c-0.1-0.1-0.2-0.3-0.2-0.5v-24.5H129z M144.4,166.3c0-0.5-0.1-1-0.2-1.6
		c-0.2-0.5-0.4-1-0.8-1.5s-0.9-0.8-1.6-1.1c-0.6-0.3-1.5-0.4-2.4-0.4h-6.7v9.1h6.5c0.9,0,1.7-0.1,2.4-0.4c0.7-0.2,1.2-0.6,1.6-1
		c0.4-0.4,0.7-0.9,0.9-1.5C144.3,167.5,144.4,166.9,144.4,166.3z"/>
	<path class="st1" d="M153.2,160.5c0-0.7,0.1-1.2,0.4-1.5c0.3-0.3,0.8-0.5,1.6-0.5h8.9c1.2,0,2.4,0.2,3.4,0.6c1,0.4,1.9,0.9,2.6,1.6
		s1.3,1.5,1.7,2.4s0.6,2,0.6,3.1c0,1.5-0.4,2.9-1.2,4.1c-0.8,1.2-1.8,2-3.2,2.5v0.2c1.1,0.3,1.8,0.8,2.3,1.5s0.8,1.5,1.1,2.4
		l2.2,8.2c0.1,0.1,0.1,0.3,0,0.4c0,0.2-0.2,0.3-0.5,0.3h-2.6c-0.1,0-0.3,0-0.4-0.1c-0.1-0.1-0.2-0.2-0.3-0.4l-2.1-7.4
		c-0.2-0.7-0.5-1.4-0.8-1.9s-0.7-0.9-1.2-1.2s-1-0.5-1.5-0.6s-1.2-0.2-1.8-0.2h-5.5v11c0,0.3-0.1,0.5-0.2,0.5
		c-0.1,0.1-0.3,0.1-0.6,0.1H154c-0.3,0-0.4,0-0.6-0.1c-0.1-0.1-0.2-0.3-0.2-0.5V160.5z M168.7,166.3c0-0.5-0.1-1-0.2-1.6
		c-0.2-0.5-0.4-1-0.8-1.5c-0.4-0.4-0.9-0.8-1.6-1.1c-0.6-0.3-1.5-0.4-2.4-0.4H157v9.1h6.5c0.9,0,1.7-0.1,2.4-0.4
		c0.7-0.2,1.2-0.6,1.6-1c0.4-0.4,0.7-0.9,1-1.5C168.6,167.5,168.7,166.9,168.7,166.3z"/>
	<path class="st1" d="M199.8,172c0,4.5-1,8-2.9,10.5c-2,2.4-4.9,3.6-8.7,3.6s-6.7-1.2-8.6-3.6c-1.9-2.4-2.8-5.9-2.8-10.3
		c0-2.2,0.3-4.2,0.9-6c0.6-1.7,1.4-3.2,2.4-4.4s2.2-2.1,3.6-2.7s2.9-0.9,4.6-0.9c1.9,0,3.6,0.3,5,0.9c1.4,0.6,2.7,1.6,3.6,2.8
		s1.7,2.7,2.2,4.4C199.5,167.9,199.8,169.8,199.8,172z M196.1,172.2c0-1.4-0.1-2.8-0.3-4.1s-0.6-2.5-1.2-3.5c-0.6-1-1.4-1.8-2.4-2.4
		c-1-0.6-2.3-0.9-3.9-0.9c-1.4,0-2.6,0.3-3.6,0.9c-1,0.6-1.8,1.3-2.5,2.3s-1.1,2.1-1.5,3.4c-0.3,1.3-0.5,2.7-0.5,4.1
		c0,1.6,0.1,3.1,0.4,4.4c0.3,1.3,0.7,2.5,1.3,3.4c0.6,1,1.4,1.7,2.4,2.3c1,0.5,2.3,0.8,3.8,0.8s2.8-0.3,3.8-0.9
		c1-0.6,1.8-1.4,2.5-2.4s1.1-2.2,1.3-3.5C196,174.9,196.1,173.6,196.1,172.2z"/>
	<path class="st1" d="M204.8,160.5c0-0.7,0.1-1.2,0.4-1.5c0.3-0.3,0.8-0.5,1.6-0.5h8.9c1.2,0,2.4,0.2,3.4,0.6c1,0.4,1.9,0.9,2.6,1.6
		s1.3,1.5,1.7,2.4s0.6,2,0.6,3.1c0,1.5-0.4,2.9-1.2,4.1c-0.8,1.2-1.8,2-3.2,2.5v0.2c1.1,0.3,1.8,0.8,2.3,1.5s0.8,1.5,1.1,2.4
		l2.2,8.2c0.1,0.1,0.1,0.3,0,0.4c0,0.2-0.2,0.3-0.5,0.3h-2.6c-0.1,0-0.3,0-0.4-0.1c-0.1-0.1-0.2-0.2-0.3-0.4l-2.1-7.4
		c-0.2-0.7-0.5-1.4-0.8-1.9s-0.7-0.9-1.2-1.2s-1-0.5-1.5-0.6s-1.2-0.2-1.8-0.2h-5.5v11c0,0.3-0.1,0.5-0.2,0.5
		c-0.1,0.1-0.3,0.1-0.6,0.1h-2.2c-0.3,0-0.4,0-0.6-0.1s-0.2-0.3-0.2-0.5v-24.5H204.8z M220.3,166.3c0-0.5-0.1-1-0.2-1.6
		c-0.2-0.5-0.4-1-0.8-1.5c-0.4-0.4-0.9-0.8-1.6-1.1c-0.6-0.3-1.5-0.4-2.4-0.4h-6.7v9.1h6.5c0.9,0,1.7-0.1,2.4-0.4
		c0.7-0.2,1.2-0.6,1.6-1c0.4-0.4,0.7-0.9,1-1.5C220.2,167.5,220.3,166.9,220.3,166.3z"/>
</g>
<g>
	<path class="st2" d="M140,127.7c0,2.5-0.4,4.8-1.3,6.8c-0.8,2-2.1,3.7-3.6,5.1c-1.6,1.4-3.5,2.5-5.8,3.3c-2.2,0.8-4.7,1.1-7.5,1.1
		c-3,0-5.9-0.3-8.7-1c-2.9-0.6-5.3-1.9-7.5-3.6c-0.4-0.3-0.5-0.8-0.1-1.3l2.1-3.1c0.4-0.6,1-0.6,1.8-0.1c1.7,1.2,3.7,2,5.8,2.6
		c2.1,0.5,4.3,0.8,6.6,0.8c3.7,0,6.6-0.9,8.9-2.7c2.2-1.8,3.3-4.4,3.3-7.6c0-1.7-0.3-3.1-0.9-4.2c-0.6-1.2-1.4-2.1-2.4-2.8
		c-1-0.7-2.1-1.2-3.4-1.6c-1.3-0.3-2.5-0.5-3.9-0.5c-1.3,0-2.5,0.1-3.5,0.2c-1,0.1-2,0.3-2.8,0.6c-0.9,0.3-1.7,0.6-2.6,0.9
		c-0.8,0.4-1.8,0.7-2.8,1.2c-0.5,0.2-1,0.3-1.4,0.3c-0.4,0-0.9-0.1-1.4-0.3l-1.1-0.4c-0.5-0.2-0.9-0.6-1.3-1c-0.3-0.4-0.4-1.1-0.4-2
		l1.8-18.6c0.1-1.5,0.6-2.6,1.5-3.2c0.8-0.6,1.8-1,2.8-1h23.5c0.5,0,0.8,0.1,0.9,0.3c0.1,0.2,0.2,0.5,0.2,0.9v3.3
		c0,0.4-0.1,0.7-0.2,0.9c-0.1,0.2-0.4,0.3-0.8,0.3h-21.7l-1.6,14.4c2-0.9,4-1.5,6.1-1.8c2.1-0.3,4-0.4,5.7-0.4c2.2,0,4.3,0.3,6.2,1
		c1.9,0.7,3.6,1.6,5,2.9c1.4,1.3,2.5,2.8,3.4,4.5C139.6,123.5,140,125.5,140,127.7z"/>
	<path class="st2" d="M183.2,119.2c0,3.7-0.4,7-1.1,10.1c-0.7,3-1.9,5.6-3.4,7.8c-1.5,2.1-3.5,3.8-5.8,5s-5.1,1.8-8.4,1.8
		c-3.1,0-5.8-0.6-8.2-1.7c-2.3-1.2-4.3-2.8-5.8-4.9c-1.5-2.1-2.7-4.7-3.4-7.7c-0.8-3-1.1-6.4-1.1-10.1c0-3.7,0.4-7.1,1.1-10.1
		c0.8-3,1.9-5.6,3.5-7.8c1.6-2.1,3.5-3.8,5.8-5c2.3-1.2,5.1-1.8,8.2-1.8c3.3,0,6.1,0.6,8.5,1.7c2.4,1.2,4.3,2.8,5.8,4.9
		c1.5,2.1,2.6,4.7,3.3,7.7C182.9,112.1,183.2,115.5,183.2,119.2z M177.1,119.4c0-2.4-0.2-4.7-0.6-7c-0.4-2.3-1-4.4-2-6.2
		c-0.9-1.8-2.2-3.3-3.8-4.5c-1.6-1.1-3.6-1.7-6.1-1.7c-2.4,0-4.4,0.6-5.9,1.7s-2.8,2.6-3.8,4.4c-0.9,1.8-1.6,3.9-2,6.2
		c-0.4,2.3-0.6,4.6-0.6,7c0,2.4,0.2,4.7,0.5,7c0.4,2.3,1,4.4,1.9,6.2c0.9,1.8,2.2,3.3,3.8,4.5c1.6,1.2,3.6,1.7,6.1,1.7
		c2.4,0,4.4-0.6,6-1.7c1.6-1.2,2.8-2.7,3.8-4.5c0.9-1.8,1.6-3.9,2-6.2C176.9,124,177.1,121.7,177.1,119.4z"/>
	<path class="st2" d="M225,119.2c0,3.7-0.4,7-1.1,10.1c-0.7,3-1.9,5.6-3.4,7.8c-1.5,2.1-3.5,3.8-5.8,5c-2.3,1.2-5.1,1.8-8.4,1.8
		c-3.1,0-5.8-0.6-8.2-1.7s-4.3-2.8-5.8-4.9c-1.5-2.1-2.7-4.7-3.4-7.7c-0.8-3-1.1-6.4-1.1-10.1c0-3.7,0.4-7.1,1.1-10.1
		c0.8-3,1.9-5.6,3.5-7.8c1.6-2.1,3.5-3.8,5.8-5c2.3-1.2,5.1-1.8,8.2-1.8c3.3,0,6.1,0.6,8.5,1.7c2.4,1.2,4.3,2.8,5.8,4.9
		c1.5,2.1,2.6,4.7,3.3,7.7C224.7,112.1,225,115.5,225,119.2z M218.8,119.4c0-2.4-0.2-4.7-0.6-7c-0.4-2.3-1-4.4-2-6.2
		c-0.9-1.8-2.2-3.3-3.8-4.5c-1.6-1.1-3.6-1.7-6.1-1.7c-2.4,0-4.4,0.6-5.9,1.7s-2.8,2.6-3.8,4.4c-0.9,1.8-1.6,3.9-2,6.2
		c-0.4,2.3-0.6,4.6-0.6,7c0,2.4,0.2,4.7,0.5,7c0.4,2.3,1,4.4,1.9,6.2c0.9,1.8,2.2,3.3,3.8,4.5c1.6,1.2,3.6,1.7,6.1,1.7
		c2.4,0,4.4-0.6,6-1.7c1.6-1.2,2.8-2.7,3.8-4.5c0.9-1.8,1.6-3.9,2-6.2C218.6,124,218.8,121.7,218.8,119.4z"/>
</g>
</svg>
