<svg xmlns="http://www.w3.org/2000/svg" width="41" height="36" viewBox="0 0 41 36">
    <g fill="none" fill-rule="nonzero">
        <path fill="#21A366" d="M25.104.442h-13.6c-.872 0-1.672.727-1.672 1.6V9.17l15.272 11.928 15.273-3.2V9.169L25.104.442z"/>
        <path fill="#33C481" d="M38.704.442h-13.6V9.17h15.273V2.115c0-.873-.727-1.673-1.673-1.673z"/>
        <path fill="#185C37" d="M9.832 9.17v24.508c0 .873.727 1.673 1.6 1.673h27.272c.873 0 1.673-.727 1.673-1.6v-7.127L9.832 9.169z"/>
        <path fill="#107C41" d="M9.832 9.17h15.272v8.727H9.832z"/>
        <path fill="#000" d="M21.468 9.388v19.418c-.145.8-.873 1.382-1.673 1.382H9.832V7.715h9.963c.873 0 1.673.727 1.673 1.673z" opacity=".2"/>
        <path fill="#000" d="M22.195 9.388V27.06c0 1.31-1.09 2.4-2.4 2.4H9.832V6.988h9.963c1.31 0 2.4 1.09 2.4 2.4z" opacity=".1"/>
        <path fill="#000" d="M21.468 9.388V27.06c0 .873-.727 1.673-1.6 1.673H9.832V7.715h9.963c.873 0 1.673.727 1.673 1.673z" opacity=".2"/>
        <path fill="#000" d="M20.74 9.388V27.06c0 .873-.727 1.673-1.6 1.673H9.833V7.715h9.236c.873 0 1.673.727 1.673 1.673z" opacity=".1"/>
        <path fill="#107C41" d="M2.05 7.715h16.945c.873 0 1.673.727 1.673 1.6v17.018c0 .873-.727 1.673-1.6 1.673H2.05a1.548 1.548 0 0 1-1.673-1.382V9.388c0-.873.727-1.673 1.673-1.673z"/>
        <path fill="#FFF" d="M5.613 23.424l3.564-5.527-3.273-5.528h2.619l1.818 3.491c.072.218.218.51.363.728.146-.291.219-.51.364-.8l1.89-3.491h2.4l-3.345 5.527 3.419 5.527h-2.546l-2.036-3.854c-.073-.146-.146-.364-.218-.51-.073.146-.146.364-.219.51L8.304 23.35l-2.69.073z"/>
        <path fill="#107C41" d="M25.104 17.897h15.273v8.727H25.104z"/>
    </g>
</svg>
