<?xml version="1.0" encoding="UTF-8"?>
<!-- Generator: Adobe Illustrator 25.0.0, SVG Export Plug-In . SVG Version: 6.00 Build 0)  -->
<svg version="1.1" id="Layer_1" xmlns="http://www.w3.org/2000/svg" xmlns:xlink="http://www.w3.org/1999/xlink" x="0px" y="0px" viewBox="0 0 50 50" style="enable-background:new 0 0 50 50;" xml:space="preserve">
<style type="text/css">
	.st0{fill:#FFFFFF;stroke:#ED1B35;stroke-width:2;stroke-miterlimit:10;}
	.st1{fill:none;stroke:#ED1B35;stroke-width:2;stroke-miterlimit:10;}
	.st2{fill:none;stroke:#ED1B35;stroke-width:2;stroke-linecap:round;stroke-linejoin:round;stroke-miterlimit:10;}
</style>
<path class="st0" d="M40.1,47.2H9.3c-0.7,0-1.2-0.6-1.2-1.2V15.2c0-0.7,0.6-1.2,1.2-1.2h30.8c0.7,0,1.2,0.6,1.2,1.2V46  C41.3,46.7,40.8,47.2,40.1,47.2z"/>
<path class="st0" d="M43.4,13.9H6.1c-1,0-1.9,0.8-1.9,1.9v7.9c0,1,0.8,1.9,1.9,1.9h37.3c1,0,1.9-0.8,1.9-1.9v-7.9  C45.2,14.8,44.4,13.9,43.4,13.9z"/>
<rect x="18.4" y="13.9" class="st1" width="12.6" height="33.3"/>
<path class="st2" d="M22.3,7.2L22.3,7.2l1,3.9l-3.8-0.4l0,0l-0.6-0.1c-1.3-0.3-2.3-1.5-2.3-2.9c0-1.6,1.3-2.9,2.9-2.9  C20.9,4.8,22.1,5.8,22.3,7.2z"/>
<path class="st2" d="M30.9,9.6L30.9,9.6l-5,1.2L26.4,6l0,0l0.1-0.7c0.3-1.7,1.8-2.9,3.6-3c2,0,3.7,1.6,3.7,3.7  C33.8,7.8,32.6,9.3,30.9,9.6z"/>
<path class="st2" d="M26.4,6c0-0.2,0-0.5,0.1-0.7"/>
</svg>