<?xml version="1.0" encoding="utf-8"?>
<!-- Generator: Adobe Illustrator 23.0.0, SVG Export Plug-In . SVG Version: 6.00 Build 0)  -->
<svg version="1.1" id="Layer_1" xmlns="http://www.w3.org/2000/svg" xmlns:xlink="http://www.w3.org/1999/xlink" x="0px" y="0px"
	 viewBox="0 0 27.8 27.8" style="enable-background:new 0 0 27.8 27.8;" xml:space="preserve">
<style type="text/css">
	.st0{fill:#ee0033;}
	.st1{fill:#ee0033;}
	.st2{fill:#fff;}
</style>
<g>
	<linearGradient id="SVGID_1_" gradientUnits="userSpaceOnUse" x1="14.4017" y1="-3.9686" x2="12.5669" y2="49.6991">
		<stop  offset="0" style="stop-color:#FDDF00"/>
		<stop  offset="1" style="stop-color:#FF7015"/>
	</linearGradient>
	<path class="st0" d="M24.4,8.4h-6.7c1.4-1.2,2.9-2.8,3.3-4.4c0.4-1.8-0.8-3.2-2.1-3.6c-1.5-0.5-3.3,0.1-4.2,2.2
		c-0.3,0.8-0.5,1.5-0.7,2.2c-0.2-0.7-0.4-1.5-0.7-2.2C12.4,0.4,10.5-0.1,9,0.3C7.7,0.7,6.5,2.1,6.9,3.9c0.4,1.6,1.9,3.2,3.3,4.4H3.4
		C3,8.4,2.6,8.7,2.6,9.1v2.6c0,0.4,0.3,0.7,0.7,0.7h21.1c0.4,0,0.7-0.3,0.7-0.7V9.1C25.2,8.7,24.8,8.4,24.4,8.4z M16,3.1
		c0.5-1.1,1.2-1.5,1.9-1.5c0.2,0,0.4,0,0.6,0.1c0.7,0.2,1.4,1,1.2,2c-0.4,1.7-2.6,3.6-4.1,4.7h-0.7C14.9,7.2,15.1,5.2,16,3.1z
		 M8.2,3.6c-0.2-1,0.5-1.8,1.2-2C9.6,1.6,9.8,1.5,10,1.5c0.7,0,1.5,0.4,1.9,1.5c0.8,2.1,1.1,4.1,1.1,5.3h-0.7
		C10.8,7.2,8.6,5.3,8.2,3.6z"/>
	<linearGradient id="SVGID_2_" gradientUnits="userSpaceOnUse" x1="14.3507" y1="8.3804" x2="13.5187" y2="32.7156">
		<stop  offset="0" style="stop-color:#FDDF00"/>
		<stop  offset="1" style="stop-color:#FF7015"/>
	</linearGradient>
	<path class="st1" d="M22.9,27.7H5c-0.8,0-1.4-0.6-1.4-1.4V13.7h20.8v12.6C24.3,27,23.7,27.7,22.9,27.7z"/>
	<rect x="12.3" y="13.7" class="st2" width="3.1" height="14"/>
</g>
</svg>
