<svg xmlns="http://www.w3.org/2000/svg" width="21" height="24" viewBox="0 0 21 24">
    <g fill="none" fill-rule="nonzero">
        <path fill="#E95454" d="M5.266 10.371l-5.238 9.87 4.757-.44 2.303 4.187 5.238-9.87z"/>
        <g fill="#ED6362">
            <path d="M5.867 21.114c.147-.316-.007-.693-.315-.857l-.301-.16a.645.645 0 0 1 .62-1.13l.852.452c.263.14.593.038.729-.226l.021-.041a.508.508 0 0 0-.196-.717L4.73 17.083c-.31-.165-.463-.541-.318-.857a.646.646 0 0 1 .888-.297l2.364 1.254c.263.14.593.039.732-.225l.014-.034.004-.008a.566.566 0 0 0-.234-.77l-1.326-.704c-.31-.165-.462-.54-.315-.86a.649.649 0 0 1 .888-.298l1.464.778c.274.146.601.024.743-.252l.004-.007.003-.008c.15-.272.067-.611-.207-.756l-1.58-.838c-.307-.163-.46-.539-.315-.855a.646.646 0 0 1 .888-.297l3.899 2.069-5.239 9.87-1.444-2.624a.614.614 0 0 0 .224-.25z"/>
            <path d="M15.066 10.371l5.239 9.87-4.758-.44-2.302 4.187-5.239-9.87z"/>
        </g>
        <path fill="#E95454" d="M14.466 21.114c-.147-.316.007-.693.314-.857l.302-.16a.645.645 0 0 0-.62-1.13l-.852.452a.538.538 0 0 1-.73-.227l-.02-.04a.508.508 0 0 1 .195-.717l2.55-1.353c.31-.165.462-.54.317-.857a.646.646 0 0 0-.888-.297l-2.364 1.255a.544.544 0 0 1-.732-.226l-.014-.034-.003-.007a.566.566 0 0 1 .233-.77l1.326-.704c.31-.165.463-.541.316-.861a.649.649 0 0 0-.888-.297l-1.467.779c-.274.146-.6.024-.742-.252l-.004-.008-.004-.007c-.149-.272-.067-.611.208-.756l1.58-.838c.307-.163.46-.539.315-.855a.646.646 0 0 0-.889-.297l-3.898 2.069 5.239 9.87 1.444-2.625a.624.624 0 0 1-.224-.25z"/>
        <circle cx="10.166" cy="8.753" r="8.753" fill="#FFCC5B"/>
        <path fill="#FDBC4B" d="M11.354 7.749H5.807a.788.788 0 0 1-.786-.785l.006-.054v-.012a.82.82 0 0 1 .821-.827h3.845c.51 0 .96-.378.99-.888a.94.94 0 0 0-.936-.983H5.675c-.45 0-.786-.377-.78-.827V3.36v-.012c-.006-.45.33-.828.78-.828h4.261c.503 0 .953-.377.983-.88a.937.937 0 0 0-.935-.984h-3.12a8.758 8.758 0 0 0-5.425 8.096 8.752 8.752 0 0 0 5.425 8.094h3.962c.503 0 .954-.377.983-.881a.936.936 0 0 0-.935-.982l-4.507-.001a.933.933 0 0 1-.932-.984c.027-.504.48-.882.984-.882h1.748a.935.935 0 0 0-.027-1.868H5.49a.779.779 0 0 1-.779-.785v-.066a.738.738 0 0 1 .738-.785h5.85c.51 0 .96-.377.99-.881a.937.937 0 0 0-.935-.983z"/>
        <path fill="#FFDB70" d="M10.166 15a6.256 6.256 0 0 1-6.248-6.248 6.255 6.255 0 0 1 6.248-6.247 6.256 6.256 0 0 1 6.248 6.248 6.255 6.255 0 0 1-6.248 6.248z"/>
        <g fill="#ED6362">
            <path d="M7.156 11.227a.809.809 0 0 0-.202.308.856.856 0 0 0-.067.366c.01.134.064.282.072.415.001.017-.003.034-.003.05a6.27 6.27 0 0 1-.645-1.054.613.613 0 0 1 .043-.207c.043-.108.136-.189.194-.287.058-.098.086-.21.111-.326.023-.116.04-.234.03-.372l-.033-.02a.759.759 0 0 0-.256.233.78.78 0 0 0-.141.317c-.02.124 0 .27-.022.39-.004.024-.014.044-.02.067A6.341 6.341 0 0 1 5.84 9.97a.613.613 0 0 1 .093-.223c.063-.088.168-.14.243-.215a.92.92 0 0 0 .168-.273c.044-.103.083-.208.096-.34l-.027-.027a.683.683 0 0 0-.287.156c-.08.07-.15.15-.195.258-.043.108-.052.248-.097.353-.012.028-.03.05-.045.076a6.393 6.393 0 0 1-.114-1.165.6.6 0 0 1 .154-.232c.077-.066.185-.087.27-.139a.793.793 0 0 0 .208-.215c.059-.086.114-.177.151-.3l-.02-.033a.61.61 0 0 0-.298.077.61.61 0 0 0-.23.195c-.06.093-.095.221-.157.308-.021.03-.048.053-.073.077.013-.382.06-.763.142-1.139l.01-.017a.586.586 0 0 1 .214-.216c.083-.043.187-.035.275-.063a.665.665 0 0 0 .233-.156.958.958 0 0 0 .197-.255l-.013-.038a.545.545 0 0 0-.289.002.536.536 0 0 0-.25.132c-.073.074-.13.189-.204.255a.448.448 0 0 1-.104.07c.099-.373.233-.74.4-1.097.004.004.008.008.01.013l.044-.045a.527.527 0 0 1 .238-.155c.085-.022.177.012.262.005a.577.577 0 0 0 .245-.097.91.91 0 0 0 .233-.207c0-.014-.002-.027-.003-.04a.474.474 0 0 0-.262-.066.468.468 0 0 0-.255.07c-.083.056-.16.154-.24.201a.382.382 0 0 1-.124.048l.003-.024c.273-.507.62-.986 1.042-1.423-.4.386-.74.812-1.02 1.266.001-.013.007-.029.007-.043.007-.097.011-.194.002-.285-.029-.18-.078-.353-.21-.499l-.043.016a1.297 1.297 0 0 0-.179.663c.006.096.028.185.057.27a.694.694 0 0 0 .145.267c-.16.305-.295.621-.404.945l-.001-.01c-.022-.1-.043-.202-.075-.296-.075-.18-.166-.352-.333-.48l-.037.024a1.4 1.4 0 0 0-.007.724c.03.1.076.187.127.27a.816.816 0 0 0 .188.227 6.545 6.545 0 0 0-.174.976 2.436 2.436 0 0 0-.143-.279c-.122-.172-.256-.334-.454-.437l-.032.032c-.004.31.073.546.177.749.056.096.124.178.197.253a.911.911 0 0 0 .223.179c-.009.324.006.65.046.975-.066-.084-.131-.169-.203-.242-.167-.153-.344-.294-.57-.367l-.023.039c.072.317.211.546.369.732.081.089.172.16.266.222a.964.964 0 0 0 .244.124c.064.317.152.63.263.937-.085-.068-.168-.137-.256-.194-.211-.124-.428-.235-.677-.268l-.015.043c.154.31.355.516.565.675.108.074.22.127.333.172.082.038.168.054.254.07.135.295.294.583.475.861-.1-.048-.2-.099-.3-.137-.252-.082-.506-.153-.772-.142l-.005.046c.238.285.501.454.762.573.132.053.263.084.393.107.086.019.17.016.255.016.14.18.293.354.455.522l.257-.257c-.187-.18-.36-.37-.52-.566a.674.674 0 0 1-.003-.186c.016-.125.087-.233.122-.35.033-.118.035-.243.034-.369a1.523 1.523 0 0 0-.053-.393c-.011-.006-.023-.01-.035-.015zM13.177 11.227c.098.089.156.195.202.308a.856.856 0 0 1 .066.366c-.009.134-.063.282-.071.415-.002.017.003.034.002.05a6.27 6.27 0 0 0 .645-1.054.613.613 0 0 0-.043-.207c-.043-.108-.135-.189-.194-.287a1.085 1.085 0 0 1-.11-.326 1.318 1.318 0 0 1-.03-.372l.032-.02c.112.059.19.142.257.233a.78.78 0 0 1 .14.317c.02.124 0 .27.022.39.004.024.015.044.02.067.163-.368.289-.748.378-1.136a.613.613 0 0 0-.094-.223c-.063-.088-.168-.14-.243-.215a.92.92 0 0 1-.168-.273 1.133 1.133 0 0 1-.096-.34l.027-.027a.683.683 0 0 1 .287.156c.08.07.151.15.196.258.042.108.052.248.097.353.011.028.03.05.044.076.074-.384.112-.774.114-1.165a.6.6 0 0 0-.153-.232c-.077-.066-.185-.087-.27-.139a.793.793 0 0 1-.208-.215 1.032 1.032 0 0 1-.152-.3l.02-.033a.61.61 0 0 1 .298.077.61.61 0 0 1 .23.195c.061.093.096.221.158.308.021.03.047.053.073.077a6.509 6.509 0 0 0-.142-1.139l-.011-.017a.586.586 0 0 0-.213-.216c-.084-.043-.187-.035-.276-.063a.665.665 0 0 1-.233-.156.958.958 0 0 1-.196-.255l.012-.038a.545.545 0 0 1 .29.002c.088.024.175.059.249.132.074.074.13.189.205.255.032.03.067.05.104.07a6.268 6.268 0 0 0-.4-1.096l-.01.012-.043-.044a.527.527 0 0 0-.238-.155c-.085-.022-.177.012-.262.005a.577.577 0 0 1-.245-.097.91.91 0 0 1-.233-.207c0-.014.002-.027.003-.04a.474.474 0 0 1 .263-.066.468.468 0 0 1 .255.07c.082.056.159.154.24.2.04.025.081.04.123.049l-.003-.024A6.428 6.428 0 0 0 12.85 4.07c.4.386.74.812 1.02 1.266-.001-.014-.007-.03-.007-.043a1.736 1.736 0 0 1-.002-.286c.029-.179.078-.352.21-.499l.043.016c.141.248.178.465.179.663a1.01 1.01 0 0 1-.057.27.694.694 0 0 1-.145.267c.16.305.296.622.404.945l.001-.01a2.31 2.31 0 0 1 .073-.297c.075-.18.167-.352.333-.48l.039.024c.075.285.057.518.007.723-.03.1-.075.187-.127.27a.816.816 0 0 1-.182.222l-.006.005c.083.321.141.647.174.976.044-.096.09-.192.143-.279.122-.172.256-.333.454-.437l.032.032c.004.309-.073.546-.177.748a1.308 1.308 0 0 1-.197.254.911.911 0 0 1-.223.178c.009.325-.006.651-.046.975.066-.084.131-.169.203-.241.168-.153.345-.294.57-.367l.023.038a1.678 1.678 0 0 1-.369.733 1.439 1.439 0 0 1-.266.221.964.964 0 0 1-.244.125c-.064.316-.152.629-.263.936.085-.067.168-.136.256-.194.212-.124.428-.235.677-.268l.015.043c-.153.31-.354.516-.565.675a1.631 1.631 0 0 1-.332.173 1.068 1.068 0 0 1-.255.07 6.536 6.536 0 0 1-.475.86c.1-.048.2-.099.3-.136.252-.083.506-.154.772-.143l.005.047a2.077 2.077 0 0 1-.762.572 1.882 1.882 0 0 1-.393.107c-.086.02-.17.016-.255.017-.14.18-.293.354-.455.522l-.257-.257c.187-.18.36-.37.52-.567a.674.674 0 0 0 .003-.186c-.016-.125-.087-.233-.122-.35a1.305 1.305 0 0 1-.034-.368c.004-.127.012-.254.053-.394l.034-.013z"/>
        </g>
        <path fill="#E95454" d="M10.043 4.615c-.18.503-.512.942-.996 1.319-.247.193-.479.335-.706.46v1.444c.514-.237.995-.52 1.403-.901v5.952h1.58V4.616h-1.281z"/>
    </g>
</svg>
