<svg xmlns="http://www.w3.org/2000/svg" width="15" height="16" viewBox="0 0 15 16">
    <path fill="#FFF" fill-rule="nonzero" d="M6.25 7.375H.625C.25 7.375 0 7.125 0 6.75V1.125C0 .75.25.5.625.5H6.25c.375 0 .625.25.625.625V6.75c0 .375-.25.625-.625.625zm-5-1.25h4.375V1.75H1.25v4.375zm13.125 1.25H8.75c-.375 0-.625-.25-.625-.625V1.125c0-.375.25-.625.625-.625h5.625c.375 0 .625.25.625.625V6.75c0 .375-.25.625-.625.625zm-5-1.25h4.375V1.75H9.375v4.375zM6.25 15.5H.625C.25 15.5 0 15.25 0 14.875V9.25c0-.375.25-.625.625-.625H6.25c.375 0 .625.25.625.625v5.625c0 .375-.25.625-.625.625zm-5-1.25h4.375V9.875H1.25v4.375zm13.125 1.25H8.75c-.375 0-.625-.25-.625-.625V9.25c0-.375.25-.625.625-.625h5.625c.375 0 .625.25.625.625v5.625c0 .375-.25.625-.625.625zm-5-1.25h4.375V9.875H9.375v4.375z"/>
</svg>
