<?xml version="1.0" encoding="utf-8"?>
<!-- Generator: Adobe Illustrator 23.0.0, SVG Export Plug-In . SVG Version: 6.00 Build 0)  -->
<svg version="1.1" id="Layer_1" xmlns="http://www.w3.org/2000/svg" xmlns:xlink="http://www.w3.org/1999/xlink" x="0px" y="0px"
	 width="312px" height="260px" viewBox="0 0 312 260" style="enable-background:new 0 0 312 260;" xml:space="preserve">
<style type="text/css">
	.st0{fill:#E51C1C;}
	.st1{fill:#FFFFFF;}
	.st2{fill:#FCFCFC;}
</style>
<path class="st0" d="M263.5,114.6c0.9-4.6,1.4-9.3,1.4-14.1c0-39.1-31.7-70.9-70.9-70.9c-24.8,0-46.7,12.8-59.4,32.1
	c-8.3-5-18.1-7.9-28.6-7.9c-30.5,0-55.3,24.7-55.3,55.3c0,1.8,0.1,3.5,0.3,5.3c-26.8,2.2-47.8,24.6-47.8,51.9v0
	c0,28.8,23.3,52.1,52.1,52.1h201.2c28.8,0,52.1-23.3,52.1-52.1v0C308.7,139.8,289,117.9,263.5,114.6z"/>
<g>
	<path class="st1" d="M103.8,136.6c-0.9,0-1.7-0.2-2.5-0.6c-0.8-0.4-1.1-1.3-1.1-2.7v-0.8c0-0.8,0.1-1.5,0.3-2.2
		c0.2-0.7,0.6-1.4,1.2-2.2l22.1-28.9c0.6-0.8,1.2-1.5,1.9-2.1c0.7-0.7,1.5-1,2.5-1h2.2c1.3,0,2.3,0.3,2.8,0.9
		c0.5,0.6,0.8,1.5,0.8,2.9v31h5.5c0.9,0,1.3,0.4,1.3,1.2v3.4c0,0.5-0.1,0.8-0.3,0.9c-0.2,0.2-0.5,0.2-1,0.2H134v10.4
		c0,0.5-0.1,0.8-0.3,0.9c-0.2,0.1-0.5,0.2-0.9,0.2h-4.2c-0.4,0-0.7-0.1-0.9-0.2c-0.2-0.1-0.3-0.4-0.3-0.9v-10.3H103.8z M127.4,105.1
		l-0.2-0.1l-19.5,25.6l0.1,0.3h19.6V105.1z"/>
	<path class="st1" d="M185.3,122.6c0,3.9-0.4,7.5-1.2,10.8c-0.8,3.3-2,6-3.6,8.3c-1.6,2.3-3.7,4.1-6.2,5.3c-2.5,1.3-5.5,1.9-9,1.9
		c-3.3,0-6.2-0.6-8.7-1.9c-2.5-1.2-4.6-3-6.2-5.3c-1.6-2.3-2.9-5-3.7-8.3c-0.8-3.2-1.2-6.8-1.2-10.8c0-4,0.4-7.6,1.2-10.8
		c0.8-3.2,2-6,3.7-8.3c1.7-2.3,3.7-4.1,6.2-5.3c2.5-1.3,5.4-1.9,8.8-1.9c3.5,0,6.5,0.6,9.1,1.9c2.5,1.2,4.6,3,6.2,5.3
		c1.6,2.3,2.7,5,3.5,8.3C184.9,115,185.3,118.6,185.3,122.6z M178.7,122.7c0-2.5-0.2-5-0.6-7.5c-0.4-2.5-1.1-4.7-2.1-6.7
		c-1-2-2.4-3.6-4.1-4.8c-1.7-1.2-3.9-1.8-6.5-1.8c-2.6,0-4.7,0.6-6.4,1.8c-1.7,1.2-3,2.8-4,4.7c-1,1.9-1.7,4.1-2.1,6.6
		c-0.4,2.4-0.6,4.9-0.6,7.5c0,2.5,0.2,5,0.6,7.5c0.4,2.5,1.1,4.7,2.1,6.7c1,2,2.4,3.6,4.1,4.8c1.7,1.2,3.9,1.9,6.5,1.9
		c2.6,0,4.7-0.6,6.4-1.9c1.7-1.2,3-2.8,4.1-4.8c1-2,1.7-4.2,2.1-6.6C178.5,127.6,178.7,125.2,178.7,122.7z"/>
	<path class="st1" d="M193.2,136.6c-0.9,0-1.7-0.2-2.5-0.6c-0.8-0.4-1.1-1.3-1.1-2.7v-0.8c0-0.8,0.1-1.5,0.3-2.2
		c0.2-0.7,0.6-1.4,1.2-2.2l22.1-28.9c0.6-0.8,1.2-1.5,1.9-2.1c0.7-0.7,1.5-1,2.5-1h2.2c1.3,0,2.3,0.3,2.8,0.9
		c0.5,0.6,0.8,1.5,0.8,2.9v31h5.5c0.9,0,1.3,0.4,1.3,1.2v3.4c0,0.5-0.1,0.8-0.3,0.9c-0.2,0.2-0.5,0.2-1,0.2h-5.5v10.4
		c0,0.5-0.1,0.8-0.3,0.9c-0.2,0.1-0.5,0.2-0.9,0.2h-4.2c-0.4,0-0.7-0.1-0.9-0.2c-0.2-0.1-0.3-0.4-0.3-0.9v-10.3H193.2z M216.7,105.1
		l-0.2-0.1L197,130.6l0.1,0.3h19.6V105.1z"/>
</g>
<g>
	<path class="st2" d="M124.4,189.2c-0.1,0.1-0.3,0.2-0.6,0.2h-10.8c-1.3,0-2.3-0.2-3.2-0.5c-0.8-0.4-1.5-0.8-2-1.4
		c-0.5-0.6-0.9-1.3-1.1-2.1c-0.2-0.8-0.3-1.7-0.3-2.6v-13.9c0-0.9,0.1-1.7,0.3-2.5c0.2-0.8,0.6-1.5,1.1-2.1c0.5-0.6,1.2-1.1,2-1.5
		c0.8-0.4,1.8-0.5,3-0.5h10.6c0.3,0,0.5,0.1,0.6,0.2c0.1,0.1,0.1,0.3,0.1,0.6v1.6c0,0.3,0,0.5-0.1,0.6c-0.1,0.1-0.3,0.2-0.6,0.2
		h-10.5c-1.1,0-1.9,0.2-2.3,0.7c-0.5,0.5-0.7,1.2-0.7,2.2v5h12.3c0.3,0,0.5,0.1,0.6,0.2c0.1,0.1,0.1,0.3,0.1,0.6v1.5
		c0,0.3,0,0.5-0.1,0.6c-0.1,0.1-0.3,0.2-0.6,0.2H110v6.7c0,0.9,0.2,1.6,0.7,2.1c0.5,0.5,1.3,0.8,2.4,0.8h10.7c0.3,0,0.5,0.1,0.6,0.2
		c0.1,0.1,0.1,0.3,0.1,0.6v1.6C124.6,188.9,124.5,189.1,124.4,189.2z"/>
	<path class="st2" d="M129,164.2c0-0.7,0.1-1.2,0.4-1.5c0.3-0.3,0.8-0.5,1.6-0.5h8.9c1.2,0,2.4,0.2,3.4,0.6c1,0.4,1.9,0.9,2.6,1.6
		c0.7,0.7,1.3,1.5,1.7,2.4c0.4,0.9,0.6,2,0.6,3.1c0,1.5-0.4,2.9-1.2,4.1c-0.8,1.2-1.8,2-3.2,2.5v0.2c1.1,0.3,1.8,0.8,2.3,1.5
		c0.5,0.7,0.8,1.5,1.1,2.4l2.2,8.2c0.1,0.1,0.1,0.3,0,0.4c0,0.2-0.2,0.3-0.5,0.3h-2.6c-0.1,0-0.3,0-0.4-0.1
		c-0.1-0.1-0.2-0.2-0.3-0.4l-2.1-7.4c-0.2-0.7-0.5-1.4-0.8-1.9c-0.3-0.5-0.7-0.9-1.2-1.2c-0.5-0.3-1-0.5-1.5-0.6s-1.2-0.2-1.8-0.2
		h-5.5v11c0,0.3-0.1,0.5-0.2,0.5c-0.1,0.1-0.3,0.1-0.6,0.1h-2.2c-0.3,0-0.4,0-0.6-0.1c-0.1-0.1-0.2-0.3-0.2-0.5V164.2z M144.4,170
		c0-0.5-0.1-1-0.2-1.6c-0.2-0.5-0.4-1-0.8-1.5s-0.9-0.8-1.6-1.1c-0.6-0.3-1.5-0.4-2.4-0.4h-6.7v9.1h6.5c0.9,0,1.7-0.1,2.4-0.4
		c0.7-0.2,1.2-0.6,1.6-1c0.4-0.4,0.7-0.9,0.9-1.5C144.3,171.2,144.4,170.6,144.4,170z"/>
	<path class="st2" d="M153.2,164.2c0-0.7,0.1-1.2,0.4-1.5c0.3-0.3,0.8-0.5,1.6-0.5h8.9c1.2,0,2.4,0.2,3.4,0.6c1,0.4,1.9,0.9,2.6,1.6
		s1.3,1.5,1.7,2.4c0.4,0.9,0.6,2,0.6,3.1c0,1.5-0.4,2.9-1.2,4.1c-0.8,1.2-1.8,2-3.2,2.5v0.2c1.1,0.3,1.8,0.8,2.3,1.5
		s0.8,1.5,1.1,2.4l2.2,8.2c0.1,0.1,0.1,0.3,0,0.4c0,0.2-0.2,0.3-0.5,0.3h-2.6c-0.1,0-0.3,0-0.4-0.1c-0.1-0.1-0.2-0.2-0.3-0.4
		l-2.1-7.4c-0.2-0.7-0.5-1.4-0.8-1.9s-0.7-0.9-1.2-1.2s-1-0.5-1.5-0.6s-1.2-0.2-1.8-0.2h-5.5v11c0,0.3-0.1,0.5-0.2,0.5
		c-0.1,0.1-0.3,0.1-0.6,0.1H154c-0.3,0-0.4,0-0.6-0.1c-0.1-0.1-0.2-0.3-0.2-0.5V164.2z M168.7,170c0-0.5-0.1-1-0.2-1.6
		c-0.2-0.5-0.4-1-0.8-1.5c-0.4-0.4-0.9-0.8-1.6-1.1c-0.6-0.3-1.5-0.4-2.4-0.4h-6.7v9.1h6.5c0.9,0,1.7-0.1,2.4-0.4
		c0.7-0.2,1.2-0.6,1.6-1c0.4-0.4,0.7-0.9,1-1.5C168.6,171.2,168.7,170.6,168.7,170z"/>
	<path class="st2" d="M199.8,175.7c0,4.5-1,8-2.9,10.5c-2,2.4-4.9,3.6-8.7,3.6c-3.8,0-6.7-1.2-8.6-3.6c-1.9-2.4-2.8-5.9-2.8-10.3
		c0-2.2,0.3-4.2,0.9-6c0.6-1.7,1.4-3.2,2.4-4.4s2.2-2.1,3.6-2.7s2.9-0.9,4.6-0.9c1.9,0,3.6,0.3,5,0.9c1.4,0.6,2.7,1.6,3.6,2.8
		s1.7,2.7,2.2,4.4C199.5,171.6,199.8,173.5,199.8,175.7z M196.1,175.9c0-1.4-0.1-2.8-0.3-4.1s-0.6-2.5-1.2-3.5
		c-0.6-1-1.4-1.8-2.4-2.4c-1-0.6-2.3-0.9-3.9-0.9c-1.4,0-2.6,0.3-3.6,0.9c-1,0.6-1.8,1.3-2.5,2.3c-0.7,1-1.1,2.1-1.5,3.4
		c-0.3,1.3-0.5,2.7-0.5,4.1c0,1.6,0.1,3.1,0.4,4.4c0.3,1.3,0.7,2.5,1.3,3.4c0.6,1,1.4,1.7,2.4,2.3c1,0.5,2.3,0.8,3.8,0.8
		c1.5,0,2.8-0.3,3.8-0.9c1-0.6,1.8-1.4,2.5-2.4s1.1-2.2,1.3-3.5C196,178.6,196.1,177.3,196.1,175.9z"/>
	<path class="st2" d="M204.8,164.2c0-0.7,0.1-1.2,0.4-1.5c0.3-0.3,0.8-0.5,1.6-0.5h8.9c1.2,0,2.4,0.2,3.4,0.6c1,0.4,1.9,0.9,2.6,1.6
		s1.3,1.5,1.7,2.4c0.4,0.9,0.6,2,0.6,3.1c0,1.5-0.4,2.9-1.2,4.1c-0.8,1.2-1.8,2-3.2,2.5v0.2c1.1,0.3,1.8,0.8,2.3,1.5
		s0.8,1.5,1.1,2.4l2.2,8.2c0.1,0.1,0.1,0.3,0,0.4c0,0.2-0.2,0.3-0.5,0.3h-2.6c-0.1,0-0.3,0-0.4-0.1c-0.1-0.1-0.2-0.2-0.3-0.4
		l-2.1-7.4c-0.2-0.7-0.5-1.4-0.8-1.9s-0.7-0.9-1.2-1.2s-1-0.5-1.5-0.6s-1.2-0.2-1.8-0.2h-5.5v11c0,0.3-0.1,0.5-0.2,0.5
		c-0.1,0.1-0.3,0.1-0.6,0.1h-2.2c-0.3,0-0.4,0-0.6-0.1s-0.2-0.3-0.2-0.5V164.2z M220.3,170c0-0.5-0.1-1-0.2-1.6
		c-0.2-0.5-0.4-1-0.8-1.5c-0.4-0.4-0.9-0.8-1.6-1.1c-0.6-0.3-1.5-0.4-2.4-0.4h-6.7v9.1h6.5c0.9,0,1.7-0.1,2.4-0.4
		c0.7-0.2,1.2-0.6,1.6-1c0.4-0.4,0.7-0.9,1-1.5C220.2,171.2,220.3,170.6,220.3,170z"/>
</g>
</svg>
