<?xml version="1.0" encoding="utf-8"?>
<!-- Generator: Adobe Illustrator 23.0.0, SVG Export Plug-In . SVG Version: 6.00 Build 0)  -->
<svg version="1.1" id="Layer_1" xmlns="http://www.w3.org/2000/svg" xmlns:xlink="http://www.w3.org/1999/xlink" x="0px" y="0px"
	 viewBox="0 0 24.2 24.2" style="enable-background:new 0 0 24.2 24.2;" xml:space="preserve">
<style type="text/css">
	.st0{fill:#FFFFFF;}
</style>
<g>
	<g>
		<path class="st0" d="M17.6,23.7h-0.5c-1.5,0-2.7-1.2-2.7-2.7v-3.5c0-0.7-0.5-1.2-1.2-1.2h-2.8c-0.7,0-1.2,0.5-1.2,1.2v3.3
			c0,1.5-1.2,2.7-2.7,2.7H6.3c-1.5,0-2.7-1.2-2.7-2.7v-7.6c0-0.4,0.3-0.7,0.7-0.7s0.7,0.3,0.7,0.7v7.6c0,0.7,0.5,1.2,1.2,1.2h0.3
			c0.7,0,1.2-0.5,1.2-1.2v-3.3c0-1.5,1.2-2.7,2.7-2.7h2.8c1.5,0,2.7,1.2,2.7,2.7V21c0,0.7,0.5,1.2,1.2,1.2h0.5
			c0.7,0,1.2-0.5,1.2-1.2v-7.8c0-0.4,0.3-0.7,0.7-0.7s0.7,0.3,0.7,0.7V21C20.3,22.5,19.1,23.7,17.6,23.7z"/>
	</g>
	<g>
		<path class="st0" d="M23.3,12.8c-0.2,0-0.4-0.1-0.5-0.2L11.9,1.9L1.4,12.5c-0.3,0.3-0.8,0.3-1.1,0c-0.3-0.3-0.3-0.8,0-1.1L11,0.8
			c0.5-0.5,1.4-0.5,1.9,0l10.9,10.8c0.3,0.3,0.3,0.8,0,1.1C23.7,12.7,23.5,12.8,23.3,12.8z"/>
	</g>
</g>
</svg>
