<?xml version="1.0" encoding="UTF-8"?>
<svg width="44px" height="44px" viewBox="0 0 44 44" version="1.1" xmlns="http://www.w3.org/2000/svg" xmlns:xlink="http://www.w3.org/1999/xlink">
    <!-- Generator: Sketch 54.1 (76490) - https://sketchapp.com -->
    <title>hosting_color_icn</title>
    <desc>Created with Sketch.</desc>
    <g id="UI" stroke="none" stroke-width="1" fill="none" fill-rule="evenodd">
        <g id="DỊch-vụ-Cloud" transform="translate(-577.000000, -1920.000000)">
            <g id="hosting_color_icn" transform="translate(577.533019, 1920.583019)">
                <rect id="Rectangle" fill="#fff" x="7.57925503" y="1.63257884" width="28.2561686" height="10.308031"></rect>
                <path d="M0.864388011,41.5198649 C0.387269468,41.5198649 -1.3500312e-13,41.1325955 -1.3500312e-13,40.6554769 C-1.3500312e-13,40.1783584 0.387269468,39.7910889 0.864388011,39.7910889 L19.0394416,39.7910889 L19.1176489,39.7359222 C19.3953976,38.9560185 20.007881,38.3435352 20.7877846,38.0657865 L20.8429513,37.9875791 L20.8429513,35.9184425 L20.7599325,35.8354237 L8.44364304,35.8354237 C6.92248212,35.8354237 5.68444127,34.5973828 5.68444127,33.0762219 L5.68444127,25.4969669 C5.68444127,24.8115955 5.94272811,24.1668351 6.40203803,23.6577666 L6.40203803,23.5465396 C5.94272811,23.0374711 5.68444127,22.3927107 5.68444127,21.7073393 L5.68444127,14.1280843 C5.68444127,13.442713 5.94272811,12.7979525 6.40203803,12.288884 L6.40203803,12.1776571 C5.94272811,11.6685886 5.68444127,11.0238281 5.68444127,10.3384568 L5.68444127,2.75920177 C5.68444127,1.23804085 6.92248212,-8.49098569e-13 8.44364304,-8.49098569e-13 L34.9710356,-8.49098569e-13 C36.4921966,-8.49098569e-13 37.7302374,1.23804085 37.7302374,2.75920177 L37.7302374,10.3384568 C37.7302374,11.0238281 37.4719506,11.6685886 37.0126407,12.1776571 L37.0126407,12.288884 C37.4719506,12.7979525 37.7302374,13.442713 37.7302374,14.1280843 L37.7302374,21.7073393 C37.7302374,22.3927107 37.4719506,23.0374711 37.0126407,23.5465396 L37.0126407,23.6577666 C37.4719506,24.1668351 37.7302374,24.8115955 37.7302374,25.4969669 L37.7302374,33.0762219 C37.7302374,34.5973828 36.4921966,35.8354237 34.9710356,35.8354237 L22.6547462,35.8354237 L22.5717274,35.9184425 L22.5717274,37.9875791 L22.6268941,38.0657865 C23.4067977,38.3435352 24.019281,38.9560185 24.2970298,39.7359222 L24.3752371,39.7910889 L42.5502907,39.7910889 C43.0274092,39.7910889 43.4146787,40.1783584 43.4146787,40.6554769 C43.4146787,41.1325955 43.0274092,41.5198649 42.5502907,41.5198649 L24.3752371,41.5198649 L24.2970335,41.5750212 C23.9071645,42.6692912 22.8786454,43.4146787 21.7073393,43.4146787 C20.5360333,43.4146787 19.5075142,42.6692912 19.1176452,41.5750212 L19.0394416,41.5198649 L0.864388011,41.5198649 Z M7.57925503,21.7073393 C7.57925503,22.1837788 7.96773939,22.5717274 8.44364304,22.5717274 L34.9710356,22.5717274 C35.4469393,22.5717274 35.8354237,22.1837788 35.8354237,21.7073393 L35.8354237,14.1280843 C35.8354237,13.6516448 35.4469393,13.2636963 34.9710356,13.2636963 L8.44364304,13.2636963 C7.96773939,13.2636963 7.57925503,13.6516448 7.57925503,14.1280843 L7.57925503,21.7073393 Z M7.57925503,2.75920177 L7.57925503,10.3384568 C7.57925503,10.8148963 7.96773939,11.2028448 8.44364304,11.2028448 L34.9710356,11.2028448 C35.4469393,11.2028448 35.8354237,10.8148963 35.8354237,10.3384568 L35.8354237,2.75920177 C35.8354237,2.28276228 35.4469393,1.89481376 34.9710356,1.89481376 L8.44364304,1.89481376 C7.96773939,1.89481376 7.57925503,2.28276228 7.57925503,2.75920177 Z M7.57925503,33.0762219 C7.57925503,33.5526614 7.96773939,33.9406099 8.44364304,33.9406099 L34.9710356,33.9406099 C35.4469393,33.9406099 35.8354237,33.5526614 35.8354237,33.0762219 L35.8354237,25.4969669 C35.8354237,25.0205274 35.4469393,24.6325788 34.9710356,24.6325788 L8.44364304,24.6325788 C7.96773939,24.6325788 7.57925503,25.0205274 7.57925503,25.4969669 L7.57925503,33.0762219 Z M21.7073393,39.7910889 C21.2314357,39.7910889 20.8429513,40.1790374 20.8429513,40.6554769 C20.8429513,41.1319164 21.2314357,41.5198649 21.7073393,41.5198649 C22.183243,41.5198649 22.5717274,41.1319164 22.5717274,40.6554769 C22.5717274,40.1790374 22.183243,39.7910889 21.7073393,39.7910889 Z M10.3384568,9.30803105 C10.8155753,9.30803105 11.2028448,8.92076158 11.2028448,8.44364304 L11.2028448,4.65401553 C11.2028448,4.17689698 10.8155753,3.78962751 10.3384568,3.78962751 C9.86133825,3.78962751 9.47406879,4.17689698 9.47406879,4.65401553 L9.47406879,8.44364304 C9.47406879,8.92076158 9.86133825,9.30803105 10.3384568,9.30803105 Z M10.3384568,15.1585101 C9.86133825,15.1585101 9.47406879,15.5457795 9.47406879,16.0228981 L9.47406879,19.8125256 C9.47406879,20.2896441 9.86133825,20.6769136 10.3384568,20.6769136 C10.8155753,20.6769136 11.2028448,20.2896441 11.2028448,19.8125256 L11.2028448,16.0228981 C11.2028448,15.5457795 10.8155753,15.1585101 10.3384568,15.1585101 Z M10.3384568,26.5273926 C9.86133825,26.5273926 9.47406879,26.9146621 9.47406879,27.3917806 L9.47406879,31.1814081 C9.47406879,31.6585267 9.86133825,32.0457961 10.3384568,32.0457961 C10.8155753,32.0457961 11.2028448,31.6585267 11.2028448,31.1814081 L11.2028448,27.3917806 C11.2028448,26.9146621 10.8155753,26.5273926 10.3384568,26.5273926 Z M33.0762219,7.41321729 C33.3079324,7.41321729 33.5306133,7.32214125 33.698082,7.15298747 C33.851671,7.00108631 33.9406099,6.7775749 33.9406099,6.54882928 C33.9406099,6.32397039 33.8540452,6.11621508 33.6821523,5.92681344 C33.3461472,5.60680857 32.807244,5.60680857 32.4557964,5.94118116 C32.2960871,6.11863594 32.2118339,6.32705174 32.2118339,6.54882928 C32.2118339,6.7799342 32.302527,7.00324903 32.4663731,7.16898092 C32.6460432,7.32908295 32.8546078,7.41321729 33.0762219,7.41321729 Z M29.2865944,7.41321729 C29.5195476,7.41321729 29.7394808,7.32157844 29.8942425,7.15030666 C30.0593435,7.00171572 30.1509824,6.78178248 30.1509824,6.54882928 C30.1509824,6.32244686 30.0634322,6.11670386 29.8895114,5.94274025 C29.5744994,5.61022761 29.002782,5.60473032 28.6661689,5.94118116 C28.5064596,6.11863594 28.4222064,6.32705174 28.4222064,6.54882928 C28.4222064,6.78133552 28.5135538,7.00167104 28.6829159,7.15613901 C28.8335166,7.32163424 29.0537738,7.41321729 29.2865944,7.41321729 Z M25.4969669,7.41321729 C25.7286773,7.41321729 25.9513583,7.32214125 26.118827,7.15298747 C26.2724159,7.00108631 26.3613549,6.7775749 26.3613549,6.54882928 C26.3613549,6.32397039 26.2747902,6.11621508 26.1028973,5.92681344 C25.7668922,5.60680857 25.227989,5.60680857 24.8765413,5.94118116 C24.716832,6.11863594 24.6325788,6.32705174 24.6325788,6.54882928 C24.6325788,6.7799342 24.723272,7.00324903 24.8902652,7.1719356 C25.0446951,7.3246685 25.2688634,7.41321729 25.4969669,7.41321729 Z M32.2118339,17.9177118 C32.2118339,18.1488167 32.302527,18.3721316 32.4663731,18.5378635 C32.6460432,18.6979655 32.8546078,18.7820998 33.0762219,18.7820998 C33.3079324,18.7820998 33.5306133,18.6910238 33.698082,18.52187 C33.851671,18.3699689 33.9406099,18.1464574 33.9406099,17.9177118 C33.9406099,17.6847586 33.848971,17.4648254 33.6791389,17.3116228 C33.3646018,16.9796114 32.7941326,16.9736302 32.4543296,17.3116967 C32.2955713,17.4887965 32.2118339,17.6966142 32.2118339,17.9177118 Z M28.4222064,17.9177118 C28.4222064,18.1436574 28.5094417,18.3496907 28.6829159,18.5250216 C28.8335166,18.6905168 29.0537738,18.7820998 29.2865944,18.7820998 C29.5183048,18.7820998 29.7409858,18.6910238 29.9084545,18.52187 C30.0620435,18.3699689 30.1509824,18.1464574 30.1509824,17.9177118 C30.1509824,17.6861459 30.0599773,17.4631834 29.8926834,17.2958466 C29.554947,16.9758858 29.0183802,16.9756662 28.6624492,17.3139464 C28.5105557,17.466263 28.4222064,17.6898182 28.4222064,17.9177118 Z M24.6325788,17.9177118 C24.6325788,18.1436574 24.7198142,18.3496907 24.8932884,18.5250216 C25.0438891,18.6905168 25.2641463,18.7820998 25.4969669,18.7820998 C25.7286773,18.7820998 25.9513583,18.6910238 26.118827,18.52187 C26.2724159,18.3699689 26.3613549,18.1464574 26.3613549,17.9177118 C26.3613549,17.6861459 26.2703498,17.4631834 26.1030559,17.2958466 C25.7653195,16.9758858 25.2287527,16.9756662 24.8728217,17.3139464 C24.7209282,17.466263 24.6325788,17.6898182 24.6325788,17.9177118 Z M33.0762219,30.1509824 C33.3091751,30.1509824 33.5291083,30.0593435 33.68387,29.8880717 C33.848971,29.7394808 33.9406099,29.5195476 33.9406099,29.2865944 C33.9406099,29.0536412 33.848971,28.8337079 33.6791389,28.6805053 C33.364127,28.3479927 32.7924095,28.3424954 32.4557964,28.6789462 C32.2960871,28.856401 32.2118339,29.0648168 32.2118339,29.2865944 C32.2118339,29.5191006 32.3031813,29.7394361 32.4725435,29.8939041 C32.6231441,30.0593993 32.8434013,30.1509824 33.0762219,30.1509824 Z M29.2865944,30.1509824 C29.5183048,30.1509824 29.7409858,30.0599063 29.9084545,29.8907526 C30.0620435,29.7388514 30.1509824,29.51534 30.1509824,29.2865944 C30.1509824,29.0550284 30.0599773,28.8320659 29.8925248,28.6645785 C29.5565197,28.3445737 29.0176165,28.3445737 28.6661689,28.6789462 C28.5064596,28.856401 28.4222064,29.0648168 28.4222064,29.2865944 C28.4222064,29.5176993 28.5128995,29.7410141 28.6767456,29.906746 C28.8564157,30.066848 29.0649803,30.1509824 29.2865944,30.1509824 Z M25.4969669,30.1509824 C25.7299201,30.1509824 25.9498533,30.0593435 26.104615,29.8880717 C26.269716,29.7394808 26.3613549,29.5195476 26.3613549,29.2865944 C26.3613549,29.0536412 26.269716,28.8337079 26.0998839,28.6805053 C25.791074,28.3545394 25.2183908,28.3545394 24.8735371,28.6821128 C24.7212055,28.8344443 24.6325788,29.0583433 24.6325788,29.2865944 C24.6325788,29.5191006 24.7239263,29.7394361 24.8932884,29.8939041 C25.0438891,30.0593993 25.2641463,30.1509824 25.4969669,30.1509824 Z" id="Combined-Shape" fill="#353638" fill-rule="nonzero"></path>
            </g>
        </g>
    </g>
</svg>
