<svg width="51" height="63" viewBox="0 0 51 63" fill="none" xmlns="http://www.w3.org/2000/svg">
<rect x="11.6648" y="44" width="30" height="19" rx="2" fill="#EE0033"/>
<rect width="30" height="14" transform="translate(11.6648 33)" fill="white"/>
<path d="M31.9832 33H20.9832V48H31.9832V33Z" fill="#EE0033"/>
<path d="M23.323 30.4688C23.3228 30.6759 23.2404 30.8745 23.0939 31.0209C22.9475 31.1674 22.7489 31.2498 22.5417 31.25H20.9792V21.0938C20.9785 20.4724 20.7314 19.8766 20.292 19.4372C19.8526 18.9979 19.2569 18.7507 18.6355 18.75H4.573C3.95161 18.7507 3.35588 18.9979 2.91649 19.4372C2.47711 19.8766 2.22995 20.4724 2.22925 21.0938V46.0938C2.22995 46.7151 2.47711 47.3109 2.91649 47.7503C3.35588 48.1896 3.95161 48.4368 4.573 48.4375H18.6355C19.2569 48.4368 19.8526 48.1896 20.292 47.7503C20.7314 47.3109 20.9785 46.7151 20.9792 46.0938V32.8125H22.5417C23.1631 32.8118 23.7589 32.5646 24.1983 32.1253C24.6376 31.6859 24.8848 31.0901 24.8855 30.4688V17.9688H23.323V30.4688ZM3.79175 37.5V32.8125H19.4167V37.5H3.79175ZM19.4167 39.0625V43.75H3.79175V39.0625H19.4167ZM3.79175 31.25V26.5625H19.4167V31.25H3.79175ZM4.573 20.3125H18.6355C18.8426 20.3127 19.0412 20.3951 19.1877 20.5416C19.3341 20.688 19.4165 20.8866 19.4167 21.0938V25H3.79175V21.0938C3.79199 20.8866 3.87437 20.688 4.02083 20.5416C4.16729 20.3951 4.36587 20.3127 4.573 20.3125ZM18.6355 46.875H4.573C4.36587 46.8748 4.16729 46.7924 4.02083 46.6459C3.87437 46.4995 3.79199 46.3009 3.79175 46.0938V45.3125H19.4167V46.0938C19.4165 46.3009 19.3341 46.4995 19.1877 46.6459C19.0412 46.7924 18.8426 46.8748 18.6355 46.875Z" fill="black"/>
<path d="M15.5105 21.875H17.8542V23.4375H15.5105V21.875Z" fill="black"/>
<path d="M5.35425 21.875H13.948V23.4375H5.35425V21.875Z" fill="black"/>
<path d="M15.5105 28.125H17.8542V29.6875H15.5105V28.125Z" fill="black"/>
<path d="M5.35425 28.125H13.948V29.6875H5.35425V28.125Z" fill="black"/>
<path d="M15.5105 34.375H17.8542V35.9375H15.5105V34.375Z" fill="black"/>
<path d="M5.35425 34.375H13.948V35.9375H5.35425V34.375Z" fill="black"/>
<path d="M15.5105 40.625H17.8542V42.1875H15.5105V40.625Z" fill="black"/>
<path d="M5.35425 40.625H13.948V42.1875H5.35425V40.625Z" fill="black"/>
<path d="M20.198 16.4063H31.1355C32.3146 16.4063 33.4504 15.9619 34.3165 15.1618C35.1825 14.3616 35.7152 13.2645 35.8084 12.0891C35.9015 10.9136 35.5482 9.74629 34.819 8.81975C34.0897 7.89321 33.0381 7.27554 31.8737 7.08988C31.6968 5.56777 30.9668 4.16372 29.8224 3.14464C28.678 2.12556 27.1991 1.5625 25.6668 1.5625C24.1344 1.5625 22.6555 2.12556 21.5111 3.14464C20.3668 4.16372 19.6367 5.56777 19.4599 7.08988C18.2955 7.27554 17.2438 7.89321 16.5146 8.81975C15.7853 9.74629 15.432 10.9136 15.5252 12.0891C15.6183 13.2645 16.151 14.3616 17.017 15.1618C17.8831 15.9619 19.0189 16.4063 20.198 16.4063ZM19.4778 8.67845C19.5976 9.53079 19.8917 10.3493 20.342 11.0828C20.7923 11.8164 21.389 12.4492 22.0948 12.9418L22.9887 11.6602C22.3518 11.2169 21.8348 10.6223 21.4843 9.92982C21.1338 9.23737 20.9607 8.46873 20.9806 7.69287C21.0004 6.91702 21.2126 6.15823 21.598 5.48461C21.9835 4.81098 22.5301 4.2436 23.189 3.83337C23.8478 3.42314 24.5982 3.18291 25.3728 3.13423C26.1473 3.08555 26.9219 3.22995 27.6269 3.55447C28.3319 3.87898 28.9453 4.37346 29.412 4.99353C29.8788 5.6136 30.1843 6.33985 30.3011 7.10712C29.2209 7.30385 28.2439 7.873 27.5399 8.71556C26.8359 9.55813 26.4496 10.6208 26.448 11.7188H28.0105C28.0105 11.1007 28.1938 10.4965 28.5372 9.98259C28.8805 9.46869 29.3686 9.06815 29.9396 8.83163C30.5106 8.5951 31.139 8.53322 31.7452 8.6538C32.3514 8.77438 32.9082 9.072 33.3452 9.50904C33.7823 9.94608 34.0799 10.5029 34.2005 11.1091C34.321 11.7153 34.2592 12.3436 34.0226 12.9146C33.7861 13.4857 33.3856 13.9737 32.8717 14.3171C32.3578 14.6605 31.7536 14.8438 31.1355 14.8438H20.198C19.432 14.8438 18.6927 14.5625 18.1205 14.0533C17.5482 13.5441 17.183 12.8424 17.0941 12.0816C17.0052 11.3208 17.1989 10.5538 17.6384 9.92643C18.0778 9.29903 18.7325 8.85491 19.4778 8.67845Z" fill="black"/>
<path d="M46.7605 18.75H32.698C32.0766 18.7507 31.4809 18.9979 31.0415 19.4372C30.6021 19.8766 30.355 20.4724 30.3542 21.0938V31.25H28.7917C28.5846 31.2498 28.386 31.1674 28.2396 31.0209C28.0931 30.8745 28.0107 30.6759 28.0105 30.4688V17.9688H26.448V30.4688C26.4487 31.0901 26.6959 31.6859 27.1352 32.1253C27.5746 32.5646 28.1704 32.8118 28.7917 32.8125H30.3542V46.0938C30.355 46.7151 30.6021 47.3109 31.0415 47.7503C31.4809 48.1896 32.0766 48.4368 32.698 48.4375H46.7605C47.3819 48.4368 47.9776 48.1896 48.417 47.7503C48.8564 47.3109 49.1035 46.7151 49.1042 46.0938V21.0938C49.1035 20.4724 48.8564 19.8766 48.417 19.4372C47.9776 18.9979 47.3819 18.7507 46.7605 18.75ZM32.698 20.3125H46.7605C46.9676 20.3127 47.1662 20.3951 47.3127 20.5416C47.4591 20.688 47.5415 20.8866 47.5417 21.0938V25H31.9167V21.0938C31.917 20.8866 31.9994 20.688 32.1458 20.5416C32.2923 20.3951 32.4909 20.3127 32.698 20.3125ZM31.9167 39.0625H47.5417V43.75H31.9167V39.0625ZM31.9167 37.5V32.8125H47.5417V37.5H31.9167ZM31.9167 31.25V26.5625H47.5417V31.25H31.9167ZM46.7605 46.875H32.698C32.4909 46.8748 32.2923 46.7924 32.1458 46.6459C31.9994 46.4995 31.917 46.3009 31.9167 46.0938V45.3125H47.5417V46.0938C47.5415 46.3009 47.4591 46.4995 47.3127 46.6459C47.1662 46.7924 46.9676 46.8748 46.7605 46.875Z" fill="black"/>
<path d="M43.6355 21.875H45.9792V23.4375H43.6355V21.875Z" fill="black"/>
<path d="M33.4792 21.875H42.073V23.4375H33.4792V21.875Z" fill="black"/>
<path d="M43.6355 28.125H45.9792V29.6875H43.6355V28.125Z" fill="black"/>
<path d="M33.4792 28.125H42.073V29.6875H33.4792V28.125Z" fill="black"/>
<path d="M43.6355 34.375H45.9792V35.9375H43.6355V34.375Z" fill="black"/>
<path d="M33.4792 34.375H42.073V35.9375H33.4792V34.375Z" fill="black"/>
<path d="M43.6355 40.625H45.9792V42.1875H43.6355V40.625Z" fill="black"/>
<path d="M33.4792 40.625H42.073V42.1875H33.4792V40.625Z" fill="black"/>
<path d="M42.6257 6.02095C43.1247 6.25936 43.692 6.31366 44.2272 6.17425C44.7625 6.03484 45.2312 5.7107 45.5505 5.25912C45.8699 4.80754 46.0193 4.2576 45.9724 3.7065C45.9254 3.15541 45.6852 2.63865 45.2941 2.24756C44.903 1.85648 44.3862 1.61625 43.8351 1.56933C43.284 1.52242 42.7341 1.67185 42.2825 1.99121C41.831 2.31057 41.5068 2.77928 41.3674 3.31452C41.228 3.84975 41.2823 4.41703 41.5208 4.91609L39.4057 7.03125H36.6042V8.59375H40.0528L42.6257 6.02095ZM43.6355 3.125C43.79 3.125 43.9411 3.17082 44.0695 3.25666C44.198 3.34251 44.2981 3.46452 44.3573 3.60728C44.4164 3.75003 44.4319 3.90711 44.4017 4.05866C44.3716 4.21021 44.2972 4.34941 44.1879 4.45867C44.0787 4.56793 43.9395 4.64234 43.7879 4.67249C43.6364 4.70263 43.4793 4.68716 43.3365 4.62803C43.1938 4.5689 43.0718 4.46876 42.9859 4.34029C42.9001 4.21181 42.8542 4.06076 42.8542 3.90625C42.8545 3.69912 42.9369 3.50054 43.0833 3.35408C43.2298 3.20762 43.4284 3.12523 43.6355 3.125Z" fill="black"/>
<path d="M43.1778 10.1562H37.3855V11.7188H42.5307L44.6458 13.8339C44.4073 14.333 44.353 14.9003 44.4924 15.4356C44.6318 15.9709 44.9559 16.4397 45.4075 16.7591C45.8591 17.0785 46.4091 17.2279 46.9603 17.181C47.5114 17.1341 48.0282 16.8938 48.4194 16.5027C48.8105 16.1116 49.0508 15.5948 49.0977 15.0436C49.1446 14.4925 48.9952 13.9425 48.6758 13.4909C48.3564 13.0393 47.8877 12.7151 47.3524 12.5757C46.8171 12.4363 46.2498 12.4906 45.7507 12.729L43.1778 10.1562ZM47.5417 14.8438C47.5417 14.9983 47.4959 15.1493 47.4101 15.2778C47.3242 15.4063 47.2022 15.5064 47.0595 15.5655C46.9167 15.6247 46.7596 15.6401 46.6081 15.61C46.4565 15.5798 46.3173 15.5054 46.2081 15.3962C46.0988 15.2869 46.0244 15.1477 45.9943 14.9962C45.9641 14.8446 45.9796 14.6875 46.0387 14.5448C46.0978 14.402 46.198 14.28 46.3265 14.1942C46.4549 14.1083 46.606 14.0625 46.7605 14.0625C46.9676 14.0627 47.1662 14.1451 47.3127 14.2916C47.4591 14.438 47.5415 14.6366 47.5417 14.8438Z" fill="black"/>
<path d="M4.573 17.1875C4.96892 17.1876 5.35841 17.0874 5.70511 16.8962C6.05181 16.705 6.3444 16.429 6.55559 16.0941C6.76677 15.7592 6.88965 15.3763 6.91276 14.981C6.93586 14.5858 6.85844 14.1911 6.68773 13.8339L8.80283 11.7188H13.948V10.1562H8.15567L5.58285 12.729C5.26542 12.5775 4.91794 12.4993 4.56617 12.5003C4.21441 12.5013 3.86738 12.5815 3.55083 12.7349C3.23427 12.8883 2.95631 13.111 2.73755 13.3864C2.51879 13.6619 2.36485 13.9831 2.28715 14.3262C2.20944 14.6692 2.20996 15.0254 2.28866 15.3683C2.36737 15.7111 2.52225 16.0318 2.7418 16.3067C2.96136 16.5815 3.23997 16.8034 3.55697 16.9559C3.87397 17.1084 4.22123 17.1875 4.573 17.1875ZM4.573 14.0625C4.72752 14.0625 4.87856 14.1083 5.00704 14.1942C5.13552 14.28 5.23565 14.402 5.29478 14.5448C5.35391 14.6875 5.36938 14.8446 5.33924 14.9962C5.30909 15.1477 5.23469 15.2869 5.12543 15.3962C5.01617 15.5054 4.87696 15.5798 4.72541 15.61C4.57387 15.6401 4.41678 15.6247 4.27403 15.5655C4.13127 15.5064 4.00926 15.4063 3.92342 15.2778C3.83757 15.1493 3.79175 14.9983 3.79175 14.8438C3.79199 14.6366 3.87437 14.438 4.02084 14.2916C4.1673 14.1451 4.36587 14.0627 4.573 14.0625Z" fill="black"/>
<path d="M7.698 6.24999C8.04753 6.25037 8.39268 6.17209 8.70784 6.02094L11.2807 8.59374H14.7292V7.03124H11.9278L9.81272 4.91608C10.0316 4.45759 10.0956 3.94038 9.99496 3.44237C9.89436 2.94437 9.63464 2.49254 9.25494 2.15497C8.87524 1.81739 8.39611 1.61236 7.88976 1.57074C7.3834 1.52913 6.87723 1.6532 6.44751 1.92425C6.01779 2.1953 5.68779 2.59867 5.50724 3.07356C5.32668 3.54846 5.30534 4.06918 5.44643 4.55726C5.58753 5.04534 5.88341 5.47435 6.28951 5.77966C6.69561 6.08496 7.18993 6.25003 7.698 6.24999ZM7.698 3.12499C7.85251 3.12499 8.00356 3.17081 8.13204 3.25665C8.26051 3.3425 8.36065 3.46451 8.41978 3.60727C8.47891 3.75002 8.49438 3.9071 8.46424 4.05865C8.43409 4.2102 8.35968 4.34941 8.25042 4.45866C8.14117 4.56792 8.00196 4.64233 7.85041 4.67248C7.69886 4.70262 7.54178 4.68715 7.39903 4.62802C7.25627 4.56889 7.13426 4.46875 7.04841 4.34028C6.96257 4.2118 6.91675 4.06075 6.91675 3.90624C6.91698 3.69911 6.99937 3.50053 7.14583 3.35407C7.29229 3.20761 7.49087 3.12522 7.698 3.12499Z" fill="black"/>
</svg>
