<svg width="51" height="67" viewBox="0 0 51 67" fill="none" xmlns="http://www.w3.org/2000/svg">
<rect x="10.3333" y="37" width="30" height="30" rx="2" fill="#EE0033"/>
<path d="M22.3352 46.5C19.9352 46.9 13.3352 43 10.3352 41V35H40.3352V40.5C37.5352 44.1 31.1685 46 28.3352 46.5C25.9352 51.3 23.3352 48.5 22.3352 46.5Z" fill="white"/>
<g clip-path="url(#clip0_514_5549)">
<path d="M47.6464 28.1571C49.1676 27.9114 50.3333 26.5896 50.3333 25C50.3333 23.4104 49.1676 22.0886 47.6464 21.8429C47.0032 17.2754 44.94 12.9716 41.7761 9.59307L45.4519 5.91728C45.9411 6.22119 46.5176 6.39727 47.1346 6.39727C48.8984 6.39727 50.3333 4.9624 50.3333 3.19863C50.3333 1.43486 48.8984 0 47.1346 0C45.3708 0 43.936 1.43486 43.936 3.19863C43.936 3.81572 44.1121 4.39219 44.416 4.88135L40.7402 8.55713C37.3617 5.39326 33.058 3.33008 28.4904 2.68682C28.2447 1.16563 26.9228 0 25.3333 0C23.7437 0 22.4218 1.16563 22.1761 2.68682C17.6085 3.33008 13.3048 5.39326 9.92632 8.55723L6.25054 4.88145C6.55444 4.39229 6.73062 3.81572 6.73062 3.19873C6.73052 1.43486 5.29565 0 3.53188 0C1.76812 0 0.333252 1.43486 0.333252 3.19863C0.333252 4.9624 1.76812 6.39727 3.53188 6.39727C4.14897 6.39727 4.72544 6.22119 5.2147 5.91719L8.89048 9.59297C5.72661 12.9715 3.66333 17.2753 3.02017 21.8428C1.49888 22.0886 0.333252 23.4104 0.333252 25C0.333252 26.5896 1.49888 27.9114 3.02007 28.1571C3.66323 32.7246 5.72651 37.0284 8.89038 40.4069L5.2146 44.0827C4.72534 43.7788 4.14888 43.6026 3.53179 43.6026C1.76812 43.6027 0.333252 45.0377 0.333252 46.8014C0.333252 48.565 1.76812 50 3.53188 50C5.29565 50 6.73052 48.5651 6.73052 46.8014C6.73052 46.1843 6.55444 45.6078 6.25044 45.1187L9.92622 41.4429C13.3047 44.6067 17.6085 46.67 22.176 47.3132C22.4218 48.8344 23.7437 50 25.3333 50C26.9228 50 28.2447 48.8344 28.4904 47.3132C33.0579 46.6699 37.3617 44.6067 40.7402 41.4429L44.416 45.1187C44.1121 45.6079 43.936 46.1844 43.936 46.8014C43.936 48.5651 45.3708 50 47.1346 50C48.8984 50 50.3333 48.5651 50.3333 46.8014C50.3333 45.0376 48.8984 43.6027 47.1346 43.6027C46.5175 43.6027 45.9411 43.7788 45.4519 44.0827L41.7761 40.4069C44.94 37.0284 47.0032 32.7247 47.6464 28.1571ZM25.3333 43.6027C23.9014 43.6027 22.6864 44.5484 22.2797 45.848C13.1501 44.5163 5.81694 37.183 4.48521 28.0535C5.78481 27.6469 6.73052 26.4318 6.73052 25C6.73052 23.5682 5.78481 22.3531 4.48521 21.9465C5.81694 12.817 13.1502 5.48369 22.2797 4.15195C22.6864 5.45156 23.9014 6.39727 25.3333 6.39727C26.7651 6.39727 27.9801 5.45156 28.3868 4.15195C37.5163 5.48359 44.8497 12.817 46.1813 21.9465C44.8817 22.3531 43.936 23.5682 43.936 25C43.936 26.4318 44.8817 27.6469 46.1813 28.0535C44.8497 37.183 37.5163 44.5164 28.3868 45.848C27.9801 44.5484 26.7651 43.6027 25.3333 43.6027ZM48.8684 25C48.8684 25.956 48.0906 26.7338 47.1346 26.7338C46.1787 26.7338 45.4008 25.956 45.4008 25C45.4008 24.044 46.1787 23.2662 47.1346 23.2662C48.0906 23.2662 48.8684 24.044 48.8684 25ZM47.1346 1.46484C48.0906 1.46484 48.8684 2.24268 48.8684 3.19863C48.8684 4.15459 48.0906 4.93242 47.1346 4.93242C46.1787 4.93242 45.4008 4.15459 45.4008 3.19863C45.4008 2.24268 46.1787 1.46484 47.1346 1.46484ZM25.3333 1.46484C26.2892 1.46484 27.067 2.24268 27.067 3.19863C27.067 4.15459 26.2892 4.93242 25.3333 4.93242C24.3772 4.93242 23.5995 4.15459 23.5995 3.19863C23.5995 2.24268 24.3772 1.46484 25.3333 1.46484ZM1.7981 3.19863C1.7981 2.24268 2.57583 1.46484 3.53188 1.46484C4.48794 1.46484 5.26567 2.24268 5.26567 3.19863C5.26567 4.15459 4.48794 4.93242 3.53188 4.93242C2.57583 4.93242 1.7981 4.15459 1.7981 3.19863ZM1.7981 25C1.7981 24.044 2.57583 23.2662 3.53188 23.2662C4.48794 23.2662 5.26567 24.044 5.26567 25C5.26567 25.956 4.48794 26.7338 3.53188 26.7338C2.57583 26.7338 1.7981 25.956 1.7981 25ZM3.53188 48.5352C2.57583 48.5352 1.7981 47.7573 1.7981 46.8014C1.7981 45.8454 2.57583 45.0676 3.53188 45.0676C4.48794 45.0676 5.26567 45.8454 5.26567 46.8014C5.26567 47.7573 4.48794 48.5352 3.53188 48.5352ZM25.3333 48.5352C24.3772 48.5352 23.5995 47.7573 23.5995 46.8014C23.5995 45.8454 24.3772 45.0676 25.3333 45.0676C26.2892 45.0676 27.067 45.8454 27.067 46.8014C27.067 47.7573 26.2892 48.5352 25.3333 48.5352ZM48.8684 46.8014C48.8684 47.7573 48.0906 48.5352 47.1346 48.5352C46.1787 48.5352 45.4008 47.7573 45.4008 46.8014C45.4008 45.8454 46.1787 45.0676 47.1346 45.0676C48.0906 45.0676 48.8684 45.8454 48.8684 46.8014Z" fill="black"/>
<path d="M39.7097 30.2714C39.3372 30.1142 38.9075 30.2885 38.7499 30.661C38.2741 31.7874 37.667 32.8293 36.9536 33.7753C35.7772 32.996 34.5008 32.3424 33.1547 31.8232C33.6263 29.9326 33.8981 27.8698 33.9487 25.7324H39.8724C39.8426 26.331 39.7773 26.9271 39.6755 27.5122C39.6063 27.9106 39.8732 28.2899 40.2717 28.3593C40.3142 28.3666 40.3563 28.3701 40.398 28.3701C40.7474 28.3701 41.0568 28.1191 41.1188 27.763C41.2762 26.8568 41.3562 25.9272 41.3562 25C41.3562 21.1501 39.9911 17.6134 37.7199 14.8475C37.7117 14.8343 37.7038 14.8209 37.6945 14.8081C37.6627 14.7639 37.6267 14.7246 37.5877 14.6897C34.6463 11.199 30.2448 8.97705 25.3333 8.97705C19.7775 8.97705 14.6978 11.7914 11.745 16.5056C11.5302 16.8484 11.634 17.3004 11.9769 17.5151C12.3199 17.7297 12.7718 17.626 12.9864 17.2832C13.2153 16.9178 13.4592 16.566 13.7153 16.2262C14.8911 17.0048 16.1667 17.6579 17.5119 18.1768C17.0403 20.0674 16.7685 22.1302 16.7179 24.2676H10.794C10.8625 22.8825 11.1248 21.5243 11.5776 20.2207C11.7103 19.8387 11.5083 19.4212 11.126 19.2885C10.7443 19.1557 10.3266 19.3578 10.1939 19.74C9.60757 21.4276 9.3103 23.1974 9.3103 25C9.3103 28.8499 10.6754 32.3868 12.9467 35.1527C12.9549 35.1659 12.9628 35.1792 12.972 35.192C13.0038 35.2362 13.0398 35.2754 13.0787 35.3104C16.0203 38.8011 20.4218 41.023 25.3333 41.023C31.7903 41.023 37.5863 37.1796 40.0993 31.2312C40.2567 30.8585 40.0823 30.4288 39.7097 30.2714ZM31.7665 31.3428C29.9456 30.7834 28.0227 30.4611 26.0658 30.3966V25.7324H32.4837C32.435 27.7044 32.1899 29.6032 31.7665 31.3428ZM10.7936 25.7324H16.7179C16.7685 27.8698 17.0403 29.9327 17.5119 31.8232C16.1689 32.3412 14.8953 32.993 13.721 33.7699C12.0111 31.5113 10.9434 28.7408 10.7936 25.7324ZM18.1831 25.7324H24.6009V30.3966C22.644 30.4611 20.7211 30.7834 18.9002 31.3428C18.4769 29.6032 18.2318 27.7044 18.1831 25.7324ZM24.6009 31.8619V39.4786C23.0477 39.1443 21.5791 37.7531 20.4038 35.4761C19.9751 34.6457 19.6054 33.7308 19.2955 32.7525C20.9877 32.2294 22.7774 31.9262 24.6009 31.8619ZM26.0658 39.4786V31.8619C27.8893 31.9262 29.679 32.2294 31.3712 32.7526C31.0613 33.7309 30.6916 34.6458 30.2629 35.4762C29.0876 37.7531 27.619 39.1443 26.0658 39.4786ZM30.2629 14.5239C30.6916 15.3543 31.0613 16.2691 31.3712 17.2474C29.679 17.7706 27.8893 18.0738 26.0658 18.1381V10.5214C27.619 10.8557 29.0876 12.2469 30.2629 14.5239ZM24.6009 10.5214V18.1381C22.7774 18.0738 20.9877 17.7706 19.2955 17.2474C19.6054 16.2691 19.9751 15.3542 20.4038 14.5238C21.5791 12.2469 23.0477 10.8557 24.6009 10.5214ZM26.0658 19.6034C28.0227 19.5389 29.9456 19.2166 31.7665 18.6572C32.1898 20.3968 32.435 22.2956 32.4837 24.2676H26.0658V19.6034ZM39.8731 24.2676H33.9488C33.8982 22.1302 33.6264 20.0673 33.1548 18.1767C34.4978 17.6587 35.7714 17.0069 36.9457 16.2301C38.6556 18.4887 39.7233 21.2592 39.8731 24.2676ZM35.9968 15.1004C34.9868 15.7549 33.8988 16.3111 32.7541 16.762C32.4216 15.7191 32.0242 14.7423 31.5646 13.8521C31.002 12.762 30.3682 11.8421 29.6806 11.105C32.1251 11.8714 34.2936 13.2669 35.9968 15.1004ZM14.6599 15.094C16.3952 13.2171 18.5761 11.8471 20.993 11.0977C20.3027 11.836 19.6666 12.7583 19.1021 13.8521C18.6426 14.7424 18.2451 15.7191 17.9126 16.7621C16.7642 16.3097 15.6728 15.7513 14.6599 15.094ZM18.9002 18.6572C20.7211 19.2166 22.6439 19.5389 24.6009 19.6034V24.2676H18.1831C18.2318 22.2956 18.4769 20.3968 18.9002 18.6572ZM14.6699 34.8996C15.6799 34.2451 16.7679 33.6888 17.9126 33.2379C18.2451 34.2808 18.6425 35.2576 19.1021 36.1479C19.6647 37.238 20.2984 38.1579 20.986 38.895C18.5416 38.1286 16.3732 36.7331 14.6699 34.8996ZM29.6786 38.8973C30.3669 38.1598 31.0014 37.2392 31.5646 36.1481C32.0241 35.2577 32.4216 34.281 32.7541 33.238C33.9025 33.6903 34.9939 34.2487 36.0068 34.9061C34.2845 36.7632 32.104 38.1415 29.6786 38.8973Z" fill="black"/>
</g>
<defs>
<clipPath id="clip0_514_5549">
<rect width="50" height="50" fill="white" transform="translate(0.333252)"/>
</clipPath>
</defs>
</svg>
