<svg width="50" height="67" viewBox="0 0 50 67" fill="none" xmlns="http://www.w3.org/2000/svg">
<rect x="10" y="37" width="30" height="30" rx="2" fill="#EE0033"/>
<rect width="16" height="15" transform="translate(17 28)" fill="white"/>
<path d="M39.2497 12.8128C38.5958 12.8125 37.9437 12.8857 37.3037 13.031C36.6405 10.0306 35.066 7.3599 32.8338 5.44943C30.6016 3.53896 27.8418 2.5 24.9992 2.5C22.1566 2.5 19.3968 3.53896 17.1646 5.44943C14.9324 7.3599 13.3578 10.0306 12.6947 13.031C11.3928 12.7356 10.0484 12.7401 8.74828 13.0443C7.44818 13.3486 6.22141 13.9457 5.14737 14.7971C4.07332 15.6485 3.17593 16.7353 2.51326 17.9869C1.8506 19.2386 1.43743 20.6274 1.30049 22.0634C1.16356 23.4994 1.3059 24.9506 1.71833 26.323C2.13075 27.6955 2.80405 28.9587 3.69466 30.0309C4.58528 31.1031 5.67335 31.9603 6.88848 32.5471C8.10361 33.134 9.41871 33.4373 10.7487 33.4376H15.4988V41.1719C15.4988 41.8557 15.7491 42.5114 16.1945 42.9949C16.6399 43.4784 17.244 43.75 17.8739 43.75H32.1244C32.7543 43.75 33.3584 43.4784 33.8039 42.9949C34.2493 42.5114 34.4995 41.8557 34.4995 41.1719V33.4376H39.2497C41.7693 33.4376 44.1858 32.3511 45.9674 30.4171C47.7491 28.4832 48.75 25.8602 48.75 23.1252C48.75 20.3901 47.7491 17.7671 45.9674 15.8332C44.1858 13.8992 41.7693 12.8128 39.2497 12.8128ZM32.9161 41.1719C32.9161 41.3998 32.8327 41.6184 32.6842 41.7796C32.5358 41.9407 32.3344 42.0313 32.1244 42.0313H17.8739C17.664 42.0313 17.4626 41.9407 17.3141 41.7796C17.1656 41.6184 17.0822 41.3998 17.0822 41.1719V29.1407C17.0822 28.9128 17.1656 28.6942 17.3141 28.5331C17.4626 28.3719 17.664 28.2814 17.8739 28.2814H32.1244C32.3344 28.2814 32.5358 28.3719 32.6842 28.5331C32.8327 28.6942 32.9161 28.9128 32.9161 29.1407V41.1719ZM31.3327 26.5626H29.7493V23.1252C29.7493 21.7577 29.2489 20.4462 28.358 19.4792C27.4672 18.5122 26.259 17.969 24.9992 17.969C23.7393 17.969 22.5311 18.5122 21.6403 19.4792C20.7495 20.4462 20.249 21.7577 20.249 23.1252V26.5626H18.6656V23.1252C18.6656 21.3018 19.3329 19.5532 20.5207 18.2638C21.7084 16.9745 23.3194 16.2502 24.9992 16.2502C26.6789 16.2502 28.2899 16.9745 29.4777 18.2638C30.6654 19.5532 31.3327 21.3018 31.3327 23.1252V26.5626ZM21.8324 26.5626V23.1252C21.8324 22.2135 22.166 21.3392 22.7599 20.6945C23.3538 20.0499 24.1593 19.6877 24.9992 19.6877C25.8391 19.6877 26.6445 20.0499 27.2384 20.6945C27.8323 21.3392 28.1659 22.2135 28.1659 23.1252V26.5626H21.8324ZM39.2497 31.7188H34.4995V29.1407C34.4975 28.6094 34.3443 28.0918 34.0608 27.6586C33.7774 27.2254 33.3776 26.8979 32.9161 26.7208V23.1252C32.9161 20.846 32.082 18.6601 30.5973 17.0485C29.1126 15.4369 27.0989 14.5315 24.9992 14.5315C22.8995 14.5315 20.8858 15.4369 19.401 17.0485C17.9163 18.6601 17.0822 20.846 17.0822 23.1252V26.7208C16.6207 26.8979 16.2209 27.2254 15.9375 27.6586C15.6541 28.0918 15.5009 28.6094 15.4988 29.1407V31.7188H10.7487C9.61001 31.7183 8.48486 31.4511 7.44998 30.9355C6.4151 30.42 5.49486 29.6682 4.75203 28.7314C4.00921 27.7946 3.46128 26.6949 3.14563 25.5074C2.82999 24.3198 2.75405 23.0723 2.92301 21.85C3.09197 20.6277 3.50184 19.4593 4.12467 18.4246C4.74749 17.3899 5.56861 16.5132 6.532 15.8543C7.49539 15.1954 8.57838 14.7699 9.70708 14.6067C10.8358 14.4435 11.9836 14.5466 13.0723 14.9088C13.18 14.9446 13.2934 14.955 13.4051 14.9395C13.5168 14.9239 13.6241 14.8827 13.72 14.8185C13.8158 14.7543 13.8979 14.6687 13.9609 14.5673C14.0238 14.466 14.0661 14.3512 14.0849 14.2307C14.5213 11.4313 15.8568 8.89016 17.8547 7.05769C19.8525 5.22522 22.3836 4.21986 24.9992 4.21986C27.6148 4.21986 30.1458 5.22522 32.1437 7.05769C34.1415 8.89016 35.4771 11.4313 35.9135 14.2307C35.9323 14.3512 35.9746 14.466 36.0375 14.5673C36.1004 14.6687 36.1825 14.7543 36.2784 14.8185C36.3742 14.8827 36.4816 14.9239 36.5932 14.9395C36.7049 14.955 36.8184 14.9446 36.926 14.9088C38.0147 14.5466 39.1626 14.4435 40.2913 14.6067C41.42 14.7699 42.503 15.1954 43.4663 15.8543C44.4297 16.5132 45.2509 17.3899 45.8737 18.4246C46.4965 19.4593 46.9064 20.6277 47.0753 21.85C47.2443 23.0723 47.1684 24.3198 46.8527 25.5074C46.5371 26.6949 45.9891 27.7946 45.2463 28.7314C44.5035 29.6682 43.5832 30.42 42.5484 30.9355C41.5135 31.4511 40.3883 31.7183 39.2497 31.7188Z" fill="black"/>
<path d="M24.9999 32.0313C24.4477 32.0302 23.913 32.2246 23.4904 32.5801C23.0678 32.9355 22.7846 33.4291 22.691 33.9733C22.5975 34.5175 22.6995 35.0773 22.9791 35.5535C23.2587 36.0297 23.6978 36.3916 24.2187 36.575V39.0625C24.2187 39.2697 24.301 39.4684 24.4475 39.6149C24.594 39.7614 24.7927 39.8438 24.9999 39.8438C25.2071 39.8438 25.4059 39.7614 25.5524 39.6149C25.6989 39.4684 25.7812 39.2697 25.7812 39.0625V36.575C26.302 36.3916 26.7411 36.0297 27.0208 35.5535C27.3004 35.0773 27.4024 34.5175 27.3088 33.9733C27.2153 33.4291 26.9321 32.9355 26.5095 32.5801C26.0869 32.2246 25.5522 32.0302 24.9999 32.0313ZM24.9999 35.1563C24.8454 35.1563 24.6944 35.1104 24.5659 35.0246C24.4374 34.9387 24.3373 34.8167 24.2782 34.674C24.219 34.5312 24.2036 34.3741 24.2337 34.2226C24.2638 34.071 24.3383 33.9318 24.4475 33.8226C24.5568 33.7133 24.696 33.6389 24.8475 33.6088C24.9991 33.5786 25.1562 33.5941 25.2989 33.6532C25.4417 33.7124 25.5637 33.8125 25.6495 33.941C25.7354 34.0694 25.7812 34.2205 25.7812 34.375C25.7812 34.5822 25.6989 34.7809 25.5524 34.9274C25.4059 35.0739 25.2071 35.1563 24.9999 35.1563Z" fill="black"/>
</svg>
