<svg width="11" height="9" viewBox="0 0 11 9" fill="none" xmlns="http://www.w3.org/2000/svg">
<path d="M9.96133 5.18992L7.04466 8.10659C6.96608 8.18249 6.86083 8.22449 6.75158 8.22354C6.64233 8.22259 6.53783 8.17877 6.46057 8.10151C6.38332 8.02426 6.3395 7.91975 6.33855 7.81051C6.3376 7.70126 6.3796 7.59601 6.4555 7.51742L8.66092 5.31201H1.33341C1.22291 5.31201 1.11693 5.26811 1.03879 5.18997C0.960647 5.11183 0.916748 5.00585 0.916748 4.89534C0.916748 4.78483 0.960647 4.67885 1.03879 4.60071C1.11693 4.52257 1.22291 4.47867 1.33341 4.47867H8.66092L6.4555 2.27326C6.4157 2.23482 6.38396 2.18884 6.36212 2.13801C6.34029 2.08717 6.32879 2.0325 6.32831 1.97717C6.32783 1.92185 6.33837 1.86698 6.35932 1.81577C6.38027 1.76457 6.41121 1.71805 6.45033 1.67892C6.48946 1.6398 6.53598 1.60886 6.58718 1.58791C6.63839 1.56696 6.69326 1.55642 6.74858 1.5569C6.80391 1.55738 6.85858 1.56888 6.90942 1.59071C6.96025 1.61255 7.00623 1.64429 7.04466 1.68409L9.96133 4.60076C10.0394 4.67889 10.0833 4.78485 10.0833 4.89534C10.0833 5.00582 10.0394 5.11179 9.96133 5.18992Z" fill="black"/>
</svg>
