<svg width="25" height="24" viewBox="0 0 25 24" fill="none" xmlns="http://www.w3.org/2000/svg">
<path d="M17.406 -0.000516583C21.051 -0.000516264 24.0059 2.95443 24.0059 6.59935C24.0059 10.2443 21.0509 13.1992 17.406 13.1992C13.7608 13.1992 10.8056 10.2443 10.8056 6.59935C10.8056 2.95443 13.7606 -0.000516902 17.406 -0.000516583ZM18.6007 4.19937C17.9379 4.19937 17.4007 4.73675 17.4007 5.39952C17.4007 6.06228 17.9379 6.59946 18.6007 6.59946C19.2634 6.59946 19.8008 6.06228 19.8008 5.39952C19.8008 4.73675 19.2634 4.19937 18.6007 4.19937Z" fill="white"/>
<path d="M10.2015 9.59968C10.2015 9.44057 10.2647 9.28809 10.377 9.17559C10.8984 8.65426 10.8984 8.65426 11.3606 8.19222C11.6821 7.87079 12.2303 8.00981 12.3599 8.44555C12.7719 9.8315 14.1621 11.2249 15.533 11.6717C15.9587 11.8105 16.0879 12.3499 15.7713 12.6665C12.788 15.6496 9.07316 19.3687 4.62611 23.824C4.5136 23.9367 4.36072 24 4.20142 24L0.601396 24C0.270122 24 0.00152915 23.7314 0.00152918 23.4001L0.0015295 19.8001C0.00152951 19.641 0.0646103 19.4883 0.177111 19.3758L0.777185 18.7758C0.889685 18.6632 1.04236 18.6 1.20147 18.6L3.00148 18.6L3.00148 16.8C3.00148 16.6408 3.06477 16.4884 3.17727 16.3757L3.77713 15.7758C3.88983 15.6633 4.04231 15.6 4.20142 15.6L6.6015 15.6L6.6015 13.1999C6.6015 13.0408 6.66479 12.8883 6.77729 12.7756L7.37715 12.1758C7.48986 12.0633 7.64233 12 7.80144 12L10.2015 12L10.2015 9.59968Z" fill="white"/>
</svg>
