<?xml version="1.0" encoding="UTF-8"?>
<svg width="24px" height="24px" viewBox="0 0 24 24" version="1.1" xmlns="http://www.w3.org/2000/svg" xmlns:xlink="http://www.w3.org/1999/xlink">
    <!-- Generator: Sketch 54.1 (76490) - https://sketchapp.com -->
    <title>lang_icn</title>
    <desc>Created with Sketch.</desc>
    <g id="UI" stroke="none" stroke-width="1" fill="none" fill-rule="evenodd">
        <path d="M2.05852423,12.5830091 C2.1928066,14.5619587 2.8944394,16.4297761 4.06493736,17.9945633 C4.40665556,17.7958774 4.67935618,17.6406395 4.82633242,17.5628912 C5.64398904,17.1303622 6.50054255,16.8085324 7.46986703,16.5780213 C7.2277167,15.3277118 7.0846864,13.9791559 7.04877908,12.5830091 L2.05852423,12.5830091 Z M8.85513111,16.3209372 C9.84184893,16.1838726 10.9580612,16.1163713 12.2514568,16.1163713 C13.5979002,16.1163713 14.7810438,16.1945297 15.8317797,16.3510289 C16.0633695,15.1727135 16.2028892,13.8989945 16.239559,12.5830091 L8.45324178,12.5830091 C8.48959749,13.8877267 8.62704911,15.1509421 8.85513111,16.3209372 Z M17.2147363,16.6201173 C18.1014301,16.8376875 18.890447,17.1275628 19.6114907,17.4957873 C19.8702247,17.6279183 20.1186031,17.7686925 20.3894963,17.935905 C20.4198342,17.9547076 20.436992,17.9653416 20.452545,17.9750378 C21.614374,16.4141247 22.3106723,14.5536345 22.4443903,12.5830091 L17.6440218,12.5830091 C17.6077089,13.9949178 17.4618412,15.3580927 17.2147363,16.6201173 Z M7.785034,17.9451866 C6.93640369,18.1481361 6.19258284,18.4281654 5.48269555,18.8036859 C5.38585012,18.8549158 5.21782816,18.9496824 4.99816768,19.076292 C6.23026265,20.3183307 7.76034232,21.2275582 9.44647967,21.7079762 C8.76495838,20.7600502 8.19786417,19.4732939 7.785034,17.9451866 Z M12.3970273,22.0968317 C13.580316,22.0508126 14.7678073,20.3802266 15.5084624,17.7217071 C14.558673,17.5873995 13.482292,17.520075 12.2514568,17.520075 C11.0742192,17.520075 10.0635741,17.577266 9.17638907,17.6930759 C9.92197106,20.3881525 11.1256003,22.0746648 12.3214922,22.0975781 L12.3970273,22.0968317 Z M19.5267842,19.0540086 C19.3362396,18.9396189 19.1573253,18.8400045 18.9730744,18.7459108 C18.3529748,18.4292367 17.6700729,18.1779242 16.8964937,17.9867128 C16.4950942,19.4582672 15.9500873,20.7041096 15.2973202,21.6361086 C16.8990577,21.1364767 18.3504661,20.2470642 19.5267842,19.0540086 Z M7.52032776,6.9321127 C6.52305873,6.71169712 5.65632901,6.40332038 4.86672298,5.99513251 C4.6446883,5.88035139 4.42947137,5.7588437 4.1847631,5.61072747 C2.94314829,7.20561318 2.19740121,9.1327059 2.05852242,11.1793054 L7.04877902,11.1793054 C7.08712811,9.6882369 7.24765912,8.25187803 7.52032776,6.9321127 Z M16.2395589,11.1793054 C16.2001493,9.76502548 16.0419455,8.39998461 15.7787621,7.15083577 C14.7742995,7.2921381 13.6200419,7.36111238 12.2514568,7.36111238 C10.9924433,7.36111238 9.88904232,7.29820703 8.90965739,7.17168888 C8.64908468,8.41525342 8.49243054,9.77295259 8.4532419,11.1793054 L16.2395589,11.1793054 Z M22.4443893,11.1793054 C22.3045643,9.11874547 21.5495476,7.17945687 20.2930411,5.57860385 C20.0208014,5.73727012 19.8193634,5.85283856 19.7071176,5.91379034 C18.9153246,6.34375007 18.0961079,6.66064336 17.1634431,6.88864449 C17.4415788,8.22021012 17.6052488,9.67175919 17.6440217,11.1793054 L22.4443893,11.1793054 Z M5.14053259,4.54528156 C5.26774076,4.61859814 5.38863073,4.68476035 5.51133126,4.74819055 C6.20059268,5.10450514 6.96397667,5.37452151 7.85399835,5.56911268 C8.26033311,4.14882761 8.80244391,2.95012034 9.44647941,2.05433789 C7.82541801,2.51620977 6.34799974,3.37456833 5.14053259,4.54528156 Z M9.25315977,5.80077731 C10.1286074,5.90525858 11.119093,5.95740867 12.2514568,5.95740867 C13.4927641,5.95740867 14.5345313,5.89982476 15.4341536,5.78224759 C14.6883218,3.26918993 13.5393989,1.70991009 12.3994936,1.66554825 L12.3214726,1.66473674 C11.1680643,1.68685415 10.0046181,3.25723245 9.25315977,5.80077731 Z M16.8266395,5.52680632 C17.6419587,5.32728046 18.3511626,5.05279335 19.0372665,4.68022496 C19.0994443,4.64646111 19.1987866,4.59012799 19.3302783,4.51429233 C18.1895589,3.4178665 16.8101208,2.59808982 15.2973203,2.1262054 C15.912704,3.00482532 16.4325588,4.16269988 16.8266395,5.52680632 Z M12.2514568,23.5015204 C5.83370747,23.5015204 0.631093681,18.2989066 0.631093681,11.8811572 C0.631093681,5.46340788 5.83370747,0.260794088 12.2514568,0.260794088 L12.3147681,0.260977415 L12.3464004,0.260794088 C12.3906039,0.261032917 12.3906039,0.261032917 12.4329499,0.262182929 C18.7740666,0.359291014 23.87182,5.53105337 23.87182,11.8811572 C23.87182,18.2312611 18.7740666,23.4030234 12.434661,23.5000907 C12.3906039,23.5012815 12.3906039,23.5012815 12.3464004,23.5015204 L12.3159277,23.5013438 L12.2514568,23.5015204 Z" id="lang_icn" fill="#b2b2b2" fill-rule="nonzero"></path>
    </g>
</svg>