<svg xmlns="http://www.w3.org/2000/svg" width="18" height="16" viewBox="0 0 18 16">
    <path fill="#7F8287" fill-rule="evenodd" d="M6.53 1.122h10.544a.814.814 0 1 1 0 1.629H6.531a.814.814 0 1 1 0-1.63zm0 6.056h10.544a.814.814 0 1 1 0 1.63H6.531a.814.814 0 0 1 0-1.63zM1.614.5h.677a1 1 0 0 1 1 1v.678a1 1 0 0 1-1 1h-.677a1 1 0 0 1-1-1V1.5a1 1 0 0 1 1-1zm0 5.954h.677a1 1 0 0 1 1 1v.678a1 1 0 0 1-1 1h-.677a1 1 0 0 1-1-1v-.678a1 1 0 0 1 1-1zm0 6.107h.677a1 1 0 0 1 1 1v.678a1 1 0 0 1-1 1h-.677a1 1 0 0 1-1-1v-.678a1 1 0 0 1 1-1zm4.918.525h10.543a.814.814 0 1 1 0 1.629H6.531a.814.814 0 1 1 0-1.63z"/>
</svg>
