<?xml version="1.0" encoding="UTF-8"?>
<svg width="21px" height="20px" viewBox="0 0 21 20" version="1.1" xmlns="http://www.w3.org/2000/svg" xmlns:xlink="http://www.w3.org/1999/xlink">
    <!-- Generator: Sketch 54.1 (76490) - https://sketchapp.com -->
    <title>menu_icn</title>
    <desc>Created with Sketch.</desc>
    <g id="UI" stroke="none" stroke-width="1" fill="none" fill-rule="evenodd">
        <path style="fill: #606060" d="M0.947859643,2.42438417 C0.435286954,2.42438417 0.0197646899,2.0088619 0.0197646899,1.49628922 C0.0197646899,0.983716526 0.435286954,0.568194262 0.947859643,0.568194262 L20.0674379,0.568194262 C20.5800106,0.568194262 20.9955328,0.983716526 20.9955328,1.49628922 C20.9955328,2.0088619 20.5800106,2.42438417 20.0674379,2.42438417 L0.947859643,2.42438417 Z M0.947859643,10.8092522 C0.435286954,10.8092522 0.0197646899,10.3937299 0.0197646899,9.88115722 C0.0197646899,9.36858454 0.435286954,8.95306227 0.947859643,8.95306227 L20.0674379,8.95306227 C20.5800106,8.95306227 20.9955328,9.36858454 20.9955328,9.88115722 C20.9955328,10.3937299 20.5800106,10.8092522 20.0674379,10.8092522 L0.947859643,10.8092522 Z M0.947859643,19.1941202 C0.435286954,19.1941202 0.0197646899,18.7785979 0.0197646899,18.2660252 C0.0197646899,17.7534525 0.435286954,17.3379303 0.947859643,17.3379303 L20.0674379,17.3379303 C20.5800106,17.3379303 20.9955328,17.7534525 20.9955328,18.2660252 C20.9955328,18.7785979 20.5800106,19.1941202 20.0674379,19.1941202 L0.947859643,19.1941202 Z" id="menu_icn" fill="#ffffff" fill-rule="nonzero"></path>
    </g>
</svg>
