<svg xmlns="http://www.w3.org/2000/svg" width="39" height="26" viewBox="0 0 39 26">
    <g fill="none" fill-rule="nonzero">
        <path fill="#0364B8" d="M22.877 14.37s8.286-4.642 8.429-4.57C29.656 3.357 23.11-.539 16.663 1.084A11.884 11.884 0 0 0 9.59 6.156c.072 0 13.286 8.215 13.286 8.215z"/>
        <path fill="#0F78D4" d="M14.806 7.585a9.71 9.71 0 0 0-5.072-1.429h-.143a9.65 9.65 0 0 0-9.5 9.786 9.96 9.96 0 0 0 1.715 5.429l13.285-1.357 7.786-7.5-8.071-4.93z"/>
        <path fill="#1490DF" d="M31.377 9.8h-.5a7.397 7.397 0 0 0-3.071.642l-4.857 2 5.285 5.857 9.572 3a7.833 7.833 0 0 0-3.215-10.643 8.61 8.61 0 0 0-3.214-.857z"/>
        <path fill="#28A8EA" d="M30.877 17.228l-2-1.214-4.571-2.715-1.429-.857-3.643 1.572-7.071 3-3.214 1.285-7.143 3a9.72 9.72 0 0 0 7.928 4.143h21.072a7.94 7.94 0 0 0 6.928-4.143l-6.857-4.071z"/>
    </g>
</svg>
