<?xml version="1.0" encoding="UTF-8"?>
<svg width="40px" height="45px" viewBox="0 0 40 45" version="1.1" xmlns="http://www.w3.org/2000/svg" xmlns:xlink="http://www.w3.org/1999/xlink">
    <!-- Generator: Sketch 54.1 (76490) - https://sketchapp.com -->
    <title>other_service_icn</title>
    <desc>Created with Sketch.</desc>
    <g id="UI" stroke="none" stroke-width="1" fill="none" fill-rule="evenodd">
        <g id="Vietel-Home-" transform="translate(-955.000000, -941.000000)">
            <g id="other_service_icn" transform="translate(954.500000, 941.910154)">
                <polygon id="Path-4" fill="#0DABA0" points="26.9173346 19.1870651 23.9287504 15.6039218 23.9287504 13.4313273 21.8798853 10.7308107 19.0070568 10.7308107 16.6776139 13.7771593 16.6776139 15.9525003 13.6890297 18.8736073 12.940869 25.3789777 14.4297616 31.2465257 16.6776139 33.7859094 20.3031822 35.7010256 25.0539704 33.2448809 26.9173346 28.7551348 27.5543186 24.6538641"></polygon>
                <path d="M16.0284064,15.1514805 C15.839579,14.316939 15.9600463,13.4490541 16.5325912,12.7620002 L18.1268512,10.6363201 C18.1212661,10.1120003 18.084171,9.23778449 17.8377958,8.99140924 C17.692773,8.70136378 17.5477503,8.70136378 17.4027276,8.70136378 C16.9676594,8.70136378 16.6776139,8.41131832 16.6776139,7.97625014 C16.6776139,7.54118195 16.9676594,7.25113649 17.4027276,7.25113649 C17.9828185,7.25113649 18.4178867,7.39615922 18.8529549,7.83122741 C19.4061147,8.4765806 19.5490131,9.47358654 19.5797184,10.1515911 L21.0347248,10.1515911 C21.0790784,9.48239014 21.2385048,8.57697227 21.7534095,7.97625014 C22.1884776,7.39615922 22.6235458,7.25113649 23.2036368,7.25113649 C23.6387049,7.25113649 23.9287504,7.54118195 23.9287504,7.97625014 C23.9287504,8.41131832 23.6387049,8.70136378 23.2036368,8.70136378 C23.058614,8.70136378 22.9135913,8.70136378 22.7685686,8.84638651 C22.3776548,9.23730025 22.3379816,10.0965346 22.439153,10.5825067 L24.0737731,12.7620002 C24.673034,13.4811132 24.7770434,14.3983268 24.5495191,15.2680644 L26.9742277,17.692773 C26.9742277,17.692773 27.1192505,17.692773 27.1192505,17.8377958 C27.2740067,17.992552 27.5526204,18.2298799 27.7788643,19.320773 L31.6149551,17.4027276 C31.9050005,17.2577048 32.3400687,17.4027276 32.6301142,17.692773 C32.7751369,17.9828185 32.6301142,18.4178867 32.3400687,18.7079321 L27.9958384,20.8800473 C28.0803459,21.8068062 28.1344096,23.0302997 28.1344096,24.6538641 L31.9050005,24.6538641 C32.3400687,24.6538641 32.6301142,24.9439095 32.6301142,25.3789777 C32.6301142,25.8140459 32.3400687,26.1040914 31.9050005,26.1040914 L28.1027493,26.1040914 C28.0079203,27.5569607 27.7260358,28.8821226 27.3051964,30.0606283 L30.8898414,33.6452733 C31.1798869,33.9353188 31.1798869,34.3703869 30.8898414,34.6604324 C30.8898414,34.8054551 30.599796,34.8054551 30.4547732,34.8054551 C30.3097505,34.8054551 30.0197051,34.8054551 29.8746823,34.6604324 L26.6968637,31.4826138 C25.166992,34.5129923 22.6507634,36.2556824 20.3031822,36.2556824 C17.936876,36.2556824 15.3992212,34.485081 13.837237,31.4098547 L10.5866593,34.6604324 C10.5866593,34.8054551 10.2966138,34.8054551 10.1515911,34.8054551 C10.0065684,34.8054551 9.71652289,34.8054551 9.57150016,34.6604324 C9.2814547,34.3703869 9.2814547,33.9353188 9.57150016,33.6452733 L13.1970684,30.0197051 C13.2058652,30.0109083 13.2147954,30.0023783 13.2238509,29.9941151 C12.8001962,28.8323335 12.5065269,27.5296917 12.3869083,26.1040914 L8.70136378,26.1040914 C8.26629559,26.1040914 7.97625014,25.8140459 7.97625014,25.3789777 C7.97625014,24.9439095 8.26629559,24.6538641 8.70136378,24.6538641 L12.326932,24.6538641 C12.326932,22.9575541 12.3831721,21.6886686 12.4705919,20.7375689 L8.41131832,18.7079321 C8.12127287,18.5629094 7.97625014,18.1278412 8.12127287,17.692773 C8.26629559,17.4027276 8.70136378,17.2577048 8.99140924,17.5477503 L12.6501803,19.3771358 C12.8816035,18.1360756 13.1798833,17.9188997 13.3420911,17.8377958 C13.3420911,17.8377958 13.4871139,17.8377958 13.4871139,17.692773 L16.0284064,15.1514805 Z M16.7387045,16.4922771 L14.502273,18.8529549 C14.502273,18.8529549 14.3572502,18.9979776 14.3572502,18.9979776 C14.2122275,19.2880231 13.7771593,20.4482049 13.7771593,24.6538641 C13.7771593,30.2840083 16.6270764,34.1794204 19.5780685,34.7366092 L19.5780685,17.4027276 L18.8529549,17.4027276 C17.9863912,17.4027276 17.2816411,17.0791004 16.7387045,16.4922771 Z M21.0282958,17.4027276 L21.0282958,34.7366092 C23.9792879,34.1794204 26.829205,30.2840083 26.829205,24.6538641 C26.829205,20.4482049 26.3941368,19.2880231 26.2491141,18.9979776 C26.2491141,18.9979776 26.1040914,18.8529549 26.1040914,18.8529549 L23.8070941,16.5559576 C23.2726617,17.1024692 22.5881002,17.4027276 21.7534095,17.4027276 L21.0282958,17.4027276 Z M20.3031822,43.5068189 C20.3031822,43.5068189 20.1581594,43.5068189 20.1581594,43.5068189 C13.3420911,41.4765007 0.725113649,34.3703869 0.725113649,26.3941368 L0.725113649,6.23597738 C0.725113649,5.94593192 0.870136378,5.65588646 1.30520457,5.51086373 L20.1581594,2.09610107e-13 C20.3031822,2.09610107e-13 20.3031822,2.09610107e-13 20.4482049,2.09610107e-13 L39.3011598,5.51086373 C39.5912052,5.65588646 39.8812507,5.94593192 39.8812507,6.23597738 L39.8812507,26.3941368 C39.8812507,34.3703869 27.2642732,41.4765007 20.4482049,43.5068189 C20.4482049,43.5068189 20.3031822,43.5068189 20.3031822,43.5068189 Z M2.17534095,6.8160683 L2.17534095,26.3941368 C2.17534095,32.9201596 12.7620002,39.7362279 20.3031822,42.0565916 C27.8443641,39.7362279 38.4310234,32.9201596 38.4310234,26.3941368 L38.4310234,6.8160683 L20.3031822,1.4502273 L2.17534095,6.8160683 Z M19.2880231,11.6018184 L17.692773,13.6321366 C17.4027276,14.0672048 17.2577048,14.6472957 17.5477503,15.0823639 C17.8377958,15.5174321 18.2728639,15.9525003 18.8529549,15.9525003 L21.7534095,15.9525003 C22.3335004,15.9525003 22.7685686,15.6624548 23.058614,15.0823639 C23.3486595,14.502273 23.2036368,14.0672048 22.9135913,13.6321366 L21.463364,11.6018184 L19.2880231,11.6018184 Z" id="Combined-Shape" fill="#000000" fill-rule="nonzero"></path>
            </g>
        </g>
    </g>
</svg>
