<svg xmlns="http://www.w3.org/2000/svg" width="41" height="36" viewBox="0 0 41 36">
    <defs>
        <linearGradient id="a" x1="50%" x2="50%" y1="0%" y2="99.999%">
            <stop offset="0%" stop-color="#35B8F1"/>
            <stop offset="100%" stop-color="#28A8EA"/>
        </linearGradient>
    </defs>
    <g fill="none" fill-rule="nonzero" transform="translate(.205 .442)">
        <path fill="#123B6D" d="M39.973 18.209a.865.865 0 0 0-.419-.746l-.004-.003-.017-.01L25.91 9.468a1.84 1.84 0 0 0-2.041 0L10.244 17.45l-.017.01-.004.003a.874.874 0 0 0 .021 1.505l13.623 7.982a1.84 1.84 0 0 0 2.041 0l13.624-7.983a.865.865 0 0 0 .44-.758z"/>
        <path fill="#0364B8" d="M11.313 12.93h9.05v8.295h-9.05z"/>
        <path fill="#0358A7" d="M38.545 5.09V1.698A1.712 1.712 0 0 0 36.818 0H12.636a1.712 1.712 0 0 0-1.727 1.697V5.09h27.636z"/>
        <path fill="#0078D4" d="M10.91 4.364h9.454v8.727h-9.455z"/>
        <path fill="#28A8EA" d="M20.364 4.364h9.454l8.727 8.727v8.727h-8.727l-9.454-8.727z"/>
        <path fill="#50D9FF" d="M29.818 4.364h8.727v8.727h-8.727z"/>
        <path fill="#0078D4" d="M20.364 13.09h9.454v8.728h-9.454z"/>
        <path fill="#0364B8" d="M20.364 21.818h9.454v8.727h-9.454z"/>
        <path fill="#14447D" d="M11.313 21.225h9.05v7.542h-9.05z"/>
        <path fill="#0078D4" d="M29.818 21.818h8.727v8h-8.727z"/>
        <path fill="url(#a)" d="M39.575 18.87v.001l-.016.01-.004.002L25.76 26.26a1.992 1.992 0 0 1-1.033.285c-.016 0-.032-.005-.048-.005l-.774-.424a1.899 1.899 0 0 1-.185-.102L9.901 18.427l-.004-.002-.008-.004-.434-.24v14.936a1.854 1.854 0 0 0 1.909 1.792h26.779c.404.001.8-.123 1.13-.356l-.03-.016a1.75 1.75 0 0 0 .757-1.42V18.182a.788.788 0 0 1-.425.689z"/>
        <path fill="#1490DF" d="M39.576 18.871l-.017.01-.004.002L25.76 26.26a2.021 2.021 0 0 1-2.067 0L9.9 18.883l-.004-.002-.017-.01a.788.788 0 0 1-.424-.69v14.936a1.853 1.853 0 0 0 1.909 1.792H38.09A1.853 1.853 0 0 0 40 33.117V18.182a.788.788 0 0 1-.424.69z"/>
        <path fill="#28A8EA" d="M11.367 34.91h26.776c.404 0 .799-.124 1.13-.357l-15.368-8.437a1.93 1.93 0 0 1-.185-.102L9.901 18.427l-.004-.002-.008-.004-.434-.24v14.885a1.879 1.879 0 0 0 1.912 1.843z"/>
        <path fill="#0A2767" d="M38.545 18.596v.822L25.76 26.262c-.058.036-.124.065-.182.094a1.948 1.948 0 0 1-.85.19h-.044l-.779-.43c-.065-.029-.123-.065-.189-.101L10.91 18.982v-.83l13.164 7.223c.065.043.109.065.145.087l.64.349a1.21 1.21 0 0 0 .407-.11c.037-.021 10.51-5.621 13.28-7.105z" opacity=".5"/>
        <path fill="#000" d="M21.09 8.967v19.157c.003.097-.007.195-.028.29a1.683 1.683 0 0 1-1.666 1.404H9.455V18.182l.37.203a.735.735 0 0 1-.021-.174.868.868 0 0 1 .421-.75c.008-.006.015-.006.022-.014l1.07-.625V13.09h-.408V7.273h8.487a1.692 1.692 0 0 1 1.695 1.688v.006z" opacity=".2"/>
        <path fill="#000" d="M21.818 8.967V26.67a2.445 2.445 0 0 1-2.422 2.422H9.455V18.18l.37.204a.735.735 0 0 1-.021-.174.868.868 0 0 1 .421-.75c.008-.006.015-.006.022-.014l1.07-.625V13.09h-.408V6.545h8.487a2.43 2.43 0 0 1 2.422 2.422z" opacity=".1"/>
        <path fill="#000" d="M21.09 8.967V26.67a1.692 1.692 0 0 1-1.688 1.695H9.455V18.182l.37.203a.735.735 0 0 1-.021-.174.868.868 0 0 1 .421-.75c.008-.006.015-.006.022-.014l1.07-.625V13.09h-.408V7.273h8.487a1.692 1.692 0 0 1 1.695 1.688v.006z" opacity=".2"/>
        <path fill="#000" d="M20.364 8.967V26.67a1.692 1.692 0 0 1-1.69 1.695h-9.22V18.182l.371.203a.735.735 0 0 1-.021-.174.868.868 0 0 1 .421-.75c.008-.006.015-.006.022-.014l1.07-.625V13.09h-.408V7.273h7.76a1.692 1.692 0 0 1 1.695 1.688v.006z" opacity=".1"/>
        <rect width="20.364" height="20.364" y="7.273" fill="#0F78D4" rx="2.333"/>
        <path fill="#FFF" d="M5.622 14.722a4.612 4.612 0 0 1 1.811-2c.875-.501 1.871-.751 2.879-.722a5.092 5.092 0 0 1 2.663.684 4.566 4.566 0 0 1 1.762 1.912c.425.876.636 1.839.618 2.811a6.51 6.51 0 0 1-.636 2.942 4.676 4.676 0 0 1-1.815 1.978 5.294 5.294 0 0 1-2.764.704 5.216 5.216 0 0 1-2.721-.692 4.637 4.637 0 0 1-1.786-1.916 6.022 6.022 0 0 1-.624-2.778 6.68 6.68 0 0 1 .614-2.923h-.001zm1.93 4.697c.209.526.562.982 1.019 1.316a2.66 2.66 0 0 0 1.593.48 2.794 2.794 0 0 0 1.699-.494c.451-.334.795-.793.989-1.32.217-.588.324-1.21.316-1.837a5.584 5.584 0 0 0-.297-1.86 2.944 2.944 0 0 0-.956-1.369 2.633 2.633 0 0 0-1.685-.52 2.75 2.75 0 0 0-1.63.483 3.023 3.023 0 0 0-1.04 1.328 5.268 5.268 0 0 0-.007 3.793z"/>
        <path fill="#000" d="M26.485 25.873l-.724.387c-.312.188-.67.287-1.034.285h-.04l14.56 7.994c.414-.294.68-.752.735-1.256l-13.497-7.41z" opacity=".05"/>
        <path fill="#000" d="M39.25 34.54c.205-.147.378-.334.508-.55L25.72 26.284a2.003 2.003 0 0 1-.993.262l-.04-.001L39.25 34.54z" opacity=".05"/>
    </g>
</svg>
