<svg xmlns="http://www.w3.org/2000/svg" width="41" height="36" viewBox="0 0 41 36">
    <g fill="none" fill-rule="nonzero" transform="translate(.377 .442)">
        <path fill="#D35230" d="M40 17.273v.363c-.03 9.528-7.745 17.244-17.273 17.273h-.363a17.2 17.2 0 0 1-12.895-5.818c-.21-.233-.414-.48-.61-.727A17.135 17.135 0 0 1 5.09 17.636v-.363a17.09 17.09 0 0 1 3.222-10c.169-.252.35-.495.545-.728A17.24 17.24 0 0 1 22.364 0h.363C32.255.03 39.971 7.745 40 17.273z"/>
        <path fill="#FF8F6B" d="M40 17.455v-.166C39.972 7.752 32.248.028 22.711 0h-.166v17.455H40z"/>
        <path fill="#ED6C47" d="M5.09 17.289v.166h17.455V0h-.165C12.843.028 5.12 7.752 5.09 17.289z"/>
        <path fill="#000" d="M21.09 8.967v19.157c.003.097-.007.195-.028.29a1.683 1.683 0 0 1-1.666 1.404h-9.243c-.233-.233-.466-.48-.684-.727-.21-.233-.414-.48-.61-.727A17.135 17.135 0 0 1 5.09 17.636v-.363a17.09 17.09 0 0 1 3.222-10h11.083a1.692 1.692 0 0 1 1.695 1.694z" opacity=".2"/>
        <path fill="#000" d="M21.818 8.967V26.67a2.445 2.445 0 0 1-2.422 2.422H9.47c-.21-.233-.414-.48-.61-.727A17.135 17.135 0 0 1 5.09 17.636v-.363a17.09 17.09 0 0 1 3.222-10c.169-.252.35-.495.545-.728h10.538a2.43 2.43 0 0 1 2.422 2.422z" opacity=".1"/>
        <path fill="#000" d="M21.09 8.967V26.67a1.692 1.692 0 0 1-1.694 1.695H8.858a17.135 17.135 0 0 1-3.767-10.728v-.363a17.09 17.09 0 0 1 3.222-10h11.083a1.692 1.692 0 0 1 1.695 1.694z" opacity=".2"/>
        <path fill="#000" d="M20.364 8.967V26.67a1.692 1.692 0 0 1-1.695 1.695H8.86A17.135 17.135 0 0 1 5.09 17.636v-.363a17.09 17.09 0 0 1 3.222-10h10.356a1.692 1.692 0 0 1 1.695 1.694z" opacity=".1"/>
        <rect width="20.364" height="20.364" y="7.273" fill="#C43E1C" rx="2.334"/>
        <path fill="#FFF" d="M10.519 11.75a4.483 4.483 0 0 1 3.02.908 3.287 3.287 0 0 1 1.047 2.627 3.73 3.73 0 0 1-.518 1.964 3.5 3.5 0 0 1-1.474 1.338c-.69.33-1.449.493-2.214.477H8.285v4H6.136V11.751h4.383zm-2.234 5.586h1.85a2.36 2.36 0 0 0 1.634-.5c.39-.384.591-.92.553-1.464 0-1.246-.706-1.87-2.118-1.87H8.285v3.834z"/>
    </g>
</svg>
