<svg xmlns="http://www.w3.org/2000/svg" width="41" height="36" viewBox="0 0 41 36">
    <g fill="none" fill-rule="nonzero" transform="translate(.205 .442)">
        <rect width="14.545" height="30.545" x="25.455" y="2.182" fill="#038387" rx="2.365"/>
        <path fill="#038387" d="M31.793 34.91H11.116a1.662 1.662 0 0 1-1.661-1.663v-7.065l13.09-2.91 10.91 2.91v7.065c0 .918-.744 1.662-1.662 1.662z"/>
        <path fill="#37C6D0" d="M31.74 0H11.17a1.717 1.717 0 0 0-1.714 1.72v15.735l12.363 1.454 11.637-1.454V1.719A1.717 1.717 0 0 0 31.74 0z"/>
        <path fill="#1A9BA1" d="M9.455 17.455h24v8.727h-24z"/>
        <path fill="#000" d="M21.09 8.967v19.157c.003.097-.007.195-.028.29a1.683 1.683 0 0 1-1.666 1.404H9.455V7.273h9.941a1.692 1.692 0 0 1 1.695 1.694z" opacity=".2"/>
        <path fill="#000" d="M21.818 8.967V26.67a2.445 2.445 0 0 1-2.422 2.422H9.455V6.545h9.941a2.43 2.43 0 0 1 2.422 2.422z" opacity=".1"/>
        <path fill="#000" d="M21.09 8.967V26.67a1.692 1.692 0 0 1-1.694 1.695H9.455V7.273h9.941a1.692 1.692 0 0 1 1.695 1.694z" opacity=".2"/>
        <path fill="#000" d="M20.364 8.967V26.67a1.692 1.692 0 0 1-1.695 1.695H9.455V7.273h9.214a1.692 1.692 0 0 1 1.695 1.694z" opacity=".1"/>
        <rect width="20.364" height="20.364" y="7.273" fill="#038387" rx="2.334"/>
        <path fill="#FFF" d="M10.518 11.751a4.483 4.483 0 0 1 3.02.907 3.287 3.287 0 0 1 1.048 2.627c.013.69-.167 1.37-.518 1.965a3.5 3.5 0 0 1-1.473 1.337c-.691.33-1.45.494-2.215.477H8.285v4h-2.15V11.751h4.383zm-2.233 5.586h1.85a2.36 2.36 0 0 0 1.634-.501c.39-.384.59-.919.553-1.464 0-1.246-.706-1.87-2.118-1.87h-1.92v3.835z"/>
        <path fill="#000" d="M33.455 2.182h1v30.545h-1z" opacity=".2"/>
        <path fill="#000" d="M34.182 2.182h1v30.545h-1z" opacity=".1"/>
    </g>
</svg>
