<svg width="23" height="22" viewBox="0 0 23 22" fill="none" xmlns="http://www.w3.org/2000/svg">
<path d="M11.3619 1.87867e-06C5.42834 8.41209e-07 0.617187 4.81115 0.617186 10.7447C0.617185 16.6783 5.42834 21.4895 11.3619 21.4895C17.2955 21.4895 22.1067 16.6783 22.1067 10.7448C22.1067 4.81116 17.2955 2.91613e-06 11.3619 1.87867e-06ZM11.3619 19.6667C6.43566 19.6667 2.43995 15.671 2.43996 10.7447C2.43996 5.81847 6.43566 1.82277 11.3619 1.82277C16.2882 1.82277 20.2839 5.81848 20.2839 10.7448C20.2839 15.671 16.2882 19.6667 11.3619 19.6667Z" fill="black"/>
<path d="M14.0374 6.06208C13.3179 5.43131 12.3682 5.08594 11.3608 5.08594C10.3535 5.08594 9.40377 5.4337 8.68425 6.06208C7.93596 6.71684 7.52344 7.59704 7.52344 8.53961L7.52344 8.72188C7.52344 8.82741 7.60978 8.91375 7.71531 8.91375L8.86653 8.91375C8.97206 8.91375 9.0584 8.82741 9.0584 8.72188L9.0584 8.53961C9.0584 7.48192 10.0921 6.6209 11.3608 6.6209C12.6296 6.6209 13.6633 7.48192 13.6633 8.53961C13.6633 9.2855 13.1356 9.96904 12.3178 10.2832C11.8093 10.4775 11.3776 10.8181 11.0682 11.2642C10.7541 11.7199 10.591 12.2667 10.591 12.8207L10.591 13.3364C10.591 13.4419 10.6773 13.5282 10.7828 13.5282L11.9341 13.5282C12.0396 13.5282 12.1259 13.4419 12.1259 13.3364L12.1259 12.7919C12.1272 12.5591 12.1985 12.3321 12.3307 12.1404C12.4629 11.9487 12.6498 11.8013 12.867 11.7175C14.2821 11.173 15.1959 9.92587 15.1959 8.53961C15.1983 7.59704 14.7857 6.71684 14.0374 6.06208ZM10.4015 16.0226C10.4015 16.277 10.5026 16.521 10.6825 16.7009C10.8624 16.8808 11.1064 16.9819 11.3608 16.9819C11.6153 16.9819 11.8593 16.8808 12.0392 16.7009C12.2191 16.521 12.3202 16.277 12.3202 16.0226C12.3202 15.7681 12.2191 15.5241 12.0392 15.3442C11.8593 15.1643 11.6153 15.0632 11.3608 15.0632C11.1064 15.0632 10.8624 15.1643 10.6825 15.3442C10.5026 15.5241 10.4015 15.7681 10.4015 16.0226Z" fill="black"/>
</svg>
