<?xml version="1.0" encoding="UTF-8"?>
<svg width="22px" height="21px" viewBox="0 0 22 21" version="1.1" xmlns="http://www.w3.org/2000/svg" xmlns:xlink="http://www.w3.org/1999/xlink">
    <!-- Generator: Sketch 54.1 (76490) - https://sketchapp.com -->
    <title>sale_icn</title>
    <desc>Created with Sketch.</desc>
    <g id="UI" stroke="none" stroke-width="1" fill="none" fill-rule="evenodd">
        <g id="Vietel-Home-" transform="translate(-303.000000, -25.000000)" fill="#FFFFFF" fill-rule="nonzero">
            <path d="M314.479566,44.6418242 C314.254989,44.5312044 313.891689,44.530805 313.666301,44.6418242 L312.333075,45.2985302 C311.432168,45.7422892 310.324561,45.3855108 309.853413,44.4907218 L309.155308,43.1648991 C309.038148,42.9423928 308.744465,42.7268931 308.497362,42.6832161 L307.0411,42.4258127 C306.050408,42.2507016 305.360029,41.3056168 305.500044,40.3081458 L305.709415,38.816576 C305.744424,38.5671729 305.632535,38.2188867 305.458102,38.0371966 L304.422471,36.9584767 C303.72735,36.2344341 303.729948,35.0578224 304.422471,34.3364864 L305.458102,33.2577666 C305.631907,33.0767303 305.74455,32.7286909 305.709415,32.4783871 L305.500044,30.9868174 C305.360454,29.9923734 306.049244,29.0444674 307.0411,28.8691505 L308.497362,28.611747 C308.743576,28.5682272 309.037725,28.3533739 309.155308,28.130064 L309.853413,26.8042414 C310.321986,25.9143421 311.433316,25.5532394 312.333075,25.996433 L313.666301,26.6531389 C313.890878,26.7637587 314.254178,26.7641582 314.479566,26.6531389 L315.812792,25.996433 C316.713699,25.5526739 317.821306,25.9094524 318.292453,26.8042414 L318.990559,28.130064 C319.107719,28.3525704 319.401402,28.5680701 319.648505,28.611747 L321.104767,28.8691505 C322.095459,29.0442616 322.785838,29.9893464 322.645823,30.9868174 L322.436452,32.4783871 C322.401443,32.7277902 322.513332,33.0760765 322.687765,33.2577666 L323.723396,34.3364864 C324.418517,35.0605291 324.415919,36.2371408 323.723396,36.9584767 L322.687765,38.0371966 C322.51396,38.2182329 322.401317,38.5662723 322.436452,38.816576 L322.645823,40.3081458 C322.785413,41.3025898 322.096623,42.2504958 321.104767,42.4258127 L319.648505,42.6832161 C319.402291,42.7267359 319.108142,42.9415892 318.990559,43.1648991 L318.292453,44.4907218 C317.823881,45.3806211 316.712551,45.7417238 315.812792,45.2985302 L314.479566,44.6418242 Z M311.988485,38.9381952 L317.443031,33.4836498 C317.798053,33.1286277 317.798053,32.5530231 317.443031,32.198001 C317.088008,31.8429789 316.512404,31.8429789 316.157382,32.198001 L310.702836,37.6525465 C310.347814,38.0075686 310.347814,38.5831731 310.702836,38.9381952 C311.057858,39.2932173 311.633463,39.2932173 311.988485,38.9381952 Z M311.800206,34.6590072 C312.553322,34.6590072 313.163843,34.0484864 313.163843,33.2953709 C313.163843,32.5422553 312.553322,31.9317345 311.800206,31.9317345 C311.047091,31.9317345 310.43657,32.5422553 310.43657,33.2953709 C310.43657,34.0484864 311.047091,34.6590072 311.800206,34.6590072 Z M316.345661,39.2044618 C317.098776,39.2044618 317.709297,38.5939409 317.709297,37.8408254 C317.709297,37.0877098 317.098776,36.477189 316.345661,36.477189 C315.592545,36.477189 314.982024,37.0877098 314.982024,37.8408254 C314.982024,38.5939409 315.592545,39.2044618 316.345661,39.2044618 Z" id="sale_icn"></path>
        </g>
    </g>
</svg>