<svg xmlns="http://www.w3.org/2000/svg" width="64" height="53" viewBox="0 0 64 53">
    <g fill="none" fill-rule="evenodd">
        <rect width="59" height="21" x="2" y="16" fill="#0DABA0" rx="2"/>
        <path fill="#000" fill-rule="nonzero" d="M57.044 13.856H6.956C3.12 13.856 0 16.98 0 20.82v11.143c0 3.84 3.12 6.965 6.956 6.965h50.088c3.837 0 6.956-3.126 6.956-6.965V20.82c0-3.839-3.12-6.964-6.956-6.964zm4.173 18.107a4.181 4.181 0 0 1-4.173 4.18H6.956a4.181 4.181 0 0 1-4.173-4.18V20.82a4.181 4.181 0 0 1 4.173-4.178h50.088a4.181 4.181 0 0 1 4.173 4.178v11.143z"/>
        <path fill="#000" fill-rule="nonzero" d="M31.67 0c-.728 0-1.32.616-1.32 1.375V15.12c0 .759.592 1.375 1.32 1.375.728 0 1.32-.616 1.32-1.375V1.374C32.99.616 32.398 0 31.67 0zM31.67 36.289c-.728 0-1.32.616-1.32 1.374V51.41c0 .759.592 1.375 1.32 1.375.728 0 1.32-.616 1.32-1.375V37.663c0-.758-.592-1.374-1.32-1.374z"/>
        <path fill="#000" fill-rule="nonzero" d="M45.475 14.755C42.923 5.652 37.636 0 31.67 0c-5.966 0-11.253 5.652-13.804 14.755a1.371 1.371 0 0 0 .969 1.69c.75.201 1.512-.228 1.713-.959C22.718 7.75 27.085 2.75 31.67 2.75s8.952 5 11.125 12.737c.167.61.727 1.009 1.34 1.009.122 0 .245-.017.37-.05a1.37 1.37 0 0 0 .97-1.69zM44.505 36.337c-.75-.198-1.512.228-1.713.96-2.17 7.736-6.537 12.737-11.122 12.737s-8.952-5-11.122-12.737c-.2-.732-.958-1.158-1.713-.96a1.37 1.37 0 0 0-.97 1.69c2.552 9.104 7.839 14.757 13.805 14.757 5.966 0 11.253-5.653 13.805-14.756a1.371 1.371 0 0 0-.97-1.69z"/>
        <path fill="#000" fill-rule="nonzero" d="M55.277 14.506C50.778 5.558 41.734 0 31.67 0S12.562 5.558 8.063 14.509a1.368 1.368 0 0 0 .625 1.842c.68.338 1.519.06 1.86-.619C14.575 7.725 22.668 2.75 31.67 2.75c9.003 0 17.095 4.976 21.125 12.983a1.386 1.386 0 0 0 1.857.616 1.368 1.368 0 0 0 .625-1.842zM54.652 36.432a1.395 1.395 0 0 0-1.86.619c-4.027 8.008-12.119 12.983-21.122 12.983s-17.095-4.975-21.122-12.98a1.396 1.396 0 0 0-1.86-.62 1.368 1.368 0 0 0-.625 1.843c4.499 8.948 13.543 14.507 23.607 14.507s19.108-5.56 23.607-14.51a1.368 1.368 0 0 0-.625-1.842zM37.877 19.177a1.376 1.376 0 0 0-1.68 1.008l-1.615 6.468-1.267-3.8c-.377-1.13-2.25-1.13-2.63 0l-1.267 3.8-1.616-6.468a1.384 1.384 0 0 0-1.68-1.008 1.383 1.383 0 0 0-1.008 1.679l2.772 11.084c.15.595.676 1.025 1.291 1.047.724.03 1.175-.363 1.37-.945L32 27.672l1.456 4.37c.19.568.72.948 1.316.948.017 0 .036 0 .05-.003a1.383 1.383 0 0 0 1.291-1.047l2.772-11.084a1.382 1.382 0 0 0-1.009-1.68zM21.382 19.177a1.381 1.381 0 0 0-1.682 1.008l-1.615 6.468-1.266-3.8c-.377-1.13-2.25-1.13-2.63 0l-1.266 3.8-1.616-6.468a1.385 1.385 0 0 0-2.688.671L11.39 31.94c.15.595.676 1.025 1.291 1.047.735.03 1.175-.363 1.37-.945l1.454-4.37 1.455 4.37c.191.568.72.948 1.316.948.017 0 .036 0 .053-.003a1.383 1.383 0 0 0 1.291-1.047l2.771-11.084a1.382 1.382 0 0 0-1.009-1.68zM54.372 19.177a1.375 1.375 0 0 0-1.68 1.008l-1.616 6.468-1.267-3.8c-.376-1.13-2.25-1.13-2.63 0l-1.267 3.8-1.616-6.468a1.384 1.384 0 1 0-2.688.671L44.38 31.94c.15.595.676 1.025 1.291 1.047.71.03 1.175-.363 1.37-.945l1.455-4.37 1.455 4.37c.191.568.72.948 1.317.948.016 0 .036 0 .05-.003a1.383 1.383 0 0 0 1.291-1.047l2.772-11.084a1.382 1.382 0 0 0-1.01-1.68z"/>
    </g>
</svg>
