<svg xmlns="http://www.w3.org/2000/svg" width="64" height="60" viewBox="0 0 64 60">
    <g fill="none" fill-rule="nonzero">
        <ellipse cx="21.723" cy="19.245" fill="#0DABA0" rx="17.87" ry="17.933"/>
        <path fill="#000" d="M63.916 47.171c0-.04 0-.078-.013-.118a.383.383 0 0 0-.026-.117c-.013-.04-.013-.079-.026-.105a.392.392 0 0 0-.052-.105.392.392 0 0 0-.052-.104c-.013-.04-.04-.066-.065-.092-.026-.026-.04-.065-.065-.092-.027-.026-.053-.052-.092-.078l-.078-.078c-.026-.027-.065-.04-.104-.066-.026-.013-.052-.04-.091-.052l-14.378-7.116a.39.39 0 0 0-.13-.052c-.248-.092-6.178-2.171-11.027.013l-10.702 3.885c-.026.013-.065.026-.09.039-1.539.706-2.347 2.289-2.021 3.95.326 1.648 1.655 2.812 3.324 2.89h.026c.104 0 .573-.025 5.448-.34 2.125-.13 4.315-.274 4.51-.287a1.184 1.184 0 0 0-.026-2.367c-.065 0-.065 0-4.627.287-2.281.144-4.836.314-5.266.34-.821-.065-1.017-.758-1.07-.968-.09-.444.04-1.033.653-1.334l10.688-3.885a.634.634 0 0 1 .091-.039c3.754-1.713 8.655-.17 9.242.013l6.4 3.166-3.52 8.332a7.125 7.125 0 0 0-5.8-.772l-14.364 4.33a6.74 6.74 0 0 1-5.175-.537L2.94 43.482c-.808-.444-.547-1.216-.482-1.373.078-.21.417-.863 1.238-.641l17.48 5.847a1.19 1.19 0 0 0 1.499-.746 1.19 1.19 0 0 0-.743-1.504L4.413 39.192c-.026-.013-.039-.013-.065-.013-1.734-.47-3.415.366-4.08 2.04-.678 1.688-.039 3.467 1.551 4.343l22.511 12.27a9.07 9.07 0 0 0 6.974.719l14.364-4.33a4.707 4.707 0 0 1 3.897.537l7.326 4.63a.39.39 0 0 0 .104.052c.013 0 .013.013.026.013h.013c.013.013.026.013.052.013.026.013.065.027.091.04.013 0 .04.013.053.013.026.013.065.013.09.026.014 0 .04 0 .053.013.052 0 .091.013.143.013.052 0 .105 0 .157-.013.013 0 .039 0 .052-.013.039 0 .065-.013.104-.026.013 0 .04-.013.052-.013.026-.013.065-.027.092-.04.013-.013.039-.013.052-.026a.747.747 0 0 0 .09-.052.099.099 0 0 1 .053-.026c.026-.013.052-.04.078-.053.013-.013.04-.026.052-.039l.066-.065.052-.053a.274.274 0 0 0 .052-.078c.013-.013.026-.04.039-.052 0 0 0-.013.013-.013 0-.014.013-.027.013-.027.013-.026.04-.065.052-.104L63.8 47.733c.013-.039.026-.065.04-.104a.903.903 0 0 1 .038-.105c.013-.04.013-.078.013-.118 0-.039.013-.078.013-.117.013-.04.013-.079.013-.118zm-2.737.602l-4.158 8.881-4.21-2.668 3.61-8.555 4.758 2.342zM20.055 20.435h3.31a2.452 2.452 0 0 1 2.451 2.46c0 1.36-1.095 2.458-2.45 2.458h-5.957c-.652 0-1.186.537-1.186 1.19 0 .655.534 1.19 1.186 1.19h3.115v2.342c0 .654.534 1.19 1.186 1.19.652 0 1.186-.536 1.186-1.19v-2.341h.483c2.659 0 4.822-2.171 4.822-4.84 0-2.668-2.163-4.84-4.822-4.84h-3.311a2.452 2.452 0 0 1-2.45-2.459c0-1.36 1.094-2.459 2.45-2.459h5.852c.652 0 1.187-.536 1.187-1.19 0-.654-.535-1.19-1.187-1.19h-3.01v-2.29c0-.653-.535-1.19-1.187-1.19-.651 0-1.186.537-1.186 1.19v2.303h-.482c-2.66 0-4.823 2.171-4.823 4.84.013 2.655 2.177 4.826 4.823 4.826z"/>
        <path fill="#000" d="M21.723 38.355c10.506 0 19.044-8.58 19.044-19.11S32.217.122 21.723.122C11.23.122 2.667 8.702 2.667 19.245c0 10.542 8.55 19.11 19.056 19.11zm0-35.853c9.203 0 16.685 7.508 16.685 16.743 0 9.234-7.482 16.742-16.685 16.742-9.202 0-16.684-7.508-16.684-16.742 0-9.235 7.482-16.743 16.684-16.743z"/>
    </g>
</svg>
