<svg xmlns="http://www.w3.org/2000/svg" width="64" height="64" viewBox="0 0 64 64">
    <g fill="none" fill-rule="evenodd">
        <path fill="#0DABA0" d="M13.049 35.6v-7.411l7.568-7.277H28.2l7.8 7.344V35.6z"/>
        <path fill="#000" fill-rule="nonzero" d="M30.01 19.991a7.442 7.442 0 0 0 1.919-4.994c0-4.118-3.346-7.468-7.458-7.468-1.99 0-3.878.77-5.316 2.168-1.462 1.42-2.267 3.302-2.267 5.3 0 1.868.704 3.636 1.992 5.018-4.307 2.09-7.586 6.635-7.586 12.032v3.733c0 1.031.835 1.867 1.865 1.867h22.623c1.03 0 1.865-.836 1.865-1.867v-3.733c0-5.367-3.258-9.956-7.637-12.056zm-5.54-8.728a3.736 3.736 0 0 1 3.73 3.734 3.736 3.736 0 0 1-3.73 3.733c-2.088 0-3.853-1.71-3.853-3.733 0-2.024 1.765-3.734 3.854-3.734zm9.448 22.65H15.023v-1.866c0-5.195 4.327-9.583 9.448-9.583 5.12 0 9.447 4.388 9.447 9.583v1.866z"/>
        <circle cx="48.8" cy="48.8" r="12.8" fill="#0DABA0"/>
        <path fill="#000" fill-rule="nonzero" d="M49 34V1.875C49 .84 48.16 0 47.125 0H14.678a5.588 5.588 0 0 0-3.977 1.647l-9.053 9.054A5.588 5.588 0 0 0 0 14.678v43.697c0 1.035.84 1.875 1.875 1.875H39.09A14.937 14.937 0 0 0 49 64c8.271 0 15-6.729 15-15s-6.729-15-15-15zM11.25 6.402v4.848H6.402l4.848-4.848zM3.75 56.5V15h9.375C14.161 15 15 14.16 15 13.125V3.75h30.25v30.725a15.06 15.06 0 0 0-9.24 7.032c-.045-.003-.09-.007-.135-.007h-22.75c-1.036 0-1.875.84-1.875 1.875 0 1.035.84 1.862 1.875 1.862h21.35A15.074 15.074 0 0 0 34 49H13.125a1.875 1.875 0 0 0 0 3.75h21.35a14.91 14.91 0 0 0 1.539 3.75H3.75zM49 60.25c-6.203 0-11.25-5.047-11.25-11.25S42.797 37.75 49 37.75 60.25 42.797 60.25 49 55.203 60.25 49 60.25z"/>
        <path fill="#000" fill-rule="nonzero" d="M55.92 43.845a1.882 1.882 0 0 0-2.663 0l-6.198 6.199-2.434-2.434a1.882 1.882 0 1 0-2.662 2.662l3.765 3.765c.367.368.85.551 1.33.551.483 0 .964-.183 1.332-.551l7.53-7.53a1.882 1.882 0 0 0 0-2.662z"/>
    </g>
</svg>
