<svg xmlns="http://www.w3.org/2000/svg" width="64" height="64" viewBox="0 0 64 64">
    <g fill="none" fill-rule="nonzero">
        <path fill="#0DABA0" d="M27.797 54.71h22.71l-1.938-5.812a6.194 6.194 0 0 0-4.768-4.135l-7.746-1.408h-8.258l-7.747 1.408a6.194 6.194 0 0 0-4.768 4.135l-.904 4.11v1.702h13.42zM46.378 1.032h14.451c1.141 0 2.065.924 2.065 2.065v8.258c0 1.14-.924 2.064-2.065 2.064h-3.096l-8.258 5.162.884-5.162h-3.981a2.064 2.064 0 0 1-2.065-2.064V3.097c0-1.14.924-2.065 2.065-2.065z"/>
        <path fill="#0DABA0" d="M23.668 51.081l-3.702 3.348a2.064 2.064 0 0 1-2.919 0l-7.403-7.403a2.064 2.064 0 0 1 0-2.92l3.347-3.347-6.193-6.194-3.878 3.878a6.193 6.193 0 0 0 0 8.76l13.95 13.95a6.193 6.193 0 0 0 8.76 0l4.232-3.878-6.194-6.194z"/>
        <path fill="#000" d="M49.549 48.572a7.226 7.226 0 0 0-5.563-4.824l-6.899-1.255v-.535a10.389 10.389 0 0 0 3.078-2.732h2.084a3.1 3.1 0 0 0 3.097-3.097V23.742c0-7.4-6.02-13.42-13.42-13.42-7.399 0-13.42 6.02-13.42 13.42v7.226A4.136 4.136 0 0 0 21.8 35.01a10.342 10.342 0 0 0 4.966 6.947v.535l-6.9 1.255a7.225 7.225 0 0 0-5.562 4.824l-.412 1.24-3.516-3.516a1.034 1.034 0 0 1 0-1.46l4.077-4.077L6.8 33.106l-4.608 4.608a7.179 7.179 0 0 0-2.116 5.11c0 1.93.751 3.743 2.116 5.108l13.95 13.95A7.18 7.18 0 0 0 21.252 64c1.93 0 3.745-.753 5.077-2.086l5.028-4.607-1.568-1.565h22.15l-2.39-7.17zm-17.623-2.548l-3.097-3.097v-.048a10.308 10.308 0 0 0 6.194 0v.048l-3.097 3.097zm10.323-8.863h-.868c.299-.682.526-1.402.673-2.15a4.089 4.089 0 0 0 1.227-.488v1.606c0 .57-.463 1.032-1.032 1.032zm0-7.97a2.058 2.058 0 0 1 1.032 1.777c0 .76-.418 1.42-1.032 1.777V29.19zM20.57 30.967c0-.761.418-1.42 1.033-1.778v3.555a2.058 2.058 0 0 1-1.033-1.777zm1.033-5.162v1.18c-.368.095-.713.24-1.033.427v-3.671c0-6.26 5.095-11.355 11.355-11.355 6.26 0 11.355 5.094 11.355 11.355v3.67a4.057 4.057 0 0 0-1.032-.427v-1.179h-1.032c-3.053 0-5.923-1.189-8.082-3.347l-1.209-1.209-1.209 1.209a11.357 11.357 0 0 1-8.081 3.347h-1.032zm2.064 7.226v-5.2c3.1-.234 5.99-1.513 8.258-3.669a13.378 13.378 0 0 0 8.258 3.669v5.2c0 1.505-.41 2.913-1.117 4.13h-7.14v2.064h5.443a8.214 8.214 0 0 1-5.444 2.064c-4.553 0-8.258-3.704-8.258-8.258zM11.532 40.76l-1.121 1.12-4.734-4.733 1.12-1.121 4.735 4.734zm9.718 21.176a5.133 5.133 0 0 1-3.65-1.512L3.648 46.473a5.128 5.128 0 0 1-1.512-3.649c0-1.379.537-2.675 1.512-3.65l.567-.568L8.95 43.34l-.037.038a3.102 3.102 0 0 0 0 4.38l7.402 7.402a3.08 3.08 0 0 0 2.19.907 3.04 3.04 0 0 0 2.153-.871l.077-.07 4.756 4.756-.592.543a5.135 5.135 0 0 1-3.65 1.51zm5.765-3.45l-4.746-4.746 1.364-1.232 4.737 4.737-1.355 1.24zm.709-4.808l-4.02-4.02-4.468 4.041c-.39.391-1.07.391-1.46 0l-2.254-2.254.739-2.22a5.163 5.163 0 0 1 3.973-3.446l7.215-1.311 4.477 4.476 4.476-4.475 7.215 1.31a5.161 5.161 0 0 1 3.973 3.447l1.485 4.452H27.724zM60.83 0H46.377a3.1 3.1 0 0 0-3.097 3.097v8.258a3.1 3.1 0 0 0 3.097 3.097h2.757l-1.067 6.225 9.96-6.225h2.801a3.1 3.1 0 0 0 3.097-3.097V3.097A3.1 3.1 0 0 0 60.83 0zm1.032 11.355c0 .569-.464 1.032-1.033 1.032h-3.393l-6.555 4.097.702-4.097h-5.205a1.034 1.034 0 0 1-1.032-1.032V3.097c0-.569.463-1.032 1.032-1.032h14.451c.57 0 1.033.463 1.033 1.032v8.258z"/>
        <path fill="#000" d="M47.41 4.129h12.387v2.065H47.41zM47.41 8.258h8.258v2.065H47.41zM57.733 8.258h2.065v2.065h-2.065zM9.748 25.659l-1.062-1.77-2.797 1.678C8.814 13.662 19.519 5.161 31.926 5.161c2.712 0 5.388.403 7.953 1.198l.61-1.972a28.884 28.884 0 0 0-8.563-1.29C18.44 3.097 6.821 12.427 3.8 25.44l-1.956-3.26-1.77 1.061 3.628 6.046 6.046-3.628zM53.751 25.275l1.77 1.062 1.807-3.011A26.729 26.729 0 0 1 58.765 32c0 6.139-2.127 12.14-5.986 16.898l1.603 1.3A28.968 28.968 0 0 0 60.829 32c0-3.158-.508-6.241-1.5-9.193l3.033 1.82 1.063-1.77-6.046-3.63-3.628 6.048z"/>
    </g>
</svg>
