<svg xmlns="http://www.w3.org/2000/svg" width="60" height="64" viewBox="0 0 60 64">
    <g fill="none" fill-rule="evenodd">
        <path fill="#0DABA0" d="M39.5 13.5L57.678 2.787v47.608L39.5 61.427z"/>
        <path fill="#000" fill-rule="nonzero" d="M48.658 35.68a1.871 1.871 0 1 1-3.742 0 1.871 1.871 0 0 1 3.742 0z"/>
        <path fill="#000" fill-rule="nonzero" d="M18.713 1.871v20.71H1.871A1.871 1.871 0 0 0 0 24.452v7.486c0 1.033.838 1.871 1.871 1.871h16.842v16.967c0 1.033.838 1.871 1.872 1.871h16.842v9.357a1.872 1.872 0 0 0 2.834 1.605L58.975 52.38c.563-.339.908-.948.908-1.605V1.87a1.873 1.873 0 0 0-1.85-1.87L58.012 0H20.585a1.871 1.871 0 0 0-1.872 1.871zM3.743 30.066v-3.742h16.842a1.871 1.871 0 0 0 1.871-1.872v-.246l5.983 3.989-5.983 3.989v-.246a1.871 1.871 0 0 0-1.871-1.872H3.743zm52.397 19.65L41.17 58.7v-44.54l14.97-8.983v44.54zM51.255 3.743l-12.92 7.752a1.872 1.872 0 0 0-.908 1.604v35.805h-14.97V36.682l10.394-6.93a1.871 1.871 0 0 0 0-3.114l-10.395-6.93V3.743h28.8z"/>
    </g>
</svg>
