<svg xmlns="http://www.w3.org/2000/svg" width="64" height="64" viewBox="0 0 64 64">
    <g fill="none" fill-rule="evenodd">
        <path fill="#0DABA0" d="M1.58 33.162c2.317-3.804 6.528-5.706 12.632-5.706 6.105 0 10.316 1.902 12.633 5.706v25.266c-3.897 2.522-8.002 3.784-12.314 3.784-4.312 0-8.63-1.262-12.952-3.784V33.162z"/>
        <path fill="#353638" fill-rule="nonzero" d="M14.531 26.425C7.485 26.425 0 28.739 0 33.03v23.778c0 4.29 7.485 6.605 14.531 6.605s14.531-2.315 14.531-6.605V33.03c0-4.29-7.485-6.605-14.531-6.605zM26.42 56.808c0 1.617-4.631 3.963-11.889 3.963-7.258 0-11.889-2.346-11.889-3.963v-4.019c2.803 1.768 7.43 2.698 11.889 2.698 4.46 0 9.086-.93 11.889-2.698v4.019zm0-7.926c0 1.617-4.631 3.963-11.889 3.963-7.258 0-11.889-2.346-11.889-3.963v-4.019c2.803 1.768 7.43 2.698 11.889 2.698 4.46 0 9.086-.93 11.889-2.698v4.019zm0-7.926c0 1.617-4.631 3.963-11.889 3.963-7.258 0-11.889-2.346-11.889-3.963v-4.019c2.803 1.768 7.43 2.698 11.889 2.698 4.46 0 9.086-.93 11.889-2.698v4.019zm-11.889-3.963c-7.258 0-11.889-2.346-11.889-3.963s4.631-3.963 11.889-3.963c7.258 0 11.889 2.346 11.889 3.963s-4.631 3.963-11.889 3.963zm18.494.634a1.321 1.321 0 0 0 0 2.642c6.555 0 11.892-5.334 11.892-11.89 0-6.554-5.335-11.888-11.89-11.888-4.467 0-8.515 2.502-10.562 6.528a1.32 1.32 0 0 0 2.354 1.197c1.593-3.136 4.737-5.083 8.206-5.083 5.1 0 9.247 4.148 9.247 9.247s-4.148 9.247-9.247 9.247zM63.157 24.57a5.01 5.01 0 0 0-2.394-3.675 4.922 4.922 0 0 0-4.314-.386c-1.136.428-2.439-.16-2.962-1.331a22.317 22.317 0 0 0-2.256-3.924c-.764-1.062-.62-2.457.33-3.239a4.923 4.923 0 0 0 1.802-3.918 5.01 5.01 0 0 0-2-3.91 30.366 30.366 0 0 0-6.55-3.783 5.028 5.028 0 0 0-4.404.222 4.916 4.916 0 0 0-2.486 3.513c-.203 1.221-1.352 2.03-2.655 1.9a21.678 21.678 0 0 0-4.497 0c-1.329.111-2.449-.682-2.652-1.902A4.91 4.91 0 0 0 25.63.626a5.033 5.033 0 0 0-4.402-.222 30.429 30.429 0 0 0-6.549 3.783 5.01 5.01 0 0 0-1.997 3.908 4.934 4.934 0 0 0 1.804 3.92c.951.782 1.094 2.172.328 3.237a22.51 22.51 0 0 0-2.257 3.923c-.523 1.17-1.828 1.757-2.99 1.321a4.925 4.925 0 0 0-3.805.14A5.039 5.039 0 0 0 3.15 23.5a1.321 1.321 0 0 0 2.486.89 2.395 2.395 0 0 1 1.237-1.358 2.26 2.26 0 0 1 1.794-.052c2.441.914 5.207-.283 6.304-2.727a19.652 19.652 0 0 1 1.989-3.461c1.585-2.209 1.244-5.141-.795-6.822a2.284 2.284 0 0 1-.84-1.823c.013-.731.359-1.41.95-1.857a27.646 27.646 0 0 1 5.98-3.453 2.39 2.39 0 0 1 2.103.103 2.252 2.252 0 0 1 1.157 1.633c.436 2.618 2.819 4.38 5.535 4.092a19.322 19.322 0 0 1 3.947 0c2.734.286 5.099-1.471 5.535-4.092a2.264 2.264 0 0 1 1.157-1.633 2.381 2.381 0 0 1 2.103-.103A27.801 27.801 0 0 1 49.77 6.29c.592.45.94 1.126.954 1.857.016.711-.29 1.377-.84 1.829-2.037 1.677-2.38 4.61-.793 6.819a19.819 19.819 0 0 1 1.99 3.46c1.096 2.445 3.865 3.644 6.33 2.717a2.292 2.292 0 0 1 1.997.182 2.388 2.388 0 0 1 1.133 1.752 26.933 26.933 0 0 1 0 6.943 2.376 2.376 0 0 1-1.133 1.751 2.311 2.311 0 0 1-2.026.172c-2.442-.914-5.208.285-6.302 2.73a19.855 19.855 0 0 1-1.992 3.463c-1.585 2.209-1.244 5.139.796 6.819.55.45.853 1.112.84 1.823a2.376 2.376 0 0 1-.951 1.86 27.646 27.646 0 0 1-5.98 3.453 2.417 2.417 0 0 1-2.102-.103 2.245 2.245 0 0 1-1.157-1.633c-.436-2.618-2.825-4.378-5.538-4.092-.647.068-1.305.103-1.971.103a1.321 1.321 0 0 0 0 2.642c.76 0 1.511-.04 2.248-.12 1.332-.12 2.452.683 2.656 1.9a4.909 4.909 0 0 0 2.486 3.514 5.034 5.034 0 0 0 4.401.228 30.429 30.429 0 0 0 6.55-3.784 5.017 5.017 0 0 0 1.997-3.913 4.929 4.929 0 0 0-1.804-3.918c-.951-.782-1.094-2.174-.33-3.236a22.282 22.282 0 0 0 2.258-3.926c.526-1.173 1.84-1.754 2.991-1.321a4.917 4.917 0 0 0 4.288-.396 5.008 5.008 0 0 0 2.391-3.675 29.782 29.782 0 0 0 0-7.62z"/>
    </g>
</svg>
