<svg width="26" height="24" viewBox="0 0 26 24" fill="none" xmlns="http://www.w3.org/2000/svg">
<path d="M23.8745 8.57266C22.057 8.28757 20.7788 6.60562 20.9821 4.82288C21.0096 4.58125 21.0644 4.3437 21.1455 4.11449C21.356 3.50955 21.14 2.81056 20.6198 2.37239C19.5208 1.4238 18.2745 0.660455 16.9302 0.112244C16.6369 -0.0112317 16.3108 -0.0335806 16.0036 0.0489122C15.6964 0.131405 15.4253 0.313953 15.2333 0.56783C14.1692 1.98988 12.1194 2.23935 10.7349 1.12912C10.5314 0.965375 10.3492 0.776796 10.1926 0.56783C10.0006 0.313966 9.72954 0.131414 9.42226 0.0489122C9.11498 -0.0335896 8.78894 -0.0112271 8.49569 0.112244C7.25562 0.617128 6.09862 1.30545 5.06328 2.15435C4.51689 2.59751 4.29031 3.32362 4.51189 3.94899C5.1314 5.59176 4.29475 7.51802 2.59558 8.22087V8.22104C2.29275 8.34735 1.97343 8.42949 1.64717 8.4648C0.962758 8.54978 0.394882 9.05593 0.25632 9.70909C-0.0552036 11.0904 -0.0830571 12.5202 0.174358 13.9125C0.294637 14.587 0.869761 15.1166 1.57515 15.2041C3.39318 15.3967 4.74538 17.0042 4.62898 18.7929H4.62916C4.60663 19.1523 4.52272 19.5052 4.38079 19.8361C4.11202 20.4575 4.32065 21.2109 4.87755 21.669C5.96929 22.6011 7.20314 23.3524 8.53245 23.8944C8.69762 23.9577 8.87201 23.9932 9.04851 23.9997C9.53514 24.0091 9.99283 23.7689 10.2611 23.3629C10.8355 22.5002 11.797 21.9745 12.8334 21.9568C13.8698 21.939 14.8488 22.4313 15.4525 23.274C15.6435 23.5454 15.9233 23.7418 16.2435 23.8291C16.5639 23.9164 16.9045 23.8891 17.207 23.7518C18.4217 23.2132 19.5516 22.5005 20.5613 21.6368C21.0909 21.1897 21.3064 20.4739 21.0794 19.8609C20.441 18.2252 21.2568 16.2914 22.9457 15.5727C23.2311 15.4498 23.5318 15.3664 23.8398 15.3243C24.5164 15.2205 25.0653 14.7073 25.1904 14.0582V14.058C25.3373 13.3796 25.4173 12.6883 25.4293 11.9941C25.4291 11.2616 25.3523 10.531 25.2003 9.81452C25.0731 9.17925 24.5361 8.67809 23.8746 8.57268L23.8745 8.57266ZM16.9513 11.9941C16.9513 14.3207 15.0379 16.2307 12.7128 16.2326C10.3876 16.2346 8.47622 14.3207 8.47427 11.9941C8.47232 9.66744 10.3878 7.75695 12.7128 7.75499C15.038 7.75304 16.9494 9.66544 16.9513 11.9941V11.9941Z" fill="white"/>
</svg>
