<svg xmlns="http://www.w3.org/2000/svg" width="41" height="41" viewBox="0 0 41 41">
    <g fill="none" fill-rule="evenodd" transform="translate(.377 .442)">
        <circle cx="11.6" cy="11.6" r="11.6" fill="#28A8EA" fill-rule="nonzero"/>
        <circle cx="28.4" cy="28.4" r="11.6" fill="#28A8EA" fill-rule="nonzero"/>
        <circle cx="20" cy="20" r="19.2" fill="#28A8EA" fill-rule="nonzero"/>
        <path fill="#FFF" d="M15.02 19.635a5.835 5.835 0 0 1-1.829-1.932 5.338 5.338 0 0 1-.627-2.668 4.796 4.796 0 0 1 1.13-3.23 6.8 6.8 0 0 1 2.945-1.968 11.374 11.374 0 0 1 3.856-.649c.86-.008 1.718.058 2.567.197a9.264 9.264 0 0 1 1.779.459 3.45 3.45 0 0 1 1.392.89 1.8 1.8 0 0 1 .43 1.196c.02.459-.142.907-.452 1.246a1.505 1.505 0 0 1-1.137.474 2.047 2.047 0 0 1-.846-.19 15.307 15.307 0 0 0-2.012-.736 7.304 7.304 0 0 0-1.94-.24 4.426 4.426 0 0 0-2.426.62 2.02 2.02 0 0 0-.97 1.814c-.005.475.175.933.502 1.276.39.404.849.732 1.356.97.57.282 1.417.656 2.544 1.122.125.04.247.089.365.147 1.1.435 2.155.977 3.15 1.618a6.35 6.35 0 0 1 1.939 1.99c.484.84.726 1.796.7 2.764a5.558 5.558 0 0 1-.97 3.331 5.763 5.763 0 0 1-2.712 2.013 11.43 11.43 0 0 1-4.075.663 12.84 12.84 0 0 1-5.555-1.05c-.448-.199-.84-.504-1.144-.89a2 2 0 0 1-.372-1.21 1.582 1.582 0 0 1 .488-1.232c.348-.304.8-.464 1.262-.444a3.223 3.223 0 0 1 1.472.379c.563.282 1.008.493 1.334.634a6.706 6.706 0 0 0 2.632.518 3.95 3.95 0 0 0 2.486-.664 2.19 2.19 0 0 0 .838-1.815 1.93 1.93 0 0 0-.525-1.327 5.58 5.58 0 0 0-1.545-1.123c-.68-.36-1.638-.797-2.872-1.312a17.795 17.795 0 0 1-3.157-1.64"/>
        <path fill="#000" fill-rule="nonzero" d="M15.224.584a11.322 11.322 0 0 0-1.552-.4A20.86 20.86 0 0 0 .184 13.672c.097.526.23 1.045.4 1.552.142.46.321.906.536 1.336A19.158 19.158 0 0 1 16.56 1.12a8.792 8.792 0 0 0-1.336-.536z" opacity=".1"/>
        <path fill="#000" fill-rule="nonzero" d="M15.224.584a20.016 20.016 0 0 0-14.64 14.64c.142.46.321.906.536 1.336A19.158 19.158 0 0 1 16.56 1.12a8.792 8.792 0 0 0-1.336-.536zm24.192 24.192a8.786 8.786 0 0 0-.536-1.336 19.158 19.158 0 0 1-15.44 15.44c.43.215.877.394 1.336.536.507.17 1.026.303 1.552.4a20.86 20.86 0 0 0 13.488-13.488 11.329 11.329 0 0 0-.4-1.552z" opacity=".1"/>
        <path fill="#000" fill-rule="nonzero" d="M38.88 23.44a19.158 19.158 0 0 1-15.44 15.44c.43.215.877.394 1.336.536a20.016 20.016 0 0 0 14.64-14.64 8.786 8.786 0 0 0-.536-1.336z" opacity=".1"/>
    </g>
</svg>
