<svg xmlns="http://www.w3.org/2000/svg" width="44" height="49" viewBox="0 0 44 49">
    <g fill="none" fill-rule="evenodd">
        <path fill="#0DABA0" d="M28.966 21.713l-3.227-3.868V15.5l-2.212-2.916h-3.1l-2.516 3.29v2.347l-3.226 3.154-.808 7.023 1.608 6.334 2.426 2.741 3.914 2.068 5.13-2.652 2.01-4.847.688-4.427z"/>
        <path fill="#171717" fill-rule="nonzero" d="M17.101 17.325c-.205-.97-.019-1.897.574-2.608l1.7-2.234c-.008-.875-.091-1.515-.3-1.732-.082-.162-.156-.228-.246-.248a.582.582 0 0 0-.135-.01c-.525 0-.883-.357-.883-.882s.358-.883.883-.883c.683 0 1.167.186 1.642.661.507.592.746 1.463.803 2.47h1.383c.074-.945.315-1.756.789-2.308.455-.607.924-.823 1.646-.823.524 0 .882.358.882.883s-.358.883-.882.883a.804.804 0 0 0-.211.016.393.393 0 0 0-.188.11c-.342.342-.458 1.162-.347 1.744l1.762 2.35c.634.76.803 1.761.507 2.698L29.027 20c.034 0 .077.007.123.03.082.041.134.119.104.156.246.246.355.399.508.81.074.199.142.435.204.715l4.026-2.013c.348-.174.86-.02 1.23.357.174.348.02.86-.358 1.23L30.236 23.6c.092 1.041.141 2.336.143 3.915h3.971c.525 0 .883.358.883.883s-.358.883-.883.883H30.34a15.83 15.83 0 0 1-.84 4.145l3.826 3.825c.352.352.352.885.03 1.167 0 .167-.145.231-.37.25-.061.005-.11.006-.2.006-.143 0-.228-.004-.33-.02a.656.656 0 0 1-.367-.166l-3.334-3.333c-1.632 3.147-4.315 5.085-6.929 5.085-2.631 0-5.34-1.967-7.007-5.165l-3.382 3.343c0 .167-.144.231-.37.25-.06.005-.11.006-.2.006-.142 0-.227-.004-.33-.02a.656.656 0 0 1-.367-.166.857.857 0 0 1 0-1.237l3.898-3.898a16.299 16.299 0 0 1-.88-4.072H9.302c-.525 0-.883-.358-.883-.883s.358-.883.883-.883h3.814c.002-1.65.053-2.997.149-4.069l-4.321-2.16c-.371-.186-.53-.716-.358-1.23.2-.402.757-.525 1.074-.202l3.831 1.916c.204-1.02.45-1.44.82-1.613a.09.09 0 0 0 .034-.01c.016-.007.023-.018.052-.118l2.705-2.704zm-1.467 4.098l-.079.079c-.058.058-.058.058-.06.052-.125.251-.25.695-.361 1.438-.161 1.079-.254 2.594-.254 4.623 0 5.586 2.716 10.04 6.063 10.762v-18.49h-.683c-.908 0-1.676-.32-2.282-.938l-2.344 2.474zm7.074 16.954c3.346-.722 6.063-5.176 6.063-10.762 0-2.029-.093-3.544-.254-4.623-.11-.743-.237-1.187-.343-1.412l-2.566-2.566c-.597.575-1.342.873-2.217.873h-.683v18.49zm-.96 9.69c-.06 0-.06 0-.108-.004C11.38 45.007.59 36.853.59 29.493V7.733c0-.403.228-.722.698-.879L21.668.9h.157c.06 0 .06 0 .185.004L42.38 6.86c.382.191.68.54.68.872v21.762c0 7.36-10.79 15.513-21.078 18.574h-.235zM2.355 8.434v21.06c0 6.193 9.724 13.806 19.44 16.813 9.775-3.007 19.5-10.62 19.5-16.812V8.433L21.853 2.66 2.356 8.433zm16.735 7.339c-.336.503-.416 1.066-.157 1.455.375.562.818.894 1.326.894h3.131c.587 0 1.023-.29 1.32-.884.263-.526.199-.94-.149-1.462l-1.484-2.15h-2.3l-1.687 2.147z"/>
    </g>
</svg>
