<svg xmlns="http://www.w3.org/2000/svg" width="64" height="64" viewBox="0 0 64 64">
    <g fill="none" fill-rule="evenodd">
        <path fill="#0DABA0" d="M1.633 61.983H24.5v-8.3l-4.974-6.143H7.356l-5.723 6.143zM39 61.983h22.867v-8.3l-4.973-6.143h-12.17L39 53.683z"/>
        <path fill="#000" fill-rule="nonzero" d="M57.151 45.599a7.454 7.454 0 0 0 1.224-4.099c0-4.136-3.364-7.5-7.5-7.5a7.48 7.48 0 0 0-2 .273v-4.336c4.274-.872 7.5-4.66 7.5-9.187v-7.625c0-5.17-4.206-9.375-9.375-9.375h-7.505A9.366 9.366 0 0 0 32 0H17c-5.17 0-9.375 4.206-9.375 9.375V20.75c0 4.527 3.226 8.316 7.5 9.187v4.336a7.476 7.476 0 0 0-2-.273c-4.136 0-7.5 3.364-7.5 7.5 0 1.512.451 2.92 1.224 4.099C2.903 46.705 0 50.33 0 54.625v7.5C0 63.16.84 64 1.875 64h22.5c1.035 0 1.875-.84 1.875-1.875v-7.5c0-4.294-2.903-7.92-6.849-9.026a7.454 7.454 0 0 0 1.224-4.099c0-1.87-.69-3.582-1.826-4.897l6.478-6.478h13.446l6.479 6.478a7.466 7.466 0 0 0-1.827 4.897c0 1.512.451 2.92 1.224 4.099-3.946 1.106-6.849 4.732-6.849 9.026v7.5c0 1.035.84 1.875 1.875 1.875h22.5C63.16 64 64 63.16 64 62.125v-7.5c0-4.294-2.903-7.92-6.849-9.026zM13.125 37.75a3.754 3.754 0 0 1 3.75 3.75 3.754 3.754 0 0 1-3.75 3.75 3.754 3.754 0 0 1-3.75-3.75 3.754 3.754 0 0 1 3.75-3.75zM22.5 54.625v5.625H3.75v-5.625A5.631 5.631 0 0 1 9.375 49h7.5a5.631 5.631 0 0 1 5.625 5.625zM37.625 20.75A5.631 5.631 0 0 1 32 26.375h-7.5c-.497 0-.974.198-1.326.55l-4.299 4.298V28.25c0-1.035-.84-1.875-1.875-1.875a5.631 5.631 0 0 1-5.625-5.625V9.375A5.631 5.631 0 0 1 17 3.75h15a5.631 5.631 0 0 1 5.625 5.625V20.75zm13.25 17a3.754 3.754 0 0 1 3.75 3.75 3.754 3.754 0 0 1-3.75 3.75 3.754 3.754 0 0 1-3.75-3.75 3.754 3.754 0 0 1 3.75-3.75zm-5.75-9.5v2.973l-4.3-4.299a1.874 1.874 0 0 0-1.325-.549h-.005a9.326 9.326 0 0 0 1.88-5.625V9.375c0-.642-.065-1.269-.189-1.875H47a5.631 5.631 0 0 1 5.625 5.625v7.625A5.631 5.631 0 0 1 47 26.375c-1.035 0-1.875.84-1.875 1.875zm15.125 32H41.5v-5.625A5.631 5.631 0 0 1 47.125 49h7.5a5.631 5.631 0 0 1 5.625 5.625v5.625z"/>
        <path fill="#000" fill-rule="nonzero" d="M31.45 8.05a1.875 1.875 0 0 0-2.65 0l-6.175 6.173-2.424-2.424a1.875 1.875 0 1 0-2.652 2.652l3.75 3.75c.732.732 1.92.732 2.652 0l7.5-7.5a1.875 1.875 0 0 0 0-2.652z"/>
    </g>
</svg>
