<svg xmlns="http://www.w3.org/2000/svg" width="48" height="64" viewBox="0 0 48 64">
    <g fill="none" fill-rule="evenodd">
        <path fill="#0DABA0" d="M8.5 3.75l3.943-1.599h24.614l2.383 2.734v19.108l-2.383 2.757H28.89l-3.597 4.14h-2.742l-3.411-4.14h-8.177L8.5 23.993z"/>
        <path fill="#000" fill-rule="nonzero" d="M46.208 35.174a5.851 5.851 0 0 0-4.166-1.725 5.852 5.852 0 0 0-4.166 1.725l-4.26 4.26c-.02-3.966-2.444-7.373-5.887-8.836l2.035-2.035h5.249a6.903 6.903 0 0 0 6.895-6.896V6.896A6.903 6.903 0 0 0 35.013 0H12.92a6.903 6.903 0 0 0-6.896 6.896v14.771a6.903 6.903 0 0 0 6.896 6.896h5.248l2.035 2.035c-3.442 1.463-5.866 4.87-5.887 8.836l-4.259-4.26a5.853 5.853 0 0 0-4.166-1.725 5.853 5.853 0 0 0-4.166 1.725A5.853 5.853 0 0 0 0 39.34c0 1.574.613 3.054 1.726 4.166L14.059 55.84v6.286c0 1.036.839 1.875 1.875 1.875H32c1.036 0 1.875-.84 1.875-1.875v-6.286l12.333-12.332a5.855 5.855 0 0 0 1.726-4.167 5.851 5.851 0 0 0-1.726-4.166zM12.92 24.813a3.15 3.15 0 0 1-3.146-3.146V6.896a3.15 3.15 0 0 1 3.146-3.146h22.092a3.15 3.15 0 0 1 3.145 3.146v14.771a3.15 3.15 0 0 1-3.145 3.146h-6.026c-.497 0-.974.197-1.325.55l-3.695 3.694-3.695-3.695a1.874 1.874 0 0 0-1.326-.549H12.92zm11.046 8.771c3.253 0 5.9 2.647 5.9 5.9 0 3.254-2.647 5.901-5.9 5.901a5.907 5.907 0 0 1-5.901-5.9c0-3.254 2.647-5.901 5.9-5.901zm19.59 7.271L30.673 53.737c-.351.351-.549.828-.549 1.326v5.187H17.809v-5.188c0-.497-.198-.974-.55-1.325L4.377 40.855a2.127 2.127 0 0 1-.627-1.514c0-.572.223-1.11.627-1.515a2.127 2.127 0 0 1 1.515-.627c.572 0 1.11.222 1.514.627l10.76 10.76c.352.352.829.55 1.326.55h8.95c.497 0 .974-.198 1.325-.55l10.76-10.76a2.129 2.129 0 0 1 1.515-.627c.572 0 1.11.222 1.514.627.404.404.628.943.628 1.514a2.13 2.13 0 0 1-.628 1.515z"/>
        <path fill="#000" fill-rule="nonzero" d="M22.192 19.707c.48 0 .96-.184 1.326-.55l7.1-7.1a1.874 1.874 0 1 0-2.652-2.652l-5.774 5.775-2.225-2.224a1.876 1.876 0 0 0-2.652 2.651l3.55 3.55c.367.366.847.55 1.327.55z"/>
    </g>
</svg>
