<svg xmlns="http://www.w3.org/2000/svg" width="64" height="64" viewBox="0 0 64 64">
    <g fill="none" fill-rule="evenodd">
        <path fill="#000" fill-rule="nonzero" d="M39.724 52.233H9.286c-.983 0-1.777.794-1.777 1.776 0 .983.794 1.777 1.777 1.777h30.438c.982 0 1.776-.794 1.776-1.777 0-.982-.794-1.776-1.776-1.776zM22.804 41.235H9.286c-.983 0-1.777.793-1.777 1.776 0 .97.794 1.776 1.777 1.776h13.518c.983 0 1.776-.793 1.776-1.776s-.793-1.776-1.776-1.776zM22.804 30.224H9.286c-.983 0-1.777.793-1.777 1.776s.794 1.776 1.777 1.776h13.518c.983 0 1.776-.793 1.776-1.776s-.793-1.776-1.776-1.776zM34.659 19.225H9.286c-.983 0-1.777.794-1.777 1.777 0 .97.794 1.776 1.777 1.776h25.373c.983 0 1.776-.794 1.776-1.776 0-.983-.793-1.777-1.776-1.777zM39.724 8.214H20.146c-.983 0-1.777.794-1.777 1.777 0 .982.794 1.776 1.777 1.776h19.578c.982 0 1.776-.794 1.776-1.776 0-.983-.794-1.777-1.776-1.777z"/>
        <path fill="#0DABA0" d="M28.5 37.5v5.511h5.226C52.322 26.174 61.62 17.103 61.62 15.8v-4.524l-2.337-2.602-4.518 1.317L28.5 37.5zM2.641 13l10.25-9.447V13z"/>
        <path fill="#000" fill-rule="nonzero" d="M62.25 8.831c-2.243-2.242-6.325-2.141-8.454 0l-4.8 4.8v-8.49A5.146 5.146 0 0 0 43.856 0H14.45c-1.373 0-2.658.53-3.628 1.5L1.5 10.81c-.97.97-1.5 2.267-1.5 3.628V58.86A5.146 5.146 0 0 0 5.14 64h38.728a5.146 5.146 0 0 0 5.14-5.14V30.526l13.254-13.254c2.318-2.318 2.318-6.11-.012-8.44zM11.276 6.072v5.204H6.073l5.203-5.204zm34.18 52.788h-.013c0 .87-.705 1.575-1.575 1.575H5.141c-.87 0-1.575-.706-1.575-1.575V14.828h9.5c.982 0 1.776-.793 1.776-1.776v-9.5h29.04c.868 0 1.574.706 1.574 1.576v12.044L26.709 35.918a1.782 1.782 0 0 0-.516 1.26v5.934c0 .982.794 1.776 1.776 1.776h5.947c.466 0 .92-.189 1.26-.516l10.28-10.28V58.86zm14.286-44.095l-26.57 26.558h-3.426v-3.427l26.57-26.557c.92-.92 2.507-.92 3.426 0a2.426 2.426 0 0 1 0 3.426z"/>
    </g>
</svg>
