<svg xmlns="http://www.w3.org/2000/svg" width="66" height="57" viewBox="0 0 66 57">
    <g fill="none" fill-rule="nonzero">
        <path fill="#FFF" d="M63.786 32.363v17.285a5.714 5.714 0 0 1-5.715 5.715H7.93a5.714 5.714 0 0 1-5.715-5.715V32.363a5.715 5.715 0 0 1 5.715-5.715H58.07a5.715 5.715 0 0 1 5.715 5.715zM46.157 45.7a.778.778 0 0 0-.129-.4l-2.471-3.815 2.372-3.8c.09-.13.14-.284.142-.442 0-.6-.814-1.059-1.443-1.059a.696.696 0 0 0-.671.373l-1.9 3.314-1.9-3.314a.696.696 0 0 0-.672-.373c-.628 0-1.442.459-1.442 1.059a.807.807 0 0 0 .143.443l2.37 3.8-2.47 3.814a.773.773 0 0 0-.129.4c0 .614.872 1.1 1.486 1.1a.6.6 0 0 0 .529-.229l2.085-3.543 2.086 3.543c.086.157.3.229.528.229.615 0 1.486-.486 1.486-1.1zm-9.8.1a.753.753 0 0 0-.028-.157l-2.672-8.714c-.157-.5-.8-.745-1.457-.745s-1.3.245-1.457.745l-2.657 8.714a.719.719 0 0 0-.03.157c0 .529.816.914 1.43.914.357 0 .642-.114.728-.414l.486-1.786h3.014L34.2 46.3c.086.3.371.414.729.414.614 0 1.428-.385 1.428-.914zm-9-8.543c0-.471-.2-.986-.671-.986h-6.171c-.472 0-.672.515-.672.986 0 .543.243 1.014.672 1.014h1.97v7.757c0 .457.558.686 1.115.686.557 0 1.114-.229 1.114-.686v-7.757h1.972c.428 0 .671-.471.671-1.014z"/>
        <path fill="#222" d="M46.028 45.3c.08.12.124.257.13.4 0 .614-.872 1.1-1.487 1.1-.228 0-.442-.072-.528-.229l-2.086-3.543-2.085 3.543a.6.6 0 0 1-.529.229c-.614 0-1.486-.486-1.486-1.1a.773.773 0 0 1 .129-.4l2.47-3.815-2.37-3.8a.807.807 0 0 1-.143-.442c0-.6.814-1.059 1.442-1.059a.696.696 0 0 1 .672.373l1.9 3.314 1.9-3.314a.696.696 0 0 1 .671-.373c.63 0 1.443.459 1.443 1.059a.812.812 0 0 1-.142.443l-2.372 3.8 2.471 3.814zM36.329 45.643a.753.753 0 0 1 .028.157c0 .529-.814.914-1.428.914-.358 0-.643-.114-.73-.414l-.485-1.786H30.7l-.486 1.786c-.086.3-.371.414-.729.414-.613 0-1.428-.385-1.428-.914a.719.719 0 0 1 .029-.157l2.657-8.714c.157-.5.8-.745 1.457-.745s1.3.245 1.457.745l2.672 8.714zM33.243 42.8L32.2 38.972 31.157 42.8h2.086z"/>
        <path fill="#0DABA0" d="M36.929 6.077A3.929 3.929 0 1 1 33 2.148a3.912 3.912 0 0 1 3.929 3.929z"/>
        <path fill="#FFF" d="M32.2 38.972l1.043 3.828h-2.086z"/>
        <path fill="#222" d="M26.686 36.271c.471 0 .671.515.671.986 0 .543-.243 1.014-.671 1.014h-1.972v7.757c0 .457-.557.686-1.114.686s-1.115-.229-1.115-.686v-7.757h-1.97c-.43 0-.672-.471-.672-1.014 0-.471.2-.986.672-.986h6.17z"/>
        <path fill="#222" stroke="#222" d="M58.071 25.47h-2.094L37.575 8.253a4.994 4.994 0 0 0 .496-2.185 5.072 5.072 0 0 0-10.142.007 4.96 4.96 0 0 0 .496 2.177L10.023 25.47H7.929C4.147 25.47 1 28.58 1 32.363v17.285c0 3.782 3.147 6.822 6.929 6.822H58.07a6.773 6.773 0 0 0 6.786-6.822V32.363c0-3.782-3.004-6.893-6.786-6.893zM33 3.29a2.785 2.785 0 1 1-2.21 4.483v-.001A2.789 2.789 0 0 1 33 3.29zm-3.141 6.75a5.035 5.035 0 0 0 6.282-.004L52.633 25.47H13.367L29.859 10.04zM62.57 49.613A4.572 4.572 0 0 1 58 54.184H7.857a4.572 4.572 0 0 1-4.571-4.571V32.327a4.572 4.572 0 0 1 4.571-4.571H58a4.572 4.572 0 0 1 4.571 4.571v17.286z"/>
    </g>
</svg>
