<svg width="20" height="22" viewBox="0 0 20 22" fill="none" xmlns="http://www.w3.org/2000/svg">
<path d="M19.1172 5.48828C19.1172 5.73321 19.0272 5.96962 18.8645 6.15265C18.7017 6.33569 18.4774 6.45262 18.2342 6.48128L18.1172 6.48828H17.2722L16.0412 19.0083C15.9742 19.6876 15.6569 20.3178 15.151 20.7761C14.6451 21.2345 13.9868 21.4884 13.3042 21.4883H5.93019C5.24754 21.4884 4.58926 21.2345 4.08339 20.7761C3.57752 20.3178 3.26021 19.6876 3.19319 19.0083L1.96219 6.48828H1.11719C0.851971 6.48828 0.597617 6.38292 0.410081 6.19539C0.222544 6.00785 0.117188 5.7535 0.117188 5.48828C0.117188 5.22306 0.222544 4.96871 0.410081 4.78117C0.597617 4.59364 0.851971 4.48828 1.11719 4.48828H6.11719C6.11719 4.02865 6.20772 3.57353 6.38361 3.14889C6.5595 2.72425 6.81731 2.33841 7.14231 2.01341C7.46732 1.6884 7.85316 1.43059 8.2778 1.2547C8.70244 1.07881 9.15756 0.988281 9.61719 0.988281C10.0768 0.988281 10.5319 1.07881 10.9566 1.2547C11.3812 1.43059 11.7671 1.6884 12.0921 2.01341C12.4171 2.33841 12.6749 2.72425 12.8508 3.14889C13.0267 3.57353 13.1172 4.02865 13.1172 4.48828H18.1172C18.3824 4.48828 18.6368 4.59364 18.8243 4.78117C19.0118 4.96871 19.1172 5.22306 19.1172 5.48828ZM11.8672 8.73828C11.686 8.73829 11.5108 8.80392 11.3743 8.92305C11.2377 9.04217 11.1488 9.20673 11.1242 9.38628L11.1172 9.48828V16.4883L11.1242 16.5903C11.1489 16.7698 11.2377 16.9343 11.3743 17.0534C11.5109 17.1724 11.686 17.2381 11.8672 17.2381C12.0484 17.2381 12.2235 17.1724 12.3601 17.0534C12.4966 16.9343 12.5855 16.7698 12.6102 16.5903L12.6172 16.4883V9.48828L12.6102 9.38628C12.5855 9.20673 12.4967 9.04217 12.3601 8.92305C12.2235 8.80392 12.0484 8.73829 11.8672 8.73828ZM7.36719 8.73828C7.18595 8.73829 7.01085 8.80392 6.87426 8.92305C6.73767 9.04217 6.64884 9.20673 6.62419 9.38628L6.61719 9.48828V16.4883L6.62419 16.5903C6.64889 16.7698 6.73774 16.9343 6.87432 17.0534C7.01091 17.1724 7.18598 17.2381 7.36719 17.2381C7.54839 17.2381 7.72347 17.1724 7.86005 17.0534C7.99663 16.9343 8.08549 16.7698 8.11019 16.5903L8.11719 16.4883V9.48828L8.11019 9.38628C8.08554 9.20673 7.99671 9.04217 7.86012 8.92305C7.72353 8.80392 7.54843 8.73829 7.36719 8.73828ZM9.61719 2.98828C9.21936 2.98828 8.83783 3.14632 8.55653 3.42762C8.27522 3.70893 8.11719 4.09046 8.11719 4.48828H11.1172C11.1172 4.09046 10.9592 3.70893 10.6778 3.42762C10.3965 3.14632 10.015 2.98828 9.61719 2.98828Z" fill="#D2D0D0"/>
</svg>
