<?xml version="1.0" encoding="UTF-8"?>
<svg width="42px" height="43px" viewBox="0 0 42 43" version="1.1" xmlns="http://www.w3.org/2000/svg" xmlns:xlink="http://www.w3.org/1999/xlink">
    <!-- Generator: Sketch 54.1 (76490) - https://sketchapp.com -->
    <title>ttdl_service_icn</title>
    <desc>Created with Sketch.</desc>
    <g id="UI" stroke="none" stroke-width="1" fill="none" fill-rule="evenodd">
        <g id="Vietel-Home-" transform="translate(-569.000000, -942.000000)">
            <g id="ttdl_service_icn" transform="translate(569.000000, 942.829627)">
                <rect id="Rectangle" fill="#0DABA0" x="11.3076923" y="27.4615385" width="29.0769231" height="12.9230769"></rect>
                <path d="M8.07175155,38.8779951 C4.08134413,37.6895132 1.58797491,35.7955352 1.58797491,33.8905107 L1.58797491,28.3218525 L1.84052196,28.5584241 C3.13476124,29.7707936 5.0973196,30.7949464 7.61261869,31.5497104 C7.68185529,31.5699044 7.7528756,31.5802079 7.82088708,31.5802079 C8.1363272,31.5802079 8.4179893,31.3745696 8.5097779,31.0681381 C8.62473201,30.6873526 8.40953155,30.2875679 8.02807674,30.1724114 C4.06351363,28.9837479 1.58797491,27.0966408 1.58797491,25.2006361 L1.58797491,19.6093211 L1.84053654,19.8459696 C4.66173038,22.4894089 10.5907947,24.1816487 17.3797491,24.1816487 C24.1687034,24.1816487 30.0977677,22.4894089 32.9189616,19.8459696 L33.1715232,19.6093211 L33.1715232,23.4626612 C33.1715232,23.8594996 33.4936723,24.1816487 33.8905107,24.1816487 C34.287349,24.1816487 34.6094981,23.8594996 34.6094981,23.4626612 L34.6094981,7.82088708 C34.6094981,3.55145198 27.050891,0.15 17.3797491,0.15 C7.70860712,0.15 0.15,3.55145198 0.15,7.82088708 L0.15,33.8905107 C0.15,36.5019235 2.87510932,38.8293363 7.66128199,40.2552267 C7.73101316,40.2755649 7.80031352,40.2857242 7.8678124,40.2857242 C8.18378482,40.2857242 8.464236,40.0795345 8.55496525,39.7719164 C8.66978501,39.391576 8.45345404,38.9917857 8.07175155,38.8779951 Z M17.3797491,1.58797491 C26.0762298,1.58797491 33.1715232,4.57508449 33.1715232,7.82088708 C33.1715232,11.0666897 26.0762298,14.0537992 17.3797491,14.0537992 C8.68326832,14.0537992 1.58797491,11.0666897 1.58797491,7.82088708 C1.58797491,4.57508449 8.68326832,1.58797491 17.3797491,1.58797491 Z M1.58797491,10.9194466 L1.84053654,11.1560951 C4.66173038,13.7995343 10.5907947,15.4917742 17.3797491,15.4917742 C24.1687034,15.4917742 30.0977677,13.7995343 32.9189616,11.1560951 L33.1715232,10.9194466 L33.1715232,16.5107616 C33.1715232,19.7565642 26.0762298,22.7436738 17.3797491,22.7436738 C8.68326832,22.7436738 1.58797491,19.7565642 1.58797491,16.5107616 L1.58797491,10.9194466 Z M41.5613977,28.6765859 C41.5613977,27.3221234 40.4588979,26.2196236 39.1044354,26.2196236 L13.0348118,26.2196236 C11.6803493,26.2196236 10.5778494,27.3221234 10.5778494,28.6765859 L10.5778494,32.1525358 C10.5778494,32.7614238 10.8082252,33.3369366 11.2170288,33.7900272 L11.2170288,33.9909941 C10.8082252,34.4440847 10.5778494,35.0195975 10.5778494,35.6284856 L10.5778494,39.1044354 C10.5778494,40.4588979 11.6803493,41.5613977 13.0348118,41.5613977 L39.1044354,41.5613977 C40.4588979,41.5613977 41.5613977,40.4588979 41.5613977,39.1044354 L41.5613977,35.6284856 C41.5613977,35.0195975 41.3310219,34.4440847 40.9222184,33.9909941 L40.9222184,33.7900272 C41.3310219,33.3369366 41.5613977,32.7614238 41.5613977,32.1525358 L41.5613977,28.6765859 Z M40.1234228,39.1044354 C40.1234228,39.6669592 39.6669592,40.1234228 39.1044354,40.1234228 L13.0348118,40.1234228 C12.472288,40.1234228 12.0158243,39.6669592 12.0158243,39.1044354 L12.0158243,35.6284856 C12.0158243,35.0659618 12.472288,34.6094981 13.0348118,34.6094981 L39.1044354,34.6094981 C39.6669592,34.6094981 40.1234228,35.0659618 40.1234228,35.6284856 L40.1234228,39.1044354 Z M40.1234228,32.1525358 C40.1234228,32.7150595 39.6669592,33.1715232 39.1044354,33.1715232 L13.0348118,33.1715232 C12.472288,33.1715232 12.0158243,32.7150595 12.0158243,32.1525358 L12.0158243,28.6765859 C12.0158243,28.1140622 12.472288,27.6575985 13.0348118,27.6575985 L39.1044354,27.6575985 C39.6669592,27.6575985 40.1234228,28.1140622 40.1234228,28.6765859 L40.1234228,32.1525358 Z" id="Shape" fill="#000000" fill-rule="nonzero"></path>
                <path d="M14.7727867,36.497473 C14.2931056,36.497473 13.9037992,36.8867794 13.9037992,37.3664605 C13.9037992,37.8461415 14.2931056,38.2354479 14.7727867,38.2354479 C15.2524678,38.2354479 15.6417742,37.8461415 15.6417742,37.3664605 C15.6417742,36.8867794 15.2524678,36.497473 14.7727867,36.497473 Z" id="Path" fill="#000000" fill-rule="nonzero"></path>
                <path d="M14.7727867,29.5455734 C14.2931056,29.5455734 13.9037992,29.9348798 13.9037992,30.4145609 C13.9037992,30.8942419 14.2931056,31.2835483 14.7727867,31.2835483 C15.2524678,31.2835483 15.6417742,30.8942419 15.6417742,30.4145609 C15.6417742,29.9348798 15.2524678,29.5455734 14.7727867,29.5455734 Z" id="Path" fill="#000000" fill-rule="nonzero"></path>
                <path d="M37.3664605,29.5455734 L30.4145609,29.5455734 C29.9348798,29.5455734 29.5455734,29.9074196 29.5455734,30.3532657 C29.5455734,30.7991119 29.9348798,31.160958 30.4145609,31.160958 L37.3664605,31.160958 C37.8461415,31.160958 38.2354479,30.7991119 38.2354479,30.3532657 C38.2354479,29.9074196 37.8461415,29.5455734 37.3664605,29.5455734 Z" id="Path" fill="#000000" fill-rule="nonzero"></path>
                <path d="M37.3664605,36.497473 L30.4145609,36.497473 C29.9348798,36.497473 29.5455734,36.8593192 29.5455734,37.3051653 C29.5455734,37.7510115 29.9348798,38.1128576 30.4145609,38.1128576 L37.3664605,38.1128576 C37.8461415,38.1128576 38.2354479,37.7510115 38.2354479,37.3051653 C38.2354479,36.8593192 37.8461415,36.497473 37.3664605,36.497473 Z" id="Path" fill="#000000" fill-rule="nonzero"></path>
            </g>
        </g>
    </g>
</svg>
