<?xml version="1.0" encoding="utf-8"?>
<!-- Generator: Adobe Illustrator 23.0.0, SVG Export Plug-In . SVG Version: 6.00 Build 0)  -->
<svg version="1.1" id="Layer_1" xmlns="http://www.w3.org/2000/svg" xmlns:xlink="http://www.w3.org/1999/xlink" x="0px" y="0px"
	 width="65px" height="65px" viewBox="0 0 65 65" style="enable-background:new 0 0 65 65;" xml:space="preserve">
<style type="text/css">
	.st0{fill-rule:evenodd;clip-rule:evenodd;fill:#EE0533;}
	.st1{fill:#FFFFFF;}
</style>
<g id="Page-1">
	<g id="Home-1" transform="translate(-684.000000, -619.000000)">
		<g id="Group-20" transform="translate(684.500000, 619.492923)">
			<circle id="Oval-Copy-7" class="st0" cx="32" cy="32" r="32"/>
			<path id="Shape" class="st1" d="M43,22.6c0-0.8,0-1.5-0.1-2.1c-0.7-0.1-1.4-0.1-2.1-0.1c-0.8,0-1.5,0-2.1,0.1
				c-0.1,0.7-0.1,1.4-0.1,2.1s0,1.5,0.1,2.1c0.7,0.1,1.4,0.1,2.1,0.1c0.8,0,1.5,0,2.1-0.1C43,24.1,43,23.4,43,22.6z M40.8,19.3
				c0.7,0,1.3,0,2,0.1c-0.4-2.8-1.3-4.5-2-4.5s-1.6,1.7-2,4.5C39.5,19.3,40.2,19.3,40.8,19.3z M33.3,24.4c0.7,2.8,2.9,5,5.7,5.7
				c-0.6-1-1.1-2.6-1.3-4.4C35.9,25.5,34.4,25.1,33.3,24.4z M40.8,30.3c0.7,0,1.6-1.7,2-4.5c-0.7,0.1-1.3,0.1-2,0.1s-1.3,0-2-0.1
				C39.3,28.7,40.2,30.3,40.8,30.3z M48.6,22.6c0-0.7-1.7-1.6-4.5-2c0.1,0.7,0.1,1.3,0.1,2s0,1.3-0.1,2
				C46.9,24.2,48.6,23.3,48.6,22.6z M48.3,20.8c-0.7-2.8-2.9-5-5.7-5.7c0.6,1,1.1,2.6,1.3,4.4C45.7,19.7,47.3,20.2,48.3,20.8z
				 M46.9,31.4c-0.3,0-0.6,0.2-0.6,0.6v7.7c0,0.3-0.2,0.6-0.6,0.6h-0.9l0.2-0.2c0.2-0.2,0.2-0.6,0-0.8s-0.6-0.2-0.8,0l-1.1,1.1l0,0
				C43,40.5,43,40.6,43,40.7v0.1c0,0.1,0.1,0.3,0.2,0.4l0,0l1.1,1.1c0.1,0.1,0.2,0.2,0.4,0.2s0.3-0.1,0.4-0.2
				c0.1-0.1,0.2-0.2,0.2-0.4c0-0.1-0.1-0.3-0.2-0.4l-0.2-0.2h0.9c0.9,0,1.7-0.7,1.7-1.7V32C47.4,31.7,47.2,31.4,46.9,31.4z
				 M42.6,30.1c2.8-0.7,5-2.9,5.7-5.7c-1,0.6-2.6,1.1-4.4,1.3C43.7,27.5,43.3,29.1,42.6,30.1z M39,15.1c-2.8,0.7-5,2.9-5.7,5.7
				c1-0.6,2.6-1.1,4.4-1.3C37.9,17.7,38.4,16.2,39,15.1z M37.6,24.6c-0.1-0.7-0.1-1.3-0.1-2s0-1.3,0.1-2c-2.8,0.4-4.5,1.3-4.5,2
				C33.1,23.3,34.8,24.2,37.6,24.6z M21.5,32.6c0.3,0,0.6-0.2,0.6-0.6v-6.6c0-0.9,0.7-1.7,1.7-1.7H29l-0.2,0.2
				c-0.2,0.2-0.2,0.6,0,0.8s0.6,0.2,0.8,0l1.1-1.1l0,0c0.1-0.1,0.1-0.2,0.1-0.3v-0.1c0-0.1-0.1-0.3-0.2-0.4l0,0l0,0l-1.1-1.1
				c-0.2-0.2-0.6-0.2-0.8,0c-0.1,0.1-0.2,0.2-0.2,0.4s0.1,0.3,0.2,0.4l0.2,0.2h-5.3c-1.5,0-2.8,1.2-2.8,2.8V32
				C21,32.3,21.2,32.6,21.5,32.6z"/>
			<path id="Combined-Shape" class="st1" d="M39.9,33.7c1.1,0,2.1,0.9,2.1,2.1v2.5c0,1.1-0.9,2.1-2.1,2.1H17.5
				c-1.1,0-2.1-0.9-2.1-2.1v-2.5c0-1.1,0.9-2.1,2.1-2.1H39.9z M19.9,38.1c0.6,0,1.1-0.5,1.1-1.1s-0.5-1.1-1.1-1.1s-1.1,0.5-1.1,1.1
				S19.3,38.1,19.9,38.1z M38.1,38.1c0.3,0,0.6-0.2,0.6-0.6c0-0.3-0.2-0.6-0.6-0.6h-6.6c-0.3,0-0.6,0.2-0.6,0.6
				c0,0.3,0.2,0.6,0.6,0.6H38.1z M39.9,41.4c1.1,0,2.1,0.9,2.1,2.1V46c0,1.1-0.9,2.1-2.1,2.1H17.5c-1.1,0-2.1-0.9-2.1-2.1v-2.5
				c0-1.1,0.9-2.1,2.1-2.1H39.9z M19.9,45.8c0.6,0,1.1-0.5,1.1-1.1s-0.5-1.1-1.1-1.1s-1.1,0.5-1.1,1.1S19.3,45.8,19.9,45.8z
				 M38.1,45.8c0.3,0,0.6-0.2,0.6-0.6c0-0.3-0.2-0.6-0.6-0.6h-6.6c-0.3,0-0.6,0.2-0.6,0.6c0,0.3,0.2,0.6,0.6,0.6H38.1z"/>
		</g>
	</g>
</g>
</svg>
