<?xml version="1.0" encoding="UTF-8"?>
<svg width="65px" height="65px" viewBox="0 0 65 65" version="1.1" xmlns="http://www.w3.org/2000/svg" xmlns:xlink="http://www.w3.org/1999/xlink">
    <!-- Generator: Sketch 54.1 (76490) - https://sketchapp.com -->
    <title>Group 20@1x</title>
    <desc>Created with Sketch.</desc>
    <g id="Page-1" stroke="none" stroke-width="1" fill="none" fill-rule="evenodd">
        <g id="Home-1" transform="translate(-684.000000, -619.000000)">
            <g id="Group-20" transform="translate(684.500000, 619.492923)">
                <circle id="Oval-Copy-7" fill="#0DABA0" cx="32" cy="32" r="32"></circle>
                <path d="M43.0344828,22.6206897 C43.0344828,21.8703448 42.998069,21.1685517 42.9384828,20.5097931 C42.2797241,20.4502069 41.577931,20.4137931 40.8275862,20.4137931 C40.0772414,20.4137931 39.3754483,20.4502069 38.7166897,20.5097931 C38.6571034,21.1685517 38.6206897,21.8703448 38.6206897,22.6206897 C38.6206897,23.3710345 38.6571034,24.0728276 38.7166897,24.7315862 C39.3754483,24.7911724 40.0772414,24.8275862 40.8275862,24.8275862 C41.577931,24.8275862 42.2797241,24.7911724 42.9384828,24.7315862 C42.998069,24.0728276 43.0344828,23.3710345 43.0344828,22.6206897 Z M40.8275862,19.3103448 C41.4929655,19.3103448 42.1583448,19.3401379 42.8104828,19.392 C42.3988966,16.5771034 41.4995862,14.8965517 40.8275862,14.8965517 C40.1555862,14.8965517 39.2562759,16.5771034 38.8446897,19.392 C39.4968276,19.3401379 40.1622069,19.3103448 40.8275862,19.3103448 Z M33.3263448,24.4325517 C34.0038621,27.2364138 36.2107586,29.4433103 39.0146207,30.1208276 C38.3867586,29.0725517 37.9464828,27.5067586 37.7147586,25.7335172 C35.9415172,25.5028966 34.3757241,25.0615172 33.3263448,24.4325517 Z M40.8275862,30.3448276 C41.4995862,30.3448276 42.3988966,28.6642759 42.8104828,25.8493793 C42.1583448,25.9012414 41.4929655,25.9310345 40.8275862,25.9310345 C40.1622069,25.9310345 39.4968276,25.9012414 38.8446897,25.8493793 C39.2562759,28.6642759 40.1555862,30.3448276 40.8275862,30.3448276 Z M48.5517241,22.6206897 C48.5517241,21.9486897 46.8711724,21.0493793 44.0562759,20.6377931 C44.1081379,21.289931 44.137931,21.9553103 44.137931,22.6206897 C44.137931,23.286069 44.1081379,23.9514483 44.0562759,24.6035862 C46.8711724,24.192 48.5517241,23.2926897 48.5517241,22.6206897 Z M48.3288276,20.8088276 C47.6513103,18.0049655 45.4444138,15.798069 42.6405517,15.1205517 C43.2684138,16.1688276 43.7086897,17.7346207 43.9404138,19.5078621 C45.7136552,19.7384828 47.2794483,20.1798621 48.3288276,20.8088276 Z M46.8965517,31.4482759 C46.592,31.4482759 46.3448276,31.6954483 46.3448276,32 L46.3448276,39.7241379 C46.3448276,40.0286897 46.0976552,40.2758621 45.7931034,40.2758621 L44.918069,40.2758621 L45.0791724,40.1147586 C45.2943448,39.8995862 45.2943448,39.5497931 45.0791724,39.3346207 C44.864,39.1194483 44.5142069,39.1194483 44.2990345,39.3346207 L43.1988966,40.4347586 C43.1878621,40.4457931 43.1757241,40.457931 43.1657931,40.470069 C43.094069,40.5550345 43.0510345,40.6565517 43.0388966,40.7613793 C43.0355862,40.7933793 43.0344828,40.8264828 43.0366897,40.8584828 C43.0444138,40.9875862 43.0962759,41.1133793 43.1944828,41.2126897 C43.1944828,41.2126897 43.1944828,41.2126897 43.1955862,41.2137931 L44.2990345,42.3172414 C44.4071724,42.4253793 44.5484138,42.4783448 44.6896552,42.4783448 C44.8308966,42.4783448 44.9721379,42.4242759 45.0802759,42.3172414 C45.1884138,42.2102069 45.2413793,42.0722759 45.2413793,41.9310345 C45.2413793,41.7897931 45.1873103,41.6485517 45.0802759,41.5404138 L44.9191724,41.3793103 L45.7942069,41.3793103 C46.7067586,41.3793103 47.4493793,40.6366897 47.4493793,39.7241379 L47.4493793,32 C47.4482759,31.6954483 47.2011034,31.4482759 46.8965517,31.4482759 Z M42.6394483,30.121931 C45.4433103,29.4444138 47.6502069,27.2375172 48.3277241,24.4336552 C47.2794483,25.0615172 45.7136552,25.5017931 43.9404138,25.7335172 C43.7097931,27.5067586 43.2684138,29.0725517 42.6394483,30.121931 Z M39.0157241,15.1194483 C36.2118621,15.7969655 34.0049655,18.0038621 33.3274483,20.8077241 C34.3757241,20.1798621 35.9415172,19.7395862 37.7147586,19.5078621 C37.9453793,17.7346207 38.3867586,16.1688276 39.0157241,15.1194483 Z M37.5988966,24.6035862 C37.5470345,23.9514483 37.5172414,23.286069 37.5172414,22.6206897 C37.5172414,21.9553103 37.5470345,21.289931 37.5988966,20.6377931 C34.784,21.0493793 33.1034483,21.9486897 33.1034483,22.6206897 C33.1034483,23.2926897 34.784,24.192 37.5988966,24.6035862 Z M21.5172414,32.5528276 C21.8217931,32.5528276 22.0689655,32.3056552 22.0689655,32.0011034 L22.0689655,25.3804138 C22.0689655,24.4678621 22.8115862,23.7252414 23.7241379,23.7252414 L29.0129655,23.7252414 L28.8518621,23.8863448 C28.6366897,24.1015172 28.6366897,24.4513103 28.8518621,24.6664828 C29.0670345,24.8816552 29.4168276,24.8816552 29.632,24.6664828 L30.7321379,23.5663448 C30.7431724,23.5553103 30.7553103,23.5431724 30.7652414,23.5310345 C30.8369655,23.446069 30.88,23.3445517 30.8921379,23.2397241 C30.8954483,23.2077241 30.8965517,23.1746207 30.8943448,23.1426207 C30.8877241,23.0113103 30.8358621,22.8844138 30.7376552,22.7851034 L30.7365517,22.784 C30.7365517,22.784 30.7365517,22.784 30.7354483,22.7828966 L29.632,21.6794483 C29.4168276,21.4642759 29.0670345,21.4642759 28.8518621,21.6794483 C28.7437241,21.7875862 28.6907586,21.9288276 28.6907586,22.070069 C28.6907586,22.2113103 28.7448276,22.3525517 28.8518621,22.4606897 L29.0129655,22.6217931 L23.7241379,22.6217931 C22.2035862,22.6217931 20.9655172,23.8598621 20.9655172,25.3804138 L20.9655172,32.0011034 C20.9655172,32.3056552 21.2126897,32.5528276 21.5172414,32.5528276 Z" id="Shape" fill="#FFFFFF" fill-rule="nonzero"></path>
                <path d="M39.8686897,33.6551724 C41.0052414,33.6551724 41.9310345,34.5798621 41.9310345,35.7175172 L41.9310345,38.2135172 C41.9310345,39.3511724 41.0052414,40.2758621 39.8686897,40.2758621 L17.5106207,40.2758621 C16.374069,40.2758621 15.4482759,39.3511724 15.4482759,38.2135172 L15.4482759,35.7175172 C15.4482759,34.5798621 16.374069,33.6551724 17.5106207,33.6551724 L39.8686897,33.6551724 Z M19.862069,38.0689655 C20.4711724,38.0689655 20.9655172,37.5746207 20.9655172,36.9655172 C20.9655172,36.3564138 20.4711724,35.862069 19.862069,35.862069 C19.2529655,35.862069 18.7586207,36.3564138 18.7586207,36.9655172 C18.7586207,37.5746207 19.2529655,38.0689655 19.862069,38.0689655 Z M38.0689655,38.0689655 C38.3735172,38.0689655 38.6206897,37.8217931 38.6206897,37.5172414 C38.6206897,37.2126897 38.3735172,36.9655172 38.0689655,36.9655172 L31.4482759,36.9655172 C31.1437241,36.9655172 30.8965517,37.2126897 30.8965517,37.5172414 C30.8965517,37.8217931 31.1437241,38.0689655 31.4482759,38.0689655 L38.0689655,38.0689655 Z M39.8686897,41.3793103 C41.0052414,41.3793103 41.9310345,42.304 41.9310345,43.4416552 L41.9310345,45.9376552 C41.9310345,47.0753103 41.0052414,48 39.8686897,48 L17.5106207,48 C16.374069,48 15.4482759,47.0753103 15.4482759,45.9376552 L15.4482759,43.4416552 C15.4482759,42.304 16.374069,41.3793103 17.5106207,41.3793103 L39.8686897,41.3793103 Z M19.862069,45.7931034 C20.4711724,45.7931034 20.9655172,45.2987586 20.9655172,44.6896552 C20.9655172,44.0805517 20.4711724,43.5862069 19.862069,43.5862069 C19.2529655,43.5862069 18.7586207,44.0805517 18.7586207,44.6896552 C18.7586207,45.2987586 19.2529655,45.7931034 19.862069,45.7931034 Z M38.0689655,45.7931034 C38.3735172,45.7931034 38.6206897,45.545931 38.6206897,45.2413793 C38.6206897,44.9368276 38.3735172,44.6896552 38.0689655,44.6896552 L31.4482759,44.6896552 C31.1437241,44.6896552 30.8965517,44.9368276 30.8965517,45.2413793 C30.8965517,45.545931 31.1437241,45.7931034 31.4482759,45.7931034 L38.0689655,45.7931034 Z" id="Combined-Shape" fill="#FFFFFF" fill-rule="nonzero"></path>
            </g>
        </g>
    </g>
</svg>
