<?xml version="1.0" encoding="UTF-8"?>
<svg width="72px" height="72px" viewBox="0 0 72 72" version="1.1" xmlns="http://www.w3.org/2000/svg" xmlns:xlink="http://www.w3.org/1999/xlink">
    <!-- Generator: Sketch 54.1 (76490) - https://sketchapp.com -->
    <title>why_icn_1</title>
    <desc>Created with Sketch.</desc>
    <g id="UI" stroke="none" stroke-width="1" fill="none" fill-rule="evenodd">
        <g id="Vietel-Home-" transform="translate(-295.000000, -2145.000000)">
            <g id="why_icn_1" transform="translate(295.400000, 2145.286128)">
                <circle id="Oval" stroke="#FFFFFF" cx="35.4368435" cy="35.4368435" r="35.4368435"></circle>
                <g id="Group-9" transform="translate(18.909012, 20.187094)" fill="#FFFFFF" fill-rule="nonzero" stroke-width="0.5">
                    <path d="M28.9853384,5.93031201 L28.9853384,4.03643786 C28.9853384,3.21883779 29.5304052,2.67377107 30.3480052,2.67377107 C31.1656053,2.67377107 31.710672,3.21883779 31.710672,4.03643786 L31.710672,9.487105 C31.710672,10.3047051 31.1656053,10.8497718 30.3480052,10.8497718 L24.8973381,10.8497718 C24.079738,10.8497718 23.5346713,10.3047051 23.5346713,9.487105 C23.5346713,8.66950493 24.079738,8.12443822 24.8973381,8.12443822 L27.2388335,8.12443822 C24.7275419,4.79319264 20.600591,2.72533357 16.3520014,2.72533357 C8.85733411,2.72533357 2.72533357,8.85733411 2.72533357,16.3520014 C2.72533357,23.8466688 8.85733411,29.9786693 16.3520014,29.9786693 C23.8466688,29.9786693 29.9786693,23.8466688 29.9786693,16.3520014 C29.9786693,15.5344014 30.523736,14.9893346 31.3413361,14.9893346 C32.1589362,14.9893346 32.7040029,15.5344014 32.7040029,16.3520014 C32.7040029,25.3456022 25.3456022,32.7040029 16.3520014,32.7040029 C7.35840065,32.7040029 -9.09494702e-13,25.3456022 -9.09494702e-13,16.3520014 C-9.09494702e-13,7.35840065 7.35840065,0 16.3520014,0 C21.2589734,0 25.8346322,2.20875476 28.9853384,5.93031201 Z" id="Combined-Shape"></path>
                    <path d="M16.3520014,21.8026686 C13.3541345,21.8026686 10.9013343,19.3498684 10.9013343,16.3520014 C10.9013343,13.3541345 13.3541345,10.9013343 16.3520014,10.9013343 C19.3498684,10.9013343 21.8026686,13.3541345 21.8026686,16.3520014 C21.8026686,19.3498684 19.3498684,21.8026686 16.3520014,21.8026686 Z M16.3520014,13.6266679 C14.853068,13.6266679 13.6266679,14.853068 13.6266679,16.3520014 C13.6266679,17.8509349 14.853068,19.077335 16.3520014,19.077335 C17.8509349,19.077335 19.077335,17.8509349 19.077335,16.3520014 C19.077335,14.853068 17.8509349,13.6266679 16.3520014,13.6266679 Z" id="Shape"></path>
                </g>
            </g>
        </g>
    </g>
</svg>
