<?xml version="1.0" encoding="UTF-8"?>
<svg width="72px" height="72px" viewBox="0 0 72 72" version="1.1" xmlns="http://www.w3.org/2000/svg" xmlns:xlink="http://www.w3.org/1999/xlink">
    <!-- Generator: Sketch 54.1 (76490) - https://sketchapp.com -->
    <title>why_icn_2</title>
    <desc>Created with Sketch.</desc>
    <g id="UI" stroke="none" stroke-width="1" fill="none" fill-rule="evenodd">
        <g id="Vietel-Home-" transform="translate(-688.000000, -2145.000000)">
            <g id="why_icn_2" transform="translate(688.867449, 2145.286128)">
                <circle id="Oval-Copy-3" stroke="#FFFFFF" cx="35.4368435" cy="35.4368435" r="35.4368435"></circle>
                <g id="Combined-Shape-4" transform="translate(21.036844, 18.587094)" fill="#FFFFFF" fill-rule="nonzero" stroke-width="0.5">
                    <path d="M1.6,17.602681 L1.6,23.997319 C1.6,24.8837492 2.31582489,25.6 3.2,25.6 C4.08182904,25.6 4.8,24.8815844 4.8,23.997319 L4.8,17.602681 C4.8,16.7162508 4.08417512,16 3.2,16 C2.31817098,16 1.6,16.7184156 1.6,17.602681 Z M0,17.602681 C0,15.8348819 1.4343934,14.4 3.2,14.4 C4.96804384,14.4 6.4,15.8328082 6.4,17.602681 L6.4,23.997319 C6.4,25.7651181 4.96560656,27.2 3.2,27.2 C1.43195616,27.2 0,25.7671918 0,23.997319 L0,17.602681 Z M12.8,32.8 C12.8,33.2455705 13.1550038,33.6 13.5983305,33.6 L15.2016695,33.6 C15.6406498,33.6 16,33.240742 16,32.8 C16,32.3544295 15.6449962,32 15.2016695,32 L13.5983305,32 C13.1593502,32 12.8,32.359258 12.8,32.8 Z M11.2,32.8 C11.2,31.4755105 12.2757866,30.4 13.5983305,30.4 L15.2016695,30.4 C16.5280723,30.4 17.6,31.4701934 17.6,32.8 C17.6,34.1244895 16.5242134,35.2 15.2016695,35.2 L13.5983305,35.2 C12.2719277,35.2 11.2,34.1298066 11.2,32.8 Z M24,17.602681 L24,23.997319 C24,24.8837492 24.7158249,25.6 25.6,25.6 C26.481829,25.6 27.2,24.8815844 27.2,23.997319 L27.2,17.602681 C27.2,16.7162508 26.4841751,16 25.6,16 C24.718171,16 24,16.7184156 24,17.602681 Z M22.4,17.602681 C22.4,15.8348819 23.8343934,14.4 25.6,14.4 C27.3680438,14.4 28.8,15.8328082 28.8,17.602681 L28.8,23.997319 C28.8,25.7651181 27.3656066,27.2 25.6,27.2 C23.8319562,27.2 22.4,25.7671918 22.4,23.997319 L22.4,17.602681 Z M1.6,21.6606867 C1.6,22.1025145 1.2418278,22.4606867 0.8,22.4606867 C0.3581722,22.4606867 0,22.1025145 0,21.6606867 L0,13.6 C0,6.0889274 6.08892744,0 13.6,0 L15.2,0 C22.7110726,0 28.8,6.0889274 28.8,13.6 L28.8,21.6027496 C28.8,22.0445774 28.4418278,22.4027496 28,22.4027496 C27.5581722,22.4027496 27.2,22.0445774 27.2,21.6027496 L27.2,13.6 C27.2,6.97258304 21.827417,1.6 15.2,1.6 L13.6,1.6 C6.97258304,1.6 1.6,6.97258304 1.6,13.6 L1.6,21.6606867 Z M24.8,26.4027496 C24.8,25.9609218 25.1581722,25.6027496 25.6,25.6027496 C26.0418278,25.6027496 26.4,25.9609218 26.4,26.4027496 C26.4,30.3776813 23.1776813,33.6 19.2027496,33.6 L16.8,33.6 C16.3581722,33.6 16,33.2418278 16,32.8 C16,32.3581722 16.3581722,32 16.8,32 L19.2027496,32 C22.2940257,32 24.8,29.4940257 24.8,26.4027496 Z" id="Combined-Shape"></path>
                </g>
            </g>
        </g>
    </g>
</svg>
