<?xml version="1.0" encoding="UTF-8"?>
<svg width="72px" height="72px" viewBox="0 0 72 72" version="1.1" xmlns="http://www.w3.org/2000/svg" xmlns:xlink="http://www.w3.org/1999/xlink">
    <!-- Generator: Sketch 54.1 (76490) - https://sketchapp.com -->
    <title>why_icn_3</title>
    <desc>Created with Sketch.</desc>
    <g id="UI" stroke="none" stroke-width="1" fill="none" fill-rule="evenodd">
        <g id="Vietel-Home-" transform="translate(-1082.000000, -2145.000000)">
            <g id="why_icn_3" transform="translate(1082.334898, 2145.286128)">
                <circle id="Oval-Copy-4" stroke="#FFFFFF" cx="35.4368435" cy="35.4368435" r="35.4368435"></circle>
                <g id="Rectangle-2" transform="translate(27.235171, 21.787094)" fill="#FFFFFF" fill-rule="nonzero" stroke-width="0.64">
                    <path d="M15.7922296,14.6100796 L9.49490765,13.9803474 C9.02008086,13.9328647 8.7152814,13.4530347 8.87410152,13.0030444 L12.9438819,1.472 L4.30362792,1.472 L1.59249207,17.7388149 L8.89877665,18.4030226 C9.29448639,18.4389962 9.59020501,18.7825635 9.56687234,19.1792194 L9.04143399,28.1116707 L15.7922296,14.6100796 Z M10.5741909,12.608934 L17.0013771,13.2516526 C17.5143277,13.3029477 17.8169834,13.8520639 17.5864408,14.3131492 L8.7544408,31.9771492 C8.39650626,32.6930183 7.3144133,32.4037654 7.36141242,31.6047806 L8.05555036,19.8044358 L0.669508102,19.1329774 C0.243205494,19.0942227 -0.0602162465,18.7012386 0.0101564671,18.2790023 L2.95415647,0.615002343 C3.01330481,0.260111997 3.32035673,6.75015599e-14 3.68014238,6.75015599e-14 L13.9841424,6.75015599e-14 C14.4919486,6.75015599e-14 14.8471914,0.502099259 14.6781832,0.980955608 L10.5741909,12.608934 Z" id="Rectangle"></path>
                </g>
            </g>
        </g>
    </g>
</svg>
