<svg xmlns="http://www.w3.org/2000/svg" width="41" height="36" viewBox="0 0 41 36">
    <g fill="none" fill-rule="nonzero" transform="translate(.377 .442)">
        <path fill="#41A5EE" d="M38.303 0H11.152c-.938 0-1.697.76-1.697 1.697v7.03l16 3.637L40 8.727v-7.03C40 .76 39.24 0 38.303 0z"/>
        <path fill="#2B7CD3" d="M40 8.727H9.455v8.728l16 4.363L40 17.455z"/>
        <path fill="#185ABD" d="M9.455 17.455v8.727l16 5.09L40 26.183v-8.727z"/>
        <path fill="#103F91" d="M11.152 34.91h27.151c.937 0 1.697-.76 1.697-1.698v-7.03H9.455v7.03c0 .937.76 1.697 1.697 1.697z"/>
        <path fill="#000" d="M21.09 8.967v19.157c.003.097-.007.195-.028.29a1.683 1.683 0 0 1-1.666 1.404H9.455V7.273h9.941a1.692 1.692 0 0 1 1.695 1.694z" opacity=".2"/>
        <path fill="#000" d="M21.818 8.967V26.67a2.445 2.445 0 0 1-2.422 2.422H9.455V6.545h9.941a2.43 2.43 0 0 1 2.422 2.422z" opacity=".1"/>
        <path fill="#000" d="M21.09 8.967V26.67a1.692 1.692 0 0 1-1.694 1.695H9.455V7.273h9.941a1.692 1.692 0 0 1 1.695 1.694z" opacity=".2"/>
        <path fill="#000" d="M20.364 8.967V26.67a1.692 1.692 0 0 1-1.695 1.695H9.455V7.273h9.214a1.692 1.692 0 0 1 1.695 1.694z" opacity=".1"/>
        <rect width="20.364" height="20.364" y="7.273" fill="#185ABD" rx="2.333"/>
        <path fill="#FFF" d="M6.963 20.285c.033.262.055.49.065.685h.039a11.41 11.41 0 0 1 .215-1.33l1.785-7.7h2.307l1.846 7.584c.109.471.186.949.231 1.43h.03c.035-.465.1-.927.193-1.384l1.477-7.63h2.1l-2.585 11.03h-2.453l-1.762-7.308a16.73 16.73 0 0 1-.173-.823 9.527 9.527 0 0 1-.12-.738h-.03c-.02.18-.06.446-.12.8-.058.354-.105.615-.141.784L8.213 22.97H5.72L3.113 11.94h2.138l1.608 7.714c.036.16.07.37.104.631z"/>
    </g>
</svg>
