<?xml version="1.0" encoding="utf-8"?>
<!-- Generator: Adobe Illustrator 23.0.0, SVG Export Plug-In . SVG Version: 6.00 Build 0)  -->
<svg version="1.1" id="Layer_1" xmlns="http://www.w3.org/2000/svg" xmlns:xlink="http://www.w3.org/1999/xlink" x="0px" y="0px"
	 width="65px" height="65px" viewBox="0 0 65 65" style="enable-background:new 0 0 65 65;" xml:space="preserve">
<style type="text/css">
	.st0{fill-rule:evenodd;clip-rule:evenodd;fill:#EE0533;}
	.st1{fill:#FFFFFF;}
</style>
<g id="Group-19">
	<circle id="Oval-Copy-8" class="st0" cx="32.5" cy="32.4" r="32"/>
</g>
<g id="Shape-4" transform="translate(19.500000, 17.500000)">
	<path id="Shape_1_" class="st1" d="M12,17.2c-0.4-0.1-0.6,0.1-0.7,0.5l-0.7,3.1l-1.1-2.5c-0.2-0.5-1-0.5-1.1,0l-1.1,2.5l-0.7-3.1
		c-0.1-0.4-0.4-0.5-0.7-0.5c-0.4,0.1-0.5,0.4-0.5,0.7l1.2,4.8c0.1,0.2,0.2,0.5,0.5,0.5c0.2,0,0.5-0.1,0.6-0.4L8.9,20l1.2,2.9
		c0.1,0.2,0.4,0.4,0.6,0.4l0,0c0.2,0,0.5-0.2,0.5-0.5l1.2-4.8C12.6,17.6,12.4,17.3,12,17.2z M28.8,17.2c-0.4-0.1-0.6,0.1-0.7,0.5
		l-0.7,3.1l-1.1-2.5c-0.2-0.5-1-0.5-1.1,0l-1.1,2.5l-0.7-3.1c-0.1-0.4-0.4-0.5-0.7-0.5c-0.4,0.1-0.5,0.4-0.5,0.7l1.2,4.8
		c0.1,0.2,0.2,0.5,0.5,0.5s0.5-0.1,0.6-0.4l1.2-2.9l1.2,2.9c0.1,0.2,0.4,0.4,0.6,0.4l0,0c0.2,0,0.5-0.2,0.5-0.5l1.2-4.8
		C29.4,17.6,29.2,17.3,28.8,17.2z M20.4,17.2c-0.4-0.1-0.6,0.1-0.7,0.5L19,20.8l-1.1-2.5c-0.2-0.5-1-0.5-1.1,0l-1.1,2.5L15,17.7
		c-0.1-0.4-0.4-0.5-0.7-0.5c-0.4,0.1-0.5,0.4-0.5,0.7l1.2,4.8c0.1,0.2,0.2,0.5,0.5,0.5s0.5-0.1,0.6-0.4l1.2-2.9l1.2,2.9
		c0.1,0.2,0.4,0.4,0.6,0.4l0,0c0.2,0,0.5-0.2,0.5-0.5l1.2-4.8C21,17.6,20.8,17.3,20.4,17.2z"/>
	<path id="Combined-Shape" class="st1" d="M21.6,22.2c0.2,0.1,0.5,0.4,0.5,0.6v5.8c0,0.4-0.2,0.6-0.6,0.6H1.1
		c-0.4,0-0.6-0.2-0.6-0.6V8.2c0-0.1,0-0.1,0-0.1c0-0.1,0-0.1,0-0.1c0-0.1,0-0.1,0.1-0.2l7.2-7.2c0,0,0.1-0.1,0.2-0.1s0.1,0,0.1,0
		c0.1,0,0.1,0,0.1,0h13.2c0.4,0,0.6,0.2,0.6,0.6v14.8c0,0.1-0.1,0.4-0.4,0.5c-0.2,0.1-0.4,0.1-0.6,0s-0.4-0.2-0.5-0.2
		c-0.6-0.1-1.3,0.1-1.8,0.6C18.6,17,18.2,17,18,16.9c-0.5-0.2-1.2-0.2-1.7,0c-0.2,0.1-0.5,0.1-0.7-0.1c-0.4-0.5-1.1-0.7-1.8-0.6
		c-0.1,0.1-0.4,0.1-0.5,0.2c-0.2,0.1-0.4,0.1-0.6,0c-0.2-0.1-0.4-0.2-0.5-0.2c-0.6-0.1-1.3,0.1-1.8,0.6C10.3,17,9.9,17,9.7,16.9
		c-0.5-0.2-1.2-0.2-1.7,0C7.8,17,7.5,17,7.3,16.8c-0.4-0.5-1.1-0.7-1.8-0.6c-1,0.2-1.6,1.2-1.3,2.2L5.5,23c0.1,0.7,0.8,1.2,1.6,1.3
		c0.5,0,1.1-0.1,1.4-0.6c0.1-0.1,0.2-0.2,0.5-0.2c0.2,0,0.4,0.1,0.5,0.2c0.4,0.4,0.8,0.6,1.3,0.6h0.1c0.7,0,1.3-0.6,1.6-1.3l0.1-0.2
		c0.1-0.5,1.1-0.5,1.2,0l0.1,0.2c0.1,0.7,0.8,1.2,1.6,1.3c0.5,0,1.1-0.1,1.4-0.6c0.1-0.1,0.2-0.2,0.5-0.2s0.4,0.1,0.5,0.2
		c0.4,0.4,0.8,0.6,1.3,0.6h0.1c0.7,0,1.3-0.6,1.6-1.3l0.1-0.2C21,22.4,21.3,22.2,21.6,22.2z M7.7,2.4L2.5,7.6h5.2V2.4z"/>
</g>
</svg>
