<svg width="242" height="100" viewBox="0 0 242 100" fill="none" xmlns="http://www.w3.org/2000/svg">
<rect x="0.5" y="0.5" width="241" height="99"/>
<path d="M88.7325 63.32C87.1112 63.32 85.6605 63.0213 84.3805 62.424C83.1219 61.8267 82.1832 61.0053 81.5645 59.96L83.2925 57.976C83.8685 58.7227 84.6365 59.3307 85.5965 59.8C86.5779 60.248 87.5805 60.472 88.6045 60.472C89.8845 60.472 90.9085 60.12 91.6765 59.416C92.4659 58.6907 92.8605 57.752 92.8605 56.6C92.8605 55.3413 92.3805 54.36 91.4205 53.656C90.4605 52.952 89.1379 52.6 87.4525 52.6H86.0445V49.944H87.4205C88.8285 49.944 89.9592 49.592 90.8125 48.888C91.6659 48.1627 92.0925 47.224 92.0925 46.072C92.0925 45.1333 91.7832 44.408 91.1645 43.896C90.5459 43.384 89.6819 43.128 88.5725 43.128C87.5272 43.128 86.5459 43.352 85.6285 43.8C84.7325 44.2267 83.9859 44.8347 83.3885 45.624L81.7245 43.64C82.4285 42.616 83.4205 41.8053 84.7005 41.208C86.0019 40.5893 87.4099 40.28 88.9245 40.28C90.2472 40.28 91.4099 40.504 92.4125 40.952C93.4152 41.4 94.1939 42.04 94.7485 42.872C95.3032 43.6827 95.5805 44.6213 95.5805 45.688C95.5805 46.9253 95.2285 48.024 94.5245 48.984C93.8205 49.944 92.8285 50.6587 91.5485 51.128C93.1272 51.5547 94.3219 52.248 95.1325 53.208C95.9645 54.168 96.3805 55.3627 96.3805 56.792C96.3805 58.072 96.0605 59.2133 95.4205 60.216C94.8019 61.1973 93.9059 61.9653 92.7325 62.52C91.5805 63.0533 90.2472 63.32 88.7325 63.32ZM106.707 63.32C104.189 63.32 102.259 62.3493 100.915 60.408C99.5705 58.4453 98.8985 55.576 98.8985 51.8C98.8985 48.024 99.5705 45.1653 100.915 43.224C102.259 41.2613 104.189 40.28 106.707 40.28C109.224 40.28 111.144 41.2613 112.467 43.224C113.811 45.1653 114.483 48.024 114.483 51.8C114.483 55.576 113.811 58.4453 112.467 60.408C111.144 62.3493 109.224 63.32 106.707 63.32ZM106.707 60.728C108.115 60.728 109.181 59.9813 109.907 58.488C110.632 56.9947 110.995 54.7653 110.995 51.8C110.995 48.8133 110.632 46.584 109.907 45.112C109.181 43.6187 108.115 42.872 106.707 42.872C103.827 42.872 102.387 45.848 102.387 51.8C102.387 54.7653 102.749 56.9947 103.475 58.488C104.221 59.9813 105.299 60.728 106.707 60.728ZM124.457 63.32C121.939 63.32 120.009 62.3493 118.665 60.408C117.321 58.4453 116.649 55.576 116.649 51.8C116.649 48.024 117.321 45.1653 118.665 43.224C120.009 41.2613 121.939 40.28 124.457 40.28C126.974 40.28 128.894 41.2613 130.217 43.224C131.561 45.1653 132.233 48.024 132.233 51.8C132.233 55.576 131.561 58.4453 130.217 60.408C128.894 62.3493 126.974 63.32 124.457 63.32ZM124.457 60.728C125.865 60.728 126.931 59.9813 127.657 58.488C128.382 56.9947 128.745 54.7653 128.745 51.8C128.745 48.8133 128.382 46.584 127.657 45.112C126.931 43.6187 125.865 42.872 124.457 42.872C121.577 42.872 120.137 45.848 120.137 51.8C120.137 54.7653 120.499 56.9947 121.225 58.488C121.971 59.9813 123.049 60.728 124.457 60.728ZM141.567 55.864H134.911V53.368H141.567V46.232H144.575V53.368H151.263V55.864H144.575V63H141.567V55.864Z" fill="#7F7F7F"/>
</svg>
