<svg width="30" height="40" viewBox="0 0 30 40" fill="none" xmlns="http://www.w3.org/2000/svg">
<path d="M3.35938 14.8438C3.35938 21.3056 8.61634 26.5625 15.0781 26.5625C21.5399 26.5625 26.7969 21.3056 26.7969 14.8438C26.7969 8.38197 21.5399 3.125 15.0781 3.125C8.61634 3.125 3.35938 8.38197 3.35938 14.8438ZM15.0781 4.6875C20.6784 4.6875 25.2344 9.24348 25.2344 14.8438C25.2344 20.4441 20.6784 25 15.0781 25C9.47785 25 4.92188 20.4441 4.92188 14.8438C4.92188 9.24348 9.47785 4.6875 15.0781 4.6875Z" fill="#EE0033"/>
<path d="M7.84303 13.4509L10.8713 16.4346L10.1746 20.6281C10.1261 20.9201 10.2466 21.2143 10.4862 21.3883C10.7254 21.5622 11.0425 21.5857 11.3053 21.4496L15.0781 19.4904L18.8507 21.4496C19.1114 21.5848 19.4284 21.5637 19.6698 21.3883C19.9094 21.2143 20.0299 20.9201 19.9814 20.6281L19.2847 16.4346L22.313 13.4509C22.5238 13.2434 22.5992 12.9346 22.5077 12.6529C22.4161 12.3715 22.1735 12.1661 21.8808 12.1219L17.6783 11.4893L15.7767 7.68646C15.6446 7.42188 15.3739 7.25464 15.0781 7.25464C14.7821 7.25464 14.5117 7.42188 14.3793 7.68646L12.4777 11.4893L8.27516 12.1219C7.9825 12.1658 7.73988 12.3715 7.64833 12.6529C7.55677 12.9346 7.63246 13.2434 7.84303 13.4509ZM13.1116 12.9739C13.3631 12.9361 13.5803 12.7783 13.6942 12.551L15.0781 9.78272L16.4621 12.551C16.576 12.7783 16.7932 12.9361 17.0447 12.9739L20.1035 13.4345L17.8992 15.6058C17.7182 15.7843 17.6352 16.0397 17.6767 16.2906L18.1839 19.3427L15.438 17.9169C15.3253 17.8583 15.2017 17.829 15.0781 17.829C14.9546 17.829 14.831 17.8583 14.718 17.9169L11.9721 19.3427L12.4793 16.2906C12.5211 16.0397 12.4381 15.7843 12.2568 15.6058L10.0528 13.4345L13.1116 12.9739Z" fill="#EE0033"/>
<path d="M15.8594 0.781251C15.8594 1.21277 15.5096 1.5625 15.0781 1.5625C14.6466 1.5625 14.2969 1.21277 14.2969 0.781251C14.2969 0.349732 14.6466 0 15.0781 0C15.5096 0 15.8594 0.349732 15.8594 0.781251Z" fill="#EE0033"/>
<path d="M11.3962 0.460534C4.82423 2.13809 0.234375 8.05271 0.234375 14.8438C0.234375 19.0616 2.00775 23.0359 5.12086 25.8506L0.414124 34.1456C0.262756 34.4126 0.281677 34.7434 0.462342 34.9912C0.643006 35.2393 0.951844 35.3587 1.25244 35.2961L6.5976 34.1862L8.47627 39.4801C8.5782 39.7682 8.83912 39.9699 9.14369 39.997C9.44826 40.0242 9.74031 39.8707 9.89137 39.6049L15.0781 30.4862L20.2646 39.6049C20.4044 39.8505 20.6644 39.9998 20.9433 39.9998C20.9662 39.9998 20.9894 39.9989 21.0123 39.997C21.3169 39.9699 21.5778 39.7678 21.68 39.4801L23.5584 34.1862L28.9035 35.2961C29.2038 35.3584 29.513 35.239 29.6936 34.9912C29.8746 34.7434 29.8932 34.4126 29.7419 34.1456L25.0351 25.8506C28.1482 23.0359 29.9216 19.0616 29.9216 14.8438C29.9216 8.05271 25.3318 2.13809 18.7601 0.460534C18.3417 0.353723 17.9166 0.606103 17.8098 1.02419C17.703 1.44229 17.9553 1.8677 18.3734 1.97451C24.253 3.47537 28.3594 8.76743 28.3594 14.8438C28.3594 22.2391 22.3532 28.1251 15.0781 28.1251C7.79786 28.1251 1.79688 22.2342 1.79688 14.8438C1.79688 8.76743 5.90302 3.47537 11.7825 1.97451C12.2006 1.8677 12.453 1.44229 12.3465 1.02419C12.2397 0.606103 11.8146 0.353723 11.3962 0.460534ZM9.37776 37.3481L7.84242 33.0216C7.7118 32.6536 7.32972 32.4384 6.94734 32.5178L2.62513 33.4153L6.35011 26.8503C8.52205 28.4293 11.0938 29.3912 13.768 29.6293L9.37776 37.3481ZM23.2087 32.5178C22.8266 32.4384 22.4442 32.6536 22.3136 33.0216L20.7785 37.3481L16.388 29.6293C19.0625 29.3912 21.6339 28.4293 23.8062 26.8503L27.5312 33.4153L23.2087 32.5178Z" fill="#EE0033"/>
</svg>
